<?xml version="1.0" encoding="utf-8"?>
<!-- Generator: Adobe Illustrator 23.0.3, SVG Export Plug-In . SVG Version: 6.00 Build 0)  -->
<svg version="1.1" id="圖層_1" xmlns="http://www.w3.org/2000/svg" xmlns:xlink="http://www.w3.org/1999/xlink" x="0px" y="0px"
	 viewBox="0 0 414 294" style="enable-background:new 0 0 414 294;" xml:space="preserve">
<style type="text/css">
	.st0{clip-path:url(#SVGID_2_);}
	.st1{fill-rule:evenodd;clip-rule:evenodd;fill:#E4EFE7;}
	.st2{clip-path:url(#SVGID_4_);fill-rule:evenodd;clip-rule:evenodd;fill:url(#SVGID_5_);}
	.st3{opacity:0.8;clip-path:url(#SVGID_7_);}
	.st4{fill-rule:evenodd;clip-rule:evenodd;fill:#FFFFFF;}
	.st5{clip-path:url(#SVGID_9_);}
	.st6{fill:#615200;}
	.st7{fill:#5EB4AF;}
	.st8{clip-path:url(#SVGID_11_);}
	.st9{fill:#308482;}
	.st10{fill:#684E46;}
	.st11{clip-path:url(#SVGID_13_);}
	.st12{clip-path:url(#SVGID_15_);}
	.st13{clip-path:url(#SVGID_17_);}
	.st14{fill:#FFFFFF;}
	.st15{fill:#222421;}
	.st16{fill:#0C151A;}
	.st17{fill-rule:evenodd;clip-rule:evenodd;fill:#363835;}
	.st18{fill-rule:evenodd;clip-rule:evenodd;fill:#684E46;}
	.st19{fill-rule:evenodd;clip-rule:evenodd;fill:#FCD1C8;}
	.st20{fill:#F8A8A0;}
	.st21{fill:#FCD1C8;}
	.st22{fill-rule:evenodd;clip-rule:evenodd;fill:#E4D9E1;}
	.st23{fill-rule:evenodd;clip-rule:evenodd;fill:#7F5A50;}
	.st24{fill-rule:evenodd;clip-rule:evenodd;fill:#F8A8A0;}
	.st25{fill-rule:evenodd;clip-rule:evenodd;fill:#F68B85;}
	.st26{fill-rule:evenodd;clip-rule:evenodd;fill:#936E65;}
	.st27{fill-rule:evenodd;clip-rule:evenodd;fill:#00A59B;}
	.st28{fill-rule:evenodd;clip-rule:evenodd;fill:#CEAE89;}
	.st29{fill-rule:evenodd;clip-rule:evenodd;fill:#E39400;}
	.st30{fill-rule:evenodd;clip-rule:evenodd;fill:#FFCC00;}
	.st31{fill-rule:evenodd;clip-rule:evenodd;fill:#FFE252;}
	.st32{fill-rule:evenodd;clip-rule:evenodd;fill:#F5A40E;}
	.st33{fill-rule:evenodd;clip-rule:evenodd;fill:#FFDD30;}
	.st34{fill:#DBBAAB;}
	.st35{fill:#FED190;}
	.st36{fill:#D2D2CC;}
	.st37{fill:#656360;}
	.st38{fill:#C8C2BF;}
	.st39{fill:#B37F43;}
	.st40{fill:#F7D5AB;}
	.st41{opacity:0.8;clip-path:url(#SVGID_19_);}
</style>
<g>
	<defs>
		<rect id="SVGID_1_" x="0" width="414" height="294"/>
	</defs>
	<clipPath id="SVGID_2_">
		<use xlink:href="#SVGID_1_"  style="overflow:visible;"/>
	</clipPath>
	<g class="st0">
		<rect x="0" y="-41" class="st1" width="414" height="335"/>
		<g>
			<g>
				<defs>
					<path id="SVGID_3_" d="M269.9-41H144.1H0v294.6V251v0h0c42.2,14.3,119.1,23.9,207,23.9s164.8-9.6,207-23.9h0v0v2.6V-41H269.9z"
						/>
				</defs>
				<clipPath id="SVGID_4_">
					<use xlink:href="#SVGID_3_"  style="overflow:visible;"/>
				</clipPath>
				
					<linearGradient id="SVGID_5_" gradientUnits="userSpaceOnUse" x1="207" y1="-27.633" x2="207" y2="252.645" gradientTransform="matrix(1 0 0 -1 0 254)">
					<stop  offset="0" style="stop-color:#FFFFFF"/>
					<stop  offset="1" style="stop-color:#A3D8C3"/>
				</linearGradient>
				<rect x="0" y="-41" class="st2" width="414" height="335"/>
			</g>
			<g>
				<defs>
					<path id="SVGID_6_" d="M269.9-41H144.1H0v294.6V251v0h0c42.2,14.3,119.1,23.9,207,23.9s164.8-9.6,207-23.9h0v0v2.6V-41H269.9z"
						/>
				</defs>
				<clipPath id="SVGID_7_">
					<use xlink:href="#SVGID_6_"  style="overflow:visible;"/>
				</clipPath>
				<g class="st3">
					<path class="st4" d="M77,127.7c-1.8,0-3.5,0.3-5,0.9c-0.7-0.8-1.7-1.3-2.9-1.3c-0.5,0-1,0.1-1.5,0.3c-0.3-3.3-3-6-6.4-6
						c-1.5,0-2.8,0.5-3.9,1.3c-0.2-0.3-0.5-0.6-0.8-0.8c0.6-1.1,1-2.4,1-3.7c0-2.1-0.9-4-2.2-5.4c-1.4-1.4-3.3-2.2-5.4-2.2h0
						c-1.2-0.6-2.5-1-3.9-1c-0.9,0-1.7,0.1-2.5,0.4c-0.4-0.8-1-1.4-1.7-1.8c0.2-0.9,0.3-1.9,0.3-2.9c0-3.8-1.6-7.3-4.1-9.8
						c-2.5-2.5-6-4-9.8-4c-1.2,0-2.4,0.2-3.5,0.4c-8.2,0.1-14.8,6.8-14.8,15c0,0.1,0,0.2,0,0.3c-0.7-0.2-1.5-0.3-2.3-0.3
						c-1.6,0-3,0.4-4.3,1.1c-2.2-3-5.7-4.9-9.7-4.9c-6.6,0-12,5.4-12,12c0,1.3,0.2,2.6,0.6,3.7c-0.1,0-0.2,0-0.4,0
						c-3.3,0-5.9,2.6-5.9,5.9c0,0.4,0,0.8,0.1,1.1c0,0-0.1,0-0.1,0c-1.8,0-3.3,1.5-3.4,3.3c-0.5-0.1-1-0.1-1.6-0.1
						c-2.1,0-4.1,0.7-5.6,2.1c-3.8,3.6,0.4,4.6,4.4,4.6h5.3h4.1h84.9h6.6h10.9c4.2,0,10.2,0.7,6.1-3.7
						C84.8,129.5,81.1,127.7,77,127.7L77,127.7z M40.5,108.2c-0.2,0-0.4-0.1-0.6-0.1l-0.1,0c0-0.3,0-0.6,0-0.9
						c0-6.6-4.3-12.2-10.2-14.2c2.9,0.3,5.5,1.7,7.4,3.6c2.3,2.3,3.7,5.5,3.7,9C40.8,106.5,40.7,107.3,40.5,108.2L40.5,108.2z
						 M55.3,121.7c-0.4-0.1-0.8-0.2-1.2-0.2c-0.2,0-0.4,0-0.6,0.1c0.4-1,0.7-2.1,0.7-3.3c0-2.3-0.9-4.4-2.5-5.9
						c1,0.3,1.9,0.9,2.6,1.6c1.2,1.2,1.9,2.8,1.9,4.6C56.2,119.6,55.9,120.7,55.3,121.7z"/>
				</g>
			</g>
			<g>
				<defs>
					<path id="SVGID_8_" d="M269.9-41H144.1H0v294.6V251v0h0c42.2,14.3,119.1,23.9,207,23.9s164.8-9.6,207-23.9h0v0v2.6V-41H269.9z"
						/>
				</defs>
				<clipPath id="SVGID_9_">
					<use xlink:href="#SVGID_8_"  style="overflow:visible;"/>
				</clipPath>
				<g class="st5">
					<g>
						<g>
							<rect x="57.2" y="236.1" class="st6" width="15.6" height="59.7"/>
						</g>
					</g>
					<path class="st7" d="M109.3,205.8c0.8-2.4,1.2-5,1.2-7.6c0-12.7-9.4-23.3-21.7-25.2c-2.1-12-12.5-21.1-25.2-21.1
						c-12,0.7-21.7,9.7-23.6,21.3c-11.7,2.4-20.4,12.6-20.4,25c0,2.7,0.4,5.2,1.2,7.6c-6.7,6.7-10.8,15.9-10.8,26.1
						c0,19.8,15.7,36,35.4,36.8l0,0.1c6.9,0,30.9,0,37.8,0c20.4,0,37-16.5,37-36.9C120.1,221.7,116,212.5,109.3,205.8z"/>
				</g>
			</g>
			<g>
				<defs>
					<path id="SVGID_10_" d="M269.9-41H144.1H0v294.6V251v0h0c42.2,14.3,119.1,23.9,207,23.9s164.8-9.6,207-23.9h0v0v2.6V-41H269.9z
						"/>
				</defs>
				<clipPath id="SVGID_11_">
					<use xlink:href="#SVGID_10_"  style="overflow:visible;"/>
				</clipPath>
				<g class="st8">
					<ellipse class="st9" cx="12.3" cy="265" rx="77.8" ry="73"/>
					<ellipse class="st9" cx="14.5" cy="188.5" rx="55.7" ry="55.5"/>
					<g>
						<path class="st10" d="M13.6,196l3.1,177.7c0,2.1-1.6,3.8-3.7,3.8c-2.1,0-3.8-1.6-3.9-3.7c0,0,0-0.1,0-0.1l3.1-177.7
							c0-0.4,0.3-0.7,0.7-0.7C13.3,195.3,13.6,195.6,13.6,196z"/>
						<path class="st10" d="M-0.8,220.8l14.6,16.4c0.7,0.7,0.6,1.9-0.1,2.5c-0.7,0.7-1.9,0.6-2.5-0.1c0,0-0.1-0.1-0.1-0.1
							l-13.3-17.5c-0.3-0.4-0.2-1,0.2-1.3C-1.6,220.3-1.1,220.4-0.8,220.8z"/>
						<path class="st10" d="M12,267.3l19.8-21.5c0.3-0.4,0.9-0.4,1.2-0.1c0.3,0.3,0.4,0.8,0.1,1.2l-18.4,22.7
							c-0.6,0.8-1.7,0.9-2.5,0.3S11.3,268.2,12,267.3C12,267.4,12,267.4,12,267.3z"/>
						<path class="st10" d="M-7.8,284.6l21.6,22.6c0.7,0.7,0.7,1.8-0.1,2.5c-0.7,0.7-1.8,0.6-2.5-0.1c0,0-0.1-0.1-0.1-0.1
							l-20.2-23.9c-0.3-0.3-0.2-0.9,0.1-1.2C-8.6,284.2-8.1,284.3-7.8,284.6z"/>
					</g>
				</g>
			</g>
			<g>
				<defs>
					<path id="SVGID_12_" d="M269.9-41H144.1H0v294.6V251v0h0c42.2,14.3,119.1,23.9,207,23.9s164.8-9.6,207-23.9h0v0v2.6V-41H269.9z
						"/>
				</defs>
				<clipPath id="SVGID_13_">
					<use xlink:href="#SVGID_12_"  style="overflow:visible;"/>
				</clipPath>
				<g class="st11">
					<g>
						<g>
							<rect x="360.4" y="236.1" class="st6" width="15.6" height="59.7"/>
						</g>
					</g>
					<path class="st7" d="M323.9,205.8c-0.8-2.4-1.2-5-1.2-7.6c0-12.7,9.4-23.3,21.6-25.2c2.1-12,12.5-21.1,25.2-21.1
						c12,0.7,21.7,9.7,23.6,21.3c11.7,2.4,20.4,12.6,20.4,25c0,2.7-0.4,5.2-1.2,7.6c6.7,6.7,10.8,15.9,10.8,26.1
						c0,19.8-15.7,36-35.4,36.8l0,0.1c-6.9,0-30.9,0-37.8,0c-20.4,0-37-16.5-37-36.9C313.1,221.7,317.2,212.5,323.9,205.8z"/>
				</g>
			</g>
			<g>
				<defs>
					<path id="SVGID_14_" d="M269.9-41H144.1H0v294.6V251v0h0c42.2,14.3,119.1,23.9,207,23.9s164.8-9.6,207-23.9h0v0v2.6V-41H269.9z
						"/>
				</defs>
				<clipPath id="SVGID_15_">
					<use xlink:href="#SVGID_14_"  style="overflow:visible;"/>
				</clipPath>
				<g class="st12">
					<ellipse class="st9" cx="420.9" cy="265" rx="77.8" ry="73"/>
					<ellipse class="st9" cx="418.6" cy="188.5" rx="55.7" ry="55.5"/>
					<g>
						<path class="st10" d="M419.5,196l-3.1,177.7c0,2.1,1.6,3.8,3.7,3.8c2.1,0,3.8-1.6,3.9-3.7c0,0,0-0.1,0-0.1l-3.1-177.7
							c0-0.4-0.3-0.7-0.7-0.7C419.9,195.3,419.6,195.6,419.5,196z"/>
						<path class="st10" d="M433.9,220.8l-14.6,16.4c-0.7,0.7-0.6,1.9,0.1,2.5c0.7,0.7,1.9,0.6,2.5-0.1c0,0,0.1-0.1,0.1-0.1
							l13.3-17.5c0.3-0.4,0.2-1-0.2-1.3C434.8,220.3,434.2,220.4,433.9,220.8z"/>
						<path class="st10" d="M421.1,267.3l-19.8-21.5c-0.3-0.4-0.9-0.4-1.2-0.1c-0.3,0.3-0.4,0.8-0.1,1.2l18.4,22.7
							c0.6,0.8,1.7,0.9,2.5,0.3S421.8,268.2,421.1,267.3C421.2,267.4,421.1,267.4,421.1,267.3z"/>
						<path class="st10" d="M441,284.6l-21.6,22.6c-0.7,0.7-0.7,1.8,0.1,2.5c0.7,0.7,1.8,0.6,2.5-0.1c0,0,0.1-0.1,0.1-0.1l20.2-23.9
							c0.3-0.3,0.2-0.9-0.1-1.2C441.8,284.2,441.3,284.3,441,284.6z"/>
					</g>
				</g>
			</g>
			<g>
				<defs>
					<path id="SVGID_16_" d="M269.9-41H144.1H0v294.6V251v0h0c42.2,14.3,119.1,23.9,207,23.9s164.8-9.6,207-23.9h0v0v2.6V-41H269.9z
						"/>
				</defs>
				<clipPath id="SVGID_17_">
					<use xlink:href="#SVGID_16_"  style="overflow:visible;"/>
				</clipPath>
				<g id="Group_52_00000135652154069195870530000009125850824343529901_" class="st13">
					<g>
						<path id="Path_1045_00000091703073624071669650000006081443166860225951_" class="st14" d="M216.7,236.7
							c-0.6-0.1-1-0.6-0.9-1.1c0.1-0.5,0.5-0.9,1.1-0.9c-0.1,0-0.1,0-0.1,0c-0.7-0.1-1.3,0.4-1.4,1.1c-0.1,0.7,0.4,1.3,1.1,1.4
							c0.7,0.1,1.3-0.4,1.4-1.1c0,0,0,0,0,0c0-0.1,0-0.1,0-0.1C217.8,236.4,217.3,236.8,216.7,236.7"/>
						<path id="Path_1046_00000139278016528093507030000013820689339423425437_" class="st15" d="M182.6,415.8c0,0,3.6,11,2.8,15.3
							l-8,5.6l-0.4-1.5c0,0-6.7,11-17.7,13.5c-11,2.5-16.9-1.4-12.3-7c4.6-5.6,7.6-6.5,10.3-10.3s3.9-6.1,3.6-8.9
							C160.7,419.6,182.6,415.8,182.6,415.8"/>
						<path id="Path_1047_00000062156188860533691660000010440028055277515194_" class="st16" d="M185.4,431l-8,5.6l-0.4-1.5
							c0,0-12.5,19.3-30,12.9c0,0,20.6,1.6,28.7-14l1.3-0.9l1.3,1.2l7.2-5.4L185.4,431z"/>
						<path id="Path_1048_00000001636283773703825730000013845115371749702838_" class="st17" d="M162.1,427.6c0,0-6,8.2-9.9,10.5
							s-5.6,6-2.8,6.1s11,0.9,21.2-13.1C170.6,431.1,167.9,431.1,162.1,427.6"/>
						<path id="Path_1049_00000065780212488757677820000005891315602777151106_" class="st15" d="M216.6,424.5
							c0,0,3.2,11.2,2.3,15.4l-8.2,5.3l-0.3-1.5c0,0-7.1,10.8-18.2,12.9c-11.1,2.1-16.9-2-12-7.5c4.8-5.4,7.8-6.3,10.7-10
							s4.1-5.9,3.9-8.7C194.6,427.5,216.6,424.5,216.6,424.5"/>
						<path id="Path_1050_00000074417325173368888550000004054234691897876907_" class="st16" d="M218.9,439.8l-8.2,5.3l-0.3-1.5
							c0,0-13.2,18.8-30.4,11.8c0,0,20.6,2.3,29.2-13l1.3-0.9l1.2,1.3l7.3-5.1L218.9,439.8z"/>
						<path id="Path_1051_00000049930727557888291380000013822470217003802553_" class="st17" d="M195.6,435.7c0,0-6.3,8-10.3,10.1
							s-5.7,5.8-3,6c2.8,0.2,13.8-1.8,24.5-15.4C203.3,438.1,199,437.8,195.6,435.7"/>
						<path id="Path_1052_00000086687226115916607860000015969470923842912650_" class="st10" d="M229.6,299c0,0,5.6,19.4-6,26.5
							s-23.5,21.5-44,28.2c0,0,7.6,49.9,7.7,70.9c0,0-9.2,6.3-26.6-0.5c0,0-11.9-68.6-9.9-83.5c1.4-10.3,40.7-36.1,51.6-40.4
							C202.4,300.3,216.4,294,229.6,299"/>
						<path id="Path_1053_00000134967203512109477690000006536622062418154637_" class="st10" d="M268.1,305.7
							c0,0,6.3,23.2-5.5,29.9c-11.9,6.7-37.8,19.2-48.2,26.3c0,0,6.6,45.9,4.3,66.8c0,0-6.3,12.1-23.5,4.7c0,0-11.6-70.8-9.1-85.6
							c1.8-10.3,42-34.6,53-38.6C239,309.2,255.1,300.2,268.1,305.7"/>
						<path id="Path_1054_00000019652056563517496380000006084772507884079262_" class="st18" d="M205.9,295.3l-12.8,4.3l-2.7,9.2
							l77,11.4l1.4-21.5L205.9,295.3z"/>
						<g>
							<g>
								<path id="Path_1055_00000016062949395403664240000007062599778940291002_" class="st19" d="M312.5,292.7
									c-3.9-6.1-7.7-11.2-12-17.1c-8.1-11-19.4-26.4-20.3-27.7c-9-11.9,10.9-25.3,19.3-11.7c3.5,5.6,9.9,19.6,14.7,29.9
									c2.5,5.3,4.8,10.4,7.6,15.5l4.5,8.5l-11.2,10.4C315.3,298.2,314.9,296.5,312.5,292.7"/>
								<path id="Path_1057_00000106112250332253783130000001462806776901858473_" class="st19" d="M324.1,317.2
									c1.2,1,2.3,1.7,2.8,1.7c1.4,0.1,2.8-2.6,2.8-2.6c1.7-0.2,4.4,0.2,4.9-1.8c0.2-0.7,0.3-1.5,0.4-2.3c0,0,1.8-0.2,1.9-1.6
									s-0.1-8-0.1-8s0.1-1.9-2.5-4.8s-8-7.9-8-7.9c-1.3-0.9-3-1-4.5-0.5c-2.3,1-5.3,5-5.1,8.1c0,0-3.1,2.9-2.7,5.7
									s4.1,10.8,5.2,13.9C320.2,320.2,323.2,320.2,324.1,317.2"/>
								<path id="Path_1058_00000025437105835644339550000007358196575538584489_" class="st19" d="M331.8,300.5l-0.7,1.4l-4.2,0.4
									c0,0-1.1-3-2.2-3.8s-2.2-0.3-2.3,0.3c0,0.8,0.2,1.6,0.4,2.3c-1.9,0.7-2.3,3.3-2.3,3.3c-0.6,0.5-0.9,1.2-0.8,1.9l0.8,2.9
									c-0.9,0.6-1.8,2.6-1.2,3.4s6.2,6.1,7.7,6.2s2.8-2.6,2.8-2.6c1.7-0.2,4.4,0.2,4.9-1.8c0.2-0.7,0.3-1.5,0.4-2.3
									c0,0,1.8-0.2,1.9-1.6s-0.1-8-0.1-8C335.8,301.1,333.8,300.2,331.8,300.5"/>
								<path id="Path_1059_00000169539565269089699940000007280909612524358581_" class="st20" d="M321.6,289.5c0,0,0.1,0,0.1-0.1
									c0.2-0.1,0.3,0,0.4,0.2c0,0,0,0,0,0c0.1,0.2,0,0.3-0.2,0.4c-2.3,1-5.1,4.9-4.9,7.8c0.2,1.6,0.8,3.1,1.7,4.4
									c0.1,0.1,0.1,0.3-0.1,0.4c-0.1,0.1-0.3,0.1-0.4,0c-1-1.4-1.7-3-1.8-4.7C316.2,294.7,319.1,290.6,321.6,289.5 M322.7,298
									c0.7-0.3,1.5-0.2,2.1,0.2c1.2,0.7,2.2,3.6,2.3,3.9c0,0.2,0,0.3-0.2,0.4c-0.2,0.1-0.3,0-0.4-0.2c-0.3-0.8-1.2-3.1-2-3.6
									c-0.4-0.3-1-0.4-1.5-0.2l0,0c-0.2,0.1-0.2,0.2-0.2,0.2c0,0.8,0.2,1.5,0.3,2.2l1.1,4.3c0,0,0.4,1.6,1.5,1.8
									c1.3,0.2,8.5,0,8.6,0c1.2-0.1,2.2-1,2.3-2.3c0-0.2,0.2-0.3,0.3-0.3c0.2,0,0.3,0.2,0.3,0.3c-0.1,1.5-1.4,2.7-2.9,2.8
									c-0.3,0-7.4,0.2-8.7,0c-1.5-0.2-2-2.2-2-2.2l-1-3.9c-1.2,0.7-1.7,2.4-1.7,2.8c0.2,0.5,1,3.1,1.6,5.2c0.3,1.2,1.3,2,2.5,2
									l10.2,0.4c0.2,0,0.3,0.1,0.3,0.3v0c0,0.2-0.2,0.3-0.3,0.3l-10.2-0.4c-1.5,0-2.7-1.1-3.1-2.5c-0.5-1.7-1.1-3.8-1.4-4.7
									c-0.3,0.4-0.4,0.8-0.3,1.3l0.8,2.9c0.1,0.2,1.1,3.1,1.8,4.9c0.3,1,1.2,1.6,2.3,1.6l4.9,0.3c0.2,0,0.3,0.2,0.3,0.3
									s-0.2,0.3-0.3,0.3l0,0l-4.9-0.3c-1.3,0-2.4-0.8-2.8-2c-0.6-1.5-1.3-3.6-1.7-4.5c-0.5,0.5-0.8,1.1-0.9,1.8
									c-0.1,0.3-0.1,0.7,0.1,1c0.9,1,1.9,1.9,2.9,2.8c0.1,0.1,0.1,0.3,0,0.4s-0.3,0.1-0.4,0l0,0c-1.1-0.9-2-1.9-3-2.9
									c-0.3-0.4-0.3-1-0.2-1.5c0.2-0.9,0.6-1.7,1.3-2.3l-0.7-2.7c-0.1-0.8,0.2-1.6,0.8-2.2c0.1-0.5,0.6-2.5,2.2-3.3
									c-0.2-0.7-0.3-1.5-0.3-2.2C322.2,298.4,322.4,298.2,322.7,298L322.7,298"/>
							</g>
							<g>
								<g>
									<path class="st21" d="M275.6,181.6c0,0-4.4,12.2-4.5,14.8c0,2.5,5.9,6,11.6,10.7c0,0-12.5,10-28.9,4.7
										c-16.3-5.2-25.5-14.2-27.1-18.3c0,0,20.8,1.5,22.6-3.2c1.7-4.7,4.6-15.2,4.6-15.2L275.6,181.6z"/>
									<path class="st20" d="M258.8,197.3c-5.4-1.6-7.8-7-8.8-11.2c1.8-6,3.3-11.2,3.3-11.2l22.3,6.7c0,0-1.8,5.1-3.6,10.8
										C269.1,195.5,264.3,199,258.8,197.3z"/>
								</g>
								<path class="st22" d="M204.3,186.7c2.4,1.1,2.2,9.1-1.5,17.6s-8.8,12.1-11.3,12.7c-2.5,0.6-1.2-8.1,2.5-16.6
									C197.7,191.9,201.8,185.6,204.3,186.7z"/>
								<g>
									<polygon class="st18" points="206.7,294.1 194.9,295.4 188.8,308.5 269.6,316.3 269.2,298.2 									"/>
								</g>
								<g>
									<g>
										<g>
											<path class="st23" d="M206.7,294.1l-11.9,1.3l-2.9,6.3c48.2,12.4,70.4,8,77.5,5.6l-0.2-9.1l-5.5-0.4
												c-5.8,0.1-12.7,1.1-16.5-0.1c-0.8-0.3-2.1-0.7-3.8-1.3L206.7,294.1z"/>
										</g>
									</g>
								</g>
								<g>
									<path class="st4" d="M288.3,211c0,0,3.9,3.6,5.4,6.6c1.5,3.1,16.4,33.1,16.4,33.1s-22.1,12.6-21.9,10.7
										s-22.5-24.2-20.1-27.4C270.6,230.9,288.3,211,288.3,211z"/>
								</g>
								<g>
									<path class="st22" d="M288.7,262.9c-2.3-3.2-10.7-13.5-15.7-19.8c5.2-3.2,12.4-7.4,12.4-7.4s-1.5,4.9-0.2,7
										c1.4,2.1,9.9,16.2,9.9,16.2S291.9,260.7,288.7,262.9z"/>
								</g>
								<g>
									<path class="st19" d="M241.9,164c0,0-1.9-2.4-3.3-2.3c-1.4,0.1-3.2,3.1-3.2,5.4c0.1,2.3,2.2,10.6,6.9,7.7
										C247,172,241.9,164,241.9,164z"/>
								</g>
								<g>
									<path class="st24" d="M243.5,166.7c0.1,0.2,0.2,0.4,0.1,0.6c-0.1,0.2-0.3,0.2-0.4,0.1l0,0c0,0-1.6,7.1-2.6,5.9
										c-0.9-1.2-1.9-2.3-2.3-4.1s1.3-3.4,0.8-3.9c-0.5-0.5-1.1,0.2-1.2,0.3l0,0l0,0l0,0c-0.5,0.6-0.7,1.3-0.7,1.3
										c-0.1,0.2-0.3,0.3-0.4,0.1c-0.2-0.1-0.2-0.4-0.2-0.6c0,0,0.9-2.7,2.8-2.5C241.2,164.1,243.5,166.7,243.5,166.7z"/>
								</g>
								<g>
									<path class="st19" d="M283.3,166.2c0,0,2.1-2.2,3.5-2c1.4,0.2,2.9,3.4,2.5,5.7c-0.3,2.3-3.4,10.3-7.7,7
										C277.3,173.6,283.3,166.2,283.3,166.2z"/>
								</g>
								<g>
									<path class="st24" d="M281.4,168.7c-0.2,0.2-0.2,0.4-0.1,0.6c0.1,0.2,0.3,0.2,0.4,0.1l0,0c0,0,0.8,7.2,1.9,6.2
										c1.1-1.1,2.2-2.1,2.7-3.9c0.5-1.8-0.9-3.6-0.3-4c0.6-0.4,1.1,0.3,1.1,0.4l0,0l0,0l0,0c0.4,0.6,0.6,1.4,0.6,1.4
										c0.1,0.2,0.2,0.3,0.4,0.2c0.2-0.1,0.3-0.4,0.2-0.6c0,0-0.6-2.8-2.5-2.8C284,166.3,281.4,168.7,281.4,168.7z"/>
								</g>
								<g>
									<path class="st19" d="M264.6,130.3c-27.5-1-24.7,21.8-23.4,40.1c0.6,7.7,4.3,12.4,4.3,12.4s7.3,7.6,9.9,9.2
										c1.5,1,3.5,1.5,5.5,1.6c2,0.1,4-0.2,5.6-1c2.8-1.4,10.9-8.1,10.9-8.1s4.3-4.3,5.7-11.9C286.7,154.5,292,132.2,264.6,130.3z
										"/>
								</g>
								<g>
									<path class="st20" d="M254.9,163.8c-0.1,0-0.1,0-0.2-0.1c-0.1-0.2-3.1-4-6.9-1.2c-0.1,0.1-0.3,0.1-0.3-0.1
										s-0.1-0.3,0.1-0.3c4.2-3,7.5,1.3,7.6,1.3c0.1,0.1,0.1,0.3,0,0.3C255,163.8,255,163.8,254.9,163.8z M267.7,164.2
										c0,0-0.1,0-0.1-0.1c-0.1-0.1-0.1-0.2,0-0.3c0,0,3.7-3.9,8.2-0.9c0.1,0.1,0.1,0.2,0.1,0.3c-0.1,0.1-0.2,0.1-0.3,0.1
										c-4.2-2.8-7.6,0.7-7.6,0.8C267.8,164.2,267.7,164.2,267.7,164.2z"/>
								</g>
								<g>
									<path class="st24" d="M261.8,134.3c-17.7,0.3-21.4,11.6-21.6,24.6c0.2,0.1,0.5,0.2,0.8,0.3c9.4,3,11.4-4.3,16.1-11.9
										c4.7-7.6,11.7-5.6,11.7-5.6l-2.2,11.7c4.7,8,15,6,15,6l0.9,0.9c0,0,1.8-8.2,1.7-14.4c-1.6-3.9-4.4-7.1-9.1-9.2
										C270.9,135.6,265.9,134.8,261.8,134.3z"/>
								</g>
								<g>
									<path class="st18" d="M279.6,156.6c0,0,1.2,9.5,4.3,12.2c0,0,0.9-3.8,1.8-4.3c0,0,2.9-10.9,1.3-14.8
										C285.5,145.8,280.4,152.9,279.6,156.6z"/>
								</g>
								<g>
									<path class="st18" d="M246.1,152c0,0-0.6,9.6-5.2,14.2c0,0-0.7-3.5-1.5-4.2c0,0-1.4-11.1,0.6-14.7
										C242,143.5,245.7,148.3,246.1,152z"/>
								</g>
								<g>
									<g>
										<path class="st18" d="M268.4,159.1c0,0-0.7,0.2-1.3-0.1c-0.6-0.3-1.1-1.3-1.1-1.5c0-0.2,0.4,0.1,1.6-0.4
											c1.2-0.5,5.8-1.8,8.7,1.2c0.5,0.5,0.1,0.9-0.6,0.7C275.1,158.8,272.3,157.4,268.4,159.1z"/>
									</g>
									<g>
										<path class="st24" d="M258.8,164c0.1-0.2,0.4-0.3,0.7-0.2c0.3,0.1,0.4,0.4,0.2,0.7c-0.4,0.8-2,3.5-2,4
											c0,0.3,0.5,0.8,0.7,1c0.4,0.3,0.8,0.6,1.3,0.8c0.3,0.1,0.4,0.3,0.4,0.6c-0.1,0.3-0.3,0.4-0.6,0.4c-0.7-0.2-1.3-0.5-1.8-1
											c-0.4-0.4-1-1.1-1.1-1.7C256.6,167.9,258.3,164.9,258.8,164z"/>
									</g>
									<g>
										<path class="st18" d="M254,158.3c0,0,0.6,0.2,1.2,0c0.6-0.2,1.1-1.1,1.1-1.3c0-0.2-0.3,0.1-1.4-0.5
											c-1-0.6-4.9-2.1-7.8,0.5c-0.5,0.4-0.2,0.8,0.4,0.7C248.1,157.5,250.8,156.5,254,158.3z"/>
									</g>
									<g>
										<path class="st18" d="M253.2,164.9c0,0,0.5,0.2,1,0c0.5-0.2,1-1.1,1-1.3s-0.3,0.1-1.2-0.5c-0.8-0.6-4-2.2-6.7,0.3
											c-0.5,0.4-0.2,0.8,0.3,0.7C248.3,164,250.5,163,253.2,164.9z"/>
									</g>
									<g>
										<path class="st18" d="M269.3,165.4c0,0-0.6,0.2-1.1,0c-0.5-0.2-0.9-1.1-0.9-1.4c0-0.2,0.3,0.1,1.3-0.4
											c1-0.5,4.5-1.9,7,0.7c0.4,0.5,0.1,0.8-0.4,0.7C274.6,164.9,272.4,163.7,269.3,165.4z"/>
									</g>
									<g>
										<path class="st18" d="M253.9,172.1c1.6,0.8,4.2,1.2,6.8,1.2c2.6,0,5.2-0.3,6.9-1c0.3-0.1,0.7,0,0.9,0.3
											c0.1,0.1,0.1,0.3,0,0.4l0,0c-1.1,3.7-2.8,6.2-4.6,7.6c-1.1,0.8-2.3,1.2-3.5,1.2c-1.2,0-2.4-0.5-3.4-1.4
											c-1.7-1.4-3.1-4-3.9-7.6c-0.1-0.3,0.1-0.7,0.5-0.8C253.6,172,253.8,172,253.9,172.1L253.9,172.1z"/>
									</g>
									<g>
										<path class="st4" d="M254.3,172.3c1.6,0.7,4,1,6.4,1c2.6,0,5.2-0.3,6.9-1c0.3-0.1,0.7,0,0.9,0.3c0.1,0.1,0.1,0.3,0,0.4h0
											c-0.1,0.3-0.2,0.6-0.3,0.9c-4.9,2.3-11.7,1.1-12.9,0.3C254.5,173.8,254.3,172.9,254.3,172.3z"/>
									</g>
									<g>
										<path class="st25" d="M266.1,178.1c-0.7,1.1-1.5,1.9-2.3,2.5c-1.1,0.8-2.3,1.2-3.5,1.2c-1.2,0-2.4-0.5-3.4-1.4
											c-0.3-0.2-0.5-0.5-0.8-0.8c0.8-0.5,2.5-1.1,4.8-0.2C260.9,179.5,263.4,177.5,266.1,178.1z"/>
									</g>
									<g>
										<path class="st24" d="M258.1,184c-0.2-0.1-0.3-0.4-0.2-0.7c0.1-0.2,0.4-0.3,0.7-0.2c0,0,1.9,1,4.3,0
											c0.3-0.1,0.6,0,0.7,0.3c0.1,0.3,0,0.6-0.3,0.7C260.4,185.1,258.1,184,258.1,184z"/>
									</g>
								</g>
								<g>
									<path class="st23" d="M263.9,140.5c0,0-0.6,12.5,6.1,16.1c6.7,3.6,11-0.6,11-0.6s0.9,3.3,5.8,3c4.9-0.3,9.1-9.6,2.9-20.4
										c-6.2-10.8-20.3-25.6-32.4-9.9c0,0-5.6-3.2-10.3-0.2s-12.6,12.7-10.9,21.3c1.7,8.6,10.2,10.9,16.2,4.2
										C258.3,147.3,259.6,139.9,263.9,140.5z"/>
								</g>
								<g>
									<path class="st26" d="M286.7,134.2c-6.6,4.3-14.1,3.6-21.7-1.6c-0.2-0.1-0.3,0-0.5,0.2c-0.1,0.2-0.1,0.5,0.1,0.6
										c3.7,3.8,9.1,7.2,13.6,9c4.6,1.8,9.2,2.5,13.8,1.7c-0.5-1.7-1.3-3.5-2.3-5.3C288.9,137.3,287.9,135.7,286.7,134.2z"/>
								</g>
								<polygon class="st20" points="185,209.7 208.8,221.8 224.1,201.5 197.6,189.8 								"/>
								<g>
									<path class="st19" d="M197.2,148.6c0.1,6.8,0.7,12.8,1.2,19.7c1.1,12.8,2.6,30.8,2.7,32.3c1.4,14-21.3,15-21.3-0.1
										c0-6.2,1.7-20.7,2.9-31.3c0.6-5.5,1.3-10.8,1.5-16.3l0.6-9.1l14.2-2.9C197.7,142.9,197.2,144.4,197.2,148.6z"/>
								</g>
								<g>
									<path class="st24" d="M184.5,149.7l0.4-5.8l10.7-2.2c-0.3,2.1-1.4,8.2-7.5,8.1C186.7,149.8,185.5,149.8,184.5,149.7z"/>
								</g>
								<g>
									<path class="st24" d="M197.2,150.2l0.1,4.2c-6.1,1.5-10.8-0.2-13.2-1.5l0.2-1.4C187.2,151.2,193.1,150.6,197.2,150.2z"/>
								</g>
								<g>
									<g>
										<path class="st18" d="M184.7,148.1c3.8,1.4,8.4,1.9,12.4,0.8c0.1,0,0.3,0,0.4,0.1c0.1,0.1,0.2,0.2,0.2,0.4l0.1,3.3
											c0,0.2-0.2,0.4-0.4,0.5c-4.4,1-9.1,0.5-13.4-0.9c-0.2-0.1-0.4-0.3-0.3-0.5l0.4-3.3c0-0.2,0.1-0.3,0.2-0.4
											C184.4,148.1,184.6,148,184.7,148.1z"/>
									</g>
								</g>
								<g>
									<path class="st27" d="M184.2,147c0.7,0.1,1.1,1.5,1,3.3c-0.2,1.8-0.9,3.1-1.6,3.1c-0.7-0.1-1.1-1.5-1-3.3
										C182.8,148.3,183.5,146.9,184.2,147z"/>
								</g>
								<g>
									<path class="st28" d="M183.8,148.1c0.3,0.1,0.5,1,0.3,2.1c-0.1,1.1-0.5,1.9-0.8,1.8c-0.3-0.1-0.5-1-0.3-2.1
										C183.2,148.8,183.5,148,183.8,148.1z"/>
								</g>
								<g>
									<path class="st19" d="M199.9,123.2c-0.5-1.4-1-2.5-1.4-2.8c-1.1-0.8-3.5,0.7-3.5,0.7c-1.5-0.7-3.4-2.3-4.8-1
										c-0.9,0.8-1.4,1.7-1.4,1.7s-1.6-0.8-2.3,0.3c-0.7,1.1-3.8,6.5-3.8,6.5s-1.1,1.5-0.4,5c0.7,3.6,2.6,10.3,2.6,10.3
										s1,2.3,3.4,2.6c2.4,0.3,6.7-1.5,8.1-4c0,0,3.9-0.8,5-3.3c1.1-2.5,2-10.7,2.7-13.7C204.6,122.7,202.2,121.2,199.9,123.2z"/>
								</g>
								<g>
									<g>
										<path class="st29" d="M206,122.1c3.9-1.1,7.6-1,10.2-0.1l2.5-0.7l1.1,4c1,3.6-3.6,8-10.2,9.9s-12.8,0.4-13.8-3.2l-1.1-4
											l2.5-0.7C199,125.1,202.1,123.2,206,122.1z"/>
										<path class="st30" d="M208.5,131.2c6.6-1.8,11.2-6.3,10.2-9.9c-1-3.6-7.2-5.1-13.8-3.2s-11.2,6.3-10.2,9.9
											C195.7,131.6,201.9,133,208.5,131.2z"/>
										<path class="st31" d="M217.5,119.4c0.6,0.5,1,1.2,1.2,1.9c0.1,0.5,0.2,1,0.1,1.5l-23.5,6.5c-0.3-0.4-0.5-0.9-0.7-1.3
											c-0.2-0.7-0.2-1.5,0-2.3L217.5,119.4z"/>
										<path class="st32" d="M208.1,129.6c5-1.4,8.5-4.8,7.8-7.5s-5.5-3.9-10.5-2.5c-5,1.4-8.5,4.8-7.8,7.5
											C198.3,129.9,203.1,131,208.1,129.6z"/>
										<path class="st33" d="M202.4,128.1l1.3,0.2l0.9-1c1.6,0,2.9-0.5,3.7-1.4c1.6-1.8-2-2.3-1.2-3.2c0.4-0.4,0.9-0.5,1.5-0.4
											c0.6,0.1,0.8,0.3,1.1,0.7l1.7-0.6c-0.2-0.5-0.5-0.9-1.3-1.1l0.8-0.9l-1.3-0.2l-0.9,1c-1.4,0-2.8,0.5-3.6,1.4
											c-1.5,1.7,2.1,2.3,1.2,3.2c-0.4,0.4-0.9,0.6-1.7,0.5c-0.6-0.1-1.1-0.4-1.4-0.9l-1.7,0.8c0.3,0.5,1,0.9,1.7,1.1
											L202.4,128.1z"/>
									</g>
								</g>
								<g>
									<path class="st19" d="M185.5,132.9l1.3-0.8l3.6,1.8c0,0-0.6,3-0.1,4.1c0.5,1.1,1.6,1.3,2,0.9c0.3-0.4,0.9-2.1,0.9-2.1
										c1.8,0.4,3.4-1.5,3.4-1.5c1.1-0.1,1.6-1.2,1.6-1.2l0.8-2.7c1,0,2.7-1.2,2.7-2.2c-0.1-1-2-8-3.1-8.8
										c-1.1-0.8-3.5,0.7-3.5,0.7c-1.5-0.7-3.4-2.3-4.8-1c-0.9,0.8-1.4,1.7-1.4,1.7s-1.6-0.8-2.3,0.3c-0.7,1.1-3.8,6.5-3.8,6.5
										S182.5,131.7,185.5,132.9z"/>
								</g>
								<g>
									<path class="st20" d="M188.3,146.8c0,0-0.1,0-0.1,0c-0.2,0-0.3-0.2-0.3-0.3c0-0.2,0.2-0.2,0.3-0.3c2.4,0.3,6.5-1.5,7.8-3.9
										c1-2.2,0.8-4.4,0.8-4.4c0-0.2,0.1-0.3,0.3-0.3c0.2,0,0.3,0.1,0.3,0.3c0,0.1,0.3,2.3-0.8,4.7
										C195.3,145.2,190.9,147.1,188.3,146.8z M191.6,139.3c-0.5-0.1-1.2-0.4-1.6-1.2c-0.6-1.2,0-4,0.1-4.3c0-0.2,0.2-0.2,0.4-0.2
										c0.2,0,0.3,0.2,0.2,0.3c-0.2,0.8-0.5,3.1-0.1,3.9c0.3,0.6,0.8,0.9,1.1,0.9c0,0,0,0,0,0c0.2,0,0.3,0,0.3-0.1
										c0.2-0.3,0.6-1.4,0.8-2l1.2-4c0,0,0.4-1.5-0.3-2.2c-0.9-0.8-6.8-4.1-6.9-4.2c-0.1,0-1.7-0.9-3,0.7c-0.1,0.1-0.3,0.1-0.4,0
										c-0.1-0.1-0.1-0.3,0-0.4c1.6-2,3.7-0.9,3.7-0.8c0.2,0.1,6,3.4,7,4.2c1.1,0.9,0.6,2.7,0.5,2.8l-1.1,3.6
										c1.4,0,2.5-1.2,2.8-1.4c0.1-0.5,0.7-3,1.3-4.9c0.6-2-1-2.9-1-2.9l-8-5.3c-0.1-0.1-0.2-0.3-0.1-0.4c0.1-0.1,0.3-0.2,0.4-0.1
										l8,5.3c0,0,1.9,1.1,1.2,3.5c-0.5,1.6-1,3.6-1.2,4.5c0.6-0.3,0.9-0.9,0.9-0.9l0.8-2.7c0-0.2,0.6-3,1-4.9
										c0.3-1.7-1-2.4-1-2.4l-3.8-2.6c-0.1-0.1-0.2-0.3-0.1-0.4c0.1-0.1,0.3-0.2,0.4-0.1l3.8,2.6l0,0c0,0,1.7,0.9,1.3,3
										c-0.3,1.5-0.7,3.6-0.9,4.5c0.5-0.1,1.2-0.5,1.6-1c0.3-0.3,0.4-0.6,0.4-0.8c0-0.4-0.4-2-0.9-3.7c0-0.2,0-0.3,0.2-0.4
										c0.2,0,0.3,0,0.4,0.2c0.5,1.6,0.9,3.3,1,3.8c0,0.4-0.2,0.8-0.6,1.3c-0.6,0.6-1.5,1.1-2.2,1.2l-0.8,2.5
										c0,0.1-0.5,1.2-1.7,1.4c-0.3,0.4-1.7,1.7-3.4,1.6c-0.2,0.5-0.6,1.6-0.8,1.9C192.3,139.3,192,139.4,191.6,139.3
										C191.6,139.3,191.6,139.3,191.6,139.3z"/>
								</g>
								<g>
									<path class="st4" d="M288.3,211c-4.8-5-14.4-10.5-14.4-10.5c-21.5,7.1-26.1-9.6-26.1-9.6s-0.5,0-1.4,0l-42.2-4.2
										c1.5,11.8-3.7,21.8-13.6,30.1l21.5,10.7l-2.8,31c0,0-12.3,19.4-13.3,23c-2.3,8-1.5,12.9-1.1,13.9
										c10.2,6.9,61.5,13.3,73.5,10.6c1.4-0.3,5-2.7,5.4-9.8l1.2-29l0-0.1c0.3-2.5,3.6-11.2,3.6-11.2
										C290.3,228,288.3,211,288.3,211z"/>
								</g>
								<g>
									<path class="st34" d="M256.4,205.4c-11-3.9-13.3-12.5-13.3-12.9c-0.1-0.3,0.1-0.5,0.4-0.6c0.3-0.1,0.5,0.1,0.6,0.4
										c0,0.1,2.3,8.8,13.4,12.4c11.1,3.6,18.5-1,18.5-1.1c0.2-0.1,0.5-0.1,0.7,0.1c0.1,0.2,0.1,0.5-0.1,0.7
										c-0.3,0.2-7.8,5-19.4,1.2C256.9,205.6,256.6,205.5,256.4,205.4z"/>
								</g>
								<g>
									<path class="st22" d="M209.3,258.4l2.8-31.4c0,0,4.2-5.9,7-14l0,0c0,0-2.8,28.4-3,30.6s3.3,1.9,3.6,3
										C220.1,247.7,214.7,249.8,209.3,258.4z"/>
								</g>
								<path class="st35" d="M270.7,249.1c0,0,1.6-10,2.6-13.1c1-3.1,3.1-10.8,3.1-10.8s-17.1-5.1-22.8-6.5
									c-5.8-1.5-21-3.6-24.1-4.5c0,0-4.7,17.6-4.9,23.3c0,0,11.2,3.5,19.3,4.9C252.7,243.8,270.7,249.1,270.7,249.1z"/>
							</g>
						</g>
						<path id="Path_1127_00000054963586650120706430000001452057424637267615_" class="st36" d="M60.8,475.1c0,0-0.1,0-0.1,0
							c-1.5-0.1-2.7-1.4-2.6-2.9l7-142.6c0.4-4.1,2.7-7.8,6.3-9.8l33.5-17.6c2.1-1.1,4.2-1.1,5.9-0.1c1.8,1.1,2.8,3.1,2.8,5.2
							l4.1,139.4c0,1.5-1.2,2.7-2.7,2.8c-1.5,0-2.7-1.1-2.8-2.6l-4.1-139.4c0-0.2,0-0.4-0.1-0.6c-0.2,0-0.4,0.1-0.6,0.2l-33.5,17.6
							c-1.9,1.2-3.1,3.1-3.4,5.3l-7,142.6C63.5,474,62.3,475.1,60.8,475.1"/>
						<path id="Path_1128_00000046314812972269919440000007141763789386019506_" class="st14" d="M61.4,473.1L61.4,473.1
							c-0.1,0-0.2-0.1-0.2-0.2l7-142.6c0.3-3.2,2.2-6,4.9-7.7l33.5-17.6c1.3-0.7,2.5-0.7,3.4-0.2c0.9,0.6,1.5,1.6,1.5,3.1l4.1,139.4
							c0,0.1-0.1,0.2-0.2,0.2c0,0,0,0,0,0c-0.1,0-0.2-0.1-0.2-0.2c0,0,0,0,0,0L111.2,308c0.2-1.5-0.9-2.9-2.4-3.1
							c-0.7-0.1-1.5,0.1-2.1,0.5l-33.5,17.6c-2.7,1.6-4.4,4.3-4.7,7.4l-7,142.6C61.5,473,61.4,473.1,61.4,473.1"/>
						<path id="Path_1129_00000047781459137750663070000013898312299704339852_" class="st37" d="M56.5,474.7c0,0.6,2,1.6,4.5,1.6
							s4.5-1,4.5-1.6l-0.3-11.5c0,0.6-1.5,1.1-3.9,1.1s-4-0.5-4-1.1L56.5,474.7z"/>
						<path id="Path_1130_00000150061697140103969730000010211165635534011581_" class="st37" d="M110.5,449.8c0,0.6,2,1.1,4.5,1.1
							s4.5-1,4.5-1.6l-0.8-11.5c0,0.6-1.5,1.1-3.9,1.1s-4-0.5-4-1.1L110.5,449.8z"/>
						<path id="Path_1131_00000174586277170367817740000015196750921725035935_" class="st36" d="M68,452.5c-1.5,0-2.7-1.2-2.7-2.7
							c0-1,0.6-2,1.5-2.4l51.2-25.6c1.3-0.7,3-0.2,3.7,1.2c0.7,1.3,0.2,3-1.2,3.7c0,0,0,0-0.1,0l-51.2,25.6
							C68.9,452.4,68.4,452.5,68,452.5"/>
						<path id="Path_1132_00000038403784379949491730000000661818449711659435_" class="st14" d="M67.1,448.8
							c-0.1,0-0.2-0.1-0.2-0.2c0-0.1,0-0.1,0.1-0.2l52.1-25.8c0.1,0,0.2,0,0.2,0.1c0,0.1,0,0.2-0.1,0.2c0,0,0,0,0,0L67.1,448.8
							C67.2,448.8,67.1,448.8,67.1,448.8"/>
						<path id="Path_1133_00000015323298766135526440000017414109288536703651_" class="st36" d="M249,307.2l-131.6-13.4
							c-3-0.2-6,0.4-8.8,1.7l-41.5,21.3c-2.3,1.2-2.1,2.3,0.5,2.6l4.3,24.1c1,1.7,2.9,2.8,4.9,2.9l120.2,12.2
							c2.9,0.2,5.7-0.4,8.3-1.6l35.1-18.7c2.2-1.1,2.6-1.4,3.7-3.9l5.3-24.6C251.8,308.7,251.6,307.5,249,307.2"/>
						<path id="Path_1134_00000008870651055456281170000016502947470655256224_" class="st36" d="M199.2,469.2c-0.4,0-0.9,0-1.3-0.1
							l-128-12.9c-3.3-0.2-5.7-1.7-6.1-4c-0.3-1.6,0.3-3.7,3.1-5l4.4-2.1c1.4-0.7,3-0.1,3.6,1.3c0.6,1.3,0.1,2.9-1.2,3.6l-1.9,0.9
							l126.7,12.7c2.4,0.1,4.9-0.3,7.1-1.3l46.2-28.5c1.3-0.8,3-0.4,3.8,0.9c0.8,1.3,0.4,3-0.9,3.7l-46.3,28.5
							c-0.1,0-0.1,0.1-0.2,0.1C205.4,468.5,202.3,469.2,199.2,469.2"/>
						<path id="Path_1135_00000173142072259758514720000003260812857548809883_" class="st14" d="M199.8,465.6c-0.4,0-0.7,0-1.1-0.1
							L68.2,452.5c-1.8-0.1-3-0.7-3.2-1.6c-0.2-0.8,0.6-1.7,2-2.4l7.6-3.7c0.1,0,0.2,0,0.2,0.1c0,0.1,0,0.2-0.1,0.2c0,0,0,0,0,0
							l-7.6,3.7c-1.2,0.6-1.9,1.3-1.8,2c0.1,0.7,1.2,1.2,2.9,1.3l130.4,13.1c3,0.2,5.9-0.4,8.6-1.6l46.3-28.5c0.1,0,0.2,0,0.2,0.1
							c0,0.1,0,0.2-0.1,0.2l-46.3,28.5C205.1,465,202.4,465.6,199.8,465.6"/>
						<path id="Path_1136_00000060005707138791977850000013164411020395862913_" class="st38" d="M230.8,348.2
							c-2.3,0-3.8-1.3-3.8-3.4v-14c0-0.3,0.2-0.4,0.5-0.4c0.2,0,0.4,0.2,0.4,0.4v14c0,2.2,1.8,2.5,2.9,2.5c2.2,0,2.6-1.3,2.7-2.5
							c0-0.1,0-0.3,0.1-0.4c0.1-0.2,0.4-0.3,0.6-0.2c0.2,0.1,0.3,0.3,0.2,0.5c0,0,0,0.1,0,0.1C234.2,347.1,233,348.2,230.8,348.2
							L230.8,348.2z"/>
						<path id="Path_1137_00000100340253352190730760000005035884900601619110_" class="st14" d="M230.9,348c-2.1,0-3.4-1.2-3.4-3.1
							v-14c0,0,0-0.1,0.1-0.1s0.1,0,0.1,0.1v0v14c0,2.6,2.3,2.9,3.2,2.9c2.8,0,3-2.1,3-2.8c0-0.1,0-0.2,0-0.3c0,0,0.1-0.1,0.1,0
							c0,0,0.1,0.1,0,0.1c0,0.1,0,0.1,0,0.2C234.1,345.7,233.9,348,230.9,348"/>
						<path id="Path_1138_00000124851633842407450650000001307340766875455638_" class="st38" d="M226.4,351c0,0-0.1,0-0.1,0
							c-2.4-0.1-3.8-1.3-3.8-3.5v-14c0-0.3,0.2-0.5,0.5-0.5s0.5,0.2,0.5,0.5l0,0v14c0,1.6,1,2.5,2.9,2.5c1.9,0.1,2.7-2.8,2.7-2.8
							c0,0,0,0,0,0c0.7-1.8,1.4-3.2,2.7-3.8c0.7-0.4,1.6-0.3,2.3,0.2c0.5,0.5,0.6,1.3,0.3,1.9l-0.1,0.4c-0.1,0.2-0.3,0.4-0.6,0.3
							c-0.2-0.1-0.4-0.3-0.3-0.6l0,0l0.1-0.4c0.1-0.3,0.2-0.7,0-1c-0.4-0.2-0.9-0.2-1.3,0c-0.9,0.4-1.5,1.4-2.3,3.3
							C229.8,347.9,228.8,351,226.4,351"/>
						<path id="Path_1139_00000150077701825171001780000009261550647281332884_" class="st14" d="M226.5,350.7
							C226.5,350.7,226.5,350.7,226.5,350.7c-1.4,0-3.5-0.5-3.5-3.1v-14c0,0,0-0.1,0.1-0.1s0.1,0,0.1,0.1v0v14
							c0,2.3,1.8,2.8,3.3,2.9c0,0,0.1,0,0.1,0c2.1,0,3-3.1,3-3.1c0.7-1.7,1.4-3.1,2.6-3.6c0.5-0.3,1.2-0.3,1.7,0
							c0.3,0.2,0.5,0.7,0.3,1.6c-0.1,0.5-0.3,1.1-0.3,1.1c0,0-0.1,0.1-0.1,0.1s-0.1-0.1-0.1-0.1l0,0c0,0,0.2-0.6,0.3-1.1
							c0.2-0.5,0.1-1-0.3-1.4c-0.5-0.3-1.1-0.3-1.5,0c-1.1,0.5-1.8,1.8-2.5,3.5C229.7,347.6,228.8,350.7,226.5,350.7"/>
						<path id="Path_1140_00000178922009009267735360000002970862307530271909_" class="st36" d="M203.2,490.5L203.2,490.5
							c-1.5,0-2.7-1.2-2.7-2.7l0.1-143.4c0.2-4.1,2.4-7.9,6-9.9l33.5-17.6c2.7-1.7,6.4-0.9,8.1,1.9c0.6,0.9,0.9,2,0.9,3.1l11,140.2
							c0.1,1.5-1,2.8-2.5,3s-2.8-1-3-2.5c0,0,0,0,0-0.1l-11-140.2c0-0.3-0.1-0.5-0.2-0.8c-0.3,0-0.5,0.1-0.7,0.2l-33.5,17.6
							c-1.8,1.1-2.9,3-3.1,5.1l-0.1,143.4C205.9,489.3,204.7,490.5,203.2,490.5"/>
						<path id="Path_1141_00000174593918000433048600000003352970643743174837_" class="st14" d="M203.7,488.5L203.7,488.5
							c-0.1,0-0.2-0.1-0.2-0.2v0l0.1-143.4c0.2-3.2,1.9-6.1,4.7-7.7l33.5-17.6c1.5-1,3.6-0.7,4.6,0.8c0.4,0.6,0.6,1.3,0.6,2.1
							l11,140.2c0,0.1-0.1,0.2-0.2,0.2s-0.2-0.1-0.2-0.2l-11-140.2c0.1-1.6-1.2-3-2.8-3.1c-0.7,0-1.4,0.2-1.9,0.6l-33.5,17.6
							c-2.6,1.6-4.3,4.3-4.5,7.4l-0.1,143.4C203.9,488.4,203.8,488.5,203.7,488.5L203.7,488.5"/>
						<path id="Path_1142_00000093861770745350852280000013669027792400433803_" class="st37" d="M198.7,490.2c0,0.6,2,1.6,4.5,1.6
							c2.5,0,4.5-1,4.5-1.6l-0.5-11.5c0,0.6-1.5,1.1-3.9,1.1s-4-0.5-4-1.1L198.7,490.2z"/>
						<path id="Path_1143_00000163777017311420243450000003816772246750209942_" class="st37" d="M253.3,465.3c0,0.6,2,1.1,4.5,1.1
							c2.5,0,4.3-1.5,4.3-2.1l-1.2-11.5c0,0.6-1.5,1.6-3.9,1.6s-4-0.5-4-1.1L253.3,465.3z"/>
						<path id="Path_1144_00000083792624111501104000000017844340857716510352_" class="st39" d="M256.1,307c0-1.9-0.7-3.5-1.8-4.2
							c-0.3-0.4-0.9-0.6-2-0.7l-138.5-14.1c-3.2-0.2-6.3,0.4-9.2,1.7L60.9,312c-0.7,0.3-1.2,0.7-1.6,1.3c-1,1.1-1.5,2.5-1.5,3.9
							c-0.1,1.5,0.5,2.9,1.5,4c0.2,0.3,0.5,0.4,0.8,0.5c0.1,0,0.1,0,0.2,0.1c0.3,0.1,0.7,0.2,1,0.2l138.5,14.1
							c3.2,0.2,6.3-0.4,9.2-1.7l43.7-22.4c0.3-0.2,0.6-0.4,0.9-0.6C255.1,311,256.1,309.2,256.1,307"/>
						<path id="Path_1145_00000003073414926336664380000000059809824593321889_" class="st40" d="M104.5,289.7
							c2.9-1.3,6.1-1.9,9.2-1.7L252.3,302c2.7,0.3,2.9,1.5,0.5,2.7l-43.7,22.4c-2.9,1.3-6.1,1.9-9.2,1.7L61.4,314.8
							c-2.7-0.3-2.9-1.5-0.5-2.7L104.5,289.7z"/>
					</g>
				</g>
			</g>
			<g>
				<defs>
					<path id="SVGID_18_" d="M269.9-41H144.1H0v294.6V251v0h0c42.2,14.3,119.1,23.9,207,23.9s164.8-9.6,207-23.9h0v0v2.6V-41H269.9z
						"/>
				</defs>
				<clipPath id="SVGID_19_">
					<use xlink:href="#SVGID_18_"  style="overflow:visible;"/>
				</clipPath>
				<g class="st41">
					<path class="st4" d="M461.4,58.9c-1.8,0-3.5,0.3-5,0.9c-0.7-0.8-1.7-1.3-2.9-1.3c-0.5,0-1,0.1-1.5,0.3c-0.3-3.3-3-6-6.4-6
						c-1.5,0-2.8,0.5-3.9,1.3c-0.2-0.3-0.5-0.6-0.8-0.8c0.6-1.1,1-2.4,1-3.7c0-2.1-0.9-4-2.2-5.4c-1.4-1.4-3.3-2.2-5.4-2.2h0
						c-1.2-0.6-2.5-1-3.9-1c-0.9,0-1.7,0.1-2.5,0.4c-0.4-0.8-1-1.4-1.7-1.8c0.2-0.9,0.3-1.9,0.3-2.9c0-3.8-1.6-7.3-4.1-9.8
						c-2.5-2.5-6-4-9.8-4c-1.2,0-2.4,0.2-3.5,0.4c-8.2,0.1-14.8,6.8-14.8,15c0,0.1,0,0.2,0,0.3c-0.7-0.2-1.5-0.3-2.3-0.3
						c-1.6,0-3,0.4-4.3,1.1c-2.2-3-5.7-4.9-9.7-4.9c-6.6,0-12,5.4-12,12c0,1.3,0.2,2.6,0.6,3.7c-0.1,0-0.2,0-0.4,0
						c-3.3,0-5.9,2.6-5.9,5.9c0,0.4,0,0.8,0.1,1.1c0,0-0.1,0-0.1,0c-1.8,0-3.3,1.5-3.4,3.3c-0.5-0.1-1-0.1-1.6-0.1
						c-2.1,0-4.1,0.7-5.6,2.1c-3.8,3.6,0.4,4.6,4.4,4.6h5.3h4.1h84.9h6.6h10.9c4.2,0,10.2,0.7,6.1-3.7
						C469.2,60.6,465.5,58.9,461.4,58.9L461.4,58.9z M424.9,39.3c-0.2,0-0.4-0.1-0.6-0.1l-0.1,0c0-0.3,0-0.6,0-0.9
						c0-6.6-4.3-12.2-10.2-14.2c2.9,0.3,5.5,1.7,7.4,3.6c2.3,2.3,3.7,5.5,3.7,9C425.2,37.6,425.1,38.4,424.9,39.3L424.9,39.3z
						 M439.7,52.8c-0.4-0.1-0.8-0.2-1.2-0.2c-0.2,0-0.4,0-0.6,0.1c0.4-1,0.7-2.1,0.7-3.3c0-2.3-0.9-4.4-2.5-5.9
						c1,0.3,1.9,0.9,2.6,1.6c1.2,1.2,1.9,2.8,1.9,4.6C440.6,50.8,440.3,51.8,439.7,52.8z"/>
				</g>
			</g>
		</g>
	</g>
</g>
</svg>
