<?xml version="1.0" encoding="utf-8"?>
<!-- Generator: Adobe Illustrator 26.0.1, SVG Export Plug-In . SVG Version: 6.00 Build 0)  -->
<svg version="1.1" id="board-body" xmlns="http://www.w3.org/2000/svg" xmlns:xlink="http://www.w3.org/1999/xlink" x="0px" y="0px"
	 viewBox="0 0 1080 774" style="enable-background:new 0 0 1080 774;" xml:space="preserve">
<style type="text/css">
	.st0{fill:#004902;}
	.st1{fill:#684E46;}
	.st2{fill:#7F5A50;}
	.st3{clip-path:url(#SVGID_00000039835914497342410640000015062926936666065332_);}
	.st4{fill:#007164;}
	.st5{fill:#007264;}
</style>
<rect id="Rectangle_516" class="st0" width="1080" height="774"/>
<rect id="Rectangle_517" x="0" class="st1" width="21.1" height="774"/>
<rect id="Rectangle_518" x="1058.8" class="st1" width="18.4" height="774"/>
<rect id="Rectangle_519" x="1063.1" class="st2" width="16.9" height="774"/>
<rect id="Rectangle_520" class="st2" width="16.9" height="774"/>
<g id="Group_687">
	<g>
		<defs>
			<rect id="SVGID_1_" width="1080" height="774"/>
		</defs>
		<clipPath id="SVGID_00000096048565608112088680000001423895250170459579_">
			<use xlink:href="#SVGID_1_"  style="overflow:visible;"/>
		</clipPath>
		<g id="Group_686" style="clip-path:url(#SVGID_00000096048565608112088680000001423895250170459579_);">
			<path id="Path_5164" class="st4" d="M62.3,688.1c0.2,0.4,0.5,0.7,0.8,1c0.2-0.1,0.1-0.2,0.1-0.3c0-0.7,0-1.3,0-2
				c0-0.7,0.1-1.5,0.3-2.2c0.1-0.4,0.3-0.7,0.4-1.1c0.2-0.5,0.4-1,0.7-1.5c0.3-0.6,0.7-1,1.3-1.3c0.3-0.2,0.7-0.3,1.1-0.4
				c0.4,0,0.9,0,1.3,0c0.4,0,0.7,0.1,1.1,0.3c1,0.3,2,0.8,2.7,1.6c0.4,0.4,0.8,0.9,1.1,1.4c0.1,0.1,0.2,0.3,0.2,0.4
				c0.2,0.8,0.7,1.5,0.9,2.3c0.1,0.2,0.1,0.3,0.1,0.5c0.1,0.7,0.2,1.5,0.2,2.2c0,0.6-0.1,1.2-0.3,1.8c0,0.1-0.1,0.2-0.1,0.4
				c0,0.5-0.2,1-0.5,1.5c0.1,0.1,0.1,0.2,0.2,0.3c-0.1,0.1-0.2,0.2-0.2,0.3c-0.1,0.5-0.6,0.8-1,1.1c-0.7,0.5-1.4,0.9-2.2,1.2
				c-0.1,0.1-0.2,0.1-0.3,0.2c-0.2,0.1-0.4,0.3-0.4,0.6c0,0.1-0.1,0.2-0.2,0.4c0.3,0.3,0.5,0.6,0.8,1c0.3,0.4,0.7,0.8,1,1.2
				c0.3,0.3,0.6,0.6,1,0.9c0.1,0.1,0.3,0.1,0.4,0.2c0.2,0.2,0.3,0.5,0.6,0.6c0.2,0.1,0.5,0.3,0.7,0.4c0.4,0.2,0.8,0.4,1.1,0.8
				c0,0,0.1,0.1,0.1,0.1c0.5,0.1,0.7,0.5,1.2,0.6c0.2,0.1,0.5,0.2,0.8,0.2c0.7,0.1,1.4,0.1,2,0.1c0.1,0,0.2,0,0.3,0l0.5,0.6l0.4-0.5
				c0.1-1,0-2.1-0.2-3.1c-0.1-0.7-0.2-1.4-0.2-2.1c0-0.6-0.1-1.3-0.1-1.9c0-0.5-0.1-1-0.1-1.5c0-0.6,0-1.1,0-1.7c0-0.3,0-0.7,0-1
				l1-0.6c0.2,0.2,0,0.3-0.1,0.5c0.1,0,0.2,0,0.2,0c0.1-0.1,0.1-0.2,0.2-0.3c0.1-0.1,0.2-0.1,0.3-0.1l0,0.3c0.4,0.1,0.8,0.3,1,0.6
				c0,0.1,0,0.2,0,0.3c0,0.2,0.1,0.4,0.3,0.5c0,0,0,0,0,0c0.3,0.1,0.3,0.2,0.2,0.6c0,0,0,0.1,0,0.1c0.1,0.1,0.3,0.1,0.2,0.4
				c-0.1,0.2,0.2,0.4-0.1,0.6c0,0,0,0.1,0,0.1c0.2,0.3-0.1,0.6,0.1,0.9c0.1,0.3,0,0.5,0,0.7s-0.1,0.4,0.1,0.7
				c0.1,0.1,0.1,0.3,0.1,0.5c0,0.2,0,0.5,0.1,0.7c0,0.1,0,0.2,0,0.3c-0.1,0.1-0.2,0.4-0.1,0.5c0.2,0.6,0.2,1.2,0.1,1.8l0.2,0l0,0
				c-0.1,0.2-0.2,0.5,0.1,0.7l-0.2,0.1c0.1,0.2,0.2,0.4,0.3,0.6l-0.3,0.3c0.2,0.3,0.5,0.5,0.2,0.9c0,0-0.1,0-0.1,0l0.1,0
				c0.1,0.3,0.1,0.6,0.1,0.9c-0.1,0.4-0.1,0.7,0,1.1c0.1,0.2-0.1,0.4-0.2,0.6c-0.2,0.2-0.1,0.3,0.2,0.6l-0.4,0.4l0.4,0.3
				c-0.2,0.1-0.3,0.2-0.4,0.3c-0.1,0.2-0.2,0.2-0.3,0.3c-0.2,0.4-0.7,0.7-1.2,0.7c0,0.1,0,0.2-0.1,0.4c-0.7,0.3-1.2,0.9-1.9,1.2
				c-0.2,0.1-0.4,0.2-0.6,0.2c-0.2,0-0.5-0.1-0.6,0.2c0,0.1-0.2,0.1-0.3,0.1c-0.3,0-0.6,0.1-0.9,0.2c-0.3,0.2-0.7,0.2-1,0.1
				c-0.1,0-0.2,0-0.3,0c-0.3,0.2-0.8,0.2-1.1,0.1c-0.1,0-0.3,0-0.4,0c-0.4,0.1-0.8,0.1-1.1,0c0,0-0.1-0.1-0.1,0
				c-0.3,0.4-0.9-0.1-1.2,0.3c-0.2,0-0.5-0.2-0.7,0c-0.7,0-1.5,0.1-2.2,0.2l-0.2-0.3c-0.2,0-0.5,0-0.7,0c-0.3,0-0.6-0.3-1-0.2
				c-0.1-0.4-0.7-0.2-0.8-0.6l-0.4-0.1c0-0.4-0.1-0.8-0.1-1.2c0,0,0,0-0.1,0l0,0c-0.1-0.2-0.2-0.4-0.4-0.6c0.1-0.4-0.4-0.7-0.1-1.2
				c0.2-0.1,0.5-0.3,0.7,0c0.3,0,0.5,0,0.8,0.2c0.1,0,0.2,0,0.3,0c0.7-0.1,1.4-0.2,2.1-0.2c0.7,0,1.4-0.1,2.1-0.3
				c0.2,0,0.4-0.1,0.6,0c0.5,0,1-0.1,1.5-0.2c0.2,0,0.3-0.1,0.3-0.3c0-0.1-0.1-0.3-0.2-0.4c-0.1-0.1-0.2-0.1-0.3-0.2
				c-0.1-0.1-0.3-0.1-0.3-0.2c-0.1-0.4-0.3-0.4-0.5-0.2c0,0-0.2,0-0.3-0.1c-0.1-0.1-0.2-0.2-0.3-0.4l-0.6,0c0-0.1,0.1-0.2,0.1-0.3
				l-0.4-0.1c0-0.1-0.1-0.3-0.1-0.4c-0.1-0.1-0.2-0.2-0.4-0.3c-0.2-0.1-0.3-0.2-0.5-0.2c-0.3-0.1-0.6-0.4-0.8-0.7
				c-0.1-0.2-0.3-0.3-0.4-0.4c-0.2-0.2-0.3-0.3-0.5-0.4c0-0.1,0.1-0.2,0.1-0.3c-0.2-0.2-0.6,0.2-0.8-0.2v0c0-0.1-0.1-0.1-0.1-0.2
				c-0.1-0.2-0.4-0.2-0.5-0.4s-0.2-0.4-0.4-0.5c-0.4-0.2-0.5-0.6-0.4-1l-0.4-0.1c-0.3-0.5-0.4-0.9-0.5-1.5c-0.2-0.1-0.3-0.2-0.4-0.3
				c-0.2-0.1-0.3-0.4-0.2-0.6c0,0,0,0,0-0.1c-0.2-0.2-0.3-0.4-0.5-0.6c-0.1-0.2-0.2-0.5-0.3-0.7c-0.1-0.2-0.4-0.1-0.5-0.4
				c0,0-0.1-0.1-0.1-0.1c-0.2,0.1-0.3-0.2-0.5-0.3c-0.4-0.1-0.7-0.3-1.1-0.5c-0.3-0.1-0.6-0.3-0.8-0.6c-0.1-0.1-0.1-0.1-0.2-0.1
				c-0.7-0.5-0.7-0.5-0.9-1c-0.2-0.1-0.4-0.1-0.4-0.2c-0.1-0.3-0.4-0.4-0.5-0.7c0-0.2-0.2-0.3-0.3-0.4c-0.1-0.2-0.3-0.1-0.4-0.2
				s-0.3-0.2-0.3-0.4c0-0.6-0.6-0.9-0.9-1.4c-0.1-0.1-0.3-0.2-0.3-0.4c-0.1-0.5-0.3-0.9-0.5-1.3c-0.1-0.2-0.2-0.3-0.1-0.5
				c0-0.1-0.1-0.2-0.1-0.2c-0.1-0.2-0.1-0.4-0.2-0.6l-0.3,0.1c-0.1-0.4-0.2-0.8-0.3-1.1c0-0.1,0-0.2,0-0.3c0.1-0.2,0-0.3-0.1-0.5
				c-0.4-0.7-0.6-1.6-0.6-2.4c0-0.1,0-0.2,0-0.2c-0.3-0.2-0.2-0.5-0.1-0.7c0.1-0.2,0-0.5-0.1-0.7c-0.2-0.4-0.3-0.8-0.3-1.2
				c0-0.6,0-1.2-0.1-1.8c-0.1-0.6-0.1-1.2-0.1-1.8c-0.1-0.9-0.1-1.9-0.1-2.8c0-0.1,0-0.2,0-0.2c0.2-0.8,0-1.7,0.4-2.5
				c0-0.1,0-0.2,0-0.3c0-0.2,0-0.3,0.1-0.5c0.2-0.3,0.3-0.7,0.1-1.1l0.6-0.5l0.2,0.3c0.1-0.2,0.2-0.4-0.1-0.5c0-0.2,0-0.4,0.1-0.6
				c0.1,0,0.1,0,0.2,0.1c0.1,0.1,0.2,0.1,0.2,0c0.1-0.1,0.1-0.2,0-0.3c-0.2-0.2-0.2-0.3,0-0.4c0.3-0.2,0.5-0.4,0.5-0.8
				c0.1,0,0.3,0.1,0.4,0.1c0.1,0,0.2,0,0.4,0c0,0.2,0.1,0.3,0.1,0.4l0.7,0.5c0,0.4,0,0.7-0.4,0.8c-0.1,0-0.1,0.1-0.1,0.2
				c0,0,0,0.1,0.1,0.1c0.1,0.1,0.2,0.3,0.1,0.5c-0.1,0.1-0.1,0.2-0.1,0.3c0,0.2,0,0.4-0.2,0.5c-0.1,0-0.1,0.1-0.1,0.2
				c0.1,0.2,0.1,0.5-0.1,0.7c-0.1,0.2,0.1,0.5-0.1,0.7c0,0.2,0.1,0.4-0.1,0.5c0,0,0.2,0.2,0.2,0.3c-0.1,0.4,0.1,0.8-0.1,1.2
				c0,0.1,0,0.2,0,0.4c0.2,0.4,0.1,0.9,0.3,1.3c0,0,0,0,0,0.1c-0.2,0.4-0.1,0.9,0.1,1.3c0,0.1,0,0.2-0.1,0.4c-0.1,0.1-0.1,0.3,0,0.5
				c0,0.1,0,0.2,0,0.3c-0.1,0.2,0,0.5,0.2,0.7c0.2,0.1,0.3,0.4,0.2,0.7c0,0,0.1,0,0.1,0.1l0,0c0,0.2,0.2,0.3,0.2,0.5
				s0.2,0.3,0.3,0.4c-0.2,0.5,0.1,0.7,0.4,1c0.3,0.2,0.4,0.4,0.3,0.7h0c-0.1,0-0.2,0-0.4,0c0-0.1,0.1-0.1,0.1-0.2c0-0.1,0-0.1,0-0.2
				c0,0,0,0-0.1,0c0,0-0.1,0.1-0.1,0.2c0,0.1,0,0.1,0.1,0.2c0,0.2,0.1,0.3,0.3,0.3l0,0c0,0.2,0,0.4,0.1,0.6l-0.1,0h0.1
				c-0.1,0.2,0,0.4,0.2,0.5l0,0L60,683c-0.1,0.1-0.2,0.3-0.3,0.1c0,0-0.1,0-0.1,0c-0.1,0-0.1-0.2-0.2-0.1c0,0,0,0,0,0.1
				c0.1,0,0.2,0,0.2,0.1c0,0,0.1,0,0.1,0c0,0.2-0.1,0.3-0.1,0.5l0.6,0.4c0,0.3,0,0.5,0,0.7c0.3,0.1,0.6,0.4,0.6,0.8c0,0,0,0-0.1,0
				c0,0,0,0,0,0l0.1,0c0,0.1-0.1,0.3,0,0.4c0.2,0.2,0.1,0.4,0.3,0.6c0.1,0.1,0.2,0.2,0.2,0.3c0.1,0.3,0.3,0.5,0.6,0.7
				c0,0.2,0,0.4,0,0.6C62.1,688,62.2,688.1,62.3,688.1L62.3,688.1 M56.4,666.3c0,0,0,0.1,0,0.1c0,0,0,0,0,0.1c0,0,0,0,0-0.1
				C56.4,666.4,56.4,666.3,56.4,666.3l0.3,0.3C56.7,666.3,56.5,666.4,56.4,666.3 M66.6,689.7c0.1,0.5,0.3,1,0.7,1.4
				c-0.2,0.1-0.3-0.2-0.5,0c0.3,0.3,0.6,0.6,0.8,0.9c0,0-0.1-0.1-0.1-0.1c0,0-0.1,0-0.1,0.1c0,0,0,0,0.1,0c0,0,0.1,0,0.1,0l0.4,0.5
				c0.1,0,0.2,0,0.2,0c0.8-0.1,1.6-0.3,2.4-0.6c0.1,0,0.2-0.1,0.2-0.2c0.2-0.1,0.3-0.3,0.5-0.5c0.2-0.2,0.4-0.5,0.5-0.8
				c0.1-0.3,0.2-0.6,0.3-0.8c0.2-0.6,0.4-1.2,0.4-1.8c0-0.5,0-1-0.1-1.5c-0.1-0.7-0.4-1.4-0.8-2.1c-0.3-0.6-0.8-1.1-1.4-1.4
				c-0.1-0.1-0.2-0.2-0.4-0.2s-0.3,0-0.5-0.1c-0.5-0.2-0.9-0.2-1.4-0.2c-0.4,0.1-0.8,0.2-0.9,0.8c-0.3,0.3-0.2,0.9-0.7,1.2
				c-0.2,0.1-0.1,0.5,0,0.7l-0.1,0l0.1,0c0.1,0.3,0.1,0.3-0.2,0.4c0,0-0.1,0.1-0.1,0.1c0,0,0,0,0,0.1c0,0,0.1,0,0.1-0.1
				c0,0,0-0.1,0-0.1c0.1,0.1,0.1,0.1,0.2,0.2c0.1,0.3,0.1,0.3-0.2,0.4c-0.1,0-0.2,0.1-0.2,0.3c-0.1,0.4,0,0.8,0.3,1.1
				c0.2,0.2,0.2,0.3-0.2,0.5c0,0,0,0,0,0c0.1,0.2,0.1,0.3,0.2,0.5c0.1,0.2,0.2,0.5,0.1,0.8c0.2,0.2,0.3,0.5,0.5,0.7L66.6,689.7
				C66.6,689.7,66.6,689.7,66.6,689.7L66.6,689.7 M80.3,692c0,0.1,0,0.2,0,0.3c0,0,0.1,0.1,0.1,0.1c0,0,0.1-0.1,0.1-0.1
				C80.4,692.1,80.4,692,80.3,692 M83.3,707L83.3,707l-0.1,0.1C83.2,707.1,83.3,707.1,83.3,707L83.3,707 M83.1,698.1
				C83.1,698.1,83.1,698.1,83.1,698.1c0.1,0.1,0.1,0.1,0.1,0.1C83.2,698.1,83.2,698,83.1,698.1L83.1,698.1 M81.8,692.1
				C81.7,692.1,81.7,692.1,81.8,692.1C81.7,692.1,81.7,692.2,81.8,692.1L81.8,692.1C81.8,692.2,81.8,692.1,81.8,692.1 M68.8,710.4
				l-0.1,0c0,0,0,0.1,0,0.1C68.7,710.5,68.8,710.5,68.8,710.4L68.8,710.4 M69.8,703L69.8,703C69.7,703,69.7,703,69.8,703
				C69.7,703,69.8,703,69.8,703C69.8,703,69.8,703,69.8,703 M68.2,710.7C68.1,710.7,68.1,710.7,68.2,710.7
				C68.1,710.7,68.1,710.7,68.2,710.7C68.1,710.8,68.1,710.8,68.2,710.7C68.2,710.7,68.2,710.7,68.2,710.7 M75.6,710.4
				C75.6,710.4,75.6,710.4,75.6,710.4L75.6,710.4L75.6,710.4"/>
			<path id="Path_5165" class="st4" d="M62.3,153.9c0.2,0.4,0.5,0.7,0.8,1c0.2-0.1,0.1-0.2,0.1-0.3c0-0.7,0-1.3,0-2
				c0-0.7,0.1-1.5,0.3-2.2c0.1-0.4,0.3-0.7,0.4-1.1c0.2-0.5,0.4-1,0.7-1.5c0.3-0.6,0.7-1,1.3-1.3c0.3-0.2,0.7-0.3,1.1-0.4
				c0.4,0,0.9,0,1.3,0c0.4,0,0.7,0.1,1.1,0.3c1,0.3,2,0.8,2.7,1.6c0.4,0.4,0.8,0.9,1.1,1.4c0.1,0.1,0.2,0.3,0.2,0.4
				c0.2,0.8,0.7,1.5,0.9,2.3c0.1,0.2,0.1,0.3,0.1,0.5c0.1,0.7,0.2,1.5,0.2,2.2c0,0.6-0.1,1.2-0.3,1.8c0,0.1-0.1,0.2-0.1,0.4
				c0,0.5-0.2,1-0.5,1.5c0.1,0.1,0.1,0.2,0.2,0.3c-0.1,0.1-0.2,0.2-0.2,0.3c-0.1,0.5-0.6,0.8-1,1.1c-0.7,0.5-1.4,0.9-2.2,1.2
				c-0.1,0.1-0.2,0.1-0.3,0.2c-0.2,0.1-0.4,0.3-0.4,0.6c0,0.1-0.1,0.2-0.2,0.4c0.3,0.3,0.5,0.6,0.8,1c0.3,0.4,0.7,0.9,1,1.2
				c0.3,0.3,0.6,0.6,1,0.9c0.1,0.1,0.3,0.1,0.4,0.2c0.2,0.2,0.3,0.5,0.6,0.6c0.2,0.1,0.5,0.3,0.7,0.4c0.4,0.2,0.8,0.4,1.1,0.8
				c0,0,0.1,0.1,0.1,0.1c0.5,0.1,0.7,0.5,1.2,0.6c0.2,0.1,0.5,0.2,0.8,0.2c0.7,0.1,1.4,0.1,2,0.1c0.1,0,0.2,0,0.3,0l0.5,0.6l0.4-0.5
				c0.1-1,0-2.1-0.2-3.1c-0.1-0.7-0.2-1.4-0.2-2.1c0-0.6-0.1-1.3-0.1-1.9c0-0.5-0.1-1-0.1-1.5c0-0.6,0-1.1,0-1.7c0-0.3,0-0.7,0-1
				l1-0.6c0.2,0.2,0,0.3-0.1,0.5c0.1,0,0.2,0,0.2,0c0.1-0.1,0.1-0.2,0.2-0.3c0.1-0.1,0.2-0.1,0.3-0.1l0,0.3c0.4,0.1,0.8,0.3,1,0.6
				c0,0.1,0,0.2,0,0.3c0,0.2,0.1,0.4,0.3,0.5c0,0,0,0,0,0c0.3,0.1,0.3,0.2,0.2,0.6c0,0,0,0.1,0,0.1c0.1,0.1,0.3,0.1,0.2,0.4
				c-0.1,0.2,0.2,0.4-0.1,0.6c0,0,0,0.1,0,0.1c0.2,0.3-0.1,0.6,0.1,0.9c0.1,0.3,0,0.5,0,0.7s-0.1,0.4,0.1,0.7
				c0.1,0.1,0.1,0.3,0.1,0.5c0,0.2,0,0.5,0.1,0.7c0,0.1,0,0.2,0,0.3c-0.1,0.1-0.2,0.4-0.1,0.6c0.2,0.6,0.2,1.2,0.1,1.8l0.2,0l0,0
				c-0.1,0.2-0.2,0.5,0.1,0.6l-0.2,0.1c0.1,0.2,0.2,0.4,0.3,0.6l-0.3,0.3c0.2,0.3,0.5,0.5,0.2,0.9c0,0-0.1,0-0.1,0l0.1-0.1
				c0.1,0.3,0.1,0.6,0.1,0.9c-0.1,0.4-0.1,0.7,0,1.1c0.1,0.2-0.1,0.4-0.2,0.6c-0.2,0.2-0.1,0.3,0.2,0.6l-0.4,0.4l0.4,0.3
				c-0.2,0.1-0.3,0.2-0.4,0.3c-0.1,0.2-0.2,0.2-0.3,0.3c-0.2,0.4-0.7,0.7-1.2,0.7c0,0.1,0,0.2-0.1,0.4c-0.7,0.3-1.2,0.9-1.9,1.2
				c-0.2,0.1-0.4,0.2-0.6,0.2c-0.2,0-0.5-0.1-0.6,0.2c0,0.1-0.2,0.1-0.3,0.1c-0.3,0-0.6,0.1-0.9,0.2c-0.3,0.2-0.7,0.2-1,0.1
				c-0.1,0-0.2,0-0.3,0c-0.3,0.2-0.8,0.2-1.1,0.1c-0.1,0-0.3,0-0.4,0c-0.4,0.1-0.8,0.1-1.1,0c0,0-0.1-0.1-0.1,0
				c-0.3,0.4-0.9-0.1-1.2,0.3c-0.2,0-0.5-0.2-0.7,0c-0.7,0-1.5,0.1-2.2,0.2l-0.2-0.3c-0.2,0-0.5,0-0.7,0.1c-0.3,0-0.6-0.3-1-0.2
				c-0.1-0.4-0.7-0.2-0.8-0.6l-0.4-0.1c0-0.4-0.1-0.8-0.1-1.2c0,0,0,0-0.1,0l0,0c-0.1-0.2-0.2-0.4-0.4-0.6c0.1-0.4-0.4-0.7-0.1-1.2
				c0.2-0.1,0.5-0.3,0.7,0c0.3,0,0.5,0,0.8,0.2c0.1,0,0.2,0,0.3,0c0.7-0.1,1.4-0.2,2.1-0.2c0.7,0,1.4-0.1,2.1-0.3
				c0.2,0,0.4-0.1,0.6,0c0.5,0,1-0.1,1.5-0.2c0.2,0,0.3-0.1,0.3-0.3c0-0.1-0.1-0.3-0.2-0.4c-0.1-0.1-0.2-0.1-0.3-0.2
				c-0.1-0.1-0.3-0.1-0.3-0.2c-0.1-0.4-0.3-0.4-0.5-0.2c0,0-0.2,0-0.3-0.1c-0.1-0.1-0.2-0.2-0.3-0.4l-0.6,0c0-0.1,0.1-0.2,0.1-0.3
				l-0.4-0.1c0-0.1-0.1-0.3-0.1-0.4c-0.1-0.1-0.2-0.2-0.4-0.3c-0.2-0.1-0.3-0.2-0.5-0.2c-0.3-0.1-0.6-0.4-0.8-0.7
				c-0.1-0.2-0.3-0.3-0.4-0.4c-0.2-0.1-0.3-0.3-0.5-0.4c0-0.1,0.1-0.2,0.1-0.3c-0.2-0.2-0.6,0.2-0.8-0.2v0c0-0.1-0.1-0.1-0.1-0.2
				c-0.1-0.2-0.4-0.2-0.5-0.4s-0.2-0.4-0.4-0.5c-0.4-0.2-0.5-0.6-0.4-1l-0.4-0.1c-0.3-0.5-0.4-0.9-0.5-1.5c-0.2-0.1-0.3-0.2-0.4-0.3
				c-0.2-0.1-0.3-0.4-0.2-0.6c0,0,0,0,0-0.1c-0.2-0.2-0.3-0.4-0.5-0.6c-0.1-0.2-0.2-0.5-0.3-0.7c-0.1-0.2-0.4-0.1-0.5-0.4
				c0,0-0.1-0.1-0.1-0.1c-0.2,0.1-0.3-0.2-0.5-0.3c-0.4-0.1-0.7-0.3-1.1-0.5c-0.3-0.1-0.6-0.3-0.8-0.6c-0.1-0.1-0.1-0.1-0.2-0.1
				c-0.7-0.5-0.7-0.5-0.9-1c-0.2-0.1-0.4-0.1-0.4-0.2c-0.1-0.3-0.4-0.4-0.5-0.7c0-0.2-0.2-0.3-0.3-0.4c-0.1-0.2-0.3-0.1-0.4-0.2
				s-0.3-0.2-0.3-0.4c0-0.6-0.6-0.9-0.9-1.4c-0.1-0.1-0.3-0.2-0.3-0.4c-0.1-0.5-0.3-0.9-0.5-1.3c-0.1-0.2-0.2-0.3-0.1-0.5
				c0-0.1-0.1-0.2-0.1-0.2c-0.1-0.2-0.1-0.4-0.2-0.6l-0.3,0.1c-0.1-0.4-0.2-0.8-0.3-1.1c0-0.1,0-0.2,0-0.3c0.1-0.2,0-0.3-0.1-0.5
				c-0.4-0.7-0.6-1.6-0.6-2.4c0-0.1,0-0.2,0-0.2c-0.3-0.2-0.2-0.5-0.1-0.7c0.1-0.2,0-0.5-0.1-0.7c-0.2-0.4-0.3-0.8-0.3-1.2
				c0-0.6,0-1.2-0.1-1.8c-0.1-0.6-0.1-1.2-0.1-1.8c-0.1-0.9-0.1-1.9-0.1-2.8c0-0.1,0-0.2,0-0.2c0.2-0.8,0-1.7,0.4-2.5
				c0-0.1,0-0.2,0-0.3c0-0.2,0-0.3,0.1-0.5c0.2-0.3,0.3-0.7,0.1-1.1l0.6-0.5l0.2,0.3c0.1-0.2,0.2-0.4-0.1-0.5c0-0.2,0-0.4,0.1-0.6
				c0.1,0,0.1,0,0.2,0.1c0.1,0.1,0.2,0.1,0.2,0c0.1-0.1,0.1-0.2,0-0.3c-0.2-0.2-0.2-0.3,0-0.4c0.3-0.2,0.5-0.4,0.5-0.8
				c0.1,0,0.3,0.1,0.4,0.1c0.1,0,0.2,0,0.4,0c0,0.2,0.1,0.3,0.1,0.4l0.7,0.5c0,0.4,0,0.7-0.4,0.8c-0.1,0-0.1,0.1-0.1,0.2
				c0,0,0,0.1,0.1,0.1c0.1,0.1,0.2,0.3,0.1,0.5c-0.1,0.1-0.1,0.2-0.1,0.3c0,0.2,0,0.4-0.2,0.5c-0.1,0-0.1,0.1-0.1,0.2
				c0.1,0.2,0.1,0.5-0.1,0.7c-0.1,0.2,0.1,0.5-0.1,0.7c0,0.2,0.1,0.4-0.1,0.5c0,0,0.2,0.2,0.2,0.3c-0.1,0.4,0.1,0.8-0.1,1.2
				c0,0.1,0,0.2,0,0.4c0.2,0.4,0.1,0.9,0.3,1.3c0,0,0,0.1,0,0.1c-0.2,0.4-0.1,0.9,0.1,1.3c0,0.1,0,0.2-0.1,0.4
				c-0.1,0.1-0.1,0.3,0,0.5c0,0.1,0,0.2,0,0.3c-0.1,0.2,0,0.5,0.2,0.7c0.2,0.1,0.3,0.4,0.2,0.7c0,0,0.1,0,0.1,0.1l0,0
				c0,0.2,0.2,0.3,0.2,0.5s0.2,0.3,0.3,0.4c-0.2,0.5,0.1,0.7,0.4,1c0.3,0.2,0.4,0.4,0.3,0.7h0c-0.1,0-0.2,0-0.4,0
				c0-0.1,0.1-0.1,0.1-0.2c0-0.1,0-0.1,0-0.2c0,0,0,0-0.1,0c0,0-0.1,0.1-0.1,0.2c0,0.1,0,0.1,0.1,0.2c0,0.2,0.1,0.3,0.3,0.3l0,0
				c0,0.2,0,0.4,0.1,0.6l-0.1,0h0.1c-0.1,0.3,0,0.4,0.2,0.5l0,0l0.6,0.9c-0.1,0.1-0.2,0.3-0.3,0.1c0,0-0.1,0-0.1,0
				c-0.1,0-0.1-0.2-0.2-0.1c0,0,0,0,0,0.1c0.1,0,0.2,0,0.2,0.1c0,0,0.1,0,0.1,0c0,0.2-0.1,0.3-0.1,0.5l0.6,0.4c0,0.3,0,0.5,0,0.7
				c0.3,0.1,0.6,0.4,0.6,0.8c0,0,0,0-0.1,0c0,0,0,0,0,0l0.1,0c0,0.1-0.1,0.3,0,0.4c0.2,0.2,0.1,0.4,0.3,0.6c0.1,0.1,0.2,0.2,0.2,0.3
				c0.1,0.3,0.3,0.5,0.6,0.7c0,0.2,0,0.4,0,0.6C62.1,153.7,62.2,153.8,62.3,153.9L62.3,153.9 M56.4,132c0,0,0,0.1,0,0.1
				c0,0,0,0,0,0.1c0,0,0,0,0-0.1C56.4,132.1,56.4,132,56.4,132l0.3,0.3C56.7,132,56.5,132.1,56.4,132 M66.6,155.4
				c0.1,0.5,0.3,1,0.7,1.4c-0.2,0.1-0.3-0.2-0.5,0c0.3,0.3,0.6,0.6,0.8,0.9c0,0-0.1-0.1-0.1-0.1c0,0-0.1,0-0.1,0.1c0,0,0,0,0.1,0
				c0,0,0.1,0,0.1,0l0.4,0.5c0.1,0,0.2,0,0.2,0c0.8-0.1,1.6-0.3,2.4-0.6c0.1,0,0.2-0.1,0.2-0.2c0.2-0.1,0.3-0.3,0.5-0.5
				c0.2-0.2,0.4-0.5,0.5-0.8c0.1-0.3,0.2-0.6,0.3-0.8c0.2-0.6,0.4-1.2,0.4-1.8c0-0.5,0-1-0.1-1.5c-0.1-0.7-0.4-1.4-0.8-2.1
				c-0.3-0.6-0.8-1.1-1.4-1.4c-0.1-0.1-0.2-0.2-0.4-0.2s-0.3,0-0.5-0.1c-0.5-0.2-0.9-0.2-1.4-0.2c-0.4,0.1-0.8,0.2-0.9,0.8
				c-0.3,0.3-0.2,0.9-0.7,1.2c-0.2,0.1-0.1,0.4,0,0.7l-0.1,0l0.1,0c0.1,0.3,0.1,0.3-0.2,0.4c0,0-0.1,0.1-0.1,0.1c0,0,0,0,0,0.1
				c0,0,0.1,0,0.1-0.1c0,0,0-0.1,0-0.1c0.1,0.1,0.1,0.1,0.2,0.2c0.1,0.3,0.1,0.3-0.2,0.4c-0.1,0-0.2,0.1-0.2,0.3
				c-0.1,0.4,0,0.8,0.3,1.1c0.2,0.2,0.2,0.3-0.2,0.5c0,0,0,0,0,0c0.1,0.2,0.1,0.3,0.2,0.5c0.1,0.2,0.2,0.5,0.1,0.8
				c0.2,0.2,0.3,0.5,0.5,0.7L66.6,155.4C66.6,155.4,66.6,155.4,66.6,155.4L66.6,155.4 M80.3,157.7c0,0.1,0,0.2,0,0.3
				c0,0,0.1,0.1,0.1,0.1c0,0,0.1-0.1,0.1-0.1C80.4,157.8,80.4,157.7,80.3,157.7 M83.3,172.7L83.3,172.7l-0.1,0.1
				C83.2,172.8,83.3,172.8,83.3,172.7L83.3,172.7 M83.1,163.8c0,0,0,0.1,0.1,0.1c0,0,0.1,0,0.1,0C83.2,163.8,83.2,163.7,83.1,163.8
				L83.1,163.8 M81.8,157.8C81.7,157.8,81.7,157.8,81.8,157.8C81.7,157.8,81.7,157.9,81.8,157.8L81.8,157.8
				C81.8,157.9,81.8,157.8,81.8,157.8 M68.8,176.1l-0.1,0c0,0,0,0.1,0,0.1C68.7,176.2,68.8,176.2,68.8,176.1L68.8,176.1 M69.8,168.7
				L69.8,168.7C69.7,168.7,69.7,168.7,69.8,168.7C69.7,168.7,69.8,168.7,69.8,168.7C69.8,168.7,69.8,168.7,69.8,168.7 M68.2,176.4
				C68.1,176.4,68.1,176.4,68.2,176.4C68.1,176.4,68.1,176.4,68.2,176.4C68.1,176.5,68.1,176.5,68.2,176.4
				C68.2,176.4,68.2,176.4,68.2,176.4 M75.6,176.1C75.6,176.1,75.6,176.1,75.6,176.1L75.6,176.1L75.6,176.1"/>
			<path id="Path_5166" class="st4" d="M959,465.6c-0.3,0-0.7,0-1,0c-5.7-0.6-9.8-5.6-9.2-11.3c0.6-5.7,5.6-9.8,11.3-9.2
				s9.8,5.6,9.2,11.3C968.7,461.6,964.3,465.6,959,465.6 M958.9,447.9c-4.1,0-7.3,3.3-7.3,7.3c0,4.1,3.3,7.3,7.3,7.3
				c4.1,0,7.3-3.3,7.3-7.3c0-1.7-0.6-3.3-1.7-4.7C963.2,448.9,961.1,447.9,958.9,447.9"/>
			<path id="Path_5167" class="st5" d="M1013.1,587c0.5-0.1,0.5-0.1,0.9,0.4l0.7-0.5c0.1,0.1,0.1,0.2,0.1,0.3c0,0.3,0,0.7,0,1
				c0.1,0.3,0.1,0.7,0,1c-0.1,0.2,0,0.4,0,0.6c0,0.3-0.1,0.7-0.1,1.1c0.5,0.3,0.4,1.1,0.9,1.6c0.1,0.2,0.1,0.5,0,0.7
				c-0.5,1-0.1,2.1-0.3,3.2c0,0.2,0.1,0.4,0.2,0.6c0.2,0.4,0.2,0.8,0.1,1.2c-0.1,0.5,0.1,1,0.6,1.1c0,0,0.1,0,0.1,0
				c0.9,0.3,1.7,0.6,2.6,0.7c1.7,0.4,3.3,1.1,4.8,2.1c0.4,0.2,0.7,0.5,0.8,0.9c0.1,0.5,0.7,0.4,1.1,0.6c0.1,1.1-0.6,2.1-1.6,2.5
				c-0.9,0.5-1.8,0.9-2.7,1.2c-0.4,0.2-0.7,0.4-1,0.7c-0.2,0.2-0.5,0.3-0.8,0.2c-0.2,0-0.4-0.1-0.5,0c-0.9,0.6-2.1,0.7-2.9,1.5
				c0,0.1,0,0.1,0,0.2c0.4,0.8,0.6,1.7,0.5,2.6c0,0.4,0,0.9,0.1,1.3c0,1.2,0.1,2.4,0.3,3.6c0.1,0.2,0,0.5-0.1,0.7
				c-0.2,0.3,0.1,0.6,0.1,0.8c-0.9,0.5-0.9,0.5-1.2,1.2c-0.5,0.3-1.1,0.1-1.5-0.3c-0.5-0.4-1.1-0.7-1.5-1.2c-0.7-0.6-1.4-1.2-2-1.9
				c-0.3-0.4-0.6-0.8-1-1.1c-0.6-0.5-1.1-1.1-1.5-1.7c-0.5-0.8-0.8-0.9-1.7-0.6c-0.3,0.1-0.6,0.2-0.9,0.3c-1.7,0.8-3.5,1-5.3,1.7
				c-0.3,0.1-0.6,0.1-0.9,0.1c-0.5-0.1-0.9-0.1-1.4,0c-0.4,0.1-0.7-0.1-1-0.4c0-0.5,0-1,0-1.6c0-0.3,0.1-0.7,0.3-1
				c0.3-0.6,0.7-1.2,1-1.8c0.4-0.7,0.8-1.4,1.2-2.1c0.3-0.6,0.7-1.2,1.1-1.8c-0.7-0.8-1.4-1.6-2.1-2.4c-1-1-1.9-2-2.9-3.1
				c-0.4-0.5-1-0.8-1.2-1.5c-0.7-0.8-1.5-1.6-2.3-2.4c-0.3-0.3-0.8-0.5-1.3-0.5c-0.3-0.9-0.4-1.9-0.3-2.8c0.4-0.5,0.9-0.7,1.5-0.6
				c0.4,0,0.9,0.1,1.3,0.1c0.8,0.2,1.7,0.4,2.5,0.6c1.9,0.6,3.9,1.1,5.9,1.3c0.8,0.1,1.6,0.3,2.4,0.5c0.9,0.2,1.8,0.4,2.8,0.6
				c0.2-0.3,0.5-0.8,0.7-1.1c1-1.4,2-2.9,3-4.3c0.4-0.6,0.9-1.1,1.3-1.7C1012.9,588.7,1013.1,587.9,1013.1,587 M1007.4,600.7
				c-0.1,0.2-0.2,0.3-0.3,0.4c-0.3,0.7-0.7,1.3-1.3,1.8c-0.6,0.4-0.8,1.1-0.5,1.8c-0.3,0.4-1,0.5-0.8,1.2c0.1,0.4,0.5,0.7,0.9,0.6
				c0.1,0.2,0.1,0.5,0.2,0.7c0,0.1,0.1,0.2,0.1,0.2c0.1,0.1,0.2,0.3,0.4,0.3s0.3-0.1,0.5-0.2c0.1,0.2,0.1,0.4,0.2,0.6
				c0.7,0.1,1.3,0.5,1.8,1.1c0.4,0.5,0.6,0.5,1.2,0.3c1.3-0.5,2.7-0.9,4-1.3c0.1-0.1,0.2-0.1,0.3-0.2c-0.1-1.1-0.1-2.1-0.2-3.1
				c0-0.6,0-1.3-0.1-1.9c0-0.6-0.1-0.7-0.8-0.8c-1.6-0.3-3.2-0.7-4.8-1.4C1008,600.8,1007.7,600.7,1007.4,600.7 M1013.4,598.6
				c0.1-0.8,0.1-1.6,0-2.4c-0.1-0.8-0.1-1.7-0.2-2.5c-0.1-0.9-0.2-1.9-0.2-2.8c0,0,0-0.1,0-0.1c0,0-0.1,0-0.2,0
				c-0.5,0.4-0.3,1.2-0.8,1.6c-0.4,0.5-0.7,1-1,1.6c-0.3,0.6-0.7,1.1-1,1.6c0.1,0.7-0.7,1-0.8,1.7
				C1010.5,598,1011.9,598.5,1013.4,598.6 M1005,599.8c-0.2-0.1-0.5-0.2-0.7-0.3c-0.8-0.1-1.6-0.3-2.4-0.5c-0.6-0.2-1.3-0.3-2-0.4
				c-0.3,0-0.6,0-0.9,0c-0.3-0.1-0.6-0.2-0.9-0.4c0,0.1-0.1,0.1,0,0.1c0.7,1.2,1.7,2.4,2.7,3.3c0.4,0.3,0.7,0.6,0.4,1.2
				c0,0,0.1,0.3,0.2,0.3c0.1,0,0.3-0.1,0.4-0.2c0.4,0.2,0.5,0.7,1.1,0.7C1003.4,602.4,1004.7,601.4,1005,599.8 M1022.1,604.9
				c-1.6-0.6-2.9-1.2-4.3-1.7c-0.4-0.2-0.9-0.3-1.4-0.4c-0.2,0-0.3,0.1-0.4,0.2c-0.1,0.1-0.1,0.2,0,0.4c0,0.1,0.1,0.1,0.2,0.2
				c0.3,0.3,0.4,0.7,0.1,1.1c0,0,0,0-0.1,0.1c-0.3,0.4-0.4,0.8-0.3,1.2c0.7,0.1,0.6,0.7,0.8,1.1
				C1018.6,606.8,1020.2,605.8,1022.1,604.9 M1001.2,612c0.9-0.2,1.7-0.3,2.4-0.5s1.6,0,2.3-0.6c-0.1-0.1-0.2-0.3-0.4-0.4
				c-0.7-0.4-1.3-0.9-1.8-1.6c-0.3-0.3-0.6-0.5-1-0.6c-0.5,0.6-0.9,1.2-1.3,1.9c0.4,0,0.6,0.2,0.5,0.5
				C1001.7,611.1,1001.4,611.5,1001.2,612 M1010.8,611.8c0,0.1-0.1,0.2,0,0.2c1.1,1.2,2.2,2.4,3.2,3.5c0.4,0,0.4-0.2,0.4-0.5
				c-0.2-0.8-0.3-1.6-0.2-2.4c0.1-0.6,0-1.3-0.2-1.9C1012.9,611,1011.8,611.4,1010.8,611.8"/>
			<path id="Path_5168" class="st5" d="M1013.1,46.4c0.5-0.1,0.5-0.1,0.9,0.4l0.7-0.5c0.1,0.1,0.1,0.2,0.1,0.3c0,0.3,0,0.7,0,1
				c0.1,0.3,0.1,0.7,0,1c-0.1,0.2,0,0.4,0,0.6c0,0.3-0.1,0.7-0.1,1.1c0.5,0.3,0.4,1.1,0.9,1.6c0.1,0.2,0.1,0.5,0,0.7
				c-0.5,1-0.1,2.1-0.3,3.2c0,0.2,0.1,0.4,0.2,0.6c0.2,0.4,0.2,0.8,0.1,1.2c-0.1,0.5,0.1,1,0.6,1.1c0,0,0.1,0,0.1,0
				c0.9,0.3,1.7,0.6,2.6,0.7c1.7,0.4,3.3,1.1,4.8,2.1c0.4,0.2,0.7,0.5,0.8,0.9c0.1,0.5,0.7,0.4,1.1,0.6c0.1,1.1-0.6,2.1-1.6,2.5
				c-0.9,0.5-1.8,0.9-2.7,1.2c-0.4,0.2-0.7,0.4-1,0.7c-0.2,0.2-0.5,0.3-0.8,0.2c-0.2,0-0.4-0.1-0.5,0c-0.9,0.6-2.1,0.7-2.9,1.5
				c0,0.1,0,0.1,0,0.2c0.4,0.8,0.6,1.7,0.5,2.6c0,0.4,0,0.9,0.1,1.3c0,1.2,0.1,2.4,0.3,3.6c0.1,0.2,0,0.5-0.1,0.7
				c-0.2,0.3,0.1,0.6,0.1,0.8c-0.9,0.5-0.9,0.5-1.2,1.2c-0.5,0.3-1.1,0.1-1.5-0.3c-0.5-0.4-1.1-0.7-1.5-1.2c-0.7-0.6-1.4-1.2-2-1.9
				c-0.3-0.4-0.6-0.8-1-1.1c-0.6-0.5-1.1-1.1-1.5-1.7c-0.5-0.8-0.8-0.9-1.7-0.6c-0.3,0.1-0.6,0.2-0.9,0.3c-1.7,0.8-3.5,1-5.3,1.7
				c-0.3,0.1-0.6,0.1-0.9,0.1c-0.5-0.1-0.9-0.1-1.4,0c-0.4,0.1-0.7-0.1-1-0.4c0-0.5,0-1,0-1.6c0-0.3,0.1-0.7,0.3-1
				c0.3-0.6,0.7-1.2,1-1.8c0.4-0.7,0.8-1.4,1.2-2.1c0.3-0.6,0.7-1.2,1.1-1.8c-0.7-0.8-1.4-1.6-2.1-2.4c-1-1-1.9-2-2.9-3.1
				c-0.4-0.5-1-0.8-1.2-1.5c-0.7-0.8-1.5-1.6-2.3-2.4c-0.3-0.3-0.8-0.5-1.3-0.5c-0.3-0.9-0.4-1.9-0.3-2.8c0.4-0.5,0.9-0.7,1.5-0.6
				c0.4,0,0.9,0.1,1.3,0.1c0.8,0.2,1.7,0.4,2.5,0.6c1.9,0.6,3.9,1.1,5.9,1.3c0.8,0.1,1.6,0.3,2.4,0.5c0.9,0.2,1.8,0.4,2.8,0.6
				c0.2-0.3,0.5-0.8,0.7-1.1c1-1.4,2-2.9,3-4.3c0.4-0.6,0.9-1.1,1.3-1.7C1012.8,48.1,1013.1,47.3,1013.1,46.4 M1007.4,60.1
				c-0.1,0.2-0.2,0.3-0.3,0.4c-0.3,0.7-0.7,1.3-1.3,1.8c-0.6,0.4-0.8,1.1-0.5,1.8c-0.3,0.4-1,0.5-0.8,1.2c0.1,0.4,0.5,0.7,0.9,0.6
				c0.1,0.2,0.1,0.5,0.2,0.7c0,0.1,0.1,0.2,0.1,0.2c0.1,0.1,0.2,0.3,0.4,0.3s0.3-0.1,0.5-0.2c0.1,0.2,0.1,0.4,0.2,0.6
				c0.7,0.1,1.3,0.5,1.8,1.1c0.4,0.5,0.6,0.5,1.2,0.3c1.3-0.5,2.7-0.9,4-1.3c0.1-0.1,0.2-0.1,0.3-0.2c-0.1-1.1-0.1-2.1-0.2-3.1
				c0-0.6,0-1.3-0.1-1.9c0-0.6-0.1-0.7-0.8-0.8c-1.6-0.3-3.2-0.7-4.8-1.4C1008,60.2,1007.7,60.1,1007.4,60.1 M1013.4,58
				c0.1-0.8,0.1-1.6,0-2.4c-0.1-0.8-0.1-1.7-0.2-2.5c-0.1-0.9-0.2-1.9-0.2-2.8c0,0,0-0.1,0-0.1c0,0-0.1,0-0.2,0
				c-0.5,0.4-0.3,1.2-0.8,1.6c-0.4,0.5-0.7,1-1,1.6c-0.3,0.6-0.7,1.1-1,1.6c0.1,0.7-0.7,1-0.8,1.7
				C1010.5,57.4,1011.9,57.9,1013.4,58 M1005,59.2c-0.2-0.1-0.5-0.2-0.7-0.3c-0.8-0.1-1.6-0.3-2.4-0.5c-0.6-0.2-1.3-0.3-2-0.4
				c-0.3,0-0.6,0-0.9,0c-0.3-0.1-0.6-0.2-0.9-0.4c0,0.1-0.1,0.1,0,0.1c0.7,1.2,1.7,2.4,2.7,3.3c0.4,0.3,0.7,0.6,0.4,1.2
				c0,0,0.1,0.3,0.2,0.3c0.1,0,0.3-0.1,0.4-0.2c0.4,0.2,0.5,0.7,1.1,0.7C1003.4,61.8,1004.7,60.8,1005,59.2 M1022.1,64.3
				c-1.6-0.6-2.9-1.2-4.3-1.7c-0.4-0.2-0.9-0.3-1.4-0.4c-0.2,0-0.3,0.1-0.4,0.2c-0.1,0.1-0.1,0.2,0,0.4c0,0.1,0.1,0.1,0.2,0.2
				c0.3,0.3,0.4,0.7,0.1,1.1c0,0,0,0-0.1,0.1c-0.3,0.4-0.4,0.8-0.3,1.2c0.7,0.1,0.6,0.7,0.8,1.1
				C1018.6,66.2,1020.2,65.2,1022.1,64.3 M1001.2,71.4c0.9-0.2,1.7-0.3,2.4-0.5s1.6,0,2.3-0.6c-0.1-0.1-0.2-0.3-0.4-0.4
				c-0.7-0.4-1.3-0.9-1.8-1.6c-0.3-0.3-0.6-0.5-1-0.6c-0.5,0.6-0.9,1.2-1.3,1.9c0.4,0,0.6,0.2,0.5,0.5
				C1001.7,70.5,1001.4,70.9,1001.2,71.4 M1010.8,71.2c0,0.1-0.1,0.2,0,0.2c1.1,1.2,2.2,2.4,3.2,3.5c0.4,0,0.4-0.2,0.4-0.5
				c-0.2-0.8-0.3-1.6-0.2-2.4c0.1-0.6,0-1.3-0.2-1.9C1012.9,70.4,1011.8,70.8,1010.8,71.2"/>
		</g>
	</g>
</g>
</svg>
