<svg xmlns="http://www.w3.org/2000/svg" xmlns:xlink="http://www.w3.org/1999/xlink" width="53" height="53" viewBox="0 0 53 53">
  <defs>
    <clipPath id="clip-path">
      <rect id="Rectangle_2067" data-name="Rectangle 2067" width="30.003" height="26.854" transform="translate(0 0)" fill="none"/>
    </clipPath>
  </defs>
  <g id="icon-paper" transform="translate(0 3.573)">
    <circle id="Ellipse_32" data-name="Ellipse 32" cx="26.5" cy="26.5" r="26.5" transform="translate(0 -3.573)" fill="#fffdef"/>
    <g id="Group_3047" data-name="Group 3047" transform="translate(14.685 8.487)">
      <g id="Group_3046" data-name="Group 3046" transform="translate(0 0)" clip-path="url(#clip-path)">
        <path id="Path_9604" data-name="Path 9604" d="M12.01,7.889H22.054A1.809,1.809,0,0,0,24.04,6.345V4.462a1.809,1.809,0,0,0-1.985-1.544H20.318a1.931,1.931,0,0,0,.03-.338c0-1.423-1.488-2.58-3.316-2.58s-3.316,1.157-3.316,2.58a1.985,1.985,0,0,0,.03.338H12.01a1.809,1.809,0,0,0-1.985,1.544V6.345A1.809,1.809,0,0,0,12.01,7.889m3.629-4a.528.528,0,0,0-.011-.655,1.059,1.059,0,0,1-.241-.653A1.5,1.5,0,0,1,17.032,1.3a1.5,1.5,0,0,1,1.645,1.28,1.063,1.063,0,0,1-.241.654.528.528,0,0,0-.011.655.9.9,0,0,0,.727.33h2.9a.286.286,0,0,1,.314.244V6.345a.286.286,0,0,1-.314.244H12.01a.286.286,0,0,1-.314-.244V4.462a.286.286,0,0,1,.314-.244h2.9a.9.9,0,0,0,.727-.33" transform="translate(-5.124 0)" fill="#369684"/>
        <path id="Path_9605" data-name="Path 9605" d="M22.5,24.483a.761.761,0,0,0-.835.65v7.859a.093.093,0,0,1-.1.079H1.773a.093.093,0,0,1-.1-.079V13.509a.092.092,0,0,1,.1-.079h1.77a.761.761,0,0,0,.835-.65.761.761,0,0,0-.835-.65H1.773A1.616,1.616,0,0,0,0,13.509V32.992a1.616,1.616,0,0,0,1.773,1.379H21.559a1.616,1.616,0,0,0,1.774-1.379V25.133a.762.762,0,0,0-.836-.65" transform="translate(0 -7.518)" fill="#369684"/>
        <path id="Path_9606" data-name="Path 9606" d="M40.288,13.43h1.436a.093.093,0,0,1,.1.079v2.333a.862.862,0,0,0,1.671,0V13.509a1.616,1.616,0,0,0-1.774-1.379H40.288a.762.762,0,0,0-.836.65.762.762,0,0,0,.836.65" transform="translate(-20.165 -7.518)" fill="#369684"/>
        <path id="Path_9607" data-name="Path 9607" d="M8.026,51.753a.585.585,0,0,0,.244.46l2.669,2.075a1.011,1.011,0,0,0,1.182,0l4.527-3.521a.553.553,0,0,0,0-.919.978.978,0,0,0-.591-.186h0a.978.978,0,0,0-.591.186L11.53,52.91,9.452,51.293a1.018,1.018,0,0,0-1.182,0,.585.585,0,0,0-.244.46" transform="translate(-4.102 -30.779)" fill="#369684"/>
        <path id="Path_9608" data-name="Path 9608" d="M38.505,24.833a1.049,1.049,0,0,0-1.182,0L27.85,32.2a.624.624,0,0,0-.229.336L27.1,34.629a.565.565,0,0,0,.23.584.962.962,0,0,0,.591.19,1.028,1.028,0,0,0,.159-.012l2.691-.406a.945.945,0,0,0,.43-.178l9.473-7.368a.555.555,0,0,0,0-.92Zm-8.238,8.86-.068.053-1.223.185.238-.951.068-.053ZM38.9,26.979l-7.451,5.8-.986-.767,7.451-5.8Z" transform="translate(-13.844 -15.278)" fill="#369684"/>
        <path id="Path_9609" data-name="Path 9609" d="M55.771,20.62,53.6,18.935a.974.974,0,0,0-.59-.186h0a.98.98,0,0,0-.591.185l-1.284,1a.555.555,0,0,0,0,.92L53.3,22.538a1.013,1.013,0,0,0,1.183,0l1.285-1a.554.554,0,0,0,0-.919" transform="translate(-26.013 -11.62)" fill="#369684"/>
      </g>
    </g>
  </g>
</svg>
