<svg xmlns="http://www.w3.org/2000/svg" xmlns:xlink="http://www.w3.org/1999/xlink" width="15.827" height="60.147" viewBox="0 0 15.827 60.147">
  <defs>
    <clipPath id="clip-path">
      <rect id="Rectangle_55" data-name="Rectangle 55" width="15.827" height="60.147" transform="translate(0 0)" fill="none"/>
    </clipPath>
    <clipPath id="clip-path-2">
      <rect id="Rectangle_53" data-name="Rectangle 53" width="15.827" height="15.827" transform="translate(0 0)" fill="none"/>
    </clipPath>
    <clipPath id="clip-path-3">
      <rect id="Rectangle_54" data-name="Rectangle 54" width="15.827" height="15.827" transform="translate(0 44.319)" fill="none"/>
    </clipPath>
  </defs>
  <g id="icon-note02" transform="translate(0 0)">
    <g id="Group_75" data-name="Group 75" clip-path="url(#clip-path)">
      <g id="Group_71" data-name="Group 71" style="mix-blend-mode: normal;isolation: isolate">
        <g id="Group_70" data-name="Group 70">
          <g id="Group_69" data-name="Group 69" clip-path="url(#clip-path-2)">
            <path id="Path_1132" data-name="Path 1132" d="M15.327,7.914A7.413,7.413,0,1,1,7.913.5a7.414,7.414,0,0,1,7.414,7.414" fill="#e4efe7"/>
            <path id="Path_1133" data-name="Path 1133" d="M15.327,7.914A7.413,7.413,0,1,1,7.913.5,7.414,7.414,0,0,1,15.327,7.914Z" fill="none" stroke="#b2bfb5" stroke-width="1"/>
          </g>
        </g>
      </g>
      <g id="Group_74" data-name="Group 74" style="mix-blend-mode: normal;isolation: isolate">
        <g id="Group_73" data-name="Group 73">
          <g id="Group_72" data-name="Group 72" clip-path="url(#clip-path-3)">
            <path id="Path_1134" data-name="Path 1134" d="M15.327,52.233a7.413,7.413,0,1,1-7.414-7.414,7.414,7.414,0,0,1,7.414,7.414" fill="#e4efe7"/>
            <path id="Path_1135" data-name="Path 1135" d="M15.327,52.233a7.413,7.413,0,1,1-7.414-7.414A7.414,7.414,0,0,1,15.327,52.233Z" fill="none" stroke="#b2bfb5" stroke-width="1"/>
          </g>
        </g>
      </g>
      <path id="Path_1136" data-name="Path 1136" d="M7.914,54.179h0a2.847,2.847,0,0,1-2.847-2.847V9.229a2.847,2.847,0,1,1,5.694,0v42.1a2.847,2.847,0,0,1-2.847,2.847" fill="#684e46"/>
    </g>
  </g>
</svg>
