<svg id="icon-car-white" xmlns="http://www.w3.org/2000/svg" xmlns:xlink="http://www.w3.org/1999/xlink" width="73.22" height="42.463" viewBox="0 0 73.22 42.463">
  <defs>
    <clipPath id="clip-path">
      <rect id="Rectangle_36" data-name="Rectangle 36" width="73.22" height="42.463" fill="none"/>
    </clipPath>
  </defs>
  <g id="Group_27" data-name="Group 27" clip-path="url(#clip-path)">
    <path id="Path_645" data-name="Path 645" d="M68.649,35.926a7.151,7.151,0,0,1-2.66.5l-3.421-.014a1.2,1.2,0,0,1-1.176-1.44,7.036,7.036,0,0,0,.139-1.351,6.954,6.954,0,1,0-13.908-.055,7.075,7.075,0,0,0,.128,1.353,1.2,1.2,0,0,1-1.187,1.431l-20.527-.08a1.2,1.2,0,0,1-1.176-1.441,6.953,6.953,0,1,0-13.768-1.405,7.133,7.133,0,0,0,.128,1.352,1.2,1.2,0,0,1-1.186,1.431l-2.893-.012A7.189,7.189,0,0,1,0,28.995L.029,21.45a7.186,7.186,0,0,1,3.2-5.935L4.8,3.619A4.167,4.167,0,0,1,8.939,0L53.73.175a4.172,4.172,0,0,1,4.116,3.652L59.166,14.51l6.909.026a7.181,7.181,0,0,1,7.145,7.2l-.03,7.544a7.185,7.185,0,0,1-4.541,6.645m-4.72-1.915L66,34.019a4.769,4.769,0,0,0,4.784-4.747l.03-7.544a4.772,4.772,0,0,0-4.747-4.784L58.1,16.912a1.2,1.2,0,0,1-1.19-1.056L55.456,4.123A1.76,1.76,0,0,0,53.72,2.582L8.929,2.406A1.76,1.76,0,0,0,7.181,3.933L5.54,16.4a1.2,1.2,0,0,1-.614.9,4.78,4.78,0,0,0-2.49,4.161L2.407,29a4.782,4.782,0,0,0,4.746,4.784l1.541.006c0-.127-.006-.254-.006-.38a9.361,9.361,0,1,1,18.722.073c0,.126,0,.253-.01.38l17.823.07c0-.126-.007-.253-.006-.38a9.361,9.361,0,1,1,18.722.073c0,.127,0,.254-.01.38" transform="translate(0 0)" fill="#fffbe9"/>
    <path id="Path_646" data-name="Path 646" d="M23.645,47.462a9.005,9.005,0,1,1,5.7-8.343,8.956,8.956,0,0,1-5.7,8.343M18.179,33.629a5.883,5.883,0,1,0,2.184-.408,5.839,5.839,0,0,0-2.184.408" transform="translate(-2.24 -5.943)" fill="#fffbe9"/>
    <path id="Path_647" data-name="Path 647" d="M25.459,40.37a3.848,3.848,0,1,1-3.833-3.864,3.848,3.848,0,0,1,3.833,3.864" transform="translate(-3.51 -7.213)" fill="#fffbe9"/>
    <path id="Path_648" data-name="Path 648" d="M69.016,47.856a9.005,9.005,0,1,1,5.7-8.343,8.956,8.956,0,0,1-5.7,8.343M63.55,34.023a5.883,5.883,0,1,0,2.184-.408,5.839,5.839,0,0,0-2.184.408" transform="translate(-11.205 -6.021)" fill="#fffbe9"/>
    <path id="Path_649" data-name="Path 649" d="M70.83,40.764A3.848,3.848,0,1,1,67,36.9a3.848,3.848,0,0,1,3.833,3.864" transform="translate(-12.475 -7.291)" fill="#fffbe9"/>
    <path id="Path_650" data-name="Path 650" d="M59.832,17.405l-17.98-.071a1.8,1.8,0,0,1-1.8-1.809l.034-8.567A1.8,1.8,0,0,1,41.9,5.163l14.224.055A1.8,1.8,0,0,1,57.77,6.3l3.723,8.582a1.8,1.8,0,0,1-1.661,2.52" transform="translate(-7.915 -1.02)" fill="#fffbe9"/>
    <path id="Path_651" data-name="Path 651" d="M12.164,17.222l17.98.071a1.8,1.8,0,0,0,1.809-1.8l.034-8.566a1.8,1.8,0,0,0-1.795-1.809L15.969,5.065a1.8,1.8,0,0,0-1.655,1.072l-3.79,8.553a1.8,1.8,0,0,0,1.641,2.532" transform="translate(-2.048 -1.001)" fill="#fffbe9"/>
  </g>
</svg>
