<svg id="linepay-bg-cabinet" xmlns="http://www.w3.org/2000/svg" xmlns:xlink="http://www.w3.org/1999/xlink" width="160" height="289.846" viewBox="0 0 160 289.846">
  <defs>
    <clipPath id="clip-path">
      <rect id="Rectangle_101" data-name="Rectangle 101" width="160" height="289.846" fill="none"/>
    </clipPath>
  </defs>
  <rect id="Rectangle_74" data-name="Rectangle 74" width="122.94" height="230.14" transform="translate(17.742 59.706)" fill="#f7d5ab"/>
  <rect id="Rectangle_75" data-name="Rectangle 75" width="97.629" height="68.185" transform="translate(30.398 73.825)" fill="#b37f43"/>
  <rect id="Rectangle_76" data-name="Rectangle 76" width="97.629" height="68.185" transform="translate(30.398 150.791)" fill="#b37f43"/>
  <rect id="Rectangle_77" data-name="Rectangle 77" width="97.629" height="61.743" transform="translate(30.398 228.102)" fill="#b37f43"/>
  <rect id="Rectangle_78" data-name="Rectangle 78" width="97.629" height="62.087" transform="translate(30.398 227.758)" fill="#b37f43"/>
  <g id="Group_101" data-name="Group 101">
    <g id="Group_100" data-name="Group 100" clip-path="url(#clip-path)">
      <path id="Path_1208" data-name="Path 1208" d="M57.385,132.446v47.4a.8.8,0,0,1-.8.8H48.082a.8.8,0,0,1-.8-.8v-47.4a.8.8,0,0,1,.8-.8h8.508a.8.8,0,0,1,.8.8" transform="translate(-13.876 -38.632)" fill="#e6816c"/>
      <path id="Rectangle_79" data-name="Rectangle 79" d="M.669,0H8.784a.668.668,0,0,1,.668.668v47.01a.668.668,0,0,1-.668.668H.669A.669.669,0,0,1,0,47.677V.669A.669.669,0,0,1,.669,0Z" transform="translate(34.057 93.664)" fill="#dc7863"/>
      <rect id="Rectangle_80" data-name="Rectangle 80" width="2.379" height="16.755" transform="translate(39.083 121.41)" fill="#cf6b56"/>
      <rect id="Rectangle_81" data-name="Rectangle 81" width="1.552" height="12.204" transform="translate(35.878 126.065)" fill="#cf6b56"/>
      <path id="Path_1209" data-name="Path 1209" d="M75.769,131.71v47.81a.881.881,0,0,1-.88.88H62.46a.881.881,0,0,1-.88-.88V131.71a.881.881,0,0,1,.88-.88H74.889a.881.881,0,0,1,.88.88" transform="translate(-18.07 -38.391)" fill="#96b9b9"/>
      <rect id="Rectangle_82" data-name="Rectangle 82" width="13.474" height="48.856" rx="0.74" transform="translate(44.225 93.154)" fill="#87abac"/>
      <path id="Path_1210" data-name="Path 1210" d="M66.812,142.342v15.717h6.795V142.342Zm.808.808H72.8v14.1H67.62Z" transform="translate(-19.605 -41.769)" fill="#749898"/>
      <rect id="Rectangle_83" data-name="Rectangle 83" width="2.34" height="14.043" transform="translate(49.651 123.709)" fill="#749898"/>
      <path id="Path_1211" data-name="Path 1211" d="M114.89,350.8v47.4a.8.8,0,0,1-.8.8h-8.508a.8.8,0,0,1-.8-.8V350.8a.8.8,0,0,1,.8-.8h8.508a.8.8,0,0,1,.8.8" transform="translate(-30.75 -102.707)" fill="#e6816c"/>
      <path id="Rectangle_84" data-name="Rectangle 84" d="M.669,0H8.784a.668.668,0,0,1,.668.668V47.678a.668.668,0,0,1-.668.668H.669A.669.669,0,0,1,0,47.677V.669A.669.669,0,0,1,.669,0Z" transform="translate(74.687 247.947)" fill="#dc7863"/>
      <rect id="Rectangle_85" data-name="Rectangle 85" width="2.379" height="16.755" transform="translate(79.714 275.692)" fill="#cf6b56"/>
      <rect id="Rectangle_86" data-name="Rectangle 86" width="1.552" height="12.204" transform="translate(76.507 280.347)" fill="#cf6b56"/>
      <path id="Path_1212" data-name="Path 1212" d="M133.273,350.068v47.81a.881.881,0,0,1-.88.88H119.964a.881.881,0,0,1-.88-.88v-47.81a.881.881,0,0,1,.88-.88h12.428a.881.881,0,0,1,.88.88" transform="translate(-34.944 -102.467)" fill="#96b9b9"/>
      <rect id="Rectangle_87" data-name="Rectangle 87" width="13.474" height="48.856" rx="0.74" transform="translate(84.855 247.437)" fill="#87abac"/>
      <path id="Path_1213" data-name="Path 1213" d="M124.316,360.7v15.717h6.8V360.7Zm.808.809H130.3v14.1h-5.178Z" transform="translate(-36.48 -105.844)" fill="#749898"/>
      <rect id="Rectangle_88" data-name="Rectangle 88" width="2.34" height="14.043" transform="translate(90.282 277.992)" fill="#749898"/>
      <path id="Path_1214" data-name="Path 1214" d="M96.024,123.576v52.87a.881.881,0,0,1-.88.88H82.715a.881.881,0,0,1-.88-.88v-52.87a.881.881,0,0,1,.88-.88H95.144a.881.881,0,0,1,.88.88" transform="translate(-24.014 -36.004)" fill="#e6816c"/>
      <rect id="Rectangle_89" data-name="Rectangle 89" width="13.474" height="53.915" rx="0.74" transform="translate(58.536 87.407)" fill="#dc7863"/>
      <rect id="Rectangle_90" data-name="Rectangle 90" width="7.301" height="7.422" transform="translate(61.162 96.02)" fill="#cf6b56"/>
      <path id="Path_1215" data-name="Path 1215" d="M102.973,301.429l3.893-2.247-.339-8.882-4.034-.153-.028-1.167,49.992.961c2.221,3.361,3.014,9.787-.42,12.673-4.814.13-46.62.133-49.036.009Z" transform="translate(-30.068 -84.799)" fill="#8198ba"/>
      <path id="Path_1216" data-name="Path 1216" d="M103.749,290.681s44.332,1.027,48.273.955c1.454,2.926,2.115,7.648-.386,10.3-4.379.117-45.1.081-47.3-.033a11.431,11.431,0,0,0-.586-11.227" transform="translate(-30.444 -85.298)" fill="#e9e5e2"/>
      <path id="Path_1217" data-name="Path 1217" d="M105.7,292.656l46.665.9.252.714-46.906-1.383Z" transform="translate(-31.018 -85.878)" fill="#d2cac4"/>
      <path id="Path_1218" data-name="Path 1218" d="M109.882,295.768l44.177.815.021.454L109.894,296Z" transform="translate(-32.244 -86.791)" fill="#d2cac4"/>
      <path id="Path_1219" data-name="Path 1219" d="M109.882,297.388l44.177.814.021.455-44.187-1.042Z" transform="translate(-32.244 -87.266)" fill="#d2cac4"/>
      <path id="Path_1220" data-name="Path 1220" d="M111.642,302.323l42.526-.1.023.454-42.537-.131Z" transform="translate(-32.76 -88.686)" fill="#d2cac4"/>
      <path id="Path_1221" data-name="Path 1221" d="M107.338,304.06l45.407-.115-.182.817-45.215-.475Z" transform="translate(-31.497 -89.19)" fill="#d2cac4"/>
      <path id="Path_1222" data-name="Path 1222" d="M106.212,283.806l3.038-1.694-.161-6.876-3.119-.165-.007-.9,38.667,1.315c1.68,2.626,2.22,7.606-.47,9.8-3.727.045-36.071-.43-37.939-.553Z" transform="translate(-31.094 -80.452)" fill="#f39b00"/>
      <path id="Path_1223" data-name="Path 1223" d="M106.936,275.5s34.287,1.3,37.338,1.29c1.09,2.281,1.549,5.941-.417,7.968-3.39.041-34.9-.452-36.6-.565a8.844,8.844,0,0,0-.325-8.693" transform="translate(-31.38 -80.843)" fill="#e9e5e2"/>
      <path id="Path_1224" data-name="Path 1224" d="M108.425,277.05l36.095,1.227.187.555-36.275-1.606Z" transform="translate(-31.816 -81.298)" fill="#d2cac4"/>
      <path id="Path_1225" data-name="Path 1225" d="M111.623,279.505l34.17,1.135.011.353-34.175-1.311Z" transform="translate(-32.755 -82.019)" fill="#d2cac4"/>
      <path id="Path_1226" data-name="Path 1226" d="M111.6,280.759l34.17,1.135.011.352-34.175-1.311Z" transform="translate(-32.75 -82.387)" fill="#d2cac4"/>
      <path id="Path_1227" data-name="Path 1227" d="M112.909,284.628l32.9.412.013.351-32.909-.587Z" transform="translate(-33.132 -83.522)" fill="#d2cac4"/>
      <path id="Path_1228" data-name="Path 1228" d="M109.559,285.929l35.132.43-.15.63-34.977-.885Z" transform="translate(-32.149 -83.904)" fill="#d2cac4"/>
      <path id="Path_1229" data-name="Path 1229" d="M146.914,271.711l-3.461-1.475.5-5.3,3.642.044.049-.7-45.107-1.11c-2.077,1.936-2.937,5.754.1,7.6,4.339.24,42.042,1.651,44.223,1.658Z" transform="translate(-29.539 -77.225)" fill="#e56c56"/>
      <path id="Path_1230" data-name="Path 1230" d="M147.343,265.277s-40.005-.88-43.558-1.056c-1.376,1.7-2.078,4.5.119,6.18,3.946.217,40.677,1.569,42.659,1.574-1.566-2.018-1.229-4.653.78-6.7" transform="translate(-30.077 -77.534)" fill="#e9e5e2"/>
      <path id="Path_1231" data-name="Path 1231" d="M146.574,266.4l-42.105-1.037-.243.419,42.333.754Z" transform="translate(-30.584 -77.869)" fill="#d2cac4"/>
      <path id="Path_1232" data-name="Path 1232" d="M143.757,268.136l-39.859-1-.03.271,39.873.866Z" transform="translate(-30.479 -78.389)" fill="#d2cac4"/>
      <path id="Path_1233" data-name="Path 1233" d="M143.721,269.106l-39.86-1-.029.271,39.875.866Z" transform="translate(-30.469 -78.673)" fill="#d2cac4"/>
      <path id="Path_1234" data-name="Path 1234" d="M142.65,271.82,104.3,270.329l-.03.271,38.365,1.354Z" transform="translate(-30.597 -79.326)" fill="#d2cac4"/>
      <path id="Path_1235" data-name="Path 1235" d="M145.426,272.965l-40.949-1.6.145.495,40.789,1.239Z" transform="translate(-30.658 -79.63)" fill="#d2cac4"/>
      <path id="Path_1236" data-name="Path 1236" d="M54.151,222.257H46.768v62.087H58.462V222.257Z" transform="translate(-13.724 -65.22)" fill="#8f9f74"/>
      <path id="Path_1237" data-name="Path 1237" d="M54.668,227.847h-3.11v32.976h4.925V227.847Z" transform="translate(-15.129 -66.86)" fill="#79885f"/>
      <path id="Path_1238" data-name="Path 1238" d="M58.462,296.43v-.96H46.768v1.521H58.462Z" transform="translate(-13.724 -86.703)" fill="#e8cfa0"/>
      <path id="Path_1239" data-name="Path 1239" d="M94.016,350.671l-5.718-.945-7.952,48.091,5.718.945,3.339.553,7.952-48.092Z" transform="translate(-23.577 -102.624)" fill="#e56c56"/>
      <path id="Path_1240" data-name="Path 1240" d="M94.053,362.388l-2.409-.4-4.223,25.543,2.409.4,1.407.233L95.46,362.62Z" transform="translate(-25.653 -106.223)" fill="#da5443"/>
      <path id="Path_1241" data-name="Path 1241" d="M91.077,408.676l.123-.744-9.057-1.5-.123.744-.072.435L91,409.11Z" transform="translate(-24.047 -119.265)" fill="#e8cfa0"/>
      <path id="Path_1242" data-name="Path 1242" d="M99.633,356l.356-2.154-9.057-1.5-.356,2.154-.208,1.258,9.058,1.5Z" transform="translate(-26.518 -103.395)" fill="#e8cfa0"/>
      <path id="Path_1243" data-name="Path 1243" d="M71.678,222.257H64.3v62.087H75.989V222.257Z" transform="translate(-18.867 -65.22)" fill="#8f9f74"/>
      <path id="Path_1244" data-name="Path 1244" d="M72.195,227.847h-3.11v32.976h4.925V227.847Z" transform="translate(-20.273 -66.86)" fill="#79885f"/>
      <path id="Path_1245" data-name="Path 1245" d="M75.989,296.43v-.96H64.3v1.521H75.989Z" transform="translate(-18.867 -86.703)" fill="#e8cfa0"/>
      <path id="Path_1246" data-name="Path 1246" d="M89.33,222.257H81.948v62.087H93.641V222.257Z" transform="translate(-24.047 -65.22)" fill="#8f9f74"/>
      <path id="Path_1247" data-name="Path 1247" d="M89.847,227.847h-3.11v32.976h4.925V227.847Z" transform="translate(-25.452 -66.86)" fill="#79885f"/>
      <path id="Path_1248" data-name="Path 1248" d="M93.641,296.43v-.96H81.948v1.521H93.641Z" transform="translate(-24.047 -86.703)" fill="#e8cfa0"/>
      <path id="Path_1249" data-name="Path 1249" d="M76.786,42.053a7.713,7.713,0,1,1-7.713-7.713,7.713,7.713,0,0,1,7.713,7.713" transform="translate(-18.006 -10.077)" fill="#8da16a"/>
      <path id="Path_1250" data-name="Path 1250" d="M70.582,51.55c-5-12.754-6.332-37.117,6.733-40.575S104.37,18.4,94.161,48.691Z" transform="translate(-19.666 -3.04)" fill="#96ab74"/>
      <path id="Path_1251" data-name="Path 1251" d="M94.848,76.188H67.411L64.991,56.172H97.268Z" transform="translate(-19.071 -16.483)" fill="#308482"/>
      <path id="Path_1252" data-name="Path 1252" d="M71.576,43.561l2.48-2.358-.471,3.152Z" transform="translate(-21.003 -12.091)" fill="#8da16a"/>
      <path id="Path_1253" data-name="Path 1253" d="M93.561,49.1l2.094-4.511L96.7,49.1Z" transform="translate(-27.455 -13.083)" fill="#8da16a"/>
      <path id="Path_1254" data-name="Path 1254" d="M80.957,35.769l1.829-3.941.914,3.941Z" transform="translate(-23.756 -9.34)" fill="#8da16a"/>
      <path id="Path_1255" data-name="Path 1255" d="M95.675,22.01l-1.028-3.035,2.493,1.64Z" transform="translate(-27.774 -5.568)" fill="#8da16a"/>
      <path id="Path_1256" data-name="Path 1256" d="M82.161,48.875,81.133,45.84l2.493,1.64Z" transform="translate(-23.808 -13.451)" fill="#8da16a"/>
      <path id="Path_1257" data-name="Path 1257" d="M74.093,21.569,78.722,20.1l-2.556,3.732Z" transform="translate(-21.742 -5.897)" fill="#8da16a"/>
      <path id="Path_1258" data-name="Path 1258" d="M100.032,32.813l.328-3.372,2.285,1.766Z" transform="translate(-29.354 -8.639)" fill="#8da16a"/>
      <path id="Path_1259" data-name="Path 1259" d="M158.748,328.989v62.7a.88.88,0,0,1-.88.88H140.454a.88.88,0,0,1-.88-.88v-62.7a.881.881,0,0,1,.88-.88h17.413a.881.881,0,0,1,.88.88" transform="translate(-40.957 -96.281)" fill="#56b191"/>
      <rect id="Rectangle_91" data-name="Rectangle 91" width="18.459" height="63.749" rx="0.74" transform="translate(99.332 232.543)" fill="#419d80"/>
      <rect id="Rectangle_92" data-name="Rectangle 92" width="12.286" height="7.422" transform="translate(101.958 241.157)" fill="#3b948d"/>
      <rect id="Rectangle_93" data-name="Rectangle 93" width="3.115" height="31.211" transform="translate(108.561 258.412)" fill="#56b191"/>
      <rect id="Rectangle_94" data-name="Rectangle 94" width="2.039" height="20.646" transform="translate(103.998 268.977)" fill="#56b191"/>
      <path id="Path_1260" data-name="Path 1260" d="M121.753,112.729v61.222a.881.881,0,0,1-.88.88H103.043a.881.881,0,0,1-.88-.88V112.729a.881.881,0,0,1,.88-.88h17.829a.881.881,0,0,1,.88.88" transform="translate(-29.979 -32.821)" fill="#83c391"/>
      <rect id="Rectangle_95" data-name="Rectangle 95" width="18.875" height="62.268" rx="0.74" transform="translate(72.899 79.742)" fill="#7ab987"/>
      <rect id="Rectangle_96" data-name="Rectangle 96" width="19.59" height="1.852" transform="translate(72.184 134.63)" fill="#f7d280"/>
      <rect id="Rectangle_97" data-name="Rectangle 97" width="19.59" height="1.854" transform="translate(72.184 120.625)" fill="#f7d280"/>
      <rect id="Rectangle_98" data-name="Rectangle 98" width="8.412" height="28.397" transform="translate(77.774 85.209)" fill="#83c391"/>
      <path id="Path_1261" data-name="Path 1261" d="M129.939,120.8l20.328,54.49a.794.794,0,0,0,1.023.467l11.321-4.223a.8.8,0,0,0,.468-1.023l-20.328-54.49a.8.8,0,0,0-1.024-.468l-11.321,4.224a.794.794,0,0,0-.467,1.023" transform="translate(-38.115 -33.895)" fill="#aaaacb"/>
      <path id="Path_1262" data-name="Path 1262" d="M162.363,171.958a.473.473,0,0,0,.278-.608L142.313,116.86a.473.473,0,0,0-.608-.277l-11.321,4.223a.474.474,0,0,0-.278.608l20.328,54.49a.473.473,0,0,0,.608.278Z" transform="translate(-38.17 -34.201)" fill="#a1a1c1"/>
      <rect id="Rectangle_99" data-name="Rectangle 99" width="3.572" height="28.493" transform="translate(98.231 89.632) rotate(-20.457)" fill="#aaaacb"/>
      <rect id="Rectangle_100" data-name="Rectangle 100" width="13.674" height="18.074" transform="translate(105.758 124.26) rotate(-20.458)" fill="#f4b7b8"/>
    </g>
  </g>
</svg>
