<svg id="plus02" xmlns="http://www.w3.org/2000/svg" xmlns:xlink="http://www.w3.org/1999/xlink" width="225" height="311.121" viewBox="0 0 225 311.121">
  <defs>
    <clipPath id="clip-path">
      <rect id="Rectangle_2072" data-name="Rectangle 2072" width="225" height="311.121" fill="none"/>
    </clipPath>
    <clipPath id="clip-path-2">
      <path id="Path_9695" data-name="Path 9695" d="M205.946,80.86,32.064,100.4v84.4H40.81a86.578,86.578,0,0,0-6.5,57.645c2.393,10.292-.407,58.506,5.519,67.323,2.661,3.962,7.078.156,11.768-3.649,4.389-3.561,9.019-7.122,12.676-4.318,2.395,1.836,5.38.821,8.453-.195,2.812-.928,5.7-1.857,8.279-.6a86.944,86.944,0,0,0,116.2-116.2h8.746V80.86Z" transform="translate(-32.043 -80.86)" fill="none"/>
    </clipPath>
    <clipPath id="clip-path-3">
      <path id="Path_9697" data-name="Path 9697" d="M141.845,151.405v.023a24.511,24.511,0,0,0-4.641,1.6c-26.343,12.27-7.542,25.034-7.542,25.034a15.706,15.706,0,0,1-7.959-8.67c-.488-1-1.176-.441-1.393.252-2.825,9.04,17.98,15.46,24.259,20.035l.212-5.351s1.627-3.894,3.2-9.021c2.972,11.572,6.4,24.876,8.729,33.951l-8.288-.552s-3.289,6.173-4.106,10.839,1.41,11.56,7.795,12.67c0,0,.33-.041.229-.322-.047-.131,1.193,2.025,2.467,4.181,1.472,2.489,2.99,4.978,2.631,3.948,0,0-3.506-6.766,3.871-4.318,1.368,2.085,4.646,3.037,10.79,2.056,26.743-4.663,18.309-19.031,16.514-21.651l.1-.017a13.785,13.785,0,0,1,4.035,9.9c.1,1.087.957.711,1.416.105,4.458-5.95-4.223-13.816-10.673-19.888l0-.007a8.611,8.611,0,0,1-.247-5.592c.482-1.515,1.451-2.919,1.751-4.464.917-4.711-4.075-8.458-6.938-12-9.375-11.624-7.747-32.395-29.986-33.228h-.038c-.608,0-6.257.208-6.189.493" transform="translate(-120.049 -150.912)" fill="none"/>
    </clipPath>
    <clipPath id="clip-path-5">
      <path id="Path_9729" data-name="Path 9729" d="M128.332,242.27s2.35,11.548.441,16.282c-1.592,3.959-21.2,7.671-20.6,8.118,2.784,3.442,15.678,11.589,32.071,11.066S164.622,263.3,164.622,263.3c-6.667-2.591-13.111-3.883-13.916-6.338s-.816-15.807-.816-15.807Z" transform="translate(-108.16 -241.154)" fill="none"/>
    </clipPath>
  </defs>
  <g id="Group_3066" data-name="Group 3066">
    <g id="Group_3065" data-name="Group 3065" clip-path="url(#clip-path)">
      <path id="Path_9693" data-name="Path 9693" d="M119.014,156.507A86.944,86.944,0,1,1,32.07,243.451a86.944,86.944,0,0,1,86.944-86.944" transform="translate(-8.74 -42.652)" fill="#00b7a5"/>
    </g>
  </g>
  <g id="Group_3068" data-name="Group 3068" transform="translate(23.311 58.824)">
    <g id="Group_3067" data-name="Group 3067" clip-path="url(#clip-path-2)">
      <path id="Path_9694" data-name="Path 9694" d="M183.492,206.2a8.612,8.612,0,0,1-.247-5.592c.482-1.515,1.451-2.919,1.75-4.464.917-4.711-4.074-8.458-6.937-12-9.375-11.624-7.748-32.394-29.986-33.228-.335-.012-6.3.2-6.226.493v.023a24.493,24.493,0,0,0-4.641,1.6c-26.344,12.27-7.542,25.034-7.542,25.034a15.709,15.709,0,0,1-7.959-8.67c-.487-1-1.175-.441-1.392.252-2.826,9.04,17.98,15.46,24.259,20.035l.212-5.351s1.627-3.894,3.2-9.021c2.972,11.571,6.4,24.875,8.73,33.951l-8.288-.552s-3.29,6.173-4.106,10.839,1.41,11.56,7.795,12.67c0,0,.329-.041.229-.323a13.883,13.883,0,0,1-2.182-3.554,24.778,24.778,0,0,0,11.157,7.364c1.368,2.085,4.646,3.036,10.79,2.056,26.743-4.664,18.308-19.032,16.514-21.651l.1-.017a13.787,13.787,0,0,1,4.035,9.9c.1,1.087.957.711,1.416.105,4.458-5.95-4.223-13.815-10.673-19.888Z" transform="translate(-56.027 -99.951)" fill="#7f5a50" fill-rule="evenodd"/>
    </g>
  </g>
  <g id="Group_3070" data-name="Group 3070" transform="translate(87.332 109.785)">
    <g id="Group_3069" data-name="Group 3069" clip-path="url(#clip-path-3)">
      <path id="Path_9696" data-name="Path 9696" d="M179.3,240.382c-.094,1.221.928.922,1.551.306,4.494-4.458,1.221-10.743-2.033-14.855-2.872-3.63-6.215-7.5-5.757-11.854.37-3.525,3.237-6.655,3.483-10.185.291-4.147-3-7.748-5.228-11.448-5.181-8.594-5.063-18.655-8.923-27.624-4.641-10.778-17.2-17.158-30.99-13.022-8.241,2.473-18.285,7.724-18.391,15.877-.053,4.018,2.244,8.023,5.351,11.007a16.449,16.449,0,0,1-7.184-10.726c-.352-1.187-1.221-.646-1.592.1-4.87,9.7,17.028,19.624,23.134,25.557l1.257-5.933s2.555-4.129,5.287-9.633c1.091,13.292,2.344,28.582,3.2,39.008l-9.11-1.715s-4.84,6.45-6.637,11.536-.646,13.069,6.244,15.161c0,0,.376,0,.311-.335a14.732,14.732,0,0,1-1.746-4.253,25.793,25.793,0,0,0,10.985,9.692c1.128,2.508,4.587,4,11.6,3.724" transform="translate(-117.007 -150.78)" fill="#563f39" fill-rule="evenodd"/>
    </g>
  </g>
  <g id="Group_3072" data-name="Group 3072" transform="translate(23.311 58.824)">
    <g id="Group_3071" data-name="Group 3071" clip-path="url(#clip-path-2)">
      <path id="Path_9698" data-name="Path 9698" d="M150.75,166.027a23.79,23.79,0,0,1-2.473-.131c-6.787-.706-11.62-3.976-11.243-7.609.2-1.885,1.739-3.434,4.344-4.363A21.077,21.077,0,0,1,157.49,155.6c2.36,1.444,3.552,3.277,3.355,5.163-.33,3.178-4.509,5.266-10.1,5.267m-3.579-10.364a14.9,14.9,0,0,0-4.907.748c-1.548.551-2.521,1.355-2.6,2.148-.162,1.564,3.141,4.112,8.891,4.71s9.505-1.218,9.668-2.782c.082-.794-.7-1.779-2.107-2.637a16.594,16.594,0,0,0-6.784-2.073,20.839,20.839,0,0,0-2.158-.114" transform="translate(-60.65 -100.526)" fill="#231815"/>
      <path id="Path_9699" data-name="Path 9699" d="M149.89,241.154s.012,13.351.816,15.807,7.249,3.747,13.915,6.338c0,0-7.983,13.915-24.376,14.438s-29.287-7.624-32.071-11.066c-.605-.447,19.007-4.159,20.6-8.118,1.909-4.734-.441-16.282-.441-16.282Z" transform="translate(-52.787 -124.544)" fill="#fcd1c8"/>
      <path id="Path_9700" data-name="Path 9700" d="M181.129,266.288s31.476,19.975,43.878,61.777L251.055,361s10.443,13.109-3.306,25.358-36.665-17.6-42.377.041S156.68,278.359,156.68,278.359Z" transform="translate(-66.01 -131.394)" fill="#3b7b9a"/>
      <path id="Path_9701" data-name="Path 9701" d="M62.949,262.849c-4.022,1.32-9.2,10.959-11.621,15.881-4.648,9.433-7.152,19.834-6.562,28.857.319,4.872,1.392,9.8-.669,15.062-1.3,3.327-3.722,6.307-4.782,9.669-2.012,6.386,1.622,10.967,5.457,13.474,4.115,2.691,7.975,5.826,12.92.782.088-.089-.145-2.409-.052-2.508,2-2.111,5.592-4.01,6.664-6.57,5.188-12.384,6.227-26.786,6.806-38.708.593-12.2-.453-23.974-4.434-33.49-.969-2.316-2.273-2.927-3.728-2.45" transform="translate(-33.869 -130.415)" fill="#13637e" fill-rule="evenodd"/>
      <path id="Path_9702" data-name="Path 9702" d="M60.134,218.963c.183,1.337,2.5,14.071,4.459,24.866,1.395,7.683,6.779,31.012,6.915,31.925.327,2.209-.916,6.5-5.547,8.693s-12.8-1.01-14.318-6.651-5.135-51.143-5.329-55.721c-.005-.1-.01-.2-.015-.306Z" transform="translate(-35.928 -118.496)" fill="#f8cfc7" fill-rule="evenodd"/>
      <path id="Path_9703" data-name="Path 9703" d="M74.1,279.119s-2.508,19.152-7.665,22.294c0,0,3.725,1.075,7.991-2.655s-.325-19.638-.325-19.638" transform="translate(-41.415 -134.89)" fill="#f8a8a0" fill-rule="evenodd"/>
      <path id="Path_9704" data-name="Path 9704" d="M128.115,288.02c.128-.119,2.07-3.026,1.881-3.172-3.565-2.744-8.284-6.034-12.946-6.382-10.079-.754-6.42-10.908-17.564-11.612-14.763-.932-20.306,7.087-28.022-3.509,2.046,9.648,2.192,17.265-1.261,28.662-1.289,4.253-3.283,8.412-4.727,12.651-5.333,15.657-4.352,28.788-1.541,42.093-.227-1.074,28.659-23.747,31.171-26.1,19.456-18.2,6.083-14.432,25.54-32.634-.009.009,7.469,0,7.469,0" transform="translate(-40.111 -130.592)" fill="#3b7b9a" fill-rule="evenodd"/>
      <path id="Path_9705" data-name="Path 9705" d="M70.914,306.241c.623-1.828,1.368-3.688,2.09-5.487.939-2.343,1.911-4.766,2.651-7.208,3.032-10.007,3.291-17.051,2.193-24.416a13.2,13.2,0,0,1-2.778-1.707c1.423,7.832,1.443,14.914-1.74,25.417-.7,2.327-1.654,4.694-2.572,6.982-.735,1.832-1.495,3.726-2.141,5.623A72.918,72.918,0,0,0,64.6,327.892a86.478,86.478,0,0,0,1.719,18.236c.6-.54,1.323-1.174,2.149-1.882-1.905-10.441-2.677-22.952,2.45-38" transform="translate(-40.911 -131.703)" fill="#f2ad22" fill-rule="evenodd"/>
      <path id="Path_9706" data-name="Path 9706" d="M53.648,207.548c.489-1.819,3.019-2.879,4.007-4.417a14.058,14.058,0,0,0,2.265-9.145c-.38-3.373-1.471-6.622-2.092-9.959-.69-3.7-.814-7.485-1.206-11.224a47.24,47.24,0,0,0-.873-5.618c-.326-1.424-.682-3.742-1.819-4.769a2.072,2.072,0,0,0-.487-.328,1.6,1.6,0,0,0-2.322.855,4.556,4.556,0,0,0-.148,1.85c.227,3.905.792,8.778,1.019,12.683.092,1.592.151,3.313-.737,4.638a4.469,4.469,0,0,0-3.99-1.122,3.087,3.087,0,0,0-1.552,1.272,4.1,4.1,0,0,0-.33,2.622c0,.026-1.235.282-1.379.319a2.987,2.987,0,0,0-1.722,1.122c-.407.531-.818,1.454-1.568,1.556-4.609.628-5.509,6.563-4.174,10.135a14.306,14.306,0,0,0,4.732,6.715c1.23,1.1,3.175,2.521,3.175,2.521.533,7.2,8.765,7.389,9.2.3" transform="translate(-33.115 -102.941)" fill="#fcd1c8"/>
      <path id="Path_9707" data-name="Path 9707" d="M58.219,204.9a.321.321,0,0,1-.3-.215,16.164,16.164,0,0,1-.785-3.4,19.7,19.7,0,0,1-4.26-1.806c-.548-.314-2.217-1.265-2.033-2.689.2-1.574,2.124-1.571,3.267-1.563h.362a33.39,33.39,0,0,1,4.344.3c.111.012.239.023.378.036a7.283,7.283,0,0,1,1.611.26c1.264.461,2.252,2.3,2.668,3.922a.321.321,0,1,1-.622.161c-.444-1.723-1.376-3.154-2.267-3.478a7.1,7.1,0,0,0-1.448-.226c-.144-.013-.276-.025-.391-.038a34.068,34.068,0,0,0-4.264-.3H54.1c-1.312-.012-2.507.068-2.628,1-.086.662.491,1.351,1.714,2.049a19.092,19.092,0,0,0,4.323,1.806.32.32,0,0,1,.233.276,15.5,15.5,0,0,0,.777,3.471.322.322,0,0,1-.2.41.333.333,0,0,1-.105.017" transform="translate(-37.161 -112.028)" fill="#f8a8a0"/>
      <path id="Path_9708" data-name="Path 9708" d="M50.087,196.382a.322.322,0,0,1-.292-.186l-.1-.217c-.294-.685-.694-1.623-2.1-1.432a.321.321,0,1,1-.087-.637,2.445,2.445,0,0,1,2.78,1.816l.087.2a.321.321,0,0,1-.156.426.317.317,0,0,1-.135.03" transform="translate(-36.183 -111.66)" fill="#f8a8a0"/>
      <path id="Path_9709" data-name="Path 9709" d="M56.9,195.121a.321.321,0,0,1-.319-.29c-.042-.442-.173-1.665-.274-2.031a.321.321,0,0,1,.62-.171,21.081,21.081,0,0,1,.293,2.141.32.32,0,0,1-.29.35H56.9" transform="translate(-38.653 -111.256)" fill="#f8a8a0"/>
      <path id="Path_9710" data-name="Path 9710" d="M49.588,206.442a2.153,2.153,0,0,1-1.625-.977,42.872,42.872,0,0,1-3.7-5.005.322.322,0,0,1,.547-.338,42.322,42.322,0,0,0,3.65,4.934c.431.52.781.812,1.29.733a3.333,3.333,0,0,0,.833-.284,2.17,2.17,0,0,0,1.122-.8,1.315,1.315,0,0,0,.082-.879,18.05,18.05,0,0,0-1.707-3.9.321.321,0,1,1,.559-.317,18.7,18.7,0,0,1,1.778,4.087,1.953,1.953,0,0,1-.145,1.313,2.74,2.74,0,0,1-1.429,1.085,3.907,3.907,0,0,1-1,.332,1.909,1.909,0,0,1-.252.018" transform="translate(-35.36 -113.177)" fill="#f8a8a0"/>
      <path id="Path_9711" data-name="Path 9711" d="M44.306,209.647c-1.268,0-2.3-1.236-3.039-2.131l-.146-.176a2.047,2.047,0,0,0-1.67-.635.321.321,0,0,1,.019-.642,2.7,2.7,0,0,1,2.145.866l.147.177c1.2,1.448,2.228,2.478,3.552,1.525a2.212,2.212,0,0,0,.189-2.788.321.321,0,1,1,.538-.35,2.816,2.816,0,0,1-.351,3.658,2.336,2.336,0,0,1-1.381.5" transform="translate(-33.977 -114.786)" fill="#f8a8a0"/>
      <path id="Path_9712" data-name="Path 9712" d="M55.944,205a2.043,2.043,0,0,1-.952-.215.321.321,0,1,1,.3-.568,1.875,1.875,0,0,0,1.485-.025,1.652,1.652,0,0,0,1-.937.321.321,0,0,1,.61.2,2.284,2.284,0,0,1-1.371,1.331,2.91,2.91,0,0,1-1.073.213" transform="translate(-38.251 -114.156)" fill="#f8a8a0"/>
      <path id="Path_9713" data-name="Path 9713" d="M52.063,210.891h-.027a.321.321,0,0,1-.293-.348c.113-1.361.741-2.8,1.371-3.151a.322.322,0,0,1,.311.563,4.165,4.165,0,0,0-1.042,2.643.32.32,0,0,1-.319.294" transform="translate(-37.412 -115.332)" fill="#f8a8a0"/>
      <path id="Path_9714" data-name="Path 9714" d="M178.661,385.73l-18.65-50.461c21.03-19.091,2.126-62.538,2.126-62.538l-11.965-7.082-9.39,12.536L129.59,266.408l-26.7,5.422s-6.794,33.049,7.418,59.633l.205.717c-.922,2.2-.077,3.191-.077,3.191l-12.091,38.4a171.555,171.555,0,0,0,24.527,9.6c10.372,3.554,21.14,6.429,25.919,5.1,19.286,1.625,29.869-2.737,29.869-2.737" transform="translate(-50.113 -131.219)" fill="#3b7b9a"/>
      <path id="Path_9715" data-name="Path 9715" d="M185.772,309.087l.185.458a76.125,76.125,0,0,0,5.209,10.394c-.333-14.215.211-19.278.211-19.278a25.5,25.5,0,0,1-5.605,8.426" transform="translate(-73.938 -140.761)" fill="#13637e"/>
      <path id="Path_9716" data-name="Path 9716" d="M143.145,366.587a64.6,64.6,0,0,1-29.729-7.285,2.047,2.047,0,0,1,2.032-3.554c.226.127,22.888,12.755,47.731,2.962a2.047,2.047,0,1,1,1.5,3.808,58.369,58.369,0,0,1-21.535,4.069" transform="translate(-53.939 -155.7)" fill="#13637e"/>
      <path id="Path_9717" data-name="Path 9717" d="M180.558,382.642a2.049,2.049,0,0,1-1.9-1.282L172.2,365.343a2.047,2.047,0,0,1,3.8-1.532l6.46,16.018a2.047,2.047,0,0,1-1.133,2.664,2.025,2.025,0,0,1-.765.149" transform="translate(-70.199 -157.622)" fill="#13637e"/>
      <path id="Path_9718" data-name="Path 9718" d="M171.815,379.839a2.16,2.16,0,0,1-.332-.027,2.047,2.047,0,0,1-1.69-2.351l2.166-13.259a2.047,2.047,0,1,1,4.04.661l-2.166,13.26a2.047,2.047,0,0,1-2.017,1.717" transform="translate(-69.576 -157.61)" fill="#13637e"/>
      <path id="Path_9719" data-name="Path 9719" d="M171.778,362.294l1.413-.135a.526.526,0,0,0,.4-.238l.653-1.083a.571.571,0,0,1,.949.028l.607,1.12a.538.538,0,0,0,.394.261l1.405.218a.444.444,0,0,1,.277.786l-1.038.827a.417.417,0,0,0-.161.4l.215,1.217c.066.375-.394.645-.778.458l-1.249-.608a.606.606,0,0,0-.493-.015l-1.272.535c-.392.164-.84-.133-.758-.5l.266-1.2a.422.422,0,0,0-.143-.408l-1-.887a.441.441,0,0,1,.31-.77" transform="translate(-69.998 -157.095)" fill="#e1b309" fill-rule="evenodd"/>
      <path id="Path_9720" data-name="Path 9720" d="M176.308,366.342a.8.8,0,0,1-.354-.081l-1.248-.608a.4.4,0,0,0-.324-.009l-1.273.535a.8.8,0,0,1-.815-.119.621.621,0,0,1-.222-.618l.266-1.2a.216.216,0,0,0-.08-.211l-1-.887a.619.619,0,0,1-.192-.662.7.7,0,0,1,.618-.465l1.413-.135a.318.318,0,0,0,.248-.14l.654-1.082a.735.735,0,0,1,.637-.34h.019a.749.749,0,0,1,.649.376l.607,1.119a.337.337,0,0,0,.244.156l1.406.218a.717.717,0,0,1,.6.5.607.607,0,0,1-.224.645l-1.038.826a.214.214,0,0,0-.087.2l.215,1.217a.617.617,0,0,1-.249.606.777.777,0,0,1-.467.153m-1.777-1.138a.816.816,0,0,1,.354.081l1.249.608a.382.382,0,0,0,.4-.031.213.213,0,0,0,.092-.207l-.215-1.218a.617.617,0,0,1,.234-.594l1.038-.827a.206.206,0,0,0,.084-.22.3.3,0,0,0-.264-.2l-1.406-.218a.735.735,0,0,1-.541-.367l-.607-1.119a.344.344,0,0,0-.3-.161.348.348,0,0,0-.3.142l-.654,1.082a.729.729,0,0,1-.559.336l-1.413.136a.291.291,0,0,0-.268.183.208.208,0,0,0,.075.228l1,.887a.624.624,0,0,1,.207.607l-.266,1.2a.22.22,0,0,0,.085.216.385.385,0,0,0,.394.055l1.272-.535a.8.8,0,0,1,.308-.061" transform="translate(-69.922 -157.019)" fill="#e9ba18"/>
      <path id="Path_9721" data-name="Path 9721" d="M184.605,268.037a272.436,272.436,0,0,1-27.926,9.928l2.889-3.338,18.557-9.786Z" transform="translate(-66.01 -130.999)" fill="#276886"/>
      <path id="Path_9722" data-name="Path 9722" d="M164.271,263.069l-7.609,13.974,27.27-11.985s-16.142-6.878-19.661-1.989" transform="translate(-66.005 -130.038)" fill="#e1b309"/>
      <path id="Path_9723" data-name="Path 9723" d="M156.741,278l25.516-12.541c-.18-.068-.371-.139-.573-.214l-24.638,12.142Z" transform="translate(-66.027 -131.109)" fill="#f3d273"/>
      <path id="Path_9724" data-name="Path 9724" d="M111.234,269.184c6.867,2.238,22.627,6.695,33.1,8.837l-3.108-3.134-23.744-9.331Z" transform="translate(-53.625 -131.194)" fill="#276886"/>
      <path id="Path_9725" data-name="Path 9725" d="M131.443,262.61l13.105,14.251-32.586-10.935s15.638-7.956,19.48-3.317" transform="translate(-53.824 -129.995)" fill="#e1b309"/>
      <path id="Path_9726" data-name="Path 9726" d="M145.1,278.147,114.227,266.54c.174-.08.36-.164.557-.252l29.971,11.268Z" transform="translate(-54.441 -131.394)" fill="#f3d273"/>
    </g>
  </g>
  <g id="Group_3074" data-name="Group 3074" transform="translate(78.684 175.434)">
    <g id="Group_3073" data-name="Group 3073" clip-path="url(#clip-path-5)">
      <path id="Path_9728" data-name="Path 9728" d="M136.526,255.028a10.877,10.877,0,0,0,.623-2.3c1.018-3.842.787-10.767.787-10.767s20.288-.81,20.329-.81c-.352.017-.264,5.111-.291,5.339-.164,1.78-1.85,3.225-3.042,4.438-2.144,2.182-4.47,4.711-7.43,5.721a12.755,12.755,0,0,1-9.651-.5c-.464-.223-.722-.663-1.328-1.116Z" transform="translate(-115.89 -241.154)" fill="#f8a8a0" fill-rule="evenodd"/>
    </g>
  </g>
  <g id="Group_3076" data-name="Group 3076" transform="translate(23.311 58.824)">
    <g id="Group_3075" data-name="Group 3075" clip-path="url(#clip-path-2)">
      <path id="Path_9730" data-name="Path 9730" d="M175.094,215.6s2.314-2.126,3.753-1.886,3.019,3.492,2.643,5.827-3.736,10.308-8.288,6.843,1.891-10.79,1.891-10.79Z" transform="translate(-70.069 -117.062)" fill="#fcd1c8" fill-rule="evenodd"/>
      <path id="Path_9731" data-name="Path 9731" d="M173.572,218.8a.537.537,0,0,0-.153.611.291.291,0,0,0,.389.135.284.284,0,0,0,.047-.029s.752,7.342,1.915,6.291a8.782,8.782,0,0,0,2.954-3.856c.587-1.8-.922-3.613-.291-4.047.6-.417,1.145.34,1.2.417a4.739,4.739,0,0,1,.593,1.41.29.29,0,0,0,.441.206.558.558,0,0,0,.264-.575c0-.006-.623-2.82-2.649-2.878-1.932-.059-4.7,2.308-4.7,2.32Z" transform="translate(-70.561 -117.821)" fill="#f8a8a0" fill-rule="evenodd"/>
      <path id="Path_9732" data-name="Path 9732" d="M115.4,210.39s-2-2.42-3.466-2.373-3.466,3.049-3.407,5.415,2.308,10.72,7.289,7.906S115.4,210.4,115.4,210.4Z" transform="translate(-52.886 -115.513)" fill="#f8a8a0" fill-rule="evenodd"/>
      <path id="Path_9733" data-name="Path 9733" d="M137.916,170.882c29.628,2.631,23.554,25.389,19.56,43.813-1.539,7.084-7.014,13.445-12.67,17.774-3.231,2.473-7.184,4.219-11.248,4.047a17.309,17.309,0,0,1-10.491-4.641c-5.78-5.1-10.432-12.752-10.948-20.547-1.237-18.808-3.888-42.215,25.8-40.453Z" transform="translate(-53.684 -105.366)" fill="#fcd1c8" fill-rule="evenodd"/>
      <path id="Path_9734" data-name="Path 9734" d="M160.841,195.34a66.076,66.076,0,0,1-1.445,13.386c-2.32,2.062-8.22-4.5-9.539-6.133-2.39-2.972-4.365-6.285-6.984-9.057a9.041,9.041,0,0,0-4.311-2.849,36.143,36.143,0,0,1-9.028,10.985,23.322,23.322,0,0,1-14.6,5.228,12.455,12.455,0,0,1-3.325-.436,71.655,71.655,0,0,1,.4-14.232,33.816,33.816,0,0,1,3.56-4.6c-.346.2,34.82-2.033,23.213-5.327.863.247,13.434,7.818,22.062,13.046Z" transform="translate(-53.677 -108.505)" fill="#f8a8a0" fill-rule="evenodd"/>
      <path id="Path_9735" data-name="Path 9735" d="M179.051,213.8s-2.385,1.322-3.492,6.426a11.705,11.705,0,0,1-1.6-8.657c1.1-4.846,5.1,2.226,5.1,2.226Z" transform="translate(-70.653 -116.02)" fill="#684e46" fill-rule="evenodd"/>
      <path id="Path_9736" data-name="Path 9736" d="M148.4,207.595a2.988,2.988,0,0,1-1.5.088,2.649,2.649,0,0,1-1.568-1.316c-.012-.229.447.082,1.7-.6,1.228-.669,5.9-2.5,9.9-.029.687.428.323.869-.453.758a11.376,11.376,0,0,0-8.065,1.091Z" transform="translate(-62.916 -114.551)" fill="#684e46" fill-rule="evenodd"/>
      <path id="Path_9737" data-name="Path 9737" d="M125.387,208.478a2.785,2.785,0,0,0,1.48.1,2.5,2.5,0,0,0,1.469-1.392c0-.247-.436.088-1.7-.64-1.237-.711-5.933-2.667-9.721-.047-.655.452-.27.928.487.8a10.625,10.625,0,0,1,7.988,1.176" transform="translate(-55.081 -114.739)" fill="#684e46" fill-rule="evenodd"/>
      <path id="Path_9738" data-name="Path 9738" d="M157.932,217.419s.917-.235,1.421-2.014c.5-1.75-9.381-5.644-11.812,1.433,0,0,7.618-1.128,10.391.581" transform="translate(-63.519 -116.803)" fill="#f7b889" fill-rule="evenodd"/>
      <path id="Path_9739" data-name="Path 9739" d="M149.9,218.972a2.134,2.134,0,0,1-1.368-.023,2.888,2.888,0,0,1-1.351-1.651c0-.27.405.13,1.574-.552a8.291,8.291,0,0,1,7.236-.4,1.438,1.438,0,0,0,.64-1.063.464.464,0,0,1,.493-.433l.041,0a.547.547,0,0,1,.436.587,2.358,2.358,0,0,1-.655,1.451l.073.053a.7.7,0,0,0,.452-.329.465.465,0,0,1,.643-.14.256.256,0,0,1,.033.023.547.547,0,0,1,.146.722,1.953,1.953,0,0,1-.4.458c.4.487.047.873-.594.7a8.334,8.334,0,0,0-7.395.587Z" transform="translate(-63.421 -117.375)" fill="#684e46" fill-rule="evenodd"/>
      <path id="Path_9740" data-name="Path 9740" d="M117.729,218.133s-.8-.223-1.257-1.926c-.447-1.68,8.212-5.474,10.379,1.322,0,0-6.693-1.045-9.122.611Z" transform="translate(-55.048 -117.042)" fill="#f7b889" fill-rule="evenodd"/>
      <path id="Path_9741" data-name="Path 9741" d="M125.005,219.6a1.72,1.72,0,0,0,1.2-.029,2.756,2.756,0,0,0,1.181-1.592c0-.258-.352.129-1.387-.523a6.722,6.722,0,0,0-6.355-.346,1.373,1.373,0,0,1-.564-1.018.41.41,0,0,0-.41-.41.423.423,0,0,0-.06,0,.522.522,0,0,0-.382.57,2.353,2.353,0,0,0,.587,1.392l-.065.053a.641.641,0,0,1-.4-.311.385.385,0,0,0-.521-.16.349.349,0,0,0-.072.049.565.565,0,0,0-.124.7,1.823,1.823,0,0,0,.352.441c-.352.47-.035.84.523.663a6.75,6.75,0,0,1,6.5.535Z" transform="translate(-55.351 -117.601)" fill="#684e46" fill-rule="evenodd"/>
      <path id="Path_9742" data-name="Path 9742" d="M134.685,220.128a.509.509,0,0,1,.645-.321l.01,0a.52.52,0,0,1,.323.655,39.128,39.128,0,0,1-1.926,4.041,11.713,11.713,0,0,0-.84,1.9c-.241.893,1.774,1.609,2.467,1.819.124.035.252.073.382.1a1.616,1.616,0,0,1,.5.17.509.509,0,0,1-.335.922,7.65,7.65,0,0,1-3.424-1.727,1.94,1.94,0,0,1-.552-.517c-.3-.493.182-1.333.382-1.815.276-.676.582-1.345.893-2.009.493-1.069,1.063-2.121,1.486-3.219Z" transform="translate(-59.24 -118.719)" fill="#f8a8a0" fill-rule="evenodd"/>
      <path id="Path_9743" data-name="Path 9743" d="M108.695,207.336a13.34,13.34,0,0,1,2.214,6.538c.241,3.871.34,5.327.34,5.327a10.427,10.427,0,0,0,2.966-5.216c.575-3.066,1.345-4.84,2.608-5.809s-5.529-4.059-8.13-.846Z" transform="translate(-52.933 -114.938)" fill="#684e46" fill-rule="evenodd"/>
      <path id="Path_9744" data-name="Path 9744" d="M135.676,182.83s-8.282,17.1-26.244,17.228c0,0-9.133-1.528-4.958-10.33,2.279-7.342,5.363-19.83,9.234-24.894s14.432-10.214,20.211-4.723c0,0,6.949-6.567,16.732.3s12.711,20.488,13.686,26.174c.423,2.467-.105,8.071-.834,12.465-.946,1.915-7.448.64-7.448.64-12.135-2.631-7.207-14.385-20.388-16.864Z" transform="translate(-51.485 -101.686)" fill="#684e46" fill-rule="evenodd"/>
      <path id="Path_9745" data-name="Path 9745" d="M141.732,159.652a.546.546,0,0,1-.053-1.088c.011,0,1.6-.212,3.794-2.377,2.6-2.57,6.957-1.1,7.14-1.038a.546.546,0,0,1-.356,1.032c-.039-.012-3.9-1.308-6.017.783-2.5,2.469-4.375,2.679-4.454,2.687a.44.44,0,0,1-.054,0" transform="translate(-61.788 -100.976)" fill="#231815"/>
      <path id="Path_9746" data-name="Path 9746" d="M105.513,188.232c2.226-7.442,5.157-18.655,8.776-23.384,3.871-5.063,14.432-10.214,20.211-4.723,0,0,6.949-6.567,16.732.3,9.181,6.443,12.323,18.831,13.486,25.034,0,0-2.079,9.486-10.931,4.593-8.476-4.681-10.608-9.7-20.1-10.073-2.121-.082-2.22.669-.212,1.492,0,0-8.366,14.926-27.966,6.755Z" transform="translate(-52.065 -101.69)" fill="#7f5a50" fill-rule="evenodd"/>
      <path id="Path_9747" data-name="Path 9747" d="M173.2,174.427a47.181,47.181,0,0,1,4.135,10.33c-5.827,5.369-15.753,1.237-21.017-4.969,11.072,3.29,15.289-1.539,16.887-5.363Z" transform="translate(-65.911 -106.359)" fill="#936e65" fill-rule="evenodd"/>
      <path id="Path_9748" data-name="Path 9748" d="M145.368,160.125a12.152,12.152,0,0,1,8.023-2.831c2.849,7.524-5.6,13.833-5.6,13.833a13.822,13.822,0,0,0-2.415-11Z" transform="translate(-62.927 -101.689)" fill="#684e46" fill-rule="evenodd"/>
      <path id="Path_9749" data-name="Path 9749" d="M130.611,238.207a15.454,15.454,0,0,0,6.156.059,15.794,15.794,0,0,0,5.9-1.964.582.582,0,0,1,.8.159.56.56,0,0,1,.094.394c-.428,3.442-1.5,5.933-2.91,7.413a5.046,5.046,0,0,1-2.925,1.6,4.875,4.875,0,0,1-3.237-.74c-1.686-1.018-3.319-3.049-4.583-6.144a.582.582,0,0,1,.317-.758.574.574,0,0,1,.382-.017Z" transform="translate(-58.702 -123.195)" fill="#684e46" fill-rule="evenodd"/>
      <path id="Path_9750" data-name="Path 9750" d="M131.416,238.3a16.433,16.433,0,0,0,5.768-.047,15.793,15.793,0,0,0,5.9-1.964.582.582,0,0,1,.8.159.559.559,0,0,1,.094.394c-.035.282-.073.552-.117.816-3.941,2.807-10.126,2.784-11.307,2.268a2.087,2.087,0,0,1-1.139-1.627Z" transform="translate(-59.125 -123.193)" fill="#fff" fill-rule="evenodd"/>
      <path id="Path_9751" data-name="Path 9751" d="M143.757,243.7a9.067,9.067,0,0,1-1.668,2.608,5.046,5.046,0,0,1-2.925,1.6,4.875,4.875,0,0,1-3.237-.74,7.711,7.711,0,0,1-.8-.564,4.487,4.487,0,0,1,4.235-.887,6.129,6.129,0,0,1,4.4-2.014Z" transform="translate(-60.135 -125.236)" fill="#f68b85" fill-rule="evenodd"/>
      <path id="Path_9752" data-name="Path 9752" d="M138.549,251.854a.527.527,0,0,1,.229-1.028,5.7,5.7,0,0,0,4.292-1.128.525.525,0,1,1,.623.846,6.867,6.867,0,0,1-5.151,1.309Z" transform="translate(-60.959 -126.845)" fill="#f8a8a0" fill-rule="evenodd"/>
      <path id="Path_9753" data-name="Path 9753" d="M137.651,146.3c.575-1.53,4.129-1.609,7.936-.177s6.427,3.835,5.852,5.364-4.129,1.609-7.937.177-6.427-3.835-5.851-5.364" transform="translate(-60.803 -98.367)" fill="#231815"/>
      <path id="Path_9754" data-name="Path 9754" d="M161.136,148.783c4.033-.212,7.373.949,7.46,2.595s-3.112,3.152-7.145,3.365-7.373-.949-7.46-2.595,3.112-3.153,7.145-3.365" transform="translate(-65.277 -99.364)" fill="#231815"/>
      <path id="Path_9755" data-name="Path 9755" d="M166.687,163.982a.54.54,0,0,1-.259-.066c-.069-.039-1.719-.965-3.057-4.213-1.139-2.762-5.2-3.068-5.236-3.071a.545.545,0,0,1,.074-1.088c.194.013,4.777.362,6.17,3.744,1.174,2.849,2.561,3.665,2.575,3.673a.547.547,0,0,1-.268,1.022" transform="translate(-66.268 -101.212)" fill="#231815"/>
      <path id="Path_9756" data-name="Path 9756" d="M178.02,229.6a1.792,1.792,0,1,1-1.792,1.792,1.792,1.792,0,0,1,1.792-1.792" transform="translate(-71.337 -121.395)" fill="#fff"/>
      <path id="Path_9757" data-name="Path 9757" d="M178.086,230.1a.364.364,0,1,1-.364.364.364.364,0,0,1,.364-.364" transform="translate(-71.745 -121.532)" fill="#fffecc"/>
      <path id="Path_9758" data-name="Path 9758" d="M147.366,174.781s-60.092-17.334-82.046-8.14c0,0,51.728,34.234,98.251,22.9l-.421-2.84a.38.38,0,0,1,.665-.3l2.158,2.515c.481-.134.96-.28,1.44-.424l-.533-1.531a.248.248,0,0,1,.389-.276l1.676,1.337c45.97-14.578-21.579-13.243-21.579-13.243" transform="translate(-41.112 -103.505)" fill="#3b7b9a"/>
      <path id="Path_9759" data-name="Path 9759" d="M116.452,152.645s21.887-53.112,41.42-38.68,3.009,7.985,3.009,7.985l6.434,40.3s-44.9,17.99-50.862-9.6" transform="translate(-55.047 -89.204)" fill="#3b7b9a"/>
      <rect id="Rectangle_2073" data-name="Rectangle 2073" width="10.863" height="2.208" transform="translate(82.901 74.359) rotate(-57.551)" fill="#13637e"/>
      <path id="Path_9760" data-name="Path 9760" d="M177.833,175.481l-.282-.162c1.995-3.48,8.126-5.262,8.386-5.336l.089.313c-.063.017-6.265,1.819-8.193,5.185" transform="translate(-71.698 -105.148)" fill="#fff"/>
      <path id="Path_9761" data-name="Path 9761" d="M188.743,166.853l.482.807a.351.351,0,0,0,.277.17l.938.06a.349.349,0,0,1,.24.579l-.618.706a.351.351,0,0,0-.076.316l.232.912a.349.349,0,0,1-.476.407l-.864-.37a.344.344,0,0,0-.324.025l-.794.5a.349.349,0,0,1-.535-.326l.084-.936a.346.346,0,0,0-.124-.3l-.723-.6a.349.349,0,0,1,.145-.609l.917-.208a.353.353,0,0,0,.247-.212l.348-.873a.349.349,0,0,1,.624-.05" transform="translate(-74.092 -104.249)" fill="#f2e65c" fill-rule="evenodd"/>
      <path id="Path_9762" data-name="Path 9762" d="M187.5,171.142a.542.542,0,0,1-.538-.589l.085-.936a.162.162,0,0,0-.057-.137l-.722-.6a.539.539,0,0,1,.225-.941l.916-.209a.157.157,0,0,0,.113-.1l.348-.874a.539.539,0,0,1,.964-.076l.482.807a.157.157,0,0,0,.125.077l.939.061a.539.539,0,0,1,.371.893l-.619.708a.16.16,0,0,0-.034.144l.232.911a.539.539,0,0,1-.735.629l-.864-.369a.161.161,0,0,0-.148.012l-.794.5a.537.537,0,0,1-.288.084m.87-4.341h-.013a.152.152,0,0,0-.135.1l-.348.873a.541.541,0,0,1-.381.327l-.917.209a.159.159,0,0,0-.066.277l.723.6a.543.543,0,0,1,.193.464l-.085.936a.156.156,0,0,0,.076.151.15.15,0,0,0,.168,0l.794-.5a.543.543,0,0,1,.5-.04l.864.37a.159.159,0,0,0,.217-.186l-.233-.911a.54.54,0,0,1,.117-.488l.618-.708a.159.159,0,0,0-.109-.263l-.938-.061a.534.534,0,0,1-.428-.261l-.482-.808a.154.154,0,0,0-.136-.077" transform="translate(-74.021 -104.177)" fill="#fff"/>
      <path id="Path_9763" data-name="Path 9763" d="M178.108,174.712c-.207-2.9,2.753-6.437,2.879-6.587l.249.21c-.031.036-3,3.587-2.8,6.354Z" transform="translate(-71.847 -104.642)" fill="#fff"/>
      <path id="Path_9764" data-name="Path 9764" d="M180.505,165.491l.817.386a.334.334,0,0,0,.312-.013l.781-.455a.336.336,0,0,1,.5.333l-.114.9a.335.335,0,0,0,.109.292l.673.6a.335.335,0,0,1-.161.58l-.888.169a.331.331,0,0,0-.244.194l-.365.826a.335.335,0,0,1-.6.025l-.434-.792a.334.334,0,0,0-.26-.172l-.9-.091a.336.336,0,0,1-.21-.564l.619-.658a.337.337,0,0,0,.084-.3l-.191-.882a.336.336,0,0,1,.471-.375" transform="translate(-72.21 -103.889)" fill="#f2e65c" fill-rule="evenodd"/>
      <path id="Path_9765" data-name="Path 9765" d="M181.547,169.621a.522.522,0,0,1-.46-.273l-.434-.792a.145.145,0,0,0-.113-.076l-.9-.092a.526.526,0,0,1-.33-.883l.619-.658a.145.145,0,0,0,.036-.13l-.191-.882a.526.526,0,0,1,.738-.586l.816.385a.145.145,0,0,0,.136-.006l.78-.454a.526.526,0,0,1,.786.522l-.114.9a.143.143,0,0,0,.047.125l.674.6a.526.526,0,0,1-.252.908l-.888.168a.147.147,0,0,0-.106.084l-.364.826a.523.523,0,0,1-.459.314h-.023m-1.257-4.043a.142.142,0,0,0-.089.033.14.14,0,0,0-.052.144l.191.882a.526.526,0,0,1-.132.472l-.619.658a.146.146,0,0,0,.092.244l.9.092a.524.524,0,0,1,.408.271l.434.791a.146.146,0,0,0,.261-.012l.364-.826a.526.526,0,0,1,.383-.3l.888-.168a.142.142,0,0,0,.113-.1.14.14,0,0,0-.043-.147l-.673-.6a.522.522,0,0,1-.171-.458l.114-.9a.143.143,0,0,0-.064-.14.14.14,0,0,0-.154,0l-.781.454a.526.526,0,0,1-.49.021l-.816-.385a.143.143,0,0,0-.063-.015" transform="translate(-72.139 -103.818)" fill="#fff"/>
      <path id="Path_9766" data-name="Path 9766" d="M152.915,176.424c-25.291,0-36.5-9.274-37.036-9.731a2.282,2.282,0,0,1,2.956-3.478c.219.182,14.4,11.617,46.811,7.886a2.282,2.282,0,0,1,.521,4.535,116.125,116.125,0,0,1-13.251.788" transform="translate(-54.672 -103.156)" fill="#e1b309"/>
      <path id="Path_9767" data-name="Path 9767" d="M148.831,181.67a6.525,6.525,0,1,1,5.722-3.369,6.491,6.491,0,0,1-5.722,3.369m.018-10.841a4.315,4.315,0,1,0,2.081.537,4.32,4.32,0,0,0-2.081-.537" transform="translate(-62.095 -104.777)" fill="#13637e"/>
      <path id="Path_9768" data-name="Path 9768" d="M57.349,146.31a.576.576,0,0,1-.136-1.136,36.366,36.366,0,0,0,3.533-1.1c.229-.087.687-.3,1.05-.461l.421-.191a.576.576,0,0,1,.463,1.056l-.407.184c-.386.176-.874.4-1.117.489a37.045,37.045,0,0,1-3.669,1.142.6.6,0,0,1-.137.016" transform="translate(-38.783 -97.897)" fill="#fffee6"/>
      <path id="Path_9769" data-name="Path 9769" d="M64.886,156.061a.6.6,0,0,1-.08-.005c-5.071-.707-12.773-3.949-12.615-6.809.077-1.4,1.363-2.571,3.72-3.39a.576.576,0,1,1,.378,1.088c-1.825.635-2.9,1.5-2.948,2.366-.088,1.6,6.019,4.822,11.623,5.6a.576.576,0,0,1-.079,1.147" transform="translate(-37.534 -98.564)" fill="#fffee6"/>
      <path id="Path_9770" data-name="Path 9770" d="M61.909,142.2a.576.576,0,0,1-.28-1.08c1.248-.691,1.926-1.444,1.862-2.065-.119-1.161-4-2.866-8.576-2.782a.576.576,0,0,1-.022-1.152c4.4-.088,9.51,1.528,9.745,3.816.082.792-.277,1.988-2.45,3.191a.569.569,0,0,1-.279.072" transform="translate(-38.117 -95.646)" fill="#fffee6"/>
      <path id="Path_9771" data-name="Path 9771" d="M60.088,168.014q-.828,0-1.691-.041a31.24,31.24,0,0,1-5.831-.81c-4.4-1.073-6.963-2.923-6.867-4.95a.565.565,0,0,1,.6-.548.577.577,0,0,1,.549.6c-.065,1.366,2.342,2.884,5.989,3.774a30.217,30.217,0,0,0,5.612.779c6.948.332,11.891-1.547,11.98-3.434.087-1.838-3.046-3.443-7.983-4.092a.576.576,0,0,1,.15-1.143c5.833.767,9.107,2.694,8.984,5.289-.128,2.705-4.958,4.572-11.5,4.572" transform="translate(-35.764 -101.923)" fill="#fffee6"/>
      <path id="Path_9772" data-name="Path 9772" d="M73.394,146.848l-.242.457a.193.193,0,0,1-.148.1l-.514.06a.192.192,0,0,0-.116.324l.36.371a.189.189,0,0,1,.05.172l-.1.507a.192.192,0,0,0,.273.21l.464-.228a.19.19,0,0,1,.179.005l.451.253a.192.192,0,0,0,.284-.195l-.073-.512a.19.19,0,0,1,.06-.168l.38-.351a.192.192,0,0,0-.1-.33l-.509-.089a.192.192,0,0,1-.142-.109l-.216-.47a.192.192,0,0,0-.344-.009" transform="translate(-43.02 -98.815)" fill="#ffe67b" fill-rule="evenodd"/>
      <path id="Path_9773" data-name="Path 9773" d="M47.941,135.916l.243.369a.164.164,0,0,1,.015.152l-.167.41a.164.164,0,0,0,.2.22l.426-.117a.167.167,0,0,1,.149.033l.338.285a.164.164,0,0,0,.269-.119l.02-.441a.165.165,0,0,1,.077-.132l.375-.234a.164.164,0,0,0-.028-.293l-.414-.156a.165.165,0,0,1-.1-.114l-.106-.428a.164.164,0,0,0-.287-.063l-.276.345a.163.163,0,0,1-.14.061l-.44-.031a.164.164,0,0,0-.149.254" transform="translate(-36.368 -95.676)" fill="#ffe67b" fill-rule="evenodd"/>
      <path id="Path_9774" data-name="Path 9774" d="M47.219,170.654l-.242.457a.193.193,0,0,1-.148.1l-.514.06a.192.192,0,0,0-.116.324l.36.371a.189.189,0,0,1,.05.172l-.1.507a.192.192,0,0,0,.273.21l.464-.228a.192.192,0,0,1,.179,0l.451.254a.192.192,0,0,0,.284-.195l-.073-.512a.19.19,0,0,1,.06-.168l.38-.351a.192.192,0,0,0-.1-.33l-.509-.089a.192.192,0,0,1-.142-.109l-.216-.47a.192.192,0,0,0-.344-.009" transform="translate(-35.887 -105.303)" fill="#ffe67b" fill-rule="evenodd"/>
    </g>
  </g>
  <g id="Group_3078" data-name="Group 3078">
    <g id="Group_3077" data-name="Group 3077" clip-path="url(#clip-path)">
      <rect id="Rectangle_2074" data-name="Rectangle 2074" width="15.696" height="2.201" transform="translate(45.306 38.855)" fill="#684e46"/>
      <path id="Path_9776" data-name="Path 9776" d="M91.234,55.512H85.825v-2.03h5.409Zm-.375-6.892H86.167V46.658h4.691Zm5.664,2.729c.717,3.258,2.2,5.8,5.119,6.893a7.375,7.375,0,0,0-1.348,1.808,8.532,8.532,0,0,1-4.487-4.845,9.342,9.342,0,0,1-4.982,5.016,8.31,8.31,0,0,0-1.536-1.672c4.573-2.1,5.05-5.426,5.05-7.626V49.353h2.184v2Zm-2.986-2.44a16.053,16.053,0,0,1-1.859,3.549,14.667,14.667,0,0,0-2.03-1.177,15.214,15.214,0,0,0,2.917-7.063l2.252.375c-.171.786-.359,1.553-.58,2.3h5.135l.392-.119,1.485.871a28.078,28.078,0,0,1-1.774,4.947,15.029,15.029,0,0,0-1.741-.835,21.605,21.605,0,0,0,1.007-2.85Z" transform="translate(-23.389 -12.05)" fill="#684e46"/>
      <path id="Path_9777" data-name="Path 9777" d="M124.8,57.363v2.065H109.325V57.363h8.36a43.194,43.194,0,0,0,2.2-7.592l2.3.443a70.683,70.683,0,0,1-2.3,7.149Zm-.717-8.138h-13.99V47.178h6.193a24.27,24.27,0,0,0-.818-2.73l2.03-.512a22.2,22.2,0,0,1,.921,2.713l-1.825.53h7.489Zm-10.458,7.729a48.675,48.675,0,0,0-1.416-6.74l2.048-.494a56.762,56.762,0,0,1,1.552,6.671Z" transform="translate(-29.794 -11.974)" fill="#684e46"/>
      <path id="Path_9778" data-name="Path 9778" d="M138.868,54.221a33.629,33.629,0,0,1,2.354,4.454l-1.894,1.006a11.572,11.572,0,0,0-.6-1.467c-4.009,1.262-4.691,1.536-5.169,1.859a7.361,7.361,0,0,0-.785-2.064,1.28,1.28,0,0,0,.785-1.195V45.367h7.183v8.428h-5.1v3.361l2.269-.648c-.273-.5-.546-.989-.8-1.434Zm-3.225-5.6h3.071V47.175h-3.071Zm3.071,1.808h-3.071v1.553h3.071Zm9.093,4.863c0,.921-.154,1.45-.734,1.791a4.98,4.98,0,0,1-2.422.342,7.18,7.18,0,0,0-.563-1.911,13.949,13.949,0,0,0,1.433.017c.205,0,.29-.068.29-.29v-7.9h-2.065v13.1H141.7V45.486h6.108Z" transform="translate(-36.185 -12.364)" fill="#684e46"/>
      <path id="Path_9779" data-name="Path 9779" d="M161.768,53.311l-1.843.512V58c0,.973-.17,1.467-.733,1.758a5.386,5.386,0,0,1-2.559.375,6.954,6.954,0,0,0-.563-1.842c.665.034,1.348.034,1.57.034.239,0,.324-.085.324-.324V54.369c-.648.17-1.245.307-1.809.46l-.512-1.928c.666-.136,1.468-.324,2.321-.53V49.3h-2.047V47.408h2.047v-3.19h1.962v3.19h1.638V49.3h-1.638v2.577l1.587-.41Zm9.656-5.324V59.982h-2.013V58.873H163.9V60.1h-1.945V47.988h3.685v-3.77h1.911v3.77Zm-7.524,4.4h1.74V49.916H163.9Zm0,4.538h1.74V54.283H163.9Zm3.651-4.538h1.859V49.916h-1.859Zm1.859,1.894h-1.859v2.644h1.859Z" transform="translate(-42.417 -12.05)" fill="#684e46"/>
      <path id="Path_9780" data-name="Path 9780" d="M190.227,56.64c1.825.614,3.89,1.365,5.1,1.894l-.921,1.587a71.337,71.337,0,0,0-6.654-2.627l.529-.853h-.513c-.8,1.432-2.8,2.832-7.336,3.565a9.985,9.985,0,0,0-1.125-1.638c3.071-.46,4.812-1.16,5.783-1.928h-5.7V54.968h6.842a4.1,4.1,0,0,0,.034-.461V53.381h2.014v1.195a2.962,2.962,0,0,1-.017.393h2.969a11.989,11.989,0,0,0-1.126-.853l.615-.581h-.65a5.871,5.871,0,0,0-.494-1.467c.546.033,1.178.033,1.365.033.187-.017.239-.068.239-.239v-.989h-2.832a6.182,6.182,0,0,1,1.126,1.024L188.145,52.9a7.309,7.309,0,0,0-1.672-1.5l.7-.529h-1.689V49.56h.665a4.511,4.511,0,0,0-.665-.955,16.291,16.291,0,0,0,4.265-.956,11.74,11.74,0,0,0-1.4-1.331c-.563.2-1.177.41-1.843.6a4.581,4.581,0,0,0-1.006-1.144,11.809,11.809,0,0,0,4.487-1.672l1.655.341c-.239.2-.478.392-.733.581h2.372l.324-.052,1.041.529a7.061,7.061,0,0,1-3.4,2.969h1.859V49.56h1.928v1.314H193.11v1.058c0,.8-.154,1.16-.717,1.4a3.113,3.113,0,0,1-.9.188,8.419,8.419,0,0,1,1.331,1.058l-.393.393h2.833V56.64Zm-8-5.852A4.658,4.658,0,0,1,180.86,54.2a7.787,7.787,0,0,0-1.535-.87,3.358,3.358,0,0,0,1.126-2.542H179.5v-1.57h3.634v-.938h-2.969V44.595h1.689v2.15h1.28V44.2h1.843v9.725h-1.843V50.788Zm6.364-2.935c-.836.085-1.621.17-2.388.255l-.171-1.024c.717-.051,1.552-.119,2.543-.188Zm2.593,1.706V48.5a15.483,15.483,0,0,1-3.549,1.058Zm-1.28-3.446c.375.307.733.665,1.058.989a5.885,5.885,0,0,0,1.3-.989Z" transform="translate(-48.866 -12.018)" fill="#684e46"/>
      <path id="Path_9781" data-name="Path 9781" d="M206.856,53.852a15.4,15.4,0,0,0-.7-1.655v7.916h-1.74V53.561a16.017,16.017,0,0,1-1.16,3.02,11.919,11.919,0,0,0-.8-2,16.737,16.737,0,0,0,1.859-5.34h-1.4V47.368h1.5V44.195h1.74v3.173h1.16v1.876h-1.16V50c.375.512,1.348,2.1,1.587,2.508Zm10.783,1.177a9.584,9.584,0,0,1-1.86,2.508,1.673,1.673,0,0,0,1.058.615c.324.034.529-.581.649-1.774a5.22,5.22,0,0,0,1.28,1.074c-.444,2.115-1.126,2.713-1.86,2.661a3.5,3.5,0,0,1-2.508-1.45,12.611,12.611,0,0,1-2.7,1.416,8.074,8.074,0,0,0-1.041-1.3,10.881,10.881,0,0,0,2.935-1.535,14.342,14.342,0,0,1-.87-2.73h-2.32c-.017.119-.017.256-.034.376.7.562,1.672,1.347,2.166,1.825l-1.228,1.211c-.29-.34-.785-.784-1.28-1.245a6.761,6.761,0,0,1-2.321,3.429,6.3,6.3,0,0,0-1.348-1.16,5.54,5.54,0,0,0,2.321-4.436h-1.007V52.964h4.761a55.307,55.307,0,0,1-.581-5.972,23.178,23.178,0,0,1-2.32,3.549l.955-.1c-.068-.273-.154-.546-.222-.767l1.177-.308a15.3,15.3,0,0,1,.666,2.457l-1.245.375a4.485,4.485,0,0,0-.1-.58,10.306,10.306,0,0,0-2.679.528,14.507,14.507,0,0,0-.46-1.381A1.708,1.708,0,0,0,208.46,50a12.24,12.24,0,0,0,.819-1.228,4.658,4.658,0,0,0-1.365.29,12.207,12.207,0,0,0-.478-1.365,1.237,1.237,0,0,0,.614-.615,12.151,12.151,0,0,0,1.126-2.729l1.467.393a17.722,17.722,0,0,1-1.467,2.832l.768-.051c.17-.359.341-.717.477-1.058l1.416.46c-.034-.818-.068-1.705-.1-2.593h1.672a56.336,56.336,0,0,0,.717,8.633h1.57c-.29-.255-.614-.512-.888-.734l.768-.631a4.089,4.089,0,0,0-1.211.307,13.353,13.353,0,0,0-.46-1.4,1.939,1.939,0,0,0,.836-.785,8.325,8.325,0,0,0,.785-1.211,4.408,4.408,0,0,0-1.331.29c-.085-.307-.324-.973-.478-1.365.205-.052.393-.274.581-.581a13.438,13.438,0,0,0,1.024-2.576l1.451.392a14.077,14.077,0,0,1-1.331,2.628l.768-.051c.154-.342.307-.717.443-1.058l1.467.477a20.729,20.729,0,0,1-2.286,3.617l.955-.119c-.085-.239-.154-.495-.239-.7l1.16-.325a19.976,19.976,0,0,1,.785,2.475l-1.211.409c-.034-.188-.085-.426-.154-.682-.426.068-.785.119-1.074.17a13.829,13.829,0,0,1,1.3,1.041l-.444.41h1.365v1.552h-1.979Zm-3.191-.512a11.954,11.954,0,0,0,.46,1.485,7.814,7.814,0,0,0,1.007-1.485Z" transform="translate(-55.174 -12.044)" fill="#684e46"/>
      <path id="Path_9782" data-name="Path 9782" d="M235.638,44.654l-.256.308a16.608,16.608,0,0,0,7.081,3.087,6.524,6.524,0,0,0-1.28,1.536c-.341-.086-.7-.205-1.058-.308v4.4H228.268v-4.3c-.359.119-.717.239-1.058.341a8.559,8.559,0,0,0-1.092-1.553c3.14-.767,6.194-2.184,7.729-4.162Zm3.873,4.4a18.759,18.759,0,0,1-2.321-1.041v.444H231.2v-.342a20.416,20.416,0,0,1-2.064.938Zm-10.288,5.187h10.032V60.01h-2.081V59.6H231.22v.46h-2Zm1.928-1.792a6.736,6.736,0,0,0-.58-1.774l1.313-.376h-1.928v2.15Zm.068,3.805h5.954v-.682H231.22Zm5.954,1.331H231.22v.682h5.954ZM233.3,50.3h-1.331a7.751,7.751,0,0,1,.682,1.809l-1.092.341h1.74Zm2.457-3.156a16.9,16.9,0,0,1-1.433-1.109c-.444.375-.938.75-1.45,1.109Zm-.819,3.156v2.15h1.587l-1.024-.29a13.267,13.267,0,0,0,.666-1.86Zm3.378,0h-1.774l1.331.324c-.341.682-.665,1.348-.938,1.825h1.382Z" transform="translate(-61.623 -11.993)" fill="#684e46"/>
      <path id="Path_9783" data-name="Path 9783" d="M77.274,82.29a5.628,5.628,0,0,1-4.086-1.743,6.307,6.307,0,0,1-.415-.481c-.02-.025-.039-.051-.057-.077l-6.309-9.037H53.056a23.486,23.486,0,0,1,0-46.972h135a23.486,23.486,0,1,1,0,46.972H84.261l-1.086,6.356a5.98,5.98,0,0,1-4.184,4.724,5.864,5.864,0,0,1-1.717.258m-1.606-4.427c.049.06.1.119.151.173a2.03,2.03,0,0,0,2.109.517A2.367,2.367,0,0,0,79.589,76.7l1.344-7.869a1.818,1.818,0,0,1,1.792-1.512H188.06a19.848,19.848,0,1,0,0-39.7h-135a19.848,19.848,0,0,0,0,39.7h14.3a1.818,1.818,0,0,1,1.491.778Z" transform="translate(-8.059 -6.535)" fill="#e1b309"/>
    </g>
  </g>
</svg>
