<svg xmlns="http://www.w3.org/2000/svg" xmlns:xlink="http://www.w3.org/1999/xlink" width="364.265" height="380.415" viewBox="0 0 364.265 380.415">
  <defs>
    <clipPath id="clip-path">
      <rect id="Rectangle_446" data-name="Rectangle 446" width="296.069" height="318.243" fill="none"/>
    </clipPath>
  </defs>
  <g id="pop-boy" transform="translate(76.99) rotate(14)">
    <g id="Group_637" data-name="Group 637" clip-path="url(#clip-path)">
      <path id="Path_4833" data-name="Path 4833" d="M152.369,74.631s-.891,21.9.361,25.978,12.489,6.588,24.029,11.235c0,0-14.977,22.348-43.834,22.214s-48.015-9.837-52.677-15.645c0,0,34.113-8.168,34.525-16.54s-.372-26.715-.372-26.715Z" transform="translate(20.054 18.65)" fill="#fcd1c8"/>
      <path id="Path_4834" data-name="Path 4834" d="M126.958,108.452c-9.4.13-16.035-7.372-19.786-13.57-.2-10.558-.5-19.708-.5-19.708l39.089-.542s-.2,9.148-.207,19.23c-3.057,6.354-8.958,14.458-18.6,14.591" transform="translate(26.657 18.65)" fill="#f8a8a0"/>
      <path id="Path_4835" data-name="Path 4835" d="M50.635,110.1c4.426.486,8.149,13.491,6.448,29s-7.878,23.86-11.683,26.171c-3.7,2.246-6.046-12.425-4.345-27.931s5.153-27.724,9.579-27.238" transform="translate(10.119 27.511)" fill="#e4d9e1" fill-rule="evenodd"/>
      <path id="Path_4836" data-name="Path 4836" d="M89.484,66.173s-4.222-2.852-6.384-2.049-3.628,6.566-2.34,10.3,8.889,15.875,14.9,8.927-6.176-17.179-6.176-17.179" transform="translate(20.061 15.989)" fill="#fcd1c8" fill-rule="evenodd"/>
      <path id="Path_4837" data-name="Path 4837" d="M92.993,69.087a.926.926,0,0,1,.417.956.446.446,0,0,1-.644.3S93.8,82.6,91.694,81.2s-4.283-2.711-5.737-5.506.34-6.183-.76-6.722c-1.05-.517-1.674.882-1.729,1.014l0,.006v0h0a8.3,8.3,0,0,0-.5,2.475.457.457,0,0,1-.625.461.937.937,0,0,1-.579-.874c0-.014.12-4.8,3.238-5.465,2.984-.631,7.978,2.485,7.993,2.495" transform="translate(20.431 16.62)" fill="#f8a8a0" fill-rule="evenodd"/>
      <path id="Path_4838" data-name="Path 4838" d="M141.918,52.708s2.336-4.556,4.613-4.91,6.312,3.982,6.967,7.881-.2,18.241-8.787,15.087-2.794-18.058-2.794-18.058" transform="translate(34.987 11.939)" fill="#fcd1c8" fill-rule="evenodd"/>
      <path id="Path_4839" data-name="Path 4839" d="M140.195,56.965a.926.926,0,0,0,.089,1.04.444.444,0,0,0,.706-.052s4.943,11.24,6.122,8.984,2.459-4.462,2.4-7.619-3.25-5.25-2.544-6.261c.672-.962,1.886-.041,2,.046l.005,0,0,0a8.2,8.2,0,0,1,1.619,1.924.454.454,0,0,0,.769.1.938.938,0,0,0,.087-1.045c-.006-.011-2.4-4.147-5.446-3.2-2.912.9-5.8,6.067-5.807,6.083" transform="translate(35.004 12.68)" fill="#f8a8a0" fill-rule="evenodd"/>
      <path id="Path_4840" data-name="Path 4840" d="M108.9,13.562C64.38,25.874,80.351,61.086,91.87,89.834c4.85,12.1,13.263,17.8,13.263,17.8s15.584,8.463,20.561,9.792a20.877,20.877,0,0,0,18.09-4.7c3.726-3.592,13.334-18.606,13.334-18.606a41.637,41.637,0,0,0,3.117-22.058c-3.636-30.8-6.459-69.432-51.332-58.5" transform="translate(19.834 2.916)" fill="#fcd1c8" fill-rule="evenodd"/>
      <path id="Path_4841" data-name="Path 4841" d="M106.788,62.586a.388.388,0,0,1-.31-.065c-.281-.2-6.947-4.8-11.73,1.514a.4.4,0,1,1-.63-.479c5.246-6.929,12.744-1.735,12.818-1.681a.4.4,0,0,1-.147.711m20.6-5.793a.4.4,0,0,1-.441-.555c.039-.081,3.9-8.143,12.7-5.535a.4.4,0,1,1-.225.76c-8.154-2.414-11.724,5.032-11.759,5.11a.4.4,0,0,1-.279.22" transform="translate(23.499 12.54)" fill="#f8a8a0"/>
      <path id="Path_4842" data-name="Path 4842" d="M106.185,19.966C77.946,29.48,77.757,49.542,84.022,70.382a11.153,11.153,0,0,0,1.4.089c16.55.011,16.134-12.694,19.783-27.281s15.865-14.844,15.865-14.844l2.45,19.833c11.549,10.533,27.07,1.967,27.07,1.967l1.949.955s-1.267-14.111-4.663-23.942c-4.475-5.482-10.615-9.2-19.212-10.1a220.79,220.79,0,0,0-22.477,2.911" transform="translate(20.166 4.262)" fill="#f8a8a0" fill-rule="evenodd"/>
      <path id="Path_4843" data-name="Path 4843" d="M133,44.085s6.717,14.585,13.078,17.392c0,0-.5-6.606.675-7.867,0,0-.972-19.013-5.4-24.429s-8.948,8.643-8.356,14.9" transform="translate(33.224 6.988)" fill="#684e46" fill-rule="evenodd"/>
      <path id="Path_4844" data-name="Path 4844" d="M90.52,50.086s3.956,15.669-1.044,25.472c0,0-2.845-5.331-4.516-6.076,0,0-7.8-17.084-6.507-23.984s9.6-1.184,12.066,4.588" transform="translate(19.569 10.58)" fill="#684e46" fill-rule="evenodd"/>
      <path id="Path_4845" data-name="Path 4845" d="M120.6,49.933a3.882,3.882,0,0,1-2.194.511,3.776,3.776,0,0,1-2.485-1.936c-.05-.4.669.035,2.412-1.455,1.711-1.464,8.328-5.787,14.541-2.394,1.071.587.6,1.454-.566,1.44A15.04,15.04,0,0,0,120.6,49.933" transform="translate(28.968 10.843)" fill="#684e46" fill-rule="evenodd"/>
      <path id="Path_4846" data-name="Path 4846" d="M109.488,58.98a.853.853,0,0,1,1.682.282c-.256,1.542-1.394,6.669-1.137,7.418.2.486,1.241,1.067,1.695,1.274a5.445,5.445,0,0,0,2.536.527.854.854,0,1,1,.1,1.7,7.141,7.141,0,0,1-3.348-.676,5.4,5.4,0,0,1-2.561-2.17c-.434-1.03.684-6.647,1.032-8.361" transform="translate(27.078 14.561)" fill="#f8a8a0" fill-rule="evenodd"/>
      <path id="Path_4847" data-name="Path 4847" d="M103.185,54.188a3.318,3.318,0,0,0,1.912-.59,3.728,3.728,0,0,0,1.136-2.7c-.126-.346-.5.336-2.465-.07-1.927-.4-8.825-.864-12.263,4.723-.59.962.13,1.446,1.027.9a12.891,12.891,0,0,1,10.652-2.264" transform="translate(22.813 12.646)" fill="#684e46" fill-rule="evenodd"/>
      <path id="Path_4848" data-name="Path 4848" d="M104.509,63.024a2.442,2.442,0,0,0,1.639-.455,3.788,3.788,0,0,0,.99-2.607c-.105-.354-.435.3-2.1-.237-1.646-.527-7.538-1.457-10.517,3.852-.511.919.1,1.446.872.97a9.471,9.471,0,0,1,9.12-1.522" transform="translate(23.572 14.82)" fill="#684e46" fill-rule="evenodd"/>
      <path id="Path_4849" data-name="Path 4849" d="M124.181,57.614a2.711,2.711,0,0,1-1.731.494,3.516,3.516,0,0,1-2.177-1.724c-.074-.364.545.024,1.829-1.35,1.262-1.351,6.251-5.358,11.569-2.366.916.516.606,1.307-.335,1.312a10.6,10.6,0,0,0-9.154,3.633" transform="translate(30.054 12.89)" fill="#684e46" fill-rule="evenodd"/>
      <path id="Path_4850" data-name="Path 4850" d="M106.575,72.592c2.919.452,7.259-.187,11.46-1.45S126.252,68.005,128.5,66a1.085,1.085,0,0,1,1.806.794h0c.081,6.511-1.289,11.412-3.526,14.515a9.385,9.385,0,0,1-5.038,3.717,9.156,9.156,0,0,1-6.2-.554c-3.395-1.461-6.936-4.831-10.073-10.26a1.083,1.083,0,0,1,1.1-1.614Z" transform="translate(26.32 16.424)" fill="#684e46" fill-rule="evenodd"/>
      <path id="Path_4851" data-name="Path 4851" d="M106.922,72.682a31.082,31.082,0,0,0,10.715-1.54c4.2-1.265,8.217-3.137,10.465-5.145a1.085,1.085,0,0,1,1.806.794h0q.009.793-.009,1.55c-6.614,6.222-18.113,7.744-20.444,7.081a3.911,3.911,0,0,1-2.535-2.739" transform="translate(26.719 16.424)" fill="#fff" fill-rule="evenodd"/>
      <path id="Path_4852" data-name="Path 4852" d="M127.509,73.978a16.931,16.931,0,0,1-2.441,5.265,9.391,9.391,0,0,1-5.037,3.718,9.161,9.161,0,0,1-6.2-.555,13.421,13.421,0,0,1-1.64-.85c1.074-1.3,3.347-3.076,7.646-2.724,0,0,2.962-4.486,7.674-4.855" transform="translate(28.035 18.487)" fill="#f68b85" fill-rule="evenodd"/>
      <path id="Path_4853" data-name="Path 4853" d="M116.7,85.567a.85.85,0,0,1,.29-1.675,9.21,9.21,0,0,0,6.837-2.157.849.849,0,0,1,1.075,1.314,11.078,11.078,0,0,1-8.2,2.519" transform="translate(28.985 20.377)" fill="#f8a8a0" fill-rule="evenodd"/>
      <path id="Path_4854" data-name="Path 4854" d="M114.794,33.286s5.386,20.417,17.983,22.8,17.372-6.538,17.372-6.538,3.046,4.866,10.775,1.945,9.755-20.01-5.655-34.183-45.525-30.786-56.986.475c0,0-10.667-2.277-16.637,4.931S67.911,49.517,75,62.421,96.9,74.8,103.066,60.879s4.572-26.539,11.728-27.593" transform="translate(18.036 0)" fill="#7f5a50" fill-rule="evenodd"/>
      <path id="Path_4855" data-name="Path 4855" d="M140.234,9.184c-8.4,10.222-20.676,12.944-35.537,8.487-.3-.09-.574.13-.632.509a.929.929,0,0,0,.409.939,72.128,72.128,0,0,0,26.318,7.538c8.289.637,16.1-.617,22.921-4.24a41.44,41.44,0,0,0-6.407-7.406,86.24,86.24,0,0,0-7.071-5.827" transform="translate(26.002 2.295)" fill="#936e65" fill-rule="evenodd"/>
      <path id="Path_4856" data-name="Path 4856" d="M33.285,155.118l44.221,7.407,14.22-40.378-48.355-5.375Z" transform="translate(8.318 29.181)" fill="#f8a8a0"/>
      <path id="Path_4857" data-name="Path 4857" d="M32.677,65.342c2.336,11.242,5.131,21,8.252,32.221,5.817,20.907,14.049,50.194,14.674,52.555,6.657,22.757-30.4,31.594-35.161,6.632-1.97-10.333-3.786-34.723-5.115-52.685-.687-9.3-1.324-18.192-2.649-27.406L10.805,61.476l22.5-9.218c-1.7,3.4-2.081,6.087-.627,13.084" transform="translate(2.7 13.059)" fill="#fcd1c8" fill-rule="evenodd"/>
      <path id="Path_4858" data-name="Path 4858" d="M12,70.713l-1.195-9.682,17.056-6.988C28,57.618,28.075,68,17.968,69.82c-2.337.419-4.308.706-5.968.892" transform="translate(2.7 13.505)" fill="#f8a8a0" fill-rule="evenodd"/>
      <path id="Path_4859" data-name="Path 4859" d="M5.862,39.393s-7-14.5-5.7-15.8,7.217-2.579,9.855.172,7.379,12.5,7.379,12.5Z" transform="translate(0 5.532)" fill="#f8a8a0"/>
      <path id="Path_4860" data-name="Path 4860" d="M4.011,46.462c-.14-1.02-.246-2.045-.311-3.076-.45-7.131,2.952-9.993,9.087-11.645,3.178-.855,15.629-5.34,17.95-1.807,2.519,3.837-.2,5.571-.2,5.571s5.307-.172,6.053,3.882a7.133,7.133,0,0,1-1.379,6.2s3.87,4.631,1.695,7.738c0,0,2.809,9.17-2.209,11.629-3.588,1.756-7.788,2.5-11.683,3.117-6.282,1-11.187,3.328-14.1-4.421a80.672,80.672,0,0,1-4.9-17.19" transform="translate(0.915 7.146)" fill="#ffd1c1"/>
      <path id="Path_4861" data-name="Path 4861" d="M28,34.123s-9.724,5.243-14.2,4.61" transform="translate(3.449 8.527)" fill="none" stroke="#f8a8a0" stroke-linecap="round" stroke-linejoin="round" stroke-width="1"/>
      <path id="Path_4862" data-name="Path 4862" d="M31.705,42.024s-9.724,5.243-14.2,4.61" transform="translate(4.374 10.501)" fill="none" stroke="#f8a8a0" stroke-linecap="round" stroke-linejoin="round" stroke-width="1"/>
      <path id="Path_4863" data-name="Path 4863" d="M31.705,42.024s-9.724,5.243-14.2,4.61" transform="translate(4.374 10.501)" fill="none" stroke="#f8a8a0" stroke-linecap="round" stroke-linejoin="round" stroke-width="1"/>
      <path id="Path_4864" data-name="Path 4864" d="M33.022,48.356s-9.724,5.243-14.2,4.61" transform="translate(4.703 12.084)" fill="none" stroke="#f8a8a0" stroke-linecap="round" stroke-linejoin="round" stroke-width="1"/>
      <path id="Path_4865" data-name="Path 4865" d="M197.019,109.707C186.835,104.025,168.331,99.5,168.331,99.5c-30.912,22.351-46.343-1.675-46.343-1.675s-.829.267-2.262.737l-69.8,14.612c8.471,18.26,5.173,36.839-6.576,55.205l39.862,6.374L94.475,225.9S84.6,263.26,84.807,269.619c.467,14.069,4.148,21.509,5.337,22.914,19.863,5.845,105.3-9.879,123.111-20.3,2.014-1.179,6.6-6.858,3.663-18.558l-12.863-47.238-.035-.185c-.741-4.132.155-19.816.155-19.816,4.668-50.586-7.157-76.727-7.157-76.727" transform="translate(10.832 24.445)" fill="#fff" fill-rule="evenodd"/>
      <path id="Path_4866" data-name="Path 4866" d="M128.686,116.064c-19.658-.706-27.581-13.34-27.916-13.889a.815.815,0,0,1,1.391-.849c.079.129,8.177,12.949,27.814,13.138,19.706.185,29.059-11.013,29.15-11.127a.815.815,0,1,1,1.266,1.027c-.395.487-9.9,11.92-30.43,11.729-.43,0-.856-.015-1.275-.03" transform="translate(25.152 25.223)" fill="#dbbaab"/>
      <path id="Path_4867" data-name="Path 4867" d="M86.54,215.888,75.1,163.966a99.134,99.134,0,0,0,4.018-26.028l0-.066S89.091,184.9,89.847,188.5s6.188,1.379,7.337,3.015-6.428,7.768-10.644,24.373" transform="translate(18.767 34.453)" fill="#e4d9e1" fill-rule="evenodd"/>
      <path id="Path_4868" data-name="Path 4868" d="M175.92,171.731s-2.464-16.9-2.485-22.318-.532-18.986-.532-18.986-29.939.545-39.917,1.126-35.432,4.885-40.938,4.958c0,0,1.33,30.62,3.941,39.875,0,0,19.738-.009,33.438-1.947,14.959-2.119,46.492-2.709,46.492-2.709" transform="translate(23.002 32.593)" fill="#fed190"/>
      <path id="Path_4869" data-name="Path 4869" d="M190.6,100.755c-4.338,1-6.509,14.354-3,29.554s10.623,22.771,14.674,24.619c3.936,1.8,4.546-13.049,1.036-28.248s-8.372-26.926-12.71-25.925" transform="translate(46.443 25.163)" fill="#e4d9e1" fill-rule="evenodd"/>
      <path id="Path_4870" data-name="Path 4870" d="M221.629,143.413l-43.046,12.545L159.722,117.53l47.39-11.014Z" transform="translate(39.913 26.618)" fill="#f8a8a0"/>
      <path id="Path_4871" data-name="Path 4871" d="M213.315,54.742c-2.336,11.242-5.131,21-8.252,32.221-5.817,20.907-14.049,50.194-14.674,52.555-6.657,22.757,30.4,31.594,35.161,6.632,1.97-10.333,3.786-34.723,5.115-52.685.687-9.3,1.324-18.192,2.648-27.406l1.874-15.182-22.5-9.218c1.7,3.4,2.081,6.087.627,13.084" transform="translate(47.378 10.41)" fill="#fcd1c8" fill-rule="evenodd"/>
      <path id="Path_4872" data-name="Path 4872" d="M228.293,60.112l1.195-9.682-17.056-6.988c-.144,3.575-.214,13.959,9.893,15.777,2.337.419,4.308.706,5.968.892" transform="translate(53.077 10.856)" fill="#f8a8a0" fill-rule="evenodd"/>
      <path id="Path_4873" data-name="Path 4873" d="M234.492,28.792s7-14.5,5.7-15.8-7.217-2.579-9.855.172-7.379,12.5-7.379,12.5Z" transform="translate(55.715 2.883)" fill="#f8a8a0"/>
      <path id="Path_4874" data-name="Path 4874" d="M239.668,35.861c.14-1.02.246-2.045.311-3.076.45-7.131-2.951-9.993-9.087-11.645-3.178-.855-15.629-5.34-17.948-1.807-2.52,3.837.2,5.571.2,5.571s-5.306-.172-6.052,3.882a7.132,7.132,0,0,0,1.377,6.2s-3.868,4.631-1.695,7.738c0,0-2.807,9.17,2.21,11.629,3.587,1.756,7.787,2.5,11.681,3.117,6.283,1,11.187,3.328,14.1-4.421a80.668,80.668,0,0,0,4.9-17.19" transform="translate(51.475 4.497)" fill="#ffd1c1"/>
      <path id="Path_4875" data-name="Path 4875" d="M211.711,23.522s9.724,5.243,14.2,4.61" transform="translate(52.905 5.878)" fill="none" stroke="#f8a8a0" stroke-linecap="round" stroke-linejoin="round" stroke-width="1"/>
      <path id="Path_4876" data-name="Path 4876" d="M208.01,31.423s9.724,5.243,14.2,4.61" transform="translate(51.98 7.852)" fill="none" stroke="#f8a8a0" stroke-linecap="round" stroke-linejoin="round" stroke-width="1"/>
      <path id="Path_4877" data-name="Path 4877" d="M208.01,31.423s9.724,5.243,14.2,4.61" transform="translate(51.98 7.852)" fill="none" stroke="#f8a8a0" stroke-linecap="round" stroke-linejoin="round" stroke-width="1"/>
      <path id="Path_4878" data-name="Path 4878" d="M206.693,37.755s9.724,5.243,14.2,4.61" transform="translate(51.651 9.435)" fill="none" stroke="#f8a8a0" stroke-linecap="round" stroke-linejoin="round" stroke-width="1"/>
      <path id="Path_4879" data-name="Path 4879" d="M143.343,99.161l57.88,1.977s-2.865,30.571,11.674,54.173l-42.334,9.349Z" transform="translate(35.82 24.78)" fill="#fff"/>
    </g>
  </g>
</svg>
