<?xml version="1.0" encoding="utf-8"?>
<!-- Generator: Adobe Illustrator 23.0.3, SVG Export Plug-In . SVG Version: 6.00 Build 0)  -->
<svg version="1.1" id="slot-table" xmlns="http://www.w3.org/2000/svg" xmlns:xlink="http://www.w3.org/1999/xlink" x="0px" y="0px"
	 viewBox="0 0 1043.3 326.9" enable-background="new 0 0 1043.3 326.9" xml:space="preserve">
<g display="none">
	<g display="inline">
		<defs>
			<rect id="SVGID_1_" width="1043.3" height="521.9"/>
		</defs>
		<clipPath id="SVGID_2_">
			<use xlink:href="#SVGID_1_"  overflow="visible"/>
		</clipPath>
		<g id="Group_243" clip-path="url(#SVGID_2_)">
			<g id="Group_242">
				<g>
					<g>
						<defs>
							<rect id="SVGID_3_" x="17.6" y="2.5" width="1015.9" height="323.3"/>
						</defs>
						<clipPath id="SVGID_4_">
							<use xlink:href="#SVGID_3_"  overflow="visible"/>
						</clipPath>
						<g id="Group_241" clip-path="url(#SVGID_4_)">
							<g id="Group_230" opacity="0.15">
								<g id="Group_229">
									<g>
										<g>
											<defs>
												<rect id="SVGID_5_" x="448.9" y="196.7" width="188" height="145.4"/>
											</defs>
											<clipPath id="SVGID_6_">
												<use xlink:href="#SVGID_5_"  overflow="visible"/>
											</clipPath>
											<g id="Group_228" clip-path="url(#SVGID_6_)">
												<g id="Group_227">
													<g>
														<g>
															<defs>
																<rect id="SVGID_7_" x="448.9" y="196.7" width="188" height="145.4"/>
															</defs>
															<clipPath id="SVGID_8_">
																<use xlink:href="#SVGID_7_"  overflow="visible"/>
															</clipPath>
															<g id="Group_226" clip-path="url(#SVGID_8_)">
																<path id="Path_2688" fill="#3F3F3F" d="M636.5,310.6c2.6,17.1-6.4,31.5-20.2,31.5H470.6
																	c-13.8,0-23.3-14.5-21.4-31.5l10.5-91.9c1.4-12.4,11.5-22,22.5-22h117c11.1,0,21.5,9.7,23.4,22L636.5,310.6z"/>
															</g>
														</g>
													</g>
												</g>
											</g>
										</g>
									</g>
								</g>
							</g>
							<g id="Group_235" opacity="0.15">
								<g id="Group_234">
									<g>
										<g>
											<defs>
												<rect id="SVGID_9_" x="101.4" y="194.6" width="221.7" height="148"/>
											</defs>
											<clipPath id="SVGID_10_">
												<use xlink:href="#SVGID_9_"  overflow="visible"/>
											</clipPath>
											<g id="Group_233" clip-path="url(#SVGID_10_)">
												<g id="Group_232">
													<g>
														<g>
															<defs>
																<rect id="SVGID_11_" x="101.4" y="194.6" width="221.7" height="148"/>
															</defs>
															<clipPath id="SVGID_12_">
																<use xlink:href="#SVGID_11_"  overflow="visible"/>
															</clipPath>
															<g id="Group_231" clip-path="url(#SVGID_12_)">
																<path id="Path_2689" fill="#3F3F3F" d="M295.8,310.5c-4.9,17.4-20.3,32.1-34.2,32.1H114.5
																	c-13.9,0-17.2-14.7-7.7-32.1l51-93.5c6.9-12.6,21.2-22.4,32.4-22.4h118c11.2,0,17.4,9.8,13.9,22.4L295.8,310.5z"/>
															</g>
														</g>
													</g>
												</g>
											</g>
										</g>
									</g>
								</g>
							</g>
							<g id="Group_240" opacity="0.15">
								<g id="Group_239">
									<g>
										<g>
											<defs>
												<rect id="SVGID_13_" x="748.3" y="199.7" width="218" height="144"/>
											</defs>
											<clipPath id="SVGID_14_">
												<use xlink:href="#SVGID_13_"  overflow="visible"/>
											</clipPath>
											<g id="Group_238" clip-path="url(#SVGID_14_)">
												<g id="Group_237">
													<g>
														<g>
															<defs>
																<rect id="SVGID_15_" x="748.3" y="199.7" width="218" height="144"/>
															</defs>
															<clipPath id="SVGID_16_">
																<use xlink:href="#SVGID_15_"  overflow="visible"/>
															</clipPath>
															<g id="Group_236" clip-path="url(#SVGID_16_)">
																<path id="Path_2690" fill="#3F3F3F" d="M961,312.4c9.2,16.9,5.9,31.2-7.8,31.2h-145c-13.7,0-28.8-14.3-33.6-31.2
																	l-25.4-91c-3.4-12.2,2.8-21.8,13.9-21.8h116.4c11,0,25.2,9.6,31.8,21.8L961,312.4z"/>
															</g>
														</g>
													</g>
												</g>
											</g>
										</g>
									</g>
								</g>
							</g>
							<path id="Path_2691" fill="#B37F43" d="M486.1,323.2c0,1.9-2,3.4-4.4,3.4s-4.4-1.5-4.4-3.4v-77c0-1.9,2-3.4,4.4-3.4
								s4.4,1.5,4.4,3.4V323.2z"/>
							<path id="Path_2692" fill="none" stroke="#D8B49C" stroke-width="3" d="M805.1,32.5h77.5c5.4,0,9.9,4.4,9.9,9.9V166
								c0,5.4-4.4,9.9-9.9,9.9l0,0h-77.5c-5.5,0-9.9-4.4-9.9-9.9l0,0l0,0V42.3C795.2,36.9,799.6,32.5,805.1,32.5L805.1,32.5z"/>
							<path id="Path_2693" fill="#B37F43" d="M925.6,321.2c0,1.9,2,3.4,4.4,3.4s4.4-1.5,4.4-3.4v-77c0-1.9-2-3.4-4.4-3.4
								s-4.4,1.5-4.4,3.4V321.2z"/>
							<path id="Path_2694" fill="#B37F43" d="M807.3,325.1c0,1.9,2,3.4,4.4,3.4s4.4-1.5,4.4-3.4v-77c0-1.9-2-3.4-4.4-3.4
								s-4.4,1.5-4.4,3.4V325.1z"/>
							<path id="Path_2695" fill="#B37F43" d="M794.1,280.3c0,1.9,2,3.4,4.4,3.4s4.4-1.5,4.4-3.4v-77c0-1.9-2-3.4-4.4-3.4
								s-4.4,1.5-4.4,3.4V280.3z"/>
							<path id="Path_2696" fill="#B37F43" d="M901.3,277.2c0,1.9,2,3.4,4.4,3.4s4.4-1.5,4.4-3.4v-77c0-1.9-2-3.4-4.4-3.4
								s-4.4,1.5-4.4,3.4V277.2z"/>
							<path id="Path_2697" fill="#684E46" d="M806.6,247.6c0,0,28.7,2.7,68.2,2.7s69.7-3.1,69.7-3.1c5.9,0,5.2-14.7,5.2-14.7
								l-19.7-28c-2.6-4.6-10.2-8.4-17-8.4c0,0-21.7,2.1-62.5,2.1s-62.6-2.1-62.6-2.1c-3.2,0-5.8-2.8-7.6-1.4V210l9.8,28.2
								C791.9,243.4,799.3,247.6,806.6,247.6"/>
							<path id="Path_2698" fill="#EFBA95" d="M808.5,237c0,0,28.4,2.6,67.7,2.6s65.3-2.6,65.3-2.6c7.3,0,10.8-4.2,8-9.2L931,194.6
								c-2.5-4.6-10.1-8.2-16.9-8.2c0,0-21.5,2-62,2s-62.1-2-62.1-2c-6.8,0-11,3.7-9.4,8.2l11.5,33.1
								C793.9,232.8,801.2,237,808.5,237"/>
							<path id="Path_2699" fill="#7F5A50" d="M800.8,178.9c0,0,26,3.5,63.6,3.4c21.8,0.1,43.7-1.1,65.4-3.6c7.3,0,13.3-5.6,14-12.8
								l3.5-50c0.6-6.7-4.4-12.7-11.1-13.3c-0.5,0-1-0.1-1.5,0c0,0-24.9,3.8-68.6,4.4c-43,0.6-64.8-2.3-64.8-2.3
								c-7.2,0.2-12.9,6.1-12.9,13.3v48.5C788.4,173.4,793.9,178.9,800.8,178.9L800.8,178.9L800.8,178.9"/>
							<path id="Path_2700" fill="#684E46" d="M801.3,184.4c0,0,26,3.5,63.5,3.5c21.8,0.1,43.6-1.1,65.2-3.5c7.2,0,13.3-5.5,14-12.7
								l3.5-49.7c0.6-6.7-4.4-12.6-11.1-13.2c-0.5,0-1-0.1-1.5,0c0,0-24.9,3.7-68.5,4.3c-42.9,0.6-64.7-2.4-64.7-2.4
								c-7.2,0.2-12.9,6.1-12.8,13.3v48.3C788.9,178.9,794.4,184.4,801.3,184.4L801.3,184.4L801.3,184.4"/>
							<path id="Path_2701" fill="#B37F43" d="M920.1,169.6c0-14.4-12.6-26.1-28.1-26.1h-43.7c-15.5,0-28.1,11.7-28.1,26.1v80.1
								c0,0.2,0,0.4,0,0.6c0,0.1,0,0.1,0,0.2c-0.1,1.8,1.2,3.3,3,3.4s3.3-1.2,3.4-3l0,0c0-0.1,0-0.3,0-0.4c0-0.1,0-0.1,0-0.2V239
								c0-0.4-0.1-0.8-0.1-1.3v-68.1c0-10.9,9.8-19.7,21.9-19.7H892c12.1,0,21.9,8.8,21.9,19.7V254l0,0c0.3,1.7,1.9,2.9,3.7,2.5
								c1.4-0.2,2.4-1.3,2.6-2.7c0-0.1,0-0.2,0-0.3c0-0.3,0-0.6,0-1L920.1,169.6z"/>
							<path id="Path_2702" fill="#B37F43" d="M602.5,324.2c0,1.9-2,3.4-4.4,3.4s-4.4-1.5-4.4-3.4v-77c0-1.9,2-3.4,4.4-3.4
								s4.4,1.5,4.4,3.4V324.2z"/>
							<path id="Path_2703" fill="none" stroke="#D8B49C" stroke-width="3" d="M501.8,28.5h77.5c5.4,0,9.9,4.4,9.9,9.9V162
								c0,5.5-4.4,9.9-9.9,9.9l0,0h-77.5c-5.4,0-9.9-4.4-9.9-9.9l0,0l0,0V38.4C492,33,496.4,28.5,501.8,28.5L501.8,28.5z"/>
							<path id="Path_2704" fill="none" stroke="#D8B49C" stroke-width="3" d="M187.7,28.5h77.5c5.4,0,9.9,4.4,9.9,9.9V162
								c0,5.5-4.4,9.9-9.9,9.9h-77.5c-5.4,0-9.9-4.4-9.9-9.9V38.4C177.9,33,182.3,28.5,187.7,28.5z"/>
							<path id="Path_2705" fill="#B37F43" d="M662.8,83.7H422.5v-9.4l11.9-62.4h215.9l12.4,62.4L662.8,83.7L662.8,83.7z"/>
							<path id="Path_2706" fill="#B37F43" d="M332.8,83.7H92.5L90,74.3l48.1-62.4l213.4-9.4l2.5,9.4L332.8,83.7z"/>
							<path id="Path_2707" fill="#B37F43" d="M982.1,83.7H741.9l-21.3-71.8l1.9-9.4l214,9.4L984,74.3L982.1,83.7z"/>
							<path id="Path_2708" fill="#F7D5AB" d="M662.8,74.3H422.5l11.9-71.8h215.9L662.8,74.3z"/>
							<path id="Path_2709" fill="#F7D5AB" d="M330.3,74.3H90.1l45.6-71.8h215.9L330.3,74.3z"/>
							<path id="Path_2710" fill="#F7D5AB" d="M984,74.3H743.8L722.5,2.5h215.9L984,74.3z"/>
							<path id="Path_2711" fill="#684E46" d="M609.4,247.9c0,0-27.7,2.7-67.6,2.7s-67.6-2.7-67.6-2.7c-7.4,0-12.9-4.3-12.3-9.5
								l3.7-34.2c0.5-4.7,6.5-8.5,13.4-8.5c0,0,22.8,2.1,63.9,2.1s62.1-2.1,62.1-2.1c6.9,0,12.9,3.8,13.3,8.5l3.4,34.2
								C622.4,243.6,616.8,247.9,609.4,247.9"/>
							<path id="Path_2712" fill="#EFBA95" d="M608.9,237.1c0,0-27.5,2.7-67,2.7s-67-2.7-67-2.7c-7.3,0-12.8-4.2-12.3-9.4l3.6-33.7
								c0.5-4.6,6.4-8.4,13.3-8.4c0,0,22.6,2.1,63.4,2.1s61.6-2.1,61.6-2.1c6.8,0,12.8,3.7,13.2,8.4l3.4,33.7
								C621.8,232.9,616.2,237.1,608.9,237.1"/>
							<path id="Path_2713" fill="#7F5A50" d="M602.9,180.5c0,0-26.5,3.6-64.2,3.6s-64.2-3.6-64.2-3.6c-7,0-12.7-5.7-12.7-12.7l0,0
								v-48.3c0-7,5.7-12.7,12.7-12.7c0,0,23.3,3.2,65.2,3.2s63.3-3.2,63.3-3.2c7,0,12.7,5.7,12.7,12.7v48.3
								C615.6,174.8,609.9,180.5,602.9,180.5"/>
							<path id="Path_2714" fill="#684E46" d="M603.8,186.2c0,0-26.5,3.6-64.2,3.6s-64.2-3.6-64.2-3.6c-7,0-12.7-5.7-12.7-12.7
								v-48.3c0-7,5.7-12.7,12.7-12.7c0,0,23.3,3.2,65.2,3.2s63.3-3.2,63.3-3.2c7,0,12.7,5.7,12.7,12.7v48.3
								C616.5,180.5,610.8,186.2,603.8,186.2"/>
							<path id="Path_2715" fill="#B37F43" d="M589.5,171.5c0-14.4-12.6-26.1-28.1-26.1h-43.7c-15.5,0-28.1,11.7-28.1,26.1v82.9
								c0,0.4,0,0.8,0,1c0,0.1,0,0.2,0,0.3c0.2,1.7,1.8,2.9,3.5,2.7c1.4-0.2,2.5-1.2,2.7-2.6l0,0v-84.4c0-10.9,9.8-19.7,21.9-19.7
								h43.7c12.1,0,21.9,8.8,21.9,19.7v68.1c0,0.4,0,0.9-0.1,1.3v11.3c0,0.1,0,0.1,0,0.2c-0.1,1.8,1.2,3.3,3,3.4s3.3-1.2,3.4-3l0,0
								c0-0.1,0-0.3,0-0.4c0-0.1,0-0.1,0-0.2c0-0.2,0-0.4,0-0.6L589.5,171.5z"/>
							<path id="Path_2716" fill="#B37F43" d="M145.2,320.1c0,1.8-1.9,3.3-4.3,3.3s-4.3-1.5-4.3-3.3v-74.7c0-1.8,1.9-3.3,4.3-3.3
								s4.3,1.5,4.3,3.3V320.1z"/>
							<path id="Path_2717" fill="#B37F43" d="M262.9,321.1c0,1.9-2,3.4-4.4,3.4s-4.4-1.5-4.4-3.4v-77c0-1.9,2-3.4,4.4-3.4
								s4.4,1.5,4.4,3.4V321.1z"/>
							<path id="Path_2718" fill="#B37F43" d="M276.2,276.4c0,1.9-2,3.4-4.4,3.4s-4.4-1.5-4.4-3.4v-77c0-1.9,2-3.4,4.4-3.4
								s4.4,1.5,4.4,3.4V276.4z"/>
							<path id="Path_2719" fill="#B37F43" d="M196.7,266.5c0,1.8-1.9,3.3-4.3,3.3s-4.3-1.5-4.3-3.3v-74.7c0-1.8,1.9-3.3,4.3-3.3
								s4.3,1.5,4.3,3.3V266.5z"/>
							<path id="Path_2720" fill="#684E46" d="M263.6,243.6c0,0-28.7,2.7-68.2,2.7s-69.7-3.1-69.7-3.1c-5.9,0-5.2-14.7-5.2-14.7
								l19.7-27.9c2.6-4.6,10.2-8.4,17-8.4c0,0,21.7,2.1,62.5,2.1s62.6-2.1,62.6-2.1c3.2,0,5.8-2.8,7.6-1.4V206l-9.8,28.2
								C278.4,239.4,271,243.6,263.6,243.6"/>
							<path id="Path_2721" fill="#EFBA95" d="M261.7,233.1c0,0-28.4,2.6-67.7,2.6s-65.3-2.6-65.3-2.6c-7.3,0-10.8-4.2-8-9.2
								l18.4-33.1c2.5-4.6,10.1-8.2,16.9-8.2c0,0,21.5,2,62,2s62.1-2,62.1-2c6.8,0,11,3.7,9.4,8.2L278,223.9
								C276.4,228.9,269,233.1,261.7,233.1"/>
							<path id="Path_2722" fill="#7F5A50" d="M269.4,175c0,0-26,3.5-63.6,3.4c-21.8,0.1-43.7-1.1-65.4-3.6c-7.3,0-13.3-5.6-14-12.8
								l-3.5-50c-0.6-6.7,4.4-12.7,11.1-13.3c0.5,0,1-0.1,1.5,0c0,0,24.9,3.8,68.6,4.4c43,0.6,64.8-2.3,64.8-2.3
								c7.2,0.2,12.9,6.1,12.9,13.3v48.5C281.9,169.4,276.3,175,269.4,175L269.4,175L269.4,175"/>
							<path id="Path_2723" fill="#684E46" d="M268.9,180.5c0,0-26,3.5-63.5,3.5c-21.8,0.1-43.6-1.1-65.2-3.5
								c-7.2,0-13.3-5.5-14-12.7l-3.5-49.7c-0.6-6.7,4.4-12.6,11.1-13.2c0.5,0,1-0.1,1.5,0c0,0,24.9,3.7,68.5,4.3
								c42.9,0.6,64.7-2.4,64.7-2.4c7.2,0.2,12.9,6.1,12.8,13.2v48.3C281.3,174.9,275.8,180.5,268.9,180.5L268.9,180.5"/>
							<path id="Path_2724" fill="#B37F43" d="M250.1,165.7c0-14.4-12.6-26.1-28.1-26.1h-43.7c-15.5,0-28.1,11.7-28.1,26.1v82.9
								c0,0.4,0,0.8,0,1c0,0.1,0,0.2,0,0.3c0.2,1.7,1.8,2.9,3.4,2.6c1.4-0.2,2.5-1.3,2.6-2.6l0,0c0.1,0.1,0.1,0.1,0.2,0.2v-84.4
								c0-10.9,9.8-19.7,21.9-19.7H222c12.1,0,21.9,8.8,21.9,19.7v68.1c0,0.4,0,0.9-0.1,1.3v11.3c0,0.1,0,0.1,0,0.2
								c-0.1,1.8,1.2,3.3,3,3.4c1.8,0.1,3.3-1.2,3.4-3l0,0c0-0.1,0-0.3,0-0.4c0-0.1,0-0.1,0-0.2c0-0.2,0-0.4,0-0.6L250.1,165.7z"/>
							<path id="Rectangle_250" fill="none" stroke="#D8B49C" stroke-width="3" d="M830.1,168.2h88c6.2,0,11.2,5,11.2,11.2v140.4
								c0,6.2-5,11.2-11.2,11.2l0,0h-88c-6.2,0-11.2-5-11.2-11.2V179.4C818.9,173.3,823.9,168.2,830.1,168.2z"/>
							<path id="Path_2725" fill="#7F5A50" d="M825.3,334.6c0,0,29.6,3.9,72.3,3.9c43.3,0,74.3-4.1,74.3-4.1
								c8.3,0,15.1-6.3,15.9-14.6l4-56.8c0.7-7.7-5-14.4-12.7-15.1c-0.6,0-1.1-0.1-1.7,0c0,0-28.3,4.3-78,5
								c-48.9,0.7-73.7-2.7-73.7-2.7c-8.2,0.2-14.7,7-14.6,15.1v55.1C811.2,328.3,817.5,334.6,825.3,334.6L825.3,334.6L825.3,334.6"
								/>
							<path id="Path_2726" fill="#684E46" d="M825.9,340.9c0,0,29.5,3.9,72.1,3.9c43.2,0,74.1-4,74.1-4c8.2,0,15.3-6.5,15.9-14.5
								l4-56.5c0.7-7.6-5-14.4-12.6-15c-0.6,0-1.1-0.1-1.7,0c0,0-28.3,4.2-77.8,4.9c-48.8,0.7-73.5-2.7-73.5-2.7
								c-8.1,0.2-14.6,6.9-14.6,15.1V327C811.8,334.6,818.1,340.9,825.9,340.9L825.9,340.9"/>
							<path id="Path_2727" fill="#B37F43" d="M960.9,324.1c0-16.3-14.3-29.6-32-29.6h-49.7c-17.6,0-32,13.3-32,29.6v91
								c0,0.3,0,0.5,0,0.7c0,0.1,0,0.1,0,0.2c-0.1,2,1.4,3.7,3.4,3.8c2,0.1,3.7-1.4,3.8-3.4l0,0c0-0.1,0-0.3,0-0.4s0-0.2,0-0.3
								v-12.9c0-0.5-0.1-1-0.1-1.5v-77.4c0-12.4,11.1-22.4,24.9-22.4h49.7c13.7,0,24.9,10.1,24.9,22.4V420l0,0
								c0.3,1.9,2.2,3.2,4.2,2.9c1.5-0.3,2.7-1.5,2.9-3.1c0-0.1,0-0.2,0-0.3c0-0.3,0-0.7,0-1.2L960.9,324.1z"/>
							<path id="Rectangle_251" fill="none" stroke="#D8B49C" stroke-width="3" d="M485.5,163.8h88c6.2,0,11.2,5,11.2,11.2v140.4
								c0,6.2-5,11.2-11.2,11.2l0,0h-88c-6.2,0-11.2-5-11.2-11.2V175C474.3,168.8,479.3,163.8,485.5,163.8z"/>
							<path id="Rectangle_252" fill="none" stroke="#D8B49C" stroke-width="3" d="M128.6,163.8h88c6.2,0,11.2,5,11.2,11.2v140.4
								c0,6.2-5,11.2-11.2,11.2l0,0h-88c-6.2,0-11.2-5-11.2-11.2l0,0V175C117.4,168.8,122.4,163.8,128.6,163.8z"/>
							<path id="Path_2728" fill="#B37F43" d="M668.4,226.5h-273v-10.7l13.6-70.9h245.3l14.1,70.9V226.5z"/>
							<path id="Path_2729" fill="#B37F43" d="M293.4,226.5h-273l-2.8-10.7l54.7-70.9l242.5-10.7l2.8,10.7L293.4,226.5z"/>
							<path id="Path_2730" fill="#B37F43" d="M1031.3,226.5h-273l-24.2-81.6l2.2-10.7l243.2,10.7l54,70.9L1031.3,226.5z"/>
							<path id="Path_2731" fill="#F7D5AB" d="M668.4,215.8h-273l13.6-81.6h245.3L668.4,215.8z"/>
							<path id="Path_2732" fill="#F7D5AB" d="M290.6,215.8h-273l51.9-81.6h245.3L290.6,215.8z"/>
							<path id="Path_2733" fill="#F7D5AB" d="M1033.5,215.8h-273l-24.2-81.6h245.3L1033.5,215.8z"/>
							<path id="Path_2734" fill="#7F5A50" d="M600.4,336.4c0,0-30.1,4.1-73,4.1s-73-4.1-73-4.1c-8,0-14.5-6.5-14.5-14.5V267
								c0-8,6.5-14.5,14.5-14.5l0,0c0,0,26.5,3.6,74.1,3.6s72-3.6,72-3.6c8,0,14.5,6.5,14.5,14.5l0,0v55
								C614.8,330,608.4,336.4,600.4,336.4"/>
							<path id="Path_2735" fill="#684E46" d="M601.4,342.9c0,0-30.1,4.1-73,4.1s-73-4.1-73-4.1c-8,0-14.5-6.5-14.5-14.5v-54.9
								c0-8,6.5-14.5,14.5-14.5c0,0,26.5,3.6,74.1,3.6s72-3.6,72-3.6c8,0,14.5,6.5,14.5,14.5v54.9
								C615.9,336.5,609.4,342.9,601.4,342.9"/>
							<path id="Path_2736" fill="#B37F43" d="M585.2,326.3c0-16.3-14.3-29.6-32-29.6h-49.7c-17.6,0-32,13.3-32,29.6v94.2
								c0,0.5,0,0.9,0,1.2c0,0.1,0,0.2,0,0.3c0.3,2,2.1,3.3,4,3.1c1.6-0.2,2.8-1.4,3.1-2.9l0,0v-95.9c0-12.4,11.1-22.4,24.9-22.4
								h49.7c13.7,0,24.9,10.1,24.9,22.4v77.4c0,0.5,0,1-0.1,1.5v12.9c0,0.1,0,0.2,0,0.3c-0.1,2,1.4,3.7,3.4,3.8
								c2,0.1,3.7-1.4,3.8-3.4l0,0c0-0.1,0-0.3,0-0.4s0-0.1,0-0.2c0-0.2,0-0.4,0-0.7L585.2,326.3z"/>
							<path id="Path_2737" fill="#7F5A50" d="M221.4,330.2c0,0-29.6,3.9-72.3,3.9c-43.3,0-74.3-4.1-74.3-4.1
								c-8.3,0-15.1-6.3-15.9-14.6l-4-56.8c-0.7-7.7,5-14.4,12.7-15.1c0.6,0,1.1-0.1,1.7,0c0,0,28.3,4.3,78,5
								c48.9,0.7,73.7-2.7,73.7-2.7c8.2,0.2,14.7,7,14.6,15.1V316C235.6,323.9,229.3,330.2,221.4,330.2L221.4,330.2L221.4,330.2"/>
							<path id="Path_2738" fill="#684E46" d="M220.9,336.4c0,0-29.5,3.9-72.1,3.9c-43.2,0-74.1-4-74.1-4c-8.2,0-15.3-6.5-15.9-14.5
								l-4-56.5c-0.7-7.6,5-14.4,12.6-15c0.6,0,1.1-0.1,1.7,0c0,0,28.3,4.2,77.8,4.9c48.8,0.7,73.5-2.7,73.5-2.7
								c8.1,0.2,14.6,6.9,14.6,15v54.9C235,330.1,228.7,336.4,220.9,336.4L220.9,336.4L220.9,336.4"/>
							<path id="Path_2739" fill="#B37F43" d="M199.5,319.6c0-16.3-14.3-29.6-32-29.6h-49.7c-17.6,0-32,13.3-32,29.6v94.2
								c0,0.5,0,0.9,0,1.2c0,0.1,0,0.2,0,0.3c0.2,1.9,2,3.2,3.9,3c1.6-0.2,2.8-1.4,3-3l0,0c0.1,0.1,0.1,0.1,0.2,0.2v-95.9
								c0-12.4,11.1-22.4,24.9-22.4h49.7c13.7,0,24.9,10.1,24.9,22.4V397c0,0.5,0,1-0.1,1.5v12.9c0,0.1,0,0.2,0,0.3
								c-0.1,2,1.4,3.7,3.4,3.8c2,0.1,3.7-1.4,3.8-3.4c0-0.1,0-0.3,0-0.4s0-0.1,0-0.2c0-0.2,0-0.4,0-0.7L199.5,319.6z"/>
						</g>
					</g>
				</g>
			</g>
		</g>
	</g>
</g>
<g>
	<defs>
		<rect id="SVGID_17_" x="107.2" width="857.9" height="424.9"/>
	</defs>
	<clipPath id="SVGID_18_">
		<use xlink:href="#SVGID_17_"  overflow="visible"/>
	</clipPath>
	<g id="Group_1880" clip-path="url(#SVGID_18_)">
		<g id="Group_1879">
			<g>
				<defs>
					<rect id="SVGID_19_" x="107.2" width="857.9" height="424.9"/>
				</defs>
				<clipPath id="SVGID_20_">
					<use xlink:href="#SVGID_19_"  overflow="visible"/>
				</clipPath>
				<g id="Group_1878" clip-path="url(#SVGID_20_)">
					<g id="Group_1871" opacity="0.7">
						<g id="Group_1870">
							<g>
								<defs>
									<rect id="SVGID_21_" x="442.9" y="363.9" width="173.7" height="61"/>
								</defs>
								<clipPath id="SVGID_22_">
									<use xlink:href="#SVGID_21_"  overflow="visible"/>
								</clipPath>
								<g id="Group_1869" clip-path="url(#SVGID_22_)">
									<path id="Path_8131" fill="#070707" d="M616.7,394.4c0,16.8-38.9,30.5-86.9,30.5s-86.9-13.7-86.9-30.5
										c0-16.8,38.9-30.5,86.9-30.5S616.7,377.6,616.7,394.4"/>
								</g>
							</g>
						</g>
					</g>
					<path id="Path_8132" fill="#684E46" d="M603.6,393.3c0,13-32.6,23.5-72.8,23.5c-40.2,0-72.8-10.5-72.8-23.5
						c0-13,32.6-23.5,72.8-23.5S603.6,380.3,603.6,393.3"/>
					<rect id="Rectangle_1104" x="458" y="380.1" fill="#684E46" width="145.6" height="13.2"/>
					<path id="Path_8133" fill="#493632" d="M603.6,378.6c0,13-32.6,23.5-72.8,23.5c-40.2,0-72.8-10.5-72.8-23.5
						c0-13,32.6-23.5,72.8-23.5S603.6,365.7,603.6,378.6"/>
					<rect id="Rectangle_1105" x="517.7" y="162.2" fill="#684E46" width="26.3" height="216.4"/>
					<path id="Path_8134" fill="#4F3B36" d="M536.5,326c-0.5-10.7-0.3-21.4-0.1-32c-0.1-17.8-0.7-35.6,0.1-53.4h0.1
						c0.8,17.8,0.2,35.6,0.1,53.4C536.9,304.6,537.3,315.5,536.5,326"/>
					<path id="Path_8135" fill="#4F3B36" d="M524.8,385.5c-0.5-10.7-0.3-21.4-0.1-32c-0.1-17.8-0.7-35.6,0.1-53.4h0.1
						c0.8,17.8,0.2,35.6,0.1,53.4C525.1,364.1,525.5,375,524.8,385.5"/>
					<path id="Path_8136" fill="#4F3B36" d="M540.2,291.3c-0.5-7.5-0.3-15-0.1-22.5c-0.1-12.5-0.7-25,0.1-37.6h0.1
						c0.8,12.5,0.2,25,0.1,37.6C540.6,276.2,541,284,540.2,291.3"/>
					<path id="Path_8137" fill="#684E46" d="M543.9,378.6c0,3.7-5.9,6.7-13.1,6.7c-7.2,0-13.1-3-13.1-6.7s5.9-6.7,13.1-6.7
						C538,371.9,543.9,374.9,543.9,378.6"/>
					<rect id="Rectangle_1106" x="419.7" y="186.3" fill="#684E46" width="221.9" height="12.6"/>
					<path id="Path_8138" fill="#684E46" d="M652.5,197c0-24-54.6-43.5-121.9-43.5S408.7,172.9,408.7,197s54.6,43.5,121.9,43.5
						S652.5,221,652.5,197"/>
					<rect id="Rectangle_1107" x="408.7" y="184.1" fill="#684E46" width="243.8" height="15.1"/>
					<path id="Path_8139" fill="#493632" d="M652.5,185.2c0-24-54.6-43.5-121.9-43.5s-121.9,19.5-121.9,43.5s54.6,43.5,121.9,43.5
						S652.5,209.2,652.5,185.2"/>
					<path id="Path_8140" fill="#F2AD22" d="M530.8,411c-41.3,0-73.7-10.7-73.7-24.4c0-0.5,0.4-0.9,0.9-0.9c0.5,0,0.9,0.4,0.9,0.9
						l0,0c0,12.2,32.9,22.6,71.9,22.6s71.9-10.3,71.9-22.6c0-0.5,0.4-0.9,0.9-0.9c0.5,0,0.9,0.4,0.9,0.9l0,0
						C604.5,400.3,572.1,411,530.8,411"/>
					<g id="Group_1874" opacity="0.7">
						<g id="Group_1873">
							<g>
								<defs>
									<rect id="SVGID_23_" x="141.4" y="222.3" width="173.7" height="61"/>
								</defs>
								<clipPath id="SVGID_24_">
									<use xlink:href="#SVGID_23_"  overflow="visible"/>
								</clipPath>
								<g id="Group_1872" clip-path="url(#SVGID_24_)">
									<path id="Path_8141" fill="#070707" d="M315.1,252.8c0,16.8-38.9,30.5-86.9,30.5s-86.9-13.7-86.9-30.5s38.9-30.5,86.9-30.5
										S315.1,236,315.1,252.8"/>
								</g>
							</g>
						</g>
					</g>
					<path id="Path_8142" fill="#684E46" d="M302.1,251.6c0,13-32.6,23.5-72.8,23.5s-72.8-10.5-72.8-23.5s32.6-23.5,72.8-23.5
						S302.1,238.7,302.1,251.6"/>
					<rect id="Rectangle_1109" x="156.5" y="238.4" fill="#684E46" width="145.6" height="13.2"/>
					<path id="Path_8143" fill="#493632" d="M302.1,237c0,13-32.6,23.5-72.8,23.5s-72.8-10.5-72.8-23.5s32.6-23.5,72.8-23.5
						S302.1,224,302.1,237"/>
					<rect id="Rectangle_1110" x="216.1" y="20.5" fill="#684E46" width="26.3" height="216.4"/>
					<path id="Path_8144" fill="#4F3B36" d="M235,184.3c-0.5-10.7-0.3-21.4-0.1-32c-0.1-17.8-0.7-35.6,0.1-53.4h0.1
						c0.8,17.8,0.2,35.6,0.1,53.4C235.4,162.9,235.8,173.9,235,184.3"/>
					<path id="Path_8145" fill="#4F3B36" d="M223.3,243.8c-0.5-10.7-0.3-21.4-0.1-32c-0.1-17.8-0.7-35.6,0.1-53.4h0.1
						c0.8,17.8,0.2,35.6,0.1,53.4C223.6,222.4,224,233.4,223.3,243.8"/>
					<path id="Path_8146" fill="#4F3B36" d="M238.7,149.7c-0.5-7.5-0.3-15-0.1-22.5c-0.1-12.5-0.7-25,0.1-37.6h0.1
						c0.8,12.5,0.2,25,0.1,37.6C239.1,134.6,239.5,142.4,238.7,149.7"/>
					<path id="Path_8147" fill="#684E46" d="M242.4,237c0,3.7-5.9,6.7-13.1,6.7s-13.1-3-13.1-6.7c0-3.7,5.9-6.7,13.1-6.7
						S242.4,233.3,242.4,237"/>
					<rect id="Rectangle_1111" x="118.2" y="44.7" fill="#684E46" width="221.9" height="12.6"/>
					<path id="Path_8148" fill="#684E46" d="M351,55.3c0-24-54.6-43.5-121.9-43.5S107.2,31.3,107.2,55.3s54.6,43.5,121.9,43.5
						S351,79.4,351,55.3"/>
					<rect id="Rectangle_1112" x="107.2" y="42.5" fill="#684E46" width="243.8" height="15.1"/>
					<path id="Path_8149" fill="#493632" d="M351,43.5C351,19.5,296.4,0,229.1,0S107.2,19.5,107.2,43.5S161.8,87,229.1,87
						S351,67.5,351,43.5"/>
					<path id="Path_8150" fill="#F2AD22" d="M229.3,269.4c-41.3,0-73.7-10.7-73.7-24.4c0-0.5,0.4-0.9,0.9-0.9c0.5,0,0.9,0.4,0.9,0.9
						c0,0,0,0,0,0c0,12.2,32.9,22.6,71.9,22.6s71.9-10.3,71.9-22.6c0-0.5,0.4-0.9,0.9-0.9s0.9,0.4,0.9,0.9c0,0,0,0,0,0
						C303,258.7,270.6,269.4,229.3,269.4"/>
					<g id="Group_1877" opacity="0.7">
						<g id="Group_1876">
							<g>
								<defs>
									<rect id="SVGID_25_" x="755.5" y="222.3" width="173.7" height="61"/>
								</defs>
								<clipPath id="SVGID_26_">
									<use xlink:href="#SVGID_25_"  overflow="visible"/>
								</clipPath>
								<g id="Group_1875" clip-path="url(#SVGID_26_)">
									<path id="Path_8151" fill="#070707" d="M929.3,252.8c0,16.8-38.9,30.5-86.9,30.5c-48,0-86.9-13.7-86.9-30.5
										s38.9-30.5,86.9-30.5C890.4,222.3,929.3,236,929.3,252.8"/>
								</g>
							</g>
						</g>
					</g>
					<path id="Path_8152" fill="#684E46" d="M916.2,251.6c0,13-32.6,23.5-72.8,23.5s-72.8-10.5-72.8-23.5s32.6-23.5,72.8-23.5
						C883.6,228.2,916.2,238.7,916.2,251.6"/>
					<rect id="Rectangle_1114" x="770.6" y="238.4" fill="#684E46" width="145.6" height="13.2"/>
					<path id="Path_8153" fill="#493632" d="M916.2,237c0,13-32.6,23.5-72.8,23.5s-72.8-10.5-72.8-23.5s32.6-23.5,72.8-23.5
						C883.6,213.5,916.2,224,916.2,237"/>
					<rect id="Rectangle_1115" x="830.3" y="20.5" fill="#684E46" width="26.3" height="216.4"/>
					<path id="Path_8154" fill="#4F3B36" d="M849.1,184.3c-0.5-10.7-0.3-21.4-0.1-32c-0.1-17.8-0.7-35.6,0.1-53.4h0.1
						c0.8,17.8,0.2,35.6,0.1,53.4C849.5,162.9,849.9,173.9,849.1,184.3"/>
					<path id="Path_8155" fill="#4F3B36" d="M837.4,243.8c-0.5-10.7-0.3-21.4-0.1-32c-0.1-17.8-0.7-35.6,0.1-53.4h0.1
						c0.8,17.8,0.2,35.6,0.1,53.4C837.7,222.4,838.1,233.4,837.4,243.8"/>
					<path id="Path_8156" fill="#4F3B36" d="M852.9,149.7c-0.5-7.5-0.3-15-0.1-22.5c-0.1-12.5-0.7-25,0.1-37.6h0.1
						c0.8,12.5,0.2,25,0.1,37.6C853.2,134.6,853.6,142.4,852.9,149.7"/>
					<path id="Path_8157" fill="#684E46" d="M856.5,237c0,3.7-5.9,6.7-13.1,6.7c-7.2,0-13.1-3-13.1-6.7c0-3.7,5.9-6.7,13.1-6.7
						C850.6,230.2,856.5,233.3,856.5,237"/>
					<rect id="Rectangle_1116" x="732.3" y="44.7" fill="#684E46" width="221.9" height="12.6"/>
					<path id="Path_8158" fill="#684E46" d="M965.1,55.3c0-24-54.6-43.5-121.9-43.5S721.3,31.3,721.3,55.3s54.6,43.5,121.9,43.5
						S965.1,79.4,965.1,55.3"/>
					<rect id="Rectangle_1117" x="721.3" y="42.5" fill="#684E46" width="243.8" height="15.1"/>
					<path id="Path_8159" fill="#493632" d="M965.1,43.5c0-24-54.6-43.5-121.9-43.5S721.3,19.5,721.3,43.5S775.9,87,843.2,87
						S965.1,67.5,965.1,43.5"/>
					<path id="Path_8160" fill="#F2AD22" d="M843.4,269.4c-41.3,0-73.7-10.7-73.7-24.4c0-0.5,0.4-0.9,0.9-0.9c0.5,0,0.9,0.4,0.9,0.9
						c0,0,0,0,0,0c0,12.2,32.9,22.6,71.9,22.6s71.9-10.3,71.9-22.6c0-0.5,0.4-0.9,0.9-0.9c0.5,0,0.9,0.4,0.9,0.9c0,0,0,0,0,0
						C917.1,258.7,884.7,269.4,843.4,269.4"/>
				</g>
			</g>
		</g>
	</g>
</g>
</svg>
