<svg xmlns="http://www.w3.org/2000/svg" xmlns:xlink="http://www.w3.org/1999/xlink" width="587.281" height="281.589" viewBox="0 0 587.281 281.589">
  <defs>
    <clipPath id="clip-path">
      <rect id="Rectangle_1063" data-name="Rectangle 1063" width="10.064" height="11.201" transform="translate(700.066 348.011)" fill="none"/>
    </clipPath>
    <clipPath id="clip-path-2">
      <rect id="Rectangle_1065" data-name="Rectangle 1065" width="10.07" height="11.201" transform="translate(1201.92 348.011)" fill="none"/>
    </clipPath>
    <clipPath id="clip-path-3">
      <rect id="Rectangle_1067" data-name="Rectangle 1067" width="10.07" height="11.201" transform="translate(1201.92 124.289)" fill="none"/>
    </clipPath>
    <clipPath id="clip-path-4">
      <rect id="Rectangle_1069" data-name="Rectangle 1069" width="10.064" height="11.201" transform="translate(700.066 124.289)" fill="none"/>
    </clipPath>
  </defs>
  <g id="slot-bg-wood" transform="translate(-666.36 -106.818)">
    <g id="Group_3108" data-name="Group 3108">
      <path id="Path_7803" data-name="Path 7803" d="M1253.641,119.636H667.025V133.59l16.805,1.916-16.805,1.916v9.59l29.544,3.369-29.544,3.368v33.988h-.665V201.69l16.8,1.916-16.8,1.916v9.591l29.544,3.368L666.36,221.85v55.956l16.9,1.928-16.9,1.927v9.568L696,294.608l-29.641,3.38v47.483l16.9,1.928-16.9,1.927v9.568L696,362.273l-29.641,3.38v22.754h586.615V374.453l-16.8-1.916,16.8-1.916v-9.59l-29.543-3.369,29.543-3.369V306.788l-16.8-1.916,16.8-1.916v-9.591L1223.432,290l29.543-3.369V230.672l-16.9-1.928,16.9-1.927v-9.568l-29.641-3.379,29.641-3.38V187.843h.666V162.571l-16.9-1.927,16.9-1.927v-9.568L1224,145.769l29.642-3.38Z" fill="#33292c"/>
      <path id="Path_7804" data-name="Path 7804" d="M1253.641,106.818H667.025v13.954l16.805,1.916L667.025,124.6V134.2l29.544,3.368-29.544,3.368v33.987h-.665v13.954l16.8,1.916-16.8,1.916V202.3l29.544,3.368-29.544,3.369v55.957l16.9,1.927-16.9,1.927v9.568L696,281.79l-29.642,3.38v47.484l16.9,1.927-16.9,1.927v9.568L696,349.455l-29.642,3.38v22.754h586.615V361.635l-16.8-1.916,16.8-1.916v-9.591l-29.543-3.368,29.543-3.369V293.97l-16.8-1.916,16.8-1.916v-9.591l-29.543-3.368,29.543-3.369V217.853l-16.9-1.927,16.9-1.927v-9.568l-29.641-3.379,29.641-3.38V175.025h.666V149.753l-16.9-1.927,16.9-1.927v-9.568L1224,132.951l29.642-3.379Z" fill="#5b4a45"/>
      <g id="Group_1785" data-name="Group 1785" opacity="0.5">
        <g id="Group_1784" data-name="Group 1784">
          <g id="Group_1783" data-name="Group 1783" clip-path="url(#clip-path)">
            <path id="Path_7805" data-name="Path 7805" d="M710.13,353.611a5.06,5.06,0,1,1-5.032-5.6,5.34,5.34,0,0,1,5.032,5.6" fill="#231c1e"/>
          </g>
        </g>
      </g>
      <rect id="Rectangle_1064" data-name="Rectangle 1064" width="10.588" height="1.04" transform="matrix(0.702, -0.712, 0.712, 0.702, 701.11, 357.135)" fill="#5b4a45"/>
      <g id="Group_1788" data-name="Group 1788" opacity="0.5">
        <g id="Group_1787" data-name="Group 1787">
          <g id="Group_1786" data-name="Group 1786" clip-path="url(#clip-path-2)">
            <path id="Path_7806" data-name="Path 7806" d="M1211.986,353.611a5.06,5.06,0,1,1-5.032-5.6,5.34,5.34,0,0,1,5.032,5.6" fill="#231c1e"/>
          </g>
        </g>
      </g>
      <rect id="Rectangle_1066" data-name="Rectangle 1066" width="14.086" height="1.041" transform="translate(1202.251 358.898) rotate(-52.689)" fill="#5b4a45"/>
      <g id="Group_1791" data-name="Group 1791" opacity="0.5">
        <g id="Group_1790" data-name="Group 1790">
          <g id="Group_1789" data-name="Group 1789" clip-path="url(#clip-path-3)">
            <path id="Path_7807" data-name="Path 7807" d="M1201.923,129.889a5.06,5.06,0,1,1,5.032,5.6,5.34,5.34,0,0,1-5.032-5.6" fill="#231c1e"/>
          </g>
        </g>
      </g>
      <rect id="Rectangle_1068" data-name="Rectangle 1068" width="10.588" height="1.04" transform="translate(1202.766 133.173) rotate(-45.39)" fill="#5b4a45"/>
      <g id="Group_1794" data-name="Group 1794" opacity="0.5">
        <g id="Group_1793" data-name="Group 1793">
          <g id="Group_1792" data-name="Group 1792" clip-path="url(#clip-path-4)">
            <path id="Path_7808" data-name="Path 7808" d="M700.066,129.889a5.06,5.06,0,1,1,5.032,5.6,5.34,5.34,0,0,1-5.032-5.6" fill="#231c1e"/>
          </g>
        </g>
      </g>
      <rect id="Rectangle_1070" data-name="Rectangle 1070" width="14.086" height="1.041" transform="matrix(0.606, -0.795, 0.795, 0.606, 700.435, 135.176)" fill="#5b4a45"/>
      <path id="Path_7809" data-name="Path 7809" d="M941.542,133.315c27.053-.844,54.1-.583,81.157-.185,45.089-.173,90.176-1.146,135.262.185v.15c-45.086,1.331-90.173.359-135.262.184-26.951.251-54.494.943-81.157-.334" fill="#4f3b36"/>
      <path id="Path_7810" data-name="Path 7810" d="M1029.368,137.515c19.028-.844,38.051-.583,57.077-.184,31.712-.175,63.422-1.147,95.129.184v.15c-31.707,1.331-63.417.358-95.129.185-18.923.252-38.441.939-57.077-.335" fill="#4f3b36"/>
      <path id="Path_7811" data-name="Path 7811" d="M712.756,172.932c27.053-.843,54.105-.583,81.157-.184,45.09-.174,90.176-1.147,135.262.184v.15c-45.086,1.331-90.172.359-135.262.185-26.95.25-54.495.942-81.157-.335" fill="#4f3b36"/>
      <path id="Path_7812" data-name="Path 7812" d="M800.582,177.132c19.027-.844,38.051-.583,57.077-.185,31.712-.174,63.422-1.146,95.129.185v.15c-31.708,1.33-63.417.359-95.129.184-18.924.252-38.441.94-57.077-.334" fill="#4f3b36"/>
      <path id="Path_7813" data-name="Path 7813" d="M944.91,345.835c27.054-.843,54.1-.583,81.157-.184,45.089-.175,90.177-1.147,135.262.184v.15c-45.085,1.331-90.173.358-135.262.185-26.951.25-54.494.941-81.157-.335" fill="#4f3b36"/>
      <path id="Path_7814" data-name="Path 7814" d="M1032.736,350.036c19.027-.843,38.051-.583,57.077-.184,31.712-.175,63.422-1.146,95.129.184v.15c-31.707,1.331-63.417.359-95.129.185-18.923.251-38.442.94-57.077-.335" fill="#4f3b36"/>
      <path id="Path_7815" data-name="Path 7815" d="M776.468,252.723c27.054-.843,54.1-.583,81.157-.184,45.089-.175,90.176-1.147,135.262.184v.15c-45.086,1.332-90.173.358-135.262.185-26.951.25-54.494.941-81.157-.335" fill="#4f3b36"/>
    </g>
  </g>
</svg>
