<svg id="slot-title" xmlns="http://www.w3.org/2000/svg" xmlns:xlink="http://www.w3.org/1999/xlink" width="457.544" height="198.988" viewBox="0 0 457.544 198.988">
  <defs>
    <clipPath id="clip-path">
      <rect id="Rectangle_1086" data-name="Rectangle 1086" width="457.544" height="198.988" fill="none"/>
    </clipPath>
    <clipPath id="clip-path-3">
      <rect id="Rectangle_1073" data-name="Rectangle 1073" width="5.598" height="5.926" transform="translate(75.365 57.81)" fill="none"/>
    </clipPath>
    <clipPath id="clip-path-4">
      <rect id="Rectangle_1074" data-name="Rectangle 1074" width="5.599" height="5.926" transform="translate(170.784 72.234)" fill="none"/>
    </clipPath>
    <clipPath id="clip-path-5">
      <rect id="Rectangle_1075" data-name="Rectangle 1075" width="5.599" height="5.927" transform="translate(260.62 62.218)" fill="none"/>
    </clipPath>
    <clipPath id="clip-path-6">
      <rect id="Rectangle_1076" data-name="Rectangle 1076" width="5.598" height="5.927" transform="translate(253.386 91.717)" fill="none"/>
    </clipPath>
    <clipPath id="clip-path-7">
      <rect id="Rectangle_1077" data-name="Rectangle 1077" width="5.598" height="5.927" transform="translate(34.11 57.295)" fill="none"/>
    </clipPath>
    <clipPath id="clip-path-8">
      <rect id="Rectangle_1078" data-name="Rectangle 1078" width="5.598" height="5.927" transform="translate(265.866 122.715)" fill="none"/>
    </clipPath>
    <clipPath id="clip-path-9">
      <rect id="Rectangle_1079" data-name="Rectangle 1079" width="5.599" height="5.927" transform="translate(165.994 97.285)" fill="none"/>
    </clipPath>
    <clipPath id="clip-path-10">
      <rect id="Rectangle_1080" data-name="Rectangle 1080" width="5.598" height="5.927" transform="translate(348.091 106.093)" fill="none"/>
    </clipPath>
    <clipPath id="clip-path-11">
      <rect id="Rectangle_1081" data-name="Rectangle 1081" width="5.599" height="5.926" transform="translate(449.45 74.209)" fill="none"/>
    </clipPath>
    <clipPath id="clip-path-12">
      <path id="Path_7927" data-name="Path 7927" d="M5.559,128.72a6.854,6.854,0,1,0,5.849-3.269,6.856,6.856,0,0,0-5.849,3.269" fill="none"/>
    </clipPath>
    <clipPath id="clip-path-13">
      <path id="Path_7928" data-name="Path 7928" d="M7.857,138.081A6.775,6.775,0,0,1,9.826,125.72a6.839,6.839,0,0,1,1.589-.189A6.777,6.777,0,0,1,12.977,138.9a6.824,6.824,0,0,1-1.588.189,6.726,6.726,0,0,1-3.532-1.006m1.931-12.519a6.939,6.939,0,0,0,1.6,13.687,6.994,6.994,0,0,0,1.626-.193,6.938,6.938,0,0,0-1.6-13.686,7.007,7.007,0,0,0-1.627.192" fill="none"/>
    </clipPath>
    <linearGradient id="linear-gradient" x1="-0.09" y1="3.92" x2="-0.038" y2="3.92" gradientUnits="objectBoundingBox">
      <stop offset="0" stop-color="#fccd00"/>
      <stop offset="1" stop-color="#f1942e"/>
    </linearGradient>
    <clipPath id="clip-path-15">
      <path id="Path_8076" data-name="Path 8076" d="M18.8,130.07a7.961,7.961,0,0,1-12.357,8.338,7.961,7.961,0,1,0,10.037-12.315,7.934,7.934,0,0,1,2.32,3.977" fill="none"/>
    </clipPath>
  </defs>
  <g id="Group_1837" data-name="Group 1837" clip-path="url(#clip-path)">
    <g id="Group_1826" data-name="Group 1826">
      <g id="Group_1825" data-name="Group 1825" clip-path="url(#clip-path)">
        <path id="Path_7819" data-name="Path 7819" d="M146.626,42.265a2.1,2.1,0,0,1-1.643-.006,2.488,2.488,0,0,1-1.432-.877,2.1,2.1,0,0,1-.083-1.631,34.217,34.217,0,0,0,.268-5.92c-.059-1.516.645-2.275,2.1-2.267,1.345.026,2.035.674,2.071,1.935.022,1.35-.02,2.756-.127,4.207q-.162,1.836-.371,3.079a2.049,2.049,0,0,1-.784,1.48m15.867,1.788a2,2,0,0,1-2.541-1.917q-.333-2.583-.664-5.167c-.539.256-1.075.511-1.611.769a1.311,1.311,0,0,1-1.084.1,1.047,1.047,0,0,1-.618-.693,38.784,38.784,0,0,0-1.78-4.326,1.672,1.672,0,0,1,.939-2.585,1.65,1.65,0,0,1,2.4.716c.548,1.017.992,1.94,1.33,2.755q-.378-2.942-.758-5.887l-1.4.872a1.176,1.176,0,0,1-.977.193.992.992,0,0,1-.64-.624l-.4-.982a1.43,1.43,0,0,0-.128-.284q-1.086.233-2.172.469,1.066,7.7,2.135,15.4a2.179,2.179,0,0,1-4.313.615q-1.1-7.523-2.206-15.042-1.861.424-3.722.861a2.045,2.045,0,0,1-2.8-1.551q-.612-2.194,1.744-2.694l.744-.157q.725-1.141,1.614-2.792a33.575,33.575,0,0,0-4.441-4.032,1.886,1.886,0,0,1-.749-1.568,3.222,3.222,0,0,1,.454-1.8,2.262,2.262,0,0,1,.833-.865,1.217,1.217,0,0,1,1.163.082,50.723,50.723,0,0,0,1.656-5.6,2.251,2.251,0,0,1,.911-1.557,2.93,2.93,0,0,1,1.946-.195q2.475.429,1.558,2.842a66.562,66.562,0,0,1-2.91,6.934,18.439,18.439,0,0,1,1.672,1.438q1.395-2.961,2.3-5.414a2.191,2.191,0,0,1,1.1-1.381,2.877,2.877,0,0,1,1.842.031c1.627.443,2.049,1.389,1.3,2.843-1.975,3.767-3.83,7.128-5.6,10.087q1.887-.381,3.773-.748a2.907,2.907,0,0,0-.265-.459,3.816,3.816,0,0,0-.307-.411c-.843-1.12-.629-2.026.667-2.72a1.823,1.823,0,0,1,2.693.5A36.651,36.651,0,0,1,157.6,23.88q-.939-7.306-1.88-14.613a2.608,2.608,0,0,1,.561-2.1,3.008,3.008,0,0,1,2.043-1.03q4.576-.565,9.159-1.059t9.17-.916a3.008,3.008,0,0,1,2.214.573,2.593,2.593,0,0,1,.994,1.927q1.308,15.06,2.616,30.123a6.808,6.808,0,0,1-.191,2.76,3.231,3.231,0,0,1-1.325,1.619,9.756,9.756,0,0,1-3.775,1.126c-1.7.225-2.778-.237-3.248-1.391-.714-1.615.071-2.515,2.375-2.686.282-.029.558-.057.816-.079a.768.768,0,0,0,.738-.93q-1.31-13.731-2.616-27.463c-.064-.679-.461-.989-1.185-.916q-6.159.6-12.31,1.327-1.081.129-.961,1.147,1.821,15.138,3.643,30.274a1.974,1.974,0,0,1-1.949,2.476m8.65-7.451c-1.987.21-3.332-.033-4.062-.753q-1.074-.994-1.438-4.09-.215-1.845-.428-3.69l-.087.009a1.136,1.136,0,0,1-.993-.312,1.69,1.69,0,0,1-.455-1.023,2.663,2.663,0,0,1,.29-1.71,1.785,1.785,0,0,1,1.419-.854q.906-.1,1.81-.2-.186-1.656-.37-3.311l-1.687.192a1.846,1.846,0,0,1-1.56-.442,2.435,2.435,0,0,1-.7-1.531c-.127-1.07.3-1.673,1.285-1.784l.087-.011a23,23,0,0,0-1.849-4.556.32.32,0,0,1,.172-.493l.128-.059a2.538,2.538,0,0,1,2.278-.047,3.283,3.283,0,0,1,1.564,1.759,2.931,2.931,0,0,1,.247,1.82,1.99,1.99,0,0,1-1.159,1.375l-.085.053q2.748-.31,5.5-.6l-1.064-.233c-.5-.119-.693-.4-.586-.839q.324-1.194.7-3.252a1.719,1.719,0,0,1,2.293-1.651c1.361.234,1.778,1.086,1.254,2.536-.094.271-.222.648-.384,1.154-.353,1.007-.617,1.72-.782,2.138l.134-.013a1.738,1.738,0,0,1,2.2,1.713c.122,1.276-.48,1.976-1.814,2.111l-1.775.182q.173,1.656.344,3.313c.633-.065,1.266-.131,1.9-.194a1.73,1.73,0,0,1,2.174,1.716,1.732,1.732,0,0,1-1.789,2.108q-2.174.219-4.343.454l.4,3.736a3.074,3.074,0,0,0,.253,1.111.513.513,0,0,0,.551.22q1.455-.156,2.912-.305a.751.751,0,0,0,.088-.009c1.344-.307,2.167.258,2.447,1.687a1.69,1.69,0,0,1-1.226,2.182c-.286.031-.59.059-.906.091q-1.446.148-2.892.3" fill="#fff7f3"/>
        <path id="Path_7820" data-name="Path 7820" d="M211.186,38.542a2.659,2.659,0,0,1-2.9-2.668q-.194-4.821-.389-9.644l-.648.284a.318.318,0,0,1-.487-.107,1.488,1.488,0,0,1-.14-.166,16.833,16.833,0,0,0-1.4-1.9c.01.257.022.513.034.768a.421.421,0,0,1-.461.491q-2.154.1-4.307.214l.3,5.672q1.333-.371,2.669-.735,2.327-.663,2.694,1.757a2.152,2.152,0,0,1-1.7,2.642c-2.678.812-6.609,1.953-11.772,3.506-.478.148-.831.259-1.055.33-1.435.441-2.392-.253-2.879-2.1q-.546-2.058,1.249-2.49l.086-.007q-.447-6.133-.9-12.267a2.131,2.131,0,0,1,4.249-.294q.374,5.709.747,11.421c.713-.19,1.429-.378,2.143-.564q-.493-8.013-.986-16.027-1.651.1-3.3.213a2.927,2.927,0,0,1-2.153-.623,2.636,2.636,0,0,1-.951-1.944q-.311-4.281-.619-8.561a2.6,2.6,0,0,1,.678-2.061,3,3,0,0,1,2.1-.916q2.424-.163,4.85-.306t4.849-.267a3,3,0,0,1,2.188.664,2.619,2.619,0,0,1,.916,1.966q.177,3.9.357,7.807A27.776,27.776,0,0,0,210.414,2.5,2.54,2.54,0,0,1,213.656.649c1.822.374,2.417,1.388,1.824,3.026a.575.575,0,0,1-.062.193c-.045.1-.079.179-.108.238q3.671-.1,7.342-.147a2.407,2.407,0,0,1,2.177.892,3.1,3.1,0,0,1,.141,2.626,28.534,28.534,0,0,1-5.043,9.212,34.989,34.989,0,0,0,5.565,3.3,2.964,2.964,0,0,1,2.03,1.757,2.664,2.664,0,0,1-.756,2.46,9.63,9.63,0,0,0-.87,1.416l-.086-.041q.044,4.933.086,9.865a2.707,2.707,0,0,1-.758,2.014,2.75,2.75,0,0,1-2.012.792q-5.97.084-11.94.294m-16.665-26.2q1.866-.114,3.735-.221c.72-.04,1.062-.4,1.025-1.083-.062-1.123-.121-2.245-.183-3.368-.04-.685-.42-1.008-1.146-.964-.635.035-1.272.071-1.906.11s-1.271.076-1.908.116c-.721.045-1.069.409-1.024,1.092q.131,1.682.263,3.363c.044.683.427,1,1.144.955m10.607,10.122a35.417,35.417,0,0,0,4.29-2.485,31.042,31.042,0,0,0,3.9-3.166,34.431,34.431,0,0,1-2.9-3.664c-.575.759-1,1.319-1.287,1.67a1.92,1.92,0,0,1-1.251.689,1.576,1.576,0,0,1-1.249-.419,21.533,21.533,0,0,0-2.362-1.649q.035.745.068,1.493c.038.825-.372,1.259-1.241,1.3q-1.563.073-3.126.158l.267,4.989q1.794-.1,3.587-.181a1.075,1.075,0,0,1,1.294,1.139l.006.127m6.3,1.76q2.709-.093,5.42-.159t5.419-.107a35.886,35.886,0,0,1-5.558-3.777,36.852,36.852,0,0,1-5.281,4.043m2.546,9.874q2.986-.09,5.975-.148A.915.915,0,0,0,220.97,32.9l-.081-4.654q-2.036.035-4.068.085t-4.066.116q.075,2.327.149,4.653a.913.913,0,0,0,1.07.992m2.345-20.657a27.522,27.522,0,0,0,1.741-2.476,18.328,18.328,0,0,0,1.392-2.634q-3.079.06-6.158.152c-.114.217-.228.435-.343.651a37.952,37.952,0,0,0,3.368,4.307" fill="#fff7f3"/>
        <path id="Path_7821" data-name="Path 7821" d="M235.2,37.743c-.531-1.823.378-2.7,2.744-2.619.169,0,.332,0,.474.007a.71.71,0,0,0,.747-.8q.066-4.356.131-8.711c-.232.052-.581.148-1.037.284s-.8.249-1.036.329a2.9,2.9,0,0,1-2.194-.085,2.718,2.718,0,0,1-1.131-1.779,2.884,2.884,0,0,1,.1-2.157,2.7,2.7,0,0,1,1.867-1.033c.358-.081.884-.2,1.6-.367.829-.163,1.464-.294,1.911-.4q.06-3.949.119-7.9-1.552-.022-3.1-.038c-1.645-.016-2.467-.8-2.458-2.368s.839-2.346,2.5-2.329q1.564.015,3.128.038.04-2.688.081-5.38c.026-1.652.924-2.466,2.7-2.431s2.644.887,2.6,2.535l-.129,5.379c.65.016,1.3.031,1.95.05,1.658.045,2.469.855,2.416,2.421s-.9,2.319-2.544,2.275q-.968-.027-1.935-.05-.081,3.33-.16,6.66L245.757,19c1.671-.354,2.575.3,2.7,1.957a2.155,2.155,0,0,1-1.756,2.512q-1.136.331-2.269.668-.062,2.561-.122,5.122l-.123,5.124a8.264,8.264,0,0,1-.478,2.915,3.057,3.057,0,0,1-1.433,1.57,9.172,9.172,0,0,1-3.744.747q-2.744.046-3.329-1.874m12.079.356a2.246,2.246,0,0,1-.191-2.355,3.641,3.641,0,0,1,2.329-1.166,30.184,30.184,0,0,0,6.614-2.562,28.966,28.966,0,0,1-3.5-5.147,2.492,2.492,0,0,1-.2-2.251,2.629,2.629,0,0,1,1.8-1.318c.253-.062.507-.121.76-.183q-1.212-.051-2.429-.1a2.069,2.069,0,0,1-1.724-1.216,4.414,4.414,0,0,1-.5-2.283,1.365,1.365,0,0,1,.249-.76.649.649,0,0,1,.592-.365c.03,0,.059,0,.09,0a11.643,11.643,0,0,0-1.625-2.106c-1.157-1.121-.87-2.28.876-3.474A9.3,9.3,0,0,0,253.051,6.2l.087-2.3a1.936,1.936,0,0,1,.653-1.471,2.254,2.254,0,0,1,1.624-.491q5.448.228,10.893.555a3.037,3.037,0,0,1,2.1.9A2.612,2.612,0,0,1,269.1,5.45q-.211,3.239-.422,6.477A2.518,2.518,0,0,0,268.744,13a.584.584,0,0,0,.524.249l1.214.082c.239.016.393-.041.463-.183a4.714,4.714,0,0,1,1.035-2.495,1.761,1.761,0,0,1,2.242-.265,2.125,2.125,0,0,1,1.048,1.749,6.475,6.475,0,0,1-.128,2.261,4.727,4.727,0,0,1-1.638,2.617,4.216,4.216,0,0,1-2.729.532q-1.383-.1-2.766-.186c-1.812-.119-3.033-.573-3.658-1.38s-.881-2.246-.765-4.321q.1-1.791.2-3.582c.039-.68-.3-1.044-1.03-1.084q-2.338-.128-4.679-.236c-.316,5.4-2.6,9.263-6.783,11.645q4.138.149,8.276.356,4.738.237,9.473.553a2.281,2.281,0,0,1,2.025,1.038,3.256,3.256,0,0,1-.1,2.732,25.29,25.29,0,0,1-6.642,9.454,29.151,29.151,0,0,0,5.683,2.894c2.664.878,3.212,2.234,1.7,4.062a3.129,3.129,0,0,1-3.717.808,32.907,32.907,0,0,1-8.1-4.591,35.335,35.335,0,0,1-9.089,3.7q-2.508.639-3.522-1.313m12.947-8.829a19.449,19.449,0,0,0,4.852-5.63q-2.271-.138-4.544-.256-2.253-.117-4.5-.217a21.007,21.007,0,0,0,4.2,6.1" fill="#fff7f3"/>
        <path id="Path_7822" data-name="Path 7822" d="M285.772,42.388a2.126,2.126,0,0,1-2.165-2.615l1.9-19.853c-.3.31-.6.632-.895.945a3.315,3.315,0,0,1-2.407,1.151q-.991-.132-1.739-1.827a3.49,3.49,0,0,1-.334-2.086,3.065,3.065,0,0,1,1.2-1.7,49.5,49.5,0,0,0,8.977-11.163,2.458,2.458,0,0,1,3.538-1.176c1.65.692,2.052,1.758,1.221,3.182a58.1,58.1,0,0,1-3.82,5.776q-.774,7.413-1.546,14.825-.645,6.2-1.293,12.4a2.126,2.126,0,0,1-2.637,2.135m17.979,2.18a2.259,2.259,0,0,1-2.233-2.834q.526-4.109,1.054-8.216a35.5,35.5,0,0,1-8.049,6.762,3.159,3.159,0,0,1-2.054.519,2.617,2.617,0,0,1-1.6-1.272,2.618,2.618,0,0,1-.611-2.191,3.242,3.242,0,0,1,1.851-1.582,33.516,33.516,0,0,0,8.533-6.612q-3.26-.405-6.522-.771a2.077,2.077,0,0,1-2.119-2.552,2.074,2.074,0,0,1,2.633-2.031q4.524.507,9.043,1.087.244-1.906.489-3.812-2.861-.367-5.726-.706a2.949,2.949,0,0,1-2-1.006,2.658,2.658,0,0,1-.577-2.086q.512-4.519,1.022-9.039a2.623,2.623,0,0,1,1.046-1.9,2.987,2.987,0,0,1,2.229-.515q4.44.523,8.875,1.117T317.9,8.18a3,3,0,0,1,2.018,1.082,2.6,2.6,0,0,1,.512,2.109l-1.386,8.99a2.629,2.629,0,0,1-1.105,1.861,2.93,2.93,0,0,1-2.2.445q-3.144-.468-6.292-.9-.263,1.905-.525,3.808,4.427.609,8.846,1.289a2.078,2.078,0,0,1,2.014,2.648,2.079,2.079,0,0,1-2.715,1.91q-3.14-.481-6.283-.929a34.625,34.625,0,0,0,6.125,8.555,3.126,3.126,0,0,1,1.239,2.053,2.7,2.7,0,0,1-1.2,1.929,2.77,2.77,0,0,1-1.873.811,2.974,2.974,0,0,1-1.8-1.114,39.764,39.764,0,0,1-5.513-8.732q-.58,4.208-1.16,8.418a2.243,2.243,0,0,1-2.855,2.157m-1.6-28.279q5.415.671,10.82,1.442a.934.934,0,0,0,1.217-.86q.263-1.818.526-3.635c.1-.676-.213-1.068-.934-1.17q-2.729-.39-5.461-.754t-5.465-.7q-1.082-.133-1.208.883-.222,1.823-.445,3.646c-.082.68.233,1.065.95,1.15" fill="#fff7f3"/>
        <path id="Path_7823" data-name="Path 7823" d="M146.626,42.265a2.1,2.1,0,0,1-1.643-.006,2.488,2.488,0,0,1-1.432-.877,2.1,2.1,0,0,1-.083-1.631,34.217,34.217,0,0,0,.268-5.92c-.059-1.516.645-2.275,2.1-2.267,1.345.026,2.035.674,2.071,1.935.022,1.35-.02,2.756-.127,4.207q-.162,1.836-.371,3.079a2.049,2.049,0,0,1-.784,1.48m15.867,1.788a2,2,0,0,1-2.541-1.917q-.333-2.583-.664-5.167c-.539.256-1.075.511-1.611.769a1.311,1.311,0,0,1-1.084.1,1.047,1.047,0,0,1-.618-.693,38.784,38.784,0,0,0-1.78-4.326,1.672,1.672,0,0,1,.939-2.585,1.65,1.65,0,0,1,2.4.716c.548,1.017.992,1.94,1.33,2.755q-.378-2.942-.758-5.887l-1.4.872a1.176,1.176,0,0,1-.977.193.992.992,0,0,1-.64-.624l-.4-.982a1.43,1.43,0,0,0-.128-.284q-1.086.233-2.172.469,1.066,7.7,2.135,15.4a2.179,2.179,0,0,1-4.313.615q-1.1-7.523-2.206-15.042-1.861.424-3.722.861a2.045,2.045,0,0,1-2.8-1.551q-.612-2.194,1.744-2.694l.744-.157q.725-1.141,1.614-2.792a33.575,33.575,0,0,0-4.441-4.032,1.886,1.886,0,0,1-.749-1.568,3.222,3.222,0,0,1,.454-1.8,2.262,2.262,0,0,1,.833-.865,1.217,1.217,0,0,1,1.163.082,50.723,50.723,0,0,0,1.656-5.6,2.251,2.251,0,0,1,.911-1.557,2.93,2.93,0,0,1,1.946-.195q2.475.429,1.558,2.842a66.562,66.562,0,0,1-2.91,6.934,18.439,18.439,0,0,1,1.672,1.438q1.395-2.961,2.3-5.414a2.191,2.191,0,0,1,1.1-1.381,2.877,2.877,0,0,1,1.842.031c1.627.443,2.049,1.389,1.3,2.843-1.975,3.767-3.83,7.128-5.6,10.087q1.887-.381,3.773-.748a2.907,2.907,0,0,0-.265-.459,3.816,3.816,0,0,0-.307-.411c-.843-1.12-.629-2.026.667-2.72a1.823,1.823,0,0,1,2.693.5A36.651,36.651,0,0,1,157.6,23.88q-.939-7.306-1.88-14.613a2.608,2.608,0,0,1,.561-2.1,3.008,3.008,0,0,1,2.043-1.03q4.576-.565,9.159-1.059t9.17-.916a3.008,3.008,0,0,1,2.214.573,2.593,2.593,0,0,1,.994,1.927q1.308,15.06,2.616,30.123a6.808,6.808,0,0,1-.191,2.76,3.231,3.231,0,0,1-1.325,1.619,9.756,9.756,0,0,1-3.775,1.126c-1.7.225-2.778-.237-3.248-1.391-.714-1.615.071-2.515,2.375-2.686.282-.029.558-.057.816-.079a.768.768,0,0,0,.738-.93q-1.31-13.731-2.616-27.463c-.064-.679-.461-.989-1.185-.916q-6.159.6-12.31,1.327-1.081.129-.961,1.147,1.821,15.138,3.643,30.274a1.974,1.974,0,0,1-1.949,2.476m8.65-7.451c-1.987.21-3.332-.033-4.062-.753q-1.074-.994-1.438-4.09-.215-1.845-.428-3.69l-.087.009a1.136,1.136,0,0,1-.993-.312,1.69,1.69,0,0,1-.455-1.023,2.663,2.663,0,0,1,.29-1.71,1.785,1.785,0,0,1,1.419-.854q.906-.1,1.81-.2-.186-1.656-.37-3.311l-1.687.192a1.846,1.846,0,0,1-1.56-.442,2.435,2.435,0,0,1-.7-1.531c-.127-1.07.3-1.673,1.285-1.784l.087-.011a23,23,0,0,0-1.849-4.556.32.32,0,0,1,.172-.493l.128-.059a2.538,2.538,0,0,1,2.278-.047,3.283,3.283,0,0,1,1.564,1.759,2.931,2.931,0,0,1,.247,1.82,1.99,1.99,0,0,1-1.159,1.375l-.085.053q2.748-.31,5.5-.6l-1.064-.233c-.5-.119-.693-.4-.586-.839q.324-1.194.7-3.252a1.719,1.719,0,0,1,2.293-1.651c1.361.234,1.778,1.086,1.254,2.536-.094.271-.222.648-.384,1.154-.353,1.007-.617,1.72-.782,2.138l.134-.013a1.738,1.738,0,0,1,2.2,1.713c.122,1.276-.48,1.976-1.814,2.111l-1.775.182q.173,1.656.344,3.313c.633-.065,1.266-.131,1.9-.194a1.73,1.73,0,0,1,2.174,1.716,1.732,1.732,0,0,1-1.789,2.108q-2.174.219-4.343.454l.4,3.736a3.074,3.074,0,0,0,.253,1.111.513.513,0,0,0,.551.22q1.455-.156,2.912-.305a.751.751,0,0,0,.088-.009c1.344-.307,2.167.258,2.447,1.687a1.69,1.69,0,0,1-1.226,2.182c-.286.031-.59.059-.906.091q-1.446.148-2.892.3" fill="#fff7f3"/>
        <path id="Path_7824" data-name="Path 7824" d="M211.186,38.542a2.659,2.659,0,0,1-2.9-2.668q-.194-4.821-.389-9.644l-.648.284a.318.318,0,0,1-.487-.107,1.488,1.488,0,0,1-.14-.166,16.833,16.833,0,0,0-1.4-1.9c.01.257.022.513.034.768a.421.421,0,0,1-.461.491q-2.154.1-4.307.214l.3,5.672q1.333-.371,2.669-.735,2.327-.663,2.694,1.757a2.152,2.152,0,0,1-1.7,2.642c-2.678.812-6.609,1.953-11.772,3.506-.478.148-.831.259-1.055.33-1.435.441-2.392-.253-2.879-2.1q-.546-2.058,1.249-2.49l.086-.007q-.447-6.133-.9-12.267a2.131,2.131,0,0,1,4.249-.294q.374,5.709.747,11.421c.713-.19,1.429-.378,2.143-.564q-.493-8.013-.986-16.027-1.651.1-3.3.213a2.927,2.927,0,0,1-2.153-.623,2.636,2.636,0,0,1-.951-1.944q-.311-4.281-.619-8.561a2.6,2.6,0,0,1,.678-2.061,3,3,0,0,1,2.1-.916q2.424-.163,4.85-.306t4.849-.267a3,3,0,0,1,2.188.664,2.619,2.619,0,0,1,.916,1.966q.177,3.9.357,7.807A27.776,27.776,0,0,0,210.414,2.5,2.54,2.54,0,0,1,213.656.649c1.822.374,2.417,1.388,1.824,3.026a.575.575,0,0,1-.062.193c-.045.1-.079.179-.108.238q3.671-.1,7.342-.147a2.407,2.407,0,0,1,2.177.892,3.1,3.1,0,0,1,.141,2.626,28.534,28.534,0,0,1-5.043,9.212,34.989,34.989,0,0,0,5.565,3.3,2.964,2.964,0,0,1,2.03,1.757,2.664,2.664,0,0,1-.756,2.46,9.63,9.63,0,0,0-.87,1.416l-.086-.041q.044,4.933.086,9.865a2.707,2.707,0,0,1-.758,2.014,2.75,2.75,0,0,1-2.012.792q-5.97.084-11.94.294m-16.665-26.2q1.866-.114,3.735-.221c.72-.04,1.062-.4,1.025-1.083-.062-1.123-.121-2.245-.183-3.368-.04-.685-.42-1.008-1.146-.964-.635.035-1.272.071-1.906.11s-1.271.076-1.908.116c-.721.045-1.069.409-1.024,1.092q.131,1.682.263,3.363c.044.683.427,1,1.144.955m10.607,10.122a35.417,35.417,0,0,0,4.29-2.485,31.042,31.042,0,0,0,3.9-3.166,34.431,34.431,0,0,1-2.9-3.664c-.575.759-1,1.319-1.287,1.67a1.92,1.92,0,0,1-1.251.689,1.576,1.576,0,0,1-1.249-.419,21.533,21.533,0,0,0-2.362-1.649q.035.745.068,1.493c.038.825-.372,1.259-1.241,1.3q-1.563.073-3.126.158l.267,4.989q1.794-.1,3.587-.181a1.075,1.075,0,0,1,1.294,1.139l.006.127m6.3,1.76q2.709-.093,5.42-.159t5.419-.107a35.886,35.886,0,0,1-5.558-3.777,36.852,36.852,0,0,1-5.281,4.043m2.546,9.874q2.986-.09,5.975-.148A.915.915,0,0,0,220.97,32.9l-.081-4.654q-2.036.035-4.068.085t-4.066.116q.075,2.327.149,4.653a.913.913,0,0,0,1.07.992m2.345-20.657a27.522,27.522,0,0,0,1.741-2.476,18.328,18.328,0,0,0,1.392-2.634q-3.079.06-6.158.152c-.114.217-.228.435-.343.651a37.952,37.952,0,0,0,3.368,4.307" fill="#fff7f3"/>
        <path id="Path_7825" data-name="Path 7825" d="M235.2,37.743c-.531-1.823.378-2.7,2.744-2.619.169,0,.332,0,.474.007a.71.71,0,0,0,.747-.8q.066-4.356.131-8.711c-.232.052-.581.148-1.037.284s-.8.249-1.036.329a2.9,2.9,0,0,1-2.194-.085,2.718,2.718,0,0,1-1.131-1.779,2.884,2.884,0,0,1,.1-2.157,2.7,2.7,0,0,1,1.867-1.033c.358-.081.884-.2,1.6-.367.829-.163,1.464-.294,1.911-.4q.06-3.949.119-7.9-1.552-.022-3.1-.038c-1.645-.016-2.467-.8-2.458-2.368s.839-2.346,2.5-2.329q1.564.015,3.128.038.04-2.688.081-5.38c.026-1.652.924-2.466,2.7-2.431s2.644.887,2.6,2.535l-.129,5.379c.65.016,1.3.031,1.95.05,1.658.045,2.469.855,2.416,2.421s-.9,2.319-2.544,2.275q-.968-.027-1.935-.05-.081,3.33-.16,6.66L245.757,19c1.671-.354,2.575.3,2.7,1.957a2.155,2.155,0,0,1-1.756,2.512q-1.136.331-2.269.668-.062,2.561-.122,5.122l-.123,5.124a8.264,8.264,0,0,1-.478,2.915,3.057,3.057,0,0,1-1.433,1.57,9.172,9.172,0,0,1-3.744.747q-2.744.046-3.329-1.874m12.079.356a2.246,2.246,0,0,1-.191-2.355,3.641,3.641,0,0,1,2.329-1.166,30.184,30.184,0,0,0,6.614-2.562,28.966,28.966,0,0,1-3.5-5.147,2.492,2.492,0,0,1-.2-2.251,2.629,2.629,0,0,1,1.8-1.318c.253-.062.507-.121.76-.183q-1.212-.051-2.429-.1a2.069,2.069,0,0,1-1.724-1.216,4.414,4.414,0,0,1-.5-2.283,1.365,1.365,0,0,1,.249-.76.649.649,0,0,1,.592-.365c.03,0,.059,0,.09,0a11.643,11.643,0,0,0-1.625-2.106c-1.157-1.121-.87-2.28.876-3.474A9.3,9.3,0,0,0,253.051,6.2l.087-2.3a1.936,1.936,0,0,1,.653-1.471,2.254,2.254,0,0,1,1.624-.491q5.448.228,10.893.555a3.037,3.037,0,0,1,2.1.9A2.612,2.612,0,0,1,269.1,5.45q-.211,3.239-.422,6.477A2.518,2.518,0,0,0,268.744,13a.584.584,0,0,0,.524.249l1.214.082c.239.016.393-.041.463-.183a4.714,4.714,0,0,1,1.035-2.495,1.761,1.761,0,0,1,2.242-.265,2.125,2.125,0,0,1,1.048,1.749,6.475,6.475,0,0,1-.128,2.261,4.727,4.727,0,0,1-1.638,2.617,4.216,4.216,0,0,1-2.729.532q-1.383-.1-2.766-.186c-1.812-.119-3.033-.573-3.658-1.38s-.881-2.246-.765-4.321q.1-1.791.2-3.582c.039-.68-.3-1.044-1.03-1.084q-2.338-.128-4.679-.236c-.316,5.4-2.6,9.263-6.783,11.645q4.138.149,8.276.356,4.738.237,9.473.553a2.281,2.281,0,0,1,2.025,1.038,3.256,3.256,0,0,1-.1,2.732,25.29,25.29,0,0,1-6.642,9.454,29.151,29.151,0,0,0,5.683,2.894c2.664.878,3.212,2.234,1.7,4.062a3.129,3.129,0,0,1-3.717.808,32.907,32.907,0,0,1-8.1-4.591,35.335,35.335,0,0,1-9.089,3.7q-2.508.639-3.522-1.313m12.947-8.829a19.449,19.449,0,0,0,4.852-5.63q-2.271-.138-4.544-.256-2.253-.117-4.5-.217a21.007,21.007,0,0,0,4.2,6.1" fill="#fff7f3"/>
        <path id="Path_7826" data-name="Path 7826" d="M285.772,42.388a2.126,2.126,0,0,1-2.165-2.615l1.9-19.853c-.3.31-.6.632-.895.945a3.315,3.315,0,0,1-2.407,1.151q-.991-.132-1.739-1.827a3.49,3.49,0,0,1-.334-2.086,3.065,3.065,0,0,1,1.2-1.7,49.5,49.5,0,0,0,8.977-11.163,2.458,2.458,0,0,1,3.538-1.176c1.65.692,2.052,1.758,1.221,3.182a58.1,58.1,0,0,1-3.82,5.776q-.774,7.413-1.546,14.825-.645,6.2-1.293,12.4a2.126,2.126,0,0,1-2.637,2.135m17.979,2.18a2.259,2.259,0,0,1-2.233-2.834q.526-4.109,1.054-8.216a35.5,35.5,0,0,1-8.049,6.762,3.159,3.159,0,0,1-2.054.519,2.617,2.617,0,0,1-1.6-1.272,2.618,2.618,0,0,1-.611-2.191,3.242,3.242,0,0,1,1.851-1.582,33.516,33.516,0,0,0,8.533-6.612q-3.26-.405-6.522-.771a2.077,2.077,0,0,1-2.119-2.552,2.074,2.074,0,0,1,2.633-2.031q4.524.507,9.043,1.087.244-1.906.489-3.812-2.861-.367-5.726-.706a2.949,2.949,0,0,1-2-1.006,2.658,2.658,0,0,1-.577-2.086q.512-4.519,1.022-9.039a2.623,2.623,0,0,1,1.046-1.9,2.987,2.987,0,0,1,2.229-.515q4.44.523,8.875,1.117T317.9,8.18a3,3,0,0,1,2.018,1.082,2.6,2.6,0,0,1,.512,2.109l-1.386,8.99a2.629,2.629,0,0,1-1.105,1.861,2.93,2.93,0,0,1-2.2.445q-3.144-.468-6.292-.9-.263,1.905-.525,3.808,4.427.609,8.846,1.289a2.078,2.078,0,0,1,2.014,2.648,2.079,2.079,0,0,1-2.715,1.91q-3.14-.481-6.283-.929a34.625,34.625,0,0,0,6.125,8.555,3.126,3.126,0,0,1,1.239,2.053,2.7,2.7,0,0,1-1.2,1.929,2.77,2.77,0,0,1-1.873.811,2.974,2.974,0,0,1-1.8-1.114,39.764,39.764,0,0,1-5.513-8.732q-.58,4.208-1.16,8.418a2.243,2.243,0,0,1-2.855,2.157m-1.6-28.279q5.415.671,10.82,1.442a.934.934,0,0,0,1.217-.86q.263-1.818.526-3.635c.1-.676-.213-1.068-.934-1.17q-2.729-.39-5.461-.754t-5.465-.7q-1.082-.133-1.208.883-.222,1.823-.445,3.646c-.082.68.233,1.065.95,1.15" fill="#fff7f3"/>
        <path id="Path_7827" data-name="Path 7827" d="M147.813,198.534a2.363,2.363,0,0,1-1.74-2.319,2.443,2.443,0,0,1,1.127-1.289,14.616,14.616,0,0,0,3.383-4.092q-.58-.483-1.738-1.32v.064a.656.656,0,0,1-.58.483,1.745,1.745,0,0,1-.872-.193q-1.869-.967-1.578-2.191.709-2.868,1.965-8.8h-.74a1.756,1.756,0,0,1,0-3.512h1.418c.019-.107.053-.278.1-.516q.515-2.9.709-4.252a1.589,1.589,0,0,1,1.964-1.45q1.87.162,1.547,1.9-.16.9-.482,2.771-.194,1.032-.291,1.546h3.64a1.926,1.926,0,0,1,1.532.612,2.425,2.425,0,0,1,.467,1.773q-.291,3.156-.774,5.8a31.327,31.327,0,0,1-1.74,6.315,26.737,26.737,0,0,1,2.514,2.319,1.673,1.673,0,0,1,0,2.287q-1.388,1.87-2.708.258-.29-.321-.967-.966c-.236-.236-.408-.408-.513-.515a17.1,17.1,0,0,1-4.222,4.768,2.139,2.139,0,0,1-1.417.515m4.252-10.986a24.78,24.78,0,0,0,1.16-4.028q.387-1.9.676-3.834c.064-.536-.16-.805-.676-.805h-1.964q-.549,2.8-1.547,7.056a5.037,5.037,0,0,1,.451.323q1.289.837,1.9,1.288m8.346,9.988q-.838-2.287,2.223-2.224h.773a.879.879,0,0,0,.563-.129.578.578,0,0,0,.146-.451v-9.407h-4.93a1.8,1.8,0,1,1,0-3.608h4.93v-2.675a1,1,0,0,1,1.063-1.063h.1a23.694,23.694,0,0,0,3.061-3.866h-8.153a1.772,1.772,0,0,1,0-3.544h11.438a1.571,1.571,0,0,1,1.547.693,2.309,2.309,0,0,1-.258,1.981,26.091,26.091,0,0,1-5.025,6.637v1.837h5.187a1.8,1.8,0,0,1,0,3.608h-5.187v9.44a6.231,6.231,0,0,1-.323,2.288,2.534,2.534,0,0,1-1.289,1.255,8.369,8.369,0,0,1-3.222.677,2.413,2.413,0,0,1-2.641-1.449" fill="#fff7f3"/>
        <path id="Path_7828" data-name="Path 7828" d="M181.063,196.666a1.919,1.919,0,0,1,.74-2.706,29.178,29.178,0,0,0,2.48-1.9v-4.221a.683.683,0,0,0-.773-.773h-1a1.772,1.772,0,0,1,0-3.544h3.705a1.557,1.557,0,0,1,1.676,1.676v6.6q1.866,2.933,7.088,3.19,6.056.258,13.113-.129,1.254-.1,1.627.371t.016,1.691a2.371,2.371,0,0,1-.678,1.144,2.057,2.057,0,0,1-1.223.37q-7.8.258-12.855.064a15.43,15.43,0,0,1-5.059-.933,8.433,8.433,0,0,1-3.576-2.675c-.129.129-.322.311-.58.548q-1.128,1.128-1.772,1.676-1.965,1.706-2.931-.452m4.752-15.384a1.712,1.712,0,0,1-1.274-.6,18.423,18.423,0,0,0-1.965-1.547,1.836,1.836,0,0,1-.935-1.208,1.562,1.562,0,0,1,.613-1.337,1.667,1.667,0,0,1,2.158-.322q.162.1.451.29.838.516,1.225.806a1.244,1.244,0,0,0,.225.161q.579.451.871.676a1.428,1.428,0,0,1-.065,2.32,2.241,2.241,0,0,1-1.3.757m-.276-7.039q-.77-.678-1.9-1.547-1.709-1.191-.258-2.545a1.7,1.7,0,0,1,2.158-.29q.87.579,1.645,1.159a8.633,8.633,0,0,1,1,.806,1.446,1.446,0,0,1-.065,2.384,1.99,1.99,0,0,1-1.289.676,1.761,1.761,0,0,1-1.289-.643M199.3,194.218a1.638,1.638,0,0,1-1.869-1.837v-.29h-6.861a1.385,1.385,0,1,1,0-2.77h6.861v-1.193h-4.381a1.99,1.99,0,0,1-2.094-2.093v-5.252a1.99,1.99,0,0,1,2.094-2.1h4.381v-1.127h-5.734a1.322,1.322,0,0,1,0-2.643h5.734v-.064a1.446,1.446,0,0,1,.516-1.191,2.072,2.072,0,0,1,1.353-.419,2.013,2.013,0,0,1,1.338.419,1.469,1.469,0,0,1,.5,1.191v.064h5.994a1.322,1.322,0,0,1,0,2.643h-5.994v1.127H205.8a1.992,1.992,0,0,1,2.1,2.1v5.252a1.992,1.992,0,0,1-2.1,2.093h-4.672v1.193h7.283a1.385,1.385,0,0,1,0,2.77h-7.283v.29a1.623,1.623,0,0,1-1.836,1.837m-7.635-19.847a2.207,2.207,0,0,1,0-4.414h15.754a1.991,1.991,0,0,1,2.094,2.094v.58a1.492,1.492,0,0,1-.707,1.289,2.834,2.834,0,0,1-1.611.451,1.377,1.377,0,0,1-.807-.225.783.783,0,0,1-.387-.677V173.4a.655.655,0,0,0-.74-.742H193.563a.684.684,0,0,0-.774.774v.58a.313.313,0,0,1-.353.354Zm2.512,7.959h3.254v-1.257h-2.545a.626.626,0,0,0-.709.709Zm.516,3.479h2.738v-1.257h-3.254v.741a.456.456,0,0,0,.516.516m6.443-3.479h3.385v-.742a.457.457,0,0,0-.516-.515h-2.869Zm0,3.479h2.643a.656.656,0,0,0,.742-.741v-.516h-3.385Z" fill="#fff7f3"/>
        <path id="Path_7829" data-name="Path 7829" d="M217.823,197.633q-1.644-1.9,1.451-3.576a19.271,19.271,0,0,0,8.473-12.5h-9.022a1.982,1.982,0,0,1,0-3.963h9.666a62.358,62.358,0,0,0,.289-6.67q.033-1.932,2.063-1.933,2.094,0,2.062,1.965-.064,4.094-.353,6.638h10.6a1.982,1.982,0,0,1,0,3.963h-9.28q2.8,8.474,9.182,12.4a3.24,3.24,0,0,1,1.676,1.482,2.094,2.094,0,0,1-.547,2,2.057,2.057,0,0,1-1.451.9,3.008,3.008,0,0,1-1.741-.45q-6.507-3.965-9.955-12.6a21.841,21.841,0,0,1-9.73,12.5q-2.191,1.191-3.383-.161" fill="#fff7f3"/>
        <path id="Path_7830" data-name="Path 7830" d="M265.153,197.536q-1.1-1.771,1.062-2.9a16.837,16.837,0,0,0,4.737-4.381,37.681,37.681,0,0,1-2.416-6.509c-.215.387-.442.774-.676,1.16a1.065,1.065,0,0,1-.678.451.739.739,0,0,1-.676-.225q-.515-.452-1.709-1.354a.708.708,0,0,0-.16-.129q-.129,7.282-.322,9.86-.225,3.092-.838,3.9a3.2,3.2,0,0,1-2.094,1.385,7.327,7.327,0,0,1-1.578.129q-1.869,0-2.256-1.449-.579-2.031,1.836-1.934a1.01,1.01,0,0,0,.934-.483,8.189,8.189,0,0,0,.484-2.9q.162-2.416.258-8.119h-2.707a34.372,34.372,0,0,1-.611,6.669,17.716,17.716,0,0,1-2.643,6.38q-1.418,1.8-2.836.516-1.35-1.226,0-3.062a16.219,16.219,0,0,0,2.1-5.444,29.03,29.03,0,0,0,.451-5.478V177.4h-1.353a1.772,1.772,0,0,1,0-3.544h3.22v-3.029a1.885,1.885,0,0,1,3.77,0v3.029h3.48a1.772,1.772,0,0,1,0,3.544h-5.574v3.158H264.7c0,.494-.012,1-.033,1.514v.323q2.77-4,4.06-11.31a2.328,2.328,0,0,1,.774-1.5,1.926,1.926,0,0,1,1.546-.37,1.719,1.719,0,0,1,1.61,2.287q-.322,1.515-.74,3.286h7.539a1.772,1.772,0,0,1,0,3.545h-.612a36.114,36.114,0,0,1-3.576,11.889,17.935,17.935,0,0,0,3.963,3.995,2.946,2.946,0,0,1,1.416,1.417,1.9,1.9,0,0,1-.547,1.772,2.031,2.031,0,0,1-1.353.869,2.992,2.992,0,0,1-1.578-.514,17.093,17.093,0,0,1-4.157-4.092,20.294,20.294,0,0,1-4.994,4.382q-1.869,1.062-2.867-.516m7.957-11.244a24.7,24.7,0,0,0,1.193-3.738,37.944,37.944,0,0,0,.774-4.22h-4.19l-.064.225a34.589,34.589,0,0,0,2.287,7.733" fill="#fff7f3"/>
        <path id="Path_7831" data-name="Path 7831" d="M287.384,196.569a1.981,1.981,0,0,1,.74-2.77q1.1-.709,2.676-1.934v-4.027a.684.684,0,0,0-.774-.774h-1a1.772,1.772,0,0,1,0-3.544h3.77a1.61,1.61,0,0,1,1.709,1.708v6.379q1.866,2.966,7.054,3.222,5.865.26,12.825-.129,1.285-.1,1.691.4t.016,1.756a2.488,2.488,0,0,1-.678,1.16,2.028,2.028,0,0,1-1.256.386q-7.217.227-12.629.032a16.258,16.258,0,0,1-5.027-.933,8.439,8.439,0,0,1-3.576-2.675q-1.677,1.482-2.577,2.256-1.965,1.674-2.964-.516m3.8-15.884a18.393,18.393,0,0,0-2.1-1.579,1.826,1.826,0,0,1-.967-1.223,1.656,1.656,0,0,1,.613-1.386,1.692,1.692,0,0,1,2.158-.387q.968.58,1.772,1.128.289.193.9.645a1.226,1.226,0,0,1,.227.161,1.505,1.505,0,0,1,0,2.448,2.339,2.339,0,0,1-1.289.774,1.7,1.7,0,0,1-1.321-.581m1.094-6.378a17.468,17.468,0,0,0-1.965-1.612,1.771,1.771,0,0,1-.949-1.24,1.618,1.618,0,0,1,.66-1.369,1.692,1.692,0,0,1,2.158-.29q.935.58,1.707,1.159a11.635,11.635,0,0,1,1.065.838,1.467,1.467,0,0,1-.033,2.417q-1.419,1.351-2.643.1m5.607,18.493a1.214,1.214,0,0,1-.128-1.676,4.064,4.064,0,0,1,1.771-1.288,7.778,7.778,0,0,0,3.8-4.124h-4.77a1.6,1.6,0,0,1,0-3.191h5.155v-2.512h-2.254a1.936,1.936,0,0,1-2.032-2.03v-.225l-.675.677a1.7,1.7,0,0,1-2.45.1q-1.514-1.223.129-2.674a17.923,17.923,0,0,0,2.514-3.318,2.07,2.07,0,0,1,1.1-1.015,2.5,2.5,0,0,1,1.611-.081l.773.226v-1.031a.712.712,0,0,1,.8-.8h5.8a2.488,2.488,0,0,1,1.369.4,2.567,2.567,0,0,1,.951,1.079,13.178,13.178,0,0,0,3.481,4.157,2.407,2.407,0,0,1,1.191,1.321,1.667,1.667,0,0,1-.58,1.547,1.731,1.731,0,0,1-1.256.676,2.172,2.172,0,0,1-1.353-.547c-.086-.086-.209-.2-.371-.355a4.918,4.918,0,0,0-.372-.322v1.224a.882.882,0,0,1-1,1h-3.673v2.512h5.7a1.6,1.6,0,0,1,0,3.191h-4.8a8.428,8.428,0,0,0,4.254,3.963q3.059.966,1.707,2.9-.87,1.257-2.836.58a10.844,10.844,0,0,1-5.412-4.8,12.416,12.416,0,0,1-5.381,4.672q-1.8.839-2.77-.225m2.352-16.013h10.826a17.575,17.575,0,0,1-2.611-3.705h-5.7a24.309,24.309,0,0,1-2.514,3.705" fill="#fff7f3"/>
        <path id="Path_7832" data-name="Path 7832" d="M15.182,87.871H33.825a5.727,5.727,0,0,0,6.028-6.029V61.066a5.728,5.728,0,0,0-6.028-6.029H10.544a5.894,5.894,0,0,0-4.359,1.67,5.9,5.9,0,0,0-1.669,4.359v63.571a8.955,8.955,0,1,0,10.666,1.348Zm0-22.724a1.968,1.968,0,0,1,2.226-2.226h10.11a1.8,1.8,0,0,1,2.04,2.04v2.691H15.182Zm0,9.646H29.558v2.876a1.968,1.968,0,0,1-2.225,2.226H15.182Z" fill="#ffe5bb"/>
        <path id="Path_7833" data-name="Path 7833" d="M75.933,55.036H52a5.729,5.729,0,0,0-6.029,6.03V82.027A5.728,5.728,0,0,0,52,88.056H71.2v37.1q0,1.855-1.948,1.855a12.9,12.9,0,0,0-1.577.093q-8.441-.184-6.492,6.307,1.392,4.452,7.791,4.266,5.657-.279,8.625-1.948a7.368,7.368,0,0,0,3.433-3.8,18.76,18.76,0,0,0,.928-6.679V61.066a5.73,5.73,0,0,0-6.03-6.03M71.2,80.079H58.589a1.968,1.968,0,0,1-2.226-2.226V74.792H71.2Zm0-12.428H56.363v-2.5a1.968,1.968,0,0,1,2.226-2.226H69.163a1.8,1.8,0,0,1,2.04,2.04Z" fill="#ffe5bb"/>
        <path id="Path_7834" data-name="Path 7834" d="M66.566,112.729q0-4.453-4.451-4.453H56.549V101.32h4.267q4.357,0,4.359-4.359T60.816,92.6H25.107q-4.36,0-4.359,4.36t4.359,4.359h4.081v6.956H23.994q-4.452,0-4.452,4.453,0,4.545,4.452,4.544h4.823a23.34,23.34,0,0,1-4.545,10.11q-4.823,4.357-.927,7.884,3.151,2.781,6.956-.557a31.187,31.187,0,0,0,7.883-17.437H47V131.65q0,4.729,4.823,4.73,4.729,0,4.73-4.73V117.273h5.566q4.452,0,4.451-4.544M47,108.276H38.463V101.32H47Z" fill="#ffe5bb"/>
        <path id="Path_7835" data-name="Path 7835" d="M118.691,76.316q0,6.4,6.308,6.4h2.225a.9.9,0,0,0,1.02-1.02V80.026a1.968,1.968,0,0,1,2.227-2.226h33.668a1.885,1.885,0,0,1,2.133,2.132v.186a2.249,2.249,0,0,0,1.113,1.948,3.946,3.946,0,0,0,2.319.649,8.15,8.15,0,0,0,4.637-1.3,4.29,4.29,0,0,0,2.042-3.71V76.038a5.729,5.729,0,0,0-6.03-6.029H125q-6.311,0-6.308,6.307" fill="#ffe5bb"/>
        <path id="Path_7836" data-name="Path 7836" d="M146.98,139.85q5.288,0,5.287-5.287v-.834h20.961q3.988,0,3.989-3.989t-3.989-3.988H152.267V122.32h13.448a5.73,5.73,0,0,0,6.03-6.029V101.174a5.73,5.73,0,0,0-6.03-6.03H152.267V91.9h17.252q3.8,0,3.8-3.8t-3.8-3.8H152.267v-.186a4.225,4.225,0,0,0-1.438-3.431,5.8,5.8,0,0,0-3.849-1.206,5.986,5.986,0,0,0-3.895,1.206,4.164,4.164,0,0,0-1.484,3.431v.186h-16.51q-3.8,0-3.8,3.8t3.8,3.8H141.6v3.245H128.987a5.73,5.73,0,0,0-6.03,6.03v15.117a5.73,5.73,0,0,0,6.03,6.029H141.6v3.432H121.845q-3.989,0-3.988,3.988t3.988,3.989H141.6v.834q0,5.287,5.379,5.287m5.287-37.842h8.255a1.313,1.313,0,0,1,1.484,1.484v2.133h-9.739Zm0,10.017h9.739v1.484a1.885,1.885,0,0,1-2.133,2.133h-7.606Zm-20.034-7.977a1.8,1.8,0,0,1,2.041-2.04H141.6v3.617h-9.368Zm1.484,11.594a1.311,1.311,0,0,1-1.484-1.484v-2.133H141.6v3.617Z" fill="#ffe5bb"/>
        <path id="Path_7837" data-name="Path 7837" d="M98.843,96.442a53.532,53.532,0,0,1,5.658,4.453,4.926,4.926,0,0,0,3.663,1.715,6.425,6.425,0,0,0,3.757-2.18q3.525-3.523.185-6.678-.835-.648-2.5-1.948a3.431,3.431,0,0,1-.651-.463q-1.11-.836-3.525-2.319c-.555-.371-.989-.649-1.3-.835a4.8,4.8,0,0,0-6.216.928q-2.042,1.947-1.763,3.849a5.3,5.3,0,0,0,2.691,3.478" fill="#ffe5bb"/>
        <path id="Path_7838" data-name="Path 7838" d="M172.3,141.705q-20.313,1.113-37.749.371-15.025-.741-20.4-9.183V113.88a4.483,4.483,0,0,0-4.823-4.824H98.657q-5.1,0-5.1,5.1t5.1,5.1h2.876a1.967,1.967,0,0,1,2.225,2.226v12.151a84.409,84.409,0,0,1-7.141,5.472q-4.452,2.969-2.134,7.791,2.784,6.213,8.441,1.3,1.854-1.579,5.1-4.824,1.114-1.018,1.669-1.577a24.271,24.271,0,0,0,10.3,7.7,44.349,44.349,0,0,0,14.562,2.69q14.559.557,37.007-.186a5.9,5.9,0,0,0,3.525-1.067,6.81,6.81,0,0,0,1.948-3.292q1.019-3.523-.047-4.869t-4.684-1.067" fill="#ffe5bb"/>
        <path id="Path_7839" data-name="Path 7839" d="M453.429,73.773a5.9,5.9,0,0,0-4.36-1.669h-14.84v-15.4q0-5.1-5.1-5.1-5.2,0-5.194,5.1V72.1h-13.82a5.728,5.728,0,0,0-6.029,6.028v47.117a5.73,5.73,0,0,0,6.029,6.03h38.955a5.729,5.729,0,0,0,6.029-6.03V78.132a5.9,5.9,0,0,0-1.669-4.359m-29.495,39.79v7.142h-7.142a1.968,1.968,0,0,1-2.226-2.226V106.328h9.368Zm0-24.208v6.678h-9.368V84.81a1.967,1.967,0,0,1,2.226-2.225h7.142Zm20.312,29.124a1.968,1.968,0,0,1-2.225,2.226h-7.792V106.328h10.017Zm0-29.124v6.678H434.229V82.585h7.792a1.967,1.967,0,0,1,2.225,2.225Z" fill="#ffe5bb"/>
        <path id="Path_7840" data-name="Path 7840" d="M396.479,92.415l-3.339.835v-14h3.71q5.1,0,5.1-5.194,0-5.1-5.1-5.1h-3.71V56.892q0-5.287-5.287-5.287t-5.287,5.287V68.949h-5.843q-5.1,0-5.1,5.1,0,5.2,5.1,5.194h5.843V95.94l-4.73,1.113q-1.855.465-2.689.649-2.693.651-3.525,2.134t-.093,4.266q1.392,5.1,6.492,3.9,2.969-.741,4.545-1.205v19.755q0,1.764-1.669,1.763h-1.02q-7.422-.186-5.658,5.658,1.3,4.173,7.141,3.988a18.735,18.735,0,0,0,7.884-1.855,6.41,6.41,0,0,0,3.061-3.339,17.844,17.844,0,0,0,.835-6.215V103.824l5.565-1.577q4.452-1.2,3.71-5.75-.744-5.472-5.936-4.082" fill="#ffe5bb"/>
        <path id="Path_7841" data-name="Path 7841" d="M366.833,156.056l-1.258-5.511a3.24,3.24,0,0,0-1.75-2.195l-5.093-2.452a3.231,3.231,0,0,0-2.808,0l-5.092,2.452a3.1,3.1,0,0,0-1.65,1.907H326.36v-4.916h26.619q4.082,0,4.082-4.173,0-4.08-4.082-4.081H326.36v-4.174H347.6a5.728,5.728,0,0,0,6.029-6.028V109.54a5.728,5.728,0,0,0-6.029-6.029H326.36V99.986h31.813q4.266,0,4.266-4.359,0-4.265-4.266-4.267H326.36V86.538q12.428-.927,22.075-2.226,2.967-.463,3.478-1.948t-1.067-4.173a5.979,5.979,0,0,0-2.04-2.319,3.932,3.932,0,0,0-2.876-.464q-19.942,2.97-53.238,3.988-5.565.188-4.36,4.916a5.03,5.03,0,0,0,1.716,2.875,5.365,5.365,0,0,0,3.386.742q7.419-.092,21.981-.649v4.08H284.529q-4.266,0-4.266,4.267,0,4.36,4.266,4.359h30.886v3.525H295.474a5.728,5.728,0,0,0-6.029,6.029v17.345a5.728,5.728,0,0,0,6.029,6.028h19.941v4.174H290.558q-4.082,0-4.081,4.081,0,4.173,4.081,4.173h24.857v4.916H284.159q-4.362,0-4.36,4.359t4.36,4.36h64.435l3.378,4.237a3.245,3.245,0,0,0,2.529,1.218h5.653a3.251,3.251,0,0,0,2.53-1.218l3.524-4.42a3.243,3.243,0,0,0,.625-2.737m-40.473-45.31h14.376a1.558,1.558,0,0,1,1.762,1.762v2.412H326.36Zm0,10.758H342.5v1.948a1.967,1.967,0,0,1-2.226,2.227H326.36Zm-10.945,4.175H301.873a1.558,1.558,0,0,1-1.762-1.762V121.5h15.3Zm0-10.759h-15.3v-1.948a1.967,1.967,0,0,1,2.227-2.226h13.077Z" fill="#ffe5bb"/>
        <path id="Path_7842" data-name="Path 7842" d="M12.342,138.037q-5.38,0-5.379-5.287V60.962a5.728,5.728,0,0,1,6.028-6.03h23.28a5.729,5.729,0,0,1,6.029,6.03V81.737a5.727,5.727,0,0,1-6.029,6.029H17.629V132.75q0,5.287-5.287,5.287m5.287-70.49H32.005V64.856a1.8,1.8,0,0,0-2.041-2.04H19.855a1.968,1.968,0,0,0-2.226,2.226Zm0,12.243h12.15a1.968,1.968,0,0,0,2.226-2.226V74.688H17.629Zm8.162,55.372q-3.9-3.526.927-7.884a23.34,23.34,0,0,0,4.545-10.11H26.44q-4.452,0-4.452-4.544,0-4.452,4.452-4.453h5.194v-6.956H27.553q-4.36,0-4.359-4.359t4.359-4.36H63.262q4.357,0,4.359,4.36t-4.359,4.359H59v6.956h5.565q4.452,0,4.451,4.453,0,4.545-4.451,4.544H59v14.377q0,4.729-4.73,4.73-4.824,0-4.824-4.73V117.168H40.631A31.2,31.2,0,0,1,32.748,134.6q-3.806,3.339-6.957.557m15.118-26.991h8.533v-6.956H40.909Zm22.724,25.136q-1.947-6.492,6.492-6.307a12.9,12.9,0,0,1,1.577-.093q1.948,0,1.948-1.855v-37.1h-19.2a5.727,5.727,0,0,1-6.029-6.028V60.962a5.729,5.729,0,0,1,6.029-6.03H78.38a5.73,5.73,0,0,1,6.03,6.03v64.182a18.764,18.764,0,0,1-.928,6.679,7.367,7.367,0,0,1-3.433,3.8q-2.969,1.67-8.625,1.948-6.4.185-7.791-4.266M58.81,67.547H73.65V64.856a1.8,1.8,0,0,0-2.04-2.04H61.036a1.968,1.968,0,0,0-2.226,2.226Zm2.226,12.428H73.65V74.688H58.81v3.061a1.968,1.968,0,0,0,2.226,2.226" fill="#f2ad22"/>
        <path id="Path_7843" data-name="Path 7843" d="M96.93,146.8q-2.319-4.823,2.134-7.792a84.2,84.2,0,0,0,7.141-5.472v-12.15a1.968,1.968,0,0,0-2.225-2.227H101.1q-5.1,0-5.1-5.1t5.1-5.1H111.77a4.482,4.482,0,0,1,4.824,4.823V132.79q5.377,8.442,20.4,9.182,17.436.744,37.75-.371,3.618-.279,4.684,1.067t.047,4.869a6.819,6.819,0,0,1-1.948,3.293,5.906,5.906,0,0,1-3.525,1.066q-22.446.741-37.008.186a44.36,44.36,0,0,1-14.562-2.69,24.266,24.266,0,0,1-10.295-7.7q-.557.557-1.669,1.577-3.249,3.248-5.1,4.823-5.66,4.914-8.441-1.3m13.681-44.29a4.917,4.917,0,0,1-3.663-1.715,53.665,53.665,0,0,0-5.658-4.452A5.292,5.292,0,0,1,98.6,92.86q-.277-1.9,1.763-3.849a4.8,4.8,0,0,1,6.215-.927c.308.186.742.464,1.3.835q2.412,1.485,3.525,2.319a3.462,3.462,0,0,0,.65.463q1.668,1.3,2.5,1.948,3.339,3.154-.186,6.678a6.42,6.42,0,0,1-3.756,2.179m38.816,37.24q-5.381,0-5.379-5.287v-.834H124.292q-3.988,0-3.989-3.989t3.989-3.988h19.756v-3.432H131.434a5.73,5.73,0,0,1-6.03-6.029V101.07a5.73,5.73,0,0,1,6.03-6.03h12.614V91.795h-16.51q-3.8,0-3.8-3.8t3.8-3.8h16.51V84a4.166,4.166,0,0,1,1.483-3.431,5.99,5.99,0,0,1,3.9-1.206,5.8,5.8,0,0,1,3.849,1.206A4.228,4.228,0,0,1,154.714,84v.186h17.252q3.8,0,3.8,3.8t-3.8,3.8H154.714V95.04h13.448a5.73,5.73,0,0,1,6.03,6.03v15.117a5.73,5.73,0,0,1-6.03,6.029H154.714v3.432h20.961q3.988,0,3.989,3.988t-3.989,3.989H154.714v.834q0,5.287-5.287,5.287M127.446,82.612q-6.311,0-6.308-6.4,0-6.306,6.308-6.307H172.8a5.728,5.728,0,0,1,6.029,6.029V77.6a4.288,4.288,0,0,1-2.041,3.709,8.154,8.154,0,0,1-4.638,1.3,3.945,3.945,0,0,1-2.318-.649,2.25,2.25,0,0,1-1.113-1.948v-.186a1.885,1.885,0,0,0-2.133-2.133H132.917a1.968,1.968,0,0,0-2.226,2.226v1.67a.9.9,0,0,1-1.02,1.02Zm7.233,22.909h9.369V101.9h-7.327a1.8,1.8,0,0,0-2.042,2.04Zm1.485,10.017h7.884v-3.617h-9.369v2.133a1.312,1.312,0,0,0,1.485,1.484m18.55-10.017h9.738v-2.133a1.312,1.312,0,0,0-1.483-1.484h-8.255Zm0,10.017h7.606a1.885,1.885,0,0,0,2.132-2.133v-1.484h-9.738Z" fill="#f2ad22"/>
        <path id="Path_7844" data-name="Path 7844" d="M286.605,158.872q-4.361,0-4.359-4.36t4.359-4.359h31.256v-4.916H293q-4.082,0-4.08-4.173,0-4.081,4.08-4.082h24.857v-4.173H297.92a5.728,5.728,0,0,1-6.028-6.029V109.435a5.727,5.727,0,0,1,6.028-6.028h19.941V99.882H286.976q-4.268,0-4.267-4.359,0-4.266,4.267-4.267h30.885V87.175q-14.561.556-21.981.65a5.373,5.373,0,0,1-3.386-.742,5.024,5.024,0,0,1-1.715-2.876q-1.207-4.729,4.359-4.916,33.3-1.02,53.238-3.988a3.941,3.941,0,0,1,2.876.464,5.971,5.971,0,0,1,2.04,2.319q1.576,2.691,1.067,4.173t-3.478,1.948q-9.648,1.3-22.075,2.226v4.823h31.813q4.266,0,4.267,4.267,0,4.36-4.267,4.359H328.806v3.525h21.241a5.727,5.727,0,0,1,6.028,6.028V126.78a5.728,5.728,0,0,1-6.028,6.029H328.806v4.173h26.62q4.08,0,4.081,4.082,0,4.173-4.081,4.173h-26.62v4.916h32.278q4.357,0,4.359,4.359t-4.359,4.36H286.605Zm15.953-44.057h15.3v-4.174H304.784a1.968,1.968,0,0,0-2.226,2.227Zm1.762,10.759h13.541V121.4h-15.3v2.412a1.557,1.557,0,0,0,1.762,1.762m24.486-10.759h16.139V112.4a1.558,1.558,0,0,0-1.762-1.762H328.806Zm0,10.759h13.913a1.968,1.968,0,0,0,2.226-2.226V121.4H328.806Z" fill="#f2ad22"/>
        <path id="Path_7845" data-name="Path 7845" d="M376.666,133.863q-1.764-5.843,5.657-5.657h1.02q1.67,0,1.67-1.763V106.687q-1.578.465-4.545,1.206-5.1,1.206-6.492-3.895-.744-2.784.092-4.267t3.525-2.134q.834-.185,2.69-.649l4.73-1.113V79.141h-5.844q-5.1,0-5.1-5.195,0-5.1,5.1-5.1h5.844V56.787q0-5.287,5.287-5.286t5.287,5.286V68.845H399.3q5.1,0,5.1,5.1,0,5.2-5.1,5.195h-3.709V93.146l3.339-.835q5.191-1.39,5.936,4.081.741,4.545-3.71,5.75l-5.565,1.577v22.724a17.83,17.83,0,0,1-.836,6.214,6.4,6.4,0,0,1-3.06,3.339,18.723,18.723,0,0,1-7.884,1.856q-5.843.183-7.141-3.989m35.894-2.689a5.73,5.73,0,0,1-6.029-6.03V78.027A5.73,5.73,0,0,1,412.56,72h13.82V56.6q0-5.1,5.194-5.1,5.1,0,5.1,5.1V72h14.84a5.73,5.73,0,0,1,6.029,6.029v47.117a5.73,5.73,0,0,1-6.029,6.03H412.56Zm4.452-35.246h9.368V82.48h-7.142a1.967,1.967,0,0,0-2.226,2.225Zm2.226,24.672h7.142V106.223h-9.368v12.151a1.968,1.968,0,0,0,2.226,2.226m17.437-24.672h10.017V84.705a1.966,1.966,0,0,0-2.225-2.225h-7.792Zm0,24.672h7.792a1.968,1.968,0,0,0,2.225-2.226V106.223H436.675V120.6Z" fill="#f2ad22"/>
        <path id="Path_7846" data-name="Path 7846" d="M12.342,138.037q-5.38,0-5.379-5.287V60.962a5.728,5.728,0,0,1,6.028-6.03h23.28a5.729,5.729,0,0,1,6.029,6.03V81.737a5.727,5.727,0,0,1-6.029,6.029H17.629V132.75q0,5.287-5.287,5.287m5.287-70.49H32.005V64.856a1.8,1.8,0,0,0-2.041-2.04H19.855a1.968,1.968,0,0,0-2.226,2.226Zm0,12.243h12.15a1.968,1.968,0,0,0,2.226-2.226V74.688H17.629Zm8.162,55.372q-3.9-3.526.927-7.884a23.34,23.34,0,0,0,4.545-10.11H26.44q-4.452,0-4.452-4.544,0-4.452,4.452-4.453h5.194v-6.956H27.553q-4.36,0-4.359-4.359t4.359-4.36H63.262q4.357,0,4.359,4.36t-4.359,4.359H59v6.956h5.565q4.452,0,4.451,4.453,0,4.545-4.451,4.544H59v14.377q0,4.729-4.73,4.73-4.824,0-4.824-4.73V117.168H40.631A31.2,31.2,0,0,1,32.748,134.6q-3.806,3.339-6.957.557m15.118-26.991h8.533v-6.956H40.909Zm22.724,25.136q-1.947-6.492,6.492-6.307a12.9,12.9,0,0,1,1.577-.093q1.948,0,1.948-1.855v-37.1h-19.2a5.727,5.727,0,0,1-6.029-6.028V60.962a5.729,5.729,0,0,1,6.029-6.03H78.38a5.73,5.73,0,0,1,6.03,6.03v64.182a18.764,18.764,0,0,1-.928,6.679,7.367,7.367,0,0,1-3.433,3.8q-2.969,1.67-8.625,1.948-6.4.185-7.791-4.266M58.81,67.547H73.65V64.856a1.8,1.8,0,0,0-2.04-2.04H61.036a1.968,1.968,0,0,0-2.226,2.226Zm2.226,12.428H73.65V74.688H58.81v3.061a1.968,1.968,0,0,0,2.226,2.226" fill="#f2ad22"/>
        <path id="Path_7847" data-name="Path 7847" d="M96.93,146.8q-2.319-4.823,2.134-7.792a84.2,84.2,0,0,0,7.141-5.472v-12.15a1.968,1.968,0,0,0-2.225-2.227H101.1q-5.1,0-5.1-5.1t5.1-5.1H111.77a4.482,4.482,0,0,1,4.824,4.823V132.79q5.377,8.442,20.4,9.182,17.436.744,37.75-.371,3.618-.279,4.684,1.067t.047,4.869a6.819,6.819,0,0,1-1.948,3.293,5.906,5.906,0,0,1-3.525,1.066q-22.446.741-37.008.186a44.36,44.36,0,0,1-14.562-2.69,24.266,24.266,0,0,1-10.295-7.7q-.557.557-1.669,1.577-3.249,3.248-5.1,4.823-5.66,4.914-8.441-1.3m13.681-44.29a4.917,4.917,0,0,1-3.663-1.715,53.665,53.665,0,0,0-5.658-4.452A5.292,5.292,0,0,1,98.6,92.86q-.277-1.9,1.763-3.849a4.8,4.8,0,0,1,6.215-.927c.308.186.742.464,1.3.835q2.412,1.485,3.525,2.319a3.462,3.462,0,0,0,.65.463q1.668,1.3,2.5,1.948,3.339,3.154-.186,6.678a6.42,6.42,0,0,1-3.756,2.179m38.816,37.24q-5.381,0-5.379-5.287v-.834H124.292q-3.988,0-3.989-3.989t3.989-3.988h19.756v-3.432H131.434a5.73,5.73,0,0,1-6.03-6.029V101.07a5.73,5.73,0,0,1,6.03-6.03h12.614V91.795h-16.51q-3.8,0-3.8-3.8t3.8-3.8h16.51V84a4.166,4.166,0,0,1,1.483-3.431,5.99,5.99,0,0,1,3.9-1.206,5.8,5.8,0,0,1,3.849,1.206A4.228,4.228,0,0,1,154.714,84v.186h17.252q3.8,0,3.8,3.8t-3.8,3.8H154.714V95.04h13.448a5.73,5.73,0,0,1,6.03,6.03v15.117a5.73,5.73,0,0,1-6.03,6.029H154.714v3.432h20.961q3.988,0,3.989,3.988t-3.989,3.989H154.714v.834q0,5.287-5.287,5.287M127.446,82.612q-6.311,0-6.308-6.4,0-6.306,6.308-6.307H172.8a5.728,5.728,0,0,1,6.029,6.029V77.6a4.288,4.288,0,0,1-2.041,3.709,8.154,8.154,0,0,1-4.638,1.3,3.945,3.945,0,0,1-2.318-.649,2.25,2.25,0,0,1-1.113-1.948v-.186a1.885,1.885,0,0,0-2.133-2.133H132.917a1.968,1.968,0,0,0-2.226,2.226v1.67a.9.9,0,0,1-1.02,1.02Zm7.233,22.909h9.369V101.9h-7.327a1.8,1.8,0,0,0-2.042,2.04Zm1.485,10.017h7.884v-3.617h-9.369v2.133a1.312,1.312,0,0,0,1.485,1.484m18.55-10.017h9.738v-2.133a1.312,1.312,0,0,0-1.483-1.484h-8.255Zm0,10.017h7.606a1.885,1.885,0,0,0,2.132-2.133v-1.484h-9.738Z" fill="#f2ad22"/>
        <path id="Path_7848" data-name="Path 7848" d="M265.569,121.26h-68.45q-5.658,0-5.658,5.658t5.658,5.658h68.45q5.656,0,5.658-5.658t-5.658-5.658" fill="#ffe5bb"/>
        <path id="Path_7849" data-name="Path 7849" d="M202.221,71.546h58.432q5.565,0,5.566-5.564t-5.566-5.565H202.221q-5.565,0-5.565,5.565t5.565,5.564" fill="#ffe5bb"/>
        <path id="Path_7850" data-name="Path 7850" d="M208.528,90q-5.565,0-5.565,5.565,0,5.658,5.565,5.658h44.891q5.566,0,5.565-5.658,0-5.565-5.565-5.565Z" fill="#ffe5bb"/>
        <path id="Path_7851" data-name="Path 7851" d="M199.566,132.473q-5.658,0-5.658-5.659t5.658-5.657h68.45q5.655,0,5.657,5.657t-5.657,5.659h-68.45Zm5.1-61.031q-5.564,0-5.564-5.564t5.564-5.565H263.1q5.566,0,5.566,5.565T263.1,71.442H204.667Zm6.308,29.681q-5.566,0-5.565-5.658,0-5.565,5.565-5.565h44.891q5.566,0,5.565,5.565,0,5.658-5.565,5.658H210.975Z" fill="#f2ad22"/>
        <path id="Path_7852" data-name="Path 7852" d="M199.566,132.473q-5.658,0-5.658-5.659t5.658-5.657h68.45q5.655,0,5.657,5.657t-5.657,5.659h-68.45Zm5.1-61.031q-5.564,0-5.564-5.564t5.564-5.565H263.1q5.566,0,5.566,5.565T263.1,71.442H204.667Zm6.308,29.681q-5.566,0-5.565-5.658,0-5.565,5.565-5.565h44.891q5.566,0,5.565,5.565,0,5.658-5.565,5.658H210.975Z" fill="#f2ad22"/>
        <path id="Path_7853" data-name="Path 7853" d="M286.605,158.872q-4.361,0-4.359-4.36t4.359-4.359h31.256v-4.916H293q-4.082,0-4.08-4.173,0-4.081,4.08-4.082h24.857v-4.173H297.92a5.728,5.728,0,0,1-6.028-6.029V109.435a5.727,5.727,0,0,1,6.028-6.028h19.941V99.882H286.976q-4.268,0-4.267-4.359,0-4.266,4.267-4.267h30.885V87.175q-14.561.556-21.981.65a5.373,5.373,0,0,1-3.386-.742,5.024,5.024,0,0,1-1.715-2.876q-1.207-4.729,4.359-4.916,33.3-1.02,53.238-3.988a3.941,3.941,0,0,1,2.876.464,5.971,5.971,0,0,1,2.04,2.319q1.576,2.691,1.067,4.173t-3.478,1.948q-9.648,1.3-22.075,2.226v4.823h31.813q4.266,0,4.267,4.267,0,4.36-4.267,4.359H328.806v3.525h21.241a5.727,5.727,0,0,1,6.028,6.028V126.78a5.728,5.728,0,0,1-6.028,6.029H328.806v4.173h26.62q4.08,0,4.081,4.082,0,4.173-4.081,4.173h-26.62v4.916h32.278q4.357,0,4.359,4.359t-4.359,4.36H286.605Zm15.953-44.057h15.3v-4.174H304.784a1.968,1.968,0,0,0-2.226,2.227Zm1.762,10.759h13.541V121.4h-15.3v2.412a1.557,1.557,0,0,0,1.762,1.762m24.486-10.759h16.139V112.4a1.558,1.558,0,0,0-1.762-1.762H328.806Zm0,10.759h13.913a1.968,1.968,0,0,0,2.226-2.226V121.4H328.806Z" fill="#f2ad22"/>
        <path id="Path_7854" data-name="Path 7854" d="M376.666,133.863q-1.764-5.843,5.657-5.657h1.02q1.67,0,1.67-1.763V106.687q-1.578.465-4.545,1.206-5.1,1.206-6.492-3.895-.744-2.784.092-4.267t3.525-2.134q.834-.185,2.69-.649l4.73-1.113V79.141h-5.844q-5.1,0-5.1-5.195,0-5.1,5.1-5.1h5.844V56.787q0-5.287,5.287-5.286t5.287,5.286V68.845H399.3q5.1,0,5.1,5.1,0,5.2-5.1,5.195h-3.709V93.146l3.339-.835q5.191-1.39,5.936,4.081.741,4.545-3.71,5.75l-5.565,1.577v22.724a17.83,17.83,0,0,1-.836,6.214,6.4,6.4,0,0,1-3.06,3.339,18.723,18.723,0,0,1-7.884,1.856q-5.843.183-7.141-3.989m35.894-2.689a5.73,5.73,0,0,1-6.029-6.03V78.027A5.73,5.73,0,0,1,412.56,72h13.82V56.6q0-5.1,5.194-5.1,5.1,0,5.1,5.1V72h14.84a5.73,5.73,0,0,1,6.029,6.029v47.117a5.73,5.73,0,0,1-6.029,6.03H412.56Zm4.452-35.246h9.368V82.48h-7.142a1.967,1.967,0,0,0-2.226,2.225Zm2.226,24.672h7.142V106.223h-9.368v12.151a1.968,1.968,0,0,0,2.226,2.226m17.437-24.672h10.017V84.705a1.966,1.966,0,0,0-2.225-2.225h-7.792Zm0,24.672h7.792a1.968,1.968,0,0,0,2.225-2.226V106.223H436.675V120.6Z" fill="#f2ad22"/>
        <g id="Group_1800" data-name="Group 1800" opacity="0.8">
          <g id="Group_1799" data-name="Group 1799">
            <g id="Group_1798" data-name="Group 1798" clip-path="url(#clip-path-3)">
              <path id="Path_7855" data-name="Path 7855" d="M75.365,57.81h2.6a3,3,0,0,1,3,3v2.927" fill="#fff"/>
            </g>
          </g>
        </g>
        <g id="Group_1803" data-name="Group 1803" opacity="0.8">
          <g id="Group_1802" data-name="Group 1802">
            <g id="Group_1801" data-name="Group 1801" clip-path="url(#clip-path-4)">
              <path id="Path_7856" data-name="Path 7856" d="M170.784,72.234h2.6a3,3,0,0,1,3,3v2.927" fill="#fff"/>
            </g>
          </g>
        </g>
        <g id="Group_1806" data-name="Group 1806" opacity="0.8">
          <g id="Group_1805" data-name="Group 1805">
            <g id="Group_1804" data-name="Group 1804" clip-path="url(#clip-path-5)">
              <path id="Path_7857" data-name="Path 7857" d="M260.62,62.218h2.6a3,3,0,0,1,3,3v2.927" fill="#fff"/>
            </g>
          </g>
        </g>
        <g id="Group_1809" data-name="Group 1809" opacity="0.8">
          <g id="Group_1808" data-name="Group 1808">
            <g id="Group_1807" data-name="Group 1807" clip-path="url(#clip-path-6)">
              <path id="Path_7858" data-name="Path 7858" d="M253.386,91.717h2.6a3,3,0,0,1,3,3v2.927" fill="#fff"/>
            </g>
          </g>
        </g>
        <g id="Group_1812" data-name="Group 1812" opacity="0.8">
          <g id="Group_1811" data-name="Group 1811">
            <g id="Group_1810" data-name="Group 1810" clip-path="url(#clip-path-7)">
              <path id="Path_7859" data-name="Path 7859" d="M34.11,57.295h2.6a3,3,0,0,1,3,3v2.927" fill="#fff"/>
            </g>
          </g>
        </g>
        <g id="Group_1815" data-name="Group 1815" opacity="0.8">
          <g id="Group_1814" data-name="Group 1814">
            <g id="Group_1813" data-name="Group 1813" clip-path="url(#clip-path-8)">
              <path id="Path_7860" data-name="Path 7860" d="M265.866,122.715h2.6a3,3,0,0,1,3,3v2.927" fill="#fff"/>
            </g>
          </g>
        </g>
        <g id="Group_1818" data-name="Group 1818" opacity="0.8">
          <g id="Group_1817" data-name="Group 1817">
            <g id="Group_1816" data-name="Group 1816" clip-path="url(#clip-path-9)">
              <path id="Path_7861" data-name="Path 7861" d="M165.994,97.285h2.6a3,3,0,0,1,3,3v2.927" fill="#fff"/>
            </g>
          </g>
        </g>
        <g id="Group_1821" data-name="Group 1821" opacity="0.8">
          <g id="Group_1820" data-name="Group 1820">
            <g id="Group_1819" data-name="Group 1819" clip-path="url(#clip-path-10)">
              <path id="Path_7862" data-name="Path 7862" d="M348.091,106.093h2.6a3,3,0,0,1,3,3v2.927" fill="#fff"/>
            </g>
          </g>
        </g>
        <g id="Group_1824" data-name="Group 1824" opacity="0.8">
          <g id="Group_1823" data-name="Group 1823">
            <g id="Group_1822" data-name="Group 1822" clip-path="url(#clip-path-11)">
              <path id="Path_7863" data-name="Path 7863" d="M449.45,74.209h2.6a3,3,0,0,1,3,3v2.927" fill="#fff"/>
            </g>
          </g>
        </g>
        <path id="Path_7864" data-name="Path 7864" d="M127.649,60.258a8.6,8.6,0,0,1,8.391-8.8,8.6,8.6,0,0,1-8.391-8.8,8.6,8.6,0,0,1-8.391,8.8,8.6,8.6,0,0,1,8.391,8.8" fill="#ffe266"/>
        <path id="Path_7865" data-name="Path 7865" d="M118.728,42.161a5.785,5.785,0,0,1,5.506-6.15,5.975,5.975,0,0,1-5.961-5.87,5.785,5.785,0,0,1-5.506,6.15,5.976,5.976,0,0,1,5.961,5.87" fill="#ffe266"/>
        <path id="Path_7866" data-name="Path 7866" d="M334.359,45.377a8.147,8.147,0,0,1-7.949,8.332,8.148,8.148,0,0,1,7.949,8.333,8.148,8.148,0,0,1,7.949-8.333,8.147,8.147,0,0,1-7.949-8.332" fill="#ffe266"/>
        <path id="Path_7867" data-name="Path 7867" d="M16.088,124.679a8.954,8.954,0,1,0,2.944,12.316,8.954,8.954,0,0,0-2.944-12.316" fill="#ffd008"/>
      </g>
    </g>
    <g id="Group_1828" data-name="Group 1828">
      <g id="Group_1827" data-name="Group 1827" clip-path="url(#clip-path-12)">
        <path id="Path_7868" data-name="Path 7868" d="M19.226,128.876l-7.15-4.391h7.15Z" fill="#fccd00"/>
        <path id="Path_7869" data-name="Path 7869" d="M19.226,129.167,11.6,124.485h.473l7.15,4.391Z" fill="#fccd00"/>
        <path id="Path_7870" data-name="Path 7870" d="M19.226,129.458l-8.1-4.973H11.6l7.623,4.682Z" fill="#fccc01"/>
        <path id="Path_7871" data-name="Path 7871" d="M19.226,129.748l-8.57-5.264h.474l8.1,4.973Z" fill="#fccb02"/>
        <path id="Path_7872" data-name="Path 7872" d="M19.226,130.039l-9.043-5.555h.473l8.57,5.264Z" fill="#fbca02"/>
        <path id="Path_7873" data-name="Path 7873" d="M19.226,130.33l-9.517-5.845h.474l9.043,5.554Z" fill="#fbc903"/>
        <path id="Path_7874" data-name="Path 7874" d="M19.226,130.621l-9.99-6.136h.473l9.517,5.845Z" fill="#fbc804"/>
        <path id="Path_7875" data-name="Path 7875" d="M19.226,130.912,8.762,124.485h.474l9.99,6.136Z" fill="#fbc705"/>
        <path id="Path_7876" data-name="Path 7876" d="M19.226,131.2,8.288,124.484h.473l10.464,6.427Z" fill="#fbc606"/>
        <path id="Path_7877" data-name="Path 7877" d="M19.226,131.493,7.814,124.484h.474L19.226,131.2Z" fill="#fac507"/>
        <path id="Path_7878" data-name="Path 7878" d="M19.226,131.784l-11.884-7.3h.473l11.411,7.008Z" fill="#fac407"/>
        <path id="Path_7879" data-name="Path 7879" d="M19.226,132.075l-12.358-7.59h.474l11.884,7.3Z" fill="#fac308"/>
        <path id="Path_7880" data-name="Path 7880" d="M19.226,132.366,6.394,124.485h.473l12.358,7.59Z" fill="#fac209"/>
        <path id="Path_7881" data-name="Path 7881" d="M19.226,132.657,5.92,124.485h.474l12.831,7.881Z" fill="#fac10a"/>
        <path id="Path_7882" data-name="Path 7882" d="M19.226,132.947l-13.512-8.3.1-.164H5.92l13.305,8.172Z" fill="#f9c00b"/>
        <path id="Path_7883" data-name="Path 7883" d="M19.226,133.238,5.583,124.859l.13-.211,13.512,8.3Z" fill="#f9bf0c"/>
        <path id="Path_7884" data-name="Path 7884" d="M19.226,133.529,5.455,125.071l.129-.212,13.642,8.379Z" fill="#f9be0c"/>
        <path id="Path_7885" data-name="Path 7885" d="M19.226,133.82l-13.9-8.538.13-.211,13.771,8.458Z" fill="#f9bd0d"/>
        <path id="Path_7886" data-name="Path 7886" d="M19.226,134.111,5.194,125.493l.13-.211,13.9,8.538Z" fill="#f9bc0e"/>
        <path id="Path_7887" data-name="Path 7887" d="M19.226,134.4,5.064,125.7l.13-.212,14.031,8.618Z" fill="#f8bb0f"/>
        <path id="Path_7888" data-name="Path 7888" d="M19.226,134.692l-14.29-8.777.129-.211,14.161,8.7Z" fill="#f8ba10"/>
        <path id="Path_7889" data-name="Path 7889" d="M19.226,134.983l-14.42-8.857.13-.211,14.29,8.777Z" fill="#f8b910"/>
        <path id="Path_7890" data-name="Path 7890" d="M19.226,135.274l-14.55-8.936.13-.212,14.42,8.857Z" fill="#f8b811"/>
        <path id="Path_7891" data-name="Path 7891" d="M19.226,135.565,4.547,126.549l.129-.211,14.55,8.936Z" fill="#f8b712"/>
        <path id="Path_7892" data-name="Path 7892" d="M19.226,135.856l-14.809-9.1.13-.211,14.679,9.016Z" fill="#f7b613"/>
        <path id="Path_7893" data-name="Path 7893" d="M19.226,136.146,4.286,126.971l.13-.212,14.809,9.1Z" fill="#f7b514"/>
        <path id="Path_7894" data-name="Path 7894" d="M19.226,136.437,4.158,127.182l.129-.211,14.939,9.175Z" fill="#f7b415"/>
        <path id="Path_7895" data-name="Path 7895" d="M19.226,136.492l-.1.172-15.093-9.27.13-.212,15.068,9.256Z" fill="#f7b315"/>
        <path id="Path_7896" data-name="Path 7896" d="M19.12,136.663l-.13.211L3.9,127.6l.129-.211Z" fill="#f7b216"/>
        <path id="Path_7897" data-name="Path 7897" d="M18.99,136.874l-.13.211-15.092-9.27L3.9,127.6Z" fill="#f7b117"/>
        <path id="Path_7898" data-name="Path 7898" d="M18.861,137.086l-.13.211-15.092-9.27.129-.211Z" fill="#f6af18"/>
        <path id="Path_7899" data-name="Path 7899" d="M18.731,137.3l-.13.211L3.578,128.281v-.155l.06-.1Z" fill="#f6ae19"/>
        <path id="Path_7900" data-name="Path 7900" d="M18.6,137.508l-.13.211L3.577,128.571v-.291Z" fill="#f6ad19"/>
        <path id="Path_7901" data-name="Path 7901" d="M18.472,137.719l-.13.211L3.578,128.862v-.291Z" fill="#f6ac1a"/>
        <path id="Path_7902" data-name="Path 7902" d="M18.342,137.93l-.13.211L3.578,129.153v-.291Z" fill="#f6ab1b"/>
        <path id="Path_7903" data-name="Path 7903" d="M18.212,138.141l-.13.211L3.577,129.443v-.291Z" fill="#f5aa1c"/>
        <path id="Path_7904" data-name="Path 7904" d="M18.083,138.353l-.13.211L3.578,129.735v-.291Z" fill="#f5a91d"/>
        <path id="Path_7905" data-name="Path 7905" d="M17.953,138.564l-.13.211L3.578,130.026v-.291Z" fill="#f5a81e"/>
        <path id="Path_7906" data-name="Path 7906" d="M17.823,138.775l-.13.211-14.115-8.67v-.291Z" fill="#f5a71e"/>
        <path id="Path_7907" data-name="Path 7907" d="M17.694,138.986l-.13.211-13.986-8.59v-.291Z" fill="#f5a61f"/>
        <path id="Path_7908" data-name="Path 7908" d="M17.564,139.2l-.13.211L3.578,130.9v-.291Z" fill="#f4a520"/>
        <path id="Path_7909" data-name="Path 7909" d="M17.434,139.408l-.13.211L3.578,131.188V130.9Z" fill="#f4a421"/>
        <path id="Path_7910" data-name="Path 7910" d="M17.3,139.62l-.13.211-13.6-8.351v-.291Z" fill="#f4a322"/>
        <path id="Path_7911" data-name="Path 7911" d="M17.175,139.831l-.13.211L3.578,131.771v-.291Z" fill="#f4a223"/>
        <path id="Path_7912" data-name="Path 7912" d="M17.045,140.042l-.056.091h-.27L3.578,132.061v-.291Z" fill="#f4a123"/>
        <path id="Path_7913" data-name="Path 7913" d="M16.246,140.132,3.578,132.351v-.29l13.141,8.071Z" fill="#f3a024"/>
        <path id="Path_7914" data-name="Path 7914" d="M15.772,140.132l-12.194-7.49v-.291l12.667,7.781Z" fill="#f39f25"/>
        <path id="Path_7915" data-name="Path 7915" d="M15.3,140.132l-11.721-7.2v-.291l12.194,7.49Z" fill="#f39e26"/>
        <path id="Path_7916" data-name="Path 7916" d="M14.825,140.132,3.578,133.224v-.291l11.72,7.2Z" fill="#f39d27"/>
        <path id="Path_7917" data-name="Path 7917" d="M14.351,140.132,3.577,133.515v-.291l11.247,6.908Z" fill="#f39c27"/>
        <path id="Path_7918" data-name="Path 7918" d="M13.878,140.132l-10.3-6.326v-.291l10.773,6.617Z" fill="#f29b28"/>
        <path id="Path_7919" data-name="Path 7919" d="M13.4,140.132,3.578,134.1v-.29l10.3,6.326Z" fill="#f29a29"/>
        <path id="Path_7920" data-name="Path 7920" d="M12.931,140.132l-9.353-5.745V134.1l9.826,6.036Z" fill="#f2992a"/>
        <path id="Path_7921" data-name="Path 7921" d="M12.458,140.132l-8.88-5.454v-.291l9.353,5.745Z" fill="#f2982b"/>
        <path id="Path_7922" data-name="Path 7922" d="M11.984,140.132l-8.406-5.163v-.291l8.879,5.454Z" fill="#f2972c"/>
        <path id="Path_7923" data-name="Path 7923" d="M11.51,140.132,3.577,135.26v-.291l8.406,5.163Z" fill="#f1962c"/>
        <path id="Path_7924" data-name="Path 7924" d="M11.037,140.132,3.578,135.55v-.29l7.932,4.872Z" fill="#f1952d"/>
        <path id="Path_7925" data-name="Path 7925" d="M10.564,140.132l-6.986-4.291v-.291l7.459,4.582Z" fill="#f1942e"/>
        <path id="Path_7926" data-name="Path 7926" d="M3.578,135.842l6.986,4.291H3.578Z" fill="#f1942e"/>
      </g>
    </g>
    <g id="Group_1830" data-name="Group 1830">
      <g id="Group_1829" data-name="Group 1829" clip-path="url(#clip-path-13)">
        <rect id="Rectangle_1083" data-name="Rectangle 1083" width="19.341" height="19.498" transform="translate(-1.967 135.447) rotate(-58.442)" fill="url(#linear-gradient)"/>
      </g>
    </g>
    <g id="Group_1832" data-name="Group 1832">
      <g id="Group_1831" data-name="Group 1831" clip-path="url(#clip-path)">
        <path id="Path_7929" data-name="Path 7929" d="M14.14,129.267l-.167,1.807a.825.825,0,0,0,.294.712l1.394,1.163a.828.828,0,0,1-.348,1.443l-1.771.4a.827.827,0,0,0-.586.5l-.675,1.685a.828.828,0,0,1-1.48.115l-.927-1.561a.827.827,0,0,0-.656-.4l-1.811-.121a.828.828,0,0,1-.567-1.372l1.2-1.364a.83.83,0,0,0,.181-.749l-.445-1.76A.827.827,0,0,1,8.9,128.8l1.667.718a.83.83,0,0,0,.768-.06l1.536-.967a.828.828,0,0,1,1.265.777" fill="#ffd008"/>
        <path id="Path_7930" data-name="Path 7930" d="M11.511,137.578a.9.9,0,0,1-.779-.445l-.928-1.56a.744.744,0,0,0-.591-.365L7.4,135.087a.908.908,0,0,1-.622-1.505l1.2-1.365a.748.748,0,0,0,.163-.676L7.7,129.782a.91.91,0,0,1,1.241-1.058l1.667.718a.748.748,0,0,0,.692-.053l1.537-.968a.912.912,0,0,1,.96-.005.9.9,0,0,1,.428.86l-.167,1.807a.75.75,0,0,0,.265.642l1.395,1.162a.909.909,0,0,1-.383,1.584l-1.771.4a.748.748,0,0,0-.528.451l-.675,1.684a.9.9,0,0,1-.773.569c-.025,0-.048,0-.073,0m-2.938-8.767a.751.751,0,0,0-.719.932L8.3,131.5a.915.915,0,0,1-.2.823l-1.2,1.364a.745.745,0,0,0,.511,1.236l1.81.121a.909.909,0,0,1,.721.444l.928,1.559a.745.745,0,0,0,1.334-.1l.675-1.685a.912.912,0,0,1,.642-.549l1.772-.4a.747.747,0,0,0,.314-1.3l-1.394-1.162a.906.906,0,0,1-.324-.782l.167-1.808a.745.745,0,0,0-1.14-.7l-1.536.967a.9.9,0,0,1-.843.064l-1.667-.717a.759.759,0,0,0-.3-.063" fill="#ffda3e"/>
      </g>
    </g>
    <g id="Group_1834" data-name="Group 1834">
      <g id="Group_1833" data-name="Group 1833" clip-path="url(#clip-path-15)">
        <path id="Path_7931" data-name="Path 7931" d="M20.628,135.006l-2.13-8.912h2.13Z" fill="#ffdb43"/>
        <path id="Path_7932" data-name="Path 7932" d="M20.628,135.445l-2.235-9.351h.1l2.13,8.912Z" fill="#ffdb43"/>
        <path id="Path_7933" data-name="Path 7933" d="M20.628,135.884l-2.34-9.79h.1l2.235,9.351Z" fill="#ffdb44"/>
        <path id="Path_7934" data-name="Path 7934" d="M20.628,136.323l-2.445-10.229h.1l2.34,9.79Z" fill="#ffdb45"/>
        <path id="Path_7935" data-name="Path 7935" d="M20.628,136.762l-2.55-10.668h.1l2.445,10.229Z" fill="#ffdc46"/>
        <path id="Path_7936" data-name="Path 7936" d="M20.628,137.2l-2.655-11.107h.105l2.55,10.668Z" fill="#ffdc47"/>
        <path id="Path_7937" data-name="Path 7937" d="M20.628,137.64l-2.76-11.546h.1L20.628,137.2Z" fill="#ffdc48"/>
        <path id="Path_7938" data-name="Path 7938" d="M20.628,138.079l-2.864-11.985h.1l2.76,11.546Z" fill="#ffdc49"/>
        <path id="Path_7939" data-name="Path 7939" d="M20.628,138.518l-2.969-12.424h.1l2.864,11.985Z" fill="#ffdc4a"/>
        <path id="Path_7940" data-name="Path 7940" d="M20.628,138.957l-3.074-12.863h.1l2.969,12.424Z" fill="#ffdd4b"/>
        <path id="Path_7941" data-name="Path 7941" d="M20.628,139.4l-3.179-13.3h.105l3.074,12.863Z" fill="#ffdd4c"/>
        <path id="Path_7942" data-name="Path 7942" d="M20.628,139.835l-3.284-13.741h.1l3.179,13.3Z" fill="#ffdd4d"/>
        <path id="Path_7943" data-name="Path 7943" d="M20.628,140.274l-3.389-14.18h.1l3.284,13.741Z" fill="#ffdd4e"/>
        <path id="Path_7944" data-name="Path 7944" d="M20.628,140.713l-3.494-14.619h.1l3.389,14.18Z" fill="#ffdd4f"/>
        <path id="Path_7945" data-name="Path 7945" d="M20.628,140.727l-.1.023-3.5-14.656h.1l3.494,14.618Z" fill="#ffdd50"/>
        <path id="Path_7946" data-name="Path 7946" d="M20.532,140.75l-.1.024-3.509-14.68h.1Z" fill="#ffde51"/>
        <path id="Path_7947" data-name="Path 7947" d="M20.433,140.774l-.1.024-3.515-14.7h.1Z" fill="#ffde52"/>
        <path id="Path_7948" data-name="Path 7948" d="M20.333,140.8l-.1.024-3.52-14.728h.1Z" fill="#ffde53"/>
        <path id="Path_7949" data-name="Path 7949" d="M20.234,140.821l-.1.024-3.526-14.752h.1Z" fill="#ffde54"/>
        <path id="Path_7950" data-name="Path 7950" d="M20.135,140.845l-.1.024L16.5,126.094h.1Z" fill="#ffde55"/>
        <path id="Path_7951" data-name="Path 7951" d="M20.035,140.869l-.1.024-3.537-14.8h.1Z" fill="#ffdf56"/>
        <path id="Path_7952" data-name="Path 7952" d="M19.936,140.892l-.1.024-3.543-14.823h.1Z" fill="#ffdf57"/>
        <path id="Path_7953" data-name="Path 7953" d="M19.837,140.916l-.1.024-3.549-14.846h.105Z" fill="#ffdf58"/>
        <path id="Path_7954" data-name="Path 7954" d="M19.738,140.94l-.1.024-3.554-14.87h.1Z" fill="#ffdf59"/>
        <path id="Path_7955" data-name="Path 7955" d="M19.639,140.964l-.013,0h-.091l-3.555-14.873h.1Z" fill="#ffdf5a"/>
        <path id="Path_7956" data-name="Path 7956" d="M19.429,140.967l-3.555-14.873h.105l3.555,14.873Z" fill="#ffe05b"/>
        <path id="Path_7957" data-name="Path 7957" d="M19.324,140.967l-3.555-14.873h.105l3.555,14.873Z" fill="#ffe05c"/>
        <path id="Path_7958" data-name="Path 7958" d="M19.22,140.967l-3.555-14.873h.105l3.555,14.873Z" fill="#ffe05d"/>
        <path id="Path_7959" data-name="Path 7959" d="M19.115,140.967,15.56,126.094h.105l3.555,14.873Z" fill="#ffe05e"/>
        <path id="Path_7960" data-name="Path 7960" d="M19.01,140.967l-3.555-14.873h.105l3.555,14.873Z" fill="#ffe05f"/>
        <path id="Path_7961" data-name="Path 7961" d="M18.9,140.967,15.35,126.094h.105l3.555,14.873Z" fill="#ffe160"/>
        <path id="Path_7962" data-name="Path 7962" d="M18.8,140.967l-3.555-14.873h.105L18.9,140.967Z" fill="#ffe161"/>
        <path id="Path_7963" data-name="Path 7963" d="M18.695,140.967,15.14,126.094h.105L18.8,140.967Z" fill="#ffe162"/>
        <path id="Path_7964" data-name="Path 7964" d="M18.59,140.967l-3.555-14.873h.105L18.7,140.967Z" fill="#ffe163"/>
        <path id="Path_7965" data-name="Path 7965" d="M18.485,140.967,14.93,126.094h.105l3.555,14.873Z" fill="#ffe164"/>
        <path id="Path_7966" data-name="Path 7966" d="M18.38,140.967l-3.555-14.873h.105l3.555,14.873Z" fill="#ffe165"/>
        <path id="Path_7967" data-name="Path 7967" d="M18.275,140.967,14.72,126.094h.105l3.555,14.873Z" fill="#ffe266"/>
        <path id="Path_7968" data-name="Path 7968" d="M18.17,140.967l-3.555-14.873h.105l3.555,14.873Z" fill="#ffe267"/>
        <path id="Path_7969" data-name="Path 7969" d="M18.066,140.967,14.51,126.094h.105l3.555,14.873Z" fill="#ffe268"/>
        <path id="Path_7970" data-name="Path 7970" d="M17.961,140.967l-3.555-14.873h.105l3.555,14.873Z" fill="#ffe269"/>
        <path id="Path_7971" data-name="Path 7971" d="M17.856,140.967,14.3,126.094h.105l3.555,14.873Z" fill="#ffe26a"/>
        <path id="Path_7972" data-name="Path 7972" d="M17.751,140.967,14.2,126.094H14.3l3.555,14.873Z" fill="#ffe36b"/>
        <path id="Path_7973" data-name="Path 7973" d="M17.646,140.967l-3.555-14.873H14.2l3.555,14.873Z" fill="#ffe36c"/>
        <path id="Path_7974" data-name="Path 7974" d="M17.541,140.967l-3.555-14.873h.105l3.555,14.873Z" fill="#ffe36d"/>
        <path id="Path_7975" data-name="Path 7975" d="M17.436,140.967l-3.555-14.873h.105l3.555,14.873Z" fill="#ffe36e"/>
        <path id="Path_7976" data-name="Path 7976" d="M17.331,140.967l-3.555-14.873h.105l3.555,14.873Z" fill="#ffe36f"/>
        <path id="Path_7977" data-name="Path 7977" d="M17.226,140.967l-3.555-14.873h.105l3.555,14.873Z" fill="#ffe470"/>
        <path id="Path_7978" data-name="Path 7978" d="M17.121,140.967l-3.555-14.873h.105l3.555,14.873Z" fill="#ffe471"/>
        <path id="Path_7979" data-name="Path 7979" d="M17.016,140.967l-3.555-14.873h.105l3.555,14.873Z" fill="#ffe472"/>
        <path id="Path_7980" data-name="Path 7980" d="M16.912,140.967l-3.555-14.873h.105l3.555,14.873Z" fill="#ffe473"/>
        <path id="Path_7981" data-name="Path 7981" d="M16.807,140.967l-3.555-14.873h.105l3.555,14.873Z" fill="#ffe474"/>
        <path id="Path_7982" data-name="Path 7982" d="M16.7,140.967l-3.555-14.873h.105l3.555,14.873Z" fill="#ffe575"/>
        <path id="Path_7983" data-name="Path 7983" d="M16.6,140.967l-3.555-14.873h.105L16.7,140.967Z" fill="#ffe576"/>
        <path id="Path_7984" data-name="Path 7984" d="M16.492,140.967l-3.555-14.873h.105L16.6,140.967Z" fill="#ffe577"/>
        <path id="Path_7985" data-name="Path 7985" d="M16.387,140.967l-3.555-14.873h.105l3.555,14.873Z" fill="#ffe578"/>
        <path id="Path_7986" data-name="Path 7986" d="M16.282,140.967l-3.555-14.873h.105l3.555,14.873Z" fill="#ffe579"/>
        <path id="Path_7987" data-name="Path 7987" d="M16.177,140.967l-3.555-14.873h.105l3.555,14.873Z" fill="#ffe57a"/>
        <path id="Path_7988" data-name="Path 7988" d="M16.072,140.967l-3.555-14.873h.105l3.555,14.873Z" fill="#ffe67b"/>
        <path id="Path_7989" data-name="Path 7989" d="M15.967,140.967l-3.555-14.873h.105l3.555,14.873Z" fill="#ffe67c"/>
        <path id="Path_7990" data-name="Path 7990" d="M15.862,140.967l-3.555-14.873h.105l3.555,14.873Z" fill="#ffe67d"/>
        <path id="Path_7991" data-name="Path 7991" d="M15.757,140.967,12.2,126.094h.105l3.555,14.873Z" fill="#ffe67e"/>
        <path id="Path_7992" data-name="Path 7992" d="M15.653,140.967,12.1,126.094H12.2l3.555,14.873Z" fill="#ffe67f"/>
        <path id="Path_7993" data-name="Path 7993" d="M15.548,140.967l-3.555-14.873H12.1l3.555,14.873Z" fill="#ffe780"/>
        <path id="Path_7994" data-name="Path 7994" d="M15.443,140.967l-3.555-14.873h.105l3.555,14.873Z" fill="#ffe781"/>
        <path id="Path_7995" data-name="Path 7995" d="M15.338,140.967l-3.555-14.873h.105l3.555,14.873Z" fill="#ffe782"/>
        <path id="Path_7996" data-name="Path 7996" d="M15.233,140.967l-3.555-14.873h.105l3.555,14.873Z" fill="#ffe783"/>
        <path id="Path_7997" data-name="Path 7997" d="M15.128,140.967l-3.555-14.873h.105l3.555,14.873Z" fill="#ffe784"/>
        <path id="Path_7998" data-name="Path 7998" d="M15.023,140.967l-3.555-14.873h.105l3.555,14.873Z" fill="#ffe885"/>
        <path id="Path_7999" data-name="Path 7999" d="M14.918,140.967l-3.555-14.873h.105l3.555,14.873Z" fill="#ffe886"/>
        <path id="Path_8000" data-name="Path 8000" d="M14.813,140.967l-3.555-14.873h.105l3.555,14.873Z" fill="#ffe887"/>
        <path id="Path_8001" data-name="Path 8001" d="M14.708,140.967l-3.555-14.873h.105l3.555,14.873Z" fill="#ffe888"/>
        <path id="Path_8002" data-name="Path 8002" d="M14.6,140.967l-3.555-14.873h.105l3.555,14.873Z" fill="#ffe889"/>
        <path id="Path_8003" data-name="Path 8003" d="M14.5,140.967l-3.555-14.873h.105L14.6,140.967Z" fill="#ffe98b"/>
        <path id="Path_8004" data-name="Path 8004" d="M14.394,140.967l-3.555-14.873h.105L14.5,140.967Z" fill="#ffe98c"/>
        <path id="Path_8005" data-name="Path 8005" d="M14.289,140.967l-3.555-14.873h.105l3.555,14.873Z" fill="#ffe98d"/>
        <path id="Path_8006" data-name="Path 8006" d="M14.184,140.967l-3.555-14.873h.105l3.555,14.873Z" fill="#ffe98e"/>
        <path id="Path_8007" data-name="Path 8007" d="M14.079,140.967l-3.555-14.873h.105l3.555,14.873Z" fill="#ffe98f"/>
        <path id="Path_8008" data-name="Path 8008" d="M13.974,140.967l-3.555-14.873h.105l3.555,14.873Z" fill="#ffe990"/>
        <path id="Path_8009" data-name="Path 8009" d="M13.869,140.967l-3.555-14.873h.105l3.555,14.873Z" fill="#ffea91"/>
        <path id="Path_8010" data-name="Path 8010" d="M13.764,140.967l-3.555-14.873h.105l3.555,14.873Z" fill="#ffea92"/>
        <path id="Path_8011" data-name="Path 8011" d="M13.659,140.967,10.1,126.094h.105l3.555,14.873Z" fill="#ffea93"/>
        <path id="Path_8012" data-name="Path 8012" d="M13.554,140.967,10,126.094H10.1l3.555,14.873Z" fill="#ffea94"/>
        <path id="Path_8013" data-name="Path 8013" d="M13.449,140.967,9.894,126.094H10l3.555,14.873Z" fill="#ffea95"/>
        <path id="Path_8014" data-name="Path 8014" d="M13.344,140.967,9.789,126.094h.105l3.555,14.873Z" fill="#ffeb96"/>
        <path id="Path_8015" data-name="Path 8015" d="M13.24,140.967,9.684,126.094H9.79l3.555,14.873Z" fill="#ffeb97"/>
        <path id="Path_8016" data-name="Path 8016" d="M13.135,140.967,9.58,126.094h.105l3.555,14.873Z" fill="#ffeb98"/>
        <path id="Path_8017" data-name="Path 8017" d="M13.03,140.967,9.475,126.094H9.58l3.555,14.873Z" fill="#ffeb99"/>
        <path id="Path_8018" data-name="Path 8018" d="M12.925,140.967,9.37,126.094h.105l3.555,14.873Z" fill="#ffeb9a"/>
        <path id="Path_8019" data-name="Path 8019" d="M12.82,140.967,9.265,126.094H9.37l3.555,14.873Z" fill="#ffec9b"/>
        <path id="Path_8020" data-name="Path 8020" d="M12.715,140.967,9.16,126.094h.105l3.555,14.873Z" fill="#ffec9c"/>
        <path id="Path_8021" data-name="Path 8021" d="M12.61,140.967,9.055,126.094H9.16l3.555,14.873Z" fill="#ffec9d"/>
        <path id="Path_8022" data-name="Path 8022" d="M12.505,140.967,8.95,126.094h.105l3.555,14.873Z" fill="#ffec9e"/>
        <path id="Path_8023" data-name="Path 8023" d="M12.4,140.967,8.845,126.094H8.95l3.555,14.873Z" fill="#ffec9f"/>
        <path id="Path_8024" data-name="Path 8024" d="M12.3,140.967,8.74,126.094h.105L12.4,140.967Z" fill="#ffeca0"/>
        <path id="Path_8025" data-name="Path 8025" d="M12.19,140.967,8.635,126.094H8.74L12.3,140.967Z" fill="#ffeda1"/>
        <path id="Path_8026" data-name="Path 8026" d="M12.085,140.967,8.53,126.094h.105l3.555,14.873Z" fill="#ffeda2"/>
        <path id="Path_8027" data-name="Path 8027" d="M11.981,140.967,8.425,126.094h.105l3.555,14.873Z" fill="#ffeda3"/>
        <path id="Path_8028" data-name="Path 8028" d="M11.876,140.967,8.321,126.094h.105l3.555,14.873Z" fill="#ffeda4"/>
        <path id="Path_8029" data-name="Path 8029" d="M11.771,140.967,8.216,126.094h.105l3.555,14.873Z" fill="#ffeda5"/>
        <path id="Path_8030" data-name="Path 8030" d="M11.666,140.967,8.111,126.094h.105l3.555,14.873Z" fill="#ffeea6"/>
        <path id="Path_8031" data-name="Path 8031" d="M11.561,140.967,8.006,126.094h.105l3.555,14.873Z" fill="#ffeea7"/>
        <path id="Path_8032" data-name="Path 8032" d="M11.456,140.967,7.9,126.094h.105l3.555,14.873Z" fill="#ffeea8"/>
        <path id="Path_8033" data-name="Path 8033" d="M11.351,140.967,7.8,126.111l.071-.017H7.9l3.555,14.873Z" fill="#ffeea9"/>
        <path id="Path_8034" data-name="Path 8034" d="M11.246,140.967,7.7,126.135l.1-.024,3.551,14.856Z" fill="#fea"/>
        <path id="Path_8035" data-name="Path 8035" d="M11.141,140.967,7.6,126.158l.1-.023,3.545,14.832Z" fill="#ffefab"/>
        <path id="Path_8036" data-name="Path 8036" d="M11.036,140.967,7.5,126.182l.1-.024,3.539,14.809Z" fill="#ffefac"/>
        <path id="Path_8037" data-name="Path 8037" d="M10.931,140.967,7.4,126.206l.1-.024,3.534,14.785Z" fill="#ffefad"/>
        <path id="Path_8038" data-name="Path 8038" d="M10.826,140.967,7.3,126.23l.1-.024,3.528,14.761Z" fill="#ffefae"/>
        <path id="Path_8039" data-name="Path 8039" d="M10.722,140.967,7.2,126.253l.1-.023,3.522,14.737Z" fill="#ffefaf"/>
        <path id="Path_8040" data-name="Path 8040" d="M10.617,140.967l-3.511-14.69.1-.024,3.517,14.714Z" fill="#fff0b0"/>
        <path id="Path_8041" data-name="Path 8041" d="M10.512,140.967,7.007,126.3l.1-.024,3.511,14.69Z" fill="#fff0b1"/>
        <path id="Path_8042" data-name="Path 8042" d="M10.407,140.967l-3.5-14.643.1-.023,3.5,14.666Z" fill="#fff0b2"/>
        <path id="Path_8043" data-name="Path 8043" d="M10.3,140.967,6.808,126.348l.1-.024,3.5,14.643Z" fill="#fff0b3"/>
        <path id="Path_8044" data-name="Path 8044" d="M10.2,140.967l-3.488-14.6.1-.024L10.3,140.967Z" fill="#fff0b4"/>
        <path id="Path_8045" data-name="Path 8045" d="M10.092,140.967,6.609,126.4l.1-.024,3.488,14.6Z" fill="#fff0b5"/>
        <path id="Path_8046" data-name="Path 8046" d="M9.987,140.967,6.51,126.419l.1-.023,3.483,14.571Z" fill="#fff1b6"/>
        <path id="Path_8047" data-name="Path 8047" d="M9.882,140.967,6.438,126.556v-.119l.072-.018,3.477,14.548Z" fill="#fff1b7"/>
        <path id="Path_8048" data-name="Path 8048" d="M9.777,140.967,6.438,126.995v-.439l3.444,14.411Z" fill="#fff1b8"/>
        <path id="Path_8049" data-name="Path 8049" d="M9.672,140.967,6.438,127.434v-.439l3.339,13.972Z" fill="#fff1b9"/>
        <path id="Path_8050" data-name="Path 8050" d="M9.567,140.967l-3.13-13.094v-.439l3.235,13.533Z" fill="#fff1ba"/>
        <path id="Path_8051" data-name="Path 8051" d="M9.462,140.967,6.437,128.312v-.439l3.13,13.094Z" fill="#fff2bb"/>
        <path id="Path_8052" data-name="Path 8052" d="M9.358,140.967l-2.92-12.216v-.439l3.025,12.655Z" fill="#fff2bc"/>
        <path id="Path_8053" data-name="Path 8053" d="M9.253,140.967,6.438,129.19v-.439l2.92,12.216Z" fill="#fff2bd"/>
        <path id="Path_8054" data-name="Path 8054" d="M9.148,140.967l-2.71-11.338v-.439l2.815,11.777Z" fill="#fff2be"/>
        <path id="Path_8055" data-name="Path 8055" d="M9.043,140.967l-2.605-10.9v-.439l2.71,11.338Z" fill="#fff2bf"/>
        <path id="Path_8056" data-name="Path 8056" d="M8.938,140.967l-2.5-10.461v-.438l2.6,10.9Z" fill="#fff3c0"/>
        <path id="Path_8057" data-name="Path 8057" d="M8.833,140.967,6.438,130.945v-.439l2.5,10.461Z" fill="#fff3c1"/>
        <path id="Path_8058" data-name="Path 8058" d="M8.728,140.967l-2.29-9.583v-.439l2.395,10.022Z" fill="#fff3c2"/>
        <path id="Path_8059" data-name="Path 8059" d="M8.623,140.967l-2.185-9.144v-.439l2.29,9.583Z" fill="#fff3c3"/>
        <path id="Path_8060" data-name="Path 8060" d="M8.518,140.967l-2.08-8.705v-.439l2.185,9.144Z" fill="#fff3c4"/>
        <path id="Path_8061" data-name="Path 8061" d="M8.413,140.967,6.437,132.7v-.439l2.081,8.705Z" fill="#fff4c5"/>
        <path id="Path_8062" data-name="Path 8062" d="M8.309,140.967,6.438,133.14V132.7l1.976,8.266Z" fill="#fff4c6"/>
        <path id="Path_8063" data-name="Path 8063" d="M8.2,140.967l-1.766-7.388v-.439l1.871,7.827Z" fill="#fff4c7"/>
        <path id="Path_8064" data-name="Path 8064" d="M8.1,140.967l-1.661-6.949v-.439L8.2,140.967Z" fill="#fff4c8"/>
        <path id="Path_8065" data-name="Path 8065" d="M7.994,140.967l-1.556-6.51v-.439L8.1,140.967Z" fill="#fff4c9"/>
        <path id="Path_8066" data-name="Path 8066" d="M7.889,140.967,6.438,134.9v-.439l1.556,6.51Z" fill="#fff4ca"/>
        <path id="Path_8067" data-name="Path 8067" d="M7.784,140.967l-1.346-5.632V134.9l1.451,6.071Z" fill="#fff5cb"/>
        <path id="Path_8068" data-name="Path 8068" d="M7.679,140.967l-1.241-5.193v-.439l1.346,5.632Z" fill="#fff5cc"/>
        <path id="Path_8069" data-name="Path 8069" d="M7.574,140.967l-1.136-4.754v-.439l1.241,5.193Z" fill="#fff5cd"/>
        <path id="Path_8070" data-name="Path 8070" d="M7.469,140.967l-1.031-4.315v-.439l1.136,4.754Z" fill="#fff5ce"/>
        <path id="Path_8071" data-name="Path 8071" d="M7.364,140.967l-.926-3.876v-.439l1.031,4.315Z" fill="#fff5cf"/>
        <path id="Path_8072" data-name="Path 8072" d="M7.259,140.967l-.821-3.437v-.439l.926,3.876Z" fill="#fff6d0"/>
        <path id="Path_8073" data-name="Path 8073" d="M7.154,140.967l-.717-3v-.439l.822,3.437Z" fill="#fff6d1"/>
        <path id="Path_8074" data-name="Path 8074" d="M7.049,140.967l-.612-2.559v-.439l.717,3Z" fill="#fff6d2"/>
        <path id="Path_8075" data-name="Path 8075" d="M6.438,138.408l.612,2.559H6.438Z" fill="#fff6d2"/>
      </g>
    </g>
    <g id="Group_1836" data-name="Group 1836">
      <g id="Group_1835" data-name="Group 1835" clip-path="url(#clip-path)">
        <path id="Path_8077" data-name="Path 8077" d="M115.089,73.241l-2.941-4.4a3.035,3.035,0,0,0-2.265-1.337l-5.278-.448a3.031,3.031,0,0,0-2.458.937l-3.64,3.848a3.034,3.034,0,0,0-.8,2.506l.739,5.245a3.044,3.044,0,0,0,1.46,2.188l4.561,2.692a3.031,3.031,0,0,0,2.621.223l4.949-1.887a3.041,3.041,0,0,0,1.808-1.911l1.611-5.046a3.045,3.045,0,0,0-.367-2.605" fill="#ffe5bb"/>
        <path id="Path_8078" data-name="Path 8078" d="M99.285,72.641a3.029,3.029,0,0,0-.111,1.334l.739,5.245a3.028,3.028,0,0,0,.62,1.451L107.91,75.2Z" fill="#ff6c59"/>
        <path id="Path_8079" data-name="Path 8079" d="M112.625,67.536a3.023,3.023,0,0,0-1.275-.4l-5.277-.448a3.033,3.033,0,0,0-1.336.189l3.174,8.324Z" fill="#f64327"/>
        <path id="Path_8080" data-name="Path 8080" d="M104.736,66.872a3.03,3.03,0,0,0-1.122.749l-3.64,3.848a3.011,3.011,0,0,0-.689,1.172L107.91,75.2Z" fill="#fb9158"/>
        <path id="Path_8081" data-name="Path 8081" d="M106.548,84.376a3.03,3.03,0,0,0,2.008-.053l4.949-1.887a3.032,3.032,0,0,0,1.512-1.262l-7.1-5.968Z" fill="#f64327"/>
        <path id="Path_8082" data-name="Path 8082" d="M107.91,75.2l-7.377,5.474a3,3,0,0,0,.84.736l4.561,2.693a3.032,3.032,0,0,0,.613.276l1.366-9.17Z" fill="#f7293b"/>
        <path id="Path_8083" data-name="Path 8083" d="M116.556,72.874l-2.941-4.4a3.023,3.023,0,0,0-.991-.933L107.91,75.2l9.15-.814a3.037,3.037,0,0,0-.5-1.509" fill="#ff6c59"/>
        <path id="Path_8084" data-name="Path 8084" d="M107.914,75.206l7.1,5.968a3.1,3.1,0,0,0,.3-.649l1.61-5.046a3.038,3.038,0,0,0,.137-1.1l-9.149.814Z" fill="#fb9158"/>
        <path id="Path_8085" data-name="Path 8085" d="M104.721,69.591,102,72.465a2.268,2.268,0,0,0-.6,1.873l.551,3.918a2.264,2.264,0,0,0,1.092,1.634l3.407,2.012a2.261,2.261,0,0,0,1.958.166l3.7-1.409a2.263,2.263,0,0,0,1.35-1.428l1.2-3.77a2.269,2.269,0,0,0-.274-1.946l-2.2-3.291a2.266,2.266,0,0,0-1.693-1l-3.943-.334a2.265,2.265,0,0,0-1.836.7" fill="#ff875b"/>
        <path id="Path_8086" data-name="Path 8086" d="M112.971,71.385,106.8,82.067a2.262,2.262,0,0,0,1.614,0l1.309-.5,4.66-8.067Z" fill="#ff9f7d"/>
        <path id="Path_8087" data-name="Path 8087" d="M112.195,70.223a2.266,2.266,0,0,0-1.692-1l-1.45-.123-6.168,10.68c.053.038.107.075.164.108l3.027,1.787,6.385-11.055Z" fill="#ff9f7d"/>
        <path id="Path_8088" data-name="Path 8088" d="M351.7,149.258a3.245,3.245,0,0,0-.618,1.288l-1.257,5.511a3.221,3.221,0,0,0,.067,1.683l9.437-2.654Z" fill="#b95fff"/>
        <path id="Path_8089" data-name="Path 8089" d="M366.942,149.238a3.238,3.238,0,0,0-1.117-.888l-5.093-2.452a3.232,3.232,0,0,0-1.4-.321v9.509Z" fill="#a52af4"/>
        <path id="Path_8090" data-name="Path 8090" d="M359.328,145.577a3.245,3.245,0,0,0-1.4.32l-5.093,2.453a3.23,3.23,0,0,0-1.132.907l7.629,5.828Z" fill="#b358fb"/>
        <path id="Path_8091" data-name="Path 8091" d="M354.479,163.721a3.235,3.235,0,0,0,2.022.71h5.653a3.238,3.238,0,0,0,1.988-.683l-4.814-8.651Z" fill="#b95fff"/>
        <path id="Path_8092" data-name="Path 8092" d="M359.328,155.086l-9.438,2.654a3.244,3.244,0,0,0,.558,1.054l3.524,4.419a3.291,3.291,0,0,0,.507.508l4.849-8.625Z" fill="#952fed"/>
        <path id="Path_8093" data-name="Path 8093" d="M368.833,156.056l-1.258-5.511a3.219,3.219,0,0,0-.633-1.307l-7.614,5.847,9.434,2.667a3.228,3.228,0,0,0,.071-1.7" fill="#b95fff"/>
        <path id="Path_8094" data-name="Path 8094" d="M359.328,155.1l4.814,8.651a3.257,3.257,0,0,0,.542-.534l3.524-4.42a3.225,3.225,0,0,0,.554-1.04l-9.434-2.667Z" fill="#b358fb"/>
        <path id="Path_8095" data-name="Path 8095" d="M358.279,148.282l-3.8,1.832a2.418,2.418,0,0,0-1.308,1.64l-.939,4.117a2.418,2.418,0,0,0,.466,2.045l2.633,3.3a2.419,2.419,0,0,0,1.89.91h4.223a2.418,2.418,0,0,0,1.89-.91l2.633-3.3a2.418,2.418,0,0,0,.467-2.045l-.94-4.117a2.418,2.418,0,0,0-1.308-1.64l-3.8-1.832a2.417,2.417,0,0,0-2.1,0" fill="#a35bff"/>
        <path id="Path_8096" data-name="Path 8096" d="M365.824,153.208l-10.214,8.306a2.412,2.412,0,0,0,1.609.614h1.5l7.713-6.273Z" fill="#b57dff"/>
        <path id="Path_8097" data-name="Path 8097" d="M365.492,151.755a2.418,2.418,0,0,0-1.308-1.64l-1.4-.673-10.212,8.3c.038.058.079.115.123.17l2.338,2.933,10.571-8.6Z" fill="#b57dff"/>
      </g>
    </g>
  </g>
</svg>
