<?xml version="1.0" encoding="UTF-8"?>
<svg width="152px" height="30px" viewBox="0 0 152 30" version="1.1" xmlns="http://www.w3.org/2000/svg" xmlns:xlink="http://www.w3.org/1999/xlink">
    <title>logo/footer@1x</title>
    <g id="logo/footer" stroke="none" stroke-width="1" fill="none" fill-rule="evenodd">
        <g id="logo-tmnewa-white" fill="#FFFFFF" fill-rule="nonzero">
            <path d="M17.1371556,1.64 C17.6640889,1.95166667 18.2079111,2.23833333 18.7956444,2.56333333 C18.1437333,2.83666667 17.5036444,2.88833333 16.8736889,2.96666667 C15.5901333,3.12666667 14.3032,3.205 13.0162667,3.27666667 C12.8355556,3.285 12.7967111,3.34666667 12.7984,3.50833333 C12.8068444,4.23666667 12.8136,4.96666667 12.7950222,5.695 C12.7899556,5.97833333 12.9639111,5.92833333 13.1277333,5.92833333 C14.8301333,5.92833333 16.5342222,5.935 18.2349333,5.92166667 C18.5254222,5.92 18.6183111,5.98166667 18.6098667,6.28166667 C18.5879111,6.95833333 18.6064889,6.96 17.9376889,6.96 L17.3296889,6.96666667 C17.2283556,6.96666667 17.1270222,6.96166667 17.0256889,6.955 C16.7554667,6.93166667 16.6710222,7.00666667 16.6760889,7.28833333 C16.6963556,8.19833333 16.6828444,9.11166667 16.6828444,10.0216667 C16.6828444,12.4983333 16.6760889,14.9716667 16.6912889,17.4483333 C16.6929778,17.7783333 16.6034667,17.87 16.2775111,17.8433333 C15.9110222,17.8116667 15.5360889,17.815 15.1696,17.8433333 C14.8588444,17.8683333 14.8048,17.7516667 14.8064889,17.4683333 C14.8183111,14.655 14.8132444,11.8416667 14.8132444,9.03 C14.8132444,8.455 14.7912889,7.88333333 14.82,7.31166667 C14.8335111,7.00333333 14.7237333,6.93833333 14.4383111,6.95333333 C14.0025778,6.97666667 13.5668444,6.97833333 13.1328,6.95333333 C12.8389333,6.93333333 12.7950222,7.04333333 12.7950222,7.30333333 C12.8068444,9.15166667 12.8017778,11.0033333 12.8017778,12.85 C12.8017778,13.7666667 12.6835556,14.6633333 12.2410667,15.4833333 C11.6567111,16.57 10.7126222,17.2 9.52195556,17.4933333 C9.43751111,17.515 9.30915556,17.5866667 9.24835556,17.45 C9.20444444,17.355 9.25848889,17.2716667 9.348,17.2233333 C10.2144,16.76 10.4322667,15.9016667 10.6585778,15.0666667 C10.8730667,14.275 10.9372444,13.46 10.9338667,12.6366667 C10.9254222,9.17166667 10.9372444,5.70833333 10.9220444,2.24333333 C10.9203556,1.89 11.0233778,1.79 11.3662222,1.81833333 C11.7344,1.84833333 12.1042667,1.83833333 12.4741333,1.82 C12.7207111,1.80666667 12.8152889,1.865 12.8102222,2.13666667 C12.7950222,2.78333333 12.8136,2.785 13.4469333,2.635 C14.5075556,2.38166667 15.5344,2.02833333 16.5291556,1.59833333 C16.7639111,1.49666667 16.9277333,1.515 17.1371556,1.64 L17.1371556,1.64 Z M4.97546667,1.31166667 C5.44835556,1.33 5.92462222,1.32833333 6.3992,1.31166667 C6.59173333,1.30833333 6.64915556,1.37 6.6424,1.555 C6.63057778,1.89333333 6.66097778,2.23333333 6.63226667,2.57166667 C6.60693333,2.88333333 6.68462222,2.99333333 7.03084444,2.98333333 C7.94115556,2.955 8.85315556,2.98 9.76346667,2.96666667 C10.0201778,2.96333333 10.1265778,3.005 10.1181333,3.3 C10.0961778,4.03833333 10.1147556,4.05 9.34124444,4.03333333 C9.0744,4.025 8.91057778,4.10333333 8.77715556,4.335 C8.3904,5.01166667 7.98168889,5.675 7.58311111,6.345 C7.51893333,6.45166667 7.46488889,6.56333333 7.38044444,6.72166667 C8.21475556,6.72166667 8.98826667,6.73166667 9.76177778,6.715 C10.0235556,6.70833333 10.1248889,6.75666667 10.1164444,7.045 C10.0995556,7.75166667 10.1164444,7.75166667 9.39191111,7.75166667 C8.58631111,7.75166667 7.78071111,7.76166667 6.9768,7.74666667 C6.72346667,7.74333333 6.61368889,7.81333333 6.63564444,8.075 C6.67617778,8.5 6.45831111,9.05333333 6.72515556,9.31 C6.93795556,9.515 7.50035556,9.375 7.90737778,9.37666667 C8.55253333,9.38166667 9.20106667,9.385 9.84791111,9.375 C10.0455111,9.37166667 10.1130667,9.41833333 10.1164444,9.63166667 C10.1265778,10.41 10.1367111,10.41 9.34462222,10.41 C8.56773333,10.41 7.78577778,10.4233333 7.00888889,10.4033333 C6.70657778,10.395 6.63057778,10.4933333 6.63226667,10.78 C6.64408889,12.4733333 6.63902222,14.1666667 6.63733333,15.8583333 C6.63733333,16.095 6.64915556,16.3333333 6.60862222,16.56 C6.47857778,17.29 6.00231111,17.66 5.07004444,17.7366667 C4.51946667,17.7816667 3.96382222,17.7816667 3.41155556,17.795 C3.31022222,17.7966667 3.15822222,17.8566667 3.14302222,17.6616667 C3.12782222,17.4533333 3.28657778,17.5216667 3.38791111,17.5116667 C4.37928889,17.42 4.70524444,17.0833333 4.71031111,16.095 C4.72044444,14.31 4.712,12.525 4.73057778,10.74 C4.73395556,10.455 4.636,10.3983333 4.37084444,10.4033333 C3.42,10.42 2.46915556,10.4033333 1.52,10.415 C1.29875556,10.4183333 1.23288889,10.36 1.23288889,10.1366667 C1.22782222,9.37833333 1.216,9.38 1.97768889,9.38 C2.78328889,9.38 3.58888889,9.37 4.3928,9.385 C4.63768889,9.38833333 4.75084444,9.34333333 4.73057778,9.07 C4.70355556,8.74833333 4.70693333,8.41833333 4.73057778,8.095 C4.74746667,7.82666667 4.66471111,7.74 4.38266667,7.745 L1.33253333,7.75833333 C1.05893333,7.76333333 0.976177778,7.69666667 0.981244444,7.41833333 C0.998133333,6.72166667 0.984622222,6.72166667 1.67537778,6.72166667 L3.63617778,6.72166667 C3.16666667,5.88166667 2.80186667,5.07 2.54008889,4.215 C2.49448889,4.07166667 2.42862222,4.03666667 2.29182222,4.04 C2.01315556,4.04666667 1.73786667,4.03333333 1.4592,4.04 C1.28524444,4.05 1.24471111,3.98333333 1.23288889,3.81666667 C1.17884444,2.97333333 1.17208889,2.97333333 2.01315556,2.97333333 C2.81875556,2.97333333 3.62435556,2.96166667 4.42826667,2.98 C4.68328889,2.98666667 4.74071111,2.91 4.72888889,2.67666667 C4.70862222,2.31333333 4.73226667,1.94666667 4.72044444,1.58166667 C4.71368889,1.39166667 4.74746667,1.30333333 4.97377778,1.31166667 L4.97546667,1.31166667 Z M2.33573333,11.0166667 C2.75457778,11.0433333 3.17848889,11.0233333 3.59902222,11.0233333 C3.72568889,11.0233333 3.82702222,11.0216667 3.8304,11.2 C3.85742222,12.7133333 3.79662222,14.21 3.01128889,15.5733333 C2.54008889,16.3916667 1.91351111,17.05 1.01502222,17.515 C0.994755556,17.34 0.933955556,17.2016667 1.07751111,17.0866667 C1.67031111,16.6116667 1.78346667,15.9316667 1.87804444,15.2483333 C2.05368889,13.965 1.95235556,12.6783333 1.9456,11.3933333 C1.9456,11.0883333 2.02835556,10.9966667 2.33573333,11.0166667 L2.33573333,11.0166667 Z M7.22506667,11.43 C7.29262222,11.4633333 7.35173333,11.4866667 7.40746667,11.5166667 C8.26542222,11.9883333 9.11831111,12.4666667 9.98302222,12.925 C10.1755556,13.0266667 10.1603556,13.13 10.1046222,13.2916667 C9.91546667,13.8416667 9.728,14.3916667 9.54897778,14.9466667 C9.47804444,15.17 9.39191111,15.2016667 9.2112,15.0316667 C8.2536,14.1233333 7.5392,13.045 6.93964444,11.885 C6.88391111,11.78 7.11697778,11.4383333 7.22675556,11.43 L7.22506667,11.43 Z M7.09333333,4.065 L3.28995556,4.065 C3.35244444,4.13666667 3.38284444,4.19333333 3.42844444,4.23166667 C3.91991111,4.62166667 4.40968889,5.01333333 4.9096,5.39333333 C5.09875556,5.53666667 5.14604444,5.64833333 4.97377778,5.855 C4.76097778,6.10666667 4.59715556,6.4 4.38266667,6.72166667 L5.36053333,6.72 L5.81991111,6.725 C5.94488889,6.725 6.01582222,6.68 6.05973333,6.57166667 L7.09333333,4.06333333 L7.09333333,4.065 Z M26.7300444,5.07666667 C27.3076444,5.1 27.8869333,5.085 28.4848,5.085 C28.2382222,6.06333333 28.0203556,7.02166667 27.7552,7.96833333 C27.664,8.295 27.7214222,8.36 28.0558222,8.35833333 C31.1296,8.34833333 34.2067556,8.35833333 37.2822222,8.34333333 C37.6115556,8.34333333 37.7044444,8.42333333 37.6909333,8.74833333 C37.6622222,9.39166667 37.6824889,9.39333333 37.0238222,9.39333333 C35.9936,9.39333333 34.9650667,9.39833333 33.9331556,9.39 C33.7304889,9.38833333 33.6443556,9.42166667 33.6207111,9.65 C33.44,11.3033333 32.8252444,12.7833333 31.7629333,14.0716667 C31.5349333,14.345 31.7933333,14.3316667 31.9216889,14.38 C33.4467556,14.9633333 34.9701333,15.5466667 36.5019556,16.115 C36.8076444,16.2283333 36.8481778,16.3216667 36.6286222,16.58 C36.2756444,16.9983333 35.9564444,17.4466667 35.6473778,17.8983333 C35.4936889,18.1233333 35.3687111,18.1066667 35.1491556,17.9866667 C33.6967111,17.1866667 32.2307556,16.4116667 30.7783111,15.61 C30.5300444,15.475 30.3662222,15.4566667 30.1247111,15.6383333 C28.3936,16.94 26.4311111,17.6116667 24.2642667,17.765 C23.3134222,17.8316667 22.3676444,17.7033333 21.4201778,17.74 C21.2631111,17.745 21.1195556,17.7533333 21.1347556,17.4933333 C21.1499556,17.2533333 21.2192,17.1866667 21.4556444,17.1983333 C23.1006222,17.265 24.6679111,16.9266667 26.1575111,16.2483333 C27.1032889,15.82 27.9646222,15.2616667 28.7415111,14.5183333 C28.0119111,14.125 27.3312889,13.7633333 26.6574222,13.3883333 C26.4750222,13.285 26.3973333,13.2833333 26.3466667,13.5166667 C26.2014222,14.165 26.1896,14.1616667 25.5275556,14.1616667 L24.8942222,14.1616667 L24.2608889,14.16 C24.2355556,14.16 24.2102222,14.15 24.1426667,14.1366667 L24.7945778,11.5233333 C24.9465778,10.9216667 25.0749333,10.3116667 25.2607111,9.72 C25.3603556,9.395 25.2370667,9.38666667 24.9786667,9.39 C23.6039111,9.39833333 22.2325333,9.385 20.8577778,9.40166667 C20.5554667,9.405 20.4558222,9.34 20.4676444,9.02 C20.4946667,8.35333333 20.4744,8.35333333 21.1533333,8.35333333 C22.5247111,8.35333333 23.8977778,8.34333333 25.2725333,8.35833333 C25.536,8.36166667 25.6356444,8.27333333 25.6913778,8.03333333 C25.9008,7.15 26.1355556,6.275 26.3416,5.39166667 C26.3956444,5.165 26.4733333,5.06833333 26.7300444,5.07666667 L26.7300444,5.07666667 Z M27.7248,9.385 C27.4528889,9.37333333 27.3616889,9.48166667 27.3059556,9.71666667 C27.1201778,10.51 26.9310222,11.3033333 26.7131556,12.0866667 C26.6456,12.32 26.7013333,12.4083333 26.9158222,12.4866667 C27.7366222,12.7866667 28.5540444,13.0883333 29.3630222,13.42 C29.6281778,13.53 29.7565333,13.46 29.9034667,13.2533333 C30.6803556,12.1666667 31.1785778,10.9716667 31.4015111,9.66166667 C31.4386667,9.45 31.3778667,9.385 31.1650667,9.39 C30.5739556,9.39833333 29.9794667,9.39333333 29.3849778,9.39333333 C28.8327111,9.39333333 28.2770667,9.41 27.7248,9.385 Z M29.6467556,1.31333333 C29.8376,1.30833333 29.8967111,1.375 29.8933333,1.56 C29.8832,2.08 29.8967111,2.60166667 29.8865778,3.12333333 C29.8832,3.31166667 29.9220444,3.39333333 30.1432889,3.39333333 C31.6869333,3.38333333 33.2305778,3.38833333 34.7742222,3.38833333 L34.8789333,3.38833333 C34.9464889,3.38333333 34.9988444,3.355 34.9853333,3.24666667 C34.9515556,2.98 35.1204444,2.99333333 35.3028444,2.99666667 C35.8044444,3 36.3060444,3.00166667 36.8059556,2.99166667 C36.9917333,2.98833333 37.0643556,3.045 37.0609778,3.23666667 C37.0525333,4.13666667 37.0525333,5.03166667 37.0609778,5.93 C37.0643556,6.11333333 37.0170667,6.17666667 36.8245333,6.18 C36.2705778,6.18833333 35.7166222,6.14666667 35.1660444,6.22666667 C34.9768889,6.255 34.9887111,6.12333333 34.9887111,6.005 C34.9887111,5.60166667 34.9718222,5.19666667 34.9971556,4.795 C35.0140444,4.52 34.9296,4.44833333 34.6526222,4.45166667 C32.7644444,4.46333333 30.8779556,4.45833333 28.9914667,4.45833333 C27.1184889,4.45833333 25.2455111,4.46333333 23.3708444,4.45166667 C23.0888,4.45 22.9655111,4.49666667 22.9925333,4.80833333 C23.0229333,5.18333333 22.9925333,5.56333333 23.0009778,5.94166667 C23.0060444,6.10166667 22.9672,6.175 22.7848,6.175 C22.2190222,6.18 21.6532444,6.20166667 21.0874667,6.22 C20.9354667,6.22666667 20.9118222,6.14166667 20.9118222,6.025 L20.9118222,3.21333333 C20.9118222,3.07 20.9574222,2.99666667 21.1144889,2.99666667 C21.6684444,3 22.2224,2.99666667 22.7763556,2.99666667 C22.8709333,2.99666667 22.9942222,3.00166667 22.9857778,3.11833333 C22.9655111,3.435 23.1715556,3.38833333 23.3708444,3.38833333 C24.7287111,3.385 26.0899556,3.37666667 27.4461333,3.39666667 C27.7518222,3.4 27.8244444,3.31333333 27.8109333,3.03 C27.7856,2.54666667 27.8109333,2.065 27.8008,1.58333333 C27.7957333,1.38333333 27.8497778,1.30666667 28.0642667,1.31333333 C28.5912,1.325 29.1181333,1.32333333 29.6467556,1.31333333 Z M49.1888889,1.24333333 C49.4,1.23833333 49.4219556,1.33 49.4185778,1.49833333 C49.4101333,1.91666667 49.4354667,2.33333333 49.4101333,2.74833333 C49.3932444,3.04333333 49.4861333,3.12333333 49.7833778,3.12 C51.9232,3.10833333 54.0613333,3.12166667 56.2011556,3.10666667 C56.5355556,3.10333333 56.6537778,3.165 56.6352,3.52333333 C56.5997333,4.15333333 56.6250667,4.15666667 55.9900444,4.15666667 C53.9296,4.15666667 51.8708444,4.16166667 49.8104,4.15 C49.5114667,4.14833333 49.3712889,4.20833333 49.4118222,4.53333333 C49.4523556,4.85333333 49.2800889,5.26666667 49.4743111,5.47833333 C49.5891556,5.6 49.7783111,5.60166667 49.9776,5.58333333 L50.2782222,5.55 L50.4234667,5.545 C51.0973333,5.55666667 51.7695111,5.545 52.4433778,5.54833333 C52.6004444,5.55 52.7490667,5.55333333 52.7136,5.33333333 C52.6798222,5.09666667 52.7997333,5.05833333 53.0074667,5.065 C53.5090667,5.07833333 54.0106667,5.075 54.5139556,5.065 C54.6997333,5.06166667 54.7943111,5.08833333 54.7926222,5.31333333 C54.7841778,7.56666667 54.7841778,9.82166667 54.7926222,12.075 C54.7926222,12.2916667 54.7149333,12.3333333 54.5156444,12.33 C54.0157333,12.3233333 53.5124444,12.325 53.0125333,12.355 C52.7541333,12.37 52.7085333,12.2783333 52.7119111,12.0466667 C52.7186667,11.4883333 52.7051556,11.4883333 52.1292444,11.4883333 C51.3371556,11.4883333 50.5450667,11.5016667 49.7529778,11.4816667 C49.4692444,11.475 49.4084444,11.5566667 49.4101333,11.8283333 C49.4202667,13.7416667 49.4101333,15.6566667 49.4219556,17.5733333 C49.4219556,17.8383333 49.3679111,17.9366667 49.0808,17.9216667 C48.6332444,17.895 48.1823111,17.8966667 47.7347556,17.9216667 C47.4392,17.935 47.3344889,17.8716667 47.3378667,17.545 C47.3564444,15.54 47.3463111,13.535 47.3463111,11.5283333 C47.0051556,12.3716667 46.6234667,13.1733333 46.0678222,13.8833333 C44.7792,15.5183333 43.0768,16.5816667 41.1599111,17.35 C40.9792,17.4233333 40.7951111,17.4916667 40.6093333,17.5516667 C40.5181333,17.5816667 40.3847111,17.6683333 40.3374222,17.5316667 C40.3002667,17.4233333 40.2614222,17.2683333 40.4049778,17.1783333 C40.5029333,17.115 40.6127111,17.0633333 40.7157333,17.0066667 C42.7778667,15.8816667 44.2404444,14.25 45.0156444,12.04 C45.0578667,11.9166667 45.0916444,11.79 45.1220444,11.6666667 C45.1338667,11.6166667 45.1237333,11.565 45.1237333,11.49 L44.4363556,11.495 L44.0935111,11.485 C43.8503111,11.4683333 43.7456,11.5383333 43.7928889,11.785 C43.8688889,12.1866667 43.7084444,12.3216667 43.2929778,12.285 C42.8758222,12.2466667 42.4485333,12.275 42.0263111,12.2883333 C41.8371556,12.295 41.7392,12.2633333 41.7408889,12.0366667 C41.7493333,9.79666667 41.7476444,7.555 41.7408889,5.315 C41.7408889,5.13166667 41.7915556,5.06166667 41.9874667,5.065 C42.5160889,5.07666667 43.0447111,5.075 43.5716444,5.065 C43.7439111,5.06166667 43.8182222,5.11833333 43.7912,5.28666667 C43.7506667,5.53833333 43.9009778,5.55333333 44.0968889,5.55166667 C45.0865778,5.545 46.0762667,5.54333333 47.0676444,5.55333333 C47.2872,5.55666667 47.3716444,5.50333333 47.3496889,5.275 C47.3159111,4.915 47.4949333,4.45 47.2821333,4.22 C47.0794667,4.00333333 46.6065778,4.16 46.2552889,4.15833333 C44.2624,4.15333333 42.2678222,4.14833333 40.2749333,4.16333333 C39.9354667,4.16666667 39.8155556,4.1 39.8358222,3.74 C39.8696,3.11666667 39.8425778,3.11666667 40.4911111,3.115 C42.6579556,3.115 44.8231111,3.10666667 46.9882667,3.12 C47.2922667,3.12333333 47.3699556,3.04666667 47.3530667,2.755 C47.3260444,2.32833333 47.3530667,1.895 47.3429333,1.46666667 C47.3378667,1.295 47.3936,1.24333333 47.5658667,1.24666667 C48.1063111,1.255 48.6484444,1.25833333 49.1888889,1.24333333 L49.1888889,1.24333333 Z M50.8811556,12.0933333 C51.7424889,13.87 53.1493333,14.9633333 55.1067556,15.355 C55.3888,15.4116667 55.8498667,15.365 55.9224889,15.5116667 C56.0643556,15.8 55.9900444,16.19 56.0069333,16.54 L55.9900444,16.54 L55.9900444,16.8133333 C55.9900444,17.6266667 55.9883556,17.6416667 55.2097778,17.42 C52.5531556,16.6633333 50.768,15.0233333 50.0029333,12.3666667 C49.9624,12.2266667 49.8120889,12.0416667 50.0265778,11.9266667 C50.2748444,11.79 50.7899556,11.905 50.8811556,12.0933333 L50.8811556,12.0933333 Z M47.0760889,9.06333333 C46.0864,9.07666667 45.0967111,9.075 44.1070222,9.06666667 C43.8790222,9.06333333 43.7658667,9.10333333 43.7861333,9.36166667 C43.8097778,9.645 43.8030222,9.935 43.7861333,10.22 C43.776,10.425 43.8418667,10.49 44.0512889,10.4833333 C44.5664,10.47 45.0815111,10.4783333 45.5966222,10.4783333 C45.8077333,10.4783333 46.0188444,10.4866667 46.2282667,10.4766667 C46.5947556,10.4583333 47.0912889,10.6383333 47.2855111,10.4066667 C47.3902222,10.2816667 47.3902222,10.0733333 47.3750222,9.85 L47.3530667,9.51333333 L47.3530667,9.35 C47.3648889,9.14333333 47.3125333,9.05833333 47.0760889,9.06166667 L47.0760889,9.06333333 Z M52.4889778,9.06666667 C51.5415111,9.07333333 50.5923556,9.07333333 49.6432,9.06666667 C49.4743111,9.06666667 49.4084444,9.12166667 49.4135111,9.29166667 C49.4219556,9.60333333 49.4287111,9.915 49.4118222,10.2266667 C49.3983111,10.4433333 49.4861333,10.4883333 49.6820444,10.4833333 C50.1448,10.47 50.6075556,10.4783333 51.0669333,10.4783333 C51.5415111,10.4783333 52.0160889,10.4733333 52.4889778,10.4816667 C52.6544889,10.485 52.7288,10.4416667 52.7220444,10.265 C52.7102222,9.94166667 52.7119111,9.615 52.7220444,9.29 C52.7254222,9.12 52.6578667,9.06666667 52.4889778,9.06666667 L52.4889778,9.06666667 Z M44.9903111,6.56666667 C44.6001778,6.57333333 44.0681778,6.395 43.8604444,6.63833333 C43.6645333,6.87 43.8182222,7.38 43.7861333,7.76666667 C43.7658667,8.02333333 43.8688889,8.06666667 44.1002667,8.05833333 C44.6001778,8.04166667 45.1000889,8.05333333 45.6,8.05333333 C45.7857778,8.055 45.9698667,8.06166667 46.1556444,8.05333333 C46.5440889,8.03666667 47.0963556,8.22166667 47.2804444,7.98166667 C47.4797333,7.72666667 47.3294222,7.21333333 47.3530667,6.81333333 C47.3648889,6.60166667 47.2838222,6.555 47.0828444,6.55833333 C46.3853333,6.56833333 45.6878222,6.55333333 44.9903111,6.56666667 L44.9903111,6.56666667 Z M50.6143111,6.56666667 C50.2241778,6.575 49.6769778,6.39166667 49.4861333,6.63833333 C49.2868444,6.895 49.4354667,7.405 49.4118222,7.805 C49.4,8.02166667 49.4878222,8.06333333 49.6837333,8.05833333 C50.1312889,8.045 50.5788444,8.055 51.0264,8.055 C51.4874667,8.055 51.9485333,8.04333333 52.4079111,8.05833333 C52.6342222,8.06666667 52.7456889,8.03 52.7237333,7.76833333 C52.6984,7.45833333 52.7034667,7.145 52.7237333,6.835 C52.7389333,6.60166667 52.6460444,6.55333333 52.4298667,6.55833333 L50.6143111,6.56666667 Z M63.4177778,11.7466667 C63.916,11.7583333 64.4176,11.755 64.9192,11.75 C65.0931556,11.75 65.1573333,11.8266667 65.1404444,11.9866667 C65.0391111,12.9033333 64.9681778,13.83 64.6523556,14.6983333 C64.2048,15.9233333 63.2336889,16.6883333 62.0970667,17.27 C61.5498667,17.55 60.9621333,17.735 60.3625778,17.8816667 C60.1362667,17.9366667 59.9268444,17.9316667 59.7832889,17.665 C60.4132444,17.4466667 60.9874667,17.1483333 61.4552889,16.6766667 C62.3537778,15.7733333 62.7861333,14.6466667 63.0225778,13.4333333 C63.1154667,12.9633333 63.1864,12.4866667 63.1813333,12.0066667 C63.1813333,11.8333333 63.2151111,11.7433333 63.4177778,11.7466667 L63.4177778,11.7466667 Z M73.6017778,5.38 C73.7892444,5.375 73.8179556,5.45333333 73.8162667,5.61 C73.8128889,7.38 73.8112,9.15166667 73.8196444,10.9233333 C73.8196444,11.125 73.7284444,11.1566667 73.5561778,11.1566667 C73.0816,11.1566667 72.6036444,11.1516667 72.1324444,11.1833333 C71.8352,11.2033333 71.7102222,11.1133333 71.7676444,10.8216667 C71.8436444,10.4383333 71.6798222,10.34 71.3015111,10.3616667 C70.6715556,10.395 70.0348444,10.3883333 69.4032,10.3616667 C69.0738667,10.35 68.9472,10.4116667 68.9607111,10.7783333 C68.9944889,11.6883333 68.9725333,12.6 68.9725333,13.5116667 L68.9725333,16.09 C68.9691556,17.065 68.324,17.7533333 67.3292444,17.8183333 C66.7634667,17.8533333 66.1976889,17.8616667 65.6302222,17.8683333 C65.5305778,17.8716667 65.3549333,17.9516667 65.3380444,17.7766667 C65.3211556,17.5816667 65.5052444,17.6683333 65.6032,17.6566667 C66.2686222,17.57 66.8411556,17.355 67.0303111,16.635 C67.0860444,16.425 67.0928,16.1983333 67.0928,15.98 C67.0978667,14.2216667 67.0894222,12.4633333 67.1029333,10.7066667 C67.1029333,10.4283333 67.0269333,10.3566667 66.7499556,10.3633333 C65.9730667,10.3833333 65.1961778,10.3816667 64.4159111,10.365 C64.1372444,10.3583333 64.0224,10.44 64.0713778,10.7116667 C64.1338667,11.0616667 64.0021333,11.1866667 63.6305778,11.1616667 C63.1847111,11.1316667 62.7354667,11.1583333 62.2862222,11.1783333 C62.0751111,11.1883333 62.0176889,11.115 62.0193419,10.9116667 C62.0278222,9.155 62.0295111,7.39666667 62.0193419,5.64 C62.0193419,5.425 62.0970667,5.37333333 62.2963556,5.37833333 C62.8114667,5.38833333 63.3265778,5.37833333 63.8416889,5.385 C63.9210667,5.385 64.0696889,5.34 64.0595556,5.47166667 C64.0342222,5.78166667 64.1963556,5.79666667 64.3736889,5.78833333 L64.5256889,5.78166667 L71.3724444,5.78166667 C71.5683556,5.78166667 71.82,5.86 71.7777778,5.50333333 C71.7608889,5.37666667 71.8875556,5.38166667 71.9804444,5.38166667 C72.5208889,5.38166667 73.0613333,5.38833333 73.6017778,5.37833333 L73.6017778,5.38 Z M70.6259556,12.4133333 C72.4043556,13.485 74.1776889,14.5633333 75.9662222,15.6166667 C76.2550222,15.7866667 76.2448889,15.8883333 76.0675556,16.1266667 C75.6791111,16.6433333 75.3210667,17.1833333 74.9343111,17.7366667 L72.4161778,15.5333333 C71.4704,14.705 70.5330667,13.8683333 69.5754667,13.055 C69.3474667,12.86 69.3474667,12.7433333 69.5467556,12.5383333 C70.0247111,12.0483333 70.0145778,12.045 70.6259556,12.4133333 Z M71.4906667,6.80833333 C69.1160889,6.81666667 66.7398222,6.81666667 64.3635556,6.80833333 C64.144,6.80833333 64.0612444,6.875 64.0663111,7.09666667 C64.0798222,7.735 64.0848889,8.37333333 64.0663111,9.01166667 C64.0578667,9.26166667 64.1372444,9.31166667 64.3753778,9.31166667 C65.5508444,9.29666667 66.7263111,9.305 67.9000889,9.305 C69.0873778,9.305 70.2763556,9.29833333 71.4636444,9.31166667 C71.6984,9.31333333 71.7845333,9.26833333 71.7760889,9.01833333 C71.7575111,8.38166667 71.7625778,7.74166667 71.7727111,7.10333333 C71.7744,6.89666667 71.7321778,6.80833333 71.4906667,6.80833333 Z M68.3831111,1.19166667 C68.6584,1.18166667 68.7208889,1.285 68.7107556,1.53333333 C68.6921778,1.96166667 68.7259556,2.39333333 68.6989333,2.82166667 C68.6803556,3.12666667 68.7715556,3.21333333 69.0873778,3.21166667 C71.3437333,3.195 73.6017778,3.21166667 75.8581333,3.195 C76.1874667,3.19333333 76.2769778,3.27 76.2634667,3.59833333 C76.2364444,4.22 76.2533333,4.27 75.7247111,4.27333333 L67.8612444,4.27333333 C65.1826667,4.27333333 62.5024,4.26833333 59.8221333,4.28 C59.5248889,4.28333333 59.4472,4.20833333 59.4556444,3.91333333 C59.4725333,3.20333333 59.4573333,3.20333333 60.1683556,3.20333333 L66.1470222,3.20333333 C66.7381333,3.20166667 66.652,3.29166667 66.6587556,2.67666667 C66.6638222,2.28666667 66.6722667,1.89333333 66.6553778,1.505 C66.6452444,1.275 66.7026667,1.18166667 66.9593778,1.19333333 C67.4339556,1.215 67.9102222,1.215 68.3848,1.19333333 L68.3831111,1.19166667 Z M84.7146667,5 L85.3091556,5.00166667 L86.5285333,5.00166667 C86.4576,5.61666667 86.4576,5.61666667 87.0571556,5.61666667 C88.3373333,5.61666667 89.6175111,5.60833333 90.8976889,5.62 C91.1611556,5.62166667 91.3503111,5.6 91.2979556,5.275 C91.2692444,5.11333333 91.3553778,5.08166667 91.5006222,5.08166667 C92.0292444,5.09 92.5561778,5.09666667 93.0848,5.08 C93.3516444,5.07166667 93.3009778,5.235 93.3009778,5.385 C93.3009778,6.73833333 93.3094222,8.09333333 93.2959111,9.44833333 C93.2925333,9.74333333 93.3533333,9.87333333 93.6843556,9.845 C94.0255111,9.815 94.3700444,9.85 94.7128889,9.83333333 C94.9088,9.825 94.9493333,9.89666667 94.9544,10.08 C94.9814222,10.8683333 94.9881778,10.8683333 94.2028444,10.8683333 L94.0339556,10.8683333 C93.3009778,10.8716667 93.3009778,10.9266667 93.3009778,11.7516667 C93.3009778,12.6366667 93.3077333,13.5216667 93.2976,14.4083333 C93.2959111,14.625 93.3482667,14.71 93.5830222,14.7 C93.9647111,14.6833333 94.3464,14.7016667 94.7314667,14.69 C94.9054222,14.685 94.9459556,14.7466667 94.9544,14.9133333 C95,15.725 95.0050667,15.725 94.1825778,15.7233333 C94.1150222,15.7233333 94.0474667,15.7333333 93.9849778,15.7233333 C93.5576889,15.6533333 93.3229333,15.7566667 93.1979556,16.24 C92.9986667,17.0016667 92.3383111,17.36 91.6256,17.5733333 C90.6984,17.8533333 89.7357333,17.885 88.7730667,17.8733333 C88.5991111,17.8733333 88.4437333,17.8633333 88.4538667,17.605 C88.4656889,17.315 88.6784889,17.435 88.7967111,17.4266667 C89.3202667,17.395 89.8438222,17.365 90.3488,17.1983333 C90.9399111,17.0033333 91.2506667,16.595 91.2945778,15.99 C91.3064,15.82 91.2743111,15.7216667 91.0648889,15.7233333 C89.2577778,15.7283333 87.4506667,15.7283333 85.6418667,15.72 C85.3463111,15.72 85.3581333,15.915 85.3750222,16.0866667 C85.4121778,16.4733333 85.2449778,16.5866667 84.8717333,16.5533333 C84.4545778,16.5133333 84.0289778,16.4983333 83.6101333,16.515 C83.3112,16.5266667 83.3061333,16.4083333 83.3314667,16.1716667 L83.8752889,11.215 C83.9090667,10.9116667 83.8077333,10.8233333 83.5206222,10.865 C83.3888889,10.8833333 83.2504,10.8483333 83.1237333,10.8716667 C82.7285333,10.9416667 82.6407111,10.7783333 82.6626667,10.41 C82.6981333,9.83833333 82.6728,9.83666667 83.2824889,9.83666667 L83.4378667,9.83666667 C84.0627556,9.835 84.0441778,9.78166667 84.1049778,9.075 C84.2198222,7.78333333 84.3701333,6.49166667 84.4968,5.2 C84.5136889,5.05 84.5660444,5 84.7163556,5 L84.7146667,5 Z M83.144,6.29 C82.4768889,8.965 81.8182222,11.6383333 81.1342222,14.305 C81.0632889,14.585 81.1392889,14.73 81.3284444,14.9016667 C81.5615111,15.1083333 81.9482667,15.25 81.9786667,15.5383333 C82.0090667,15.7966667 81.776,16.0816667 81.6611556,16.3566667 L81.0869333,17.7566667 C81.0784889,17.7783333 81.0582222,17.7933333 81.0295111,17.8283333 C80.5735111,17.5233333 80.2644444,17.0866667 79.9570667,16.6516667 C79.0670222,15.4016667 78.2867556,14.085 77.6331556,12.6983333 C77.5436444,12.51 77.4000889,12.2933333 77.6770667,12.1166667 C77.8459556,12.01 77.9912,11.9733333 78.1651556,12.1333333 C78.5873778,12.5216667 79.0332444,12.8866667 79.4554667,13.2766667 C79.6784,13.4833333 79.7797333,13.4866667 79.9097778,13.18 C80.8386667,10.9633333 81.7844444,8.75166667 82.7184,6.53833333 C82.8028444,6.33833333 82.8737778,6.175 83.144,6.29 L83.144,6.29 Z M86.1755556,10.8633068 C85.9627556,10.8616667 85.9256,10.9383333 85.9087111,11.125 C85.7938667,12.2316667 85.6705778,13.34 85.5371556,14.445 C85.5084444,14.6766667 85.6064,14.6983333 85.7972444,14.6983333 C86.6670222,14.69 87.5368,14.6933333 88.4099556,14.6933333 C89.2662222,14.6933333 90.1241778,14.685 90.9821333,14.6983333 C91.2202667,14.7016667 91.2996444,14.6366667 91.2962667,14.3933333 C91.2844444,13.3133333 91.2861333,12.2333333 91.2962667,11.1533333 C91.2962667,10.9333333 91.2320889,10.8633068 91.0057778,10.865 C89.3962667,10.8733333 87.7867556,10.8733333 86.1755556,10.8633068 L86.1755556,10.8633068 Z M87.6330667,11.355 C88.3998222,11.7366667 89.1632,12.125 89.9265778,12.5133333 C89.9873778,12.5433333 90.0380444,12.585 90.0346667,12.67 C90.0127111,12.72 89.9873778,12.7816667 89.9654222,12.8416667 C89.8066667,13.2616667 89.6344,13.6783333 89.4959111,14.1083333 C89.4114667,14.3633333 89.3185778,14.4116667 89.1176,14.215 C88.3660444,13.48 87.7901333,12.6183333 87.2800889,11.7116667 C87.2378667,11.6316667 87.1635556,11.5333333 87.2733333,11.4316667 C87.3814222,11.335 87.5064,11.2916667 87.6330667,11.355 L87.6330667,11.355 Z M91.0648889,6.645 C89.5752889,6.65 88.084,6.65 86.5944,6.645 C86.4052444,6.645 86.3410667,6.71833333 86.3241778,6.895 C86.2464889,7.77333333 86.1704889,8.65333333 86.0708444,9.52833333 C86.0421333,9.77333333 86.0928,9.845 86.3478222,9.84166667 C87.2699556,9.82666667 88.1920889,9.83666667 89.2121778,9.83666667 C88.4386667,9.05 87.8475556,8.235 87.3544,7.34833333 C87.2868444,7.22666667 87.1297778,7.085 87.2969778,6.93666667 C87.4405333,6.80666667 87.5976,6.85166667 87.7631111,6.93666667 C88.4572444,7.3 89.1581333,7.64833333 89.8573333,7.995 C90.0160889,8.07333333 90.06,8.13333333 89.9806222,8.31333333 C89.8032889,8.71333333 89.6631111,9.13 89.5094222,9.53833333 C89.4351111,9.73833333 89.4604444,9.85166667 89.7256,9.84166667 C90.1596444,9.82333333 90.5953778,9.83166667 91.0311111,9.83833333 C91.2050667,9.84166667 91.3013333,9.8 91.2979556,9.60166667 C91.2912,8.69 91.2912,7.78 91.2979556,6.86833333 C91.2979556,6.69666667 91.2354667,6.64333333 91.0648889,6.645 L91.0648889,6.645 Z M77.9304,6.10666667 C77.9878222,6.13166667 78.0486222,6.15333333 78.1060444,6.18166667 C78.8153778,6.545 79.5196444,6.91333333 80.2306667,7.265 C80.4164444,7.35666667 80.4671111,7.44 80.3776,7.64 C80.2036444,8.02833333 80.0296889,8.42166667 79.9216,8.83166667 C79.8101333,9.25333333 79.6615111,9.13166667 79.4520889,8.925 C78.9200889,8.39833333 78.4894222,7.795 78.0891556,7.16833333 C77.9506667,6.95166667 77.8273778,6.72333333 77.6922667,6.50166667 C77.5639111,6.29166667 77.6584889,6.21666667 77.7919111,6.16 L77.9304,6.10666667 L77.9304,6.10666667 Z M85.88,1.555 C85.8006222,1.77166667 85.7685333,2.00666667 85.6942222,2.22666667 C85.6114667,2.46833333 85.6807111,2.53833333 85.9408,2.53333333 C87.0487111,2.52166667 88.1566222,2.52833333 89.2645333,2.52833333 C90.9027556,2.52833333 92.5409778,2.53833333 94.1758222,2.51833333 C94.4967111,2.515 94.5676444,2.61166667 94.5592,2.91 C94.5389333,3.57 94.5541333,3.57 93.9039111,3.57 L89.8269333,3.57 C88.388,3.57 86.9490667,3.57166667 85.5101333,3.565 C85.2821333,3.565 85.1385778,3.61666667 84.9916444,3.81833333 C84.1472,4.975 82.9075556,5.55166667 81.5919111,6.00833333 C81.4112,6.07166667 81.2541333,5.99166667 81.1865778,5.855 C81.0953778,5.67166667 81.3183111,5.67166667 81.4061333,5.62333333 C82.8653333,4.84833333 83.6287111,3.61666667 83.8634667,2.02833333 C83.9681778,1.31666667 83.9681778,1.31666667 84.6944,1.31666667 C85.0254222,1.31666667 85.3547556,1.32166667 85.6840889,1.31666667 C85.8664889,1.31166667 85.9610667,1.33666667 85.88,1.555 L85.88,1.555 Z M79.4402667,2.14333333 C80.1833778,2.52166667 80.9264889,2.90166667 81.6696,3.27666667 C81.7962667,3.34166667 81.8418667,3.42166667 81.7912,3.55666667 L81.2406222,5.00333333 C81.2169778,5.065 81.1899556,5.12333333 81.0936889,5.10666667 C81.0278222,5.05666667 80.9501333,5.00666667 80.8842667,4.94333333 C80.1529778,4.22333333 79.5821333,3.38833333 79.0940444,2.49333333 C79.0433778,2.4 78.9808889,2.3 79.0805333,2.21166667 C79.1784889,2.125 79.3000889,2.07 79.4402667,2.14333333 L79.4402667,2.14333333 Z M104.868178,17.25 C102.267289,17.25 99.6664,17.245 97.0655111,17.2583333 C96.7513778,17.2583333 96.6652444,17.175 96.6770667,16.8683333 C96.6990222,16.185 96.6821333,16.185 97.3864,16.185 C99.1681778,16.185 100.951644,16.1766667 102.733422,16.1916667 C103.045867,16.195 103.118489,16.1133333 103.1168,15.81 C103.108356,11.2516667 103.1168,6.69333333 103.099911,2.13166667 C103.099911,1.76333333 103.208,1.67833333 103.555911,1.7 C104.015289,1.72833333 104.479733,1.725 104.9408,1.7 C105.2144,1.68666667 105.26,1.78666667 105.258311,2.02833333 C105.246489,3.37166667 105.261689,4.71166667 105.2448,6.055 C105.241422,6.33833333 105.302222,6.425 105.607911,6.42166667 C107.376178,6.405 109.146133,6.42166667 110.9144,6.405 C111.211644,6.40333333 111.289333,6.475 111.2792,6.77 C111.258933,7.47833333 111.275822,7.48 110.552978,7.48 C108.902933,7.48 107.252889,7.48333333 105.604533,7.47333333 C105.334311,7.47166667 105.2448,7.53166667 105.246489,7.815 C105.256622,10.4983333 105.258311,13.1816667 105.246489,15.865 C105.243111,16.16 105.3512,16.1916667 105.606222,16.1916667 C107.970667,16.1833333 110.330044,16.1916667 112.694489,16.1783333 C113.006933,16.1783333 113.128533,16.2283333 113.115022,16.57 C113.086311,17.25 113.106578,17.25 112.431022,17.25 L104.868178,17.25 L104.868178,17.25 Z M125.411822,6.3 C125.332444,6.42333333 125.249689,6.52 125.075733,6.51835456 C124.207644,6.51166667 123.339556,6.51666667 122.430933,6.51666667 C122.608267,6.035 122.745067,5.60666667 122.927467,5.195 C123.033867,4.95166667 122.961244,4.865 122.745067,4.76166667 C122.206311,4.505 121.684444,4.21833333 121.157511,3.945 C121.228444,3.79166667 121.334844,3.845 121.414222,3.845 C123.155467,3.84166667 124.896711,3.84166667 126.636267,3.845 C126.735911,3.845 126.867644,3.78833333 126.930133,3.885 C126.994311,3.99 126.879467,4.07166667 126.823733,4.155 C126.355911,4.87166667 125.883022,5.585 125.411822,6.30166667 M124.969333,9.33166667 C124.976089,9.56166667 124.918667,9.65833333 124.665333,9.64833333 C124.178933,9.63 123.690844,9.63833333 123.201067,9.645 C122.993333,9.64833333 122.892,9.63 122.961244,9.36666667 C123.042311,9.055 123.040622,8.725 123.086222,8.40166667 C123.116622,8.185 123.049067,8.105 122.816,8.11333333 C122.289067,8.13 121.758756,8.13333333 121.233511,8.11166667 C120.986933,8.10166667 120.929511,8.17833333 120.916,8.41166667 C120.867022,9.265 120.882222,10.125 120.623822,10.955 C120.378933,11.7383333 119.919556,12.3583333 119.178133,12.855 C119.448356,11.1383333 119.424711,9.48666667 119.428089,7.83833333 C119.428089,7.63833333 119.473689,7.57166667 119.688178,7.575 C121.348356,7.58333333 123.011911,7.58333333 124.673778,7.575 C124.888267,7.57333333 124.977778,7.61333333 124.969333,7.85 C124.952444,8.34333333 124.952444,8.83833333 124.969333,9.33333333 M132.033956,16.0833333 C130.464978,16.1 128.892622,16.0833333 127.321956,16.0966667 C127.051733,16.0983333 126.952089,16.03 126.963911,15.7516667 C126.9808,15.1783333 126.975733,14.605 126.967289,14.0316667 C126.963911,13.8483333 127.012889,13.8016667 127.213867,13.805 C128.203556,13.8183333 129.193244,13.81 130.182933,13.81 C130.9328,13.81 130.914222,13.81 130.937867,13.0866667 C130.948,12.7733333 130.8416,12.7283333 130.561244,12.7333333 C129.465156,12.75 128.370756,12.7333333 127.274667,12.7466667 C127.029778,12.7483333 126.953778,12.68 126.963911,12.4383333 C126.9808,11.995 126.990933,11.5516667 126.962222,11.11 C126.940267,10.7933333 127.019644,10.69 127.362489,10.6983333 C128.418044,10.7216667 129.4736,10.705 130.529156,10.705 C131.231733,10.705 131.211467,10.705 131.238489,10.0283333 C131.255378,9.68666667 131.135467,9.62833333 130.821333,9.63333333 C129.657689,9.655 128.495733,9.63666667 127.333778,9.64833333 C127.083822,9.65 126.990933,9.59 127.002756,9.32833333 C127.024711,8.88666667 127.031467,8.44166667 127.002756,8 C126.9808,7.67333333 127.053422,7.56166667 127.419911,7.56833333 C128.831822,7.595 130.243733,7.57833333 131.657333,7.57833333 C132.344711,7.57833333 132.324444,7.57833333 132.348089,6.88333333 C132.358222,6.565 132.253511,6.505 131.9512,6.50833333 C130.2488,6.52333333 128.544711,6.51666667 126.842311,6.51166667 C126.724089,6.51166667 126.583911,6.57 126.455556,6.42833333 C127.370933,5.59666667 128.279556,4.77333333 129.1848,3.945 C129.304711,3.83666667 129.446578,3.84166667 129.593511,3.84166667 L131.613422,3.84166667 C132.277156,3.84166667 132.258578,3.84166667 132.2856,3.20166667 C132.3008,2.875 132.201156,2.80166667 131.8752,2.80166667 C129.816444,2.82 127.756,2.80666667 125.697244,2.81833333 C125.442222,2.81833333 125.357778,2.75833333 125.367911,2.49666667 C125.388178,1.96333333 125.367911,1.43 125.378044,0.896666667 C125.381422,0.713333333 125.330756,0.646666667 125.134844,0.646666667 C124.606222,0.653333333 124.079289,0.645 123.552356,0.625 C123.358133,0.618333333 123.307467,0.68 123.310844,0.865 C123.322667,1.39833333 123.299022,1.935 123.322667,2.46666667 C123.336178,2.74666667 123.244978,2.81 122.973067,2.80833333 C121.110222,2.795 119.250756,2.80166667 117.3896,2.80166667 C116.648178,2.80166667 116.66,2.80166667 116.654933,3.535 C116.654933,3.77833333 116.715733,3.84166667 116.958933,3.83833333 C117.884444,3.82666667 118.808267,3.84833333 119.732089,3.83666667 C119.975289,3.83333333 120.1104,3.905 120.215111,4.12333333 C120.448178,4.60333333 120.753867,5.04 121.068,5.47 C121.314578,5.80666667 121.583111,6.13 121.866844,6.49166667 C121.123733,6.49166667 120.439733,6.48166667 119.752356,6.49666667 C119.510844,6.50166667 119.375733,6.45833333 119.428089,6.18333333 C119.473689,5.94166667 119.363911,5.87666667 119.124089,5.88333333 C118.634311,5.90166667 118.144533,5.90833333 117.658133,5.88333333 C117.3592,5.86666667 117.284889,5.95 117.286578,6.245 C117.303467,7.835 117.286578,9.425 117.300089,11.0116667 C117.308533,12.045 117.212267,13.0633333 116.967378,14.065 C116.646489,15.3716667 116.166844,16.595 114.9576,17.3933333 C115.163644,17.6183333 115.3528,17.5983333 115.596,17.46 C117.217333,16.5266667 118.360711,15.2083333 118.965333,13.445 C119.043022,13.2216667 119.054844,12.8933333 119.451733,13.1383333 C119.522667,13.1816667 119.620622,13.1016667 119.705067,13.065 C120.816356,12.575 121.789156,11.915 122.444444,10.875 C122.5272,10.7483333 122.606578,10.7016667 122.756889,10.7033333 C123.402044,10.71 124.050578,10.7116667 124.695733,10.7033333 C124.896711,10.7 124.9744,10.7483333 124.967644,10.96 C124.952444,11.455 124.949067,11.95 124.969333,12.445 C124.979467,12.6966667 124.886578,12.7483333 124.650133,12.745 C123.648622,12.7333333 122.645422,12.74 121.642222,12.74 C120.924444,12.74 120.937956,12.74 120.927822,13.455 C120.924444,13.7116667 120.993689,13.7816667 121.252089,13.7766667 C122.3752,13.7616667 123.496622,13.78 124.618044,13.765 C124.903467,13.76 124.979467,13.8533333 124.969333,14.12 C124.950756,14.64 124.945689,15.1633333 124.969333,15.6833333 C124.986222,16 124.900089,16.1033333 124.560622,16.1 C122.712978,16.0833333 120.865333,16.0966667 119.017689,16.0866667 C118.752533,16.0866667 118.615733,16.1366667 118.663022,16.425 C118.678222,16.5133333 118.679911,16.6116667 118.663022,16.6983333 C118.595467,17.0683333 118.762667,17.1416667 119.113956,17.1416667 C123.326044,17.13 127.534756,17.1333333 131.746844,17.1333333 C132.4224,17.1333333 132.402133,17.1333333 132.427467,16.4616667 C132.439289,16.1416667 132.336267,16.08 132.033956,16.0833333 M135.790044,1.09166667 C136.183556,1.11833333 136.582133,1.10833333 136.977333,1.09333333 C137.190133,1.08666667 137.308356,1.13333333 137.266133,1.36833333 C137.2256,1.61333333 137.337067,1.68333333 137.5752,1.67333333 C137.997422,1.65666667 138.419644,1.65666667 138.841867,1.67333333 C139.081689,1.68 139.233689,1.63833333 139.184711,1.36 C139.147556,1.15333333 139.235378,1.08833333 139.4448,1.09333333 C139.878844,1.11 140.314578,1.1 140.750311,1.09666667 C140.875289,1.09666667 140.981689,1.08833333 140.976622,1.27166667 C140.959733,1.96 140.993511,2.65333333 140.937778,3.33833333 C140.824622,4.66 139.936267,5.48833333 138.944889,6.23333333 C138.862133,6.295 138.776,6.35333333 138.637511,6.45166667 C139.7184,6.74333333 140.370311,7.39 140.681067,8.38833333 C140.731733,8.555 140.741867,8.71833333 140.741867,8.88666667 C140.741867,10.1233333 140.723289,11.3616667 140.750311,12.5983333 C140.7672,13.3883333 140.407467,13.9366667 139.758933,14.3316667 C139.162756,14.69 138.5024,14.8416667 137.808267,14.865 C137.634311,14.8716667 137.534667,14.8166667 137.482311,14.6566667 C137.414756,14.4416667 137.627556,14.5083333 137.688356,14.4833333 C138.461867,14.1466667 138.884089,13.5716667 138.944889,12.7433333 C139.044533,11.3566667 139.096889,9.96666667 138.990489,8.57666667 C138.919556,7.675 138.527733,6.99333333 137.615733,6.71166667 C138.953333,5.76166667 139.179644,4.37166667 139.184711,2.89166667 C139.184711,2.68666667 139.052978,2.71 138.921244,2.71 C138.485511,2.71 138.049778,2.72666667 137.615733,2.705 C137.342133,2.69 137.257689,2.77166667 137.261067,3.04833333 C137.274578,4.455 137.266133,5.86166667 137.266133,7.26666667 C137.266133,10.6666667 137.261067,14.0666667 137.274578,17.465 C137.276267,17.7816667 137.186756,17.86 136.884444,17.8433333 C136.4504,17.8183333 136.012978,17.8316667 135.577244,17.84 C135.411733,17.8433333 135.327289,17.7983333 135.350933,17.6233333 C135.359378,17.5566667 135.350933,17.4933333 135.350933,17.4283333 C135.347556,12.1283333 135.349244,6.825 135.330649,1.525 C135.328978,1.15 135.445511,1.06666667 135.790044,1.09166667 L135.790044,1.09166667 Z M147.147822,12.8433333 C147.595378,12.8683333 148.042933,12.8766667 148.492178,12.8833333 C148.654311,12.8866667 148.715111,12.91 148.693156,13.105 C148.644178,13.49 148.620533,13.88 148.525956,14.2583333 C148.475289,14.4583333 148.531022,14.5483333 148.737067,14.6316667 C149.564622,14.97 150.361778,15.3683333 150.9968,16.0183333 L151.106578,16.13 C151.545689,16.6016667 151.547378,16.6133333 151.126844,17.1033333 C150.898844,17.37 150.660711,17.8166667 150.414133,17.8266667 C150.155733,17.8366667 149.968267,17.3483333 149.752089,17.0766667 C149.269067,16.4783333 148.789422,15.8766667 148.282756,15.2433333 C147.615644,16.535 146.489156,17.2216667 145.2056,17.7266667 C145.126222,17.5533333 145.165067,17.44 145.301867,17.3366667 C146.3152,16.5583333 146.659733,15.4666667 146.752622,14.265 C146.781333,13.8883333 146.821867,13.5116667 146.820178,13.1366667 C146.8168,12.8816667 146.921511,12.83 147.147822,12.8433333 L147.147822,12.8433333 Z M142.324356,12.605 C142.780356,12.6466667 143.243111,12.655 143.705867,12.6566667 C143.891644,12.6566667 143.933867,12.7316667 143.908533,12.89 C143.905156,12.915 143.906844,12.9416667 143.905156,12.9666667 C143.891644,13.235 143.690667,13.55 143.866311,13.75 C144.011556,13.9183333 144.342578,13.92 144.584089,14.0166667 C145.095822,14.2166667 145.6008,14.4283333 146.006133,14.82 C146.196978,15.0066667 146.276356,15.1616667 146.078756,15.405 C145.849067,15.6866667 145.664978,16.0033333 145.445422,16.3216667 L143.722756,14.2083333 C143.531911,14.8216667 143.325867,15.34 142.949244,15.7783333 C142.283822,16.5516667 141.425867,17.0283333 140.4936,17.4 C140.426044,17.43 140.329778,17.4766667 140.284178,17.395 C140.241956,17.3183333 140.252089,17.22 140.334844,17.1483333 L140.733422,16.8066667 C140.7976,16.7483333 140.861778,16.69 140.922578,16.6266667 C141.589689,15.935 141.824444,15.0666667 141.9224,14.1483333 C141.968,13.7366667 141.989956,13.32 142.008533,12.905 C142.018667,12.6933333 142.0592,12.5816667 142.324356,12.605 L142.324356,12.605 Z M144.131467,6.35833333 C144.496267,6.38666667 144.982667,6.20166667 145.1904,6.43333333 C145.371111,6.63333333 145.249511,7.10333333 145.2512,7.45333333 C145.254578,8.03833333 145.252889,8.625 145.252889,9.21 C145.252889,10.0433333 145.244444,10.8766667 145.256267,11.71 C145.259644,11.9433333 145.210667,12.04 144.952267,12.0166667 C144.680356,11.995 144.4,11.9933333 144.124711,12.0183333 C143.861244,12.04 143.793689,11.9283333 143.834222,11.705 C143.891644,11.3833333 143.770044,11.2466667 143.435644,11.305 C143.357956,11.3216667 143.2752,11.32 143.1992,11.3083333 C142.9256,11.2666667 142.802311,11.365 142.851289,11.645 C142.903644,11.9316667 142.790489,12.0516667 142.486489,12.015 C142.152089,11.9766667 141.701156,12.16 141.506933,11.94 C141.339733,11.75 141.452889,11.32 141.452889,10.995 C141.4512,9.56166667 141.459644,8.13 141.444444,6.69833333 C141.442756,6.43 141.506933,6.325 141.792356,6.35333333 C142.038933,6.37833333 142.292267,6.36666667 142.542222,6.355 C142.744889,6.345 142.886756,6.38166667 142.854667,6.625 C142.829333,6.79666667 142.934044,6.81 143.069156,6.805 C143.254933,6.8 143.439022,6.8 143.623111,6.80833333 C143.7616,6.81333333 143.859556,6.78333333 143.834222,6.62166667 C143.790311,6.37 143.932178,6.34 144.133156,6.35833333 L144.131467,6.35833333 Z M149.113689,6.35333333 C150.219911,6.33666667 150.219911,6.33 150.219911,7.40333333 L150.219911,9.2 C150.219911,10.0333333 150.211467,10.8666667 150.224978,11.7 C150.228356,11.9333333 150.167556,12.0383333 149.915911,12.015 C149.733511,11.9983333 149.544356,11.9933333 149.363644,12.015 C148.970133,12.0683333 148.725244,11.9866667 148.816444,11.5233333 C148.850222,11.3466667 148.752267,11.295 148.590133,11.3066667 C148.498933,11.315 148.402667,11.3216667 148.314844,11.3066667 C147.931467,11.2483333 147.701778,11.34 147.791289,11.7833333 C147.830133,11.9816667 147.7136,12.01 147.537956,12.0166667 C146.430044,12.0633333 146.431733,12.0666667 146.431733,10.9816667 L146.431733,8.83333333 L146.426667,6.685 C146.426667,6.44 146.475644,6.32333333 146.750933,6.35166667 C146.972178,6.37666667 147.198489,6.36833333 147.423111,6.355 C147.656178,6.34333333 147.852089,6.34833333 147.796356,6.66833333 C147.772711,6.80166667 147.875733,6.805 147.972,6.805 C148.196622,6.805 148.421244,6.79833333 148.644178,6.805 C148.787733,6.81166667 148.8384,6.75166667 148.818133,6.62333333 C148.779289,6.38333333 148.911022,6.35666667 149.117067,6.35333333 L149.113689,6.35333333 Z M143.832533,8.425 C143.832533,7.70333333 143.832533,7.70333333 143.097867,7.74166667 L143.059022,7.74166667 C142.907022,7.72166667 142.851289,7.78333333 142.851289,7.93666667 C142.858044,8.68 142.852978,9.42 142.854667,10.1633333 L142.854667,10.2233333 C142.859733,10.2983333 142.88,10.3616667 143.0016,10.3883333 C143.643378,10.5283333 143.832533,10.3883333 143.832533,9.75166667 L143.832533,8.425 Z M148.816444,8.30833333 C148.813067,7.70833333 148.7624,7.71666667 148.059822,7.73666667 C147.852089,7.74333333 147.786222,7.80333333 147.7896,8.00666667 C147.803111,8.55333333 147.794667,9.10166667 147.794667,9.64666667 C147.794667,10.4233333 147.794667,10.4183333 148.593511,10.3633333 C148.759022,10.35 148.824889,10.31 148.819822,10.1383333 C148.808,9.78833333 148.816444,9.435 148.816444,9.085 L148.816444,8.30833333 Z M145.185333,0.771666667 L145.374489,0.791666667 C145.771378,0.855 146.188533,0.783333333 146.597244,0.785 C146.678311,0.785 146.783022,0.721666667 146.833689,0.895 C147.210311,2.21833333 148.122311,3.07833333 149.333244,3.68166667 C149.946311,3.98833333 150.591467,4.18833333 151.267022,4.29166667 C151.479822,4.325 151.523733,4.40166667 151.518667,4.58833333 C151.508533,5.03 151.491644,5.475 151.518667,5.915 C151.535556,6.19166667 151.417333,6.215 151.197778,6.175 C150.493511,6.04 149.8416,5.775 149.280889,5.33166667 C149.019111,5.125 148.750578,5.04666667 148.417867,5.05 C146.821867,5.065 145.225867,5.06833333 143.631556,5.05 C143.158667,5.04333333 142.736444,5.135 142.315911,5.345 C141.547467,5.73 140.7368,6.01833333 139.9008,6.23166667 C139.796089,5.97166667 139.904178,5.835 140.142311,5.71333333 C141.935911,4.80666667 143.410311,3.56333333 144.138222,1.66166667 C144.3848,1.01833333 144.636444,0.678333333 145.374489,0.791666667 L145.185333,0.771666667 Z M146.5736,1.59833333 C146.043289,2.74333333 145.203911,3.55833333 144.183822,4.31 L148.188178,4.31 C147.490667,3.46 147.002578,2.57 146.5736,1.59833333 L146.5736,1.59833333 Z" id="Shape"></path>
            <path d="M25.3198222,23.4066667 C26.8415111,23.4083333 28.1318222,24.2433333 28.5624889,25.5066667 C29.1789333,27.295 27.8751111,29.2533333 25.9210667,29.51 C24.8452444,29.6516667 23.8403556,29.51 22.9705778,28.8483333 C21.1533333,27.465 21.4286222,24.8816667 23.4958222,23.8233333 C24.0683556,23.5316667 24.6780444,23.4066667 25.3198222,23.4066667 L25.3198222,23.4066667 Z M9.32942222,23.4066667 C10.9794667,23.4083333 12.2630222,24.21 12.7139556,25.4166667 C13.3861333,27.2166667 12.0992,29.2333333 10.1232,29.5083333 C8.98995556,29.6633333 7.95297778,29.485 7.04435556,28.7716667 C5.472,27.5383333 5.51591111,24.8633333 7.74862222,23.7883333 C8.30257778,23.5216667 8.88862222,23.4116667 9.32942222,23.405 L9.32942222,23.4066667 Z M18.2771556,23.59 L16.8534222,25.3066667 C16.6541333,25.5483333 16.4683556,25.8016667 16.2521778,26.03 C16.1086222,26.18 16.1424,26.2733333 16.2606222,26.4183333 C16.8787556,27.16 17.4816889,27.915 18.0964444,28.66 C18.3143111,28.9233333 18.5946667,29.115 18.8986667,29.2783333 C18.9104889,29.4833333 18.7196444,29.3283333 18.6622222,29.41 C17.9140444,29.4866667 17.3111111,29.3033333 16.8551111,28.6433333 C16.3687111,27.935 15.8012444,27.2816667 15.2557333,26.615 C15.1155556,26.4433333 15.1172444,26.3383333 15.2658667,26.1616667 C15.7421333,25.5916667 16.1913778,25 16.644,24.41 C16.8297778,24.165 16.9834667,23.9016667 16.6423111,23.5883333 L18.2771556,23.5883333 L18.2771556,23.59 Z M21.0503111,23.5833333 C20.7412444,23.8616667 20.7209778,24.2033333 20.7209778,24.5566667 C20.7260444,25.845 20.7260444,27.1333333 20.7226667,28.4233333 C20.7226667,28.7616667 20.7328,29.0916667 21.0266667,29.3983333 L19.4424889,29.3983333 C19.7329778,29.1216667 19.7549333,28.7583333 19.7583111,28.4066667 C19.7718222,27.1183333 19.7718222,25.83 19.7583111,24.54 C19.7549333,24.2233333 19.7448,23.885 19.3715556,23.5833333 L21.0503111,23.5833333 L21.0503111,23.5833333 Z M15.3232889,23.5816667 C14.9990222,23.865 14.9618667,24.2133333 14.9601778,24.56 C14.9534222,25.86 14.9534222,27.16 14.9601778,28.46 C14.9618667,28.78 14.9770667,29.11 15.3317333,29.3883333 L13.6884444,29.3883333 C13.9502222,29.1433333 13.9992,28.8133333 13.9975111,28.465 L13.9975111,24.4883333 C13.9975111,24.1716667 13.9586667,23.8683333 13.6344,23.5816667 L15.3232889,23.5816667 Z M5.75573333,23.5616667 C5.76755556,23.5616667 5.78106667,23.57 5.81991111,23.585 C5.77262222,23.89 5.69662222,24.1933333 5.58177778,24.4966667 C5.26933333,24.2166667 4.91973333,24.19 4.56337778,24.1966667 L4.20533333,24.2083333 L4.028,24.2066667 C3.89288889,24.2 3.86417778,24.3066667 3.86586667,24.425 C3.89288889,25.815 3.81857778,27.2066667 3.90471111,28.5983333 C3.9216,28.8983333 3.99253333,29.1583333 4.37253333,29.3833333 L2.61608889,29.3833333 C2.87448889,29.135 2.91164444,28.8016667 2.90995556,28.4483333 C2.9032,27.1333333 2.9032,25.8183333 2.91164444,24.5033333 C2.91333333,24.28 2.8728,24.1816667 2.61271111,24.1933333 C2.06888889,24.2166667 1.51493333,24.16 1.04035556,24.5 C1.0184,24.46 1.00657778,24.4466667 1.00826667,24.435 C1.216,23.5666667 1.216,23.5666667 2.11617778,23.5666667 C3.33048889,23.5666667 4.54311111,23.5633333 5.75573333,23.5616667 Z M25.2742222,24.035 C23.8437333,24.0233333 22.8540444,24.975 22.8456,26.3733333 C22.8337778,27.7933333 23.9349333,28.95 25.2911111,28.9450161 C26.6709333,28.94 27.6336,27.985 27.6437333,26.6116667 C27.6538667,25.15 26.6388444,24.045 25.2742222,24.035 L25.2742222,24.035 Z M9.43244444,24.035 C8.02728889,24.03 7.02746667,25 7.0257758,26.3616667 C7.02408889,27.7883333 8.10497778,28.9366667 9.45946667,28.943367 C10.8190222,28.95 11.8289778,27.9666667 11.8441778,26.6266667 C11.856,25.1733333 10.7970667,24.0333333 9.43244444,24.0333333 L9.43244444,24.035 Z M56.7770667,23.5583333 C56.8919111,23.5516667 56.9527111,23.5983333 57.0033778,23.6583333 L57.0979556,23.7833333 C58.2312,25.1333333 59.3644444,26.4833333 60.5027556,27.8333333 C60.5483556,27.8883333 60.5872,27.97 60.7054222,27.96 C60.7054222,26.7433333 60.7088,25.5266667 60.7003556,24.31 C60.6986667,24.035 60.5551111,23.8016667 60.2544889,23.59 L61.8420444,23.59 C61.4046222,23.885 61.3826667,24.3083333 61.3792889,24.735 L61.3776,26.9833333 L61.3776,29.6733333 C60.8236444,29.5433333 60.4504,29.2233333 60.1278222,28.84 C59.0604444,27.57 57.9998222,26.295 56.9358222,25.0183333 C56.8969778,24.9716667 56.8902222,24.8983333 56.8108444,24.875 C56.7534222,26.215 56.7095111,27.5116667 56.7804444,28.8083333 C56.7922667,29.0366667 56.9611556,29.1916667 57.1655111,29.3933333 L55.6488889,29.3933333 C56.0440889,29.1083333 56.0660444,28.72 56.0643556,28.3133333 C56.0559111,27.0633333 56.0576,25.81 56.0643556,24.56 C56.0677333,24.1933333 56.0170667,23.86 55.6961778,23.565 C56.0559111,23.565 56.4173333,23.5816667 56.7770667,23.5583333 L56.7770667,23.5583333 Z M34.3182222,23.6166667 C34.6458667,23.8083333 34.7370667,24.395 34.9296,24.8116667 C35.3518222,25.7416667 35.7706667,26.675 36.1962667,27.605 C36.2266667,27.6683333 36.2249778,27.765 36.3719111,27.7933333 C36.7248889,26.95 37.0930667,26.1033333 37.4392889,25.2466667 C37.6419556,24.7433333 37.8936,24.2583333 38.0304,23.7316667 C38.0624889,23.6183333 38.1148444,23.5616667 38.2482667,23.565 C38.6924444,23.5733333 39.1366222,23.5683333 39.6078222,23.5683333 C39.2176889,24.0633333 39.4642667,24.5716667 39.5233778,25.0533333 C39.6703111,26.2616667 39.8814222,27.465 40.0469333,28.6733333 C40.0824,28.9466667 40.1820444,29.1616667 40.4336889,29.3733333 C39.8544,29.4433333 39.3359111,29.42 38.7633778,29.4233333 C39.0825778,29.1433333 39.0876444,28.8266667 39.0386667,28.4666667 C38.8630222,27.1816667 38.7160889,25.8916667 38.4712,24.5783333 L36.4006222,29.5266667 C35.9868444,29.29 35.7875556,28.9566667 35.6271111,28.5966667 C35.0697778,27.3716667 34.5192,26.1466667 33.9686222,24.92 C33.9230222,24.8166667 33.9027556,24.7 33.7490667,24.5966667 C33.6578667,25.205 33.5700444,25.7816667 33.4856,26.36 C33.3842667,27.0533333 33.2829333,27.7466667 33.1917333,28.44 C33.1478222,28.7616667 33.0904,29.0916667 33.4349333,29.3666667 C32.9451556,29.455 32.4992889,29.4166667 31.9943111,29.4233333 C32.5432,28.8466667 32.4891556,28.1416667 32.6023111,27.4933333 C32.7779556,26.4583333 32.9096889,25.4183333 33.0718222,24.3816667 C33.1140444,24.0983333 33.0802667,23.8483333 32.8792889,23.6466667 C32.908,23.6116667 32.9164444,23.5966667 32.9248889,23.5966667 C33.3977778,23.5866667 33.972,23.4133333 34.3182222,23.6166667 Z M50.6835556,23.6316667 C51.5009778,23.77 51.9502222,24.1616667 52.0684444,24.855 C52.1680889,25.4283333 51.7965333,26.0316667 51.1209778,26.3716667 C50.9605333,26.455 50.7899556,26.5133333 50.5788444,26.6 C51.3861333,27.4783333 52.0262222,28.4916667 53.048,29.1583333 C53.2624889,29.2983333 53.3300444,29.2366667 53.3959111,29.025 C53.4617778,28.82 53.4617778,28.61 53.4634667,28.4083333 C53.4685333,27.0533333 53.4499556,25.6983333 53.4482667,24.345 C53.4482667,24.0733333 53.3807111,23.8383333 53.1476444,23.6 L54.7419556,23.6 C54.4328889,23.9033333 54.4447111,24.3 54.4464,24.6983333 C54.4497778,25.9616667 54.4464,27.2233333 54.4464,28.4883333 C54.4464,28.8 54.4413333,29.1166667 54.7926222,29.405 C53.8586667,29.3666667 53.0192889,29.51 52.1748444,29.36 C51.9299556,29.3183333 51.7188444,29.2133333 51.5584,29.0366667 C50.8102222,28.22 50.0823111,27.3816667 49.5114667,26.415 C49.7918222,26.3233333 50.0789333,26.2483333 50.3474667,26.1366667 C50.8997333,25.91 51.1699556,25.5033333 51.1074667,25.0416667 C51.0399111,24.525 50.6632889,24.1983333 50.0468444,24.125 C49.8492444,24.1016667 49.6550222,24.145 49.4591111,24.165 C49.2564444,24.1866667 49.2361778,24.2766667 49.2395556,24.4383333 C49.2446222,25.845 49.2429333,27.255 49.2446222,28.66 C49.2446222,28.9233333 49.3104889,29.1666667 49.5688889,29.4 L47.9678222,29.4 C48.2498667,29.1216667 48.2785778,28.7666667 48.2802667,28.405 C48.2836444,27.1166667 48.2836444,25.8266667 48.2802667,24.5383333 C48.2785778,24.2116667 48.2414222,23.8883333 47.9104,23.5783333 C48.8899556,23.6483333 49.7867556,23.4783333 50.6852444,23.6316667 L50.6835556,23.6316667 Z M65.6808889,23.56 C65.9832,23.5483333 66.0811556,23.6383333 66.0541333,23.92 C66.0372444,24.1016667 66.0524444,24.2833333 66.0524444,24.4983333 C65.4613333,24.1516667 64.8533333,24.1666667 64.2335111,24.2416667 C64.0477333,24.2616667 63.9599111,24.3033333 63.9717333,24.5133333 C63.9886222,24.9033333 63.9886222,25.2966667 63.9717333,25.6866667 C63.9616,25.87 64.0240889,25.9266667 64.1575111,25.9366667 L64.2436444,25.9366667 C64.5611556,25.925 64.8803556,25.9566667 65.1944889,25.9266667 C65.4343111,25.9016667 65.5272,25.945 65.5035556,26.2 C65.4883556,26.365 65.5322667,26.5333333 65.5542222,26.745 C65.0593778,26.5083333 64.5797333,26.6083333 64.1102222,26.5866667 C63.9953778,26.5816667 63.9751111,26.64 63.9751111,26.7083333 L63.9784889,26.8083333 C63.9751111,27.3683333 63.9818667,27.9283333 63.9734222,28.49 C63.9717333,28.6533333 64.0224,28.71 64.1929778,28.7233333 C65.0830222,28.7933333 65.9798222,28.9516667 66.8276444,28.34 C66.8006222,28.7483333 66.6452444,29.0333333 66.5405333,29.3316667 C66.4983111,29.465 66.3665778,29.4233333 66.2703111,29.4233333 L62.6459556,29.4233333 C62.9938667,29.105 63.0090667,28.7116667 63.0124444,28.3316667 C63.0242667,27.095 63.0259556,25.8566667 63.0090667,24.6183333 C63.0056889,24.2783333 63.0259556,23.9066667 62.6155556,23.59 L63.1897778,23.59 C64.0207111,23.5816667 64.8516444,23.59 65.6808889,23.5583333 L65.6808889,23.56 Z M43.7168889,23.59 C44.5022222,23.5833333 44.4954667,23.5866667 44.8112889,24.3183333 C45.4142222,25.7183333 46.0222222,27.1183333 46.6319111,28.5133333 C46.7737778,28.8333333 46.9308444,29.1466667 47.3463111,29.385 L45.5831111,29.385 C45.8313778,29.2033333 45.8026667,28.9633333 45.6844444,28.7 C45.4767111,28.225 45.4057778,27.595 45.0494222,27.3133333 C44.6981333,27.035 44.0597333,27.2416667 43.5463111,27.2366667 C42.6782222,27.2266667 42.6782222,27.235 42.3539556,28.0466667 L42.1546667,28.5533333 C42.0448889,28.8333333 41.9114667,29.1133333 42.2897778,29.4033333 L40.6735111,29.4033333 C41.0957333,29.18 41.2528,28.8316667 41.4048,28.48 C41.9992889,27.0916667 42.5920889,25.7016667 43.1832,24.3083333 C43.2777778,24.085 43.4145778,23.85 43.0531556,23.59 L43.7168889,23.59 Z M43.8688889,24.3533333 C43.5615111,25.0833333 43.2777778,25.7433333 43.0075556,26.4083333 C42.9231111,26.62 43.1088889,26.5716667 43.2102222,26.5716667 C43.6442667,26.5766667 44.08,26.5666667 44.5123556,26.575 C44.7200889,26.58 44.7656889,26.5333333 44.6795556,26.3316667 C44.4093333,25.7033333 44.1593778,25.0683333 43.8688889,24.3533333 L43.8688889,24.3533333 Z M71.6173333,23.5633333 C71.7693333,23.5583333 71.8453333,23.625 71.9382222,23.735 C73.1069333,25.1416667 74.2857778,26.54 75.4629333,27.94 C75.4848889,27.9666667 75.5203556,27.98 75.6115556,28.0416667 C75.6115556,27.7316667 75.6166222,27.465 75.6115556,27.2016667 C75.5912889,26.265 75.6520889,25.3283333 75.5727111,24.3933333 C75.5473778,24.0966667 75.4882667,23.8266667 75.2197333,23.605 L76.6637333,23.605 C76.2752889,23.8983333 76.2584,24.3266667 76.2584,24.7683333 C76.2617778,26.2916667 76.2482667,27.815 76.2668444,29.3383333 C76.2736,29.705 76.1587556,29.6883333 75.8969778,29.565 C75.2788444,29.2683333 74.9072889,28.7216667 74.4884444,28.2233333 C73.5696889,27.1366667 72.6593778,26.04 71.744,24.9516667 C71.7237333,24.9266667 71.6815111,24.9183333 71.5970667,24.875 C71.5970667,25.28 71.5903111,25.65 71.5970667,26.02 C71.6139556,26.865 71.5616,27.7083333 71.6325333,28.5533333 C71.6595556,28.8616667 71.7051556,29.1483333 71.9821333,29.4133333 L70.7914667,29.4133333 C70.7306667,29.38 70.6597333,29.35 70.7070222,29.2583333 C70.8961778,28.9783333 70.9502222,28.6666667 70.9502222,28.335 C70.9451556,27.1116667 70.9485333,25.8883333 70.9502222,24.6633333 C70.9502222,24.27 70.9451556,23.88 70.5702222,23.5666667 C70.9181333,23.5666667 71.2677333,23.5733333 71.6173333,23.5633333 L71.6173333,23.5633333 Z M83.3500444,23.6066667 C83.5696,23.7366667 83.5814222,24.21 83.6895111,24.5316667 L84.8953778,28.0583333 C84.9156444,28.1166667 84.9460444,28.1733333 85.0034667,28.3083333 L85.8310222,25.8166667 C85.9661333,25.4 86.1063111,24.9833333 86.2363556,24.5633333 C86.3393778,24.23 86.3951111,23.8983333 86.0792889,23.67 C86.0894222,23.5616667 86.1400889,23.59 86.1738667,23.59 C86.5150222,23.5816667 86.9338667,23.46 87.1753778,23.61 C87.3712889,23.7316667 87.3324444,24.1933333 87.4337778,24.4933333 C87.8492444,25.73 88.2816,26.9633333 88.7224,28.245 C88.92,27.885 88.9926222,27.5283333 89.1074667,27.185 C89.3945778,26.325 89.6732444,25.4633333 89.9637333,24.605 C90.0920889,24.2266667 90.0752,23.895 89.6124444,23.5816667 L91.0057778,23.5816667 L89.0382222,29.6366667 C88.3896889,29.3433333 87.9640889,28.9216667 87.7614222,28.25 C87.4641778,27.2733333 87.1027556,26.3166667 86.7582222,25.33 C86.5944,25.4233333 86.5960889,25.5733333 86.5555556,25.6966667 C86.1552889,26.8983333 85.7516444,28.1 85.3699556,29.31 C85.2686222,29.6233333 85.2010667,29.6116667 84.9173333,29.4533333 C84.3768889,29.1483333 84.1336889,28.6883333 83.9546667,28.1466667 C83.5544,26.945 83.1389333,25.7466667 82.7268444,24.5466667 C82.6103111,24.2066667 82.4718222,23.88 82.1745778,23.6366667 C82.2269333,23.61 82.2488889,23.5916667 82.2691556,23.59 C82.6373333,23.5816667 83.0798222,23.4516667 83.3500444,23.6066667 Z M80.7238222,23.563275 C80.8724444,23.5616667 80.9383111,23.595 80.9315556,23.755 C80.9180444,23.9883333 80.9281778,24.2216667 80.9281778,24.49 C80.3303111,24.1566667 79.7020444,24.1516667 79.0602667,24.2483333 C78.8964444,24.2733333 78.8390222,24.3216667 78.8424,24.4883333 C78.8559111,24.8916667 78.8542222,25.295 78.8407111,25.7 C78.8356444,25.8883333 78.9048889,25.945 79.0906667,25.9383333 C79.42,25.9233333 79.7527111,25.9566667 80.0786667,25.9233333 C80.3252444,25.8983333 80.4164444,25.945 80.3843556,26.1966667 C80.3624,26.3633333 80.3809778,26.5316667 80.3809778,26.7183333 C79.9351111,26.5183333 79.4757333,26.6083333 79.0298667,26.585 C78.8508444,26.575 78.8440889,26.6783333 78.8440889,26.8066667 C78.8474667,27.3666667 78.8440889,27.9266667 78.8474667,28.4866667 C78.8474667,28.5883333 78.8339556,28.7083333 78.9893333,28.7116667 C79.6564444,28.7316667 80.3286222,28.9183333 80.9872889,28.695 C81.2338667,28.61 81.4635556,28.475 81.7557333,28.3383333 C81.6442667,28.6766667 81.5412444,28.9633333 81.4551111,29.255 C81.4112,29.4083333 81.3098667,29.425 81.2000889,29.425 L77.5453333,29.425 C77.7936,29.1533333 77.8628444,28.8533333 77.8628444,28.5333333 C77.8628444,27.18 77.8696,25.825 77.8611556,24.4733333 C77.8577778,24.1716667 77.8679111,23.8483333 77.6112,23.5666667 C78.6498667,23.5666667 79.6868444,23.5683333 80.7238222,23.563275 Z M94.2754667,23.5883333 C94.9814222,23.575 94.9814222,23.5716667 95.2516444,24.1983333 L97.1077333,28.47 C97.2529778,28.805 97.4168,29.1283333 97.8356444,29.3866667 L96.0369778,29.3866667 C96.3274667,29.2216667 96.3173333,28.9966667 96.1872889,28.72 C95.9947556,28.31 95.8309333,27.8866667 95.6704889,27.465 C95.6063111,27.2916667 95.5252444,27.225 95.3327111,27.2283333 C94.6841778,27.2416667 94.0390222,27.2333333 93.3921778,27.235 C93.2824,27.235 93.1726222,27.2016667 93.1135111,27.3683333 C92.948,27.8433333 92.7622222,28.3133333 92.5696889,28.78 C92.4700444,29.02 92.568,29.1983333 92.7470222,29.4033333 L91.2371556,29.4033333 C91.9616889,28.7866667 92.1255111,27.8733333 92.4936889,27.07 C92.8990222,26.19 93.2655111,25.29 93.6404444,24.3966667 C93.7502222,24.1366667 93.8971556,23.8666667 93.6066667,23.59 L94.0660444,23.59 L94.2754667,23.5883333 Z M94.3599111,24.3583333 C94.0660444,25.055 93.7975111,25.6866667 93.5340444,26.3183333 C93.5053333,26.3866667 93.4901333,26.4583333 93.4546667,26.575 L95.1182222,26.5733333 C95.2026667,26.5683333 95.2600889,26.5366667 95.1908444,26.3766667 C94.9172444,25.7266667 94.6520889,25.0716667 94.3599111,24.36 L94.3599111,24.3583333 Z M105.021867,23.5633333 C105.177244,23.5583333 105.207644,23.67 105.283644,23.7566667 C106.470933,25.1733333 107.659911,26.59 108.9232,28.09 L108.9232,26.7616667 L108.9232,24.6533333 C108.919822,24.06 108.899556,24.0116667 108.519556,23.5833333 L110.046311,23.5833333 C109.668,23.8483333 109.605511,24.2166667 109.605511,24.61 L109.605511,29.67 C108.950222,29.55 108.566844,29.1016667 108.190222,28.6583333 C107.176889,27.4616667 106.172,26.2583333 105.162044,25.0583333 C105.116444,25.005 105.097867,24.9083333 104.947556,24.9316667 L104.947556,26.5816667 C104.947556,27.18 104.930667,27.78 104.954311,28.3783333 C104.966133,28.7333333 104.959378,29.12 105.325867,29.39 L103.851467,29.39 C104.239911,29.135 104.293956,28.7566667 104.293956,28.3666667 C104.300711,27.1166667 104.3024,25.8666667 104.293956,24.6166667 C104.293956,24.25 104.260178,23.8833333 103.912267,23.5666667 C104.283822,23.5666667 104.652,23.5733333 105.021867,23.5633333 Z M135.622844,23.5633333 C135.803556,23.5516667 135.830578,23.685 135.909956,23.7766667 C137.053333,25.135 138.195022,26.4966667 139.341778,27.8533333 C139.387378,27.9066667 139.417778,27.9933333 139.534311,27.9866667 C139.534311,26.78 139.542756,25.5766667 139.527556,24.37 C139.524178,24.0866667 139.421156,23.8133333 139.032711,23.6 L140.620267,23.6 C140.164267,23.955 140.198044,24.46 140.198044,24.955 L140.198044,29.6666667 C139.606933,29.5416667 139.230311,29.1766667 138.885778,28.7633333 L135.631289,24.8866667 C135.524889,24.9916667 135.5688,25.0966667 135.5688,25.1916667 C135.573867,26.31 135.585689,27.43 135.585689,28.55 C135.585689,28.8683333 135.663378,29.1366667 136.034933,29.4 L134.442311,29.4 C134.830756,29.1366667 134.888178,28.775 134.8848,28.3716667 C134.874667,27.1083333 134.876356,25.845 134.8848,24.5833333 C134.8848,24.22 134.844267,23.8833333 134.540267,23.5666667 C134.901689,23.5666667 135.261422,23.5816667 135.621156,23.5616667 L135.622844,23.5633333 Z M114.165511,23.5466667 C114.374933,23.59 114.462756,23.6566667 114.445867,23.8716667 C114.428978,24.0916667 114.442489,24.3133333 114.442489,24.575 C114.054044,24.3483333 113.684178,24.1516667 113.253511,24.0766667 C112.924178,24.0216667 112.623556,24.0683333 112.322933,24.155 C112.035822,24.235 111.797689,24.39 111.745333,24.72 C111.691289,25.0533333 111.829778,25.3033333 112.094933,25.4883333 C112.522222,25.7883333 113.010311,25.9783333 113.474756,26.2133333 C113.846311,26.4 114.246578,26.5333333 114.553956,26.835 C115.101156,27.3683333 115.14,28.0516667 114.650222,28.6416667 C114.054044,29.355 113.243378,29.57 112.361778,29.5683429 C111.956444,29.5683429 111.5528,29.4783333 111.150844,29.4166667 C110.890756,29.375 110.688089,29.2666667 110.672889,28.9516667 C110.664444,28.7516667 110.537778,28.5633333 110.571556,28.2883333 C111.125511,28.6333333 111.660889,28.8516667 112.260444,28.92 C112.743467,28.9733333 113.1792,28.8766667 113.5744,28.62 C113.971289,28.3616667 114.0304,27.87 113.724711,27.5033333 C113.535556,27.2783333 113.2856,27.1333333 113.025511,27.0083333 C112.532356,26.77 112.027378,26.5516667 111.542667,26.295 C110.769156,25.8866667 110.444889,25.1366667 110.755644,24.4416667 C111.034311,23.8133333 111.633867,23.6183333 112.246933,23.4916667 C112.888711,23.36 113.527111,23.4116667 114.165511,23.5466667 L114.165511,23.5466667 Z M121.1744,23.575 C121.245333,23.61 121.309511,23.6466667 121.2656,23.7416667 C121.135556,24.0016667 121.088267,24.275 121.089956,24.5683333 C121.093333,25.8816667 121.089956,27.1966667 121.089956,28.5116667 C121.089956,28.815 121.106844,29.1116667 121.415911,29.3783333 C121.111911,29.395 120.875467,29.4016667 120.637333,29.4216667 C120.280978,29.45 119.968533,29.4416667 120.147556,28.88 C119.666222,29.3116667 119.130844,29.5 118.554933,29.5466667 C117.740889,29.6166667 116.987644,29.46 116.418489,28.8066667 C116.041867,28.375 116.072267,27.84 116.057067,27.33 C116.033422,26.4333333 116.050311,25.535 116.052,24.6366667 C116.052,24.2733333 116.046933,23.915 115.734489,23.5866667 L117.355822,23.5866667 C117.126133,23.8 117.043378,24.045 117.04,24.325 C117.026489,25.4183333 116.991022,26.5116667 117.056889,27.6033333 C117.107556,28.4483333 117.7392,29 118.576889,28.9383333 C119.5176,28.8716667 120.176267,28.3733333 120.1408,27.4583333 C120.101956,26.4983333 120.137422,25.535 120.128978,24.5716667 C120.127289,24.235 120.107022,23.895 119.740533,23.575 L121.1744,23.575 Z M145.933511,23.57 C146.1784,23.6033333 146.298311,23.7133333 146.262844,23.9783333 C146.235822,24.1816667 146.257778,24.395 146.257778,24.6366667 C145.759556,24.4533333 145.303556,24.2066667 144.7648,24.1733333 C143.298844,24.0833333 142.272,24.9433333 142.248356,26.3183333 C142.2264,27.7783333 143.383289,28.905 144.8104,28.825 C145.340711,28.7966667 145.837244,28.6433333 146.333778,28.4716667 C146.435111,28.4516667 146.544889,28.4166667 146.536444,28.5866667 C146.430044,29.3366667 145.882844,29.5 145.237689,29.5366667 C143.840978,29.615 142.537156,29.42 141.672444,28.1833333 C140.395644,26.3633333 141.604889,23.765 143.817333,23.4716667 C144.538489,23.375 145.232622,23.475 145.9352,23.57 L145.933511,23.57 Z M122.370133,23.5833333 C123.424,23.64 124.403556,23.4333333 125.366222,23.67 C125.953956,23.8116667 126.420089,24.145 126.511289,24.8066667 C126.597422,25.4466667 126.308622,25.9033333 125.790133,26.2516667 C125.570578,26.4 125.327378,26.49 125.021689,26.5816667 C125.808711,27.43 126.415022,28.4016667 127.372622,29.0616667 C127.583733,29.2066667 127.659733,29.12 127.752622,28.955 C128.051556,28.4233333 128.259289,27.8516667 128.499111,27.2933333 C128.921333,26.3066667 129.340178,25.3183333 129.760711,24.33 C129.862044,24.0916667 129.988711,23.85 129.666133,23.5883333 L130.044444,23.59 L130.361956,23.59 C131.079733,23.5733333 131.079733,23.5733333 131.361778,24.23 C131.949511,25.5833333 132.533867,26.9366667 133.124978,28.29 C133.297244,28.6866667 133.4408,29.1066667 133.827556,29.4133333 L132.4224,29.4133333 C132.349778,29.38 132.278844,29.3416667 132.327822,29.2416667 C132.440978,28.8916667 132.226489,28.615 132.109956,28.32 C131.971467,27.9616667 131.898844,27.4733333 131.626933,27.2966667 C131.348267,27.115 130.863556,27.23 130.470044,27.2366667 C130.0664,27.245 129.573244,27.075 129.284444,27.3083333 C129.0176,27.5233333 128.950044,27.9916667 128.821689,28.355 C128.706844,28.68 128.436622,29.0116667 128.855467,29.4 C128.06,29.365 127.335467,29.5166667 126.609244,29.3533333 C126.398133,29.3066667 126.203911,29.23 126.056978,29.0733333 C125.280089,28.2433333 124.547111,27.38 123.959378,26.4 L124.4576,26.2633333 C124.619733,26.215 124.778489,26.1583333 124.930489,26.0783333 C125.427022,25.8116667 125.606044,25.495 125.545244,24.9733333 C125.496267,24.56 125.226044,24.3 124.707556,24.17 C124.631556,24.1533333 124.555556,24.1283333 124.477867,24.1216667 C123.8344,24.055 123.704356,24.1666667 123.704356,24.785 L123.704356,28.535 C123.702667,28.8366667 123.733067,29.125 124.013422,29.3916667 L122.408978,29.3916667 C122.746756,29.1216667 122.734933,28.7333333 122.74,28.3683333 C122.756889,27.1183333 122.751822,25.8683333 122.741689,24.6166667 C122.738311,24.2716667 122.738311,23.9116667 122.368444,23.5833333 L122.370133,23.5833333 Z M150.425956,23.5633333 C150.6016,23.5633333 150.657333,23.61 150.645511,23.78 C150.632,24.01 150.642133,24.2383333 150.642133,24.4933333 C150.059467,24.15 149.451467,24.1666667 148.831644,24.2416667 C148.6408,24.2633333 148.5648,24.3116667 148.573244,24.5183333 C148.590133,24.9066667 148.593511,25.2983333 148.573244,25.6883333 C148.563111,25.8766667 148.632356,25.9283333 148.764089,25.9383333 L148.848533,25.9383333 C149.177867,25.93 149.510578,25.955 149.836533,25.925 C150.047644,25.905 150.116889,25.9416667 150.106756,26.1583333 C150.094933,26.335 150.127022,26.5166667 150.1456,26.7433333 C149.6592,26.505 149.177867,26.61 148.710044,26.5883333 C148.5344,26.58 148.58,26.72 148.58,26.8133333 C148.576622,27.3716667 148.585067,27.9316667 148.576622,28.4916667 C148.574933,28.6583333 148.627289,28.7133333 148.796178,28.725 C149.686222,28.7866667 150.5864,28.9633333 151.420711,28.34 C151.420711,28.7366667 151.234933,28.9983333 151.167378,29.2933333 C151.1336,29.42 151.028889,29.4266667 150.917422,29.4266667 C149.708178,29.4233333 148.498933,29.4233333 147.2272,29.4233333 C147.615644,29.0983333 147.6072,28.685 147.613956,28.2933333 C147.629156,27.0833333 147.630844,25.875 147.610578,24.6633333 C147.605511,24.3033333 147.629156,23.9083333 147.215378,23.5683333 L149.647378,23.5683333 L150.425956,23.5633333 L150.425956,23.5633333 Z M102.974933,23.58 C102.699644,23.8666667 102.637156,24.2083333 102.637156,24.5733333 C102.642222,25.8616667 102.638844,27.15 102.637156,28.4383333 C102.637156,28.7666667 102.681067,29.08 102.942844,29.3883333 L101.404267,29.3883333 C101.671111,29.0733333 101.688,28.68 101.686311,28.2783333 C101.679556,27.055 101.679556,25.8316667 101.686311,24.6083333 C101.686311,24.255 101.652533,23.9166667 101.351911,23.5783333 L102.973244,23.5783333 L102.974933,23.58 Z M130.454844,24.3166667 C130.133956,25.08 129.8536,25.7416667 129.576622,26.4066667 C129.509067,26.5733333 129.6104,26.6016667 129.753956,26.6016667 C130.188,26.595 130.625422,26.5866667 131.059467,26.6016667 C131.3584,26.615 131.349956,26.5016667 131.257067,26.2816667 C130.995289,25.665 130.7504,25.04 130.454844,24.3166667 L130.454844,24.3166667 Z" id="Shape"></path>
        </g>
    </g>
</svg>