<svg id="index-bg02" xmlns="http://www.w3.org/2000/svg" xmlns:xlink="http://www.w3.org/1999/xlink" width="1920" height="437.346" viewBox="0 0 1920 437.346">
  <defs>
    <clipPath id="clip-path">
      <rect id="Rectangle_731" data-name="Rectangle 731" width="1920" height="437.346" fill="none"/>
    </clipPath>
    <clipPath id="clip-path-2">
      <rect id="Rectangle_728" data-name="Rectangle 728" width="193.5" height="68.512" fill="none"/>
    </clipPath>
    <clipPath id="clip-path-3">
      <rect id="Rectangle_727" data-name="Rectangle 727" width="193.49" height="68.506" fill="none"/>
    </clipPath>
    <clipPath id="clip-path-4">
      <rect id="Rectangle_730" data-name="Rectangle 730" width="193.504" height="68.508" fill="none"/>
    </clipPath>
    <clipPath id="clip-path-5">
      <rect id="Rectangle_729" data-name="Rectangle 729" width="193.494" height="68.506" fill="none"/>
    </clipPath>
  </defs>
  <g id="Group_1163" data-name="Group 1163" clip-path="url(#clip-path)">
    <g id="Group_1157" data-name="Group 1157" transform="translate(1584.32)" opacity="0.8">
      <g id="Group_1156" data-name="Group 1156">
        <g id="Group_1155" data-name="Group 1155" clip-path="url(#clip-path-2)">
          <g id="Group_1154" data-name="Group 1154">
            <g id="Group_1153" data-name="Group 1153" clip-path="url(#clip-path-3)">
              <path id="Path_6367" data-name="Path 6367" d="M1759.4,55.727a22.335,22.335,0,0,0-7.793,1.392,5.99,5.99,0,0,0-6.756-1.5,10,10,0,0,0-16.049-7.176,5.838,5.838,0,0,0-1.308-1.312,11.791,11.791,0,0,0-10.294-17.56h-.04a12.932,12.932,0,0,0-9.816-.9,5.858,5.858,0,0,0-2.617-2.723A21.426,21.426,0,0,0,1678.368.7a23.193,23.193,0,0,0-22.842,23.191c0,.176,0,.358.007.537a14.239,14.239,0,0,0-10.147,1.206,18.581,18.581,0,0,0-32.653,16.752c-.186-.011-.377-.018-.562-.018a9.147,9.147,0,0,0-9.147,9.147v0a9.816,9.816,0,0,0,.158,1.737c-.064-.005-.121-.007-.19-.007a5.283,5.283,0,0,0-5.274,5.1,13.481,13.481,0,0,0-2.447-.228,12.468,12.468,0,0,0-8.6,3.25c-5.942,5.619.544,7.081,6.8,7.081h172.8c6.519,0,15.831,1.068,9.364-5.747a22.3,22.3,0,0,0-16.232-6.971M1703.041,25.38a5.688,5.688,0,0,0-.992-.085h-.175c.029-.466.047-.934.047-1.4a23.215,23.215,0,0,0-15.734-21.97A19.633,19.633,0,0,1,1703.436,21.4a19.939,19.939,0,0,1-.4,3.974m22.88,20.935a5.97,5.97,0,0,0-2.884-.236,12.928,12.928,0,0,0-2.8-14.257,10.012,10.012,0,0,1,5.687,14.493" transform="translate(-1584.32)" fill="#fff" fill-rule="evenodd"/>
            </g>
          </g>
        </g>
      </g>
    </g>
    <g id="Group_1162" data-name="Group 1162" transform="translate(64.885 35.226)" opacity="0.8">
      <g id="Group_1161" data-name="Group 1161">
        <g id="Group_1160" data-name="Group 1160" clip-path="url(#clip-path-4)">
          <g id="Group_1159" data-name="Group 1159">
            <g id="Group_1158" data-name="Group 1158" clip-path="url(#clip-path-5)">
              <path id="Path_6368" data-name="Path 6368" d="M239.961,90.953a22.335,22.335,0,0,0-7.793,1.392,5.99,5.99,0,0,0-6.756-1.5,10,10,0,0,0-16.049-7.176,5.836,5.836,0,0,0-1.308-1.312A11.791,11.791,0,0,0,197.767,64.8h-.04a12.931,12.931,0,0,0-9.816-.9,5.858,5.858,0,0,0-2.617-2.723A21.427,21.427,0,0,0,158.933,35.93a23.193,23.193,0,0,0-22.842,23.191c0,.176,0,.358.007.537a14.244,14.244,0,0,0-10.147,1.206A18.581,18.581,0,0,0,93.3,77.608c-.186-.011-.377-.018-.562-.018a9.148,9.148,0,0,0-9.147,9.149h0a9.818,9.818,0,0,0,.158,1.737c-.064,0-.121-.007-.19-.007a5.283,5.283,0,0,0-5.274,5.1,13.481,13.481,0,0,0-2.447-.228,12.468,12.468,0,0,0-8.6,3.25c-5.942,5.619.544,7.081,6.8,7.081h172.8c6.519,0,15.831,1.068,9.364-5.747a22.3,22.3,0,0,0-16.232-6.971M183.6,60.6a5.676,5.676,0,0,0-.991-.085h-.175c.029-.466.047-.934.047-1.4a23.215,23.215,0,0,0-15.734-21.97A19.657,19.657,0,0,1,183.6,60.6m22.881,20.935A5.983,5.983,0,0,0,203.6,81.3a12.928,12.928,0,0,0-2.8-14.257,10.012,10.012,0,0,1,5.687,14.493" transform="translate(-64.885 -35.226)" fill="#fff" fill-rule="evenodd"/>
            </g>
          </g>
        </g>
      </g>
    </g>
    <path id="Path_6369" data-name="Path 6369" d="M235.422,292.559l-51.3-9.478a3.6,3.6,0,0,0-1.317,0l-51.3,9.478a3.624,3.624,0,0,1-3.871-5.239l52.617-100.857a3.624,3.624,0,0,1,6.425,0L239.293,287.32a3.624,3.624,0,0,1-3.871,5.239" fill="#8acec1"/>
    <path id="Path_6370" data-name="Path 6370" d="M247.018,359l-62.749-11.594a4.451,4.451,0,0,0-1.611,0L119.909,359a4.432,4.432,0,0,1-4.734-6.408l64.359-123.365a4.432,4.432,0,0,1,7.859,0l64.36,123.365A4.432,4.432,0,0,1,247.018,359" fill="#8acec1"/>
    <path id="Path_6371" data-name="Path 6371" d="M253.727,423.559l-69.373-12.817a4.885,4.885,0,0,0-1.78,0L113.2,423.559a4.9,4.9,0,0,1-5.235-7.085L179.12,280.087a4.9,4.9,0,0,1,8.688,0l71.153,136.387a4.9,4.9,0,0,1-5.234,7.085" fill="#8acec1"/>
    <path id="Path_6372" data-name="Path 6372" d="M183.7,260.084l-3.09,177.262H188.4l-3.09-177.262a.8.8,0,0,0-1.609,0" fill="#99705e"/>
    <path id="Path_6373" data-name="Path 6373" d="M168.369,289.427,185.6,308.814a2.1,2.1,0,1,1-3.143,2.793c-.035-.039-.072-.084-.1-.126l-15.673-20.664a1.1,1.1,0,0,1,1.693-1.39" fill="#99705e"/>
    <path id="Path_6374" data-name="Path 6374" d="M183.454,344.535l23.341-25.4a1.028,1.028,0,0,1,1.556,1.342L186.635,347.28a2.1,2.1,0,0,1-3.266-2.646c.026-.032.057-.069.085-.1" fill="#99705e"/>
    <path id="Path_6375" data-name="Path 6375" d="M160.019,364.93l25.517,26.779a2.1,2.1,0,1,1-3.043,2.9c-.028-.03-.06-.065-.086-.1l-23.831-28.29a.969.969,0,0,1,1.443-1.293" fill="#99705e"/>
    <path id="Path_6376" data-name="Path 6376" d="M114.018,281.73l28.861,5.333a6.408,6.408,0,0,0,6.844-9.264l-47.584-91.208,23.978,4.43a5.238,5.238,0,0,0,5.6-7.573L55.654,37.659a5.238,5.238,0,0,0-9.287,0L0,126.536V371.043l49.723-9.188a7.092,7.092,0,0,1,2.574,0l100.279,18.528a7.083,7.083,0,0,0,7.567-10.241Z" fill="#369684"/>
    <path id="Path_6377" data-name="Path 6377" d="M84.737,229.433,55.722,261.011,53.684,144.079a1.164,1.164,0,0,0-2.327,0l-1.151,66.067L29.191,186.494a1.585,1.585,0,0,0-2.448,2.01L49.4,218.374c.046.06.1.124.15.182a3.118,3.118,0,0,0,.5.448L48.148,328.2,17.121,295.634a1.4,1.4,0,0,0-2.085,1.868L48,336.637,46.245,437.346H58.8l-2.921-167.57,31.111-38.4a1.486,1.486,0,0,0-2.249-1.94" fill="#99705e"/>
    <path id="Path_6378" data-name="Path 6378" d="M1684.765,292.559l51.3-9.478a3.6,3.6,0,0,1,1.317,0l51.3,9.478a3.624,3.624,0,0,0,3.871-5.239l-52.617-100.857a3.624,3.624,0,0,0-6.425,0L1680.894,287.32a3.624,3.624,0,0,0,3.871,5.239" fill="#8acec1"/>
    <path id="Path_6379" data-name="Path 6379" d="M1673.169,359l62.749-11.594a4.451,4.451,0,0,1,1.611,0L1800.278,359a4.432,4.432,0,0,0,4.734-6.408l-64.359-123.365a4.432,4.432,0,0,0-7.859,0l-64.36,123.365a4.432,4.432,0,0,0,4.735,6.408" fill="#8acec1"/>
    <path id="Path_6380" data-name="Path 6380" d="M1666.46,423.559l69.373-12.817a4.885,4.885,0,0,1,1.78,0l69.373,12.817a4.9,4.9,0,0,0,5.235-7.085l-71.153-136.387a4.9,4.9,0,0,0-8.689,0l-71.153,136.387a4.9,4.9,0,0,0,5.234,7.085" fill="#8acec1"/>
    <path id="Path_6381" data-name="Path 6381" d="M1734.875,260.084l-3.09,177.262h7.789l-3.09-177.262a.8.8,0,0,0-1.609,0" fill="#99705e"/>
    <path id="Path_6382" data-name="Path 6382" d="M1751.819,289.427l-17.226,19.387a2.1,2.1,0,1,0,3.143,2.793c.035-.039.072-.084.1-.126l15.672-20.664a1.1,1.1,0,0,0-1.693-1.39" fill="#99705e"/>
    <path id="Path_6383" data-name="Path 6383" d="M1736.733,344.535l-23.341-25.4a1.028,1.028,0,0,0-1.556,1.342l21.716,26.806a2.1,2.1,0,1,0,3.266-2.646c-.026-.032-.057-.069-.085-.1" fill="#99705e"/>
    <path id="Path_6384" data-name="Path 6384" d="M1760.169,364.93l-25.517,26.779a2.1,2.1,0,1,0,3.043,2.9c.028-.03.06-.065.086-.1l23.831-28.29a.969.969,0,0,0-1.443-1.293" fill="#99705e"/>
    <path id="Path_6385" data-name="Path 6385" d="M1920,126.177,1873.82,37.66a5.237,5.237,0,0,0-9.287,0l-76.058,145.788a5.238,5.238,0,0,0,5.595,7.574l23.978-4.43L1770.464,277.8a6.407,6.407,0,0,0,6.844,9.263l28.861-5.332-46.125,88.412a7.083,7.083,0,0,0,7.566,10.241l100.28-18.528a7.088,7.088,0,0,1,2.573,0L1920,371.009Z" fill="#369684"/>
    <path id="Path_6386" data-name="Path 6386" d="M1866.5,144.079l-5.112,293.267h12.55l-5.112-293.267a1.163,1.163,0,0,0-2.326,0" fill="#99705e"/>
    <path id="Path_6387" data-name="Path 6387" d="M1891,186.495l-24.9,28.025a3.039,3.039,0,0,0,4.544,4.037c.051-.058.1-.122.149-.182l22.655-29.87a1.585,1.585,0,0,0-2.447-2.01" fill="#99705e"/>
    <path id="Path_6388" data-name="Path 6388" d="M1869.191,266.154l-33.74-36.721a1.486,1.486,0,0,0-2.249,1.941l31.391,38.748a3.038,3.038,0,0,0,4.722-3.825c-.039-.047-.084-.1-.124-.143" fill="#99705e"/>
    <path id="Path_6389" data-name="Path 6389" d="M1903.067,295.634l-36.886,38.71a3.039,3.039,0,0,0,4.4,4.192c.04-.044.086-.094.124-.139l34.447-40.894a1.4,1.4,0,0,0-2.085-1.869" fill="#99705e"/>
  </g>
</svg>
