<?xml version="1.0" encoding="utf-8"?>
<!-- Generator: Adobe Illustrator 24.2.1, SVG Export Plug-In . SVG Version: 6.00 Build 0)  -->
<svg version="1.1" id="圖層_1" xmlns="http://www.w3.org/2000/svg" xmlns:xlink="http://www.w3.org/1999/xlink" x="0px" y="0px"
	 viewBox="0 0 1080 70.6" style="enable-background:new 0 0 1080 70.6;" xml:space="preserve">
<style type="text/css">
	.st0{fill:#004902;}
	.st1{fill:#684E46;}
	.st2{fill:#7F5A50;}
	.st3{clip-path:url(#SVGID_2_);}
	.st4{fill:#005278;}
	.st5{fill:#D98B2B;}
	.st6{fill:#D1801F;}
	.st7{fill:#E09636;}
	.st8{fill:#213B38;}
	.st9{fill:#F9EC30;}
	.st10{clip-path:url(#SVGID_4_);}
	.st11{fill:#FFFFFF;}
</style>
<g id="board-footer" transform="translate(0 0)">
	<rect id="Rectangle_537" class="st0" width="1080" height="68.5"/>
	<path id="Path_5190" class="st1" d="M1058.8,0v48.6H21.2V0H0l0,70.6h1080V0H1058.8z"/>
	<path id="Path_5191" class="st2" d="M1063.1,0v52.8H16.9V0H0v70.6h1080V0H1063.1z"/>
	<g id="Group_709">
		<g>
			<defs>
				<rect id="SVGID_1_" y="-0.2" width="1080" height="70.6"/>
			</defs>
			<clipPath id="SVGID_2_">
				<use xlink:href="#SVGID_1_"  style="overflow:visible;"/>
			</clipPath>
			<g id="Group_708" class="st3">
				<path id="Path_5192" class="st4" d="M156.3,49.4c0,3.2-2.6,5.8-5.8,5.8H65.6c-3.2,0-5.8-2.6-5.8-5.8v-7.9c0-3.2,2.6-2.6,5.8-2.6
					h84.9c3.2,0,5.8-0.6,5.8,2.6L156.3,49.4z"/>
				<path id="Path_5193" class="st5" d="M59.9,33.2c-0.4,2.1-0.6,4.3-0.6,6.4c0,2.8,6-1.3,6-1.3l2-5.7L59.9,33.2z"/>
				<path id="Path_5194" class="st5" d="M156.2,33.2c0.4,2.1,0.6,4.3,0.6,6.4c0,2.8-6-1.3-6-1.3l-2-5.7L156.2,33.2z"/>
				<path id="Path_5195" class="st6" d="M153.6,36.4h-91c-1.8,0-3.2,1.5-3.3,3.3v1.8c-0.1,1.3,0.8,2.5,2.1,2.6c0.2,0,0.3,0,0.5,0
					h92.3c1.3,0.1,2.5-0.8,2.6-2.1c0-0.2,0-0.3,0-0.5v-1.8C156.8,37.9,155.3,36.4,153.6,36.4"/>
				<path id="Path_5196" class="st7" d="M156.2,33.2c0.3,1.4-0.5,2.8-1.9,3.1c-0.2,0.1-0.5,0.1-0.7,0.1h-91c-1.4,0.1-2.6-1-2.7-2.5
					c0-0.2,0-0.5,0.1-0.7L63,16.7c0.4-1.8,2-3.1,3.9-3.2h82.4c1.9,0.1,3.5,1.4,3.9,3.2L156.2,33.2z"/>
				<path id="Path_5197" class="st8" d="M127.4,40.7c0,1.2-0.9,2.1-2.1,2.1c-1.2,0-2.1-0.9-2.1-2.1c0-1.2,0.9-2.1,2.1-2.1
					c0,0,0,0,0,0C126.4,38.6,127.4,39.5,127.4,40.7"/>
				<path id="Path_5198" class="st8" d="M92.9,40.7c0,1.2-0.9,2.1-2.1,2.1c-1.2,0-2.1-0.9-2.1-2.1c0-1.2,0.9-2.1,2.1-2.1
					C92,38.6,92.9,39.5,92.9,40.7"/>
				<path id="Path_5199" class="st8" d="M71.5,40.7c0,1.2-0.9,2.1-2.1,2.1c-1.2,0-2.1-0.9-2.1-2.1c0-1.2,0.9-2.1,2.1-2.1
					C70.5,38.6,71.5,39.5,71.5,40.7"/>
				<path id="Path_5200" class="st8" d="M148.8,40.7c0,1.2-0.9,2.1-2.1,2.1c-1.2,0-2.1-0.9-2.1-2.1c0-1.2,0.9-2.1,2.1-2.1
					C147.9,38.6,148.8,39.5,148.8,40.7"/>
				<rect id="Rectangle_538" x="103.8" y="13.5" class="st8" width="8.5" height="30.6"/>
				<path id="Path_5201" class="st9" d="M364.5,37L298,45c-2,0.2-3.2,3.1-2.8,6.5s2.3,5.9,4.3,5.6l66.5-8c2-0.2,3.2-3.1,2.8-6.5
					S366.4,36.8,364.5,37"/>
				<g id="Group_707">
					<g id="Group_706">
						<g>
							<defs>
								<rect id="SVGID_3_" x="479.2" y="41" width="74.1" height="12.2"/>
							</defs>
							<clipPath id="SVGID_4_">
								<use xlink:href="#SVGID_3_"  style="overflow:visible;"/>
							</clipPath>
							<g id="Group_705" class="st10">
								<path id="Path_5202" class="st11" d="M549.8,41h-67c-2,0-3.6,2.7-3.6,6.1s1.6,6.1,3.6,6.1h67c2,0,3.6-2.7,3.6-6.1
									S551.8,41,549.8,41"/>
							</g>
						</g>
					</g>
				</g>
			</g>
		</g>
	</g>
</g>
</svg>
