<svg width="141" height="201" viewBox="0 0 141 201" fill="none" xmlns="http://www.w3.org/2000/svg">
<path d="M47.812 188.888H42.724V183.8H47.26V181.712H42.724V177.08C44.5 176.792 46.18 176.456 47.572 176.048L46.228 174.2C43.492 175.088 38.86 175.664 34.828 175.976C35.068 176.456 35.284 177.296 35.356 177.824C36.988 177.728 38.716 177.584 40.444 177.368V188.888H37.948V179.792H35.836V188.888H34.204V190.976H47.812V188.888ZM32.476 182.024L32.092 182.096H30.076C31.276 180.248 32.524 177.968 33.604 175.616L32.236 174.704L31.588 174.992H26.404V176.984H30.724C29.788 179.024 28.66 180.848 28.276 181.424C27.748 182.192 27.148 182.792 26.692 182.912C26.98 183.344 27.412 184.232 27.556 184.616C27.556 184.424 28.012 184.112 28.42 183.896H31.564C31.3 185.888 30.868 187.64 30.268 189.128C29.5 188.144 28.852 186.92 28.372 185.408L26.644 186.152C27.364 188.216 28.252 189.8 29.308 191.048C28.444 192.44 27.388 193.472 26.116 194.144C26.548 194.624 27.124 195.488 27.388 196.064C28.78 195.2 29.932 194.072 30.892 192.608C33.724 194.84 37.444 195.368 41.836 195.368H47.716C47.836 194.72 48.196 193.688 48.556 193.16C47.164 193.208 42.964 193.208 41.884 193.208C37.972 193.208 34.468 192.752 31.876 190.736C32.836 188.528 33.46 185.768 33.748 182.312L32.476 182.024ZM60.244 173.96C58.948 177.464 56.812 180.968 54.556 183.2C54.916 183.728 55.564 184.928 55.78 185.456C56.476 184.712 57.172 183.872 57.844 182.96V195.848H59.956V179.648C60.868 178.016 61.684 176.288 62.332 174.584L60.244 173.96ZM70.3 187.256V184.4H74.452V187.256H70.3ZM64.06 187.256V184.4H68.092V187.256H64.06ZM68.092 179.648V182.456H64.06V179.648H68.092ZM74.452 179.648V182.456H70.3V179.648H74.452ZM70.3 177.608V173.96H68.092V177.608H61.972V190.496H64.06V189.272H68.092V195.872H70.3V189.272H74.452V190.304H76.66V177.608H70.3ZM91.78 176.216V177.464H87.052V176.216H91.78ZM87.052 180.176V178.832H91.78V180.176H87.052ZM93.868 181.664V174.704H84.964V195.896H87.052V181.664H93.868ZM97.852 180.176V178.856H102.724V180.176H97.852ZM102.724 176.24V177.512H97.852V176.24H102.724ZM92.044 186.848H97.348V188.72H92.044V186.848ZM104.86 174.752H95.74V181.664H102.724V193.28C102.724 193.592 102.628 193.688 102.316 193.712C102.1 193.712 101.476 193.712 100.732 193.688C100.9 193.28 101.02 192.728 101.068 191.984C100.564 191.864 99.82 191.6 99.46 191.336C99.388 192.824 99.316 193.016 98.908 193.016H97.636C97.228 193.016 97.156 192.968 97.156 192.488V190.088H99.196V185.816C99.652 186.2 100.012 186.536 100.3 186.872L101.596 185.816C100.516 184.76 98.38 183.2 96.676 182.192L95.452 183.104C96.58 183.776 97.828 184.664 98.86 185.504H91.06C92.188 184.688 93.244 183.704 93.964 182.72L92.212 182.168C91.324 183.44 89.428 184.832 87.7 185.648C88.084 185.912 88.66 186.44 88.996 186.776C89.428 186.584 89.86 186.32 90.292 186.032V190.088H91.78C91.492 191.792 90.652 192.872 88.06 193.52C88.444 193.832 88.948 194.576 89.14 195.032C92.236 194.048 93.244 192.536 93.652 190.088H95.308V192.512C95.308 194.144 95.668 194.648 97.348 194.648H99.148C99.748 194.648 100.132 194.528 100.444 194.192C100.636 194.696 100.804 195.272 100.852 195.68C102.292 195.68 103.324 195.632 103.996 195.296C104.644 194.936 104.86 194.384 104.86 193.28V174.752ZM126.46 177.536H121.924V178.928H133.684V177.536H128.62V176.528H134.308V175.064H128.62V173.864H126.46V175.064H121.132V176.528H126.46V177.536ZM123.028 180.944H125.044V183.416H123.028V180.944ZM132.292 183.416H130.204V180.944H132.292V183.416ZM126.484 183.416V180.944H128.764V183.416H126.484ZM121.252 184.616H134.164V179.744H121.252V184.616ZM120.412 177.824H117.004L118.588 177.104C118.18 176.216 117.292 174.944 116.428 174.008L114.556 174.776C115.3 175.688 116.116 176.936 116.572 177.824H112.684V179.6H120.412V177.824ZM119.812 182.84V181.088H113.644V182.84H119.812ZM120.004 184.28H113.428V186.032H120.004V184.28ZM117.988 189.32V192.8H115.372V189.32H117.988ZM119.788 187.544H113.596V195.608H115.372V194.552H119.788V187.544ZM123.964 190.256H131.476V191.216H123.964V190.256ZM123.964 188.432H131.476V189.32H123.964V188.432ZM123.964 186.632H131.476V187.496H123.964V186.632ZM133.54 192.44V185.384H121.996V192.44H124.708C123.628 193.208 121.636 194.096 119.908 194.552C120.34 194.912 120.988 195.536 121.324 195.92C123.124 195.392 125.332 194.36 126.676 193.352L125.14 192.44H129.58L128.692 193.616C130.444 194.36 132.388 195.32 133.564 195.968L134.764 194.48C133.612 193.928 131.812 193.112 130.108 192.44H133.54Z" fill="#4F4F4F"/>
<g clip-path="url(#clip0_335_5712)">
<path d="M83.1205 118.461C83.1205 118.461 80.515 119.599 80.0497 122.396C79.5844 125.193 80.0497 137.781 80.0497 137.781L80.515 138.713L137.278 107.011C137.278 107.011 134.44 97.7246 136.557 90.7129C136.603 90.6756 83.1205 118.461 83.1205 118.461V118.461Z" fill="#FFF2D3"/>
<path d="M78.4678 51.1426L23.7102 76.2801L53.8457 99.4596L82.0736 121.171L127.326 97.2685L138.329 91.4549L78.4678 51.1426ZM45.0847 76.6484L78.733 61.5155L89.0294 68.4479L55.5719 84.7137L45.0847 76.6484V76.6484Z" fill="#FF4D84"/>
<path d="M84.9815 95.1516C84.9815 95.1516 82.376 96.2891 81.9108 99.0863C81.4455 101.884 81.9108 114.471 81.9108 114.471L82.376 115.403L139.139 83.7017C139.139 83.7017 136.301 74.415 138.418 67.4034C138.464 67.3661 84.9815 95.1516 84.9815 95.1516Z" fill="#FFF2D3"/>
<path d="M22.3562 64.1258L24.6826 60.8624L113.549 48.7412L122.854 55.268L116.341 58.9976L74.4664 83.7062L87.9592 93.4965C87.9592 93.4965 83.3065 97.6923 82.8413 101.888C81.4455 100.956 64.2305 91.1655 64.2305 91.1655L57.7167 92.0979L42.8281 82.7738L22.3562 64.1258V64.1258Z" fill="#FDB000"/>
<path d="M62.5881 67.949C60.1687 68.4478 58.3867 70.639 57.6423 72.9979C56.8979 75.3569 57.0142 77.8884 57.1351 80.3592L57.3399 84.5597C57.3771 85.3103 57.419 86.0795 57.7214 86.7695C58.0238 87.4595 58.6473 88.0562 59.3964 88.0982C59.9035 88.1261 60.392 87.907 60.8526 87.6926C63.1604 86.611 65.4728 85.5294 67.6177 84.1494C69.8324 82.7229 71.8423 80.9979 74.0942 79.6366C77.5093 77.576 81.3943 76.4059 84.8327 74.3825C88.1593 72.4292 91.0114 69.7112 94.4265 67.921C96.0782 67.0539 97.8509 66.4152 99.4049 65.3895C101.173 64.224 102.601 62.6063 104.346 61.4128C105.812 60.4105 107.473 59.7345 109.064 58.942C111.851 57.5574 114.442 55.8138 117.025 54.0795C117.025 54.0795 113.116 44.3406 115.424 37.6832C115.392 37.4268 62.5835 67.9536 62.5835 67.9536L62.5881 67.949Z" fill="#FFF2D3"/>
<path d="M139.181 105.688L80.2916 137.408C79.5472 132.788 79.6402 128.737 80.5847 125.404C81.3105 123.194 79.9845 121.007 78.612 119.818C59.8523 105.282 42.0743 91.5155 25.199 78.4479C23.8079 77.3756 21.8025 76.8861 21.3233 79.1612C20.6719 82.8068 20.9046 87.2124 22.0026 92.1775C22.761 95.3616 24.8407 98.0563 26.2133 99.1611C42.7909 112.513 60.2431 126.569 78.6399 141.39C79.4588 141.972 80.1055 142.084 80.6033 141.958L138.93 110.271C138.93 110.271 143.419 108.467 139.181 105.693V105.688Z" fill="#FF4D84"/>
<path d="M55.7068 0L2.68469 26.5967L33.1738 48.2704L61.7321 68.5734L105.44 43.5198L116.066 37.4266L55.7068 0ZM23.7381 26.2051L56.335 10.1678L66.7198 16.6061L34.3556 33.7483L23.7428 26.2051H23.7381Z" fill="#01BEA4"/>
<path d="M139.181 83.044L82.6041 113.51C81.8596 108.89 81.9527 104.839 82.8972 101.505C83.623 99.2957 82.297 97.1092 80.9245 95.9204C76.7882 92.7176 72.6427 89.5941 68.5017 86.5311L60.7457 91.1372L60.648 91.1652C60.4247 91.2304 60.192 91.2677 59.9547 91.2677C59.3266 91.2677 58.652 91.0346 57.9541 90.5731L57.9122 90.5451C45.6012 81.3796 33.8671 72.6757 22.3656 64.1162C22.3656 65.981 22.6541 67.347 23.0542 69.1512C23.8126 72.3353 25.8877 75.03 27.2649 76.1395C43.8425 89.4915 62.5649 102.662 80.9617 117.487C81.7805 118.07 82.4273 118.181 82.9205 118.051L138.939 87.6127C138.939 87.6127 143.429 85.8085 139.19 83.0346L139.181 83.044Z" fill="#FDB000"/>
<path d="M116.559 55.9492C116.997 55.7487 117.974 55.1194 118.006 54.5413C118.025 54.1823 117.653 53.7161 116.969 53.2406L59.2893 87.2266L59.0474 86.0191C58.6054 83.8093 58.3541 81.6928 58.3076 79.7301C58.2797 78.49 58.3309 77.2919 58.4612 76.1683C58.5589 75.3152 58.7031 74.4993 58.8846 73.7441L58.8939 73.7114C59.3777 72.0191 58.3169 70.2289 57.0421 69.2033C48.6533 63.2033 40.4599 57.3478 32.4479 51.6229L29.6517 49.6229C20.3974 43.0075 11.3945 36.5692 2.62878 30.3035C2.06115 29.9026 1.45165 29.6602 1.00034 29.6602C0.777009 29.6602 0.358266 29.6602 0.195422 30.5786C-0.293111 34.0891 0.0930624 38.2942 1.33999 43.0681C2.17282 46.0518 4.25257 48.4574 5.44832 49.3478L22.6028 62.1077C34.295 70.807 46.3874 79.8047 58.9171 89.1334C59.415 89.455 59.75 89.525 59.9407 89.525C59.9779 89.525 60.0152 89.525 60.0477 89.5156L116.508 55.9725L116.555 55.9539L116.559 55.9492Z" fill="#01BEA4"/>
<path d="M119.756 54.6483C119.653 56.3499 117.723 57.3383 117.322 57.5294L71.1398 84.9653L84.9769 95.1518L139.762 66.6809L118.928 52.625C119.514 53.2637 119.788 53.9397 119.747 54.6436L119.756 54.6483Z" fill="#FDB000"/>
<path d="M19.5647 24.965L57.7168 6.7832L71.2096 16.5734L33.5228 38.0186L19.5647 24.965Z" fill="#01BEA4"/>
<path d="M23.7101 76.2793C23.7101 76.2793 22.091 77.3516 21.9886 77.9623C21.8863 78.573 32.5921 87.4308 32.5921 87.4308L79.5844 122.862L80.5149 125.659C80.5149 125.659 81.4455 122.396 82.0736 121.165C82.5295 120.275 80.0497 117.734 80.0497 117.734L26.5436 76.7129L23.7101 76.2793V76.2793Z" fill="#FF4D84"/>
<path d="M61.9041 68.3217C61.9041 68.3217 59.5498 71.2308 59.1125 72.9837C58.6751 74.7366 0.958418 30.6713 0.958418 30.6713L0.711825 29.7902C0.711825 29.7902 0.213987 27.8042 2.71714 26.6061C5.22029 25.4079 5.22029 26.8438 5.22029 26.8438L61.9041 68.317V68.3217Z" fill="#01BEA4"/>
</g>
<defs>
<clipPath id="clip0_335_5712">
<rect width="141" height="142" fill="white"/>
</clipPath>
</defs>
</svg>
