<?xml version="1.0" encoding="utf-8"?>
<!-- Generator: Adobe Illustrator 23.0.3, SVG Export Plug-In . SVG Version: 6.00 Build 0)  -->
<svg version="1.1" id="圖層_1" xmlns="http://www.w3.org/2000/svg" xmlns:xlink="http://www.w3.org/1999/xlink" x="0px" y="0px"
	 viewBox="0 0 136.6 69.9" style="enable-background:new 0 0 136.6 69.9;" xml:space="preserve">
<style type="text/css">
	.st0{clip-path:url(#SVGID_2_);}
	.st1{fill:#B57F11;}
	.st2{fill:#F2AD22;}
	.st3{fill:#FDC553;}
	.st4{fill:#FFD277;}
</style>
<g id="_bow_tie" transform="translate(0 120.081) rotate(-40)">
	<g>
		<defs>
			
				<rect id="SVGID_1_" x="-19.4" y="-66.6" transform="matrix(0.766 -0.6428 0.6428 0.766 12.6014 49.2902)" width="186.8" height="147.8"/>
		</defs>
		<clipPath id="SVGID_2_">
			<use xlink:href="#SVGID_1_"  style="overflow:visible;"/>
		</clipPath>
		<g id="Group_823" transform="translate(0 0)" class="st0">
			<path id="Path_5726" class="st1" d="M92.5-2.8c6.1-2.3,21.6,10.4,34.7,9.5s34.8-3.4,36.1-16.4c3.5,3.1,3.7,14.3,3.9,21.2
				c-4.6,8.8-26,10.6-40.6,7.3c-9.5-2.1-32.3-15.9-34.3-18.5S90.6-2,92.5-2.8"/>
			<path id="Path_5727" class="st2" d="M94.3-7c14.9-3.1,36.9-32.2,63.6-16.3c10.7,11.3,9.7,28.8,9.2,34.7
				c-0.5-12.3-12.3-25.6-42.2-9.8c-9.5,5-17,12.4-34.1-1.9C87.6-2.8,89.4-6,94.3-7"/>
			<path id="Path_5728" class="st1" d="M90.2-1.5c-1.1-6.1-14.9-14-19.7-25.4c-4.8-11.4-12.1-30.8-5-37.2
				c-3.2-1.7-12.8,1.6-14.1,5.4c-3.7,9.5,4.3,26.2,12.2,37.3C68.7-14.3,86.1-0.6,88.4,0S90.5,0.5,90.2-1.5"/>
			<path id="Path_5729" class="st2" d="M91.9-4.7C87.7-18.5,94.8-57.2,75.7-65c-11-4.4-23.9,1.7-24.3,6.3c1.4-2.1,3.9-3.2,6.5-3
				C64.7-60.6,72.2-51,74.4-27C75.3-17,74-7.6,89.4,1C92.2,2.6,93.3-0.1,91.9-4.7"/>
			<path id="Path_5732" class="st3" d="M99.9-6.6c-0.2-3.1-5.5-7.9-10.7-7.2c-5.1,0.8-9.3,5.4-10.3,11.4c0,3.9,5.9,8.7,10.7,9.5
				C91.3,7.4,100.2-2.8,99.9-6.6"/>
			<path id="Path_5733" class="st4" d="M91-14.7c-2.2-0.3-10.4,1.6-11,6.4s2.9,5.8,4.6,3.6c2.5-3.4,9.1-3.9,12.5-4.3
				C96.1-11.8,93.8-13.9,91-14.7"/>
		</g>
	</g>
</g>
</svg>
