<svg xmlns="http://www.w3.org/2000/svg" xmlns:xlink="http://www.w3.org/1999/xlink" width="228.36" height="375.898" viewBox="0 0 228.36 375.898">
  <defs>
    <clipPath id="clip-path">
      <rect id="Rectangle_422" data-name="Rectangle 422" width="228.36" height="375.898" fill="none"/>
    </clipPath>
  </defs>
  <g id="class-teacher" transform="translate(-207 -244)">
    <g id="Group_570" data-name="Group 570" transform="translate(207 244)" clip-path="url(#clip-path)">
      <path id="Path_3706" data-name="Path 3706" d="M120.238,10.539c52.573-54,116.613,115.577,47.415,145.451,0,0-1.373.114-1.941-.531s-4.474-10.24-4.474-10.24.353,8.844-.028,11.078S158.528,139.682,140.494,141s-35.534,40.1-55.4,8.1C49.833,119.14,87.686,3.975,120.238,10.539" transform="translate(-1.391 0)" fill="#684e46" fill-rule="evenodd"/>
      <path id="Path_3707" data-name="Path 3707" d="M114.811,98.236l25.362,1.322a6.78,6.78,0,0,1,6.4,7.106L144.4,148.2a10.752,10.752,0,0,0,.649,2.8l-11.863,13.9-3.682,3.824-12.6-8.061-12.255-11.724a9.191,9.191,0,0,0,.882-2.79l2.166-41.518a6.782,6.782,0,0,1,7.109-6.4" transform="translate(-2.052 -1.926)" fill="#f8cfc7" fill-rule="evenodd"/>
      <path id="Path_3708" data-name="Path 3708" d="M145.229,133.029a41.887,41.887,0,0,1-5.149,2.529,26.406,26.406,0,0,1-11.765,1.108c-9.993-1.078-14.477-5.528-21.635-11.927l1.49-28.569a6.381,6.381,0,0,1,6.661-6.089h.006c.142.006.285.018.427.033l25.294,2.633a7.221,7.221,0,0,1,6.384,7.451Z" transform="translate(-2.092 -1.766)" fill="#f68b85" fill-rule="evenodd"/>
      <path id="Path_3709" data-name="Path 3709" d="M36.9,381.86a421.966,421.966,0,0,1,10.686-43.169c1.481-4.358,10.345-18.375,10.345-18.375a145.293,145.293,0,0,0,49.575,8.72l-.009-.119,63.6-8.6s11.889,24.564,15.909,61.543Z" transform="translate(-0.723 -6.28)" fill="#684e46" fill-rule="evenodd"/>
      <path id="Path_3710" data-name="Path 3710" d="M60.076,311.9s-2.053,2.787-1.728,8.249c0,0,17.9,9.964,57.094,12s58.039-6,58.039-6c.882-5.392-.863-8.381-.863-8.381L115.973,322Z" transform="translate(-1.143 -6.115)" fill="#7f5a50" fill-rule="evenodd"/>
      <path id="Path_3711" data-name="Path 3711" d="M63.249,224.641,69.621,270.1a3.3,3.3,0,0,0-.837,4.469s-11.255,22.353-11.878,24.979,3.666,8.875,3.666,8.875,21.381,9.8,55.818,11.6,56.724-5.729,56.724-5.729,4.912-5.764,4.566-8.447-3.177-17.73-3.177-17.73c2.7-13.1,5.566-43.137,5.566-43.137,5.93-2.7,12.916-20.274,9.846-39.789l-18.379-48.467-19.109-11.882c-4.7,5.743-6.4,6.176-15.239,7.488-.956.141-4.185,5.727-4.738,6.169,0,0-5.8-5.66-7.411-5.873-7.982-1.046-17.853-.588-29.281-10.661l-31.346,9.812c8.922,24.644,5.284,52.129-1.162,72.862" transform="translate(-1.115 -2.784)" fill="#fff" fill-rule="evenodd"/>
      <path id="Path_3712" data-name="Path 3712" d="M139.742,320.945a.635.635,0,0,1-.255-.053.648.648,0,0,1-.339-.85c1.551-3.583,1.163-10.659.672-19.614-.249-4.491-.525-9.579-.578-14.852-.133-13.137,1.9-29.756,6.048-49.4a79.153,79.153,0,0,0,.8-27.956l-12.765-49.232a.645.645,0,0,1,1.25-.323l12.775,49.276a80.5,80.5,0,0,1-.79,28.5c-4.128,19.555-6.155,36.078-6.022,49.124.052,5.242.332,10.318.577,14.794.5,9.125.9,16.334-.776,20.2a.641.641,0,0,1-.588.392" transform="translate(-2.614 -3.101)" fill="#e4dae2"/>
      <path id="Path_3713" data-name="Path 3713" d="M152.936,290.025l-10.622,1.884,10.476,7.728,8.385,7.654Z" transform="translate(-2.79 -5.686)" fill="#e4dae2" fill-rule="evenodd"/>
      <path id="Path_3714" data-name="Path 3714" d="M142.666,151.821c-1.238.231-2.674.451-4.371.7-.955.14-4.185,5.727-4.737,6.169,0,0-5.8-5.66-7.411-5.873-1.63-.214-3.34-.364-5.126-.556-1.677.49-4.242,1.326-4.833,1.976-.9.98-2.693,6.54-2.693,6.54l6.373,8.807,7.01-6.925s2.864-2.95,6.283-2.224,7.053,3.933,10.686.427,4.061-5.686,4.061-5.686Z" transform="translate(-2.225 -2.977)" fill="#e4dae2" fill-rule="evenodd"/>
      <path id="Path_3715" data-name="Path 3715" d="M176.168,288.179c2.7-13.1,5.565-43.137,5.565-43.137,5.93-2.7,12.917-20.274,9.846-39.79l-14.485-51.043-23-9.308a15.691,15.691,0,0,1-3.558,3.235l-8.463,8.137,15.49,48.612s5.124,14.207-.257,33.636c-6.765,24.418-3.887,95.92-4.51,126.9L195.041,375c-6.5-28.9-13.4-57.72-18.874-86.825" transform="translate(-2.786 -2.841)" fill="#308482" fill-rule="evenodd"/>
      <path id="Path_3716" data-name="Path 3716" d="M153.173,288.548c-.082,3.618-.139,7.3-.178,11.008l28.457,16.587q-2.1-9.887-4.037-19.8c-9.24-4.011-23.173-10.255-23.124-10.374Z" transform="translate(-3 -5.607)" fill="#308482" fill-rule="evenodd"/>
      <path id="Path_3717" data-name="Path 3717" d="M95.4,141.968l20.456,13.844c7.962,23.39,19.3,46.64,17.994,71.842-2.353,45.516-18.468,94.354-11.2,142.762,4.285,28.54-83.787-25.992-83.787-25.992L65.2,273.8s-1.2-1.966.686-5.98L60.33,230.889l3.733-79.108Z" transform="translate(-0.762 -2.784)" fill="#308482" fill-rule="evenodd"/>
      <path id="Path_3718" data-name="Path 3718" d="M66.31,269.158l-5.558-36.936.855-18.087,12.494-3.9s-.378,29.792-7.792,58.922" transform="translate(-1.191 -4.122)" fill="#308482" fill-rule="evenodd"/>
      <path id="Path_3719" data-name="Path 3719" d="M173.515,82.945s4.162-3.29,6.559-2.7,4.641,6.257,3.708,10.146-7.594,16.881-14.818,10.479,4.552-17.926,4.552-17.926" transform="translate(-3.267 -1.572)" fill="#f8cfc7" fill-rule="evenodd"/>
      <path id="Path_3720" data-name="Path 3720" d="M170.291,86.447a.9.9,0,0,0-.424.972.491.491,0,0,0,.607.335.481.481,0,0,0,.09-.036s-.8,12.433,1.424,11.008,4.518-2.753,6-5.588-.524-6.275.641-6.82c1.108-.527,1.815.891,1.877,1.027a8.161,8.161,0,0,1,.594,2.508.5.5,0,0,0,.686.467.928.928,0,0,0,.594-.882c0-.015-.249-4.871-3.609-5.536-3.207-.634-8.472,2.537-8.484,2.549" transform="translate(-3.33 -1.643)" fill="#f8a8a0" fill-rule="evenodd"/>
      <path id="Path_3721" data-name="Path 3721" d="M96.517,69.663S93.473,65.316,91,65.2s-6.237,4.668-6.456,8.662S87,92.208,95.756,88.141s.762-18.478.762-18.478" transform="translate(-1.657 -1.278)" fill="#f8cfc7" fill-rule="evenodd"/>
      <path id="Path_3722" data-name="Path 3722" d="M98.989,74.588a.9.9,0,0,1,.031,1.059.5.5,0,0,1-.7.08.481.481,0,0,1-.065-.062S94.37,87.5,92.839,85.354s-3.164-4.238-3.484-7.425,2.818-5.626,1.94-6.569c-.833-.9-2.015.156-2.123.256a8.226,8.226,0,0,0-1.486,2.106.5.5,0,0,1-.808.18.926.926,0,0,1-.222-1.048c.006-.01,2.044-4.424,5.407-3.793,3.213.6,6.922,5.506,6.932,5.52" transform="translate(-1.698 -1.353)" fill="#f8a8a0" fill-rule="evenodd"/>
      <path id="Path_3723" data-name="Path 3723" d="M142.714,20.861c49.978,8.468,36.585,46.325,27.309,77.083a41.825,41.825,0,0,1-12.428,19.629s-16.031,10.215-21.31,12.059a24.136,24.136,0,0,1-20.271-3.13c-4.477-3.351-16.678-17.929-16.678-17.929a41.822,41.822,0,0,1-5.924-22.467c.44-32.122-.9-72.255,49.306-65.244" transform="translate(-1.831 -0.393)" fill="#f8cfc7" fill-rule="evenodd"/>
      <path id="Path_3724" data-name="Path 3724" d="M114.262,79.206l-1.75.1a9.488,9.488,0,0,1-4.045-8.039c.32-6.8,19.382-5.818,13.91,8.271Z" transform="translate(-2.127 -1.317)" fill="#f8a8a0" fill-rule="evenodd"/>
      <path id="Path_3725" data-name="Path 3725" d="M176.536,42.9c5.543,14.441.015,33.385-5.236,50.7-9.98-2.984-24.519-12.612-41.355-40,0,0,15.5-7.451,13.993-9.13S116.53,32.085,116.53,32.085l-10.667,3.324,4.089,9.51s2.1,19.706-12.33,22.353-3.451-2.255-3.715-2.294c1.165-18.131,5.233-35.112,21.036-41.833,10.421,1.379,22.157,3.1,22.493,3.873.434,1,25.054,10.064,39.1,15.882" transform="translate(-1.768 -0.454)" fill="#f8a8a0" fill-rule="evenodd"/>
      <path id="Path_3726" data-name="Path 3726" d="M123.164,59.567a3.711,3.711,0,0,0,2.227.182,4.164,4.164,0,0,0,2.3-2.329c.01-.41-.666.137-2.525-1.1-1.831-1.214-8.789-4.555-14.663-.2-1.011.75-.467,1.552.686,1.362a14.378,14.378,0,0,1,11.973,2.072" transform="translate(-2.156 -1.058)" fill="#684e46" fill-rule="evenodd"/>
      <path id="Path_3727" data-name="Path 3727" d="M134.252,84.755a.883.883,0,1,1,1.569.81c-.736,1.441-4.07,7.2-4.053,8.025a4.216,4.216,0,0,0,1.275,1.788,5.6,5.6,0,0,0,2.337,1.318.885.885,0,1,1-.434,1.716,7.417,7.417,0,0,1-3.1-1.722A5.613,5.613,0,0,1,130,93.749c-.1-1.152,3.363-7.409,4.243-8.989" transform="translate(-2.549 -1.652)" fill="#ed8e86" fill-rule="evenodd"/>
      <path id="Path_3728" data-name="Path 3728" d="M151.141,76.773a3.654,3.654,0,0,1-2.19-.287,4.1,4.1,0,0,1-1.746-2.733c.076-.4.613.273,2.674-.536,2.024-.8,9.455-2.587,14.242,2.855.828.941.129,1.6-.947,1.176a14.255,14.255,0,0,0-12.033-.476" transform="translate(-2.886 -1.417)" fill="#684e46" fill-rule="evenodd"/>
      <path id="Path_3729" data-name="Path 3729" d="M150.332,86.813a3.691,3.691,0,0,1-2.178-.377,4.117,4.117,0,0,1-1.624-2.8c.1-.4.6.294,2.692-.425,1.724-.6,7.255-1.72,11.683,1.235a2.347,2.347,0,0,0,1.366-1.428.786.786,0,0,1,1.493.49,3.726,3.726,0,0,1-1.521,2l.1.1a1.217,1.217,0,0,0,.829-.375.788.788,0,1,1,1.115,1.115,3.066,3.066,0,0,1-.784.581c.49.829-.2,1.318-1.176.89a14.244,14.244,0,0,0-12-.992" transform="translate(-2.873 -1.617)" fill="#684e46" fill-rule="evenodd"/>
      <path id="Path_3730" data-name="Path 3730" d="M128.789,108.616a.845.845,0,1,1,.6-1.582,20.838,20.838,0,0,0,5.467,1,.843.843,0,1,1-.089,1.684,22.7,22.7,0,0,1-5.974-1.1" transform="translate(-2.514 -2.098)" fill="#ed8e86" fill-rule="evenodd"/>
      <path id="Path_3731" data-name="Path 3731" d="M123.162,102.459a.867.867,0,0,1,.823-1.526c.035.018,11.745,6.471,18.243,1.249a.865.865,0,0,1,1.083,1.349c-7.406,5.949-20.113-1.055-20.149-1.073" transform="translate(-2.406 -1.977)" fill="#ed8e86" fill-rule="evenodd"/>
      <path id="Path_3732" data-name="Path 3732" d="M141.257,102.527a.867.867,0,1,1,.458-1.673c.01,0,3.431.864,2.477,4.076a.866.866,0,1,1-1.674-.443c0-.016.009-.031.014-.047.439-1.481-1.275-1.915-1.275-1.918" transform="translate(-2.757 -1.977)" fill="#ed8e86" fill-rule="evenodd"/>
      <path id="Path_3733" data-name="Path 3733" d="M118.2,71.745h0a5.258,5.258,0,0,0-3.08.472A2.8,2.8,0,0,1,114,69.962a.927.927,0,0,0-1.853-.085v.045a4.406,4.406,0,0,0,1.03,2.966,1.449,1.449,0,0,1-1.043-.823.932.932,0,0,0-1.709.742c.01.022.02.042.03.063a3.129,3.129,0,0,0,2.183,1.813,5.391,5.391,0,0,0-.476,1.543l-.776,5.244a5.315,5.315,0,1,0,10.509,1.6l.006-.039.777-5.241a5.326,5.326,0,0,0-4.477-6.037" transform="translate(-2.164 -1.353)" fill="#684e46" fill-rule="evenodd"/>
      <path id="Path_3734" data-name="Path 3734" d="M90.554,59.859l-2.915,6.381S91.5,62.68,93.407,77.39c0,0,4.068-3.261,4.167-10.26,5.473-2.138,10.073-6.02,12.053-20.893,1.167-8.785,9.133-6.863,12.581-2.679,12.359,15.012,37.836,55.423,59.986,41.207,1.425-.917,4.378-.365,4.792-3.061,1.73-11.313-.652-35.617-15.172-54.622s-55.854-9.3-62.219-5.294S94.267,40.149,90.555,59.863" transform="translate(-1.718 -0.308)" fill="#684e46" fill-rule="evenodd"/>
      <path id="Path_3735" data-name="Path 3735" d="M63.591,151.975s-18.645,6.247-23.262,20.867-25.264,80.727-25.264,80.727l34.846,11.794C70.688,225.921,89.7,179.676,63.591,151.976" transform="translate(-0.295 -2.98)" fill="#308482" fill-rule="evenodd"/>
      <path id="Path_3736" data-name="Path 3736" d="M113.907,96.862a18.84,18.84,0,0,1-2.689-.2A18.443,18.443,0,0,1,116.5,60.16h0l.038.006a18.438,18.438,0,0,1,15.588,20.9v.009a18.53,18.53,0,0,1-18.225,15.784m-.044-35.6A17.149,17.149,0,1,0,130.85,80.923V80.9a17.144,17.144,0,0,0-14.482-19.445h-.009a17.193,17.193,0,0,0-2.5-.182" transform="translate(-1.871 -1.176)" fill="#fff"/>
      <path id="Path_3737" data-name="Path 3737" d="M156.414,103.067a18.786,18.786,0,0,1-2.685-.2,18.456,18.456,0,1,1,2.682.191m-.041-35.588a17.15,17.15,0,1,0,2.528.182,17.152,17.152,0,0,0-2.528-.182" transform="translate(-2.705 -1.297)" fill="#fff"/>
      <path id="Path_3738" data-name="Path 3738" d="M138.659,82.986a.66.66,0,0,1-.1-.008l-6.459-.944a.647.647,0,0,1,.189-1.275l6.457.944a.647.647,0,0,1-.1,1.287" transform="translate(-2.58 -1.583)" fill="#fff"/>
      <path id="Path_3739" data-name="Path 3739" d="M17.509,121.371s-3.824-5.392-5.946-6.53-5.861.957-4.916,3.9,5.8,14.314,5.8,14.314,7.255-1.337,6.869-.81-1.808-10.866-1.808-10.866" transform="translate(-0.127 -2.245)" fill="#f8a8a0" fill-rule="evenodd"/>
      <path id="Path_3740" data-name="Path 3740" d="M39.868,185.547c.449,4.225,10.609,70.346,11.089,74.412.48,4.082-2.122,11.713-10.972,14.985s-24.02-3.854-26.535-14.383S15.288,197.4,15.2,189.022c0-.189-.007-.375-.011-.56Z" transform="translate(-0.248 -3.638)" fill="#f8cfc7" fill-rule="evenodd"/>
      <path id="Path_3741" data-name="Path 3741" d="M39.727,185.217s-.856-9.728-.98-13.22,3.952-12.674,2.616-19.484-10.911-15.432-12.3-18.185a76.619,76.619,0,0,1-3.818-8.738c-.318-1.288-4.467,1.192-4.173,5.4l1.144,4.642L7.48,149.048,0,153.117A25.443,25.443,0,0,0,2.882,161.8c2.326,3.972,9.555,11.809,10.424,13.564s1.638,11.914,1.638,11.914,24.776-2.163,24.783-2.059" transform="translate(0 -2.456)" fill="#f8cfc7" fill-rule="evenodd"/>
      <path id="Path_3742" data-name="Path 3742" d="M17.388,135.431c-.631-4.569-7.592-78.726-8.813-91.753-.392-4.178.875-4.327,1.471-.173,1.841,12.951,12.326,86.7,12.779,91.284.709,7.21-4.443,7.815-5.432.64" transform="translate(-0.167 -0.793)" fill="#f2ad22" fill-rule="evenodd"/>
      <path id="Path_3743" data-name="Path 3743" d="M12.171,131.53s1.373-1.226,4.47.267a13.708,13.708,0,0,1,6.548,6.527,42.488,42.488,0,0,1,2.394,8.475c.132,1.113-1.418,3.154-4.285,3.026,0,0,.227,3.06-.634,4.486s-3.67,1.5-4.967.918c0,0-2.2,2.419-4.059,2.173a6.558,6.558,0,0,1-4.125-1.8L6.291,154.25,0,153.231a8.344,8.344,0,0,1,1.15-4.046c1.212-2.1,2.537-4.08,5.038-4.243,0,0-1.607-6.876,3.67-7.7,0,0-.294-4.144,2.312-5.714" transform="translate(0 -2.57)" fill="#f8cfc7" fill-rule="evenodd"/>
      <path id="Path_3744" data-name="Path 3744" d="M22.685,161.974a.648.648,0,0,1-.527-.273,13.268,13.268,0,0,1-2.026-6.054,5.939,5.939,0,0,1-3.382.49c-1.373,1.366-3.762,3.783-4.3,4.47a.646.646,0,0,1-1.016-.8c.306-.392,1.078-1.209,1.911-2.059a3.429,3.429,0,0,1-1.759.281,7.117,7.117,0,0,1-4.544-2.045l-1.044-1.15L2.057,154.2a.646.646,0,0,1,.207-1.274l4.161.674a.635.635,0,0,1,.374.206l1.223,1.349a6.063,6.063,0,0,0,3.733,1.592c1.115.143,2.606-1.073,3.294-1.757a14.4,14.4,0,0,0-2.144-5.872c-1.825-2.682-6.743-3.545-6.793-3.551a.646.646,0,1,1,.216-1.274c.224.036,5.509.96,7.647,4.1a15.474,15.474,0,0,1,2.353,6.356c.086.024.175.046.269.066a.51.51,0,0,1,.109.023c1.212.219,2.913,0,3.431-.864,0,0,0,0,.009-.012a8.979,8.979,0,0,0,.541-4.05c-.854-3.688-5.26-8.529-6.712-10.127a6.96,6.96,0,0,0-4.131-1.906.65.65,0,0,1-.6-.694.63.63,0,0,1,.66-.6h.034a8.208,8.208,0,0,1,4.991,2.326c1.454,1.6,5.748,6.318,6.9,10.253a3.753,3.753,0,0,0,2.581-1.118,1.733,1.733,0,0,0,.561-1.184,42.072,42.072,0,0,0-2.339-8.285,13.1,13.1,0,0,0-6.239-6.213c-2.606-1.256-3.725-.392-3.773-.357a.652.652,0,0,1-.9-.078.642.642,0,0,1,.056-.9c.068-.061,1.733-1.5,5.184.168a14.422,14.422,0,0,1,6.854,6.845,43.447,43.447,0,0,1,2.451,8.663,2.941,2.941,0,0,1-.9,2.217,4.787,4.787,0,0,1-2.388,1.373,8.583,8.583,0,0,0,2.832,3.47.648.648,0,0,1-.7,1.089l-.016-.011A9.659,9.659,0,0,1,22,151.259a8.06,8.06,0,0,1-.65,3.2,13.179,13.179,0,0,0,1.869,6.5.645.645,0,0,1-.527,1.018" transform="translate(-0.03 -2.557)" fill="#f8a8a0"/>
      <path id="Path_3745" data-name="Path 3745" d="M39.912,185.547c.1.95.7,5.056,1.561,10.875-4.924,2.719-10.911,5.083-16.2,4.045A91.814,91.814,0,0,1,14.9,197.779c.218-4.087.357-7.2.342-8.761,0-.189-.007-.375-.011-.56l3.167-.375c4.275,1.5,12.263,2.868,21.509-2.536" transform="translate(-0.292 -3.638)" fill="#f8a8a0" fill-rule="evenodd"/>
      <path id="Path_3746" data-name="Path 3746" d="M40.023,186.4l-.075-.869-.032.018q-.909.529-1.794.973c1.182-.088,1.9-.139,1.9-.122m-24.939.173c.1,1.132.156,1.887.156,1.887l3.4-.294a17.6,17.6,0,0,1-3.552-1.593" transform="translate(-0.296 -3.638)" fill="#f8a8a0" fill-rule="evenodd"/>
      <path id="Path_3747" data-name="Path 3747" d="M143.356,29.463s33.556,52.781,49.936,29.884A144.446,144.446,0,0,0,186.43,41c-5.874,7.544-18.03,11.031-43.073-11.535" transform="translate(-2.811 -0.578)" fill="#7f5a50" fill-rule="evenodd"/>
      <path id="Path_3748" data-name="Path 3748" d="M39.844,185.51s-8.748,10.45-24.672,4.464l-.161-3.431s-2.083,1.037-2.255,2.659-1.711,56.6-1.454,63.953,4.1,23.333,20.52,23.254,18.324-7.652,19.379-15.454-8.431-72.525-8.431-72.525-.49-4.482-3.049-4.791Z" transform="translate(-0.221 -3.601)" fill="#308482" fill-rule="evenodd"/>
      <path id="Path_3749" data-name="Path 3749" d="M49.846,265.761a.515.515,0,0,1-.519-.511v0a.505.505,0,0,1,.06-.244c14.667-27.874,33.119-68.094,24.153-95.476a.522.522,0,0,1,.331-.653.515.515,0,0,1,.651.325v.007c9.086,27.752-9.472,68.235-24.216,96.275a.513.513,0,0,1-.457.276m79.156-3.153h0a.517.517,0,0,1-.514-.52c.3-42.758-33.959-69.035-34.3-69.3a.526.526,0,0,1-.207-.392l-1.035-29.68-13.255-8.2a.525.525,0,0,1-.242-.5l.882-7.639a.518.518,0,0,1,1.028.118l-.846,7.313,12.819,7.931,7.735-9.769a.517.517,0,0,1,.811.64L93.972,162.6l1.034,29.524c2.831,2.23,34.817,28.39,34.519,69.975a.515.515,0,0,1-.516.512M49.138,235.485a.517.517,0,0,1-.512-.458c-1.327-11.094-3.039-23.711-4.35-33.117-17.993,9.327-32.1,1.508-32.243,1.427a.517.517,0,0,1,.476-.917l.033.019c.139.076,13.952,7.707,31.582-1.618-1.073-7.665-1.844-12.941-1.863-13.063-.127-1.152-.84-4.139-2.6-4.355a.512.512,0,0,1-.45-.567v-.008a.5.5,0,0,1,.546-.453h.026c2.931.354,3.481,5.047,3.5,5.247.018.111.813,5.545,1.909,13.393v.034c.9,6.454,2.008,14.533,3.052,22.627l3.508,5.084a.518.518,0,0,1-.852.588l-2.369-3.431c.392,3.039.763,6.069,1.112,8.986a.513.513,0,0,1-.445.574h0a.337.337,0,0,1-.063,0m115.694-24.846a.518.518,0,0,1-.517-.49c-.7-15.386,1.373-37.994,1.621-40.639l-20.284-19.069a.517.517,0,1,1,.709-.752l20.473,19.239a.521.521,0,0,1,.161.425c-.025.244-2.38,24.537-1.641,40.746a.517.517,0,0,1-.49.54Z" transform="translate(-0.231 -2.861)" fill="#f2ad22"/>
      <path id="Path_3750" data-name="Path 3750" d="M133.96,158.391l1.569-6.245,9.888-11.454.242-4.326,8.278,8.373L148.78,162.6c-.111.373-9.838-7.877-9.838-7.877Z" transform="translate(-2.627 -2.674)" fill="#fff" fill-rule="evenodd"/>
      <path id="Path_3751" data-name="Path 3751" d="M133.227,158.338l-2.157-7.031L105.9,136.843l.169-3.214L96.6,141.864l16.275,25.373,15.432-11.6Z" transform="translate(-1.894 -2.62)" fill="#fff" fill-rule="evenodd"/>
      <path id="Path_3752" data-name="Path 3752" d="M125.467,276.83c1,.147,1.641,1.461,1.424,2.933s-1.2,2.543-2.209,2.4-1.641-1.461-1.427-2.933,1.207-2.549,2.213-2.4" transform="translate(-2.416 -5.428)" fill="#f2ad22" fill-rule="evenodd"/>
      <path id="Path_3753" data-name="Path 3753" d="M120.218,307.668c1.006.146,1.643,1.46,1.424,2.932s-1.207,2.542-2.212,2.4-1.642-1.46-1.424-2.933,1.207-2.549,2.211-2.4" transform="translate(-2.313 -6.032)" fill="#f2ad22" fill-rule="evenodd"/>
      <path id="Path_3754" data-name="Path 3754" d="M188.613,277.377s-1.793,5.411-.064,8.6,7.73,10.829,15.507,12.29,20.825-5.4,20.957-17.028c.306-26.986-22.778-115.916-46.831-126.848Z" transform="translate(-3.494 -3.027)" fill="#308482" fill-rule="evenodd"/>
      <path id="Path_3755" data-name="Path 3755" d="M200.6,299.485a.517.517,0,0,1-.026-1.032c11.108-.615,18.68-7.171,20.263-17.539,1.55-10.168-.709-19.135-1.569-19.993l-.325-.325c-1.238-1.254-4.141-4.188-6.062-4.853a5.114,5.114,0,0,0-3.988.673.52.52,0,0,1-.718-.14.514.514,0,0,1,.137-.715,6.066,6.066,0,0,1,4.9-.793c2.149.745,5.061,3.686,6.458,5.1l.32.32c1.3,1.3,3.4,10.778,1.863,20.882-1.66,10.882-9.6,17.772-21.229,18.416Z" transform="translate(-3.923 -4.991)" fill="#f2ad22"/>
      <path id="Path_3756" data-name="Path 3756" d="M192.719,206.162a.516.516,0,0,1-.5-.374L180.81,165.572a.517.517,0,0,1,1-.281L193.218,205.5a.514.514,0,0,1-.349.637.546.546,0,0,1-.149.021" transform="translate(-3.545 -3.233)" fill="#f2ad22"/>
      <path id="Path_3757" data-name="Path 3757" d="M223.709,193.837,190.39,171.974l-.234-1.161-2.323-.469c-.346-.106-1.015-.127-1.625.93-.875,1.507-50.378,107.083-50.378,107.083s-1.4,2.765.848,3.968,33.959,13.752,33.959,13.752,1.681.784,2.647-1.4,51.29-96.549,51.29-96.549c1.4-2.576,1.136-2.975-.87-4.292" transform="translate(-2.655 -3.339)" fill="#fff" fill-rule="evenodd"/>
      <path id="Path_3758" data-name="Path 3758" d="M226.846,194.268,191.2,170.878s-.987-.679-1.856.825-50.7,107.752-50.7,107.752-1.4,2.766.852,3.969,33.959,13.748,33.959,13.748,1.676.784,2.647-1.394,51.609-97.219,51.609-97.219c1.407-2.577,1.135-2.975-.87-4.294" transform="translate(-2.71 -3.347)" fill="#f8a8a0" fill-rule="evenodd"/>
      <path id="Path_3759" data-name="Path 3759" d="M226.244,199.713,192.926,177.85l-.233-1.158-2.323-.472c-.345-.106-1.016-.126-1.625.929-.873,1.5-50.381,107.083-50.381,107.083s-1.4,2.763.851,3.971c.5.266,2.451,1.093,5.18,2.215,9.578,3.939,29.054,6.863,29.054,6.863s1.681.784,2.647-1.394,51.02-91.879,51.02-91.879c1.406-2.574,1.137-2.974-.869-4.292" transform="translate(-2.704 -3.454)" fill="#fff" fill-rule="evenodd"/>
      <path id="Path_3760" data-name="Path 3760" d="M229.376,200.147,193.74,176.755s-.988-.678-1.863.826-50.7,107.752-50.7,107.752-1.4,2.766.846,3.972,33.96,13.749,33.96,13.749,1.682.784,2.647-1.392,51.608-97.219,51.608-97.219c1.408-2.576,1.136-2.976-.87-4.293" transform="translate(-2.76 -3.463)" fill="#684e46" fill-rule="evenodd"/>
      <path id="Path_3761" data-name="Path 3761" d="M188.232,221.1s-.882-4.73-2.685-6.737a60.484,60.484,0,0,0-7.3-6.961c-1.961-1.379-7.687-.691-8.988-.822s-2.29,1.569-1.717,3.209a17.207,17.207,0,0,0-3.088-.853c-1.148-.126-4.881,1.2-5.258,5.927a7.908,7.908,0,0,0-4.628,7.745s-2.724,1.956-2.275,6.455c0,0-1.961,3.223-1.254,5.6s8.93,12.213,11.025,13.773,10.484,3.911,12.689,4.684,12.668,27.843,15.023,30.738,11.282,3.756,19.323-3.612,3.39-19.485,1.9-21.274-18.039-21-18.039-21a13.705,13.705,0,0,1-2.412-4.349c-.613-2.209-2.315-12.526-2.315-12.526" transform="translate(-2.958 -4.049)" fill="#f8cfc7" fill-rule="evenodd"/>
      <path id="Path_3762" data-name="Path 3762" d="M189.777,283.761a8.674,8.674,0,0,0,.76,1.222c2.353,2.894,11.281,3.756,19.323-3.612,5.7-5.222,5.02-12.833,3.612-17.459,2.745,12.262-10.137,25.686-23.693,19.849" transform="translate(-3.721 -5.174)" fill="#f8a8a0" fill-rule="evenodd"/>
      <path id="Path_3763" data-name="Path 3763" d="M175.232,254.055c.8.283,2.7,4.058,4.9,8.878-.091-4.056,3.086-5.238,3.367-5.98a.9.9,0,0,0-.5-1.166c-.032-.012-.065-.023-.1-.031Z" transform="translate(-3.436 -4.981)" fill="#f8a8a0" fill-rule="evenodd"/>
      <path id="Path_3764" data-name="Path 3764" d="M159.8,236.336a.646.646,0,0,1-.427-.162l-7.493-6.569a.645.645,0,1,1,.818-1,.408.408,0,0,1,.031.027l7.5,6.569a.648.648,0,0,1-.425,1.133m5.047-6.667a.65.65,0,0,1-.34-.1l-10.268-6.352a.649.649,0,1,1,.651-1.124l.035.023,10.266,6.356a.646.646,0,0,1-.34,1.2m5.7-7.665a.629.629,0,0,1-.317-.083L158.9,215.49a.647.647,0,0,1,.6-1.147l.038.022,11.342,6.431a.647.647,0,0,1-.322,1.209m11.77-4.873a.664.664,0,0,1-.257-.054c-3.016-1.3-6.738-2.843-8.26-3.374a47.783,47.783,0,0,1-6.579-3.3.647.647,0,0,1,.662-1.112,47.321,47.321,0,0,0,6.341,3.183c1.554.538,5.312,2.1,8.348,3.409a.647.647,0,0,1-.255,1.24" transform="translate(-2.973 -4.102)" fill="#f8a8a0"/>
    </g>
  </g>
</svg>
