<svg id="class-title" xmlns="http://www.w3.org/2000/svg" xmlns:xlink="http://www.w3.org/1999/xlink" width="305.187" height="99.79" viewBox="0 0 305.187 99.79">
  <defs>
    <clipPath id="clip-path">
      <rect id="Rectangle_337" data-name="Rectangle 337" width="305.187" height="99.79" fill="none"/>
    </clipPath>
    <clipPath id="clip-path-3">
      <rect id="Rectangle_334" data-name="Rectangle 334" width="227.713" height="87.186" fill="none"/>
    </clipPath>
    <clipPath id="clip-path-4">
      <rect id="Rectangle_335" data-name="Rectangle 335" width="276.433" height="86.053" fill="none"/>
    </clipPath>
  </defs>
  <g id="Group_430" data-name="Group 430" clip-path="url(#clip-path)">
    <g id="Group_429" data-name="Group 429" transform="translate(0 0)">
      <g id="Group_428" data-name="Group 428" clip-path="url(#clip-path)">
        <g id="Group_424" data-name="Group 424" transform="translate(77.474)" opacity="0.3">
          <g id="Group_423" data-name="Group 423">
            <g id="Group_422" data-name="Group 422" clip-path="url(#clip-path-3)">
              <path id="Path_3273" data-name="Path 3273" d="M268.026.478a1.025,1.025,0,0,0,.192.016c11.429.905,19.585,2.611,27.755,5.7,7.242,3,11.734,6.283,15.218,10.734,6.13,9.238,4.957,17.963-3.032,29.243A73,73,0,0,1,291.743,61.29a127.86,127.86,0,0,1-25.131,13.092,1.74,1.74,0,0,1-.2.073c-.937.326-1.815.724-2.78,1.065a186.987,186.987,0,0,1-30.718,8.314,214.294,214.294,0,0,1-39.077,3.353c-4.567-.129-9.357-.45-13.618-.869-.732-.075-1.017-.425-.669-.817a3.175,3.175,0,0,1,2.05-.718c4.6-.117,9.508-.042,14.09-.289a238.19,238.19,0,0,0,36.5-4.49,167.162,167.162,0,0,0,26.531-7.768c.825-.311,1.716-.641,2.581-1.038A110.487,110.487,0,0,0,282.622,59.65a62.88,62.88,0,0,0,14.047-13.413c6.661-9.876,7.563-17.654,1.953-25.7-3.1-3.77-7.006-6.569-13.291-9.1-6.987-2.566-13.893-3.968-23.622-4.7a3.928,3.928,0,0,0-.476-.012c-1.948-.068-3.817-.232-5.773-.3-.509-.022-.99-.035-1.47-.074-.1,0-.221,0-.335.005-.489,0-.976-.005-1.446-.013-20.163-.306-39.266,2.248-60.893,6.5-24.495,5.288-44.631,11.431-64.9,20.827-8.33,4.049-14.787,7.773-20.426,12.461-4.894,4.347-7.4,7.778-7.817,11.994.009.045-.006.1.012.2.013.27-.027.536-.029.8.448,4.228,3,7.059,7.745,10.027,7.646,4.394,16.889,7.08,28.159,9.557,2.186.473,4.806.834,7.125,1.237.671.12.841.493.405.871a3.428,3.428,0,0,1-2.126.646,66.41,66.41,0,0,1-7.946-.525c-.092-.016-.17-.032-.143-.026-.066-.02-.16-.031-.253-.048-13.42-1.716-23.858-4.095-33.1-8.385-6.174-3.321-9.5-6.532-10.547-11.455A5.572,5.572,0,0,1,87.377,60a.184.184,0,0,0,0-.1c.082-5.113,2.848-9.345,8.68-14.735,6.241-5.4,13.526-9.784,22.984-14.489,22.079-10.464,43.826-17.26,70.823-23.215C213.668,2.665,235.081-.267,257.468.02c.548.014,1.09.025,1.633.062.093,0,.178.009.293,0,.571,0,1.174,0,1.741.03,2.179.074,4.7.083,6.686.325a1.361,1.361,0,0,1,.207.038" transform="translate(-87.374 0)" fill="#5eb4af" fill-rule="evenodd"/>
            </g>
          </g>
        </g>
        <g id="Group_427" data-name="Group 427" transform="translate(0.448 13.29)" opacity="0.3">
          <g id="Group_426" data-name="Group 426">
            <g id="Group_425" data-name="Group 425" clip-path="url(#clip-path-4)">
              <text id="產險知識通" transform="translate(0.306 51.069) rotate(0.541)" fill="#fffacf" font-size="58" font-family="GenSenRoundedTW-B, GenSenRounded TW"><tspan x="0" y="0" letter-spacing="-0.059em">產險知識</tspan><tspan y="0">通</tspan></text>
            </g>
          </g>
        </g>
        <path id="Path_3274" data-name="Path 3274" d="M24.462,26.847l6.963.066,7.023.066q-2.82,1.2-5.638,2.112Q27.205,27.518,24.462,26.847Zm8.246,6.808q4.783,1.508,8.343,2.829L31.686,36.4l-9.3-.088Q27.663,35.188,32.708,33.655Zm3.275,37.428,17.556.166a2.484,2.484,0,0,0,2.836-2.782,2.484,2.484,0,0,0-2.783-2.836l-14.1-.133.043-4.448,9.655.091a2.329,2.329,0,0,0,2.659-2.609,2.329,2.329,0,0,0-2.61-2.658l-9.654-.091.035-3.744,11.351.107q2.692.025,2.719-2.726A2.379,2.379,0,0,0,51.02,46.7L39.667,46.6l0-.527q.033-3.336-3.3-3.368T33,46.007l0,.527-6.436-.061q1.257-3.09-1.837-3.822a3.065,3.065,0,0,0-4.057,2.069,26.347,26.347,0,0,1-3.386,5.294,3.564,3.564,0,0,0-1.193,2.447,3.053,3.053,0,0,0,1.5,2.179,2.763,2.763,0,0,0,4.159-.488,18.336,18.336,0,0,0,1.66-2.266l9.538.09-.035,3.745-9.538-.09a2.328,2.328,0,0,0-2.657,2.61A2.327,2.327,0,0,0,23.321,60.9l9.538.09-.043,4.447L18.538,65.3A2.481,2.481,0,0,0,15.7,68.082a2.482,2.482,0,0,0,2.782,2.836ZM10.308,69.2q4.47-8.617,4.608-23.132l.027-2.809a1.242,1.242,0,0,1,1.418-1.391l19.6.185,18.257.173a2.483,2.483,0,0,0,2.836-2.782,2.483,2.483,0,0,0-2.782-2.836l-9.011-.085.118-.116q1.3-1.041,1.189-2.008c-.073-.645-.574-1.126-1.508-1.447q-2.681-.962-5.483-1.807a40.323,40.323,0,0,0,6.291-3.16q.354-.289-.052-.528l-.758-.416,6.671.062q2.691.025,2.718-2.725a2.379,2.379,0,0,0-2.666-2.717L34.169,21.5l.005-.527q.031-3.393-3.362-3.426-3.453-.033-3.485,3.361l-.005.527L10.7,21.274A2.38,2.38,0,0,0,7.986,23.94q-.027,2.752,2.665,2.776l8.251.078-.117.115q-1.3.926-1.158,1.745t1.656,1.186q2.978.73,5.489,1.457Q19.9,32.422,15.1,33.079a.837.837,0,0,0-.764.461.966.966,0,0,0,.168.938q.229.354.691,1.178c.153.275.268.47.346.588l-3.453-.033a3.614,3.614,0,0,0-3.838,3.768l-.058,5.968Q8.074,58,4.849,64.878q-1.964,3.317.592,5.448a3.049,3.049,0,0,0,2.654.932A4.192,4.192,0,0,0,10.308,69.2Z" transform="translate(-0.453 -1.988)" fill="none" stroke="#fffacf" stroke-width="1"/>
        <path id="Path_3275" data-name="Path 3275" d="M101.792,24.484a35.514,35.514,0,0,0,4.688,5.662q1.16,1.065-.3,1.051l-4.389-.042L95.994,31.1A36.774,36.774,0,0,0,101.792,24.484Zm6.038,23.759.025-2.692a1.241,1.241,0,0,1,1.418-1.39l1.287.012a1.035,1.035,0,0,1,1.16,1.181l-.016,1.58-.012,1.347a1.242,1.242,0,0,1-1.419,1.391l-1.053-.01A1.241,1.241,0,0,1,107.83,48.243Zm-16.093-.152.025-2.692a1.241,1.241,0,0,1,1.418-1.391l1.053.01A1.036,1.036,0,0,1,95.393,45.2l-.016,1.581-.012,1.346a1.242,1.242,0,0,1-1.418,1.391l-.82-.008A1.241,1.241,0,0,1,91.737,48.091Zm18.143,6.14,3.277.032A3.616,3.616,0,0,0,117,50.5l.066-7.023a3.615,3.615,0,0,0-3.768-3.839l-6.554-.062a3.615,3.615,0,0,0-3.84,3.768l-.071,7.49a3.122,3.122,0,0,0,3.306,3.367Zm-16.268-.153,3.043.029a3.616,3.616,0,0,0,3.839-3.768l.066-7.023a3.615,3.615,0,0,0-3.768-3.839l-6.085-.058a3.615,3.615,0,0,0-3.84,3.768L86.8,50.8a3.02,3.02,0,0,0,3.189,3.248Zm-19.637,15.5.394-41.548a1.241,1.241,0,0,1,1.417-1.391l2.926.027Q77.55,32.1,76.1,37.175a5.662,5.662,0,0,0,1.067,4.809,15.367,15.367,0,0,1,1.976,7.686q-.025,2.632-.85,3.269a2.274,2.274,0,0,1-1.585.512h-.117a1.492,1.492,0,0,0-1.53.658,2.562,2.562,0,0,0-.134,1.9,4.458,4.458,0,0,0,1.353,2.383,3.315,3.315,0,0,0,2.42.872,2.346,2.346,0,0,0,.323-.027,2.434,2.434,0,0,1,.322-.026,9.325,9.325,0,0,0,3.288-1.14q2.534-1.907,2.587-7.466a19.1,19.1,0,0,0-3.984-11.859q.718-1.866,2.166-6.3c.075.156.21.392.4.7q.519.826.748,1.237a3.479,3.479,0,0,0,2.176,2.069,3.707,3.707,0,0,0,2.96-.441q2.12-1.385,3.593-2.54l0,.175a2.417,2.417,0,0,0,2.551,2.6l5.911.056,7.315.069a1.086,1.086,0,0,0,1.24-1.217l.015-1.58q1.627,1.3,3.6,2.667a4.034,4.034,0,0,0,2.744.786,3.166,3.166,0,0,0,2.125-1.794,3.83,3.83,0,0,0,.644-3.1,4.5,4.5,0,0,0-2.408-2.246,37.215,37.215,0,0,1-10.851-9.7,4.562,4.562,0,0,0-3.785-1.967l-1.4-.013a4.863,4.863,0,0,0-2.258.535,3.865,3.865,0,0,0-1.624,1.419,35.356,35.356,0,0,1-5.913,6.5,33.274,33.274,0,0,1-7.6,5.079q1.148-3.735,1.758-6.421a4.7,4.7,0,0,0-.375-3.632,3.282,3.282,0,0,0-2.8-1.2L72.276,20.4a3.613,3.613,0,0,0-3.84,3.768L68.008,69.52a2.638,2.638,0,0,0,2.956,3.013A2.637,2.637,0,0,0,73.975,69.577Zm14.738,1.251a28.536,28.536,0,0,0,4.56-5.751q.926.946,1.333,1.417a2.774,2.774,0,0,0,1.976,1.395,3.127,3.127,0,0,0,2.177-1.121,3.307,3.307,0,0,0,1.07-1.746,2.354,2.354,0,0,0-.744-1.821q-1.564-1.653-3.306-3.191.059-.116.18-.408a1.737,1.737,0,0,1,.12-.35q.966-3.034-2.131-3.649-2.805-.61-3.767,2.305a27.613,27.613,0,0,1-2.445,4.776A21.047,21.047,0,0,1,84.9,66.052q-2.832,2.314-.4,4.737Q86.412,72.738,88.713,70.828Zm16.385.154a23.739,23.739,0,0,0,3.733-4.822,58.018,58.018,0,0,1,4.522,4.432,2.713,2.713,0,0,0,2.1,1.131,3.866,3.866,0,0,0,2.119-1.326,4.252,4.252,0,0,0,1.188-1.861,2.471,2.471,0,0,0-.743-1.938q-1.623-1.653-5.8-5.2-.58-.532-.871-.77a11.853,11.853,0,0,0,.482-1.458q.849-3.211-2.365-3.651-2.922-.436-3.713,2.657a22.792,22.792,0,0,1-2.033,4.662,17.037,17.037,0,0,1-2.371,3.2q-2.891,2.431-.457,4.911Q102.854,72.951,105.1,70.983Z" transform="translate(-7.706 -2.064)" fill="none" stroke="#fffacf" stroke-width="1"/>
        <path id="Path_3276" data-name="Path 3276" d="M163.341,59.574l.132-13.869.131-13.927a1.241,1.241,0,0,1,1.418-1.391l5.618.052a1.242,1.242,0,0,1,1.39,1.418l-.263,27.8a1.24,1.24,0,0,1-1.417,1.39l-5.618-.052A1.242,1.242,0,0,1,163.341,59.574Zm11.57,8.069a3.615,3.615,0,0,0,3.84-3.768l.341-36.106a3.613,3.613,0,0,0-3.768-3.839l-7.256-.068-7.2-.068a3.614,3.614,0,0,0-3.839,3.768l-.341,36.106a3.615,3.615,0,0,0,3.768,3.84Zm-39.939,2.782a32.288,32.288,0,0,0,8.021-12.682q3.3,4.187,5.721,7.72,1.212,1.826,2.383,1.808t2.59-1.819a6.773,6.773,0,0,0,1.308-2.1,2.553,2.553,0,0,0-.8-2.056q-6.771-8.021-9.322-10.622.184-.758.433-2.4l6.672.064q3.275.031,3.306-3.247t-3.244-3.307l-6.2-.059.013-1.4.075-7.9,4.915.047q3.217.031,3.249-3.189T150.9,26.039L146.452,26l-7.608-.073q.363-1.166.787-2.743.733-3.211-2.538-3.945-3.329-.734-4.124,2.887a46.038,46.038,0,0,1-4.084,11.139,3.84,3.84,0,0,0-.757,2.627,3.778,3.778,0,0,0,1.677,2.211,3.344,3.344,0,0,0,2.567.873,3.425,3.425,0,0,0,2.036-1.8q1.132-2.212,2.211-4.836l2.341.022-.074,7.842-.014,1.463-7.43-.071q-3.279-.031-3.309,3.246t3.247,3.308l6.963.066q-1.5,9.935-7.469,16.2-3.776,3.241-1.227,6.074Q131.9,72.971,134.971,70.425Z" transform="translate(-14.515 -2.166)" fill="none" stroke="#fffacf" stroke-width="1"/>
        <path id="Path_3277" data-name="Path 3277" d="M204.014,26.2a2.328,2.328,0,0,0,2.658-2.608,2.329,2.329,0,0,0-2.61-2.658l-4.506-.043-4.446-.042a2.326,2.326,0,0,0-2.658,2.608,2.328,2.328,0,0,0,2.609,2.658Zm1.269,8.088a2.43,2.43,0,0,0,2.777-2.724,2.432,2.432,0,0,0-2.725-2.777l-6.378-.059-6.319-.06a2.432,2.432,0,0,0-2.777,2.725,2.431,2.431,0,0,0,2.725,2.776Zm-1.362,7.947q2.633.025,2.658-2.666a2.327,2.327,0,0,0-2.608-2.658l-4.682-.044-4.622-.044a2.328,2.328,0,0,0-2.659,2.609q-.025,2.693,2.609,2.717Zm-4.756,7.856,4.74.045a2.3,2.3,0,0,0,2.6-2.61,2.276,2.276,0,0,0-2.551-2.6l-9.421-.09a2.276,2.276,0,0,0-2.6,2.551,2.3,2.3,0,0,0,2.55,2.658Zm15.6,3.19a1.239,1.239,0,0,1,1.416-1.39l2.985.027a1.138,1.138,0,0,1,1.274,1.3l-.015,1.639-2.868-.027-2.808-.027Zm-.075,7.959.016-1.756,2.808.027,2.868.027-.029,3.1-4.331-.041A1.188,1.188,0,0,1,214.686,61.244Zm-17.874,2.465.037-3.921a1.241,1.241,0,0,1,1.417-1.391l1.522.015a1.241,1.241,0,0,1,1.391,1.417l-.019,1.99-.019,1.931a1.241,1.241,0,0,1-1.417,1.391l-1.522-.015A1.24,1.24,0,0,1,196.813,63.709Zm5.845,6.9a3.615,3.615,0,0,0,3.84-3.768l.1-10.24a3.33,3.33,0,0,0-3.536-3.6l-3.921-.037-3.627-.035a3.615,3.615,0,0,0-3.84,3.768L191.576,66.7a3.613,3.613,0,0,0,3.768,3.839ZM243.533,67.9q.858-3.912-.419-5.154-1.508-1.419-2.514-.317a7.312,7.312,0,0,0-1.262,3.5c-.2.545-.438.815-.71.812q-1.637-.19-2.712-4.122a57.124,57.124,0,0,0,5.772-10.069,2.742,2.742,0,0,0-1.251-3.816q-2.856-1.607-3.995,1.543-.779,1.866-1.794,3.9-.418-5.387-.495-9.543l6.554.062q2.75.025,2.777-2.783a2.431,2.431,0,0,0-2.724-2.776l-6.671-.063q-.124-5.561.071-13.694a37.126,37.126,0,0,1,3.615,7.525,2.606,2.606,0,0,0,1.3,1.913,3.34,3.34,0,0,0,2.489-.239,3.224,3.224,0,0,0,1.768-1.271,2.625,2.625,0,0,0,.02-2.048,41.96,41.96,0,0,0-2.984-6.232,2.743,2.743,0,0,0-1.569-1.243,2.92,2.92,0,0,0-1.991.1l-2.642.97.022-2.4q.144-2.983-2.838-3.011-2.926-.028-2.956,3.132-.085,8.954.02,16.445l-4.448-.042q.544-1.809,1.4-5.255a2.662,2.662,0,0,0-.157-2.02,2.147,2.147,0,0,0-1.629-.982l-2.747-.435,3.862.036a2.3,2.3,0,0,0,2.6-2.609,2.277,2.277,0,0,0-2.55-2.6l-3.454-.033.024-2.574q.031-3.16-3.129-3.19t-3.19,3.131l-.024,2.574-3.569-.034a2.276,2.276,0,0,0-2.6,2.551,2.3,2.3,0,0,0,2.55,2.657l7.724.073q1.4.013,1.275,1.3-.44,3.216-.872,5.552-.245,1.169,1.1,1.474l1.636.366-9.363-.089.587-.169a3.287,3.287,0,0,0,2.238-1.617,4.318,4.318,0,0,0,.232-2.9,4.256,4.256,0,0,0-1.409-2.558,3.157,3.157,0,0,0-2.745-.552l-.176.057q-1.055.165-.773,1.279a31.01,31.01,0,0,1,1.051,6.448l-1.579-.015a2.432,2.432,0,0,0-2.777,2.725q-.027,2.808,2.725,2.834l7.782.074,10.534.1a130.054,130.054,0,0,0,1.421,16.81,45.151,45.151,0,0,1-4.078,4.292l.138-14.687a3.615,3.615,0,0,0-3.768-3.84l-8.777-.082a3.613,3.613,0,0,0-3.839,3.768l-.121,12.7a3.616,3.616,0,0,0,3.768,3.84l10.533.1-.176.115a6.1,6.1,0,0,1-.826.636,3.268,3.268,0,0,0-1.627,1.916,2.609,2.609,0,0,0,1,2.116,2.951,2.951,0,0,0,1.805,1.013,3.665,3.665,0,0,0,2-.742,40.145,40.145,0,0,0,5.487-4.746q2.225,6.046,6.728,6.442Q241.6,74.489,243.533,67.9Z" transform="translate(-21.513 -2.189)" fill="none" stroke="#fffacf" stroke-width="1"/>
        <path id="Path_3278" data-name="Path 3278" d="M263.4,30.569a3.625,3.625,0,0,0,2.352-1.208q2.361-2.143.157-4.329a15.747,15.747,0,0,0-1.8-1.48q-1.394-1.067-2.965-2.135a3.086,3.086,0,0,0-3.924.489q-2.657,2.434.424,4.628,2.031,1.6,3.425,2.841A3.2,3.2,0,0,0,263.4,30.569Zm.43,10.245q2.244-2.2.156-4.212l-1.569-1.244a2.229,2.229,0,0,1-.406-.3q-.7-.533-2.21-1.484c-.349-.237-.622-.416-.815-.534a3.028,3.028,0,0,0-3.925.548,2.832,2.832,0,0,0-1.135,2.417A3.341,3.341,0,0,0,255.6,38.22a33.378,33.378,0,0,1,3.542,2.843,3.107,3.107,0,0,0,2.3,1.1A4.052,4.052,0,0,0,263.832,40.813Zm26.288-1.1,5.443.052a1.24,1.24,0,0,1,1.389,1.417l-.016,1.756-3.452-.032-3.394-.033ZM277.289,41a1.242,1.242,0,0,1,1.419-1.391l5.267.05-.03,3.16-3.335-.032-3.337-.031Zm12.754,6.734,3.394.032,3.452.033-.031,3.277-6.846-.065Zm-12.816-.121,3.337.032,3.335.032-.031,3.277L277.2,50.89ZM296.26,65a12.074,12.074,0,0,0,4.691-.892,4.208,4.208,0,0,0,1.949-1.913,8.837,8.837,0,0,0,.5-3.273l.2-20.774a3.121,3.121,0,0,0-3.3-3.367l-3.687-.035a24.843,24.843,0,0,0-2.212-1.191q-.817-.416-1.223-.655a29.976,29.976,0,0,0,7.313-6.076q1.484-2.268.97-3.5t-2.739-1.256l-13.928-.131-10.649-.1a2.328,2.328,0,0,0-2.658,2.609,2.328,2.328,0,0,0,2.609,2.658l18.024.17q-2.887,2.022-4.652,3.058-2.042-.9-5.13-2.156a3.065,3.065,0,0,0-3.225.614q-3.006,2.431.433,3.867,1.165.48,3.438,1.555.581.3.874.417l-9.187-.087a3.615,3.615,0,0,0-3.84,3.768L270.6,61.42q-.029,3.217,3.248,3.249,3.216.031,3.248-3.188l.052-5.56,6.672.063-.052,5.5q-.029,3.043,3.072,3.072,3.042.029,3.072-3.014l.051-5.5,6.846.064-.026,2.692q-.008.821-.885.87l-.352,0q-4.1-.154-3.072,3.131Q293.157,65.085,296.26,65Zm-38.389,5.9q1.178-.986,3.246-3.013c.473-.425.828-.753,1.063-.985a15.3,15.3,0,0,0,6.451,4.918A27.99,27.99,0,0,0,277.8,73.6q9.183.438,23.35.1a3.721,3.721,0,0,0,2.23-.653,4.294,4.294,0,0,0,1.248-2.065q.664-2.217,0-3.073t-2.949-.7q-12.82.581-23.82.009-9.474-.557-12.818-5.914l.113-12a2.827,2.827,0,0,0-3.014-3.071l-3.452-.033-3.277-.031q-3.219-.031-3.25,3.189t3.188,3.248l1.815.017a1.242,1.242,0,0,1,1.391,1.419l-.073,7.666a53.609,53.609,0,0,1-4.538,3.409,3.486,3.486,0,0,0-1.393,4.9Q254.273,73.964,257.871,70.9Z" transform="translate(-28.562 -2.371)" fill="none" stroke="#fffacf" stroke-width="1"/>
      </g>
    </g>
    <path id="Path_3279" data-name="Path 3279" d="M17.751,71.963l1.436-.829-1.956,2.712,4.791-2.766-4.563,4.13L24.58,71.1l-6.6,4.881,8.431-4.868L19.122,76.54,28.5,71.129l-6.876,5.516,9.519-5.5-7.507,5.514,9.526-5.5L26.27,76.688,41,68.185,29.526,76.719,40.992,70.1l-8.677,6.647L41.8,71.271l-6.844,5.5L44.438,71.3l-6.938,5.5,9.484-5.475-6.416,5.5,9.484-5.475-6.242,5.505,9.484-5.475-6.56,5.5,9.308-5.373L48.669,76.9l8.421-4.862-5.2,4.892L57.8,73.517l-3.744,3.434L57.8,74.788" transform="translate(-1.953 -7.726)" fill="none" stroke="#fffacf" stroke-linecap="round" stroke-linejoin="round" stroke-width="0.7"/>
    <path id="Path_3280" data-name="Path 3280" d="M44.388,65.954l8.93-5.155L46.725,65.97,55.2,61.079l-6.032,4.907,6.951-4.013L52.4,66.008l3.977-2.3-1.845,2.244,1.39-.8" transform="translate(-5.03 -6.889)" fill="none" stroke="#fffacf" stroke-linecap="round" stroke-linejoin="round" stroke-width="0.7"/>
    <path id="Path_3281" data-name="Path 3281" d="M44.484,55.768l9.229-5.328-7.266,5.342,9.217-5.322L48.76,55.8l8.515-4.916-5.622,4.936,6.467-3.733-3.3,3.756L58.178,53.9" transform="translate(-5.04 -5.715)" fill="none" stroke="#fffacf" stroke-linecap="round" stroke-linejoin="round" stroke-width="0.7"/>
    <path id="Path_3282" data-name="Path 3282" d="M23.352,61.153l1.39-.8-1.835,3.013L28.2,60.307l-4.966,4.148,7.158-4.134-6.084,5,8.633-4.984-6.98,5.169,8.931-5.156L29.4,65.54l12.327-7.117-9.4,7.145,9.4-5.425L35,65.887l9.387-5.419L35,67.142l11.525-6.654L34.993,68.31l13.516-7.8-13.522,9.38,6.659-3.844" transform="translate(-2.596 -6.62)" fill="none" stroke="#fffacf" stroke-linecap="round" stroke-linejoin="round" stroke-width="0.7"/>
    <path id="Path_3283" data-name="Path 3283" d="M36.35,46.963l1.548-.894-2.218,3.017L40.6,46.243,27.332,55.114,41.561,46.9,29.528,55.132,42.1,47.872,32.01,55.152l10.277-5.934-7.726,5.954,9.187-5.3-8.162,6.268L46.4,49.894,35.583,57.765,49.17,49.92" transform="translate(-3.097 -5.22)" fill="none" stroke="#fffacf" stroke-linecap="round" stroke-linejoin="round" stroke-width="0.7"/>
    <path id="Path_3284" data-name="Path 3284" d="M23,46.642l1.542-.89-2.8,3.135,4.99-2.882L20.748,50.6l7.008-4.046L19.51,52.4l8.8-5.08L17.7,55.208,28.283,49.1,18.192,56.918l12.487-7.21L19.112,57.78l13.957-8.058L20.391,58.431l3.719-2.147" transform="translate(-2.006 -5.184)" fill="none" stroke="#fffacf" stroke-linecap="round" stroke-linejoin="round" stroke-width="0.7"/>
    <path id="Path_3285" data-name="Path 3285" d="M15.694,35.47l.843-.487-.506,1.593,3.582-2.069-3.12,2.866L22.3,34.02" transform="translate(-1.778 -3.855)" fill="none" stroke="#fffacf" stroke-linecap="round" stroke-linejoin="round" stroke-width="0.7"/>
    <line id="Line_5" data-name="Line 5" y1="3.068" x2="5.315" transform="translate(40.142 25.602)" fill="none" stroke="#fffacf" stroke-linecap="round" stroke-linejoin="round" stroke-width="0.7"/>
    <path id="Path_3286" data-name="Path 3286" d="M50.626,27.612l8.249-4.762-5.012,4.783,5.769-3.33-2.424,3.344,2.212-1.277" transform="translate(-5.736 -2.589)" fill="none" stroke="#fffacf" stroke-linecap="round" stroke-linejoin="round" stroke-width="0.7"/>
    <path id="Path_3287" data-name="Path 3287" d="M27.49,27.3l9.291-5.364-6.442,5.391,9.094-5.25-5.9,5.28,9.094-5.25-6.881,5.271,9.095-5.251-5.682,5.283,9.095-5.25L27.164,36.27,51.557,22.186l-18.93,12.7L54.559,22.221,36.1,34.345l11.636-6.718L38.3,35.054l5.143-2.97-3.774,3.427,5.162-2.98-3.013,3.724L47,33.266,43.595,36.9l5.025-2.9" transform="translate(-3.078 -2.485)" fill="none" stroke="#fffacf" stroke-linecap="round" stroke-linejoin="round" stroke-width="0.7"/>
    <path id="Path_3288" data-name="Path 3288" d="M17.65,43.959l9.429-5.443-6.921,5.45,9.4-5.429-6.335,5.458,9.41-5.434L25.1,44.012l9.414-5.435L27.3,44.033l9.418-5.438-7.007,5.461,9.424-5.441-6.688,5.466,9.429-5.444L34.545,44.1l13.475-7.78L37.547,44.129l9.393-5.422-6.369,5.451,9.393-5.423-5.928,5.456,9.393-5.424-6.1,5.455,9.277-5.356-6.173,5.386,7.694-4.442-5.88,4.459,6.221-3.592L55.3,44.3l3.149-1.818" transform="translate(-2 -4.116)" fill="none" stroke="#fffacf" stroke-linecap="round" stroke-linejoin="round" stroke-width="0.7"/>
    <path id="Path_3289" data-name="Path 3289" d="M9.273,38.768l1.746-1.008L8.4,40.51l4.939-2.851L8.3,42.3,30.023,29.753,8.279,44.226,32.273,30.373,8.264,45.842,22.37,37.7,8.242,47.77l6.844-3.952L8.21,49.23l6.681-3.857L8.116,51.3l6.757-3.9L8,52.91l6.839-3.948-6.961,5.3L14.8,50.263,7.759,55.386l6.99-4.036-7.3,6.194,7.161-4.135L7.161,59.123,14.473,54.9l-7.66,5.813,7.493-4.325L6.218,62.856l7.809-4.509-8.27,5.884,8.062-4.655-8.64,6.087,8.4-4.851-9.347,6.97,8.936-5.159-9.1,6.5L12.78,64.1,4.653,70.769l7.354-4.246L5.761,71.88l5.347-3.087L7.1,72.578l2.974-1.718" transform="translate(-0.461 -3.371)" fill="none" stroke="#fffacf" stroke-linecap="round" stroke-linejoin="round" stroke-width="0.7"/>
    <path id="Path_3290" data-name="Path 3290" d="M31.053,18.641l1.57-.907-2.256,3.345,5.305-3.063" transform="translate(-3.441 -2.009)" fill="none" stroke="#fffacf" stroke-linecap="round" stroke-linejoin="round" stroke-width="0.7"/>
    <path id="Path_3291" data-name="Path 3291" d="M9.034,22.325l1.4-.808-1.865,2.9,5.107-2.948L8.954,25.78l7.438-4.293L10.1,26.635,18.986,21.5,11.918,26.8l9.147-5.281-5.929,5.311L24.3,21.536l-7.26,5.309,9.175-5.3-6.847,5.5L33.9,18.659,18.21,28.818,34.385,19.48,19.025,29.651l15.6-9.006-14.285,9.4,5.052-2.917-3.8,3.235,5.049-2.915-3.122,3.425,5.049-2.914L25.2,31.344l5.062-2.923" transform="translate(-0.971 -2.114)" fill="none" stroke="#fffacf" stroke-linecap="round" stroke-linejoin="round" stroke-width="0.7"/>
    <path id="Path_3292" data-name="Path 3292" d="M114.163,72l5.319-3.071-4.09,4.161,5.325-3.074-4.3,4.049,5.355-3.091-4.542,3.9,5.381-3.107-4.2,4.352,5.293-3.056-4.636,3.723,4.9-2.829L120.3,77.418l2.748-1.587" transform="translate(-12.936 -7.81)" fill="none" stroke="#fffacf" stroke-linecap="round" stroke-linejoin="round" stroke-width="0.7"/>
    <path id="Path_3293" data-name="Path 3293" d="M110.681,61.193l1.523-.88-2.5,3.025,4.818-2.782-5.544,4.7,6.687-3.861-7.376,5.329L116,62.272l-8.782,6.289,8.736-5.043-11.3,8.072,10.75-6.207-11.521,7.832,12.3-7.1L104.157,74.6l13.1-7.564L105.2,75.911l7.116-4.108-5.606,4.873,3.4-1.96" transform="translate(-11.77 -6.834)" fill="none" stroke="#fffacf" stroke-linecap="round" stroke-linejoin="round" stroke-width="0.7"/>
    <path id="Path_3294" data-name="Path 3294" d="M96.613,70.814l4.862-2.806-4,3.674,4.85-2.8-4.034,3.752,4.672-2.7-2.871,3.55,1.873-1.081" transform="translate(-10.947 -7.706)" fill="none" stroke="#fffacf" stroke-linecap="round" stroke-linejoin="round" stroke-width="0.7"/>
    <path id="Path_3295" data-name="Path 3295" d="M92.97,61.206l1.479-.854-2.343,2.5,4.112-2.374-4.926,4.2,6.225-3.595-7.6,6.076,8.3-4.793-11.13,8.274,10.795-6.233L85.38,73.147l13.166-7.6-12.7,9.215,13.934-8.045L86.437,75.491l8.181-4.723-7.057,5.546,5.194-3" transform="translate(-9.674 -6.839)" fill="none" stroke="#fffacf" stroke-linecap="round" stroke-linejoin="round" stroke-width="0.7"/>
    <path id="Path_3296" data-name="Path 3296" d="M114.35,46.949l6.468-3.734-3.964,4.242,5.051-2.916-4.886,4.1,5.2-3L117,50.139l5.249-3.031-5.272,4.183,5.261-3.037" transform="translate(-12.957 -4.897)" fill="none" stroke="#fffacf" stroke-linecap="round" stroke-linejoin="round" stroke-width="0.7"/>
    <path id="Path_3297" data-name="Path 3297" d="M108.378,43.484l1.749-1.01-2.7,3.292,5.862-3.384-5.89,4.609,7.95-4.59-7.962,5.883,10.153-5.862-10.167,7.323,12.063-6.964-12.077,8.466,4.9-2.827-4.91,4.39,4.9-2.826L107.415,54.4l4.9-2.827L107.7,55.265l5.175-2.988-4.162,4.095,12.724-7.346-10.593,7.859,10.576-6.107-7.73,6.133,7.714-4.454-5.679,4.473,5.645-3.259-3.663,3.272,3.269-1.888" transform="translate(-12.164 -4.802)" fill="none" stroke="#fffacf" stroke-linecap="round" stroke-linejoin="round" stroke-width="0.7"/>
    <path id="Path_3298" data-name="Path 3298" d="M96.237,46.794l6.212-3.587-4.124,3.9,4.96-2.864L98.644,48.06l4.971-2.87-4.981,3.959,5.072-2.928-5.088,4.706L103.689,48" transform="translate(-10.905 -4.896)" fill="none" stroke="#fffacf" stroke-linecap="round" stroke-linejoin="round" stroke-width="0.7"/>
    <path id="Path_3299" data-name="Path 3299" d="M90.3,43.312,92.044,42.3l-2.638,2.823L94.468,42.2l-5.143,4.034,6.957-4.017-6.975,5.932L99.5,42.268l-10.2,6.95,11.515-6.648-11.53,8.124,4.85-2.8-4.862,4.037,4.835-2.792L89.261,53.09,94.1,50.3l-4.691,4.325,4.941-2.853L90.177,55.9l6.259-3.614L92,56.685l10.876-6.279-7.914,6.327,7.9-4.559-5.505,4.582,5.462-3.153-2.679,3.056,1.748-1.009" transform="translate(-10.114 -4.782)" fill="none" stroke="#fffacf" stroke-linecap="round" stroke-linejoin="round" stroke-width="0.7"/>
    <path id="Path_3300" data-name="Path 3300" d="M75.987,58.115l1.069-.617-1.3,1.835,10.26-5.923-9.779,7.662,9.782-5.647-8.9,6.841,8.727-5.038-7.6,5.762L85.5,58.8l-3.52,3.9,2.043-1.179" transform="translate(-8.584 -6.052)" fill="none" stroke="#fffacf" stroke-linecap="round" stroke-linejoin="round" stroke-width="0.7"/>
    <path id="Path_3301" data-name="Path 3301" d="M115.8,35.058l6.446-3.722-5.046,4.8,6.6-3.811L118.7,37.222,124.8,33.7,119.939,38l4.853-2.8L122.02,38.47l1.451-.838" transform="translate(-13.122 -3.551)" fill="none" stroke="#fffacf" stroke-linecap="round" stroke-linejoin="round" stroke-width="0.7"/>
    <path id="Path_3302" data-name="Path 3302" d="M106.191,25.021l5.314-3.068-4.431,4.23,5.394-3.114-4.393,4.409,5.527-3.19-4.792,4.065,5.613-3.24L110,29.667l5.748-3.318-4.55,4.567,5.919-3.417" transform="translate(-12.033 -2.488)" fill="none" stroke="#fffacf" stroke-linecap="round" stroke-linejoin="round" stroke-width="0.7"/>
    <path id="Path_3303" data-name="Path 3303" d="M85.434,32.629l22.164-12.8L86.075,33.713,108.43,20.806,86.848,35.068,102.9,25.8,87.438,35.824l13.812-7.975L88.495,36.507l9.949-5.744-7.3,5.633,8.731-5.041-4.153,4,6.888-3.977L96.561,36.1l8.142-4.7-5.593,4.99,8.6-4.962-5.572,4.991,14.031-8.1L105.6,36.453l12.184-7.034-8.887,7.065,3.328-1.921-1.04,1.932.9-.52" transform="translate(-9.681 -2.247)" fill="none" stroke="#fffacf" stroke-linecap="round" stroke-linejoin="round" stroke-width="0.7"/>
    <path id="Path_3304" data-name="Path 3304" d="M100.16,19.651l2.054-1.186-3.727,3.387,6.18-3.568L95.1,25.539l11.813-6.82L90.871,29.03l16.912-9.764" transform="translate(-10.297 -2.072)" fill="none" stroke="#fffacf" stroke-linecap="round" stroke-linejoin="round" stroke-width="0.7"/>
    <path id="Path_3305" data-name="Path 3305" d="M76.488,26.749l9.069-5.236L79.63,26.977l6.722-3.88-7.094,5.752,7.107-4.1-7.553,6.077,7.136-4.12-7.69,6.363,7.086-4.091L77.838,34.7l7.026-4.057L77.418,36.22l28.9-16.684L76.937,38.28l6.785-3.917L77.04,39.543,83.169,36l-5.6,5.038,4.808-2.776-4.341,3.613,4.409-2.546-3.615,4.11L83.405,40.8l-3.95,4.311,4.783-2.761-4.4,4.254,5-2.886-4.757,4.552,5.272-3.044-5.2,4.669,5.576-3.219L79.99,51.665l5.985-3.455" transform="translate(-8.667 -2.214)" fill="none" stroke="#fffacf" stroke-linecap="round" stroke-linejoin="round" stroke-width="0.7"/>
    <path id="Path_3306" data-name="Path 3306" d="M69.462,21.865l1.749-1.01-2.7,3.384,6.019-3.474-6.045,5.075,8.746-5.05-8.76,6.572L79.81,20.814,68.458,28.582l13.419-7.748L68.44,30.481l15.788-9.116L68.43,31.6l5.9-3.408-5.917,4.961,5.895-3.4L68.4,34.267l5.895-3.4-5.907,4.714,5.895-3.4-5.905,4.564,5.895-3.4-5.9,4.452,5.894-3.4-5.91,5.036,5.895-3.4-5.914,5.457,5.895-3.4L68.319,43.3l5.895-3.4L68.307,44.5,74.2,41.1,68.3,45.74l5.895-3.4L68.277,47.66l5.895-3.4L68.261,49.4,74.155,46l-5.912,5.392,5.894-3.4-5.906,4.65,5.895-3.4-5.911,5.092,5.895-3.4L68.2,56.083l5.894-3.4-5.91,5.1,5.894-3.4L68.169,59.15l5.894-3.4-5.906,4.7,5.895-3.4-5.908,4.82,5.894-3.4L68.133,63l5.894-3.4-5.912,5.26,5.894-3.4L68.1,66.239,74,62.836l-5.905,4.6,5.894-3.4-5.912,5.383,5.894-3.4L68.321,71.3l5.626-3.248-4.967,4.136,4.955-2.861L70.145,72.69l3.729-2.154" transform="translate(-7.713 -2.353)" fill="none" stroke="#fffacf" stroke-linecap="round" stroke-linejoin="round" stroke-width="0.7"/>
    <path id="Path_3307" data-name="Path 3307" d="M169.57,30.967l10.96-6.328L171.8,30.978,181.987,25.1,173.619,31l9.146-5.281-6.419,5.611,7.229-4.174-6.812,4.992,6.963-4.02-6.954,5.482,6.955-4.015-6.967,5.253,6.954-4.016L176.75,36l6.954-4.015-6.969,5.641,6.954-4.015-6.971,5.743,6.954-4.015L176.7,41.207l6.955-4.016-6.971,5.784,6.954-4.016-6.968,5.427,6.954-4.015-6.972,5.834,6.954-4.016-6.971,5.787,6.955-4.016-6.969,5.423,6.955-4.015-6.967,5.294,6.954-4.015L176.6,51.92l6.955-4.015-6.965,5.084,6.954-4.016-6.973,6,6.954-4.016-6.969,5.519,6.955-4.016-6.968,5.482,6.954-4.016-6.965,5.1,6.955-4.015-7.03,5.756,7.014-4.049" transform="translate(-19.214 -2.792)" fill="none" stroke="#fffacf" stroke-linecap="round" stroke-linejoin="round" stroke-width="0.7"/>
    <path id="Path_3308" data-name="Path 3308" d="M161.71,25.572l1.749-1.01-2.594,2.581,4.648-2.684-4.779,4.776,8.215-4.743-8.231,6.456,11.134-6.428L160.7,32.329l13.488-7.787-13.507,9.764,16.858-9.733L160.676,35.38l6.776-3.912-6.795,5.864,6.544-3.778-6.557,5.183,6.544-3.777-6.555,5.005,6.543-3.778-6.561,5.676,6.543-3.777-6.561,5.59,6.544-3.777-6.562,5.809,6.543-3.778-6.554,4.9,6.543-3.778-6.56,5.556,6.543-3.777-6.562,5.744,6.543-3.777-6.561,5.639,6.543-3.778L160.5,54.369l6.543-3.777-6.555,5.09,6.543-3.777-6.562,5.764,6.543-3.777-6.559,5.537,6.543-3.777-6.554,4.834,6.543-3.777-6.554,4.957,6.543-3.777-6.562,5.778,6.542-3.778-6.473,5.24,6.782-3.916-6.329,5.148,8.148-4.7-6.925,5.91,10.183-5.88-8.524,6.352,18.613-10.747-15.214,10.8,15.194-8.773-12.665,8.8,12.65-7.3-10.325,7.326,10.312-5.954-6.933,5.985,6.914-3.991-4.753,4.011,4.628-2.672-2.59,2.569,1.747-1.009" transform="translate(-18.176 -2.772)" fill="none" stroke="#fffacf" stroke-linecap="round" stroke-linejoin="round" stroke-width="0.7"/>
    <path id="Path_3309" data-name="Path 3309" d="M144.995,62.358l5.411-3.124-4.394,4.426,5.49-3.169-4.457,4.518,5.578-3.22-4.793,4.269,5.654-3.265L148.7,67.242l5.747-3.317-5.013,4.335,5.834-3.368-4.869,4.74,5.948-3.434-5.061,4.627,5.623-3.247-4.8,3.949,4.091-2.362" transform="translate(-16.429 -6.712)" fill="none" stroke="#fffacf" stroke-linecap="round" stroke-linejoin="round" stroke-width="0.7"/>
    <path id="Path_3310" data-name="Path 3310" d="M147.821,51.333l9.155-5.286-6.29,5.3,6.764-3.9L153.9,51.37l3.43-1.98" transform="translate(-16.75 -5.218)" fill="none" stroke="#fffacf" stroke-linecap="round" stroke-linejoin="round" stroke-width="0.7"/>
    <path id="Path_3311" data-name="Path 3311" d="M128.829,45.083l1.536-.887-2.175,2.71,4.856-2.8-4.716,4.524,7.8-4.505-7.4,5.369,9.281-5.358-8.354,6.116L145.851,40.9l-14.34,9.694,14.326-8.271-11.592,8.3,11.6-6.7-9.5,6.716,11.079-6.4L138.258,51.3l12.168-7.025-12.532,9.009,15.322-8.847-15.945,11.24,7.968-4.6-8.8,7.013L144.9,53.2l-9.543,7.33,10.656-6.152-11.491,7.7,12.128-7-14.124,9.946,15.181-8.765L129.538,68.327,142.8,60.669l-14.13,9.7,13.323-7.693L129.052,72.07l11.622-6.71-10.468,8.075,8.489-4.9-6.264,5.594,3.028-1.749" transform="translate(-14.525 -4.634)" fill="none" stroke="#fffacf" stroke-linecap="round" stroke-linejoin="round" stroke-width="0.7"/>
    <path id="Path_3312" data-name="Path 3312" d="M148.52,33.564l7.695-4.442-5.568,4.451,5.724-3.3-2.717,3.3,2.337-1.35" transform="translate(-16.829 -3.3)" fill="none" stroke="#fffacf" stroke-linecap="round" stroke-linejoin="round" stroke-width="0.7"/>
    <path id="Path_3313" data-name="Path 3313" d="M138.029,33.216l10.905-6.3-8.854,7.155,12.308-7.106L140.07,35.737,154.2,27.582,140.059,37.46l6.962-4.02-6.975,5.95L147,35.373l-6.964,5.411,6.951-4.013-6.962,5.3,6.95-4.012" transform="translate(-15.64 -3.05)" fill="none" stroke="#fffacf" stroke-linecap="round" stroke-linejoin="round" stroke-width="0.7"/>
    <path id="Path_3314" data-name="Path 3314" d="M133.926,20.086l1.516-.875L132.911,22.5,138,19.56l-5.585,4.809,6.8-3.926L131.866,26.2l7.849-4.532L131.36,27.7l8.3-4.793-9.244,7.226,8.643-4.989-9.318,6.5,9.832-5.677L128.6,33.853l13.612-7.86-14.057,9.219,15.936-9.2-15.759,10.4,17.981-10.381L128.886,37.246l7.463-4.309-6.774,4.954,6.17-3.563-4.826,4.41,3.779-2.182" transform="translate(-14.521 -2.177)" fill="none" stroke="#fffacf" stroke-linecap="round" stroke-linejoin="round" stroke-width="0.7"/>
    <path id="Path_3315" data-name="Path 3315" d="M199.136,62.789l7.516-4.339L201.834,63.1l5.613-3.241-5.168,4.911,5.308-3.064-5.319,4.331,5.307-3.064-5.32,4.452,5.308-3.064-5.51,4.67,5.5-3.173" transform="translate(-22.564 -6.623)" fill="none" stroke="#fffacf" stroke-linecap="round" stroke-linejoin="round" stroke-width="0.7"/>
    <path id="Path_3316" data-name="Path 3316" d="M192.915,58.408l1.749-1.01-2.689,3.2,5.7-3.293-5.743,5.172,8.906-5.142-8.916,6.205,10.718-6.188-10.734,7.892,13.044-7.532L191.9,66.347l5.3-3.061-5.319,5.065,5.13-2.962-5.145,4.678,5.13-2.962L191.953,72l5.274-3.045-4.966,3.922,5.915-3.415-5.237,4.33,7.553-4.361-6.528,5.043,12.746-7.359L196.5,74.8l10.194-5.886-7.985,5.906,7.972-4.6-5.113,4.629,5.022-2.9-2.632,2.8,1.748-1.008" transform="translate(-21.74 -6.493)" fill="none" stroke="#fffacf" stroke-linecap="round" stroke-linejoin="round" stroke-width="0.7"/>
    <path id="Path_3317" data-name="Path 3317" d="M192.681,48.989l1.374-.794-1.827,2.485,4.375-2.526-4.023,4.106,7.062-4.078-5.5,5.057,8.706-5.026-5.364,5.1,8.229-4.75-5.505,4.776,6.383-3.685-3.264,3.714,3.368-1.945" transform="translate(-21.782 -5.456)" fill="none" stroke="#fffacf" stroke-linecap="round" stroke-linejoin="round" stroke-width="0.7"/>
    <path id="Path_3318" data-name="Path 3318" d="M192.783,39.96l1.392-.8-1.848,2.278,4.029-2.326-3.82,3.917,6.738-3.89-5.709,4.973,8.566-4.946-6.771,5.208,8.979-5.184-7.151,5.2,8.5-4.907-5.656,4.934L206.65,40.6l-4.514,3.841,4.693-2.711-1.967,2.682,1.53-.883" transform="translate(-21.793 -4.431)" fill="none" stroke="#fffacf" stroke-linecap="round" stroke-linejoin="round" stroke-width="0.7"/>
    <path id="Path_3319" data-name="Path 3319" d="M213.528,33.19l.974-.562-.687,2.414,3.284-1.9L214.123,36.5l3.9-2.252-3.678,3.6,4.128-2.384-3.958,3.9,4.151-2.4" transform="translate(-24.195 -3.697)" fill="none" stroke="#fffacf" stroke-linecap="round" stroke-linejoin="round" stroke-width="0.7"/>
    <path id="Path_3320" data-name="Path 3320" d="M218.309,63.791l10.859-6.27L221.416,63.8l7.735-4.465L223.6,64.1l5.533-3.194-5.523,4.462,5.511-3.182-5.5,4.633,5.487-3.167" transform="translate(-24.737 -6.518)" fill="none" stroke="#fffacf" stroke-linecap="round" stroke-linejoin="round" stroke-width="0.7"/>
    <path id="Path_3321" data-name="Path 3321" d="M219.36,55.445l7.633-4.407-4.917,4.422,6.223-3.593-4.633,4.17,5.345-3.086-5.179,4.061,5.427-3.133-5.439,4.359,5.488-3.168" transform="translate(-24.856 -5.783)" fill="none" stroke="#fffacf" stroke-linecap="round" stroke-linejoin="round" stroke-width="0.7"/>
    <path id="Path_3322" data-name="Path 3322" d="M246.839,68.073l1.076-.622L246.035,69.9l3.173-1.832-3.566,3.484,4.273-2.467" transform="translate(-27.834 -7.643)" fill="none" stroke="#fffacf" stroke-linecap="round" stroke-linejoin="round" stroke-width="0.7"/>
    <path id="Path_3323" data-name="Path 3323" d="M236.884,73.655l5.111-2.951-4.734,3.881,5.229-3.019-4.719,4.077,5.591-3.228-4.829,4.478,10.609-6.125-9.565,7.371L249,72.7l-8.322,6.324,7.9-4.559-6.029,5.36,5.029-2.9-3.434,3.059,2.3-1.328" transform="translate(-26.841 -8.012)" fill="none" stroke="#fffacf" stroke-linecap="round" stroke-linejoin="round" stroke-width="0.7"/>
    <path id="Path_3324" data-name="Path 3324" d="M213.172,51.8l1.747-1.009-2.708,3.517,6.247-3.606-6.264,4.9,8.446-4.876L212.18,57.1l11-6.349-11.006,7.493,12.918-7.458L212.15,60.27l5.089-2.938L212.134,62l6.194-3.576-6.211,5.449,9.411-5.434L212.1,65.129l16.378-9.456L212.093,66.3l5.072-2.929-5,4.583,5.005-2.891-4.488,4.218,5.413-3.126L213.7,70.3l7.061-4.077L215.9,70.881l12.5-7.216-9.535,7.243,9.519-5.495L221.9,70.937l6.468-3.735-3.776,3.76,3.76-2.171-2.6,2.765,14.7-8.486-16.693,11,15.261-8.811L224.562,75.576l14.192-8.195L225.838,76.59l6.663-3.847" transform="translate(-24.032 -5.745)" fill="none" stroke="#fffacf" stroke-linecap="round" stroke-linejoin="round" stroke-width="0.7"/>
    <path id="Path_3325" data-name="Path 3325" d="M242.979,52.707l1.3-.749L241.8,55.122l4.492-2.593-5.25,4.239,6.113-3.53" transform="translate(-27.313 -5.887)" fill="none" stroke="#fffacf" stroke-linecap="round" stroke-linejoin="round" stroke-width="0.7"/>
    <path id="Path_3326" data-name="Path 3326" d="M240.1,47.255l8.315-4.8-5.691,4.8,6.309-3.642-4.344,3.644,4.424-2.555-2.539,2.55,2.289-1.321" transform="translate(-27.206 -4.81)" fill="none" stroke="#fffacf" stroke-linecap="round" stroke-linejoin="round" stroke-width="0.7"/>
    <path id="Path_3327" data-name="Path 3327" d="M239.857,25.91l2.031-1.172-1.451,2.138,4.159-2.4-3.7,3.2,4.6-2.655-3.829,4.116,4.757-2.746-4.356,3.574,4.793-2.767-4.271,3.933,4.847-2.8-4.436,3.791,4.894-2.825-4.542,3.776,4.947-2.856-4.454,4.188,4.993-2.883-3.8,3.913,4.121-2.379" transform="translate(-27.178 -2.773)" fill="none" stroke="#fffacf" stroke-linecap="round" stroke-linejoin="round" stroke-width="0.7"/>
    <path id="Path_3328" data-name="Path 3328" d="M234,20.424l1.43-.826-1.989,2.231,3.8-2.2-3.877,4.254,5.41-3.123L233.351,25.6l5.711-3.3-5.718,4.676,5.741-3.314-5.748,5.285,5.691-3.286-5.693,4.355L239,26.744l-5.667,5.212,5.629-3.25-5.623,4.644,5.6-3.235-5.6,4.452,5.583-3.223-5.568,5.1,5.554-3.206-5.534,5,5.532-3.194" transform="translate(-26.439 -2.221)" fill="none" stroke="#fffacf" stroke-linecap="round" stroke-linejoin="round" stroke-width="0.7"/>
    <path id="Path_3329" data-name="Path 3329" d="M210.307,42.026l1.412-.815-1.894,2.983,7.83-4.521L210.4,45.809l8-4.616-6.642,5.335,9.211-5.317-6.442,5.407,9.331-5.388-6.874,5.411,9.293-5.365-6,5.4,9.363-5.405L223.169,46.7l13.1-7.561-11.09,7.58L236.29,40.3l-8.139,6.445,9.293-5.365-6.621,5.759,9.92-5.728-9.81,7.511,12.846-7.417-12.774,8.987,5.37-3.1-5.3,4.495,5.338-3.082-5.233,4.8,5.3-3.062-5.2,4.492,5.276-3.047-5.169,4.392,5.251-3.032-5.114,4.537,5.216-3.011-5.063,4.471,5.172-2.986-4.948,4.833,12.2-7.042-11.923,8.892,10.748-6.206L230.46,65.7l11.21-6.472" transform="translate(-23.775 -4.435)" fill="none" stroke="#fffacf" stroke-linecap="round" stroke-linejoin="round" stroke-width="0.7"/>
    <path id="Path_3330" data-name="Path 3330" d="M225.106,31.21l6.024-3.478-3.144,3.487,3.181-1.836" transform="translate(-25.507 -3.142)" fill="none" stroke="#fffacf" stroke-linecap="round" stroke-linejoin="round" stroke-width="0.7"/>
    <path id="Path_3331" data-name="Path 3331" d="M211.727,26.257l1.362-.786-1.806,2.5,4.442-2.565-4.065,4.148,12.017-6.938-11.285,7.612L223.7,23.7l-9.572,6.82,9.586-5.534-7.173,5.557,8.7-5.02-5.961,5.046,8.595-4.962-6.5,4.982,7.662-4.424-6.212,5.349L224,30.83,222.623,33.4l3.755-2.168-4.1,4.4,5.466-3.156-5.826,5.3,5.72-3.3-4.567,4.458,4.023-2.322-2.695,2.62,2.359-1.362" transform="translate(-23.941 -2.562)" fill="none" stroke="#fffacf" stroke-linecap="round" stroke-linejoin="round" stroke-width="0.7"/>
    <path id="Path_3332" data-name="Path 3332" d="M218.878,20.349l1.507-.87-2.09,2.443,4.171-2.408-4.215,4.162,5.66-3.267-5.67,4.45,6.1-3.522" transform="translate(-24.729 -2.207)" fill="none" stroke="#fffacf" stroke-linecap="round" stroke-linejoin="round" stroke-width="0.7"/>
    <path id="Path_3333" data-name="Path 3333" d="M190.4,30.788l1.422-.821-1.9,3.141,5.509-3.181-5.015,4.552,7.838-4.526L191.968,35.3l9.207-5.315-6.009,5.391,9.285-5.36-6.917,5.382,9-5.193-6.814,5.215,7.816-4.512-4.779,4.541,5.275-3.046-3.021,3.067,2.9-1.673" transform="translate(-21.52 -3.391)" fill="none" stroke="#fffacf" stroke-linecap="round" stroke-linejoin="round" stroke-width="0.7"/>
    <path id="Path_3334" data-name="Path 3334" d="M193.283,21.947l1.391-.8-1.846,2.891,5.074-2.93-4.658,4.274,7.359-4.248-6.126,5.051,8.706-5.027-6.818,5.15,8.776-5.067-5.557,5.1,7.069-4.081-5.164,4.1,5.456-3.15-2.822,3.174,2.722-1.572" transform="translate(-21.849 -2.392)" fill="none" stroke="#fffacf" stroke-linecap="round" stroke-linejoin="round" stroke-width="0.7"/>
    <path id="Path_3335" data-name="Path 3335" d="M263.569,72.505l5.19-3-4.257,4.04,5.517-3.184-4.56,4.128,5.929-3.424-5.176,4.059,6.273-3.621-5.342,4.3,6.7-3.87L268.459,76.6l7.322-4.228-6.209,4.765,7.851-4.533-6.239,5.151,8.606-4.968-6.358,5.581,9.449-5.455L275.6,78.751l9.989-5.767L277.853,79,288.2,73.026l-7.984,6.1,10.549-6.091-7.6,6.19,10.762-6.213-7.581,6.28,11-6.349-8.075,6.378,11.218-6.477-9.259,6.482,11.373-6.566-8.074,6.551,10.873-6.278-8.627,6.253,9.37-5.41-6.413,5.363,6.421-3.707-2.713,3.539,1.647-.951" transform="translate(-29.865 -7.876)" fill="none" stroke="#fffacf" stroke-linecap="round" stroke-linejoin="round" stroke-width="0.7"/>
    <path id="Path_3336" data-name="Path 3336" d="M252.839,50.415l1.525-.88-2.144,2.6,4.655-2.688-4.605,4.083,7.032-4.06-6.318,5.54,9.513-5.492-8.091,6.205,9.7-5.6L257.651,55.9l7.389-4.266L258.589,57.4l6.537-3.774-6.549,5.093,6.537-3.775-6.553,5.475,6.538-3.775-6.549,4.918,6.538-3.775-6.554,5.38,6.539-3.776-6.553,5.322,6.54-3.776L252.8,69.41l12.248-7.071L252.126,71l12.911-7.454-12.705,9.058,13.048-7.533-12.438,8.873,13.388-7.729-12.591,8.714L267.295,67.1l-11.653,8.269,2.28-1.316" transform="translate(-28.568 -5.603)" fill="none" stroke="#fffacf" stroke-linecap="round" stroke-linejoin="round" stroke-width="0.7"/>
    <path id="Path_3337" data-name="Path 3337" d="M255.28,35.153l1.757-1.015-2.827,2.78,4.494-2.594L254.4,38.162,259.882,35l-4.537,4.309,5.915-3.416-4.509,4.452,5.941-3.43-4.819,4.3,5.928-3.423-4.617,4.546,5.737-3.313-4.995,3.96,5.272-3.044-3.841,3.69,3.118-1.8" transform="translate(-28.805 -3.868)" fill="none" stroke="#fffacf" stroke-linecap="round" stroke-linejoin="round" stroke-width="0.7"/>
    <path id="Path_3338" data-name="Path 3338" d="M297.763,65.154l1.394-.8-1.5,2.82,10.88-6.281-10.426,7.3,10.413-6.012-9.367,6.9,9.348-5.4-8,5.76,7.937-4.582-3.851,4.242,3.025-1.747" transform="translate(-33.727 -6.899)" fill="none" stroke="#fffacf" stroke-linecap="round" stroke-linejoin="round" stroke-width="0.7"/>
    <path id="Path_3339" data-name="Path 3339" d="M295.1,59.555l13.222-7.634L298.1,59.561,308.3,53.667l-8.121,5.9,8.111-4.683-6.6,5.1,6.588-3.8-6.574,5.249,6.56-3.787-6.636,5.1,6.624-3.824" transform="translate(-33.438 -5.883)" fill="none" stroke="#fffacf" stroke-linecap="round" stroke-linejoin="round" stroke-width="0.7"/>
    <path id="Path_3340" data-name="Path 3340" d="M295.327,50.163l13.1-7.561-10.474,7.565,10.46-6.039-8.518,6.054,8.508-4.911L301.738,50.2l6.65-3.839-6.585,5.57,6.569-3.792-6.56,5.241,6.546-3.78" transform="translate(-33.464 -4.827)" fill="none" stroke="#fffacf" stroke-linecap="round" stroke-linejoin="round" stroke-width="0.7"/>
    <path id="Path_3341" data-name="Path 3341" d="M280.644,59.341l12.591-7.269L282.89,59.345l10.352-5.977-8.513,5.98,8.52-4.919-6.19,5.48,9.364-5.407-9.364,6.466,11.181-6.455L287.06,62.434,306.689,51.1,287.06,63.665l6.084-3.513-6.084,4.666,6.073-3.506-5.859,5,5.843-3.374-4.893,4.544,4.877-2.816-2.4,3.224,1.969-1.137" transform="translate(-31.8 -5.79)" fill="none" stroke="#fffacf" stroke-linecap="round" stroke-linejoin="round" stroke-width="0.7"/>
    <path id="Path_3342" data-name="Path 3342" d="M295.4,41.467,303.84,36.6l-6.577,4.88,8.384-4.84L300.7,41.508l6.89-3.978-5.714,5,6.436-3.715-6.405,5.071,6.545-3.778" transform="translate(-33.472 -4.147)" fill="none" stroke="#fffacf" stroke-linecap="round" stroke-linejoin="round" stroke-width="0.7"/>
    <path id="Path_3343" data-name="Path 3343" d="M280.873,49.956l12.459-7.193-9.2,7.2,9.215-5.321-6.184,5.514,8.393-4.845-8.384,6.341,10.959-6.327-10.949,7.845L306.8,41.845" transform="translate(-31.826 -4.741)" fill="none" stroke="#fffacf" stroke-linecap="round" stroke-linejoin="round" stroke-width="0.7"/>
    <path id="Path_3344" data-name="Path 3344" d="M281.953,40.351l21.613-12.478-18.748,12.5,12.2-7.046-9.657,7.448,10.746-6.205-10.737,7.5,11.918-6.882-11.908,8.271L301,35.594" transform="translate(-31.948 -3.158)" fill="none" stroke="#fffacf" stroke-linecap="round" stroke-linejoin="round" stroke-width="0.7"/>
    <path id="Path_3345" data-name="Path 3345" d="M274.215,36.359l1.748-1.009L273.3,38.344l5.361-3.1-5.419,4.929,8.5-4.907-8.51,6.01,10.387-6-10.4,7.3L285.826,35.3,273.2,44l30.09-17.373L273.185,45.618l6.433-3.713-6.444,4.95,6.468-3.734-6.485,5.506,8.936-5.16-8.953,6.943,12-6.926-12.016,8.971,6.432-3.713L273.1,54.4l6.463-3.732-6.48,5.563,8.026-4.634-8.037,5.7,9.864-5.694-9.88,7.5,12.954-7.478-12.969,9.064,6.425-3.71-6.432,5.256,6.417-3.7-6.025,5.4,6.006-3.468-4.494,4.626,4.458-2.575-2.13,2.654,1.516-.875" transform="translate(-30.938 -3.018)" fill="none" stroke="#fffacf" stroke-linecap="round" stroke-linejoin="round" stroke-width="0.7"/>
    <path id="Path_3346" data-name="Path 3346" d="M282,29.43l1.963-1.133-2.918,2.921,4.679-2.7-3.744,3.89,5.492-3.171-3.656,4.029,5.578-3.221-4.022,3.931,18.939-10.935L287.057,34.774l17.737-10.24" transform="translate(-31.846 -2.611)" fill="none" stroke="#fffacf" stroke-linecap="round" stroke-linejoin="round" stroke-width="0.7"/>
    <path id="Path_3347" data-name="Path 3347" d="M274.483,22.87l1.383-.8-1.806,3.086,5.4-3.118-4.834,4.448,7.657-4.421-5.858,5.1,8.784-5.071L279.691,27.2l8.8-5.078-6.427,5.1,8.794-5.078-6.613,5.1,8.8-5.077-5.759,5.106,8.8-5.078-6.541,5.1,8.8-5.078L292.6,27.323l8.784-5.071-6.9,5.089,8.361-4.827" transform="translate(-31.054 -2.497)" fill="none" stroke="#fffacf" stroke-linecap="round" stroke-linejoin="round" stroke-width="0.7"/>
    <path id="Path_3348" data-name="Path 3348" d="M257.6,22.089l1.837-1.06-2.86,3.476,5.168-2.983-4.5,4.185,5.746-3.317-4.7,4.226,5.854-3.379-4.972,4.083,5.889-3.4-4.541,4.51,5.865-3.386L261.294,29.1l5.719-3.3-4.646,4.228,5.084-2.936-4.014,3.421,3.607-2.083" transform="translate(-29.073 -2.383)" fill="none" stroke="#fffacf" stroke-linecap="round" stroke-linejoin="round" stroke-width="0.7"/>
  </g>
</svg>
