<?xml version="1.0" encoding="utf-8"?>
<!-- Generator: Adobe Illustrator 26.0.1, SVG Export Plug-In . SVG Version: 6.00 Build 0)  -->
<svg version="1.1" id="圖層_1" xmlns="http://www.w3.org/2000/svg" xmlns:xlink="http://www.w3.org/1999/xlink" x="0px" y="0px"
	 viewBox="0 0 209.1 196" style="enable-background:new 0 0 209.1 196;" xml:space="preserve">
<style type="text/css">
	.st0{clip-path:url(#SVGID_00000128453796628360525850000007896370408110618792_);}
	.st1{fill:#00C94D;}
	.st2{fill:#FFFFFF;}
</style>
<g>
	<defs>
		<rect id="SVGID_1_" x="33.3" y="53.5" width="143.1" height="122.6"/>
	</defs>
	<clipPath id="SVGID_00000024691398022062793500000007077899324068631431_">
		<use xlink:href="#SVGID_1_"  style="overflow:visible;"/>
	</clipPath>
	<g style="clip-path:url(#SVGID_00000024691398022062793500000007077899324068631431_);">
		<g id="Group_750">
			<path id="Path_5395" class="st1" d="M150.1,101.7c0,25.3-20.5,45.8-45.8,45.8c-25.3,0-45.8-20.5-45.8-45.8
				c0-25.3,20.5-45.8,45.8-45.8c0,0,0,0,0,0C129.6,55.9,150.1,76.4,150.1,101.7L150.1,101.7"/>
			<path id="Path_5396" class="st2" d="M104.3,149.8c-26.6,0-48.1-21.5-48.1-48.1s21.5-48.1,48.1-48.1s48.1,21.5,48.1,48.1
				S130.9,149.8,104.3,149.8L104.3,149.8 M104.3,58.2c-24,0-43.4,19.4-43.4,43.4s19.4,43.4,43.4,43.4s43.4-19.4,43.4-43.4
				S128.3,58.2,104.3,58.2"/>
			<path id="Path_5397" class="st2" d="M86.6,76.7h19.2c12.7,0,22.2,4.1,22.2,16.6c0,12-9.8,17.5-21.8,17.5h-7.5v16.8H86.6V76.7z
				 M105.6,101.1c7.1,0,10.7-2.7,10.7-7.9s-4.1-7-11-7h-6.5v14.9H105.6z"/>
			<path id="Path_5398" class="st2" d="M84.7,168c0.2-0.4,0.4-0.8,0.4-1.3v-3.3c0-0.3-0.1-0.7-0.2-1c0.7-0.4,1.2-1.2,1.2-2v-3.3
				c0-1.3-1.1-2.4-2.3-2.4c0,0,0,0,0,0H73.3c-0.8,0-1.5,0.4-1.9,1c-0.4-0.6-1.1-1-1.9-1h-3.8c-1.3,0-2.3,1.1-2.3,2.4l0,0v0.5
				l-0.8-1.7c-0.4-0.8-1.2-1.3-2.1-1.3h-4c-0.8,0-1.5,0.4-1.9,1c-0.4-0.6-1.1-1-1.9-1h-3.9c-1.3,0-2.3,1.1-2.3,2.4l0,0v10.8
				c-0.2,0-0.3,0-0.5-0.1h-4v-10.8c0-1.3-1-2.3-2.3-2.3h-4c-1.3,0-2.3,1.1-2.3,2.3l0,0v16.4c0,1.3,1.1,2.4,2.3,2.4h0H46
				c0.5,0,1-0.2,1.4-0.5c0.4,0.3,0.9,0.5,1.4,0.5h3.9c0.8,0,1.5-0.4,1.9-1c0.4,0.6,1.1,1,1.9,1h3.7c1.3,0,2.3-1.1,2.3-2.4l0,0v-0.5
				l0.8,1.6c0.4,0.8,1.2,1.3,2.1,1.3h4c0.8,0,1.5-0.4,1.9-1c0.4,0.6,1.1,1,1.9,1h10.6c1.3,0,2.3-1,2.4-2.3c0,0,0,0,0-0.1v-3.3
				C86.3,169.2,85.7,168.3,84.7,168"/>
			<path id="Path_5399" class="st2" d="M173.4,162.9L173.4,162.9l2-2.5c0.7-0.9,0.7-2.3-0.2-3.1c-1.9-1.8-4.4-2.9-7-2.9
				c-1.9,0-3.8,0.5-5.3,1.6c-0.4-0.8-1.2-1.3-2.1-1.4h-12.8c-0.5,0-0.9,0.1-1.3,0.4c-0.4-0.2-0.8-0.4-1.3-0.4h-3.8
				c-1.3,0-2.3,1-2.3,2.3v0.5l-0.8-1.6c-0.4-0.8-1.2-1.3-2.1-1.3h-4c-0.8,0-1.5,0.4-1.9,1c-0.4-0.6-1.1-1-1.9-1h-3.9
				c-1.3,0-2.3,1-2.3,2.3v1.8c-3.1-4.5-9.2-5.8-13.8-2.7c-1,0.7-1.9,1.5-2.6,2.5c-1.3-2.5-4.1-3.9-8-3.9h-5.8c-1.3,0-2.3,1-2.3,2.3
				l0,0v16.4c0,1.3,1,2.3,2.3,2.4h3.9c1.3,0,2.3-1.1,2.3-2.4l0,0v-3.1c2.2,0,4.3-0.8,6-2.3c1,4.9,4.6,8,9.6,8
				c3.3,0.1,6.5-1.6,8.2-4.5v1.8c0,1.3,1,2.3,2.3,2.4h4c0.8,0,1.5-0.4,1.9-1c0.4,0.6,1.1,1,1.9,1h3.7c1.3,0,2.4-1.1,2.4-2.3v0v-0.5
				l0.8,1.6c0.4,0.8,1.2,1.3,2.1,1.3h4c1.3,0,2.3-1,2.3-2.3v-10.8h0.2h2.1v10.8c0,1.3,1.1,2.3,2.4,2.3h4c1.3,0,2.3-1,2.3-2.3v-10.8
				h1.4c0.2,1.7,1,3.2,2.3,4.3l-0.2,0.2l-2.2,2.7c-0.8,1-0.7,2.4,0.2,3.2c2.1,1.9,4.9,3,7.7,3c5.6,0,8.6-3.8,8.6-7.5
				C176.4,166.4,175.3,164.2,173.4,162.9"/>
			<path id="Path_5400" class="st1" d="M35.6,157.1h3.9v13.1H46v3.3H35.6V157.1z"/>
			<rect id="Rectangle_553" x="48.8" y="157.1" class="st1" width="3.9" height="16.4"/>
			<path id="Path_5401" class="st1" d="M56.5,157.1h4l4.1,7.9l1.6,3.6h0.1c-0.3-2-0.5-4-0.5-6.1v-5.4h3.7v16.4h-4l-4-7.9l-1.7-3.6
				h-0.1c0.2,1.8,0.5,4.1,0.5,6v5.4h-3.7V157.1z"/>
			<path id="Path_5402" class="st1" d="M73.3,157.1h10.4v3.3h-6.4v3h5.5v3.3h-5.5v3.5h6.7v3.3H73.3V157.1z"/>
			<path id="Path_5403" class="st1" d="M92.2,157.1H98c3.6,0,6.6,1.3,6.6,5.4s-3,5.6-6.5,5.6h-1.9v5.4h-3.9V157.1z M97.9,164.9
				c1.9,0,2.8-0.9,2.8-2.5s-1.1-2.2-3-2.2h-1.6v4.7H97.9z"/>
			<path id="Path_5404" class="st1" d="M106.6,165.2c0-5.4,3-8.4,7.5-8.4s7.5,3.1,7.5,8.4s-3,8.6-7.5,8.6S106.6,170.6,106.6,165.2
				 M117.6,165.2c0-3.2-1.3-5-3.5-5s-3.5,1.9-3.5,5s1.3,5.2,3.5,5.2S117.6,168.4,117.6,165.2"/>
			<rect id="Rectangle_554" x="124.6" y="157.1" class="st1" width="3.9" height="16.4"/>
			<path id="Path_5405" class="st1" d="M132.3,157.1h4l4.1,7.9l1.6,3.6h0.1c-0.3-2-0.5-4-0.5-6.1v-5.4h3.8v16.4h-4l-4-7.9l-1.6-3.6
				h-0.1c0.2,1.8,0.5,4.1,0.5,6v5.4h-3.8V157.1z"/>
			<path id="Path_5406" class="st1" d="M152.3,160.3h-4.4v-3.3h12.8v3.3h-4.4v13.1h-4V160.3z"/>
			<path id="Path_5407" class="st1" d="M161.6,171.4l2.2-2.7c1.1,1,2.5,1.6,4,1.7c1.4,0,2.1-0.6,2.1-1.4s-0.9-1.3-2.3-1.9l-2.1-0.9
				c-2-0.6-3.3-2.4-3.3-4.5c0-2.8,2.5-5,5.9-5c2,0,3.9,0.8,5.3,2.1l-2,2.5c-0.9-0.8-2.1-1.2-3.4-1.2c-1.2,0-1.9,0.5-1.9,1.3
				s1,1.3,2.5,1.9l2,0.8c2,0.6,3.3,2.4,3.2,4.5c0,2.7-2.3,5.1-6.2,5.1C165.4,173.7,163.3,172.9,161.6,171.4"/>
		</g>
	</g>
</g>
</svg>
