<?xml version="1.0" encoding="utf-8"?>
<!-- Generator: Adobe Illustrator 26.0.1, SVG Export Plug-In . SVG Version: 6.00 Build 0)  -->
<svg version="1.1" id="圖層_1" xmlns="http://www.w3.org/2000/svg" xmlns:xlink="http://www.w3.org/1999/xlink" x="0px" y="0px"
	 viewBox="0 0 209.1 196" style="enable-background:new 0 0 209.1 196;" xml:space="preserve">
<style type="text/css">
	.st0{fill:#FFFFFF;}
	.st1{fill:#DA1E24;}
	.st2{fill:#DB1D24;}
</style>
<g id="圖層_2_00000018230928678688434940000013765429793077905077_">
	<path class="st0" d="M201.6,138.1L23.9,161.9c-2.2,0.3-4.2-1.2-4.5-3.4L8.9,79.8c-0.3-2.2,1.2-4.2,3.4-4.5L190,51.6
		c2.2-0.3,4.2,1.2,4.5,3.4l10.5,78.6C205.3,135.8,203.8,137.8,201.6,138.1z"/>
	<path class="st1" d="M201.7,139.1L24.1,162.9c-2.8,0.4-5.3-1.6-5.7-4.4L7.8,80c-0.4-2.8,1.6-5.3,4.4-5.7l177.7-23.8
		c2.8-0.4,5.3,1.6,5.7,4.3l10.5,78.6C206.5,136.2,204.5,138.8,201.7,139.1z M12.5,76.4c-1.6,0.2-2.7,1.7-2.5,3.3l10.5,78.6
		c0.2,1.6,1.7,2.7,3.3,2.5L201.5,137c1.6-0.2,2.7-1.7,2.5-3.3l-10.5-78.6c-0.2-1.6-1.7-2.7-3.3-2.5c0,0,0,0,0,0L12.5,76.4z"/>
	<path class="st1" d="M102.2,84.4L90.5,86l-0.1,3.8l1.5-0.4c0.4-0.1,0.9-0.2,1.4-0.2c1.6-0.2,3.3-0.1,4.9,0.3c1.5,0.4,2.9,1.1,4.1,2
		c1.2,0.9,2.2,2.1,3,3.4c0.8,1.4,1.3,3,1.6,4.7c0.2,1.7,0.1,3.4-0.3,5.1c-0.5,1.5-1.3,2.9-2.3,4.1c-1.2,1.3-2.6,2.3-4.2,3
		c-1.8,0.8-3.8,1.4-5.8,1.6c-2,0.3-3.9,0.3-5.9,0c-1.9-0.2-3.8-0.8-5.5-1.6l0.2-8.4c1.5,1,3.2,1.8,5,2.3c1.5,0.5,3,0.6,4.6,0.4
		c1.6-0.1,3-0.8,4.1-2c0.9-1.1,1.3-2.5,1-3.9c-0.2-1.6-1.2-3-2.6-3.8c-1.8-0.9-3.8-1.2-5.7-0.8c-1.1,0.1-2.1,0.4-3.1,0.8
		c-1.1,0.4-2.1,0.9-3,1.5l0.4-18.6l17.7-2.4L102.2,84.4z"/>
	<path class="st1" d="M109.8,93c-0.4-2.5-0.3-5,0.1-7.5c0.4-2.1,1.1-4.2,2.2-6c1-1.7,2.4-3.1,4-4.2c1.7-1.1,3.7-1.8,5.7-2
		c4-0.6,8.1,0.7,11,3.5c1.5,1.5,2.8,3.3,3.7,5.2c2.1,4.6,2.8,9.7,2,14.7c-0.4,2.1-1.1,4.2-2.2,6c-1,1.7-2.4,3.1-4,4.2
		c-5.2,3.5-12.1,2.9-16.6-1.5c-1.6-1.5-2.9-3.2-3.8-5.2C110.8,98,110.1,95.5,109.8,93z M118.5,91.9c0.2,1.4,0.5,2.7,1,4
		c0.4,1.1,0.9,2.1,1.6,3c0.5,0.8,1.2,1.4,2,1.9c1.5,0.8,3.4,0.6,4.7-0.6c0.7-0.6,1.2-1.4,1.5-2.3c0.4-1.1,0.6-2.2,0.7-3.3
		c0.1-1.4,0.1-2.8-0.1-4.1c-0.2-1.4-0.5-2.7-1-4c-0.4-1.1-0.9-2.1-1.6-3c-0.5-0.8-1.2-1.4-2-1.8c-1.5-0.8-3.4-0.6-4.7,0.6
		c-0.7,0.6-1.2,1.4-1.5,2.3c-0.4,1.1-0.6,2.2-0.7,3.3C118.2,89.2,118.3,90.5,118.5,91.9z"/>
	<path class="st1" d="M140.3,88.9c-0.4-2.5-0.3-5,0.1-7.5c0.4-2.1,1.1-4.2,2.2-6c1-1.7,2.4-3.1,4.1-4.2c5.2-3.4,12.1-2.8,16.6,1.5
		c1.6,1.5,2.8,3.3,3.7,5.2c2.1,4.6,2.8,9.7,2,14.7c-0.4,2.1-1.1,4.2-2.2,6c-3.3,5.3-9.7,7.7-15.6,5.8c-1.9-0.6-3.6-1.6-5-3
		c-1.6-1.5-2.8-3.3-3.7-5.3C141.3,93.9,140.6,91.4,140.3,88.9z M149,87.8c0.2,1.4,0.5,2.7,0.9,4c0.4,1.1,0.9,2.1,1.6,3
		c0.5,0.8,1.2,1.4,2.1,1.8c1.5,0.8,3.4,0.6,4.6-0.6c0.7-0.7,1.2-1.4,1.5-2.3c0.4-1.1,0.6-2.2,0.7-3.3c0.1-1.4,0.1-2.8-0.1-4.1
		c-0.2-1.4-0.5-2.7-0.9-4c-0.4-1.1-0.9-2.1-1.6-3c-0.5-0.8-1.2-1.4-2.1-1.8c-0.7-0.4-1.6-0.6-2.4-0.4c-0.8,0.1-1.6,0.5-2.2,1.1
		c-0.7,0.6-1.2,1.4-1.5,2.3c-0.4,1.1-0.6,2.2-0.7,3.3C148.8,85,148.8,86.4,149,87.8z"/>
	<path class="st1" d="M60.5,81.1l0.8,5.9c2.2,0,4.3,0.5,6.2,1.6c2,1.3,3.7,2.9,5.1,4.9l-5.4,4.1c-2.2-3-4.7-4.3-7.6-3.9
		c-1.6,0.2-3.1,0.9-4.2,2.2c-1,1.1-1.5,2.7-1.3,4.2c0.1,1.3,0.8,2.6,1.9,3.4c1.9,1.2,3.9,2,6.1,2.5c2.2,0.6,4.4,1.4,6.5,2.3
		c1.4,0.6,2.8,1.4,4,2.3c2.6,2.1,4.2,5.2,4.5,8.5c0.5,3.3-0.2,6.6-1.9,9.5c-1.7,2.9-4.3,5.1-7.4,6.3l0.8,6.3l-5.3,0.7l-0.8-6.1
		c-4-0.1-7.2-1.1-9.6-2.9c-2.3-1.8-4.3-4.8-5.9-9l6.5-2.3c1.3,2.9,2.7,5,4.2,6.1c1.7,1.1,3.7,1.5,5.7,1.1c2.1-0.2,4-1.3,5.3-2.9
		c1.3-1.6,1.8-3.7,1.5-5.8c-0.2-1.8-1.1-3.5-2.5-4.6c-0.9-0.6-1.9-1.2-3-1.6c-1.6-0.7-3.3-1.3-5-1.8c-4.1-1.2-6.9-2.5-8.3-3.8
		c-3.3-2.9-4.7-7.4-3.8-11.6c0.3-1.3,0.8-2.5,1.6-3.7c0.8-1.2,1.8-2.2,2.9-3.1c1.3-1,2.6-1.8,4.1-2.3l-0.8-5.9L60.5,81.1z"/>
	<path class="st2" d="M92.2,131.7c1.5,1.7,2.8,3.6,4,5.6l-1.8,1.3c-0.3-0.6-0.7-1.3-1.2-2.1c-5.5,2.7-6.3,3.1-6.8,3.6
		c-0.3-0.8-0.7-1.5-1.2-2.1c0.6-0.4,0.9-1,0.8-1.7l-2.1-15.9l9.3-1.2l1.5,11.2l-7.1,1l0.7,5.2l3.7-1.7c-0.5-0.7-1-1.4-1.5-2
		L92.2,131.7z M86.4,122.1l0.3,2.6l4.9-0.6l-0.3-2.6L86.4,122.1z M92.3,128.7l-0.4-2.7l-4.9,0.7l0.4,2.7L92.3,128.7z M104.7,131.4
		c0.1,1.1,0,1.7-0.6,2.1c-1,0.5-2.2,0.8-3.3,0.9c-0.2-0.7-0.5-1.4-0.9-2c1-0.1,2-0.2,2.3-0.3s0.4-0.2,0.4-0.5l-1.5-11.3l-3.6,0.5
		l2.4,18.2l-2.2,0.3L95,119.1l7.9-1.1L104.7,131.4z"/>
	<path class="st2" d="M129.2,130.6l-9.3,1.2l0.3,2.3c0.2,1.1-0.1,1.7-1,2.1c-1.4,0.4-2.9,0.7-4.4,0.8c-0.3-0.6-0.6-1.2-1-1.7
		c1.5-0.1,3.2-0.4,3.6-0.4s0.6-0.2,0.5-0.5l-0.3-2.2l-9.2,1.2l-0.2-1.9l9.2-1.2l-0.2-1.2l0,0l0,0c1.3-0.5,2.6-1,3.8-1.7l-11,1.5
		l-0.2-1.7l13.9-1.9l0,0l0.6-0.1l0.5-0.2l1.6,1.1c-2.1,1.5-4.3,2.7-6.7,3.6v0.3l9.3-1.2L129.2,130.6z M127.1,117.3l-20.2,2.7
		l-0.2-1.9l9-1.2c-0.3-0.5-0.6-1.1-0.9-1.6l2.2-0.7c0.4,0.6,0.8,1.3,1.2,1.9l8.8-1.2L127.1,117.3z M110.5,125.8l-0.7-4.9l14.7-2
		l0.7,4.9L110.5,125.8z M112.5,124l10.3-1.4l-0.2-1.8l-10.3,1.4L112.5,124z"/>
	<path class="st2" d="M146.1,120.9c2,1.4,4.3,2.3,6.7,2.5c-0.5,0.6-0.9,1.3-1.2,2c-1.2-0.2-2.4-0.5-3.5-1c0.3,4.5,0.3,6.4-0.3,7.2
		c-0.4,0.5-0.9,0.9-1.6,1c-1,0.2-2.1,0.3-3.1,0.4c-0.1-0.7-0.4-1.4-0.9-2c0.9,0,1.8-0.1,2.7-0.2c0.3,0,0.6-0.1,0.8-0.3
		c0.3-0.4,0.4-1.8,0.2-4.9l-5.2,0.7c-0.2,3.5-1.4,6.1-6.2,8.1c-0.4-0.6-0.9-1.2-1.5-1.7c4.1-1.6,5.2-3.5,5.4-6.1l-3.4,0.4L135,126
		c-0.8,0.7-1.7,1.4-2.7,2c-0.4-0.6-1-1.2-1.6-1.6c1.8-1.1,3.5-2.4,4.9-4.1L131,123l-0.3-1.9l6.4-0.9c0.4-0.7,0.7-1.4,1-2.2l-6.3,0.8
		l-0.3-1.9l3.6-0.5c-0.6-0.9-1.3-1.7-2-2.4l1.6-1.1c0.9,0.8,1.7,1.6,2.3,2.6l-1.1,0.8l2.7-0.4c0.3-1.4,0.5-2.7,0.5-4.1l2.3-0.1
		c0,1.3-0.2,2.6-0.4,3.9l2.5-0.3c0.6-1.2,1.1-2.4,1.6-3.7l2.1,0.4c-0.5,1-1,2-1.5,3l3.4-0.5l0.3,1.9l-8.8,1.2
		c-0.2,0.8-0.5,1.5-0.8,2.2l11.4-1.5l0.3,1.9L146.1,120.9z M146.3,123.4c-1-0.6-2-1.3-2.8-2.2l-4.9,0.6c-0.7,1-1.4,2-2.3,2.9
		L146.3,123.4z"/>
</g>
</svg>
