<svg id="icon-house-white" xmlns="http://www.w3.org/2000/svg" xmlns:xlink="http://www.w3.org/1999/xlink" width="44.657" height="44.657" viewBox="0 0 44.657 44.657">
  <defs>
    <clipPath id="clip-path">
      <rect id="Rectangle_40" data-name="Rectangle 40" width="44.657" height="44.657" fill="none"/>
    </clipPath>
  </defs>
  <g id="Group_30" data-name="Group 30" transform="translate(0 0)" clip-path="url(#clip-path)">
    <path id="Path_667" data-name="Path 667" d="M37.28,21.9A1.219,1.219,0,0,0,36,23.238V41.8H26.846V34.277a1.3,1.3,0,0,0-1.152-1.336H19.081a1.423,1.423,0,0,0-1.4,1.336V41.8H8.647v-17.9a1.287,1.287,0,0,0-1.271-1.334,1.216,1.216,0,0,0-1.271,1.334v19.4a1.316,1.316,0,0,0,1.271,1.346h11.7a1.3,1.3,0,0,0,1.142-1.346V35.622h4.071v7.688a1.439,1.439,0,0,0,1.4,1.346H37.28a1.413,1.413,0,0,0,1.271-1.346V23.238A1.287,1.287,0,0,0,37.28,21.9m6.989,1h0C35.87,13.87,30.658,8.357,23.152.5a1.006,1.006,0,0,0-.764-.5,1.256,1.256,0,0,0-1.012.5l-21,22.248a1.685,1.685,0,0,0-.377,1,.986.986,0,0,0,.377.829,1.048,1.048,0,0,0,1.788,0L22.388,3.338l20.1,21.57a1.236,1.236,0,0,0,.894.333,1.335,1.335,0,0,0,.883-2.337" transform="translate(0 0)" fill="#fffbe9" fill-rule="evenodd"/>
  </g>
</svg>
