<?xml version="1.0" encoding="utf-8"?>
<!-- Generator: Adobe Illustrator 23.0.3, SVG Export Plug-In . SVG Version: 6.00 Build 0)  -->
<svg version="1.1" id="圖層_1" xmlns="http://www.w3.org/2000/svg" xmlns:xlink="http://www.w3.org/1999/xlink" x="0px" y="0px"
	 viewBox="0 0 144.1 42.5" enable-background="new 0 0 144.1 42.5" xml:space="preserve">
<g id="icon-car" transform="translate(0 0)">
	<g>
		<defs>
			<rect id="SVGID_1_" width="73.2" height="42.5"/>
		</defs>
		<clipPath id="SVGID_2_">
			<use xlink:href="#SVGID_1_"  overflow="visible"/>
		</clipPath>
		<g id="Group_27" transform="translate(0 0)" clip-path="url(#SVGID_2_)">
			<path id="Path_645" fill="#308582" d="M68.6,35.9c-0.8,0.3-1.7,0.5-2.7,0.5l-3.4,0c-0.7,0-1.2-0.5-1.2-1.2c0-0.1,0-0.2,0-0.2
				c0.1-0.4,0.1-0.9,0.1-1.4c0-3.8-3.1-7-6.9-7s-7,3.1-7,6.9l0,0c0,0.5,0,0.9,0.1,1.4c0.1,0.7-0.3,1.3-0.9,1.4c-0.1,0-0.2,0-0.2,0
				L26,36.3c-0.7,0-1.2-0.5-1.2-1.2c0-0.1,0-0.2,0-0.2c0.8-3.8-1.7-7.4-5.4-8.2s-7.4,1.7-8.2,5.4c-0.1,0.4-0.1,0.9-0.1,1.4
				c0,0.5,0,0.9,0.1,1.4c0.1,0.7-0.3,1.3-0.9,1.4c-0.1,0-0.2,0-0.2,0l-2.9,0C3.2,36.2,0,33,0,29l0-7.5c0-2.4,1.2-4.6,3.2-5.9
				L4.8,3.6C5.1,1.5,6.8,0,8.9,0l44.8,0.2c2.1,0,3.9,1.6,4.1,3.7l1.3,10.7l6.9,0c4,0,7.2,3.2,7.1,7.2l0,7.5
				C73.2,32.2,71.4,34.8,68.6,35.9 M63.9,34l2.1,0c2.6,0,4.8-2.1,4.8-4.7l0-7.5c0-2.6-2.1-4.8-4.7-4.8l-8,0c-0.6,0-1.1-0.5-1.2-1.1
				L55.5,4.1c-0.1-0.9-0.9-1.5-1.7-1.5L8.9,2.4C8,2.4,7.3,3.1,7.2,3.9L5.5,16.4c0,0.4-0.3,0.7-0.6,0.9c-1.5,0.8-2.5,2.4-2.5,4.2
				l0,7.5c0,2.6,2.1,4.8,4.7,4.8l1.5,0c0-0.1,0-0.3,0-0.4c0-5.2,4.2-9.3,9.4-9.3s9.3,4.2,9.3,9.4c0,0.1,0,0.3,0,0.4l17.8,0.1
				c0-0.1,0-0.3,0-0.4c0-5.2,4.2-9.3,9.4-9.3s9.3,4.2,9.3,9.4C63.9,33.8,63.9,33.9,63.9,34"/>
			<path id="Path_646" fill="#308582" d="M21.4,41.5c-4.6,1.8-9.9-0.4-11.7-5.1s0.4-9.9,5.1-11.7c4.6-1.8,9.9,0.4,11.7,5.1
				c0.4,1.1,0.6,2.2,0.6,3.3C27.1,36.9,24.8,40.2,21.4,41.5 M15.9,27.7c-3,1.2-4.5,4.6-3.3,7.6s4.6,4.5,7.6,3.3s4.5-4.6,3.3-7.6
				c-0.9-2.2-3-3.7-5.4-3.7C17.4,27.3,16.6,27.4,15.9,27.7"/>
			<path id="Path_647" fill="#308582" d="M21.9,33.2c0,2.1-1.7,3.8-3.9,3.8c-2.1,0-3.8-1.7-3.8-3.9c0-2.1,1.7-3.8,3.9-3.8
				C20.2,29.3,22,31,21.9,33.2C21.9,33.2,21.9,33.2,21.9,33.2"/>
			<path id="Path_648" fill="#308582" d="M57.8,41.8c-4.6,1.8-9.9-0.4-11.7-5.1c-1.8-4.6,0.4-9.9,5.1-11.7s9.9,0.4,11.7,5.1
				c0.4,1.1,0.6,2.2,0.6,3.3C63.5,37.2,61.2,40.5,57.8,41.8 M52.3,28c-3,1.2-4.5,4.6-3.3,7.6c1.2,3,4.6,4.5,7.6,3.3s4.5-4.6,3.3-7.6
				c-0.9-2.2-3-3.7-5.4-3.7C53.8,27.6,53,27.7,52.3,28"/>
			<path id="Path_649" fill="#308582" d="M58.4,33.5c0,2.1-1.7,3.8-3.9,3.8c-2.1,0-3.8-1.7-3.8-3.9c0-2.1,1.7-3.8,3.9-3.8
				c0,0,0,0,0,0C56.7,29.6,58.4,31.3,58.4,33.5C58.4,33.5,58.4,33.5,58.4,33.5"/>
			<path id="Path_650" fill="#308582" d="M51.9,16.4l-18-0.1c-1,0-1.8-0.8-1.8-1.8c0,0,0,0,0,0l0-8.6c0-1,0.8-1.8,1.8-1.8
				c0,0,0,0,0,0l14.2,0.1c0.7,0,1.4,0.4,1.6,1.1l3.7,8.6c0.4,0.9,0,2-0.9,2.4C52.4,16.3,52.2,16.4,51.9,16.4"/>
			<path id="Path_651" fill="#308582" d="M10.1,16.2l18,0.1c1,0,1.8-0.8,1.8-1.8c0,0,0,0,0,0l0-8.6c0-1-0.8-1.8-1.8-1.8c0,0,0,0,0,0
				L13.9,4.1c-0.7,0-1.4,0.4-1.7,1.1l-3.8,8.6c-0.4,0.9,0,2,0.9,2.4C9.6,16.2,9.9,16.2,10.1,16.2"/>
		</g>
	</g>
</g>
<g id="icon-motor" transform="translate(118.511 59.242)">
	<g>
		<defs>
			<rect id="SVGID_3_" x="-38" y="-59.2" width="63.6" height="42.5"/>
		</defs>
		<clipPath id="SVGID_4_">
			<use xlink:href="#SVGID_3_"  overflow="visible"/>
		</clipPath>
		<g id="Group_29" transform="translate(-118.511 -59.242)" clip-path="url(#SVGID_4_)">
			<path id="Path_663" fill="#308582" d="M134.1,36.1c1.2,0.1,2.3-0.9,2.3-2.2c0-1.3-0.9-2.3-2.1-2.4c-1.2-0.1-2.3,0.9-2.3,2.2
				c0,0,0,0.1,0,0.1C132,35.1,132.9,36.1,134.1,36.1"/>
			<path id="Path_664" fill="#308582" d="M143.5,29.7c-2.6-6.5-7.5-8.3-10-8.7c0.6-1.3,0.8-2.1,0.9-2.1l0.1-0.3l-2-9.1l0.8-0.7l0,0
				c0.8,0,1.4-1.9,1.4-4.3s-0.6-4.3-1.4-4.3V0l-8.5,2.7v1.1L121.2,5l0.5,2.1l3.1,0.4v0.9L128,10v0.2c-4.9,0.8-6.1,8.3-6.7,12.5
				c-0.1,0.9-0.3,1.7-0.4,2.1c-0.2,0.8-0.7,1.4-1.5,1.5c-0.4,0.1-0.7,0.1-1.1,0.1l-0.1,0h-5.4l-2.1-0.3c-1.3-0.9-2.1-2.8-2.5-5.5
				l8.3-7.5h-0.3c0-0.3-0.2-0.5-0.4-0.7l-3.2-3.1c-0.8-0.7-1.9-1.1-2.9-1.2h-7.1c-0.9,0-1.7,0.7-1.7,1.7v2.1c0,0.5,0.2,0.9,0.5,1.2
				l-0.1,0c-3.6,1-7.1,2.6-10.3,4.6c-6.9,4.5-10.5,10.5-10.5,17.4v1.1h4.6c1,3.5,4.1,6,7.7,6c3.6,0,6.7-2.5,7.7-6H116v0
				c2-0.2,4-0.8,5.8-1.7h4.3c0.3,4.6,4.1,8.1,8.6,7.8c4.3-0.3,7.7-4.1,7.5-8.6c0-0.9-0.1-1.8-0.4-2.7h2.3L143.5,29.7z M140.8,29
				h-10.4l-1.6,1.7l-1.6,1.8h-2.1c0.4-0.3,0.9-0.7,1.3-1.1c1.3-1.3,2.5-2.6,3.6-4.1c0.3-0.4,0.6-0.9,0.9-1.3c0.7-1,1.2-2,1.7-3
				c1.1,0.1,2.2,0.5,3.3,0.9C138,25,139.8,26.8,140.8,29L140.8,29z M140.1,33.8c0.2,3.4-2.3,6.3-5.6,6.5c-3.3,0.2-6-2.4-6.3-5.7
				l3.2-3.5h8.2C139.9,32,140.1,32.9,140.1,33.8 M115.5,34.3H82.6c0.4-5.8,3.5-10.6,9.5-14.5c3-1.9,6.3-3.4,9.7-4.4h9.2l-4.9,4.4
				l0,0.5c0.3,3.8,1.6,6.4,3.7,7.8l0.2,0.1l2.7,0.3h5.4c0.1,0,0.2,0,0.4,0c0.5,0,0.9-0.1,1.4-0.2c1.5-0.4,2.6-1.6,2.9-3.1
				c0.1-0.6,0.3-1.4,0.4-2.4c0.6-4,1.7-10.7,5.6-10.7h0.1l1.1,0V8.7L126.8,7V4.3l4.4-1.4v4.8l-1,0.9l2.1,9.8c-0.2,0.4-0.5,1.3-1,2.4
				c-0.2,0.3-0.3,0.7-0.5,1c-0.2,0.3-0.4,0.7-0.5,1c-0.6,1.1-1.3,2.2-2,3.2c-1.5,2.2-3.4,4.1-5.5,5.7c-0.5,0.4-1.1,0.7-1.6,1
				c-0.5,0.3-1,0.5-1.5,0.7C118.2,33.9,116.9,34.2,115.5,34.3 M92.7,40.3c-2.4,0-4.6-1.6-5.5-3.9h10.9
				C97.3,38.7,95.2,40.3,92.7,40.3"/>
			<path id="Path_665" fill="#308582" d="M97.3,26.7H99v-2.2h-6.6v2.2L97.3,26.7L97.3,26.7z"/>
			<path id="Path_666" fill="#308582" d="M97.9,28.7h-7.6v2.2H101v-2.2H97.9z"/>
		</g>
	</g>
</g>
</svg>
