<svg xmlns="http://www.w3.org/2000/svg" xmlns:xlink="http://www.w3.org/1999/xlink" width="67.868" height="49.791" viewBox="0 0 67.868 49.791">
  <defs>
    <clipPath id="clip-path">
      <rect id="Rectangle_38" data-name="Rectangle 38" width="67.868" height="49.791" transform="translate(0 0)" fill="none"/>
    </clipPath>
  </defs>
  <g id="icon-travel" transform="translate(0 0)">
    <g id="Group_28" data-name="Group 28" clip-path="url(#clip-path)">
      <path id="Path_656" data-name="Path 656" d="M1.469,19.319l.122.286,5.643-2.838a.271.271,0,0,1,.371.135l.094.222a.27.27,0,0,1-.127.349L1.9,20.327l.116.272L10.2,16.521l-.546-1.28Z" fill="#308582"/>
      <path id="Path_657" data-name="Path 657" d="M67.239,65.33a8.537,8.537,0,0,0-.062-6.583l-19-44.551a8.617,8.617,0,0,0-11.293-4.54l-6.24,2.661.107.253-3.97,1.693-.107-.252-11.966,5.1.107.252-3.97,1.694-.107-.253L5.23,23.157A8.615,8.615,0,0,0,.69,34.449l15.5,36.342h3.261l-16-37.519a5.614,5.614,0,0,1,2.958-7.356l31.655-13.5a5.611,5.611,0,0,1,7.357,2.957l19,44.55a5.586,5.586,0,0,1-2.643,7.184,7.076,7.076,0,0,1-2.05,3.684h1.149l1.763-.752a8.542,8.542,0,0,0,4.6-4.709M62.05,68.659h0Z" fill="#308582"/>
      <path id="Path_658" data-name="Path 658" d="M61.362,62.917,44.673,23.785a7.068,7.068,0,0,0-9.252-3.72L13.757,29.3a7.068,7.068,0,0,0-3.72,9.253L23.784,70.791h3.261L12.8,37.38a4.068,4.068,0,0,1,2.137-5.316L36.6,22.824a4,4,0,0,1,2.163-.28,4.149,4.149,0,0,1,.934.254,4.018,4.018,0,0,1,2.218,2.164L58.6,64.094a4.055,4.055,0,0,1-2.137,5.315l-3.239,1.382,8.235-3.512c.111-.048.207-.118.314-.172a7.01,7.01,0,0,0-.414-4.19" fill="#308582"/>
      <path id="Path_659" data-name="Path 659" d="M53.227,70.791h6.5a7.081,7.081,0,0,0,2.049-3.684c-.107.054-.2.125-.314.172Z" fill="#308582"/>
      <path id="Path_660" data-name="Path 660" d="M62.533,70.575l.67-.286a3.7,3.7,0,0,0,1.4-1.04l-3.614,1.542h1.65l-.058-.136a.623.623,0,0,0-.044-.08" fill="#308582"/>
      <path id="Path_661" data-name="Path 661" d="M14.528,18.689l-1.3.553-.07-.164a2.855,2.855,0,0,1,.812-1.644,1.03,1.03,0,0,0,.829-.285,16.309,16.309,0,0,1,4.883-3.073,16.194,16.194,0,0,1,5.649-1.4,1.042,1.042,0,0,0,.379-.083,1.018,1.018,0,0,0,.4-.314,2.808,2.808,0,0,1,1.692.547l.071.166-1.388.592.181.424,3.97-1.693-.181-.424-1,.425L25.774,3.661a1.3,1.3,0,0,0,.44-1.571l-.553-1.3A1.3,1.3,0,0,0,23.95.1L6.636,7.489A1.306,1.306,0,0,0,5.948,9.2L6.5,10.5a1.306,1.306,0,0,0,1.456.767l1.4,3.289L.507,18.965,1.639,21.62l8.853-4.412,1.155,2.71-1.089.464.181.425,3.97-1.693ZM2.015,20.6,1.9,20.327l5.673-2.854a.272.272,0,0,0,.128-.349L7.605,16.9a.271.271,0,0,0-.371-.135L1.591,19.6l-.122-.286,8.183-4.078.547,1.28Zm10.436-3.187-2.9-6.8L24.2,4.367l2.9,6.8a6.423,6.423,0,0,0-.954-.13,1.037,1.037,0,0,0-.868-.43,18.3,18.3,0,0,0-6.407,1.564,18.392,18.392,0,0,0-5.518,3.5,1.035,1.035,0,0,0-.3.922,6.579,6.579,0,0,0-.606.826" fill="#308582"/>
      <path id="Path_662" data-name="Path 662" d="M14.816,19.366l-.108-.252-3.969,1.693.107.252Z" fill="#308582"/>
      <rect id="Rectangle_37" data-name="Rectangle 37" width="4.316" height="0.275" transform="translate(26.674 14.01) rotate(-23.096)" fill="#fffbe9"/>
    </g>
  </g>
</svg>
