<svg xmlns="http://www.w3.org/2000/svg" xmlns:xlink="http://www.w3.org/1999/xlink" width="70.409" height="45.483" viewBox="0 0 70.409 45.483">
  <defs>
    <clipPath id="clip-path">
      <rect id="Rectangle_39" data-name="Rectangle 39" width="70.409" height="45.483" transform="translate(0 0)" fill="none"/>
    </clipPath>
  </defs>
  <g id="icon-motor" transform="translate(118.511 59.242)">
    <g id="Group_29" data-name="Group 29" transform="translate(-118.511 -59.242)" clip-path="url(#clip-path)">
      <path id="Path_663" data-name="Path 663" d="M81.585,51.873a2.449,2.449,0,1,0-2.35-2.447,2.4,2.4,0,0,0,2.35,2.447" transform="translate(-22.249 -13.192)" fill="#308582"/>
      <path id="Path_664" data-name="Path 664" d="M69.746,31.785c-2.895-6.982-8.269-8.84-11.119-9.332.613-1.339.922-2.217.949-2.3l.108-.31-2.176-9.771.9-.793v0c.856-.022,1.548-2.068,1.548-4.591S59.266.119,58.41.1V0L48.948,2.887V4.1l-3.94,1.207.543,2.261,3.4.455v.914l3.615,1.773v.245c-5.452.876-6.749,8.916-7.465,13.349-.157.971-.292,1.81-.426,2.3a2.176,2.176,0,0,1-1.636,1.655,3.658,3.658,0,0,1-1.2.111l-.073-.009h-6L33.4,28.07c-1.463-1.009-2.378-2.975-2.727-5.855l9.172-7.992H39.5a1.028,1.028,0,0,0-.414-.77l-3.492-3.317a5.424,5.424,0,0,0-3.241-1.269H24.5A1.85,1.85,0,0,0,22.6,10.646v2.3a1.716,1.716,0,0,0,.6,1.289l-.091.022a42.761,42.761,0,0,0-11.453,4.958C4.03,23.988,0,30.438,0,37.868v1.156H5.039a8.984,8.984,0,0,0,8.513,6.46,8.984,8.984,0,0,0,8.513-6.46H39.288v-.037a17.9,17.9,0,0,0,6.456-1.851h4.708a8.919,8.919,0,0,0,17.813-.9,9.511,9.511,0,0,0-.436-2.851h2.58Zm-3.006-.713H55.267l-1.738,1.843-1.8,1.909h-2.36q.712-.56,1.4-1.19a29.72,29.72,0,0,0,3.936-4.445q.5-.695.954-1.379c.736-1.115,1.363-2.194,1.885-3.172a11.818,11.818,0,0,1,3.6,1.01,12.255,12.255,0,0,1,5.7,5.425Zm-.788,5.162a6.605,6.605,0,0,1-13.182.852l3.492-3.7h9.1a7.173,7.173,0,0,1,.587,2.851m-27.246.478H2.348C2.736,30.548,6.258,25.336,12.83,21.2a41.418,41.418,0,0,1,10.692-4.669H33.669l-5.417,4.719.054.588c.373,4.1,1.746,6.9,4.081,8.328l.214.13,3.021.373h6.005c.095.009.258.02.469.02a6.01,6.01,0,0,0,1.546-.2A4.489,4.489,0,0,0,46.9,27.209c.165-.611.3-1.461.476-2.539.693-4.3,1.853-11.484,6.183-11.484l.122,0,1.189.034V9.268L51.26,7.495V4.6L56.1,3.122V8.238L54.956,9.245,57.283,19.7c-.17.443-.537,1.351-1.106,2.527-.169.349-.356.721-.561,1.112-.186.355-.388.726-.6,1.108A35.662,35.662,0,0,1,52.8,27.875a24.72,24.72,0,0,1-6.133,6.083,17.885,17.885,0,0,1-1.811,1.061,16.506,16.506,0,0,1-1.646.724,15.5,15.5,0,0,1-4.505.969m-25.156,6.46a6.622,6.622,0,0,1-6.056-4.148H19.608a6.622,6.622,0,0,1-6.056,4.148" transform="translate(0 0)" fill="#308582"/>
      <path id="Path_665" data-name="Path 665" d="M23.669,38.819h1.924V36.508h-7.33v2.312h5.406Z" transform="translate(-5.128 -10.251)" fill="#308582"/>
      <path id="Path_666" data-name="Path 666" d="M23.489,42.722H15.122v2.312H26.945V42.722H23.489Z" transform="translate(-4.246 -11.996)" fill="#308582"/>
    </g>
  </g>
</svg>
