<svg id="icon-treasure" xmlns="http://www.w3.org/2000/svg" xmlns:xlink="http://www.w3.org/1999/xlink" width="67.469" height="57.453" viewBox="0 0 67.469 57.453">
  <defs>
    <clipPath id="clip-path">
      <rect id="Rectangle_375" data-name="Rectangle 375" width="67.469" height="57.453" fill="none"/>
    </clipPath>
    <clipPath id="clip-path-3">
      <rect id="Rectangle_373" data-name="Rectangle 373" width="67.469" height="23.374" fill="none"/>
    </clipPath>
    <clipPath id="clip-path-4">
      <rect id="Rectangle_348" data-name="Rectangle 348" width="52.569" height="23.849" fill="none"/>
    </clipPath>
    <clipPath id="clip-path-6">
      <rect id="Rectangle_350" data-name="Rectangle 350" width="45.352" height="19.113" fill="none"/>
    </clipPath>
    <clipPath id="clip-path-7">
      <rect id="Rectangle_349" data-name="Rectangle 349" width="45.352" height="19.111" fill="none"/>
    </clipPath>
    <clipPath id="clip-path-8">
      <rect id="Rectangle_352" data-name="Rectangle 352" width="10.8" height="7.673" fill="none"/>
    </clipPath>
    <clipPath id="clip-path-9">
      <rect id="Rectangle_351" data-name="Rectangle 351" width="10.798" height="7.672" fill="none"/>
    </clipPath>
    <clipPath id="clip-path-10">
      <rect id="Rectangle_354" data-name="Rectangle 354" width="9.206" height="10.405" fill="none"/>
    </clipPath>
    <clipPath id="clip-path-12">
      <rect id="Rectangle_356" data-name="Rectangle 356" width="9.134" height="7.855" fill="none"/>
    </clipPath>
    <clipPath id="clip-path-13">
      <rect id="Rectangle_355" data-name="Rectangle 355" width="9.133" height="7.855" fill="none"/>
    </clipPath>
    <clipPath id="clip-path-14">
      <rect id="Rectangle_358" data-name="Rectangle 358" width="8.755" height="7.259" fill="none"/>
    </clipPath>
    <clipPath id="clip-path-15">
      <rect id="Rectangle_357" data-name="Rectangle 357" width="8.755" height="7.257" fill="none"/>
    </clipPath>
    <clipPath id="clip-path-16">
      <rect id="Rectangle_360" data-name="Rectangle 360" width="7.223" height="8.163" fill="none"/>
    </clipPath>
    <clipPath id="clip-path-18">
      <rect id="Rectangle_370" data-name="Rectangle 370" width="10.776" height="8.473" fill="none"/>
    </clipPath>
    <clipPath id="clip-path-20">
      <rect id="Rectangle_372" data-name="Rectangle 372" width="9.486" height="10.201" fill="none"/>
    </clipPath>
    <clipPath id="clip-path-21">
      <rect id="Rectangle_371" data-name="Rectangle 371" width="9.485" height="10.2" fill="none"/>
    </clipPath>
  </defs>
  <g id="Group_490" data-name="Group 490" clip-path="url(#clip-path)">
    <g id="Group_440" data-name="Group 440">
      <g id="Group_439" data-name="Group 439" clip-path="url(#clip-path)">
        <path id="Path_3406" data-name="Path 3406" d="M131.544,89.343h.925a2.554,2.554,0,0,0-.262-.036,2.321,2.321,0,0,0-.662.036" transform="translate(-97.476 -66.171)" fill="#ffea71"/>
      </g>
    </g>
    <g id="Group_487" data-name="Group 487">
      <g id="Group_486" data-name="Group 486" clip-path="url(#clip-path-3)">
        <path id="Path_3407" data-name="Path 3407" d="M76.691,30.764H26.084a1.746,1.746,0,0,1-1.746-1.745l1.077-16a1.746,1.746,0,0,1,1.746-1.746H75.83a1.746,1.746,0,0,1,1.745,1.746l.861,16a1.745,1.745,0,0,1-1.745,1.745" transform="translate(-18.035 -8.352)" fill="#0f3f3b"/>
        <path id="Path_3408" data-name="Path 3408" d="M72.245,27.872H21.637a3.3,3.3,0,0,1-3.3-3.3l0-.1L19.415,8.51a3.3,3.3,0,0,1,3.3-3.239H71.383a3.3,3.3,0,0,1,3.3,3.252l.862,16.05a3.3,3.3,0,0,1-3.3,3.3M21.448,24.6a.192.192,0,0,0,.19.165H72.245a.192.192,0,0,0,.19-.171L71.575,8.57a.192.192,0,0,0-.192-.192H22.715a.192.192,0,0,0-.192.192l0,.1Z" transform="translate(-13.589 -3.906)" fill="#f2ad22"/>
        <g id="Group_445" data-name="Group 445" transform="translate(6.398 5.73)" opacity="0.3">
          <g id="Group_444" data-name="Group 444">
            <g id="Group_443" data-name="Group 443" clip-path="url(#clip-path-4)">
              <g id="Group_442" data-name="Group 442">
                <g id="Group_441" data-name="Group 441" clip-path="url(#clip-path-4)">
                  <path id="Path_3409" data-name="Path 3409" d="M35.787,44.55a47.088,47.088,0,0,0,13.149,1.379A81.918,81.918,0,0,0,63.16,43.8c4.421-1.013,8.748-2.4,13.084-3.835.337-.112.681-.217,1.029-.318l-.657-4.183-3.16-1.212a2.713,2.713,0,0,1-1.511-1.618L70.571,29l-3.309-.267a2.394,2.394,0,0,1-1.786-1.134l-2.058-3.14-3.266.7a2.177,2.177,0,0,1-1.958-.581l-2.625-2.449-3.03,1.625a2.1,2.1,0,0,1-2.021,0l-3.03-1.625-2.625,2.449a2.177,2.177,0,0,1-1.958.581l-3.264-.7-2.058,3.139A2.394,2.394,0,0,1,35.8,28.728l-3.309.266-1.375,3.642A2.712,2.712,0,0,1,29.6,34.254l-3.16,1.212-.823,5.243-.913.673c3.682,1.118,7.355,2.286,11.083,3.168" transform="translate(-24.705 -22.126)" fill="#ffde52"/>
                </g>
              </g>
            </g>
          </g>
        </g>
        <g id="Group_450" data-name="Group 450" transform="translate(10.328 10.467)" opacity="0.2">
          <g id="Group_449" data-name="Group 449">
            <g id="Group_448" data-name="Group 448" clip-path="url(#clip-path-6)">
              <g id="Group_447" data-name="Group 447" transform="translate(0 0.001)">
                <g id="Group_446" data-name="Group 446" clip-path="url(#clip-path-7)">
                  <path id="Path_3410" data-name="Path 3410" d="M47.031,58.1A47.088,47.088,0,0,0,60.18,59.482,81.911,81.911,0,0,0,74.4,57.355c3.652-.837,7.243-1.93,10.826-3.094L84.9,52.184l-2.283-.876a3.7,3.7,0,0,1-2.06-2.2l-.994-2.632-2.389-.193a3.265,3.265,0,0,1-2.434-1.545l-1.485-2.265-2.355.506a2.845,2.845,0,0,1-.594.063,3.041,3.041,0,0,1-2.076-.855l-1.894-1.769L64.15,41.588a2.869,2.869,0,0,1-2.756,0l-2.189-1.174-1.894,1.768a3.04,3.04,0,0,1-2.075.855,2.843,2.843,0,0,1-.6-.063l-2.355-.506L50.8,44.732a3.263,3.263,0,0,1-2.434,1.545l-2.389.193L44.985,49.1a3.7,3.7,0,0,1-2.06,2.206l-2.283.875L40.2,55.023a4.674,4.674,0,0,1-.318,1.106c2.374.716,4.753,1.4,7.154,1.972" transform="translate(-39.877 -40.415)" fill="#ffde52"/>
                </g>
              </g>
            </g>
          </g>
        </g>
        <path id="Path_3411" data-name="Path 3411" d="M75.128,71.006l-15.4-9.832a23.931,23.931,0,0,0-26.316,0l-15.4,9.832Z" transform="translate(-13.348 -42.41)" fill="#ffcb48"/>
        <path id="Path_3412" data-name="Path 3412" d="M111.308,61.542c.034.422-.7.852-1.634.961s-1.723-.145-1.756-.567.7-.852,1.634-.961,1.723.145,1.756.567" transform="translate(-79.968 -45.165)" fill="#ffea71"/>
        <path id="Path_3413" data-name="Path 3413" d="M131.378,65.005c-.041.6-.8,1.006-1.693.916s-1.586-.646-1.545-1.241.8-1.006,1.694-.916,1.586.646,1.545,1.242" transform="translate(-94.952 -47.241)" fill="#ffea71"/>
        <path id="Path_3414" data-name="Path 3414" d="M97.819,66.739c.041.518-.684,1.026-1.62,1.135s-1.729-.223-1.77-.741.684-1.026,1.62-1.135,1.729.223,1.77.741" transform="translate(-69.971 -48.89)" fill="#ffea71"/>
        <path id="Path_3415" data-name="Path 3415" d="M147.04,63.361c-.07.6-.882.951-1.813.791s-1.629-.772-1.559-1.369.882-.951,1.813-.791,1.629.772,1.559,1.369" transform="translate(-106.457 -45.908)" fill="#ffea71"/>
        <path id="Path_3416" data-name="Path 3416" d="M159.339,72.68c-.085.594-.906.917-1.833.722s-1.608-.834-1.523-1.428.906-.917,1.833-.722,1.608.834,1.523,1.428" transform="translate(-115.581 -52.757)" fill="#ffea71"/>
        <path id="Path_3417" data-name="Path 3417" d="M184.668,78.707a7.519,7.519,0,0,1,4.223,1.135H190v1.787c0,1.614-2.39,2.922-5.337,2.922s-5.337-1.308-5.337-2.922V79.842h1.114a7.522,7.522,0,0,1,4.223-1.135" transform="translate(-132.886 -58.323)" fill="#e39400" fill-rule="evenodd"/>
        <path id="Path_3418" data-name="Path 3418" d="M184.67,77.653c2.94,0,5.337-1.313,5.337-2.921s-2.4-2.922-5.337-2.922-5.337,1.313-5.337,2.922,2.4,2.921,5.337,2.921" transform="translate(-132.889 -53.212)" fill="#fc0" fill-rule="evenodd"/>
        <path id="Path_3419" data-name="Path 3419" d="M189.727,79.467a1.768,1.768,0,0,1,.281.938,1.686,1.686,0,0,1-.126.633H179.459a1.685,1.685,0,0,1-.126-.633,1.767,1.767,0,0,1,.281-.938Z" transform="translate(-132.889 -58.886)" fill="#ffe252" fill-rule="evenodd"/>
        <path id="Path_3420" data-name="Path 3420" d="M188.329,78.953c2.236,0,4.059-1,4.059-2.222s-1.822-2.222-4.059-2.222-4.059,1-4.059,2.222,1.824,2.222,4.059,2.222" transform="translate(-136.547 -55.212)" fill="#f5a40e" fill-rule="evenodd"/>
        <path id="Path_3421" data-name="Path 3421" d="M191.242,79.533l.513.241.47-.3a2.057,2.057,0,0,0,1.694-.171c.864-.556-.57-1.188-.14-1.464a.663.663,0,0,1,.681,0,.552.552,0,0,1,.351.416l.772-.06a.774.774,0,0,0-.418-.609l.457-.293-.513-.241-.466.3a2,2,0,0,0-1.641.16c-.814.523.593,1.173.127,1.473a.717.717,0,0,1-.741,0,.925.925,0,0,1-.495-.524l-.787.129a1.221,1.221,0,0,0,.588.658Z" transform="translate(-141.613 -57.094)" fill="#ffdd30" fill-rule="evenodd"/>
        <path id="Path_3422" data-name="Path 3422" d="M135.064,68.533a7.518,7.518,0,0,1,4.223,1.135H140.4v1.787c0,1.613-2.39,2.922-5.337,2.922s-5.337-1.308-5.337-2.922V69.669h1.114a7.517,7.517,0,0,1,4.223-1.135" transform="translate(-96.129 -50.784)" fill="#e39400" fill-rule="evenodd"/>
        <path id="Path_3423" data-name="Path 3423" d="M135.064,67.478c2.94,0,5.337-1.313,5.337-2.921s-2.4-2.922-5.337-2.922-5.338,1.312-5.338,2.922,2.4,2.921,5.337,2.921" transform="translate(-96.129 -45.672)" fill="#fc0" fill-rule="evenodd"/>
        <path id="Path_3424" data-name="Path 3424" d="M140.12,69.291a1.767,1.767,0,0,1,.282.939,1.685,1.685,0,0,1-.126.633H129.852a1.684,1.684,0,0,1-.126-.633,1.768,1.768,0,0,1,.282-.939Z" transform="translate(-96.129 -51.346)" fill="#ffe252" fill-rule="evenodd"/>
        <path id="Path_3425" data-name="Path 3425" d="M138.723,68.779c2.236,0,4.059-1,4.059-2.222s-1.824-2.222-4.059-2.222-4.059,1-4.059,2.222,1.823,2.222,4.059,2.222" transform="translate(-99.788 -47.673)" fill="#f5a40e" fill-rule="evenodd"/>
        <path id="Path_3426" data-name="Path 3426" d="M141.638,69.358l.514.241.47-.3a2.058,2.058,0,0,0,1.694-.171c.864-.555-.57-1.187-.14-1.464a.663.663,0,0,1,.681,0,.551.551,0,0,1,.351.416l.771-.061a.772.772,0,0,0-.417-.608l.457-.293-.514-.241-.466.3a2,2,0,0,0-1.641.16c-.814.523.593,1.173.127,1.473a.718.718,0,0,1-.741,0,.927.927,0,0,1-.495-.524l-.787.13a1.221,1.221,0,0,0,.588.658Z" transform="translate(-104.855 -49.554)" fill="#ffdd30" fill-rule="evenodd"/>
        <g id="Group_455" data-name="Group 455" transform="translate(26.534 18.85)" opacity="0.5">
          <g id="Group_454" data-name="Group 454">
            <g id="Group_453" data-name="Group 453" clip-path="url(#clip-path-8)">
              <g id="Group_452" data-name="Group 452" transform="translate(0 0.001)">
                <g id="Group_451" data-name="Group 451" clip-path="url(#clip-path-9)">
                  <path id="Path_3427" data-name="Path 3427" d="M113.251,77.062l-.15-1.78a1.625,1.625,0,0,0-.049-.273c-.007-.026-.016-.05-.024-.076a1.687,1.687,0,0,0-.071-.191c-.011-.026-.024-.05-.036-.076a1.964,1.964,0,0,0-.112-.193c-.011-.017-.022-.035-.034-.052s-.021-.034-.033-.051h-.007c-.812-1.086-2.867-1.747-5.2-1.55s-4.246,1.195-4.864,2.4h-.007c-.01.018-.016.038-.024.056s-.016.037-.024.055a2.052,2.052,0,0,0-.078.212c-.008.026-.016.052-.022.078a1.727,1.727,0,0,0-.039.2c0,.026-.008.052-.011.078a1.651,1.651,0,0,0,0,.277l.151,1.78c.136,1.608,2.627,2.71,5.565,2.46s5.208-1.754,5.072-3.361" transform="translate(-102.459 -72.786)" fill="#161616" fill-rule="evenodd"/>
                </g>
              </g>
            </g>
          </g>
        </g>
        <path id="Path_3428" data-name="Path 3428" d="M105.15,78.129a7.518,7.518,0,0,1,4.223,1.135h1.114v1.787c0,1.613-2.39,2.922-5.337,2.922s-5.337-1.308-5.337-2.922V79.264h1.114a7.517,7.517,0,0,1,4.223-1.135" transform="translate(-73.962 -57.895)" fill="#e39400" fill-rule="evenodd"/>
        <path id="Path_3429" data-name="Path 3429" d="M105.152,77.074c2.94,0,5.337-1.313,5.337-2.921s-2.4-2.922-5.337-2.922-5.337,1.312-5.337,2.921,2.4,2.921,5.337,2.921" transform="translate(-73.964 -52.783)" fill="#fc0" fill-rule="evenodd"/>
        <path id="Path_3430" data-name="Path 3430" d="M110.208,78.887a1.768,1.768,0,0,1,.282.939,1.683,1.683,0,0,1-.126.633H99.94a1.678,1.678,0,0,1-.126-.633,1.768,1.768,0,0,1,.282-.939Z" transform="translate(-73.964 -58.456)" fill="#ffe252" fill-rule="evenodd"/>
        <path id="Path_3431" data-name="Path 3431" d="M108.81,78.372c2.236,0,4.059-1,4.059-2.222s-1.824-2.223-4.059-2.223-4.059,1-4.059,2.222,1.823,2.222,4.059,2.222" transform="translate(-77.622 -54.781)" fill="#f5a40e" fill-rule="evenodd"/>
        <path id="Path_3432" data-name="Path 3432" d="M111.725,78.952l.514.241.47-.3a2.058,2.058,0,0,0,1.694-.171c.864-.555-.57-1.187-.14-1.464a.663.663,0,0,1,.681,0,.552.552,0,0,1,.352.414l.772-.061A.773.773,0,0,0,115.65,77l.457-.293-.514-.241-.466.3a2,2,0,0,0-1.641.16c-.814.523.592,1.173.126,1.473a.718.718,0,0,1-.741,0,.927.927,0,0,1-.495-.524L111.59,78a1.221,1.221,0,0,0,.588.658Z" transform="translate(-82.69 -56.662)" fill="#ffdd30" fill-rule="evenodd"/>
        <g id="Group_460" data-name="Group 460" transform="translate(25.503 14.054)" opacity="0.5">
          <g id="Group_459" data-name="Group 459">
            <g id="Group_458" data-name="Group 458" clip-path="url(#clip-path-10)">
              <g id="Group_457" data-name="Group 457" transform="translate(0 0)">
                <g id="Group_456" data-name="Group 456" clip-path="url(#clip-path-10)">
                  <path id="Path_3433" data-name="Path 3433" d="M106.84,55.582l-1.47-1.015a1.625,1.625,0,0,0-.242-.136c-.024-.011-.049-.02-.074-.03a1.752,1.752,0,0,0-.193-.067l-.081-.02a1.987,1.987,0,0,0-.22-.037l-.062-.007c-.021,0-.04-.006-.06-.007l0,.006c-1.354-.063-3.172,1.1-4.5,3.027s-1.777,4.037-1.238,5.281l0,.006c.008.019.019.036.028.054s.018.035.026.053a1.96,1.96,0,0,0,.113.2c.015.023.03.045.046.068a1.741,1.741,0,0,0,.131.158c.018.019.035.04.054.058a1.607,1.607,0,0,0,.213.178l1.47,1.016c1.327.917,3.762-.305,5.439-2.731s1.958-5.135.63-6.052" transform="translate(-98.472 -54.264)" fill="#161616" fill-rule="evenodd"/>
                </g>
              </g>
            </g>
          </g>
        </g>
        <path id="Path_3434" data-name="Path 3434" d="M101.732,57.255a7.519,7.519,0,0,1,3.535-2.574l.7-.868,1.391,1.122c1.256,1.013.773,3.694-1.078,5.989s-4.37,3.332-5.625,2.319l-1.39-1.122.7-.867a7.517,7.517,0,0,1,1.768-4" transform="translate(-73.555 -39.877)" fill="#e39400" fill-rule="evenodd"/>
        <path id="Path_3435" data-name="Path 3435" d="M102.9,58.695c1.846-2.288,2.331-4.978,1.078-5.988s-3.779.031-5.625,2.319S96.02,60,97.273,61.014s3.779-.032,5.625-2.319" transform="translate(-71.565 -38.77)" fill="#fc0" fill-rule="evenodd"/>
        <path id="Path_3436" data-name="Path 3436" d="M103.477,52.382a1.768,1.768,0,0,1,.906.37,1.682,1.682,0,0,1,.414.5l-6.545,8.112a1.676,1.676,0,0,1-.572-.3,1.766,1.766,0,0,1-.554-.808Z" transform="translate(-71.973 -38.816)" fill="#ffe252" fill-rule="evenodd"/>
        <path id="Path_3437" data-name="Path 3437" d="M105.126,61.367c1.4-1.74,1.772-3.786.82-4.554s-2.875.024-4.278,1.764-1.773,3.786-.819,4.555,2.875-.024,4.278-1.764" transform="translate(-74.338 -41.882)" fill="#f5a40e" fill-rule="evenodd"/>
        <path id="Path_3438" data-name="Path 3438" d="M107.395,64.765l.51-.249.06-.556a2.058,2.058,0,0,0,.931-1.426c.111-1.021-1.282-.3-1.227-.81a.664.664,0,0,1,.426-.531.551.551,0,0,1,.544-.012l.437-.639a.773.773,0,0,0-.736-.057l.058-.54-.51.248-.059.551a2,2,0,0,0-.906,1.378c-.1.962,1.285.276,1.226.826a.717.717,0,0,1-.466.576.927.927,0,0,1-.718.056l-.394.693a1.218,1.218,0,0,0,.881-.045Z" transform="translate(-78.97 -44.422)" fill="#ffdd30" fill-rule="evenodd"/>
        <g id="Group_465" data-name="Group 465" transform="translate(10.999 14.231)" opacity="0.5">
          <g id="Group_464" data-name="Group 464">
            <g id="Group_463" data-name="Group 463" clip-path="url(#clip-path-12)">
              <g id="Group_462" data-name="Group 462" transform="translate(0.001)">
                <g id="Group_461" data-name="Group 461" clip-path="url(#clip-path-13)">
                  <path id="Path_3439" data-name="Path 3439" d="M50.674,61.9l.748-1.373a1.455,1.455,0,0,0,.1-.223c.008-.022.013-.045.019-.068a1.565,1.565,0,0,0,.041-.175c0-.024.007-.049.01-.073a1.735,1.735,0,0,0,.013-.2v-.055c0-.019,0-.035,0-.053l-.005,0c-.057-1.2-1.206-2.712-2.964-3.737s-3.6-1.258-4.623-.688l0,0c-.016.009-.029.019-.044.029l-.044.028a1.672,1.672,0,0,0-.158.115l-.054.046a1.532,1.532,0,0,0-.125.128c-.015.017-.031.034-.045.052a1.419,1.419,0,0,0-.135.2l-.748,1.373c-.675,1.241.572,3.294,2.787,4.584S50,63.142,50.674,61.9" transform="translate(-42.47 -54.953)" fill="#161616" fill-rule="evenodd"/>
                </g>
              </g>
            </g>
          </g>
        </g>
        <path id="Path_3440" data-name="Path 3440" d="M50.082,57.832a6.692,6.692,0,0,1,2.5,2.92l.8.551-.845,1.31c-.763,1.185-3.1.965-5.216-.492s-3.214-3.6-2.45-4.781l.845-1.312.8.55a6.4,6.4,0,0,1,3.57,1.253" transform="translate(-33.067 -41.518)" fill="#e39400" fill-rule="evenodd"/>
        <path id="Path_3441" data-name="Path 3441" d="M50.584,58.637c2.111,1.452,4.455,1.674,5.216.492s-.34-3.329-2.451-4.782-4.455-1.674-5.216-.492.34,3.33,2.451,4.782" transform="translate(-35.488 -39.345)" fill="#fc0" fill-rule="evenodd"/>
        <path id="Path_3442" data-name="Path 3442" d="M56.134,58.9a1.583,1.583,0,0,1-.242.829,1.448,1.448,0,0,1-.39.4l-7.485-5.15a1.466,1.466,0,0,1,.855-1.077Z" transform="translate(-35.581 -39.944)" fill="#ffe252" fill-rule="evenodd"/>
        <path id="Path_3443" data-name="Path 3443" d="M53.7,60.452c1.606,1.1,3.388,1.273,3.967.374s-.259-2.533-1.865-3.637-3.388-1.273-3.967-.374.259,2.532,1.865,3.637" transform="translate(-38.278 -41.673)" fill="#f5a40e" fill-rule="evenodd"/>
        <path id="Path_3444" data-name="Path 3444" d="M55.974,62.53l.255.43.48.01a1.774,1.774,0,0,0,1.3.712c.883.019.153-1.153.592-1.144a.577.577,0,0,1,.49.335.5.5,0,0,1,.055.479l.583.337a.7.7,0,0,0-.012-.653l.466.01-.255-.43L59.45,62.6a1.723,1.723,0,0,0-1.255-.693c-.832-.018-.129,1.154-.606,1.144a.624.624,0,0,1-.53-.366.843.843,0,0,1-.107-.629l-.626-.294a1.113,1.113,0,0,0,.111.774Z" transform="translate(-41.478 -45.77)" fill="#ffdd30" fill-rule="evenodd"/>
        <g id="Group_470" data-name="Group 470" transform="translate(39.447 13.839)" opacity="0.5">
          <g id="Group_469" data-name="Group 469">
            <g id="Group_468" data-name="Group 468" clip-path="url(#clip-path-14)">
              <g id="Group_467" data-name="Group 467">
                <g id="Group_466" data-name="Group 466" clip-path="url(#clip-path-15)">
                  <path id="Path_3445" data-name="Path 3445" d="M160.9,55.6l-.707-1.29a1.329,1.329,0,0,0-.128-.189c-.013-.017-.029-.033-.044-.049a1.393,1.393,0,0,0-.118-.12l-.052-.045a1.554,1.554,0,0,0-.149-.108l-.043-.028a.462.462,0,0,0-.041-.026l0,0c-.974-.547-2.741-.359-4.431.566s-2.8,2.315-2.861,3.43l-.005,0v.1a1.6,1.6,0,0,0,.011.186q0,.033.009.067a1.435,1.435,0,0,0,.038.165c.006.021.011.042.018.062a1.363,1.363,0,0,0,.091.21l.707,1.29c.639,1.165,2.882,1.164,5.011,0s3.337-3.056,2.7-4.221" transform="translate(-152.316 -53.44)" fill="#161616" fill-rule="evenodd"/>
                </g>
              </g>
            </g>
          </g>
        </g>
        <path id="Path_3446" data-name="Path 3446" d="M156.071,56.583a6.189,6.189,0,0,1,3.552-.59l.835-.38.609,1.339c.55,1.209-.795,3-3,4.01s-4.447.84-5-.369l-.609-1.339.835-.38a6.189,6.189,0,0,1,2.778-2.291" transform="translate(-112.974 -41.21)" fill="#e39400" fill-rule="evenodd"/>
        <path id="Path_3447" data-name="Path 3447" d="M157.106,56.689c2.2-1,3.553-2.8,3-4.01s-2.793-1.373-5-.369-3.553,2.8-3,4.01,2.793,1.373,5,.369" transform="translate(-112.624 -38.276)" fill="#fc0" fill-rule="evenodd"/>
        <path id="Path_3448" data-name="Path 3448" d="M159.571,53.267a1.455,1.455,0,0,1,.531.608,1.387,1.387,0,0,1,.121.518l-7.812,3.554a1.385,1.385,0,0,1-.311-.431,1.455,1.455,0,0,1-.109-.8Z" transform="translate(-112.617 -39.472)" fill="#ffe252" fill-rule="evenodd"/>
        <path id="Path_3449" data-name="Path 3449" d="M159.693,58.115c1.676-.763,2.7-2.132,2.284-3.05s-2.124-1.043-3.8-.281-2.7,2.133-2.284,3.05,2.124,1.043,3.8.281" transform="translate(-115.45 -40.227)" fill="#f5a40e" fill-rule="evenodd"/>
        <path id="Path_3450" data-name="Path 3450" d="M161.669,59.041l.466.005.249-.387a1.694,1.694,0,0,0,1.212-.706c.458-.711-.832-.7-.6-1.049a.546.546,0,0,1,.51-.233.454.454,0,0,1,.405.192l.557-.309a.635.635,0,0,0-.521-.313l.242-.376-.466-.006-.247.383a1.645,1.645,0,0,0-1.176.68c-.431.67.844.677.6,1.061a.591.591,0,0,1-.556.252.762.762,0,0,1-.55-.224l-.546.364a1,1,0,0,0,.665.293Z" transform="translate(-119.484 -41.393)" fill="#ffdd30" fill-rule="evenodd"/>
        <g id="Group_475" data-name="Group 475" transform="translate(51.399 8.937)" opacity="0.5">
          <g id="Group_474" data-name="Group 474">
            <g id="Group_473" data-name="Group 473" clip-path="url(#clip-path-16)">
              <g id="Group_472" data-name="Group 472">
                <g id="Group_471" data-name="Group 471" clip-path="url(#clip-path-16)">
                  <path id="Path_3451" data-name="Path 3451" d="M205.029,35.54l-1.153-.8a1.275,1.275,0,0,0-.19-.107l-.058-.023a1.356,1.356,0,0,0-.151-.052l-.064-.016a1.5,1.5,0,0,0-.173-.029l-.049-.005-.047-.005,0,0c-1.062-.05-2.488.864-3.531,2.375s-1.394,3.167-.971,4.144l0,0c.006.015.015.028.022.043s.014.028.022.042a1.585,1.585,0,0,0,.089.154c.012.018.024.035.036.052a1.4,1.4,0,0,0,.1.124c.014.015.027.031.042.046a1.3,1.3,0,0,0,.167.14l1.153.8c1.041.719,2.952-.24,4.266-2.142s1.536-4.029.494-4.748" transform="translate(-198.463 -34.506)" fill="#161616" fill-rule="evenodd"/>
                </g>
              </g>
            </g>
          </g>
        </g>
        <path id="Path_3452" data-name="Path 3452" d="M201.02,36.848a5.906,5.906,0,0,1,2.773-2.02l.549-.681,1.091.881c.984.795.607,2.9-.846,4.7s-3.428,2.616-4.414,1.82l-1.091-.881.549-.681a5.9,5.9,0,0,1,1.387-3.138" transform="translate(-147.524 -25.303)" fill="#e39400" fill-rule="evenodd"/>
        <path id="Path_3453" data-name="Path 3453" d="M201.934,37.982c1.448-1.795,1.828-3.906.846-4.7s-2.965.026-4.414,1.82-1.828,3.905-.846,4.7,2.965-.025,4.413-1.82" transform="translate(-145.961 -24.44)" fill="#fc0" fill-rule="evenodd"/>
        <path id="Path_3454" data-name="Path 3454" d="M202.391,33.028a1.389,1.389,0,0,1,.712.291,1.324,1.324,0,0,1,.324.388l-5.134,6.364a1.324,1.324,0,0,1-.449-.235,1.388,1.388,0,0,1-.434-.634Z" transform="translate(-146.284 -24.474)" fill="#ffe252" fill-rule="evenodd"/>
        <path id="Path_3455" data-name="Path 3455" d="M203.684,40.072c1.1-1.365,1.39-2.97.643-3.574s-2.255.019-3.356,1.384-1.39,2.97-.643,3.574,2.255-.019,3.356-1.384" transform="translate(-148.138 -26.875)" fill="#f5a40e" fill-rule="evenodd"/>
        <path id="Path_3456" data-name="Path 3456" d="M205.466,42.743l.4-.2.047-.436a1.614,1.614,0,0,0,.731-1.119c.087-.8-1.006-.237-.963-.635a.521.521,0,0,1,.334-.417.433.433,0,0,1,.427-.01l.343-.5a.607.607,0,0,0-.577-.045l.046-.423-.4.2-.047.432a1.567,1.567,0,0,0-.711,1.081c-.081.755,1.008.216.962.647a.563.563,0,0,1-.365.452.727.727,0,0,1-.564.044l-.309.544a.956.956,0,0,0,.691-.035Z" transform="translate(-151.775 -28.872)" fill="#ffdd30" fill-rule="evenodd"/>
        <path id="Path_3457" data-name="Path 3457" d="M28.953,70.561a7.515,7.515,0,0,1,3.117,3.067l.97.549-.881,1.554c-.794,1.4-3.519,1.366-6.084-.085s-4-3.766-3.206-5.17l.881-1.554.97.549a7.516,7.516,0,0,1,4.235,1.091" transform="translate(-16.784 -51.072)" fill="#e39400" fill-rule="evenodd"/>
        <path id="Path_3458" data-name="Path 3458" d="M29.477,71.152c2.559,1.447,5.292,1.485,6.084.085s-.649-3.724-3.208-5.171-5.292-1.486-6.084-.085.647,3.723,3.208,5.171" transform="translate(-19.305 -48.133)" fill="#fc0" fill-rule="evenodd"/>
        <path id="Path_3459" data-name="Path 3459" d="M35.823,71.276a1.769,1.769,0,0,1-.217.956,1.68,1.68,0,0,1-.421.489l-9.074-5.132a1.679,1.679,0,0,1,.2-.613,1.766,1.766,0,0,1,.707-.678Z" transform="translate(-19.349 -49.128)" fill="#ffe252" fill-rule="evenodd"/>
        <path id="Path_3460" data-name="Path 3460" d="M33.155,73.047c1.946,1.1,4.025,1.13,4.627.064s-.493-2.832-2.439-3.932-4.025-1.13-4.627-.064.492,2.831,2.439,3.932" transform="translate(-22.638 -50.636)" fill="#f5a40e" fill-rule="evenodd"/>
        <path id="Path_3461" data-name="Path 3461" d="M35.845,75.5l.328.462.558-.031a2.058,2.058,0,0,0,1.559.686c1.025-.058.089-1.314.6-1.343a.662.662,0,0,1,.594.333.551.551,0,0,1,.1.535l.7.327a.772.772,0,0,0-.064-.735l.542-.031-.328-.463-.553.031a2,2,0,0,0-1.508-.668c-.966.055-.062,1.313-.615,1.344a.718.718,0,0,1-.644-.365.926.926,0,0,1-.173-.7l-.748-.275a1.22,1.22,0,0,0,.188.862Z" transform="translate(-26.562 -55.283)" fill="#ffdd30" fill-rule="evenodd"/>
        <path id="Path_3462" data-name="Path 3462" d="M141.159,46.261l17.13,7.4a.268.268,0,0,1,.14.352h0l-2.156,4.99a.268.268,0,0,1-.353.14l-17.13-7.4a.269.269,0,0,1-.14-.353l2.156-4.989a.269.269,0,0,1,.353-.14" transform="translate(-102.726 -34.263)" fill="#83c391"/>
        <path id="Path_3463" data-name="Path 3463" d="M157.039,59.054a.16.16,0,0,1-.21.083l-17.13-7.4a.16.16,0,0,1-.083-.209l2.156-4.989a.159.159,0,0,1,.209-.083l17.129,7.4a.159.159,0,0,1,.083.209Z" transform="translate(-103.449 -34.413)" fill="#7ab987"/>
        <rect id="Rectangle_361" data-name="Rectangle 361" width="5.972" height="0.565" transform="translate(51.376 24.095) rotate(-66.613)" fill="#f7d280"/>
        <rect id="Rectangle_362" data-name="Rectangle 362" width="5.972" height="0.565" transform="translate(47.458 22.401) rotate(-66.613)" fill="#f7d280"/>
        <rect id="Rectangle_363" data-name="Rectangle 363" width="2.564" height="8.656" transform="translate(38.224 16.556) rotate(-66.633)" fill="#83c391"/>
        <path id="Path_3464" data-name="Path 3464" d="M109.907,77.614h17.727a.242.242,0,0,0,.242-.242V73.688a.242.242,0,0,0-.242-.242H109.907a.243.243,0,0,0-.243.242v3.683a.243.243,0,0,0,.243.242" transform="translate(-81.263 -54.425)" fill="#aaaacb"/>
        <path id="Path_3465" data-name="Path 3465" d="M110.6,74.207h17.669a.173.173,0,0,1,.173.173v3.626a.173.173,0,0,1-.173.173H110.6a.173.173,0,0,1-.173-.173h0V74.379a.173.173,0,0,1,.173-.172" transform="translate(-81.827 -54.989)" fill="#a1a1c1"/>
        <rect id="Rectangle_364" data-name="Rectangle 364" width="8.685" height="1.089" transform="translate(30.104 20.561)" fill="#aaaacb"/>
        <rect id="Rectangle_365" data-name="Rectangle 365" width="5.509" height="4.168" transform="translate(40.795 19.021)" fill="#f4b7b8"/>
        <path id="Path_3466" data-name="Path 3466" d="M49.441,54.678,35.98,59.93a.242.242,0,0,1-.314-.138l-.943-2.417a.243.243,0,0,1,.138-.314l13.461-5.251a.243.243,0,0,1,.314.138l.942,2.416a.243.243,0,0,1-.138.314" transform="translate(-25.718 -38.38)" fill="#e6816c"/>
        <path id="Path_3467" data-name="Path 3467" d="M34.882,58.114a.144.144,0,0,1,.082-.186l13.46-5.251a.144.144,0,0,1,.186.082l.942,2.416a.144.144,0,0,1-.082.186l-13.46,5.251a.144.144,0,0,1-.186-.082Z" transform="translate(-25.841 -39.027)" fill="#dc7863"/>
        <rect id="Rectangle_366" data-name="Rectangle 366" width="5.108" height="0.725" transform="translate(10.637 19.955) rotate(-21.279)" fill="#cf6b56"/>
        <rect id="Rectangle_367" data-name="Rectangle 367" width="3.72" height="0.473" transform="matrix(0.932, -0.363, 0.363, 0.932, 10.253, 19.055)" fill="#cf6b56"/>
        <path id="Path_3468" data-name="Path 3468" d="M54.376,66.7,40.8,71.993a.268.268,0,0,1-.347-.153l-1.378-3.529a.268.268,0,0,1,.153-.348l13.576-5.3a.268.268,0,0,1,.348.153l1.376,3.529a.268.268,0,0,1-.153.348" transform="translate(-28.942 -46.425)" fill="#96b9b9"/>
        <path id="Path_3469" data-name="Path 3469" d="M39.248,69.129a.16.16,0,0,1,.09-.207h0l13.577-5.3a.16.16,0,0,1,.207.09h0L54.5,67.246a.16.16,0,0,1-.09.207l-13.578,5.3a.16.16,0,0,1-.207-.09Z" transform="translate(-29.075 -47.14)" fill="#87abac"/>
        <path id="Path_3470" data-name="Path 3470" d="M73,69.877l-4.463,1.741.753,1.929L69.4,73.5l4.348-1.7Zm-.14.319.573,1.471-4,1.562-.573-1.471Z" transform="translate(-50.785 -51.78)" fill="#749898"/>
        <rect id="Rectangle_368" data-name="Rectangle 368" width="4.281" height="0.713" transform="translate(11.925 22.91) rotate(-21.312)" fill="#749898"/>
        <g id="Group_480" data-name="Group 480" transform="translate(16.198 19.785)" opacity="0.5">
          <g id="Group_479" data-name="Group 479">
            <g id="Group_478" data-name="Group 478" clip-path="url(#clip-path-18)">
              <g id="Group_477" data-name="Group 477" transform="translate(0.001 0)">
                <g id="Group_476" data-name="Group 476" clip-path="url(#clip-path-18)">
                  <path id="Path_3471" data-name="Path 3471" d="M73.184,79.329l-.71-1.639a1.637,1.637,0,0,0-.133-.243c-.015-.022-.031-.043-.047-.064a1.685,1.685,0,0,0-.129-.159c-.019-.02-.038-.04-.058-.06a1.976,1.976,0,0,0-.168-.148l-.049-.039c-.017-.013-.03-.026-.047-.038l-.006,0c-1.116-.77-3.274-.743-5.421.187s-3.644,2.486-3.845,3.826l-.007,0c0,.02,0,.04-.005.061s0,.04-.005.06a1.93,1.93,0,0,0-.007.226c0,.027,0,.055,0,.082a1.746,1.746,0,0,0,.028.2c0,.026.008.052.015.078a1.624,1.624,0,0,0,.086.263l.71,1.639c.641,1.481,3.354,1.731,6.059.56s4.377-3.321,3.737-4.8" transform="translate(-62.545 -76.396)" fill="#161616" fill-rule="evenodd"/>
                </g>
              </g>
            </g>
          </g>
        </g>
        <path id="Path_3472" data-name="Path 3472" d="M64.217,80.3a7.531,7.531,0,0,1,4.371-.1l1.07-.314.5,1.714c.455,1.548-1.469,3.477-4.3,4.309s-5.49.25-5.945-1.3l-.5-1.712,1.07-.314a7.507,7.507,0,0,1,3.731-2.279" transform="translate(-44.028 -59.198)" fill="#e39400" fill-rule="evenodd"/>
        <path id="Path_3473" data-name="Path 3473" d="M65.172,79.41c2.82-.829,4.751-2.765,4.3-4.308s-3.125-2.127-5.945-1.3-4.751,2.764-4.3,4.308,3.124,2.127,5.944,1.3" transform="translate(-43.84 -54.41)" fill="#fc0" fill-rule="evenodd"/>
        <path id="Path_3474" data-name="Path 3474" d="M68.932,76.721a1.769,1.769,0,0,1,.535.821,1.689,1.689,0,0,1,.058.643l-10,2.94a1.676,1.676,0,0,1-.3-.572,1.766,1.766,0,0,1,.005-.98Z" transform="translate(-43.837 -56.851)" fill="#ffe252" fill-rule="evenodd"/>
        <path id="Path_3475" data-name="Path 3475" d="M68.526,80.913c2.145-.631,3.613-2.1,3.268-3.276s-2.377-1.618-4.521-.987S63.66,78.753,64,79.927s2.376,1.617,4.521.986" transform="translate(-47.391 -56.586)" fill="#f5a40e" fill-rule="evenodd"/>
        <path id="Path_3476" data-name="Path 3476" d="M71.082,81.514l.561.086.366-.422a2.057,2.057,0,0,0,1.577-.642c.673-.777-.881-.978-.547-1.365a.663.663,0,0,1,.653-.194.551.551,0,0,1,.454.3L74.868,79a.772.772,0,0,0-.572-.466l.355-.411-.561-.086-.363.419a2,2,0,0,0-1.53.617c-.633.732.9.958.537,1.377a.718.718,0,0,1-.711.207A.926.926,0,0,1,71.4,80.3l-.718.347a1.221,1.221,0,0,0,.75.466Z" transform="translate(-52.379 -57.827)" fill="#ffdd30" fill-rule="evenodd"/>
        <g id="Group_485" data-name="Group 485" transform="translate(40.495 18.274)" opacity="0.5">
          <g id="Group_484" data-name="Group 484">
            <g id="Group_483" data-name="Group 483" clip-path="url(#clip-path-20)">
              <g id="Group_482" data-name="Group 482">
                <g id="Group_481" data-name="Group 481" clip-path="url(#clip-path-21)">
                  <path id="Path_3477" data-name="Path 3477" d="M165.146,72.066l-1.391-1.122a1.65,1.65,0,0,0-.231-.153c-.023-.013-.048-.023-.071-.035a1.692,1.692,0,0,0-.188-.081c-.026-.009-.052-.018-.08-.026a1.885,1.885,0,0,0-.217-.052l-.062-.012c-.021,0-.039-.008-.059-.011l0,.005c-1.347-.164-3.245.863-4.714,2.684s-2.072,3.894-1.627,5.175l0,.006c.007.019.016.037.024.056s.016.037.023.055a1.994,1.994,0,0,0,.1.2c.013.024.026.048.041.071A1.732,1.732,0,0,0,156.8,79c.017.021.032.042.049.062a1.646,1.646,0,0,0,.2.193l1.39,1.122c1.256,1.013,3.774-.026,5.626-2.319s2.333-4.976,1.078-5.989" transform="translate(-156.359 -70.562)" fill="#161616" fill-rule="evenodd"/>
                </g>
              </g>
            </g>
          </g>
        </g>
        <path id="Path_3478" data-name="Path 3478" d="M153.406,72.1a8.059,8.059,0,0,1,4.48-1.376l1.012-.635,1.018,1.623c.919,1.465-.505,4.014-3.182,5.695s-5.593,1.854-6.512.388l-1.018-1.622,1.012-.635a8.052,8.052,0,0,1,3.188-3.437" transform="translate(-110.563 -51.935)" fill="#e39400" fill-rule="evenodd"/>
        <path id="Path_3479" data-name="Path 3479" d="M154.928,72.945c2.669-1.675,4.1-4.233,3.182-5.695s-3.842-1.287-6.512.388-4.1,4.233-3.182,5.695,3.842,1.287,6.512-.388" transform="translate(-109.773 -49.099)" fill="#fc0" fill-rule="evenodd"/>
        <path id="Path_3480" data-name="Path 3480" d="M157.313,67.416a1.894,1.894,0,0,1,.79.692,1.793,1.793,0,0,1,.246.647l-9.465,5.939a1.8,1.8,0,0,1-.475-.5,1.9,1.9,0,0,1-.279-1.012Z" transform="translate(-109.767 -49.956)" fill="#ffe252" fill-rule="evenodd"/>
        <path id="Path_3481" data-name="Path 3481" d="M158.042,75.073c2.03-1.274,3.117-3.219,2.42-4.33s-2.922-.977-4.952.3-3.117,3.219-2.42,4.331,2.922.978,4.952-.3" transform="translate(-113.286 -51.863)" fill="#f5a40e" fill-rule="evenodd"/>
        <path id="Path_3482" data-name="Path 3482" d="M160.507,76.819l.6-.074.255-.544a2.2,2.2,0,0,0,1.441-1.12c.468-1-1.194-.754-.961-1.249a.71.71,0,0,1,.617-.39.591.591,0,0,1,.556.178l.666-.495a.829.829,0,0,0-.725-.314l.248-.527-.6.074-.253.537a2.141,2.141,0,0,0-1.4,1.081c-.44.939,1.207.727.954,1.265a.768.768,0,0,1-.673.421.994.994,0,0,1-.747-.193l-.641.565a1.309,1.309,0,0,0,.909.262Z" transform="translate(-118.448 -53.564)" fill="#ffdd30" fill-rule="evenodd"/>
        <path id="Path_3483" data-name="Path 3483" d="M9.608,51.7c0-1.738,1.079-3.148,2.41-3.148-1.331,0-2.41-1.409-2.41-3.148,0,1.739-1.079,3.148-2.41,3.148,1.331,0,2.41,1.409,2.41,3.148" transform="translate(-5.334 -33.645)" fill="#ffe266"/>
        <path id="Path_3484" data-name="Path 3484" d="M1.712,32.4a1.952,1.952,0,0,1,1.581-2.2,1.951,1.951,0,0,1-1.712-2.1A1.952,1.952,0,0,1,0,30.3a1.951,1.951,0,0,1,1.712,2.1" transform="translate(0 -20.821)" fill="#ffe266"/>
        <path id="Path_3485" data-name="Path 3485" d="M246.874,38.674c0,1.464-.908,2.65-2.029,2.65,1.121,0,2.029,1.186,2.029,2.65,0-1.463.909-2.65,2.029-2.65-1.121,0-2.029-1.186-2.029-2.65" transform="translate(-181.434 -28.658)" fill="#ffe266"/>
      </g>
    </g>
    <g id="Group_489" data-name="Group 489">
      <g id="Group_488" data-name="Group 488" clip-path="url(#clip-path)">
        <path id="Path_3486" data-name="Path 3486" d="M69.32,123.652H21.839a2.464,2.464,0,0,1-2.448-2.15L16.647,92c-.136-1.467-.285-2.666,1.108-2.666h55.69c1.394,0,1.2,1.2,1.066,2.668l-2.744,29.5a2.463,2.463,0,0,1-2.448,2.15" transform="translate(-12.274 -66.199)" fill="#ffe266"/>
        <path id="Path_3487" data-name="Path 3487" d="M34.288,130.733,32.3,106.189a1.209,1.209,0,0,1,1.186-1.356H80.982a1.207,1.207,0,0,1,1.186,1.357l-1.985,24.544a1.282,1.282,0,0,1-1.275,1.14H35.563a1.282,1.282,0,0,1-1.275-1.14" transform="translate(-23.931 -77.683)" fill="#175653"/>
        <path id="Path_3488" data-name="Path 3488" d="M36.036,111.974l1.774,22.743a1.01,1.01,0,0,0,1,.9H81.192a1.01,1.01,0,0,0,1-.9l1.775-22.743a.946.946,0,0,0-.932-1.059H36.968a.946.946,0,0,0-.932,1.059" transform="translate(-26.698 -82.19)" fill="#308482"/>
        <path id="Path_3489" data-name="Path 3489" d="M35.188,131.945l-.07-.872H83.632l-.07.872Z" transform="translate(-26.023 -97.127)" fill="#175653"/>
        <path id="Path_3490" data-name="Path 3490" d="M37.416,159.781l-.066-.831H84.707l-.067.831Z" transform="translate(-27.677 -117.784)" fill="#175653"/>
        <path id="Path_3491" data-name="Path 3491" d="M39.536,186.321l-.063-.792H85.728l-.064.792Z" transform="translate(-29.25 -137.48)" fill="#175653"/>
        <path id="Path_3492" data-name="Path 3492" d="M205.57,194.8h.017l-.285,3.55h-3.759a4.05,4.05,0,0,1,4.027-3.55" transform="translate(-149.346 -144.351)" fill="#308482"/>
        <path id="Path_3493" data-name="Path 3493" d="M39.782,194.8h-.017l.285,3.55h3.759a4.051,4.051,0,0,0-4.027-3.55" transform="translate(-29.466 -144.351)" fill="#308482"/>
        <path id="Path_3494" data-name="Path 3494" d="M207.666,196.752h.018l-.309,3.742H203.4a4.286,4.286,0,0,1,4.262-3.743" transform="translate(-150.726 -145.796)" fill="#ffe266"/>
        <path id="Path_3495" data-name="Path 3495" d="M37.291,196.752h-.018l.309,3.742h3.97a4.286,4.286,0,0,0-4.262-3.743" transform="translate(-27.62 -145.796)" fill="#ffe266"/>
        <path id="Path_3496" data-name="Path 3496" d="M24.162,96.263a.813.813,0,0,1-.7.913h0a.758.758,0,0,1-.1.007,1,1,0,0,1-.952-.92.813.813,0,0,1,.691-.918.77.77,0,0,1,.1-.008,1,1,0,0,1,.952.926" transform="translate(-16.605 -70.646)" fill="#f2ad22"/>
        <path id="Path_3497" data-name="Path 3497" d="M229.564,96.262a1,1,0,0,1-.952.92.813.813,0,0,1-.8-.824h0a.86.86,0,0,1,.007-.1,1,1,0,0,1,.952-.926.813.813,0,0,1,.794.926" transform="translate(-168.811 -70.645)" fill="#f2ad22"/>
        <path id="Path_3498" data-name="Path 3498" d="M39.134,205.956a.826.826,0,0,1-.762.885.85.85,0,0,1-.092,0,1,1,0,0,1-1-.887.825.825,0,0,1,.854-.892,1,1,0,0,1,1,.892" transform="translate(-27.625 -151.955)" fill="#f2ad22"/>
        <path id="Path_3499" data-name="Path 3499" d="M215.118,206.7a1,1,0,0,1-1,.885.825.825,0,0,1-.856-.792.816.816,0,0,1,0-.094,1,1,0,0,1,1-.891.824.824,0,0,1,.855.792.8.8,0,0,1,0,.1" transform="translate(-158.032 -152.504)" fill="#f2ad22"/>
        <path id="Path_3500" data-name="Path 3500" d="M115.31,115.009h-5.62a2.806,2.806,0,0,1-2.75-2.8l-.069-3.8h11.257l-.069,3.8a2.806,2.806,0,0,1-2.75,2.8" transform="translate(-79.192 -80.336)" fill="#308482"/>
        <path id="Path_3501" data-name="Path 3501" d="M117.322,100.432H112.4a2.3,2.3,0,0,1-2.253-2.3l-.083-5.4a2.317,2.317,0,0,1,2.211-2.419l.042,0H117.4a2.318,2.318,0,0,1,2.255,2.379l0,.042-.083,5.4a2.3,2.3,0,0,1-2.253,2.3" transform="translate(-81.555 -66.923)" fill="#ffe266"/>
        <path id="Path_3502" data-name="Path 3502" d="M126.045,103.594a1.373,1.373,0,1,0-2.742-.15,1.322,1.322,0,0,0,0,.15,1.457,1.457,0,0,0,.622,1.2l0,2.024a.593.593,0,0,0,.581.6h.328a.593.593,0,0,0,.581-.6l0-2.024a1.457,1.457,0,0,0,.622-1.2" transform="translate(-91.368 -75.692)" fill="#fff7ae"/>
        <path id="Path_3503" data-name="Path 3503" d="M126.172,102.441a1.3,1.3,0,1,1-1.3-1.373,1.336,1.336,0,0,1,1.3,1.368v.006" transform="translate(-91.566 -74.893)" fill="#684e46"/>
        <path id="Path_3504" data-name="Path 3504" d="M126.709,110.341H126.4a.562.562,0,0,1-.551-.572l-.007-2.941h1.428l-.007,2.941a.562.562,0,0,1-.551.572" transform="translate(-93.249 -79.161)" fill="#684e46"/>
        <path id="Path_3505" data-name="Path 3505" d="M43.4,90.972H22.7a.358.358,0,0,1-.018-.716H43.4a.358.358,0,0,1,.018.716H43.4" transform="translate(-16.554 -66.881)" fill="#fff7ae"/>
        <path id="Path_3506" data-name="Path 3506" d="M173.286,90.972H152.633a.358.358,0,0,1,0-.716h20.653a.358.358,0,0,1,0,.716" transform="translate(-112.845 -66.881)" fill="#fff7ae"/>
        <path id="Path_3507" data-name="Path 3507" d="M106.567,90.37a1.026,1.026,0,0,1,1.007-1.044h.741a.855.855,0,0,0-.846.829l-.009.293.045,2.9h-.883Z" transform="translate(-78.968 -66.192)" fill="#f2ad22"/>
        <path id="Path_3508" data-name="Path 3508" d="M144.093,89.325h.671a1.026,1.026,0,0,1,1.026,1.025v.019l-.054,2.968h-.881l.046-2.976,0-.223a.829.829,0,0,0-.8-.813" transform="translate(-106.775 -66.191)" fill="#f2ad22"/>
        <path id="Path_3509" data-name="Path 3509" d="M119.988,90.132h-8.112a.359.359,0,0,1,0-.716h8.112a.346.346,0,0,1,.332.358s-.014.358-.332.358" transform="translate(-82.655 -66.259)" fill="#fff7ae"/>
      </g>
    </g>
  </g>
</svg>
