<svg xmlns="http://www.w3.org/2000/svg" xmlns:xlink="http://www.w3.org/1999/xlink" width="46" height="46" viewBox="0 0 46 46">
  <defs>
    <clipPath id="clip-path">
      <rect id="Rectangle_380" data-name="Rectangle 380" width="46" height="46" fill="none"/>
    </clipPath>
  </defs>
  <g id="icon-house" transform="translate(-1085.664 -902)">
    <g id="Group_492" data-name="Group 492" transform="translate(1085.664 902)" clip-path="url(#clip-path)">
      <path id="Path_3517" data-name="Path 3517" d="M38.4,22.562a1.255,1.255,0,0,0-1.32,1.374V43.06H27.653V35.307a1.341,1.341,0,0,0-1.187-1.376H19.655a1.466,1.466,0,0,0-1.442,1.376V43.06H8.907V24.625A1.326,1.326,0,0,0,7.6,23.25a1.253,1.253,0,0,0-1.309,1.374V44.613A1.355,1.355,0,0,0,7.6,46H19.655a1.343,1.343,0,0,0,1.177-1.387v-7.92h4.193v7.92A1.482,1.482,0,0,0,26.466,46H38.4a1.456,1.456,0,0,0,1.31-1.387V23.936a1.326,1.326,0,0,0-1.31-1.374m7.2,1.032h0C36.949,14.287,31.58,8.608,23.848.51A1.036,1.036,0,0,0,23.061,0a1.294,1.294,0,0,0-1.043.51L.388,23.427A1.736,1.736,0,0,0,0,24.459a1.016,1.016,0,0,0,.388.854,1.079,1.079,0,0,0,1.841,0L23.061,3.439,43.77,25.657a1.273,1.273,0,0,0,.921.343,1.375,1.375,0,0,0,.91-2.407" transform="translate(0 0)" fill="#308582" fill-rule="evenodd"/>
    </g>
  </g>
</svg>
