<svg width="630" height="232" viewBox="0 0 630 232" fill="none" xmlns="http://www.w3.org/2000/svg">
<path d="M179.18 22.78C184.64 18.94 189.98 14.26 193.94 9.64C197.84 14.26 202.82 18.88 208.34 22.78H179.18ZM197.54 42.1H213.26V35.92H197.54V29.08H210.38V24.16C212.84 25.78 215.36 27.22 217.94 28.42C219.02 26.38 221.24 23.44 222.74 21.88C212.54 18.16 202.94 10.6 197.78 3.04H177.26V9.64H185.24C179.6 14.98 172.16 19.96 165.5 22.66C167.12 24.22 168.86 26.68 169.88 28.42C172.34 27.16 174.92 25.66 177.5 23.92V29.08H190.1V35.92H174.56V42.1H190.1V49.36H168.68V55.72H219.74V49.36H197.54V42.1ZM231.02 38.8C229.76 42.52 227.78 46.6 225.74 49.42C227.06 50.2 229.34 51.76 230.42 52.66C232.52 49.6 234.98 44.68 236.48 40.36L231.02 38.8ZM245.12 12.94C244.52 15.16 243.44 18.22 242.54 20.38H233.9L238.22 19.18C237.92 17.5 237.14 14.92 236.24 12.94H245.12ZM254.18 36.88V30.88H244.88V26.26H255.14V20.38H248.9C249.8 18.52 250.7 16.18 251.6 13.9L246.74 12.94H254.24V7.12H245.66C244.94 5.08 243.86 2.62 242.96 0.639996L235.82 2.38C236.42 3.82 237.08 5.5 237.62 7.12H227.36V12.94H235.46L230.54 14.14C231.26 16 231.98 18.58 232.28 20.38H226.46V26.26H237.98V30.88H226.82V36.88H237.98V56.8H244.88V36.88H254.18ZM281.9 20.92H263.78V11.5C269.66 10.42 275.9 8.98 280.82 7L275.36 1.78C270.98 3.82 263.72 5.68 257.18 6.88V28.24C257.18 33.76 257 40.24 255.32 46C254.3 43.72 252.44 40.54 250.82 38.14L246.14 40.66C247.82 43.42 249.86 47.26 250.82 49.66L255.08 47.02C254.42 49.12 253.52 51.1 252.38 52.84C253.88 53.56 256.7 55.84 257.9 57.1C263 49.42 263.78 37.06 263.78 28.24V27.52H269.36V56.98H276.32V27.52H281.9V20.92ZM341.48 24.82H329.3V2.14H321.98V24.82H306.74V11.98C310.64 10.6 314.42 9.16 317.78 7.48L312.62 1.48C306.32 5.2 296.36 8.68 287 10.78C287.96 12.4 289.1 14.98 289.46 16.66C292.76 15.94 296.24 15.1 299.6 14.14V24.82H286.64V31.66H299.36C298.7 39.16 295.94 46.54 286.04 51.82C287.72 53.02 290.18 55.66 291.2 57.34C302.96 50.86 305.96 41.26 306.56 31.66H321.98V57.22H329.3V31.66H341.48V24.82ZM348.5 24.88C349.4 24.4 350.78 24.04 355.46 23.5C353.78 25.84 352.34 27.52 351.56 28.36C349.64 30.58 348.32 31.9 346.7 32.32C347.54 34.06 348.62 37.36 348.98 38.62C350.3 37.84 352.52 37.36 365.24 35.08C365.54 36.16 365.72 37.18 365.84 38.02L371.06 35.92C370.52 32.68 368.66 27.76 366.74 23.98L361.94 25.78C362.54 26.98 363.08 28.36 363.62 29.8L357.32 30.7C361.94 25.54 366.38 19.36 369.8 13.24L363.86 9.46C362.66 12.16 361.1 14.86 359.54 17.38L355.34 17.68C358.4 13.48 361.28 8.38 363.44 3.52L356.9 0.879997C354.74 7.12 350.96 13.72 349.76 15.34C348.5 17.14 347.48 18.22 346.28 18.58C347.06 20.38 348.14 23.5 348.5 24.88ZM348.68 40.6C348.32 45.4 347.66 50.74 346.22 54.28C347.72 54.64 350.36 55.48 351.56 56.14C352.82 52.48 353.78 46.78 354.2 41.5L348.68 40.6ZM355.58 41.38C356.18 45.16 356.78 50.2 356.84 53.44L362 52.12C361.82 48.94 361.16 44.02 360.44 40.18L355.58 41.38ZM392.96 26.86C391.88 31 390.38 34.84 388.52 38.26C386.48 34.84 384.92 30.94 383.84 26.86H392.96ZM388.16 10.36C387.68 13.6 387.08 17.26 386.42 20.5H380.96C381.08 17.26 381.2 13.84 381.26 10.36H388.16ZM396.44 20.26L395.3 20.5H393.08C394.1 15.28 395.18 9.22 395.78 4.06L390.8 3.4L389.78 3.7H369.38V10.36H374.36C374.3 25.06 373.46 37.9 369.44 47.08C368.78 44.56 367.7 41.26 366.68 38.56L361.94 40.12C363.02 43.18 364.22 47.26 364.7 49.78L368.84 48.28C368.12 49.78 367.28 51.22 366.32 52.48C368 53.38 371.36 55.78 372.44 56.92C376.46 50.86 378.62 43.12 379.82 34C381.14 37.72 382.7 41.26 384.5 44.32C381.92 47.56 378.92 50.14 375.68 51.94C377.24 53.2 379.1 55.6 380.18 57.28C383.36 55.3 386.18 52.96 388.76 50.08C391.22 52.9 394.1 55.18 397.46 56.92C398.54 55 400.64 52.3 402.2 50.98C398.66 49.42 395.6 47.2 393.02 44.38C396.8 38.38 399.5 30.82 401 21.82L396.44 20.26ZM415.04 44.74V32.98H424.58V44.74H415.04ZM424.58 26.8H415.04V17.08H424.58V26.8ZM443.66 10.42C444.56 7.9 445.34 5.38 446 2.8L439.16 1.24C437.42 8.26 434.54 15.52 431.06 20.56V10.84H421.76C422.78 8.26 423.86 5.26 424.88 2.26L417.08 1.18C416.84 4 416.12 7.84 415.34 10.84H408.56V55.42H415.04V51.04H431.06V23.02C432.68 24.1 434.72 25.48 435.68 26.38C437.54 23.8 439.4 20.5 440.96 16.9H453.8C453.14 38.08 452.36 47.08 450.62 49C449.84 49.78 449.18 50.02 447.98 50.02C446.42 50.02 442.88 50.02 439.04 49.66C440.3 51.64 441.26 54.64 441.38 56.62C444.92 56.74 448.52 56.8 450.8 56.5C453.2 56.08 454.88 55.42 456.56 53.2C459.02 50.02 459.68 40.48 460.46 13.66C460.52 12.82 460.52 10.42 460.52 10.42H443.66ZM450.56 37.78C448.7 34.3 444.74 28.6 441.74 24.46L436.16 27.64C439.1 32.02 442.82 37.9 444.5 41.5L450.56 37.78ZM159.98 210.64C159.32 207.46 157.7 202.12 156.08 198.1L150.92 199.78C151.4 201.22 151.94 202.72 152.42 204.34L146.12 205.12C150.74 199.96 155.24 193.78 158.66 187.66L152.66 183.82C151.46 186.46 149.96 189.1 148.46 191.56L144.38 191.86C147.56 187.6 150.62 182.44 152.9 177.4L146.48 174.7C144.2 181.12 140.3 187.78 138.98 189.46C137.78 191.26 136.7 192.4 135.5 192.76C136.28 194.44 137.3 197.56 137.66 198.88C138.56 198.46 139.88 198.1 144.44 197.56C142.76 199.84 141.38 201.58 140.66 202.36C138.74 204.58 137.42 205.9 135.8 206.32C136.64 208.12 137.78 211.42 138.14 212.74C139.52 212.08 141.68 211.54 153.8 209.74C154.04 210.82 154.22 211.78 154.34 212.62L159.98 210.64ZM138.26 214.6C137.9 219.64 137.12 225.22 135.74 228.82C137.3 229.3 140.18 230.2 141.5 230.92C142.82 227.08 143.84 221.14 144.26 215.56L138.26 214.6ZM145.52 215.38C146.24 219.64 146.9 225.28 146.96 228.94L152.6 227.74C152.36 224.08 151.7 218.68 150.86 214.36L145.52 215.38ZM152.12 214.18C153.32 217.84 154.64 222.58 155.18 225.64L160.46 223.84C159.8 220.78 158.42 216.16 157.1 212.62L152.12 214.18ZM181.28 212.14V222.1H168.5V212.14H181.28ZM161.54 231.34H168.5V228.4H181.28V231.28H188.54V205.84H161.54V231.34ZM167.96 194.5C170.54 191.68 172.76 188.68 174.8 185.38C176.9 188.56 179.24 191.68 181.76 194.5H167.96ZM172.34 175C169.22 183.1 163.04 191.2 155.48 196C156.98 197.2 159.32 199.66 160.34 201.16C161.72 200.2 163.1 199.12 164.36 197.98V200.92H184.22V197.14C185.48 198.4 186.74 199.54 188.06 200.5C189.26 198.7 191.6 196.06 193.34 194.74C187.76 191.26 181.7 185.02 177.98 179.08C178.34 178.42 178.52 177.7 178.82 176.98L172.34 175ZM208.34 175.42C205.34 183.94 200.12 192.46 194.72 197.86C195.92 199.6 197.9 203.5 198.56 205.3C199.88 203.86 201.26 202.24 202.58 200.44V231.1H209.42V189.82C211.64 185.86 213.56 181.66 215.12 177.52L208.34 175.42ZM219.44 201.88C218.06 208.54 215.54 215.32 212.12 219.52C213.86 220.42 216.86 222.22 218.24 223.36C221.6 218.5 224.66 210.94 226.4 203.32L219.44 201.88ZM244.4 192.52C244.1 195.16 243.74 197.68 243.44 199.54L249.5 200.56C250.34 197.08 251.36 191.5 252.08 186.64L247.04 185.68L245.9 185.92H225.26C226.34 182.98 227.3 180.04 228.08 176.98L221.12 175.42C219.08 183.64 215.48 191.92 210.92 197.02C212.54 198.1 215.42 200.44 216.68 201.7C218.66 199.18 220.64 196 222.32 192.52H229.28V223.12C229.28 223.9 228.98 224.14 228.2 224.14C227.36 224.14 224.84 224.14 222.32 224.08C223.4 226 224.48 229.18 224.78 231.28C228.62 231.28 231.5 230.98 233.6 229.84C235.76 228.64 236.36 226.66 236.36 223.24V192.52H244.4ZM238.52 203.44C241.4 209.62 243.92 217.84 244.58 223.18L251.42 220.84C250.58 215.44 248 207.46 244.88 201.28L238.52 203.44ZM279.56 212.44C278.84 214.36 277.82 216.04 276.08 217.66C273.86 216.28 272 214.6 270.26 212.44H279.56ZM269.66 202.72H280.7V204.64C280.7 205.3 280.7 205.96 280.64 206.62H269.66V202.72ZM269.66 193.54H280.7V197.38H269.66V193.54ZM299.48 193.54V197.38H288.2V193.54H299.48ZM299.48 206.62H288.14C288.2 205.96 288.2 205.3 288.2 204.7V202.72H299.48V206.62ZM306.56 212.44V187.78H288.2V184.24H310.28V177.88H257.72V184.24H280.7V187.78H262.94V212.44H269.3L263.84 214.66C265.64 217.3 267.68 219.58 270.02 221.38C266.6 222.82 262.22 224.02 256.46 224.92C258.02 226.6 259.94 229.6 260.78 231.28C267.74 229.9 273.02 227.92 277.04 225.64C285.62 229.42 296.66 230.32 309.68 230.62C310.1 228.16 311.42 225.16 312.74 223.54C300.56 223.6 290.72 223.36 282.92 220.78C285.14 218.32 286.52 215.44 287.3 212.44H306.56ZM332.12 193.96C331.94 198.64 331.22 204.1 329.12 209.5C327.62 208.18 326.06 206.86 324.56 205.6C325.34 202.18 326.06 198.28 326.78 194.32L332.12 193.96ZM341.96 193.3V186.88L338.84 187.06V183.64H332.18V187.42L327.86 187.66C328.52 183.52 329 179.44 329.36 175.6L322.28 175.3C322.04 179.32 321.56 183.64 320.96 187.96C319.16 188.02 317.42 188.08 315.86 188.14L316.52 194.92L319.88 194.68C319.04 199.6 318.02 204.16 317.06 207.76C319.76 210.16 322.94 213.04 326 215.86C323.66 219.64 320.36 223.18 315.86 226.36C317.48 227.5 319.82 229.84 320.9 231.34C325.34 228.1 328.58 224.56 331.1 220.78C333.56 223.24 335.72 225.58 337.22 227.5L341.9 221.56C340.16 219.46 337.52 217 334.64 214.3C337.76 207.16 338.6 199.72 338.78 193.54L341.96 193.3ZM372.02 199.84H360.02V195.34C364.28 191.38 368.24 186.34 371.06 181.96L366.26 178.48L364.58 178.84H342.32V185.32H359.9C357.8 188.44 355.16 191.8 352.58 194.08V199.84H339.98V206.62H352.58V223.36C352.58 224.26 352.28 224.5 351.26 224.5C350.3 224.5 346.82 224.5 343.82 224.44C344.84 226.3 345.86 229.24 346.22 231.22C350.9 231.28 354.32 231.1 356.72 230.08C359.24 228.94 360.02 227.14 360.02 223.48V206.62H372.02V199.84ZM408.38 205.24H414.92V208.96H408.38V205.24ZM431.06 208.96H421.52V205.24H428.9V200.08H421.52V196.9H414.92V200.08H408.38V196.9H401.84V200.08H394.52V205.24H401.84V208.96H392.36V214.12H403.34C400.82 215.92 396.86 217.6 393.08 218.8C394.64 219.76 397.16 221.86 398.42 223.06C402.38 221.44 407.18 218.62 410.18 215.86L405.08 214.12H417.68L413.96 216.58C417.56 218.38 421.4 220.96 423.56 222.82L429.92 219.88C427.52 218.2 423.62 215.98 419.96 214.12H431.06V208.96ZM423.8 181.6V184.3H418.46V181.6H423.8ZM426.32 196.06C427.94 196.06 429.74 195.94 430.76 195.64C430.58 194.32 430.4 192.34 430.28 190.84C429.26 191.14 427.34 191.2 426.14 191.2H419.96C418.7 191.2 418.46 190.6 418.46 188.92V188.62H429.86V177.22H412.82V188.86C412.82 194.02 414.14 196.06 419.54 196.06H426.32ZM404.6 181.54V184.24H399.44V181.54H404.6ZM399.44 191.5V188.56H410.54V177.16H393.92V188.62C393.92 191.02 392.9 192.04 391.94 192.52C392.84 193.78 393.98 196.36 394.28 197.8C395.48 197.2 397.4 196.84 409.64 194.8C409.76 193.6 410.18 191.38 410.66 189.94L399.44 191.5ZM390.62 184.24C388.82 181.84 385.4 178.12 382.58 175.24L377.3 178.54C380.06 181.48 383.54 185.68 385.1 188.2L390.62 184.24ZM389.06 203.44L387.92 203.62H384.62C387.32 199.48 390.62 193.84 392.48 190.54L388.16 188.86L387.2 189.22H376.76V194.86H383.54C381.68 198.04 379.58 201.4 378.68 202.42C377.72 203.62 376.76 204.1 375.8 204.34C376.46 205.6 377.72 208.6 378.08 210.04C378.62 209.56 380.3 209.14 381.56 209.14H385.46C383.78 217.12 380.3 223.06 375.38 226.48C376.7 227.38 379.04 229.84 379.94 231.28C382.7 229.18 385.04 226.42 387.02 222.76C391.58 229.06 398.54 230.2 409.64 230.2C416.66 230.2 424.34 230.08 430.58 229.66C430.94 227.74 431.84 224.5 432.8 223.06C426.08 223.72 416.18 224.08 409.82 224.08C399.86 224.02 393.08 223.24 389.6 216.94C390.86 213.4 391.76 209.32 392.42 204.7L389.06 203.44ZM453.86 200.32C452.3 200.74 450.8 201.22 449.24 201.64V193.12H454.46V186.52H449.24V175.24H442.7V186.52H436.46V193.12H442.7V203.38C440 204.04 437.66 204.64 435.62 205.12L437.18 212.02L442.7 210.4V223.54C442.7 224.32 442.4 224.56 441.68 224.56C440.96 224.62 438.92 224.62 436.76 224.5C437.6 226.42 438.38 229.36 438.56 231.16C442.46 231.16 445.04 230.92 446.84 229.78C448.64 228.64 449.24 226.84 449.24 223.54V208.48C451.1 207.88 452.9 207.34 454.76 206.74L453.86 200.32ZM479.18 206.02C478.7 207.4 478.1 209.02 477.44 210.52H469.52C469.22 209.26 468.5 207.46 467.84 206.02H479.18ZM466.1 185.86H462.5V181.9H466.1V185.86ZM471.44 181.9H475.1V185.86H471.44V181.9ZM480.5 181.9H484.28V185.86H480.5V181.9ZM491.72 218.56H476.36V215.86H489.44V210.52H483.8L485.84 207.04L481.34 206.02H490.82V200.68H476.36V197.98H489.2V192.88H476.36V190.54H490.1V177.16H456.98V190.54H469.64V192.88H457.7V197.98H469.64V200.68H455.3V206.02H466.28L461.84 206.98C462.26 208.06 462.68 209.32 463.04 210.52H456.56V215.86H469.64V218.56H454.28V223.78H469.64V231.22H476.36V223.78H491.66L491.72 218.56Z" fill="#00A69C"/>
<path d="M19.794 118.36H15.774V114.52H19.794V118.36ZM24.594 110.74H11.214V122.14H24.594V110.74ZM7.49398 135.52V97.18H36.414L33.654 99.94C35.214 100.78 37.014 102.04 38.274 103.12H31.794C31.674 101.44 31.614 99.76 31.554 98.02H25.674C25.794 99.76 25.854 101.44 25.974 103.12H9.71398V108.16H26.394C26.934 114.1 27.714 119.56 28.974 123.88C28.014 124.96 27.054 125.98 25.974 126.94L25.854 123.88C19.614 124.72 13.374 125.5 8.99398 125.92L9.65399 131.14C13.614 130.48 18.354 129.82 23.154 129.1C22.494 129.52 21.834 129.94 21.174 130.3C22.374 131.26 24.294 133.54 25.074 134.62C27.354 133.18 29.394 131.44 31.314 129.52C32.514 131.5 34.014 132.88 35.814 133.48C39.774 135.28 42.894 133 43.854 125.62C42.654 124.96 40.494 123.34 39.414 122.26C39.174 125.74 38.694 128.08 37.974 127.9C36.954 127.66 36.054 126.52 35.274 124.66C37.974 120.76 40.134 116.14 41.574 110.92L36.114 109.84C35.394 112.54 34.494 115.06 33.294 117.34C32.814 114.64 32.454 111.52 32.154 108.16H42.894V103.12H40.014L42.414 100.6C41.334 99.46 39.354 98.14 37.494 97.18H44.814V135.52H7.49398ZM0.713985 90.76V144.4H7.49398V141.88H44.814V144.4H51.894V90.76H0.713985ZM103.434 108.46V123.46C97.674 120.28 94.134 115.06 92.034 108.46H103.434ZM69.594 108.46H81.234C79.254 115.48 75.474 120.88 69.594 124.12V108.46ZM110.754 101.5H90.354C89.814 98.08 89.454 94.48 89.334 90.64H73.014V96.88H83.154C83.274 98.44 83.394 100 83.574 101.5H62.334V144.22H69.594V126.34C70.854 127.72 72.174 129.52 72.834 130.6C79.614 127 83.874 121.48 86.514 113.98C89.034 120.88 93.114 126.52 99.414 130.24C100.314 128.74 101.994 126.58 103.434 125.02V135.76C103.434 136.72 103.074 137.08 101.994 137.08C100.854 137.08 96.834 137.08 93.534 136.96C94.554 138.88 95.634 142.12 95.874 144.16C101.154 144.16 104.874 144.1 107.394 142.96C109.974 141.76 110.754 139.78 110.754 135.88V101.5ZM168.714 113.08C167.574 114.58 165.894 116.38 164.154 118.06C163.674 115.78 163.254 113.38 162.954 110.98C166.374 109.96 169.674 108.88 172.554 107.62L167.094 102.64C162.294 105.04 154.614 107.32 147.354 108.88C148.974 106.84 150.354 104.5 151.674 101.86H173.334V95.38H154.434C155.154 93.46 155.754 91.48 156.174 89.44L149.334 88.12C148.014 93.94 145.734 99.46 142.554 103.66V97.48H131.874L135.894 96.04C135.354 93.88 134.094 90.52 132.834 88.06L126.654 89.98C127.734 92.26 128.754 95.26 129.294 97.48H119.034V104.08H124.674V112.24C124.674 120.4 123.834 130.9 117.534 140.26C119.214 141.22 121.494 142.9 122.694 144.22C128.934 135.46 130.614 125.26 130.974 116.38H135.294C134.934 130.42 134.454 135.52 133.614 136.78C133.134 137.5 132.774 137.68 131.934 137.68C131.094 137.68 129.474 137.68 127.674 137.5C128.574 139.18 129.234 141.76 129.354 143.62C131.694 143.68 133.854 143.68 135.294 143.38C136.914 143.14 138.114 142.54 139.194 140.86C140.814 138.76 141.294 131.74 141.774 112.72C141.774 111.88 141.834 109.9 141.834 109.9H131.034V104.08H142.194C141.534 104.92 140.814 105.64 140.094 106.36C141.714 107.26 144.534 109.48 145.794 110.68L146.034 110.44V132.52C146.034 135.58 144.534 137.68 143.334 138.76C144.414 139.78 146.274 142.3 146.874 143.74C148.134 142.72 150.114 141.76 161.034 137.14C160.674 135.64 160.314 132.7 160.254 130.72L152.874 133.66V113.44C154.194 113.14 155.574 112.9 156.834 112.6C158.634 125.98 161.874 137.02 169.374 143.02C170.394 141.16 172.614 138.46 174.174 137.14C170.394 134.44 167.754 129.88 165.894 124.42C168.414 122.44 171.354 119.92 173.754 117.52L168.714 113.08ZM233.634 117.16H210.054V98.98H230.154V91.9H182.394V98.98H202.614V117.16H179.274V124.36H202.614V144.22H210.054V124.36H233.634V117.16ZM186.054 102.82C187.974 106.84 189.834 112.06 190.434 115.3L197.394 113.14C196.734 109.78 194.574 104.74 192.594 100.9L186.054 102.82ZM221.094 115.18C223.134 112.12 225.534 107.26 227.694 102.64L220.074 100.72C218.934 104.62 216.774 109.9 214.854 113.38L221.094 115.18ZM268.194 101.56C270.234 99.94 272.154 98.14 273.894 96.22C275.934 98.08 278.334 99.88 280.854 101.56H268.194ZM265.614 106.96H283.254L283.314 103.06C286.074 104.8 289.014 106.3 291.774 107.5C292.254 105.64 293.454 102.52 294.534 100.72C288.654 98.8 282.114 95.26 277.674 91.66C278.034 91.06 278.454 90.4 278.814 89.8L271.974 87.4C268.554 92.86 262.314 98.44 255.414 101.98C256.314 98.86 257.214 95.68 257.994 92.86L253.554 90.28L252.594 90.52H240.354V144.1H246.294V96.88H250.614C249.834 100.84 248.754 105.76 247.734 109.42C250.674 113.56 251.154 117.46 251.154 120.28C251.154 122.02 250.974 123.34 250.314 123.88C249.894 124.24 249.354 124.36 248.874 124.36C248.214 124.42 247.494 124.42 246.594 124.3C247.494 126.1 248.034 128.74 248.034 130.48C249.294 130.48 250.614 130.48 251.574 130.3C252.834 130.12 253.914 129.7 254.754 128.98C256.494 127.6 257.154 125.02 257.154 121.12C257.154 117.58 256.494 113.32 253.494 108.7C254.094 106.84 254.634 104.74 255.294 102.46C256.734 103.72 258.774 105.88 259.674 107.14C261.714 106.06 263.754 104.86 265.614 103.48V106.96ZM280.914 114.76H285.114V120.28H280.914V114.76ZM275.754 125.02H290.634V109.96H275.754V125.02ZM263.694 114.76H267.714V120.28H263.694V114.76ZM258.594 125.02H273.054V109.96H258.594V125.02ZM263.274 125.68C261.474 131.74 257.634 136.78 252.354 139.9C253.734 140.86 256.014 143.2 256.974 144.4C260.334 142.12 263.214 139.12 265.554 135.46C267.414 136.84 269.274 138.4 270.294 139.6L273.894 134.86C272.634 133.6 270.294 131.92 268.194 130.54C268.674 129.4 269.154 128.2 269.514 127L263.274 125.68ZM279.894 125.62C278.754 131.74 275.874 136.78 271.134 139.84C272.514 140.74 274.854 143.14 275.754 144.34C278.394 142.42 280.614 139.9 282.354 136.9C285.354 139.12 288.294 141.58 289.974 143.38L294.174 138.58C292.134 136.54 288.234 133.72 284.874 131.38C285.474 129.82 285.894 128.2 286.254 126.52L279.894 125.62ZM310.734 132.4H317.274V119.68H329.394V113.38H317.274V100.6H310.734V113.38H298.614V119.68H310.734V132.4ZM384.046 113.08C382.906 114.58 381.226 116.38 379.486 118.06C379.006 115.78 378.586 113.38 378.286 110.98C381.706 109.96 385.006 108.88 387.886 107.62L382.426 102.64C377.626 105.04 369.946 107.32 362.686 108.88C364.306 106.84 365.686 104.5 367.006 101.86H388.666V95.38H369.766C370.486 93.46 371.086 91.48 371.506 89.44L364.666 88.12C363.346 93.94 361.066 99.46 357.886 103.66V97.48H347.206L351.226 96.04C350.686 93.88 349.426 90.52 348.166 88.06L341.986 89.98C343.066 92.26 344.086 95.26 344.626 97.48H334.366V104.08H340.006V112.24C340.006 120.4 339.166 130.9 332.866 140.26C334.546 141.22 336.826 142.9 338.026 144.22C344.266 135.46 345.946 125.26 346.306 116.38H350.626C350.266 130.42 349.786 135.52 348.946 136.78C348.466 137.5 348.106 137.68 347.266 137.68C346.426 137.68 344.806 137.68 343.006 137.5C343.906 139.18 344.566 141.76 344.686 143.62C347.026 143.68 349.186 143.68 350.626 143.38C352.246 143.14 353.446 142.54 354.526 140.86C356.146 138.76 356.626 131.74 357.106 112.72C357.106 111.88 357.166 109.9 357.166 109.9H346.366V104.08H357.526C356.866 104.92 356.146 105.64 355.426 106.36C357.046 107.26 359.866 109.48 361.126 110.68L361.366 110.44V132.52C361.366 135.58 359.866 137.68 358.666 138.76C359.746 139.78 361.606 142.3 362.206 143.74C363.466 142.72 365.446 141.76 376.366 137.14C376.006 135.64 375.646 132.7 375.586 130.72L368.206 133.66V113.44C369.526 113.14 370.906 112.9 372.166 112.6C373.966 125.98 377.206 137.02 384.706 143.02C385.726 141.16 387.946 138.46 389.506 137.14C385.726 134.44 383.086 129.88 381.226 124.42C383.746 122.44 386.686 119.92 389.086 117.52L384.046 113.08ZM413.626 106.84C413.626 113.32 413.086 122.98 408.106 129.64C409.426 130.48 411.466 132.46 412.366 133.66C417.166 127.66 418.726 119.2 419.146 112.18H422.806C422.386 123.52 421.906 127.6 421.186 128.74C420.766 129.34 420.346 129.52 419.686 129.52C418.906 129.52 417.646 129.52 416.206 129.34C416.986 130.9 417.586 133.3 417.706 135.04C419.746 135.1 421.666 135.04 422.866 134.86C424.366 134.56 425.446 134.08 426.406 132.64C427.846 130.72 428.326 124.78 428.866 108.88C428.866 108.1 428.926 106.42 428.926 106.42H419.266V101.74H427.546L427.306 102.04C428.446 102.76 430.306 104.2 431.506 105.22V108.82H439.666C438.706 109.96 437.566 111.04 436.486 111.88V115.24H429.826V120.88H436.486V128.08C436.486 128.68 436.306 128.86 435.586 128.86C434.926 128.86 432.706 128.86 430.546 128.8C431.446 130.48 432.286 132.94 432.466 134.68C435.886 134.68 438.406 134.56 440.206 133.6C442.186 132.64 442.546 131.02 442.546 128.2V120.88H449.506V115.24H442.546V113.26C444.946 111.1 447.286 108.58 449.206 106.18L445.426 103.24L444.286 103.6H433.666C434.326 102.46 434.986 101.32 435.586 100.06H449.626V94.24H438.226C438.826 92.68 439.426 91.12 439.846 89.56L433.906 87.88C432.766 91.9 431.146 96.04 429.106 99.34V95.92H423.286L423.766 95.8C423.346 93.7 422.266 90.52 421.366 88.06L415.126 89.2C415.846 91.24 416.566 93.88 417.046 95.92H409.006V101.74H413.626V106.84ZM407.926 97.36C406.426 94.9 403.546 91.12 401.086 88.24L395.626 91.24C397.966 94.18 400.846 98.38 402.226 100.9L407.926 97.36ZM406.846 116.44L405.706 116.62H402.466C405.466 112.48 409.006 106.84 411.106 103.54L406.726 101.74L405.826 102.1H394.306V107.8H401.746C399.706 110.98 397.486 114.28 396.466 115.3C395.386 116.5 394.426 116.98 393.406 117.22C394.066 118.54 395.386 121.54 395.746 123.04C396.226 122.56 398.026 122.14 399.406 122.14H402.886C401.206 130.18 397.906 136.18 392.986 139.66C394.306 140.56 396.706 142.96 397.606 144.4C400.306 142.3 402.706 139.36 404.686 135.64C409.246 142 416.266 143.2 427.366 143.2C434.386 143.2 442.006 143.02 448.246 142.66C448.606 140.68 449.506 137.5 450.526 136.06C443.746 136.72 433.906 137.08 427.486 137.08C417.406 137.02 410.626 136.18 407.146 129.64C408.346 126.16 409.246 122.14 409.846 117.7L406.846 116.44ZM485.566 111.28V105.04C486.826 103.24 488.026 101.38 489.046 99.52H507.706V92.2H455.686V99.52H479.626C474.046 108.7 464.686 118 453.766 123.1C455.326 124.72 457.546 127.66 458.686 129.58C465.886 125.86 472.306 120.64 477.766 114.82V144.1H485.566V113.02C492.046 118 500.206 124.84 503.926 129.28L509.986 123.82C505.666 119.08 496.426 112.18 490.006 107.56L485.566 111.28ZM539.386 119.98V115.54H546.586V117.64C546.586 118.36 546.586 119.2 546.526 119.98H539.386ZM539.386 106.3H546.586V110.68H539.386V106.3ZM560.326 106.3V110.68H553.666V106.3H560.326ZM560.326 119.98H553.606C553.666 119.2 553.666 118.42 553.666 117.7V115.54H560.326V119.98ZM567.226 125.2V101.08H553.666V97.48H568.726V91.24H532.306L532.606 90.46L525.886 88.36C523.126 96.88 518.326 105.4 513.286 110.86C514.486 112.66 516.526 116.5 517.186 118.24C518.206 117.1 519.226 115.84 520.246 114.4V144.1H527.086V103.3C528.946 99.64 530.626 95.86 532.006 92.14V97.48H546.586V101.08H532.786V125.2H545.866C545.326 127.3 544.486 129.22 542.986 131.02C540.526 129.58 538.486 127.96 536.866 125.98L530.686 128.14C532.666 130.84 535.126 133.18 537.826 135.1C535.366 136.48 532.126 137.56 528.106 138.4C529.486 139.84 531.586 142.66 532.426 144.28C537.346 142.78 541.246 140.92 544.186 138.76C550.306 141.46 557.626 143.08 566.326 143.8C567.226 141.82 569.086 138.76 570.646 137.14C562.426 136.72 555.166 135.64 549.286 133.72C551.086 131.08 552.286 128.2 552.946 125.2H567.226ZM603.526 101.56C605.566 99.94 607.486 98.14 609.226 96.22C611.266 98.08 613.666 99.88 616.186 101.56H603.526ZM600.946 106.96H618.586L618.646 103.06C621.406 104.8 624.346 106.3 627.106 107.5C627.586 105.64 628.786 102.52 629.866 100.72C623.986 98.8 617.446 95.26 613.006 91.66C613.366 91.06 613.786 90.4 614.146 89.8L607.306 87.4C603.886 92.86 597.646 98.44 590.746 101.98C591.646 98.86 592.546 95.68 593.326 92.86L588.886 90.28L587.926 90.52H575.686V144.1H581.626V96.88H585.946C585.166 100.84 584.086 105.76 583.066 109.42C586.006 113.56 586.486 117.46 586.486 120.28C586.486 122.02 586.306 123.34 585.646 123.88C585.226 124.24 584.686 124.36 584.206 124.36C583.546 124.42 582.826 124.42 581.926 124.3C582.826 126.1 583.366 128.74 583.366 130.48C584.626 130.48 585.946 130.48 586.906 130.3C588.166 130.12 589.246 129.7 590.086 128.98C591.826 127.6 592.486 125.02 592.486 121.12C592.486 117.58 591.826 113.32 588.826 108.7C589.426 106.84 589.966 104.74 590.626 102.46C592.066 103.72 594.106 105.88 595.006 107.14C597.046 106.06 599.086 104.86 600.946 103.48V106.96ZM616.246 114.76H620.446V120.28H616.246V114.76ZM611.086 125.02H625.966V109.96H611.086V125.02ZM599.026 114.76H603.046V120.28H599.026V114.76ZM593.926 125.02H608.386V109.96H593.926V125.02ZM598.606 125.68C596.806 131.74 592.966 136.78 587.686 139.9C589.066 140.86 591.346 143.2 592.306 144.4C595.666 142.12 598.546 139.12 600.886 135.46C602.746 136.84 604.606 138.4 605.626 139.6L609.226 134.86C607.966 133.6 605.626 131.92 603.526 130.54C604.006 129.4 604.486 128.2 604.846 127L598.606 125.68ZM615.226 125.62C614.086 131.74 611.206 136.78 606.466 139.84C607.846 140.74 610.186 143.14 611.086 144.34C613.726 142.42 615.946 139.9 617.686 136.9C620.686 139.12 623.626 141.58 625.306 143.38L629.506 138.58C627.466 136.54 623.566 133.72 620.206 131.38C620.806 129.82 621.226 128.2 621.586 126.52L615.226 125.62Z" fill="#FDB000"/>
</svg>
