<svg id="linepay" xmlns="http://www.w3.org/2000/svg" xmlns:xlink="http://www.w3.org/1999/xlink" width="401.622" height="360.852" viewBox="0 0 401.622 360.852">
  <defs>
    <clipPath id="clip-path">
      <rect id="Rectangle_441" data-name="Rectangle 441" width="401.622" height="360.852" fill="none"/>
    </clipPath>
    <clipPath id="clip-path-3">
      <rect id="Rectangle_434" data-name="Rectangle 434" width="18.54" height="23.656" transform="translate(154.331 180.409)" fill="none"/>
    </clipPath>
    <clipPath id="clip-path-4">
      <rect id="Rectangle_435" data-name="Rectangle 435" width="20.676" height="22.537" transform="translate(13.444 132.386)" fill="none"/>
    </clipPath>
    <clipPath id="clip-path-5">
      <rect id="Rectangle_436" data-name="Rectangle 436" width="29.882" height="28.228" transform="translate(17.274 15.392)" fill="none"/>
    </clipPath>
    <clipPath id="clip-path-6">
      <rect id="Rectangle_437" data-name="Rectangle 437" width="23.367" height="19.784" transform="translate(292.884 63.026)" fill="none"/>
    </clipPath>
    <clipPath id="clip-path-7">
      <rect id="Rectangle_438" data-name="Rectangle 438" width="34.231" height="43.675" transform="translate(74.724 186.52)" fill="none"/>
    </clipPath>
    <clipPath id="clip-path-8">
      <rect id="Rectangle_439" data-name="Rectangle 439" width="18.541" height="23.656" transform="translate(141.31 229.669)" fill="none"/>
    </clipPath>
  </defs>
  <g id="Group_630" data-name="Group 630" clip-path="url(#clip-path)">
    <g id="Group_629" data-name="Group 629">
      <g id="Group_628" data-name="Group 628" clip-path="url(#clip-path)">
        <path id="Path_4690" data-name="Path 4690" d="M305.817,178.654s-.69,16.971.28,20.128,9.677,5.1,18.619,8.705c0,0-11.605,17.316-33.964,17.213s-37.2-7.622-40.816-12.122c0,0,26.432-6.329,26.751-12.816s-.288-20.7-.288-20.7Z" fill="#fcd1c8"/>
        <path id="Path_4691" data-name="Path 4691" d="M291.245,204.86c-7.28.1-12.424-5.712-15.331-10.514-.156-8.181-.385-15.271-.385-15.271l30.288-.421s-.156,7.089-.161,14.9c-2.369,4.924-6.942,11.2-14.411,11.306" fill="#f8a8a0"/>
        <path id="Path_4692" data-name="Path 4692" d="M219.293,213.006c3.429.376,6.314,10.453,5,22.468s-6.1,18.487-9.052,20.278c-2.865,1.741-4.684-9.627-3.366-21.641s3.993-21.481,7.422-21.1" fill="#e4d9e1" fill-rule="evenodd"/>
        <path id="Path_4693" data-name="Path 4693" d="M257.1,170.039s-3.271-2.21-4.947-1.588-2.811,5.088-1.813,7.981,6.888,12.3,11.545,6.917-4.785-13.31-4.785-13.31" fill="#fcd1c8" fill-rule="evenodd"/>
        <path id="Path_4694" data-name="Path 4694" d="M260.1,172.786a.719.719,0,0,1,.324.741.346.346,0,0,1-.5.232s.8,9.495-.831,8.41-3.319-2.1-4.446-4.266.264-4.79-.588-5.208c-.814-.4-1.3.684-1.34.786l0,0v0h0a6.43,6.43,0,0,0-.386,1.918.354.354,0,0,1-.484.357.724.724,0,0,1-.448-.677c0-.01.092-3.722,2.509-4.234,2.311-.489,6.182,1.925,6.193,1.933" fill="#f8a8a0" fill-rule="evenodd"/>
        <path id="Path_4695" data-name="Path 4695" d="M309.289,156.468s1.81-3.53,3.574-3.8,4.892,3.085,5.4,6.106-.158,14.133-6.808,11.69-2.164-13.992-2.164-13.992" fill="#fcd1c8" fill-rule="evenodd"/>
        <path id="Path_4696" data-name="Path 4696" d="M307.968,160.341a.719.719,0,0,0,.069.806.344.344,0,0,0,.547-.041s3.83,8.709,4.743,6.962,1.9-3.458,1.858-5.9-2.518-4.068-1.971-4.851c.521-.746,1.462-.033,1.549.036l0,0,0,0a6.323,6.323,0,0,1,1.254,1.491.353.353,0,0,0,.6.076.73.73,0,0,0,.068-.811c-.005-.008-1.857-3.213-4.219-2.482-2.257.7-4.493,4.7-4.5,4.713" fill="#f8a8a0" fill-rule="evenodd"/>
        <path id="Path_4697" data-name="Path 4697" d="M271.967,119.145c-34.5,9.54-22.122,36.824-13.2,59.1a31.886,31.886,0,0,0,10.276,13.792s12.074,6.558,15.931,7.587a16.171,16.171,0,0,0,14.016-3.644c2.887-2.783,10.332-14.416,10.332-14.416a32.257,32.257,0,0,0,2.415-17.092c-2.817-23.862-5.005-53.8-39.773-45.325" fill="#fcd1c8" fill-rule="evenodd"/>
        <path id="Path_4698" data-name="Path 4698" d="M273.169,164.588a.31.31,0,0,1-.241-.05c-.217-.153-5.382-3.716-9.088,1.172a.307.307,0,1,1-.488-.371c4.065-5.369,9.874-1.344,9.932-1.3a.307.307,0,0,1-.115.551m15.965-4.489a.307.307,0,0,1-.342-.43c.03-.063,3.022-6.309,9.844-4.288a.307.307,0,0,1-.175.589c-6.318-1.87-9.084,3.9-9.111,3.958a.309.309,0,0,1-.216.171" fill="#f8a8a0"/>
        <path id="Path_4699" data-name="Path 4699" d="M270.119,125.15c-21.88,7.372-22.026,22.916-17.172,39.063a8.548,8.548,0,0,0,1.083.069c12.823.009,12.5-9.835,15.329-21.139s12.292-11.5,12.292-11.5l1.9,15.367c8.948,8.162,20.974,1.526,20.974,1.526l1.51.739s-.982-10.934-3.613-18.55a21.2,21.2,0,0,0-14.886-7.83,171.518,171.518,0,0,0-17.416,2.256" fill="#f8a8a0" fill-rule="evenodd"/>
        <path id="Path_4700" data-name="Path 4700" d="M301.017,145.95s5.2,11.3,10.133,13.476c0,0-.391-5.118.523-6.1,0,0-.754-14.732-4.182-18.928s-6.933,6.7-6.474,11.548" fill="#684e46" fill-rule="evenodd"/>
        <path id="Path_4701" data-name="Path 4701" d="M257.52,153.384s3.065,12.14-.809,19.736c0,0-2.2-4.131-3.5-4.708,0,0-6.041-13.236-5.043-18.584s7.436-.917,9.351,3.556" fill="#684e46" fill-rule="evenodd"/>
        <path id="Path_4702" data-name="Path 4702" d="M288.11,153.469a3.007,3.007,0,0,1-1.7.4,2.928,2.928,0,0,1-1.925-1.5c-.038-.312.519.027,1.869-1.127,1.326-1.135,6.453-4.484,11.267-1.854.83.454.462,1.125-.438,1.115a11.652,11.652,0,0,0-9.073,2.97" fill="#684e46" fill-rule="evenodd"/>
        <path id="Path_4703" data-name="Path 4703" d="M278.034,163.359a.661.661,0,0,1,1.3.219c-.2,1.195-1.08,5.168-.881,5.748.159.377.962.826,1.314.987a4.225,4.225,0,0,0,1.965.408.662.662,0,1,1,.078,1.321,5.506,5.506,0,0,1-2.594-.524,4.194,4.194,0,0,1-1.985-1.681c-.336-.8.53-5.151.8-6.478" fill="#f8a8a0" fill-rule="evenodd"/>
        <path id="Path_4704" data-name="Path 4704" d="M269.845,158.163a2.572,2.572,0,0,0,1.482-.457,2.887,2.887,0,0,0,.88-2.094c-.1-.269-.391.259-1.909-.055-1.494-.309-6.839-.669-9.5,3.659-.457.747.1,1.121.8.7a9.988,9.988,0,0,1,8.253-1.754" fill="#684e46" fill-rule="evenodd"/>
        <path id="Path_4705" data-name="Path 4705" d="M271.46,166.693a1.877,1.877,0,0,0,1.269-.353,2.931,2.931,0,0,0,.767-2.02c-.081-.274-.336.233-1.631-.184-1.274-.409-5.84-1.129-8.148,2.986-.4.711.077,1.119.676.75a7.342,7.342,0,0,1,7.067-1.179" fill="#684e46" fill-rule="evenodd"/>
        <path id="Path_4706" data-name="Path 4706" d="M291.724,161.006a2.1,2.1,0,0,1-1.342.382,2.722,2.722,0,0,1-1.686-1.335c-.058-.281.422.019,1.417-1.046.978-1.047,4.843-4.152,8.963-1.833.71.4.47,1.013-.259,1.017a8.209,8.209,0,0,0-7.093,2.815" fill="#684e46" fill-rule="evenodd"/>
        <path id="Path_4707" data-name="Path 4707" d="M275.19,175.35a22.39,22.39,0,0,0,8.88-1.123,23.027,23.027,0,0,0,8.109-3.986.841.841,0,0,1,1.4.614h0c.063,5.044-1,8.842-2.732,11.246a7.277,7.277,0,0,1-3.9,2.881,7.1,7.1,0,0,1-4.8-.43c-2.63-1.132-5.374-3.743-7.805-7.95a.84.84,0,0,1,.306-1.147.851.851,0,0,1,.549-.1Z" fill="#684e46" fill-rule="evenodd"/>
        <path id="Path_4708" data-name="Path 4708" d="M275.767,175.419a24.109,24.109,0,0,0,8.3-1.192,23.011,23.011,0,0,0,8.109-3.987.841.841,0,0,1,1.4.614h0c.005.409,0,.809-.007,1.2-5.125,4.821-14.035,6-15.841,5.487a3.032,3.032,0,0,1-1.964-2.122" fill="#fff" fill-rule="evenodd"/>
        <path id="Path_4709" data-name="Path 4709" d="M292.738,178.022a13.1,13.1,0,0,1-1.891,4.079,7.275,7.275,0,0,1-3.9,2.881,7.1,7.1,0,0,1-4.806-.429,10.352,10.352,0,0,1-1.27-.66c.831-1.007,2.593-2.383,5.924-2.109,0,0,2.3-3.476,5.946-3.762" fill="#f68b85" fill-rule="evenodd"/>
        <path id="Path_4710" data-name="Path 4710" d="M285.1,188.466a.658.658,0,0,1,.225-1.3,7.142,7.142,0,0,0,5.3-1.672.657.657,0,0,1,.833,1.017,8.584,8.584,0,0,1-6.355,1.952" fill="#f8a8a0" fill-rule="evenodd"/>
        <path id="Path_4711" data-name="Path 4711" d="M275.139,132.169s4.174,15.819,13.934,17.665,13.461-5.066,13.461-5.066,2.361,3.77,8.349,1.507,7.558-15.5-4.38-26.487-35.275-23.854-44.155.369c0,0-8.266-1.765-12.892,3.82s-10.643,20.768-5.149,30.767,16.97,9.6,21.745-1.2,3.543-20.563,9.087-21.379" fill="#7f5a50" fill-rule="evenodd"/>
        <path id="Path_4712" data-name="Path 4712" d="M301.023,115.272c-6.51,7.92-16.021,10.029-27.535,6.575-.232-.069-.444.1-.49.395a.72.72,0,0,0,.317.727,55.884,55.884,0,0,0,20.391,5.841,32.132,32.132,0,0,0,17.76-3.285,32.1,32.1,0,0,0-4.964-5.738,67.056,67.056,0,0,0-5.479-4.515" fill="#936e65" fill-rule="evenodd"/>
        <path id="Path_4713" data-name="Path 4713" d="M204.454,249.178l34.264,5.739,11.018-31.286-37.467-4.165Z" fill="#f8a8a0"/>
        <path id="Path_4714" data-name="Path 4714" d="M333.268,210.322c-7.891-4.4-22.228-7.912-22.228-7.912-23.952,17.319-35.908-1.3-35.908-1.3s-.642.207-1.753.572l-54.086,11.323c6.563,14.147,4.008,28.542-5.1,42.773l30.886,4.94,8.73,39.628s-7.654,28.952-7.491,33.878c.362,10.9,3.215,16.667,4.135,17.755,15.391,4.528,81.591-7.655,95.39-15.731,1.561-.912,5.111-5.313,2.839-14.379l-9.966-36.6-.027-.143c-.575-3.2.119-15.353.119-15.353,3.618-39.2-5.545-59.451-5.545-59.451" fill="#fff" fill-rule="evenodd"/>
        <path id="Path_4715" data-name="Path 4715" d="M291.417,215.852c-15.232-.549-21.371-10.336-21.63-10.762a.631.631,0,0,1,1.078-.658c.061.1,6.335,10.034,21.551,10.18,15.268.143,22.515-8.533,22.586-8.621a.631.631,0,1,1,.981.795c-.307.378-7.67,9.238-23.579,9.089q-.5,0-.987-.023" fill="#dbbaab"/>
        <path id="Path_4716" data-name="Path 4716" d="M253.814,300.349l-8.863-40.23a76.786,76.786,0,0,0,3.114-20.168l0-.051s7.724,36.442,8.31,39.228,4.795,1.069,5.685,2.336-4.982,6.019-8.248,18.885" fill="#e4d9e1" fill-rule="evenodd"/>
        <path id="Path_4717" data-name="Path 4717" d="M326.349,264.694s-1.909-13.1-1.925-17.293-.413-14.71-.413-14.71-23.2.421-30.929.872-27.453,3.785-31.719,3.842c0,0,1.03,23.725,3.053,30.9,0,0,15.294-.006,25.91-1.509,11.589-1.641,36.023-2.1,36.023-2.1" fill="#fed190"/>
        <path id="Path_4718" data-name="Path 4718" d="M355.887,203.942c-3.361.776-5.044,11.122-2.324,22.9s8.231,17.643,11.369,19.076c3.05,1.392,3.522-10.111.8-21.887s-6.487-20.864-9.848-20.088" fill="#e4d9e1" fill-rule="evenodd"/>
        <path id="Path_4719" data-name="Path 4719" d="M374.869,238.122l-33.353,9.721L326.9,218.067l36.719-8.534Z" fill="#f8a8a0"/>
        <path id="Path_4720" data-name="Path 4720" d="M374.211,156.859c-1.81,8.71-3.975,16.268-6.394,24.965-4.507,16.2-10.885,38.893-11.369,40.722-5.158,17.633,23.555,24.48,27.243,5.139,1.526-8.006,2.934-26.9,3.963-40.823.533-7.2,1.026-14.1,2.052-21.234l1.452-11.764-17.433-7.143c1.315,2.632,1.613,4.717.486,10.138" fill="#fcd1c8" fill-rule="evenodd"/>
        <path id="Path_4721" data-name="Path 4721" d="M390.233,161.366l.926-7.5-13.216-5.414c-.111,2.77-.165,10.815,7.666,12.224,1.81.325,3.337.548,4.624.692" fill="#f8a8a0" fill-rule="evenodd"/>
        <path id="Path_4722" data-name="Path 4722" d="M397.08,130.92s5.426-11.235,4.417-12.239-5.592-2-7.636.133-5.718,9.689-5.718,9.689Z" fill="#f8a8a0"/>
        <path id="Path_4723" data-name="Path 4723" d="M397.8,137.648c.109-.79.191-1.584.241-2.383.349-5.525-2.286-7.743-7.04-9.023-2.464-.663-12.11-4.138-13.908-1.4-1.951,2.973.154,4.316.154,4.316s-4.111-.133-4.69,3.008a5.53,5.53,0,0,0,1.067,4.805s-3,3.588-1.313,6c0,0-2.175,7.106,1.713,9.01a32.251,32.251,0,0,0,9.051,2.416c4.868.774,8.667,2.578,10.926-3.426a62.534,62.534,0,0,0,3.795-13.319" fill="#ffd1c1"/>
        <path id="Path_4724" data-name="Path 4724" d="M377.251,129.158s7.535,4.062,11,3.572" fill="none" stroke="#f8a8a0" stroke-linecap="round" stroke-linejoin="round" stroke-width="1"/>
        <path id="Path_4725" data-name="Path 4725" d="M373.667,136.809s7.535,4.062,11,3.572" fill="none" stroke="#f8a8a0" stroke-linecap="round" stroke-linejoin="round" stroke-width="1"/>
        <path id="Path_4726" data-name="Path 4726" d="M373.667,136.809s7.535,4.062,11,3.572" fill="none" stroke="#f8a8a0" stroke-linecap="round" stroke-linejoin="round" stroke-width="1"/>
        <path id="Path_4727" data-name="Path 4727" d="M372.391,142.941s7.535,4.062,11,3.572" fill="none" stroke="#f8a8a0" stroke-linecap="round" stroke-linejoin="round" stroke-width="1"/>
        <path id="Path_4728" data-name="Path 4728" d="M311.04,202.411l44.847,1.532s-2.219,23.688,9.045,41.975l-32.8,7.243Z" fill="#fff"/>
        <path id="Path_4729" data-name="Path 4729" d="M84.092,350.615c2.822,5.079,14.891,7.665,24.057,8.265,6.27-2.133,9.778-8.922,9.778-9.908s-30.548-7.225-32.848-7.225-2.628,5.913-.986,8.868" fill="#e27774"/>
        <path id="Path_4730" data-name="Path 4730" d="M174.1,346.673c3.066,2.736,7.812,2.175,9.2,2.134,2.413-.831,6.022-3.559,6.022-4.1.438-2.026,2.3-4.052,1.2-4.709s-3.339-.711-3.667-.93-12.757,7.61-12.757,7.61" fill="#ba5c5a"/>
        <path id="Path_4731" data-name="Path 4731" d="M96.574,198.853l119.318,9.322-26.685,86.6-73.585,3.285Z" fill="#d7cfca"/>
        <path id="Path_4732" data-name="Path 4732" d="M96.574,198.853l119.318,9.322-3.57,11.586L98.149,207.049Z" fill="#86c8be"/>
        <path id="Path_4733" data-name="Path 4733" d="M184.017,182.721a21.786,21.786,0,1,1-28.14-12.544,21.784,21.784,0,0,1,28.14,12.544" fill="#00c94d"/>
        <path id="Path_4734" data-name="Path 4734" d="M171.732,211.537a22.509,22.509,0,1,1,12.961-29.075,22.534,22.534,0,0,1-12.961,29.075m-15.6-40.685a21.062,21.062,0,1,0,27.206,12.128,21.087,21.087,0,0,0-27.206-12.128" fill="#fff"/>
        <g id="Group_612" data-name="Group 612" opacity="0.3">
          <g id="Group_611" data-name="Group 611">
            <g id="Group_610" data-name="Group 610" clip-path="url(#clip-path-3)">
              <path id="Path_4735" data-name="Path 4735" d="M154.331,184.263l7.063-2.708c5.037-1.931,9.184-1.717,10.972,2.947,1.716,4.478-1.111,7.946-5.909,9.785l-3.278,1.257,2.687,7.009-3.944,1.512Zm10.638,7.018c3.225-1.236,4.421-2.979,3.533-5.3-.91-2.372-3.008-2.423-6.18-1.207l-2.851,1.093,2.513,6.556Z"/>
            </g>
          </g>
        </g>
        <path id="Path_4736" data-name="Path 4736" d="M153.791,184.47l7.063-2.708c5.037-1.931,9.184-1.717,10.972,2.947,1.716,4.478-1.111,7.946-5.908,9.785l-3.279,1.257,2.687,7.009-3.944,1.512Zm10.638,7.018c3.225-1.236,4.421-2.979,3.533-5.3-.91-2.372-3.008-2.423-6.18-1.207l-2.851,1.093,2.513,6.556Z" fill="#fff"/>
        <path id="Path_4737" data-name="Path 4737" d="M34.932,124.331a21.786,21.786,0,1,1-29.509,8.858,21.785,21.785,0,0,1,29.509-8.858" fill="#00c94d"/>
        <path id="Path_4738" data-name="Path 4738" d="M44.428,154.183a22.509,22.509,0,1,1-9.152-30.489,22.534,22.534,0,0,1,9.152,30.489M6.061,133.532a21.062,21.062,0,1,0,28.529-8.564,21.086,21.086,0,0,0-28.529,8.564" fill="#fff"/>
        <g id="Group_615" data-name="Group 615" opacity="0.3">
          <g id="Group_614" data-name="Group 614">
            <g id="Group_613" data-name="Group 613" clip-path="url(#clip-path-4)">
              <path id="Path_4739" data-name="Path 4739" d="M13.444,144.872l3.585-6.66c2.557-4.75,5.839-7.295,10.237-4.928,4.223,2.273,4.343,6.746,1.908,11.27l-1.663,3.092,6.61,3.557-2,3.72Zm12.641-1.624c1.637-3.041,1.406-5.142-.78-6.319-2.237-1.2-3.861.126-5.47,3.117l-1.448,2.689,6.183,3.328Z"/>
            </g>
          </g>
        </g>
        <path id="Path_4740" data-name="Path 4740" d="M13.17,145.381l3.585-6.66c2.557-4.75,5.839-7.295,10.237-4.928,4.223,2.273,4.343,6.746,1.908,11.27l-1.663,3.092,6.61,3.557-2,3.72Zm12.641-1.624c1.637-3.041,1.406-5.142-.78-6.319-2.237-1.2-3.861.126-5.47,3.117l-1.448,2.689,6.183,3.328Z" fill="#fff"/>
        <path id="Path_4741" data-name="Path 4741" d="M58.648,43.108A29.374,29.374,0,1,1,44.953,3.89,29.373,29.373,0,0,1,58.648,43.108" fill="#00c94d"/>
        <path id="Path_4742" data-name="Path 4742" d="M19.006,57.682a30.349,30.349,0,1,1,40.52-14.15,30.384,30.384,0,0,1-40.52,14.15M44.529,4.768A28.4,28.4,0,1,0,57.77,42.684,28.431,28.431,0,0,0,44.529,4.768" fill="#fff"/>
        <g id="Group_618" data-name="Group 618" opacity="0.3">
          <g id="Group_617" data-name="Group 617">
            <g id="Group_616" data-name="Group 616" clip-path="url(#clip-path-5)">
              <path id="Path_4743" data-name="Path 4743" d="M29.7,15.391l9.186,4.431c6.551,3.16,10.174,7.429,7.248,13.5C43.322,39.14,37.3,39.57,31.064,36.56L26.8,34.5,22.4,43.62l-5.13-2.474Zm2.943,16.93c4.194,2.023,7.011,1.587,8.465-1.429,1.489-3.085-.4-5.192-4.525-7.182L32.87,21.921l-4.113,8.527Z"/>
            </g>
          </g>
        </g>
        <path id="Path_4744" data-name="Path 4744" d="M28.994,15.052l9.186,4.431c6.551,3.16,10.174,7.429,7.248,13.5C42.62,38.8,36.6,39.231,30.362,36.221L26.1,34.165l-4.4,9.116-5.13-2.474Zm2.943,16.93c4.194,2.023,7.011,1.587,8.465-1.429,1.489-3.085-.4-5.192-4.525-7.182l-3.709-1.789-4.113,8.527Z" fill="#fff"/>
        <path id="Path_4745" data-name="Path 4745" d="M322.93,86.788a21.786,21.786,0,1,1-5.314-30.348,21.786,21.786,0,0,1,5.314,30.348" fill="#00c94d"/>
        <path id="Path_4746" data-name="Path 4746" d="M292.167,92.694a22.509,22.509,0,1,1,31.355-5.49,22.534,22.534,0,0,1-31.355,5.49M317.2,57.032a21.063,21.063,0,1,0,5.137,29.34,21.086,21.086,0,0,0-5.137-29.34" fill="#fff"/>
        <g id="Group_621" data-name="Group 621" opacity="0.3">
          <g id="Group_620" data-name="Group 620">
            <g id="Group_619" data-name="Group 619" clip-path="url(#clip-path-6)">
              <path id="Path_4747" data-name="Path 4747" d="M305.069,63.026l6.191,4.346c4.415,3.1,6.554,6.659,3.685,10.747-2.755,3.925-7.212,3.517-11.417.565l-2.873-2.017-4.313,6.144-3.458-2.428Zm.121,12.744c2.827,1.984,4.941,2,6.367-.029,1.46-2.079.33-3.848-2.45-5.8l-2.5-1.755-4.034,5.747Z"/>
            </g>
          </g>
        </g>
        <path id="Path_4748" data-name="Path 4748" d="M304.6,62.693l6.191,4.346c4.415,3.1,6.555,6.659,3.685,10.747-2.755,3.925-7.212,3.517-11.417.565l-2.873-2.017-4.313,6.144L292.41,80.05Zm.121,12.744c2.827,1.984,4.941,2,6.367-.029,1.46-2.079.33-3.848-2.45-5.8l-2.5-1.755L302.1,73.6Z" fill="#fff"/>
        <path id="Path_4749" data-name="Path 4749" d="M28.662,234.719l67.913-35.866,19.052,99.2L62.411,330.907Z" fill="#f2f0ee"/>
        <path id="Path_4750" data-name="Path 4750" d="M32.142,244.638l-3.481-9.919,67.912-35.866,1.574,8.193Z" fill="#aedce3"/>
        <path id="Path_4751" data-name="Path 4751" d="M129.534,190.788a40.223,40.223,0,1,1-51.956-23.161,40.223,40.223,0,0,1,51.956,23.161" fill="#00c94d"/>
        <path id="Path_4752" data-name="Path 4752" d="M106.851,243.991a41.559,41.559,0,1,1,23.93-53.681,41.607,41.607,0,0,1-23.93,53.681M78.056,168.874a38.888,38.888,0,1,0,50.231,22.392,38.932,38.932,0,0,0-50.231-22.392" fill="#fff"/>
        <g id="Group_624" data-name="Group 624" opacity="0.3">
          <g id="Group_623" data-name="Group 623">
            <g id="Group_622" data-name="Group 622" clip-path="url(#clip-path-7)">
              <path id="Path_4753" data-name="Path 4753" d="M74.724,193.634l13.04-5c9.3-3.565,16.957-3.17,20.258,5.441,3.169,8.267-2.051,14.67-10.909,18.066l-6.052,2.32L96.022,227.4,88.739,230.2Zm19.641,12.958c5.954-2.282,8.163-5.5,6.522-9.781-1.679-4.379-5.553-4.474-11.408-2.23L84.213,196.6l4.641,12.1Z"/>
            </g>
          </g>
        </g>
        <path id="Path_4754" data-name="Path 4754" d="M73.726,194.017l13.04-5c9.3-3.565,16.957-3.17,20.258,5.441,3.169,8.267-2.051,14.67-10.909,18.066l-6.052,2.32,4.961,12.941-7.283,2.792Zm19.641,12.958c5.954-2.282,8.163-5.5,6.522-9.781-1.679-4.379-5.553-4.474-11.408-2.23l-5.266,2.019,4.641,12.1Z" fill="#fff"/>
        <path id="Path_4755" data-name="Path 4755" d="M171,231.981a21.786,21.786,0,1,1-28.14-12.544A21.784,21.784,0,0,1,171,231.981" fill="#00c94d"/>
        <path id="Path_4756" data-name="Path 4756" d="M158.711,260.8a22.509,22.509,0,1,1,12.961-29.075A22.534,22.534,0,0,1,158.711,260.8m-15.6-40.685a21.062,21.062,0,1,0,27.206,12.128,21.087,21.087,0,0,0-27.206-12.128" fill="#fff"/>
        <g id="Group_627" data-name="Group 627" opacity="0.3">
          <g id="Group_626" data-name="Group 626">
            <g id="Group_625" data-name="Group 625" clip-path="url(#clip-path-8)">
              <path id="Path_4757" data-name="Path 4757" d="M141.31,233.523l7.063-2.708c5.037-1.931,9.184-1.717,10.972,2.947,1.716,4.478-1.111,7.946-5.909,9.785l-3.278,1.257,2.687,7.009-3.944,1.512Zm10.638,7.018c3.225-1.236,4.421-2.979,3.533-5.3-.91-2.372-3.008-2.423-6.18-1.207l-2.851,1.093,2.513,6.556Z"/>
            </g>
          </g>
        </g>
        <path id="Path_4758" data-name="Path 4758" d="M140.77,233.73l7.063-2.708c5.037-1.931,9.184-1.717,10.972,2.947,1.716,4.478-1.111,7.946-5.908,9.785l-3.279,1.257,2.687,7.009-3.944,1.512Zm10.638,7.018c3.225-1.236,4.421-2.979,3.533-5.3-.91-2.372-3.008-2.423-6.18-1.207l-2.851,1.093,2.513,6.556Z" fill="#fff"/>
        <path id="Path_4759" data-name="Path 4759" d="M28.662,234.718,141,244.573l11.826,116.278L53.55,347Z" fill="#65bbb1"/>
        <path id="Path_4760" data-name="Path 4760" d="M141,244.573l74.895-36.4L217.2,325.115l-64.383,35.737Z" fill="#94cfca"/>
        <path id="Path_4761" data-name="Path 4761" d="M256.217,306.049c17.33-5.89,8.8-31.022,7.227-37.557,9.854-.655,9.2,15.768,19.154,13.61-3.327,6.033-7.3,13.339-12.365,19.457-6.131,4.929-9.4,5.193-11.825,5.367-1.533.114-4.17-.2-2.191-.878" fill="#e27774"/>
        <path id="Path_4762" data-name="Path 4762" d="M183.294,348.809c4.928-2.628,6.344-4.287,5.913-6.569-4.927-26.116,17.081-53.38,40.4-43.2,25.548,11.155,37.2,5.42,40.623,2.517-6.351,10.513-26.755,9.821-38.65,9.635-14.015-.217-34.163,3.285-36.626,30.878-1.2,1.424-7.032,6.005-11.662,6.734" fill="#f68b85"/>
        <path id="Path_4763" data-name="Path 4763" d="M64.383,316.453c-8.541-3.067-25.142-3.02-33.178-.658A68.335,68.335,0,0,0,0,336.162c10.512,0,9.527,17.409,16.1,18.066,1.642-5.913,6.9-22.993,13.8-28.578,5.977-4.838,20.694-8.209,27.264-7.884,2.622.132,7.226,3.285,7.226-1.312" fill="#e27774"/>
        <path id="Path_4764" data-name="Path 4764" d="M108.146,358.88c-23.835-6.294-21.044-26.439-33.252-37.4-14.891-13.359-41.386-3.066-47.3,6.132,9.526-5.587,23.322-8.209,32.191-1.315s14.457,25.955,22.338,29.9c10.182,1.315,15.11,2.958,26.024,2.682" fill="#ba5c5a"/>
        <path id="Path_4765" data-name="Path 4765" d="M147.656,36.683,61.222,92.093l117.462,70.916L244,90.171Z" fill="#aedce3"/>
        <path id="Path_4766" data-name="Path 4766" d="M244.009,90.166l-4.828,25.119-62.158,75.236,1.663-27.513Z" fill="#94cfca"/>
        <path id="Path_4767" data-name="Path 4767" d="M61.222,92.091l117.462,70.916-1.662,27.512L68.6,118.679Z" fill="#65bbb1"/>
        <path id="Path_4768" data-name="Path 4768" d="M105.984,93.8c17.121,3.05,27.675-.938,31.9-1.172s12.665.47,13.368-1.407-8.677-9.616-14.306-8.912S105.984,91.922,105.984,93.8" fill="#94cfca"/>
        <path id="Path_4769" data-name="Path 4769" d="M155,99.894c-.285,3.985-1.407,16.888,1.642,21.108s4.218,10.086,5.863,4.457,2.581-26.738.235-29.083-5.63-3.991-6.8-2.581-.7,2.815-.938,6.1" fill="#94cfca"/>
        <path id="Path_4770" data-name="Path 4770" d="M187.6,57.908l-79.8,63.33,16.007,10.086,72.824-68.369Z" fill="#e27774"/>
        <path id="Path_4771" data-name="Path 4771" d="M107.807,121.238l5.892,28.845,11.991,7.5-1.877-26.267Z" fill="#ba5c5a"/>
        <path id="Path_4772" data-name="Path 4772" d="M106.92,61.664l7.74-5.159,106.716,61.214-11.258,12.2Z" fill="#e27774"/>
        <path id="Path_4773" data-name="Path 4773" d="M210.118,129.919,207.89,154.66l8.267-10.027,5.219-26.913Z" fill="#ba5c5a"/>
        <path id="Path_4774" data-name="Path 4774" d="M160.514,89.576c4.692-1.5,16.563,6.671,26.62,6.1s26.708-2.2,27.764-10.555c2.663,1.958,2.816,9.148,2.964,13.6-3.518,5.629-19.936,6.8-31.194,4.691-7.269-1.368-24.818-10.19-26.336-11.85s-1.309-1.509.19-1.988" fill="#ba5c5a"/>
        <path id="Path_4775" data-name="Path 4775" d="M161.9,86.855c11.461-1.98,28.32-20.645,48.872-10.438,8.189,7.251,7.451,18.47,7.091,22.3-.411-7.886-9.463-16.417-32.442-6.295-7.275,3.206-13.059,7.937-26.223-1.208-2.418-1.679-1.092-3.707,2.7-4.362" fill="#f68b85"/>
        <path id="Path_4776" data-name="Path 4776" d="M158.715,90.433c-.847-3.922-11.438-8.983-15.118-16.316s-9.3-19.748-3.829-23.888c-2.463-1.084-9.805,1-10.806,3.435-2.808,6.124,3.3,16.837,9.361,23.927,3.916,4.578,17.277,13.382,19.066,13.783s1.6.31,1.327-.942" fill="#ba5c5a"/>
        <path id="Path_4777" data-name="Path 4777" d="M160.074,88.353c-3.258-8.893,2.2-33.724-12.487-38.744-8.445-2.834-18.326,1.092-18.626,4.057a5.808,5.808,0,0,1,4.962-1.91c5.263.722,11,6.841,12.661,22.254.693,6.439-.3,12.444,11.506,18.021,2.166,1.026,3.06-.736,1.984-3.678" fill="#f68b85"/>
        <path id="Path_4778" data-name="Path 4778" d="M157.113,90.044C150.78,82.3,131.505,74.976,109.032,82.3,98.243,85.819,90.5,59.785,89.1,53.455c-7.857-.47-3.752,12.665-14.541,15.01,2.11,4.925,7.854,28.592,27.91,26.5,22.515-2.345,39.636-15.01,52.3-.7,1.759-.177,3.576-1.408,2.345-4.219" fill="#f68b85"/>
        <path id="Path_4779" data-name="Path 4779" d="M159.694,89.927C170.952,93.093,175,106.459,174,117.016c-.641,6.787,3.519,19.232,10.554,22.281-8.443,5.63-12.664-2.814-17.824,4.218-6.567-6.1-9.382-15.478-8.444-20.873.559-3.211,3.518-24.275-.7-28.5-1.938-1.938-.53-4.965,2.112-4.218" fill="#f68b85"/>
        <path id="Path_4780" data-name="Path 4780" d="M166.2,87.114c-.15-1.962-4.19-5.072-8.184-4.651a9.245,9.245,0,0,0-7.941,7.347c0,2.485,4.515,5.571,8.209,6.1,1.338.191,8.106-6.312,7.916-8.795" fill="#ffb5b3"/>
        <path id="Path_4781" data-name="Path 4781" d="M159.341,81.953c-1.7-.17-7.974,1.056-8.444,4.1s2.247,3.731,3.519,2.288c1.938-2.2,7.006-2.493,9.586-2.728a6.429,6.429,0,0,0-4.661-3.664" fill="#ffd4d4"/>
      </g>
    </g>
  </g>
</svg>
