<svg id="linepay-bg-clock" xmlns="http://www.w3.org/2000/svg" xmlns:xlink="http://www.w3.org/1999/xlink" width="95.913" height="95.913" viewBox="0 0 95.913 95.913">
  <defs>
    <clipPath id="clip-path">
      <rect id="Rectangle_73" data-name="Rectangle 73" width="95.913" height="95.913" fill="none"/>
    </clipPath>
  </defs>
  <g id="Group_99" data-name="Group 99" clip-path="url(#clip-path)">
    <path id="Path_1198" data-name="Path 1198" d="M91.5,95.913H4.411A4.425,4.425,0,0,1,0,91.5V4.411A4.424,4.424,0,0,1,4.411,0H91.5a4.424,4.424,0,0,1,4.411,4.411V91.5A4.424,4.424,0,0,1,91.5,95.913" transform="translate(0 0)" fill="#308482"/>
    <path id="Path_1199" data-name="Path 1199" d="M90.542,94.322H15.893a3.792,3.792,0,0,1-3.781-3.781V15.892a3.792,3.792,0,0,1,3.781-3.781H90.542a3.792,3.792,0,0,1,3.781,3.781V90.541a3.792,3.792,0,0,1-3.781,3.781" transform="translate(-5.261 -5.26)" fill="#fff"/>
    <path id="Path_1200" data-name="Path 1200" d="M12.112,97.241v30.277a3.793,3.793,0,0,0,3.781,3.781H90.542a3.793,3.793,0,0,0,3.781-3.781V104.558c-33.487,11.45-63.491,2.077-82.211-7.317" transform="translate(-5.261 -42.237)" fill="#e8e8e8"/>
    <path id="Path_1201" data-name="Path 1201" d="M84.131,71.33a.848.848,0,0,1-.562-1.485l20.137-17.775a.849.849,0,1,1,1.123,1.273L84.692,71.118a.845.845,0,0,1-.561.212" transform="translate(-36.174 -22.525)" fill="#f68b85"/>
    <path id="Path_1202" data-name="Path 1202" d="M46.051,112.579a.848.848,0,0,1-.66-1.381l20.137-25a.849.849,0,0,1,1.321,1.065l-20.137,25a.847.847,0,0,1-.661.316" transform="translate(-19.634 -37.305)" fill="#f68b85"/>
    <path id="Path_1203" data-name="Path 1203" d="M85.5,82.391a3.114,3.114,0,1,1-3.113-3.114A3.113,3.113,0,0,1,85.5,82.391" transform="translate(-34.434 -34.435)" fill="#308482"/>
    <path id="Path_1204" data-name="Path 1204" d="M83.045,14.555a2.263,2.263,0,0,1-2.263-2.263V7.621a2.263,2.263,0,1,1,4.525,0v4.672a2.263,2.263,0,0,1-2.263,2.263" transform="translate(-35.088 -2.327)" fill="#308482"/>
    <path id="Path_1205" data-name="Path 1205" d="M83.045,158.519a2.263,2.263,0,0,1-2.263-2.263v-4.671a2.263,2.263,0,1,1,4.525,0v4.671a2.263,2.263,0,0,1-2.263,2.263" transform="translate(-35.088 -64.86)" fill="#308482"/>
    <path id="Path_1206" data-name="Path 1206" d="M156.258,81.178h-4.671a2.263,2.263,0,0,1,0-4.525h4.671a2.263,2.263,0,0,1,0,4.525" transform="translate(-64.86 -33.295)" fill="#308482"/>
    <path id="Path_1207" data-name="Path 1207" d="M10.917,81.178H6.246a2.263,2.263,0,0,1,0-4.525h4.671a2.263,2.263,0,0,1,0,4.525" transform="translate(-1.73 -33.295)" fill="#308482"/>
  </g>
</svg>
