<svg xmlns="http://www.w3.org/2000/svg" xmlns:xlink="http://www.w3.org/1999/xlink" width="206.63" height="306.229" viewBox="0 0 206.63 306.229">
  <defs>
    <clipPath id="clip-path">
      <rect id="Rectangle_442" data-name="Rectangle 442" width="206.63" height="306.229" fill="none"/>
    </clipPath>
    <clipPath id="clip-path-2">
      <path id="Path_4785" data-name="Path 4785" d="M102.027,141.889s6.042,19.988,3.454,28.652c-2.164,7.243-36.145,17.022-35.011,17.706,5.48,5.606,29.564,17.865,58.4,14.247S169.5,173.015,169.5,173.015c-12.184-3.468-23.763-4.692-25.591-8.89s-4.039-27.747-4.039-27.747Z" transform="translate(-70.442 -136.378)" fill="none"/>
    </clipPath>
  </defs>
  <g id="login-girl" transform="translate(0 -0.001)">
    <g id="Group_632" data-name="Group 632" transform="translate(0 0.001)">
      <g id="Group_631" data-name="Group 631" clip-path="url(#clip-path)">
        <path id="Path_4782" data-name="Path 4782" d="M168.915,71.7l5.434-10.009c5.53,13.792,32.189,42.883,19.111,57.789-1,1.142-2.624,1.667-2.433-.643.292-3.5,2.127-12.966-4.265-22.954,0,0,17.442,39.531-35.781,41.526C100.076,138.442,168.915,71.7,168.915,71.7" transform="translate(-22.953 -10.709)" fill="#684e46" fill-rule="evenodd"/>
        <path id="Path_4783" data-name="Path 4783" d="M139.872,136.379s2.212,23.55,4.039,27.748,13.407,5.422,25.591,8.89c0,0-11.794,25.862-40.633,29.477s-52.92-8.64-58.4-14.247c-1.135-.683,32.846-10.463,35.011-17.705,2.588-8.664-3.454-28.652-3.454-28.652Z" transform="translate(-12.228 -23.675)" fill="#fcd1c8"/>
      </g>
    </g>
    <g id="Group_634" data-name="Group 634" transform="translate(58.214 112.704)">
      <g id="Group_633" data-name="Group 633" clip-path="url(#clip-path-2)">
        <path id="Path_4784" data-name="Path 4784" d="M112.179,164.3a19.6,19.6,0,0,0,.719-4.153c1.171-6.941-.379-19.127-.379-19.127l35.727-4.776a115.321,115.321,0,0,0,.834,13.963c-4.244,4.664-10.147,10.935-13.02,13a25.342,25.342,0,0,1-21.354,2.845,21.042,21.042,0,0,1-2.527-1.748" transform="translate(-77.687 -136.354)" fill="#f8a8a0" fill-rule="evenodd"/>
      </g>
    </g>
    <g id="Group_636" data-name="Group 636" transform="translate(0 0.001)">
      <g id="Group_635" data-name="Group 635" clip-path="url(#clip-path)">
        <path id="Path_4786" data-name="Path 4786" d="M55.969,90.538S49.7,103.423,47.929,113.28s1.674,24.7,12.9,27.565a.5.5,0,0,0,.424-.676c-.169-.607-2.566-3.587-3.609-7.731,0,0,14.565,24.758,44.5,19.339L80.166,93.54Z" transform="translate(-8.244 -15.717)" fill="#684e46" fill-rule="evenodd"/>
        <path id="Path_4787" data-name="Path 4787" d="M177.527,177.733s21.392-25.065,54.663,68.024a14.86,14.86,0,0,1-3.74,15.823c-7.322,6.89-21.7,16.463-47.52,20.636,0,0-29.27-85.333-3.4-104.484" transform="translate(-28.964 -30.321)" fill="#fff"/>
        <path id="Path_4788" data-name="Path 4788" d="M72.7,191.511s-9.508,2.513-16.621,8.334S19.7,230.409,19.7,230.409l6.981,36.552L35.146,272l13.522-1.838S79.983,200.351,72.7,191.511" transform="translate(-3.419 -33.245)" fill="#fff" fill-rule="evenodd"/>
        <path id="Path_4789" data-name="Path 4789" d="M162.551,363.959c12.908-3.278,18.606-7,18.606-7s4.235-3.842.394-11.3c-5.839-11.213-14.941-29.109-16.972-38.507-2.888-13.36,14.411-71.255,14.411-71.255s-19.519-41.5-14.641-61.644L140.66,172.27S105.63,207.9,105.218,208.819s-12.647-25.007-12.647-25.007l-15.185,4.359s-7.779,27.507-14.265,44.658-20.859,29.06-7.11,54.308c0,0,2.431,18.138-.331,32.394-1.645,8.491-5.771,24.864-9,38.233Z" transform="translate(-8.103 -29.905)" fill="#fff" fill-rule="evenodd"/>
        <path id="Path_4790" data-name="Path 4790" d="M188.836,327.609a75.531,75.531,0,0,1-4.292-12.355c-2.889-13.36,14.41-71.255,14.41-71.255a228.972,228.972,0,0,1-9.721-24.958l-.023-.069s2.5,9.759-2.468,24.317-5.315,31.139-9.148,42.537-11.471,13.79-15.413,15.191,16.308,4.942,26.655,26.592" transform="translate(-28.066 -38.012)" fill="#e4d9e1" fill-rule="evenodd"/>
        <path id="Path_4791" data-name="Path 4791" d="M168.548,96.4s3.4-4.407,6-4.415,6.314,5.191,6.351,9.389-3.448,19.117-12.431,14.432.083-19.407.083-19.407" transform="translate(-28.555 -15.969)" fill="#fcd1c8" fill-rule="evenodd"/>
        <path id="Path_4792" data-name="Path 4792" d="M165.978,102.054a.943.943,0,0,0-.084,1.11.518.518,0,0,0,.794.055s3.51,12.594,5.219,10.415,3.521-4.293,4.011-7.618-2.686-6.032-1.724-6.977c.917-.9,2.106.255,2.215.366l0,.006v0h0a8.509,8.509,0,0,1,1.459,2.281.52.52,0,0,0,.835.227.965.965,0,0,0,.285-1.085c-.007-.015-1.933-4.739-5.49-4.237-3.4.478-7.519,5.441-7.528,5.454" transform="translate(-28.773 -16.763)" fill="#f8a8a0" fill-rule="evenodd"/>
        <path id="Path_4793" data-name="Path 4793" d="M78.033,100.292s-4.22-3.633-6.761-3.113-5.137,6.359-4.327,10.479,7.235,18.026,15.089,11.626-4-18.992-4-18.992" transform="translate(-11.595 -16.861)" fill="#f8a8a0" fill-rule="evenodd"/>
        <path id="Path_4794" data-name="Path 4794" d="M107.319,30.985c52.525-4.259,48.722,37.307,47.247,70.672a43.465,43.465,0,0,1-7.5,22.958s-13.538,14.4-18.385,17.606a25.083,25.083,0,0,1-21.225,2.033c-5.368-2.232-21.394-13.794-21.394-13.794a43.482,43.482,0,0,1-11.719-21.12c-7.778-32.477-19.4-72.57,32.975-78.354" transform="translate(-11.719 -5.327)" fill="#fcd1c8" fill-rule="evenodd"/>
        <path id="Path_4795" data-name="Path 4795" d="M153.739,64.408c1.411,7.432,1.641,15.611,1.475,23.815l-.653.815c.635.014-10.638,1.707-24.774-12.954s-22.093-15.817-22.093-15.817S104.38,93.995,77.005,98.307a22.333,22.333,0,0,1-5.935.237c-1.882-8.433-3.417-16.973-3.551-24.977a59.08,59.08,0,0,1,4.844-9.111c.842-.707,36.521-16.5,38.945-16.243,1.582.173,25.792,9.638,42.431,16.194" transform="translate(-11.721 -8.37)" fill="#f8a8a0" fill-rule="evenodd"/>
        <path id="Path_4796" data-name="Path 4796" d="M176.405,89.306s-3.769,3.016-4.187,12.273a20.7,20.7,0,0,1-5.384-14.641c.466-8.791,9.571,2.368,9.571,2.368" transform="translate(-28.956 -14.507)" fill="#684e46" fill-rule="evenodd"/>
        <path id="Path_4797" data-name="Path 4797" d="M127.07,87.339a5.272,5.272,0,0,1-2.6.6,4.7,4.7,0,0,1-3.135-1.829c-.089-.4.808.007,2.785-1.553,1.94-1.532,9.55-6.127,17.276-3,1.331.542.83,1.426-.567,1.461a20.178,20.178,0,0,0-13.762,4.322" transform="translate(-21.062 -13.973)" fill="#684e46" fill-rule="evenodd"/>
        <path id="Path_4798" data-name="Path 4798" d="M93.119,94.71a4.868,4.868,0,0,0,2.612-.271,4.41,4.41,0,0,0,2.147-2.873c-.077-.43-.736.28-3.163-.608-2.382-.874-11.16-2.88-17,2.825-1,.984-.2,1.7,1.1,1.262a18.812,18.812,0,0,1,14.3-.334" transform="translate(-13.413 -15.605)" fill="#684e46" fill-rule="evenodd"/>
        <path id="Path_4799" data-name="Path 4799" d="M108.481,106.267a.912.912,0,0,1,1.8.292c-.266,1.65-1.815,11.039-1.537,11.84.221.517,1.333,1.132,1.817,1.35a5.806,5.806,0,0,0,2.712.55.913.913,0,0,1,.116,1.822,7.649,7.649,0,0,1-3.581-.708,5.758,5.758,0,0,1-2.746-2.3c-.47-1.1,1.055-11.014,1.418-12.844" transform="translate(-18.57 -18.315)" fill="#f8a8a0" fill-rule="evenodd"/>
        <path id="Path_4800" data-name="Path 4800" d="M65.236,97.379a23.626,23.626,0,0,1,5.82,10.757c1.581,6.692,2.188,9.2,2.188,9.2a18.5,18.5,0,0,0,3.628-9.992c.089-5.525.9-8.856,2.816-10.92s-10.866-5.434-14.452.955" transform="translate(-11.324 -16.261)" fill="#684e46" fill-rule="evenodd"/>
        <path id="Path_4801" data-name="Path 4801" d="M101.691,52.885S100.7,86.6,69.37,92.208c0,0-16.408.065-11.747-16.559,1.783-13.507,3.443-36.233,8.694-46.231S88.476,7.269,100.21,15.134c0,0,10.175-13.543,29.319-4.475s28.322,31.985,31.724,41.627c1.474,4.18,2.23,14.125,2.268,22.016-1.081,3.629-12.818,3.34-12.818,3.34-21.98-.972-25.253-24.364-49.013-24.758" transform="translate(-9.858 -1.308)" fill="#684e46" fill-rule="evenodd"/>
        <path id="Path_4802" data-name="Path 4802" d="M58.222,72.884c1.665-13.661,3.437-34.122,8.344-43.466,5.253-10,22.159-22.149,33.893-14.283,0,0,10.175-13.544,29.319-4.475,17.961,8.51,27.151,29.207,31.029,39.694,0,0-.793,17.184-17.721,11.288C126.879,56,113.3,46.473,96.6,48.663c-3.722.493-3.681,1.83.083,2.673,0,0-1.792,29.956-38.464,21.548" transform="translate(-10.107 -1.309)" fill="#7f5a50" fill-rule="evenodd"/>
        <path id="Path_4803" data-name="Path 4803" d="M159.475,28.1a83.308,83.308,0,0,1,10.3,16.808c-8.573,11.12-27.143,6.866-38.192-2.395,20.321,2.439,26.24-7.255,27.888-14.413" transform="translate(-22.842 -4.88)" fill="#936e65" fill-rule="evenodd"/>
        <path id="Path_4804" data-name="Path 4804" d="M109.332,15.19A21.511,21.511,0,0,1,122.5,7.854c7.225,12.29-5.659,25.829-5.659,25.829.121-12.171-7.5-18.493-7.5-18.493" transform="translate(-18.979 -1.364)" fill="#684e46" fill-rule="evenodd"/>
        <path id="Path_4805" data-name="Path 4805" d="M106.007,127.779c2.731.553,6.856.139,10.875-.873s7.89-2.6,10.1-4.4a1.027,1.027,0,0,1,1.672.826c-.207,6.146-1.712,10.712-3.959,13.543a8.874,8.874,0,0,1-4.915,3.287,8.634,8.634,0,0,1-5.826-.794c-3.14-1.523-6.334-4.858-9.057-10.114a1.024,1.024,0,0,1,1.112-1.477Z" transform="translate(-18.189 -21.228)" fill="#684e46" fill-rule="evenodd"/>
        <path id="Path_4806" data-name="Path 4806" d="M107.111,127.9a29.257,29.257,0,0,0,10.176-.989c4.022-1.01,7.889-2.6,10.1-4.4a1.027,1.027,0,0,1,1.672.826c-.017.5-.043.984-.075,1.463-6.515,5.582-17.43,6.517-19.6,5.791a3.694,3.694,0,0,1-2.272-2.694" transform="translate(-18.593 -21.228)" fill="#fff" fill-rule="evenodd"/>
        <path id="Path_4807" data-name="Path 4807" d="M128.835,134.06a15.972,15.972,0,0,1-2.531,4.863,8.875,8.875,0,0,1-4.915,3.288,8.639,8.639,0,0,1-5.826-.794,12.292,12.292,0,0,1-1.511-.873c1.069-1.182,3.291-2.755,7.333-2.237,0,0,2.99-4.1,7.45-4.248" transform="translate(-19.798 -23.272)" fill="#f68b85" fill-rule="evenodd"/>
        <path id="Path_4808" data-name="Path 4808" d="M120.134,148.207a.931.931,0,1,1,.245-1.846,10.124,10.124,0,0,0,7.4-2.666.93.93,0,0,1,1.235,1.392,12.119,12.119,0,0,1-8.885,3.121" transform="translate(-20.713 -24.904)" fill="#f8a8a0" fill-rule="evenodd"/>
        <path id="Path_4809" data-name="Path 4809" d="M112.557,221.418c-3.761.331-8.071-5.382-13.177-17.467-3.625-8.579-6.335-17.355-6.36-17.443l1.988-.612c7.63,24.809,14.7,33.683,17.367,33.448,5.358-.471,29.59-27.576,44.569-45.678l1.6,1.326c-.094.115-9.519,11.492-19.769,22.806-20.978,23.158-24.925,23.506-26.222,23.62" transform="translate(-16.147 -30.148)" fill="#308482"/>
        <path id="Path_4810" data-name="Path 4810" d="M208.638,255.182a.585.585,0,0,1-.573.6h0a31.648,31.648,0,0,0-10.433,1.906.586.586,0,0,1-.449-1.082,32.226,32.226,0,0,1,10.86-1.994.585.585,0,0,1,.6.574" transform="translate(-34.166 -44.198)" fill="#e4d9e1"/>
        <path id="Path_4811" data-name="Path 4811" d="M146.858,262.411a4.016,4.016,0,0,0-3.709,2.827,2.165,2.165,0,0,0,2.1,2.929,4.016,4.016,0,0,0,3.709-2.832,2.163,2.163,0,0,0-2.1-2.924" transform="translate(-24.825 -45.553)" fill="#fff" fill-rule="evenodd"/>
        <path id="Path_4812" data-name="Path 4812" d="M144.819,270.837a2.456,2.456,0,0,0-2.268,1.73,1.324,1.324,0,0,0,1.284,1.791,2.459,2.459,0,0,0,2.269-1.731,1.324,1.324,0,0,0-1.285-1.79" transform="translate(-24.731 -47.016)" fill="#684e46" fill-rule="evenodd"/>
        <path id="Path_4813" data-name="Path 4813" d="M72.076,229.951a114.021,114.021,0,0,0-21.82-.724V287.92a114.155,114.155,0,0,1,21.82.724c9.844,1.45,23.265,4.107,34.6,16.667V246.617c-11.336-12.561-24.76-15.217-34.6-16.666" transform="translate(-8.724 -39.754)" fill="#c4c4c4"/>
        <path id="Path_4814" data-name="Path 4814" d="M168.069,234.591a19.262,19.262,0,0,0-8.638-.569c-12.875,2.085-49.8,8.044-53.424,8.348A11.56,11.56,0,0,0,99.1,245.33a11.559,11.559,0,0,0-6.914-2.96c-3.625-.306-40.548-6.263-53.422-8.348a19.262,19.262,0,0,0-8.638.569L19.7,237.746,28.7,249.214,99.1,257.722l70.392-8.508,9.008-11.468Z" transform="translate(-3.419 -40.582)" fill="#e2e2e2"/>
        <path id="Path_4815" data-name="Path 4815" d="M111.095,248.286a5.06,5.06,0,0,0-2.386,1.061A6.079,6.079,0,0,1,105,250.84H90.647a6.084,6.084,0,0,1-3.712-1.493,5.06,5.06,0,0,0-2.386-1.061l-69.742-11.4a2.143,2.143,0,0,0-2.421,1.823c-.008.059-.014.118-.017.177v82.691a.854.854,0,0,0,.758.8L84.549,334.1a5.012,5.012,0,0,1,2.373,1.05,6.093,6.093,0,0,0,3.726,1.506H105a6.092,6.092,0,0,0,3.725-1.5,5.021,5.021,0,0,1,2.373-1.05l71.423-11.718a.854.854,0,0,0,.758-.8V238.2c.011-1.086-1.426-1.562-2.494-1.327Z" transform="translate(-2.147 -41.109)" fill="#7b8a92"/>
        <path id="Path_4816" data-name="Path 4816" d="M111.091,249.082a5.079,5.079,0,0,0-2.388,1.063,6.089,6.089,0,0,1-3.716,1.495H90.618a6.088,6.088,0,0,1-3.715-1.495,5.077,5.077,0,0,0-2.387-1.063L13.363,237.406a.9.9,0,0,0-1.079.679.946.946,0,0,0-.019.127v84.231a.854.854,0,0,0,.759.8l71.5,11.73a5.023,5.023,0,0,1,2.372,1.051,6.1,6.1,0,0,0,3.73,1.507h14.366a6.094,6.094,0,0,0,3.729-1.5,5.032,5.032,0,0,1,2.372-1.052l71.494-11.73a.855.855,0,0,0,.759-.8V238.213a.9.9,0,0,0-.973-.826.919.919,0,0,0-.126.019Z" transform="translate(-2.129 -41.209)" fill="#684e46"/>
        <path id="Path_4817" data-name="Path 4817" d="M202.107,237.408,130.95,249.084a5.072,5.072,0,0,0-2.388,1.061,7.3,7.3,0,0,1-1.889,1.126v85.9a7.326,7.326,0,0,0,1.9-1.137,5.023,5.023,0,0,1,2.372-1.051l71.5-11.73a.856.856,0,0,0,.759-.807v-84.23a.9.9,0,0,0-.973-.825,1.073,1.073,0,0,0-.126.02" transform="translate(-21.989 -41.209)" fill="#684e46"/>
        <path id="Path_4818" data-name="Path 4818" d="M120.556,254.243H106.191a6.08,6.08,0,0,1-3.715-1.495,4.741,4.741,0,0,0-.523-.37v85.9a4.549,4.549,0,0,1,.508.359,6.1,6.1,0,0,0,3.73,1.507h14.366a4.946,4.946,0,0,0,1.826-.37v-85.9a4.961,4.961,0,0,1-1.826.369" transform="translate(-17.698 -43.811)" fill="#513b35"/>
        <path id="Path_4819" data-name="Path 4819" d="M73.748,272.055,30.779,265v8.311l42.969,7.05Z" transform="translate(-5.343 -46.003)" fill="#513b35"/>
        <path id="Path_4820" data-name="Path 4820" d="M67.112,327.871l-26.227-4.3v2.971l26.227,4.306Z" transform="translate(-7.097 -56.169)" fill="#513b35"/>
        <path id="Path_4821" data-name="Path 4821" d="M187.143,337.5l15.608-2.561v1.768l-15.608,2.56Z" transform="translate(-32.486 -58.143)" fill="#513b35"/>
        <path id="Path_4822" data-name="Path 4822" d="M187.143,332.109l15.608-2.561v1.768l-15.608,2.56Z" transform="translate(-32.486 -57.207)" fill="#513b35"/>
        <rect id="Rectangle_443" data-name="Rectangle 443" width="17.329" height="2.078" transform="translate(86.022 273.244)" fill="#fff"/>
        <rect id="Rectangle_444" data-name="Rectangle 444" width="17.329" height="2.078" transform="translate(86.022 285.143)" fill="#fff"/>
        <path id="Path_4823" data-name="Path 4823" d="M36.893,300.548c-.337,1.961-2.149,3.109-3.421,3.673a9.752,9.752,0,0,1-1.283.474,5.076,5.076,0,0,1,1.7,1.5,4.184,4.184,0,0,1-.364,5.111,5.4,5.4,0,0,1-2.487,1.553,7.512,7.512,0,0,1-1.2.285c.23.013.743.189.473,1.514a6.584,6.584,0,0,1-.364,1.244c-1.407,3.8-11.909,4.447-20.007-.041s-13.789-26.588-6.76-36.441c2.055-2.867,7.041-4.758,7.041-4.758v2.04a4.5,4.5,0,0,0,3.083,4.164c6.882,2.541,16.844,5.149,18.425,5.57,3.7.973,3.663,5.474,1.621,7.246a2.84,2.84,0,0,1-2.066.7,7,7,0,0,1,3.673,1.433,4.839,4.839,0,0,1,1.933,4.731" transform="translate(0 -47.679)" fill="#fcd1c8"/>
        <path id="Path_4824" data-name="Path 4824" d="M37.611,298.626c-1.082-.15-2.22-.325-3.379-.513a110.588,110.588,0,0,1-11.327-2.461,35.075,35.075,0,0,1-5.555-1.96,5.837,5.837,0,0,1-1.852-1.3.946.946,0,0,1,.115-1.334l.006,0a.96.96,0,0,1,1.339.136,4.412,4.412,0,0,0,1.23.8,20.883,20.883,0,0,0,2.622,1.04,76.175,76.175,0,0,0,7.719,2.066c2.461.541,5.042,1.015,7.475,1.393a2.844,2.844,0,0,1-2.066.7,7,7,0,0,1,3.678,1.433" transform="translate(-2.652 -50.488)" fill="#f8a8a0"/>
        <path id="Path_4825" data-name="Path 4825" d="M36.544,311.221c-.758-.108-1.531-.217-2.312-.351A114.7,114.7,0,0,1,22.905,308.4a33.8,33.8,0,0,1-5.555-1.961,5.627,5.627,0,0,1-1.853-1.3.931.931,0,0,1,.106-1.311l.016-.013a.947.947,0,0,1,1.334.117l0,.006a4.44,4.44,0,0,0,1.225.8,22.881,22.881,0,0,0,2.623,1.054c2.11.7,4.839,1.42,7.719,2.055,2.5.541,5.137,1.028,7.6,1.407a9.716,9.716,0,0,1-1.284.473,5.076,5.076,0,0,1,1.7,1.5" transform="translate(-2.652 -52.701)" fill="#f8a8a0"/>
        <path id="Path_4826" data-name="Path 4826" d="M32.961,321.578c-3.461-.622-7.041-1.42-10.057-2.257a33.825,33.825,0,0,1-5.555-1.961,5.627,5.627,0,0,1-1.853-1.3.931.931,0,0,1,.106-1.311l.016-.013a.945.945,0,0,1,1.331.113l.007.007a4.413,4.413,0,0,0,1.231.8,22.974,22.974,0,0,0,2.622,1.055c2.11.7,4.839,1.419,7.719,2.054,1.69.364,3.444.716,5.164,1.014a7.522,7.522,0,0,1-1.2.283c.229.013.743.19.473,1.514" transform="translate(-2.651 -54.597)" fill="#f8a8a0"/>
        <path id="Path_4827" data-name="Path 4827" d="M186.89,300.548c.337,1.961,2.149,3.109,3.421,3.673a9.71,9.71,0,0,0,1.283.474,5.069,5.069,0,0,0-1.7,1.5,4.184,4.184,0,0,0,.364,5.111,5.4,5.4,0,0,0,2.487,1.553,7.512,7.512,0,0,0,1.2.285c-.23.013-.743.189-.473,1.514a6.522,6.522,0,0,0,.364,1.244c1.407,3.8,11.909,4.447,20.007-.041s13.789-26.59,6.758-36.444c-2.055-2.866-7.041-4.758-7.041-4.758v2.04a4.5,4.5,0,0,1-3.083,4.164c-6.881,2.541-16.844,5.149-18.425,5.57-3.7.973-3.663,5.474-1.621,7.246a2.84,2.84,0,0,0,2.066.7,7,7,0,0,0-3.673,1.433,4.839,4.839,0,0,0-1.933,4.731" transform="translate(-32.431 -47.679)" fill="#fcd1c8"/>
        <path id="Path_4828" data-name="Path 4828" d="M189.242,298.626c1.082-.15,2.22-.325,3.379-.513a110.621,110.621,0,0,0,11.326-2.461,35.075,35.075,0,0,0,5.555-1.96,5.837,5.837,0,0,0,1.852-1.3.946.946,0,0,0-.115-1.333l-.007-.006a.958.958,0,0,0-1.337.136,4.412,4.412,0,0,1-1.23.8,20.883,20.883,0,0,1-2.622,1.04,76.19,76.19,0,0,1-7.72,2.066c-2.459.541-5.041,1.015-7.474,1.393a2.844,2.844,0,0,0,2.066.7,7,7,0,0,0-3.678,1.433" transform="translate(-32.85 -50.488)" fill="#f8a8a0"/>
        <path id="Path_4829" data-name="Path 4829" d="M190.536,311.221c.758-.108,1.531-.217,2.312-.351a114.7,114.7,0,0,0,11.326-2.473,33.8,33.8,0,0,0,5.555-1.961,5.627,5.627,0,0,0,1.853-1.3.931.931,0,0,0-.106-1.311l-.016-.013a.947.947,0,0,0-1.334.117l0,.006a4.428,4.428,0,0,1-1.231.8,22.818,22.818,0,0,1-2.622,1.054c-2.11.7-4.839,1.42-7.719,2.055-2.5.54-5.137,1.027-7.6,1.407a9.716,9.716,0,0,0,1.284.473,5.079,5.079,0,0,0-1.7,1.5" transform="translate(-33.075 -52.701)" fill="#f8a8a0"/>
        <path id="Path_4830" data-name="Path 4830" d="M194.717,321.578c3.461-.622,7.041-1.42,10.057-2.257a33.8,33.8,0,0,0,5.555-1.961,5.616,5.616,0,0,0,1.852-1.3.93.93,0,0,0-.1-1.311l-.016-.013a.945.945,0,0,0-1.331.113l-.007.007a4.413,4.413,0,0,1-1.231.8,22.975,22.975,0,0,1-2.622,1.055c-2.11.7-4.839,1.419-7.719,2.054-1.69.364-3.444.716-5.164,1.014a7.522,7.522,0,0,0,1.2.283c-.229.013-.743.19-.473,1.514" transform="translate(-33.674 -54.597)" fill="#f8a8a0"/>
        <path id="Path_4831" data-name="Path 4831" d="M89.152,108.436h0a4.344,4.344,0,0,0-2.127,1.446,2.314,2.314,0,0,1-1.636-1.283.766.766,0,1,0-1.42.574c.007.018.016.037.025.055a3.636,3.636,0,0,0,1.817,1.842,1.2,1.2,0,0,1-1.072-.241.768.768,0,0,0-.964,1.2,2.587,2.587,0,0,0,2.271.574,4.385,4.385,0,0,0,.2,1.32L87.53,118.1a4.385,4.385,0,1,0,8.383-2.575l-1.284-4.179a4.4,4.4,0,0,0-5.477-2.91" transform="translate(-14.493 -18.769)" fill="#684e46" fill-rule="evenodd"/>
        <path id="Path_4832" data-name="Path 4832" d="M134.418,98.69h0a4.324,4.324,0,0,1,2.567.16,2.32,2.32,0,0,0,.753-1.94.766.766,0,0,1,1.517-.206l0,.035a3.634,3.634,0,0,1-.626,2.515,1.2,1.2,0,0,0,.8-.755.768.768,0,0,1,1.439.536,2.582,2.582,0,0,1-1.66,1.651,4.451,4.451,0,0,1,.507,1.233l1.026,4.252a4.4,4.4,0,0,1-3.232,5.295h0a4.4,4.4,0,0,1-5.295-3.236l-1.026-4.249a4.4,4.4,0,0,1,3.232-5.295" transform="translate(-22.751 -16.673)" fill="#684e46" fill-rule="evenodd"/>
      </g>
    </g>
  </g>
</svg>
