<svg id="plus03" xmlns="http://www.w3.org/2000/svg" xmlns:xlink="http://www.w3.org/1999/xlink" width="225" height="311.121" viewBox="0 0 225 311.121">
  <defs>
    <clipPath id="clip-path">
      <rect id="Rectangle_2068" data-name="Rectangle 2068" width="225" height="311.121" fill="none"/>
    </clipPath>
    <clipPath id="clip-path-2">
      <path id="Path_9614" data-name="Path 9614" d="M16.64,107.714V248.175h11.4a86.962,86.962,0,0,0,103.107,67.034c13.279-2.815,29.5,2.127,44.713,7.07,23.31,7.575,44.243,15.15,48.558-5.2l10.041-30.342V107.714Z" transform="translate(-16.64 -107.714)" fill="none"/>
    </clipPath>
    <clipPath id="clip-path-3">
      <path id="Path_9616" data-name="Path 9616" d="M131.638,249.691s1.764,11.449-.332,16.006c-1.752,3.81-21.178,6.537-20.607,7,2.574,3.506,14.848,12.113,30.968,12.369s24.611-13.03,24.611-13.03c-6.422-2.852-12.688-4.425-13.364-6.874s-.06-15.554-.06-15.554Z" transform="translate(-110.687 -249.609)" fill="none"/>
    </clipPath>
  </defs>
  <g id="Group_3055" data-name="Group 3055" transform="translate(0)">
    <g id="Group_3054" data-name="Group 3054" clip-path="url(#clip-path)">
      <path id="Path_9610" data-name="Path 9610" d="M116.672,156.507a86.944,86.944,0,1,1-86.944,86.944,86.944,86.944,0,0,1,86.944-86.944" transform="translate(-13.028 -42.652)" fill="#00b7a5"/>
    </g>
  </g>
  <g id="Group_3057" data-name="Group 3057" transform="translate(7.179 78.359)">
    <g id="Group_3056" data-name="Group 3056" clip-path="url(#clip-path-2)">
      <path id="Path_9611" data-name="Path 9611" d="M173.4,236.218,170.476,225.6c9.938,10.431,37.708,27.6,39.8,45.015.161,1.334-.293,2.322-1.451.215-1.753-3.192-6.018-12.168-14.3-18.952,0,0,29.21,29.384,6.126,48.308C178.1,317.512,173.4,236.218,173.4,236.218" transform="translate(-58.564 -139.842)" fill="#684e46" fill-rule="evenodd"/>
      <path id="Path_9612" data-name="Path 9612" d="M182.482,238.737c1.7,2.267.674,5.906-2.29,8.129s-6.745,2.187-8.445-.08-.674-5.906,2.291-8.129,6.745-2.187,8.445.08" transform="translate(-58.687 -142.951)" fill="#ffcf7b" fill-rule="evenodd"/>
      <path id="Path_9613" data-name="Path 9613" d="M152.853,249.609s-.617,13.108.06,15.555,6.942,4.021,13.364,6.874c0,0-8.49,13.287-24.612,13.03S113.273,276.2,110.7,272.7c-.57-.463,18.855-3.191,20.608-7,2.1-4.557.332-16.006.332-16.006Z" transform="translate(-42.27 -146.384)" fill="#fcd1c8"/>
    </g>
  </g>
  <g id="Group_3059" data-name="Group 3059" transform="translate(75.596 181.584)">
    <g id="Group_3058" data-name="Group 3058" clip-path="url(#clip-path-3)">
      <path id="Path_9615" data-name="Path 9615" d="M139.283,262.189a10.871,10.871,0,0,0,.718-2.225c1.183-3.722,1.28-10.535,1.28-10.535l20,.156a64,64,0,0,0-.629,7.734,70.787,70.787,0,0,1-8.162,6.125,14.063,14.063,0,0,1-11.951-.1c-.447-.243-.678-.684-1.252-1.157" transform="translate(-118.48 -249.56)" fill="#f8a8a0" fill-rule="evenodd"/>
    </g>
  </g>
  <g id="Group_3061" data-name="Group 3061" transform="translate(7.179 78.359)">
    <g id="Group_3060" data-name="Group 3060" clip-path="url(#clip-path-2)">
      <path id="Path_9617" data-name="Path 9617" d="M180.209,225.828s2.212-2.156,3.637-1.958,3.065,3.342,2.759,5.651-3.381,10.232-7.951,6.96,1.556-10.653,1.556-10.653" transform="translate(-60.331 -139.366)" fill="#fcd1c8" fill-rule="evenodd"/>
      <path id="Path_9618" data-name="Path 9618" d="M178.734,229.031a.524.524,0,0,0-.133.6.288.288,0,0,0,.432.092s.949,7.19,2.057,6.127a8.67,8.67,0,0,0,2.795-3.872c.527-1.788-1.005-3.522-.4-3.967.575-.426,1.137.3,1.188.374l0,0h0a4.737,4.737,0,0,1,.624,1.366.288.288,0,0,0,.441.19.536.536,0,0,0,.242-.574c0-.009-.693-2.753-2.686-2.754-1.9,0-4.553,2.4-4.559,2.41" transform="translate(-60.766 -140.119)" fill="#f8a8a0" fill-rule="evenodd"/>
      <path id="Path_9619" data-name="Path 9619" d="M123.071,220.124s-2.035-2.324-3.472-2.236-3.316,3.092-3.191,5.418,2.572,10.465,7.383,7.56-.72-10.743-.72-10.743" transform="translate(-43.828 -137.738)" fill="#f8a8a0" fill-rule="evenodd"/>
      <path id="Path_9620" data-name="Path 9620" d="M144.293,180.451c29.181,1.747,23.858,24.282,20.453,42.493a24.109,24.109,0,0,1-5.9,12.027s-8.557,6.854-11.468,8.239a13.912,13.912,0,0,1-11.817-.535c-2.775-1.643-10.677-9.241-10.677-9.241a24.119,24.119,0,0,1-4.794-12.512c-1.746-18.444-5.011-41.369,24.207-40.472" transform="translate(-44.538 -127.53)" fill="#fcd1c8" fill-rule="evenodd"/>
      <path id="Path_9621" data-name="Path 9621" d="M167.426,203.788a65.074,65.074,0,0,1-1.042,13.2l-.422.4c.348.057-5.976.11-12.6-9.043s-10.9-10.407-10.9-10.407-4.444,18.268-19.816,18.507a12.368,12.368,0,0,1-3.278-.332,70.545,70.545,0,0,1-.008-13.994,32.734,32.734,0,0,1,3.37-4.627c.518-.323,21.344-6.224,22.654-5.892.856.217,13.417,7.3,22.046,12.2" transform="translate(-44.538 -130.569)" fill="#f8a8a0" fill-rule="evenodd"/>
      <path id="Path_9622" data-name="Path 9622" d="M185.683,221.7s-2.3,1.363-3.254,6.415a11.478,11.478,0,0,1-1.819-8.46c.94-4.792,5.073,2.045,5.073,2.045" transform="translate(-61.273 -137.757)" fill="#684e46" fill-rule="evenodd"/>
      <path id="Path_9623" data-name="Path 9623" d="M155.377,216.407a2.927,2.927,0,0,1-1.473.129,2.606,2.606,0,0,1-1.58-1.248c-.018-.226.444.067,1.651-.637,1.185-.69,5.722-2.623,9.723-.306.688.4.345.848-.426.758a11.2,11.2,0,0,0-7.9,1.3" transform="translate(-53.617 -136.472)" fill="#684e46" fill-rule="evenodd"/>
      <path id="Path_9624" data-name="Path 9624" d="M132.79,217.94a2.7,2.7,0,0,0,1.456.055,2.443,2.443,0,0,0,1.4-1.412c-.008-.242-.425.1-1.689-.58-1.24-.665-5.906-2.449-9.555.23-.629.462-.239.917.5.778a10.439,10.439,0,0,1,7.882.93" transform="translate(-45.923 -136.898)" fill="#684e46" fill-rule="evenodd"/>
      <path id="Path_9625" data-name="Path 9625" d="M165.017,224.911s.891-.258,1.338-2.019c.439-1.732-9.379-5.282-11.563,1.742,0,0,7.454-1.325,10.225.278" transform="translate(-54.29 -138.436)" fill="#f8a8a0" fill-rule="evenodd"/>
      <path id="Path_9626" data-name="Path 9626" d="M157.15,226.624a2.112,2.112,0,0,1-1.347.017,2.832,2.832,0,0,1-1.373-1.582c-.005-.264.4.116,1.533-.586a8.152,8.152,0,0,1,7.1-.6,1.4,1.4,0,0,0,.6-1.065.454.454,0,0,1,.514-.435.535.535,0,0,1,.443.567,2.3,2.3,0,0,1-.606,1.444l.074.048a.688.688,0,0,0,.436-.336.454.454,0,0,1,.66-.132.541.541,0,0,1,.165.706,1.784,1.784,0,0,1-.381.461c.407.467.073.857-.562.7a8.185,8.185,0,0,0-7.25.787" transform="translate(-54.191 -138.961)" fill="#684e46" fill-rule="evenodd"/>
      <path id="Path_9627" data-name="Path 9627" d="M125.522,226.751s-.794-.195-1.289-1.859c-.485-1.638,7.914-5.612,10.236,1,0,0-6.61-.84-8.946.856" transform="translate(-45.956 -138.916)" fill="#f8a8a0" fill-rule="evenodd"/>
      <path id="Path_9628" data-name="Path 9628" d="M132.705,228.028a1.71,1.71,0,0,0,1.181-.061,2.694,2.694,0,0,0,1.113-1.6c-.01-.253-.343.135-1.376-.473a6.622,6.622,0,0,0-6.257-.164,1.37,1.37,0,0,1-.585-.988.407.407,0,0,0-.474-.386.512.512,0,0,0-.357.57,2.309,2.309,0,0,0,.615,1.349l-.062.052a.608.608,0,0,1-.4-.3.38.38,0,0,0-.587-.091.556.556,0,0,0-.1.688,1.7,1.7,0,0,0,.361.421c-.33.472-.014.826.533.639a6.644,6.644,0,0,1,6.4.339" transform="translate(-46.262 -139.5)" fill="#684e46" fill-rule="evenodd"/>
      <path id="Path_9629" data-name="Path 9629" d="M142.138,226.753a.506.506,0,0,1,.967.3,60.862,60.862,0,0,0-1.766,6.384c.081.3.644.725.893.883a3.217,3.217,0,0,0,1.447.513.507.507,0,0,1-.078,1.01,4.243,4.243,0,0,1-1.912-.668,3.2,3.2,0,0,1-1.329-1.478c-.173-.64,1.436-5.967,1.778-6.945" transform="translate(-50.353 -140.058)" fill="#f8a8a0" fill-rule="evenodd"/>
      <path id="Path_9630" data-name="Path 9630" d="M116.358,217.314a13.1,13.1,0,0,1,2.36,6.361c.348,3.8.486,5.224.486,5.224a10.262,10.262,0,0,0,2.77-5.207c.479-3.027,1.184-4.794,2.4-5.779s-5.546-3.829-8.012-.6" transform="translate(-43.816 -137.174)" fill="#684e46" fill-rule="evenodd"/>
      <path id="Path_9631" data-name="Path 9631" d="M138.059,190.69s-3.169,18.442-20.812,19.085c0,0-9.018-1.241-5.164-10.009,2.03-7.28,4.71-19.634,8.372-24.717s13.894-10.442,19.727-5.209c0,0,6.642-6.647,16.451-.177s13.068,19.771,14.187,25.332c.428,2.126-.335,4.247-.818,6.294-.543,2.3-1.024,4.611-1.535,6.916a1.818,1.818,0,0,1-.723,1.307,1.784,1.784,0,0,1-1.331-.041c-3.064-.925-6.555-1.954-9.219-3.778a27.113,27.113,0,0,1-5.388-5.308c-3.5-4.234-6.964-8.218-12.576-9.473q-.582-.13-1.171-.223" transform="translate(-42.39 -123.825)" fill="#684e46" fill-rule="evenodd"/>
      <path id="Path_9632" data-name="Path 9632" d="M113,198.273c1.977-7.374,4.542-18.475,7.964-23.225,3.663-5.082,13.893-10.442,19.728-5.209,0,0,6.642-6.648,16.45-.177,9.2,6.072,12.642,18.155,13.956,24.217,0,0-1.772,9.376-10.611,4.822-8.463-4.362-15.182-10.65-24.521-10.746-2.084-.018-2.166.718-.163,1.475,0,0-3.314,16.314-22.8,8.843" transform="translate(-42.901 -123.825)" fill="#7f5a50" fill-rule="evenodd"/>
      <path id="Path_9633" data-name="Path 9633" d="M178.847,183.012a46.212,46.212,0,0,1,4.352,10.033c-5.574,5.441-15.443,1.659-20.791-4.286,10.973,2.92,14.978-1.944,16.439-5.747" transform="translate(-56.365 -128.235)" fill="#936e65" fill-rule="evenodd"/>
      <path id="Path_9634" data-name="Path 9634" d="M151.068,169.84a11.934,11.934,0,0,1,7.8-3.006c3.012,7.313-5.118,13.747-5.118,13.747a13.6,13.6,0,0,0-2.683-10.741" transform="translate(-53.275 -123.826)" fill="#684e46" fill-rule="evenodd"/>
      <path id="Path_9635" data-name="Path 9635" d="M138.955,240.2a15.117,15.117,0,0,0,6.041.367,15.557,15.557,0,0,0,5.889-1.629.568.568,0,0,1,.781.195.574.574,0,0,1,.073.388c-.592,3.36-1.774,5.751-3.228,7.131a4.92,4.92,0,0,1-2.955,1.424,4.788,4.788,0,0,1-3.138-.89c-1.606-1.08-3.1-3.162-4.188-6.26a.568.568,0,0,1,.725-.725Z" transform="translate(-49.767 -143.454)" fill="#684e46" fill-rule="evenodd"/>
      <path id="Path_9636" data-name="Path 9636" d="M139.754,240.32a16.244,16.244,0,0,0,5.666.248,15.558,15.558,0,0,0,5.889-1.629.568.568,0,0,1,.781.195.576.576,0,0,1,.073.389c-.048.273-.1.537-.155.8-4.013,2.559-10.081,2.224-11.216,1.656a2.05,2.05,0,0,1-1.038-1.656" transform="translate(-50.192 -143.454)" fill="#fff" fill-rule="evenodd"/>
      <path id="Path_9637" data-name="Path 9637" d="M151.575,246.164a8.882,8.882,0,0,1-1.769,2.474,4.923,4.923,0,0,1-2.955,1.424,4.794,4.794,0,0,1-3.139-.889,6.928,6.928,0,0,1-.762-.6,4.416,4.416,0,0,1,4.2-.658,6.022,6.022,0,0,1,4.422-1.753" transform="translate(-51.063 -145.438)" fill="#f68b85" fill-rule="evenodd"/>
      <path id="Path_9638" data-name="Path 9638" d="M146.066,253.855a.517.517,0,1,1,.278-1,5.616,5.616,0,0,0,4.275-.888.516.516,0,0,1,.57.861,6.724,6.724,0,0,1-5.123,1.023" transform="translate(-51.809 -147.004)" fill="#f8a8a0" fill-rule="evenodd"/>
      <path id="Path_9639" data-name="Path 9639" d="M229.6,263.03,205.84,287.983l18.452,3.429,17.152-18.169Z" transform="translate(-68.202 -150.041)" fill="#f8a8a0"/>
      <path id="Path_9640" data-name="Path 9640" d="M232.859,207.58c-2.444,13.314-6.419,34.707-6.737,36.313-2.862,14.413,20.5,17.835,22.069,2.164.756-7.561.351-26,.2-37.587-.093-7.143.229-14.1.355-21.241l-12.988-5.962.4,4.777c-.915,7.84-1.875,13.781-3.3,21.536" transform="translate(-73.663 -127.759)" fill="#fcd1c8" fill-rule="evenodd"/>
      <path id="Path_9641" data-name="Path 9641" d="M240.529,174.2c.367-1.672-1.232-3.588-1.385-5.243a12.785,12.785,0,0,1,2-8.33c1.719-2.563,3.96-4.73,5.858-7.163,2.108-2.7,3.791-5.7,5.673-8.555a43.07,43.07,0,0,1,3.057-4.169c.858-1.013,2.118-2.735,3.465-3.087a1.893,1.893,0,0,1,.53-.061,1.458,1.458,0,0,1,1.516,1.662,4.136,4.136,0,0,1-.655,1.555c-1.818,3.058-4.314,6.754-6.132,9.811a6.787,6.787,0,0,0-1.347,4.052,4.063,4.063,0,0,1,3.691.764,2.813,2.813,0,0,1,.72,1.677,3.726,3.726,0,0,1-.832,2.254c-.012.021.879.744.979.835a2.715,2.715,0,0,1,.921,1.626c.105.6.052,1.517.614,1.913,3.458,2.436,1.7,7.6-.874,9.928a13.006,13.006,0,0,1-6.63,3.439c-1.454.372-3.619.706-3.619.706-3.445,5.589-10.169,2.294-7.55-3.613" transform="translate(-77.261 -115.856)" fill="#fcd1c8"/>
      <path id="Path_9642" data-name="Path 9642" d="M246.566,171.475a.292.292,0,0,1-.2-.5,14.076,14.076,0,0,0,2.081-2.478.293.293,0,0,1,.3-.124,17.192,17.192,0,0,0,4.245.353c1.28-.051,2.034-.367,2.241-.936.294-.807-.637-1.364-1.7-1.91l-.3-.156a31.24,31.24,0,0,0-3.566-1.546c-.1-.039-.212-.084-.334-.135a6.5,6.5,0,0,0-1.26-.424c-.853-.111-2.206.655-3.286,1.859a.292.292,0,0,1-.435-.389c1.015-1.133,2.583-2.2,3.8-2.049a6.655,6.655,0,0,1,1.405.463l.324.13a31.654,31.654,0,0,1,3.632,1.577l.29.151c.928.475,2.481,1.272,1.986,2.63-.447,1.227-2.193,1.3-2.767,1.32a18.1,18.1,0,0,1-4.194-.326,14.694,14.694,0,0,1-2.057,2.416.293.293,0,0,1-.2.079" transform="translate(-78.677 -122.786)" fill="#f8a8a0"/>
      <path id="Path_9643" data-name="Path 9643" d="M259.944,169.181a.292.292,0,0,1-.179-.523l.154-.125a2.226,2.226,0,0,1,3-.3.292.292,0,0,1-.337.478,1.666,1.666,0,0,0-2.3.276l-.168.135a.289.289,0,0,1-.178.061" transform="translate(-82.867 -124.079)" fill="#f8a8a0"/>
      <path id="Path_9644" data-name="Path 9644" d="M255.617,165.457a.292.292,0,0,1-.245-.45A18.8,18.8,0,0,1,256.5,163.4a.292.292,0,0,1,.429.4,18.239,18.239,0,0,0-1.071,1.524.29.29,0,0,1-.246.134" transform="translate(-81.688 -122.865)" fill="#f8a8a0"/>
      <path id="Path_9645" data-name="Path 9645" d="M254.677,176.869a1.451,1.451,0,0,1-.866-.279,3.556,3.556,0,0,1-.669-.687,2.5,2.5,0,0,1-.7-1.473,1.775,1.775,0,0,1,.434-1.121,16.984,16.984,0,0,1,3.146-2.554.292.292,0,0,1,.319.49,16.443,16.443,0,0,0-3.012,2.433,1.2,1.2,0,0,0-.3.745,1.972,1.972,0,0,0,.571,1.113,3.042,3.042,0,0,0,.554.579c.38.272.782.189,1.347-.05a38.664,38.664,0,0,0,5.012-2.455.292.292,0,0,1,.3.5,39.249,39.249,0,0,1-5.084,2.491,2.732,2.732,0,0,1-1.049.266" transform="translate(-80.902 -124.881)" fill="#f8a8a0"/>
      <path id="Path_9646" data-name="Path 9646" d="M258.55,181.646a1.959,1.959,0,0,1-1.862-1.193,2.561,2.561,0,0,1,1.248-3.1.292.292,0,0,1,.287.508,2.01,2.01,0,0,0-1.014,2.329c.669,1.323,1.929.92,3.506.255l.192-.081a2.443,2.443,0,0,1,2.092.2.292.292,0,1,1-.253.527,1.867,1.867,0,0,0-1.614-.187l-.19.08a6.591,6.591,0,0,1-2.393.663" transform="translate(-82.013 -126.682)" fill="#f8a8a0"/>
      <path id="Path_9647" data-name="Path 9647" d="M252.482,173.565a2.268,2.268,0,0,1-1.624-.847,2.076,2.076,0,0,1-.549-1.648.292.292,0,0,1,.577.092,1.5,1.5,0,0,0,.415,1.175,1.852,1.852,0,0,0,1.188.643h0a.292.292,0,0,1,0,.584Z" transform="translate(-80.315 -124.913)" fill="#f8a8a0"/>
      <path id="Path_9648" data-name="Path 9648" d="M252.879,180.021a.3.3,0,0,1-.112-.022.293.293,0,0,1-.158-.383,3.784,3.784,0,0,0,.266-2.569.292.292,0,1,1,.486-.324,4.14,4.14,0,0,1-.212,3.117.293.293,0,0,1-.27.18" transform="translate(-80.941 -126.486)" fill="#f8a8a0"/>
      <path id="Path_9649" data-name="Path 9649" d="M243.724,183.228l-4.27-1.961.4,4.777c-.138,1.184-.277,2.323-.418,3.432a10.807,10.807,0,0,0,6.615,2.449l-2.722-3.015Z" transform="translate(-77.357 -127.759)" fill="#f8a8a0" fill-rule="evenodd"/>
      <path id="Path_9650" data-name="Path 9650" d="M87.09,277.769a27.844,27.844,0,0,0-9.777,3.285c-4.361,2.646-61.277,23.211-61.277,23.211L0,332.877l29.049,30.155,49.2-39.829s12.152-40.012,8.84-45.434" transform="translate(-12.105 -154.058)" fill="#3b7b9a" fill-rule="evenodd"/>
      <path id="Path_9651" data-name="Path 9651" d="M169.22,252.547c.005.46,3.572,1.761,3.906,1.848a25.775,25.775,0,0,0,10.693.468c11.833-1.974,20.806-11.471,25.7-21.949a50.652,50.652,0,0,0,4.447-16.685c.216-2.213.78-14.838,3.545-15.3,0,0,27.3-4.59,25.813,35.945-1.288,35.085-4.432,25.283,7.587,53.976s6.213,76.955-27.629,46.313-53.587-41.11-53.587-41.11-.479-43.484-.479-43.5" transform="translate(-58.222 -133.074)" fill="#3b7b9a"/>
      <path id="Path_9652" data-name="Path 9652" d="M264.365,290.783c-.693-1.654-1.335-3.18-1.931-4.594-7.4-17.569-7.4-17.569-6.469-31.582.286-4.316.642-9.689.918-17.224.554-15.075-2.732-25.854-9.765-32.037a21.617,21.617,0,0,0-8.293-4.537,18.486,18.486,0,0,0-3.773.116c-.587.1-1.074.749-1.481,1.729a19.747,19.747,0,0,1,11.768,4.757c6.373,5.62,9.341,15.669,8.819,29.872-.275,7.493-.629,12.844-.912,17.144-.962,14.518-.9,14.826,6.676,32.821.594,1.412,1.237,2.936,1.928,4.587,6.414,15.313,7.489,35.809,2.448,46.663-1.773,3.816-4.165,6.221-7.109,7.146a1.359,1.359,0,0,0-.9.923,13.631,13.631,0,0,0,4.577.338,16.62,16.62,0,0,0,5.906-7.258c5.415-11.657,4.381-32.664-2.405-48.865" transform="translate(-75.759 -133.074)" fill="#e1b309"/>
      <path id="Path_9653" data-name="Path 9653" d="M192.992,319.078l.132.477a76.159,76.159,0,0,0,3.99,10.92c1.29-14.16,2.408-19.128,2.408-19.128a25.5,25.5,0,0,1-6.53,7.731" transform="translate(-64.7 -163.209)" fill="#105e4f"/>
      <path id="Path_9654" data-name="Path 9654" d="M148.892,190.405s-62.31-5.377-82.07,7.892c0,0,57.375,23.576,100.825,3.457l-.962-2.7a.38.38,0,0,1,.594-.426l2.6,2.05c.446-.225.888-.461,1.331-.695l-.819-1.4a.248.248,0,0,1,.329-.346l1.9.989c42.28-23.2-23.734-8.817-23.734-8.817" transform="translate(-30.316 -129.048)" fill="#3b7b9a"/>
      <path id="Path_9655" data-name="Path 9655" d="M117.067,175.722s11.194-56.344,33.151-45.964,4.5,7.252,4.5,7.252L168.826,175.3s-40.571,26.34-51.759.42" transform="translate(-44.009 -113.374)" fill="#3b7b9a"/>
      <rect id="Rectangle_2069" data-name="Rectangle 2069" width="10.863" height="2.209" transform="translate(96.262 68.901) rotate(-68.717)" fill="#13637e"/>
      <path id="Path_9656" data-name="Path 9656" d="M179.11,188.206l-.308-.1c1.283-3.8,6.954-6.734,7.195-6.858l.148.29c-.058.029-5.794,3-7.035,6.672" transform="translate(-60.833 -127.753)" fill="#fff"/>
      <path id="Path_9657" data-name="Path 9657" d="M187.889,178.083l.629.7a.348.348,0,0,0,.306.113l.932-.122a.349.349,0,0,1,.348.521l-.471.814a.35.35,0,0,0-.012.325l.4.848a.349.349,0,0,1-.388.492l-.92-.2a.351.351,0,0,0-.313.088l-.682.647a.349.349,0,0,1-.587-.217l-.1-.935a.353.353,0,0,0-.18-.271l-.826-.449a.349.349,0,0,1,.025-.626l.858-.383a.35.35,0,0,0,.2-.255l.172-.925a.349.349,0,0,1,.6-.17" transform="translate(-62.753 -126.86)" fill="#f2e65c" fill-rule="evenodd"/>
      <path id="Path_9658" data-name="Path 9658" d="M187.411,182.526a.551.551,0,0,1-.188-.034.536.536,0,0,1-.349-.45l-.1-.934a.159.159,0,0,0-.081-.124l-.826-.449a.539.539,0,0,1,.039-.966l.858-.383a.159.159,0,0,0,.092-.116l.172-.925a.539.539,0,0,1,.93-.263h0l.629.7a.157.157,0,0,0,.139.051l.932-.122a.53.53,0,0,1,.519.234.538.538,0,0,1,.019.57l-.47.814a.156.156,0,0,0-.007.148l.4.849a.535.535,0,0,1-.063.566.543.543,0,0,1-.536.194l-.919-.2a.158.158,0,0,0-.142.04l-.683.646a.535.535,0,0,1-.37.149m.15-4.441a.172.172,0,0,0-.046.007.155.155,0,0,0-.113.124l-.172.924a.541.541,0,0,1-.311.394l-.859.383a.159.159,0,0,0-.011.284l.826.449a.539.539,0,0,1,.279.418l.1.934a.154.154,0,0,0,.1.132.156.156,0,0,0,.165-.033l.682-.647a.544.544,0,0,1,.483-.137l.919.2a.148.148,0,0,0,.158-.057.154.154,0,0,0,.019-.167l-.4-.849a.537.537,0,0,1,.02-.5l.469-.813a.155.155,0,0,0-.005-.169.172.172,0,0,0-.153-.069l-.932.121a.528.528,0,0,1-.471-.173l-.628-.7a.154.154,0,0,0-.116-.053" transform="translate(-62.682 -126.788)" fill="#fff"/>
      <path id="Path_9659" data-name="Path 9659" d="M179.266,187.8c-.764-2.8,1.456-6.848,1.55-7.018l.284.157c-.023.041-2.25,4.1-1.521,6.776Z" transform="translate(-60.916 -127.626)" fill="#fff"/>
      <path id="Path_9660" data-name="Path 9660" d="M179.6,178.266l.876.22a.336.336,0,0,0,.3-.073l.678-.6a.335.335,0,0,1,.557.229l.061.9a.339.339,0,0,0,.164.266l.777.46a.336.336,0,0,1-.046.6l-.838.336a.335.335,0,0,0-.2.238l-.2.882a.336.336,0,0,1-.585.142l-.579-.693a.335.335,0,0,0-.289-.119l-.9.084a.335.335,0,0,1-.316-.512l.48-.765a.335.335,0,0,0,.024-.311l-.358-.829a.335.335,0,0,1,.39-.458" transform="translate(-60.889 -126.796)" fill="#f2e65c" fill-rule="evenodd"/>
      <path id="Path_9661" data-name="Path 9661" d="M181.327,182.11a.522.522,0,0,1-.4-.188l-.58-.693a.164.164,0,0,0-.124-.052l-.9.085a.533.533,0,0,1-.5-.248.525.525,0,0,1,0-.555l.482-.765a.147.147,0,0,0,.009-.135l-.358-.829a.526.526,0,0,1,.611-.719l.877.22a.139.139,0,0,0,.13-.031l.679-.6a.526.526,0,0,1,.872.359l.061.9a.146.146,0,0,0,.071.115l.777.461a.525.525,0,0,1-.072.939l-.837.337a.148.148,0,0,0-.089.1l-.2.882a.53.53,0,0,1-.514.411m-1.091-1.315a.524.524,0,0,1,.4.188l.58.693a.146.146,0,0,0,.254-.062l.2-.881a.522.522,0,0,1,.317-.372l.837-.337a.144.144,0,0,0,.091-.124.14.14,0,0,0-.071-.135l-.777-.462a.521.521,0,0,1-.257-.416l-.061-.9a.142.142,0,0,0-.089-.125.145.145,0,0,0-.152.025l-.677.6a.532.532,0,0,1-.477.115l-.875-.22a.145.145,0,0,0-.169.2l.357.829a.524.524,0,0,1-.037.487l-.48.765a.145.145,0,0,0,0,.154.141.141,0,0,0,.137.068l.9-.084.05,0" transform="translate(-60.818 -126.724)" fill="#fff"/>
      <path id="Path_9662" data-name="Path 9662" d="M137.732,195.7c-13.754,0-20.889-3.867-21.344-4.122a2.283,2.283,0,0,1,2.227-3.985c.241.13,16.363,8.607,47.452-1.322a2.282,2.282,0,0,1,1.389,4.348,97.836,97.836,0,0,1-29.724,5.081" transform="translate(-43.506 -129.092)" fill="#e1b309"/>
      <path id="Path_9663" data-name="Path 9663" d="M150.65,200.1a6.536,6.536,0,1,1,2.979-.727,6.516,6.516,0,0,1-2.979.727m-.012-10.848a4.33,4.33,0,1,0,1.322.208,4.354,4.354,0,0,0-1.322-.208" transform="translate(-51.38 -129.334)" fill="#13637e"/>
      <path id="Path_9664" data-name="Path 9664" d="M192.992,319.078l.132.477a76.159,76.159,0,0,0,3.99,10.92c1.29-14.16,2.408-19.128,2.408-19.128a25.5,25.5,0,0,1-6.53,7.731" transform="translate(-64.7 -163.209)" fill="#13637e"/>
      <path id="Path_9665" data-name="Path 9665" d="M180.519,394.639l-18.65-50.461c21.03-19.091,2.126-62.538,2.126-62.538l-11.966-7.082-9.39,12.536-11.191-11.777-26.7,5.422s-6.794,33.049,7.418,59.633l.205.717c-.922,2.2-.077,3.191-.077,3.191l-12.091,38.4a171.544,171.544,0,0,0,24.527,9.6c10.372,3.554,21.14,6.429,25.919,5.1,19.286,1.625,29.869-2.737,29.869-2.737" transform="translate(-39.413 -153.183)" fill="#3b7b9a"/>
      <path id="Path_9666" data-name="Path 9666" d="M145,375.5a64.6,64.6,0,0,1-29.729-7.285,2.047,2.047,0,0,1,2.032-3.554c.226.127,22.886,12.755,47.731,2.962a2.047,2.047,0,0,1,1.5,3.808A58.374,58.374,0,0,1,145,375.5" transform="translate(-43.24 -177.663)" fill="#13637e"/>
      <path id="Path_9667" data-name="Path 9667" d="M182.416,391.551a2.047,2.047,0,0,1-1.9-1.282l-6.46-16.017a2.047,2.047,0,0,1,3.8-1.532l6.459,16.018a2.046,2.046,0,0,1-1.133,2.664,2.025,2.025,0,0,1-.765.149" transform="translate(-59.5 -179.585)" fill="#13637e"/>
      <path id="Path_9668" data-name="Path 9668" d="M173.673,388.748a2.153,2.153,0,0,1-.332-.027,2.047,2.047,0,0,1-1.69-2.351l2.166-13.259a2.047,2.047,0,1,1,4.04.66l-2.167,13.26a2.047,2.047,0,0,1-2.017,1.717" transform="translate(-58.877 -179.574)" fill="#13637e"/>
      <path id="Path_9669" data-name="Path 9669" d="M173.637,371.2l1.413-.135a.527.527,0,0,0,.4-.238l.653-1.083a.571.571,0,0,1,.949.028l.607,1.12a.539.539,0,0,0,.394.261l1.406.218a.444.444,0,0,1,.277.786l-1.038.827a.417.417,0,0,0-.161.4l.215,1.217c.066.375-.394.645-.778.458l-1.249-.608a.606.606,0,0,0-.492-.015l-1.272.535c-.392.164-.84-.133-.758-.5l.266-1.2a.422.422,0,0,0-.143-.408l-1-.887a.441.441,0,0,1,.31-.77" transform="translate(-59.299 -179.059)" fill="#e1b309" fill-rule="evenodd"/>
      <path id="Path_9670" data-name="Path 9670" d="M178.165,375.25a.8.8,0,0,1-.353-.081l-1.248-.608a.4.4,0,0,0-.324-.009l-1.272.535a.8.8,0,0,1-.815-.119.623.623,0,0,1-.222-.618l.266-1.2a.215.215,0,0,0-.079-.211l-1-.887a.621.621,0,0,1-.193-.662.7.7,0,0,1,.618-.465l1.413-.135a.318.318,0,0,0,.248-.14l.654-1.082a.773.773,0,0,1,.656-.34.75.75,0,0,1,.648.376l.607,1.119a.332.332,0,0,0,.244.156l1.407.218a.715.715,0,0,1,.6.5.606.606,0,0,1-.223.644l-1.038.826a.214.214,0,0,0-.087.2l.215,1.217a.615.615,0,0,1-.248.606.778.778,0,0,1-.468.153m-1.776-1.138a.806.806,0,0,1,.354.081l1.248.608a.383.383,0,0,0,.4-.031.213.213,0,0,0,.092-.207l-.215-1.218a.617.617,0,0,1,.234-.594l1.038-.827a.2.2,0,0,0,.083-.22.3.3,0,0,0-.263-.2l-1.406-.218a.74.74,0,0,1-.542-.366l-.607-1.12a.342.342,0,0,0-.3-.161.376.376,0,0,0-.3.142l-.653,1.082a.73.73,0,0,1-.559.336l-1.413.136a.292.292,0,0,0-.268.184.21.21,0,0,0,.075.228l1,.887a.624.624,0,0,1,.207.607l-.266,1.2a.22.22,0,0,0,.085.216.385.385,0,0,0,.394.055l1.272-.535a.8.8,0,0,1,.308-.061" transform="translate(-59.223 -178.982)" fill="#e9ba18"/>
      <path id="Path_9671" data-name="Path 9671" d="M186.463,276.945a272.434,272.434,0,0,1-27.926,9.928l2.889-3.338,18.557-9.786Z" transform="translate(-55.31 -152.963)" fill="#276886"/>
      <path id="Path_9672" data-name="Path 9672" d="M166.129,271.977l-7.609,13.974,27.27-11.985s-16.142-6.878-19.661-1.989" transform="translate(-55.306 -152.001)" fill="#e1b309"/>
      <path id="Path_9673" data-name="Path 9673" d="M158.6,286.906l25.516-12.541c-.18-.068-.371-.139-.573-.214L158.9,286.293Z" transform="translate(-55.328 -153.072)" fill="#f3d273"/>
      <path id="Path_9674" data-name="Path 9674" d="M113.092,278.093c6.867,2.238,22.627,6.695,33.1,8.837l-3.108-3.134-23.744-9.331Z" transform="translate(-42.926 -153.158)" fill="#276886"/>
      <path id="Path_9675" data-name="Path 9675" d="M133.3,271.519l13.105,14.251-32.586-10.934s15.638-7.956,19.48-3.317" transform="translate(-43.125 -151.959)" fill="#e1b309"/>
      <path id="Path_9676" data-name="Path 9676" d="M146.958,287.056l-30.873-11.608c.174-.08.36-.164.557-.252l29.971,11.268Z" transform="translate(-43.741 -153.357)" fill="#f3d273"/>
      <path id="Path_9677" data-name="Path 9677" d="M274.463,125.046a.521.521,0,0,1-.344-.13,33.543,33.543,0,0,1-2.484-2.458c-.157-.176-.46-.558-.7-.862l-.252-.319a.524.524,0,1,1,.815-.658l.262.33c.223.286.5.646.654.811a32.74,32.74,0,0,0,2.391,2.366.525.525,0,0,1-.345.92" transform="translate(-85.842 -111.178)" fill="#fffee6"/>
      <path id="Path_9678" data-name="Path 9678" d="M268.715,131.379a26.489,26.489,0,0,1-8.139-1.37.524.524,0,1,1,.349-.987c4.85,1.715,11.13,1.669,11.728.342.324-.72-.182-1.866-1.39-3.143a.524.524,0,0,1,.762-.72c1.559,1.649,2.107,3.134,1.584,4.294-.509,1.129-2.487,1.584-4.894,1.584" transform="translate(-83.023 -112.517)" fill="#fffee6"/>
      <path id="Path_9679" data-name="Path 9679" d="M270.677,119.911a.524.524,0,0,1-.437-.234c-1.25-1.881-1.039-3-.641-3.6,1.147-1.749,5.943-.914,9.463,1a.524.524,0,1,1-.5.92c-3.65-1.983-7.5-2.233-8.087-1.344-.312.474-.079,1.366.639,2.446a.524.524,0,0,1-.147.726.518.518,0,0,1-.29.088" transform="translate(-85.493 -109.732)" fill="#fffee6"/>
      <path id="Path_9680" data-name="Path 9680" d="M266.414,142.136a16.327,16.327,0,0,1-3.789-.517,28.5,28.5,0,0,1-5.046-1.787c-6.1-2.806-9.862-6.752-8.746-9.178.986-2.145,4.436-2.33,9.466-.508a.524.524,0,0,1-.357.985c-4.258-1.542-7.458-1.558-8.157-.04-.718,1.563,2.486,5.145,8.233,7.788a27.361,27.361,0,0,0,4.856,1.721c3.316.808,5.894.592,6.414-.54a.524.524,0,0,1,.952.437c-.5,1.08-1.854,1.638-3.825,1.638" transform="translate(-79.865 -113.488)" fill="#fffee6"/>
      <path id="Path_9681" data-name="Path 9681" d="M262.092,119.415l0,.47a.175.175,0,0,0,.077.143l.389.263a.175.175,0,0,1-.043.311l-.446.149a.172.172,0,0,0-.112.117l-.13.452a.175.175,0,0,1-.308.055l-.279-.378a.176.176,0,0,0-.146-.071l-.47.015a.174.174,0,0,1-.148-.276l.273-.383a.174.174,0,0,0,.022-.161l-.16-.442a.175.175,0,0,1,.217-.226l.449.142a.174.174,0,0,0,.159-.028l.371-.29a.175.175,0,0,1,.282.137" transform="translate(-83.083 -110.855)" fill="#ffe67b" fill-rule="evenodd"/>
      <path id="Path_9682" data-name="Path 9682" d="M287.393,121.262l-.351.2a.148.148,0,0,0-.076.116l-.037.4a.15.15,0,0,1-.25.1l-.295-.273a.148.148,0,0,0-.135-.036l-.392.088a.149.149,0,0,1-.167-.208l.167-.365a.148.148,0,0,0-.007-.138l-.205-.346a.149.149,0,0,1,.146-.224l.4.047a.152.152,0,0,0,.131-.05l.264-.3a.149.149,0,0,1,.259.069l.079.394a.147.147,0,0,0,.087.108l.368.159a.149.149,0,0,1,.015.267" transform="translate(-89.945 -111.12)" fill="#ffe67b" fill-rule="evenodd"/>
      <path id="Path_9683" data-name="Path 9683" d="M273.253,149.588l0,.47a.175.175,0,0,0,.077.143l.389.263a.175.175,0,0,1-.043.311l-.446.149a.172.172,0,0,0-.112.117l-.13.452a.175.175,0,0,1-.308.055l-.279-.378a.175.175,0,0,0-.146-.071l-.47.015a.174.174,0,0,1-.148-.276l.274-.383a.174.174,0,0,0,.022-.161l-.16-.442a.175.175,0,0,1,.217-.226l.449.142a.174.174,0,0,0,.159-.028l.371-.29a.175.175,0,0,1,.282.137" transform="translate(-86.125 -119.078)" fill="#ffe67b" fill-rule="evenodd"/>
    </g>
  </g>
  <g id="Group_3063" data-name="Group 3063" transform="translate(0)">
    <g id="Group_3062" data-name="Group 3062" clip-path="url(#clip-path)">
      <rect id="Rectangle_2070" data-name="Rectangle 2070" width="15.696" height="2.201" transform="translate(55.276 38.855)" fill="#684e46"/>
      <path id="Path_9685" data-name="Path 9685" d="M111.711,55.512H106.3v-2.03h5.409Zm-.375-6.892h-4.691V46.658h4.691ZM117,51.349c.717,3.258,2.2,5.8,5.119,6.893a7.375,7.375,0,0,0-1.348,1.808,8.532,8.532,0,0,1-4.487-4.845,9.343,9.343,0,0,1-4.982,5.016,8.31,8.31,0,0,0-1.536-1.672c4.573-2.1,5.05-5.426,5.05-7.626V49.353H117v2Zm-2.986-2.44a16.053,16.053,0,0,1-1.859,3.549,14.667,14.667,0,0,0-2.03-1.177,15.214,15.214,0,0,0,2.917-7.063l2.252.375c-.171.786-.359,1.553-.58,2.3h5.135l.392-.119,1.485.871a28.079,28.079,0,0,1-1.774,4.947,15.03,15.03,0,0,0-1.741-.835,21.608,21.608,0,0,0,1.007-2.85Z" transform="translate(-33.896 -12.05)" fill="#684e46"/>
      <path id="Path_9686" data-name="Path 9686" d="M145.277,57.363v2.065H129.8V57.363h8.36a43.193,43.193,0,0,0,2.2-7.592l2.3.443a70.691,70.691,0,0,1-2.3,7.149Zm-.717-8.138h-13.99V47.178h6.193a24.266,24.266,0,0,0-.818-2.73l2.03-.512a22.207,22.207,0,0,1,.921,2.713l-1.825.53h7.489ZM134.1,56.954a48.673,48.673,0,0,0-1.416-6.74l2.048-.494a56.765,56.765,0,0,1,1.552,6.671Z" transform="translate(-40.301 -11.974)" fill="#684e46"/>
      <path id="Path_9687" data-name="Path 9687" d="M159.345,54.221a33.635,33.635,0,0,1,2.354,4.454l-1.894,1.006a11.563,11.563,0,0,0-.6-1.467c-4.009,1.262-4.691,1.536-5.169,1.859a7.363,7.363,0,0,0-.785-2.064,1.28,1.28,0,0,0,.785-1.195V45.367h7.183v8.428h-5.1v3.361l2.269-.648c-.273-.5-.546-.989-.8-1.434Zm-3.225-5.6h3.071V47.175H156.12Zm3.071,1.808H156.12v1.553h3.071Zm9.093,4.863c0,.921-.153,1.45-.733,1.791a4.985,4.985,0,0,1-2.423.342,7.178,7.178,0,0,0-.563-1.911,13.949,13.949,0,0,0,1.433.017c.205,0,.29-.068.29-.29v-7.9h-2.065v13.1h-2.047V45.486h6.108Z" transform="translate(-46.692 -12.364)" fill="#684e46"/>
      <path id="Path_9688" data-name="Path 9688" d="M182.246,53.311l-1.843.512V58c0,.973-.17,1.467-.733,1.758a5.386,5.386,0,0,1-2.559.375,6.929,6.929,0,0,0-.563-1.842c.666.034,1.348.034,1.57.034.239,0,.324-.085.324-.324V54.369c-.648.17-1.245.307-1.809.46l-.511-1.928c.665-.136,1.467-.324,2.32-.53V49.3h-2.047V47.408h2.047v-3.19H180.4v3.19h1.638V49.3H180.4v2.577l1.587-.41Zm9.657-5.324V59.982h-2.014V58.873h-5.511V60.1h-1.945V47.988h3.685v-3.77h1.911v3.77Zm-7.524,4.4h1.74V49.916h-1.74Zm0,4.538h1.74V54.283h-1.74Zm3.651-4.538h1.859V49.916H188.03Zm1.859,1.894H188.03v2.644h1.859Z" transform="translate(-52.924 -12.05)" fill="#684e46"/>
      <path id="Path_9689" data-name="Path 9689" d="M210.7,56.64c1.826.614,3.89,1.365,5.1,1.894l-.922,1.587a71.333,71.333,0,0,0-6.653-2.627l.529-.853h-.512c-.8,1.432-2.8,2.832-7.337,3.565a9.985,9.985,0,0,0-1.125-1.638c3.071-.46,4.811-1.16,5.783-1.928h-5.7V54.968h6.842a4.28,4.28,0,0,0,.033-.461V53.381h2.014v1.195a3.09,3.09,0,0,1-.017.393h2.968a12.085,12.085,0,0,0-1.126-.853l.614-.581h-.648a5.931,5.931,0,0,0-.495-1.467c.546.033,1.177.033,1.365.033.187-.017.239-.068.239-.239v-.989h-2.832a6.18,6.18,0,0,1,1.126,1.024L208.622,52.9a7.293,7.293,0,0,0-1.672-1.5l.7-.529h-1.689V49.56h.665a4.537,4.537,0,0,0-.665-.955,16.285,16.285,0,0,0,4.265-.956,11.741,11.741,0,0,0-1.4-1.331c-.563.2-1.177.41-1.843.6a4.615,4.615,0,0,0-1.007-1.144,11.8,11.8,0,0,0,4.487-1.672l1.655.341c-.239.2-.478.392-.734.581h2.372l.324-.052,1.041.529a7.057,7.057,0,0,1-3.4,2.969h1.859V49.56h1.928v1.314h-1.928v1.058c0,.8-.154,1.16-.717,1.4a3.113,3.113,0,0,1-.9.188,8.455,8.455,0,0,1,1.331,1.058l-.392.393h2.832V56.64Zm-8-5.852a4.66,4.66,0,0,1-1.365,3.412,7.836,7.836,0,0,0-1.536-.87,3.358,3.358,0,0,0,1.126-2.542h-.955v-1.57h3.634v-.938h-2.969V44.595h1.689v2.15h1.28V44.2h1.843v9.725h-1.843V50.788Zm6.364-2.935c-.836.085-1.621.17-2.388.255l-.171-1.024c.717-.051,1.552-.119,2.542-.188Zm2.593,1.706V48.5a15.469,15.469,0,0,1-3.549,1.058Zm-1.28-3.446c.375.307.733.665,1.058.989a5.884,5.884,0,0,0,1.3-.989Z" transform="translate(-59.373 -12.018)" fill="#684e46"/>
      <path id="Path_9690" data-name="Path 9690" d="M227.333,53.852a15.379,15.379,0,0,0-.7-1.655v7.916h-1.741V53.561a16.021,16.021,0,0,1-1.159,3.02,11.922,11.922,0,0,0-.8-2,16.721,16.721,0,0,0,1.859-5.34h-1.4V47.368h1.5V44.195h1.741v3.173H227.8v1.876h-1.161V50c.375.512,1.348,2.1,1.587,2.508Zm10.783,1.177a9.584,9.584,0,0,1-1.86,2.508,1.675,1.675,0,0,0,1.058.615c.324.034.529-.581.648-1.774a5.24,5.24,0,0,0,1.281,1.074c-.444,2.115-1.127,2.713-1.861,2.661a3.5,3.5,0,0,1-2.508-1.45,12.612,12.612,0,0,1-2.7,1.416,8.034,8.034,0,0,0-1.041-1.3,10.87,10.87,0,0,0,2.935-1.535,14.345,14.345,0,0,1-.87-2.73h-2.321c-.017.119-.017.256-.033.376.7.562,1.672,1.347,2.166,1.825l-1.228,1.211c-.29-.34-.785-.784-1.28-1.245a6.762,6.762,0,0,1-2.321,3.429,6.3,6.3,0,0,0-1.348-1.16,5.542,5.542,0,0,0,2.321-4.436h-1.007V52.964h4.76a55.51,55.51,0,0,1-.58-5.972,23.174,23.174,0,0,1-2.32,3.549l.956-.1c-.069-.273-.154-.546-.223-.767l1.177-.308a15.3,15.3,0,0,1,.666,2.457l-1.245.375a4.885,4.885,0,0,0-.1-.58,10.307,10.307,0,0,0-2.679.528,14.517,14.517,0,0,0-.461-1.381,1.712,1.712,0,0,0,.837-.768,12.415,12.415,0,0,0,.818-1.228,4.642,4.642,0,0,0-1.364.29,12.36,12.36,0,0,0-.479-1.365,1.234,1.234,0,0,0,.614-.615,12.177,12.177,0,0,0,1.127-2.729l1.467.393a17.835,17.835,0,0,1-1.467,2.832l.768-.051c.169-.359.34-.717.476-1.058l1.416.46c-.033-.818-.068-1.705-.1-2.593h1.672a56.334,56.334,0,0,0,.717,8.633h1.571c-.291-.255-.615-.512-.888-.734l.768-.631a4.089,4.089,0,0,0-1.211.307,13.357,13.357,0,0,0-.46-1.4,1.934,1.934,0,0,0,.835-.785A8.252,8.252,0,0,0,236,48.511a4.408,4.408,0,0,0-1.331.29c-.084-.307-.324-.973-.478-1.365.205-.052.394-.274.581-.581A13.438,13.438,0,0,0,235.8,44.28l1.45.392a14.031,14.031,0,0,1-1.331,2.628l.768-.051c.153-.342.307-.717.443-1.058l1.467.477a20.731,20.731,0,0,1-2.286,3.617l.956-.119c-.085-.239-.153-.495-.239-.7l1.16-.325a20.1,20.1,0,0,1,.785,2.475l-1.211.409c-.035-.188-.086-.426-.154-.682-.427.068-.786.119-1.075.17a13.829,13.829,0,0,1,1.3,1.041l-.444.41h1.365v1.552h-1.979Zm-3.191-.512a11.709,11.709,0,0,0,.46,1.485,7.849,7.849,0,0,0,1.007-1.485Z" transform="translate(-65.681 -12.044)" fill="#684e46"/>
      <path id="Path_9691" data-name="Path 9691" d="M256.115,44.654l-.256.308a16.608,16.608,0,0,0,7.081,3.087,6.524,6.524,0,0,0-1.28,1.536c-.341-.086-.7-.205-1.058-.308v4.4H248.745v-4.3c-.359.119-.717.239-1.058.341a8.527,8.527,0,0,0-1.092-1.553c3.14-.767,6.194-2.184,7.729-4.162Zm3.873,4.4a18.757,18.757,0,0,1-2.321-1.041v.444h-5.989v-.342a20.344,20.344,0,0,1-2.064.938ZM249.7,54.243h10.032V60.01h-2.081V59.6H251.7v.46h-2Zm1.928-1.792a6.736,6.736,0,0,0-.58-1.774l1.314-.376h-1.929v2.15Zm.068,3.805h5.954v-.682H251.7Zm5.954,1.331H251.7v.682h5.954ZM253.778,50.3h-1.331a7.753,7.753,0,0,1,.682,1.809l-1.092.341h1.74Zm2.457-3.156a17.023,17.023,0,0,1-1.433-1.109c-.444.375-.938.75-1.45,1.109Zm-.819,3.156v2.15H257l-1.024-.29a13.267,13.267,0,0,0,.666-1.86Zm3.378,0H257.02l1.331.324c-.342.682-.666,1.348-.938,1.825h1.382Z" transform="translate(-72.13 -11.993)" fill="#684e46"/>
      <path id="Path_9692" data-name="Path 9692" d="M97.752,82.29a5.627,5.627,0,0,1-4.086-1.743q-.216-.227-.415-.481c-.02-.025-.039-.051-.057-.077l-6.309-9.037H73.534a23.486,23.486,0,0,1,0-46.972h135a23.486,23.486,0,1,1,0,46.972h-103.8l-1.085,6.356a5.981,5.981,0,0,1-4.184,4.724,5.868,5.868,0,0,1-1.717.258m-1.606-4.427c.048.06.1.117.151.171a2.03,2.03,0,0,0,2.11.519,2.368,2.368,0,0,0,1.661-1.857l1.344-7.869a1.818,1.818,0,0,1,1.792-1.512H208.538a19.848,19.848,0,1,0,0-39.7h-135a19.848,19.848,0,0,0,0,39.7h14.3a1.818,1.818,0,0,1,1.491.778Z" transform="translate(-18.566 -6.535)" fill="#e1b309"/>
    </g>
  </g>
</svg>
