<svg id="plus01" xmlns="http://www.w3.org/2000/svg" xmlns:xlink="http://www.w3.org/1999/xlink" width="225" height="311.121" viewBox="0 0 225 311.121">
  <defs>
    <clipPath id="clip-path">
      <rect id="Rectangle_2076" data-name="Rectangle 2076" width="225" height="311.121" fill="none"/>
    </clipPath>
    <clipPath id="clip-path-2">
      <path id="Path_9843" data-name="Path 9843" d="M56.856,100.888V258.947l64.24,69.4h28.372a79.928,79.928,0,0,0,7.155-18.45c2.35-10.18-6.309-16.755-1.811-14.523a86.963,86.963,0,0,0,107.919-130.5c-6.493-8.543-12.2-14.314-21.288-19.92-2.51-1.547,11.738-2.244,9.071-3.535l20.14-6.389L226.683,63.227Z" transform="translate(-56.856 -63.227)" fill="none"/>
    </clipPath>
  </defs>
  <g id="Group_3081" data-name="Group 3081" transform="translate(0)">
    <g id="Group_3080" data-name="Group 3080" clip-path="url(#clip-path)">
      <path id="Path_9784" data-name="Path 9784" d="M212.124,155.783a86.944,86.944,0,1,1-86.944,86.944,86.945,86.945,0,0,1,86.944-86.944" transform="translate(-75.476 -42.455)" fill="#00b7a5"/>
    </g>
  </g>
  <g id="Group_3083" data-name="Group 3083" transform="translate(0 45.996)">
    <g id="Group_3082" data-name="Group 3082" clip-path="url(#clip-path-2)">
      <path id="Path_9785" data-name="Path 9785" d="M81.52,123.658c-.494,0-.969-.01-1.357-.03-.236-.013-.711-.068-1.092-.111l-.415-.047a.524.524,0,1,1,.105-1.042l.428.048c.359.041.807.094,1.027.105a32.83,32.83,0,0,0,3.364-.034.519.519,0,0,1,.561.485.524.524,0,0,1-.486.56c-.589.043-1.383.065-2.136.065" transform="translate(-62.668 -79.36)" fill="#fffee6"/>
      <path id="Path_9786" data-name="Path 9786" d="M278.133,254.482s36.633,6.912,63.621,41.159l36.386,20.964s14.552,8.315,6.311,24.782-31.432,27.341-30.211,45.844-54.749-86.737-54.749-86.737Z" transform="translate(-117.16 -115.349)" fill="#105e4f"/>
      <path id="Path_9787" data-name="Path 9787" d="M78.487,133.95a.524.524,0,0,1-.228-1c4.633-2.238,9.02-6.732,8.5-8.09-.283-.738-1.453-1.184-3.21-1.227a.524.524,0,0,1-.512-.535.5.5,0,0,1,.537-.511c2.268.052,3.708.709,4.164,1.9.934,2.431-4.828,7.384-9.021,9.408a.521.521,0,0,1-.228.052" transform="translate(-62.608 -79.404)" fill="#fffee6"/>
      <path id="Path_9788" data-name="Path 9788" d="M101.6,202.862c4.266,6.7,8.469,12.331,13.242,18.831,8.895,12.107,21.4,29.048,22.384,30.422,9.891,13.1-11.933,27.906-21.134,12.915-3.8-6.205-10.965-21.552-16.229-32.849-2.724-5.849-5.317-11.453-8.432-17.091l-4.938-9.366,12.3-11.486c-.264,2.615.146,4.453,2.8,8.625Z" transform="translate(-64.932 -98.931)" fill="#fcd1c8" fill-rule="evenodd"/>
      <path id="Path_9789" data-name="Path 9789" d="M89.637,212.738l-3.146-5.972,9.33-8.7c.971,2.282,3.562,8.989-2.538,12.639-1.408.845-2.617,1.513-3.645,2.043Z" transform="translate(-64.932 -99.973)" fill="#f8a8a0" fill-rule="evenodd"/>
      <path id="Path_9790" data-name="Path 9790" d="M96.667,189.686c.421,3.1-2.975,6.333-2.975,6.333.184,3.393-3.039,7.812-5.6,8.962a5.389,5.389,0,0,1-4.931-.5s-5.965-5.531-8.851-8.65Z" transform="translate(-61.613 -97.69)" fill="#fcd1c8" fill-rule="evenodd"/>
      <path id="Path_9791" data-name="Path 9791" d="M80.275,188.67c-1.311-1.319-3.116-.679-4.315-1.449a28.446,28.446,0,0,1-9.307-9.908,12.508,12.508,0,0,0-1.141-1.692c-2.076-2.917-.053-7.3,2.964-6.2-3.629-4.155.053-7.347,4.85-6.571-1.752-2.2-7.535-9.049-12.126-14.509a2.525,2.525,0,0,1,.421-3.681c1.306-.96,3.546.39,4.651,1.151,4.467,3.446,8.493,9.513,13.4,15.31-.425-3.352-.778-5.592-1.208-9.446-.385-3.444-2.017-9.092-1-11.954a2.344,2.344,0,0,1,2.125-1.79c1.708.037,2.318,1.184,2.819,2.385,1.212,2.914,1.464,6.592,2.077,9.68.578,2.906.981,5.7,1.814,8.544a41.96,41.96,0,0,0,2.2,6.886c.551,1.1,1.209,2.138,1.776,3.227a21.8,21.8,0,0,1,2.717,7.677c.316,3.239-1.788,6.552-2.687,9.654.383,5.66-8.214,7.368-10.031,2.683" transform="translate(-57.874 -83.586)" fill="#fcd1c8"/>
      <path id="Path_9792" data-name="Path 9792" d="M83.336,188.012a.373.373,0,0,1-.151-.033,28.291,28.291,0,0,1-4.273-2.61c-.476-.331-.951-.662-1.431-.979a7.2,7.2,0,0,1-2.294-2.356,2.227,2.227,0,0,1,.18-2.672,1.76,1.76,0,0,1,1.782-.284,3.839,3.839,0,0,0,.457.084c.418.042.845.072,1.275.1a14.572,14.572,0,0,1,4.078.674,9.192,9.192,0,0,1,1.334.658,7.371,7.371,0,0,0,1.245.605,6.072,6.072,0,0,0,2.623.076l.189-.02a.364.364,0,1,1,.079.723l-.188.02a6.75,6.75,0,0,1-2.941-.111,8.082,8.082,0,0,1-1.365-.66,8.629,8.629,0,0,0-1.232-.61,14.088,14.088,0,0,0-3.872-.629c-.437-.031-.871-.061-1.295-.1a4.552,4.552,0,0,1-.544-.1c-.514-.113-.845-.171-1.112.093a1.547,1.547,0,0,0-.04,1.828,6.491,6.491,0,0,0,2.044,2.075c.484.321.965.655,1.445.989a27.857,27.857,0,0,0,4.16,2.545.364.364,0,0,1-.151.695" transform="translate(-61.756 -94.768)" fill="#f8a8a0"/>
      <path id="Path_9793" data-name="Path 9793" d="M88.943,199.929a.363.363,0,0,1-.3-.164c-1.653-2.507-3.411-5.478-3.353-9.024a.363.363,0,0,1,.363-.358h.007a.364.364,0,0,1,.358.37c-.055,3.339,1.567,6.085,3.233,8.612a.363.363,0,0,1-.1.5.357.357,0,0,1-.2.06" transform="translate(-64.604 -97.88)" fill="#f8a8a0"/>
      <path id="Path_9794" data-name="Path 9794" d="M87.88,181.229a.364.364,0,0,1-.332-.512c.144-.322.309-.641.474-.96s.317-.615.456-.924a.363.363,0,1,1,.663.3c-.143.322-.308.641-.474.961s-.318.614-.456.923a.365.365,0,0,1-.332.215" transform="translate(-65.212 -94.674)" fill="#f8a8a0"/>
      <path id="Path_9795" data-name="Path 9795" d="M74.833,190.947a3.811,3.811,0,0,1-1.371-.252,16.163,16.163,0,0,1-6.843-4.312.364.364,0,1,1,.539-.489,15.566,15.566,0,0,0,6.568,4.124,2.3,2.3,0,0,0,2.2-.111c.558-1.211-.916-2.558-2.955-4.423-.44-.4-.9-.826-1.373-1.274-2.2-2.1-2.892-2.023-3.085-1.891a.364.364,0,0,1-.408-.6c.781-.53,2.013.076,4,1.966.467.445.926.865,1.363,1.264,2.182,1.994,3.9,3.57,3.125,5.263a1.9,1.9,0,0,1-1.757.737" transform="translate(-59.491 -95.468)" fill="#f8a8a0"/>
      <path id="Path_9796" data-name="Path 9796" d="M78.591,187.652c-2.144,0-3.92-2.467-4.587-3.393-.544-.755-1.013-1.343-1.466-1.912-.615-.773-1.2-1.5-1.9-2.564a.364.364,0,0,1,.606-.4c.688,1.034,1.26,1.753,1.866,2.513.458.575.932,1.171,1.486,1.94,1.969,2.732,3.651,3.632,5.145,2.757a.363.363,0,1,1,.368.626,2.949,2.949,0,0,1-1.517.434" transform="translate(-60.595 -94.837)" fill="#f8a8a0"/>
      <path id="Path_9797" data-name="Path 9797" d="M80.462,178.934a.359.359,0,0,1-.244-.1c-.228-.207-.43-.419-.637-.637a9.352,9.352,0,0,0-1.125-1.053.364.364,0,1,1,.444-.575,9.968,9.968,0,0,1,1.208,1.128c.195.205.385.405.6.6a.363.363,0,0,1-.245.632" transform="translate(-62.704 -94.096)" fill="#f8a8a0"/>
      <path id="Path_9798" data-name="Path 9798" d="M259.662,225.107s-1.534,15.735-.8,18.72,8.725,5.253,16.845,9.069c0,0-11.7,15.481-32.469,14.209s-34.172-9.04-37.293-13.412c0,0,24.9-4.491,25.534-10.5s.821-19.251.821-19.251Z" transform="translate(-97.487 -107.025)" fill="#fcd1c8"/>
      <path id="Path_9799" data-name="Path 9799" d="M254.146,248.681c-6.771-.289-11.245-5.962-13.694-10.578.285-7.611.445-14.211.445-14.211l28.169,1.2s-.517,6.579-.933,13.839c-2.461,4.451-7.04,10.044-13.987,9.748" transform="translate(-106.891 -107.012)" fill="#f8a8a0"/>
      <path id="Path_9800" data-name="Path 9800" d="M215.6,210.339s-2.924-2.226-4.514-1.736-2.88,4.581-2.1,7.321,5.754,11.793,10.366,7.035-3.747-12.621-3.747-12.621" transform="translate(-98.252 -102.826)" fill="#fcd1c8" fill-rule="evenodd"/>
      <path id="Path_9801" data-name="Path 9801" d="M218.737,213.936a.669.669,0,0,1,.262.706.322.322,0,0,1-.476.189s.247,8.866-1.214,7.772a10.583,10.583,0,0,1-3.907-4.2c-.933-2.072.5-4.438-.273-4.871-.735-.415-1.241.567-1.287.66l0,0v0h0a5.99,5.99,0,0,0-.46,1.762.329.329,0,0,1-.469.306.674.674,0,0,1-.38-.653c0-.009.282-3.454,2.555-3.8,2.173-.333,5.643,2.115,5.653,2.122" transform="translate(-98.735 -103.712)" fill="#f8a8a0" fill-rule="evenodd"/>
      <path id="Path_9802" data-name="Path 9802" d="M285.154,196.2s1.867-3.186,3.522-3.347,4.383,3.124,4.7,5.958-.89,13.126-6.942,10.506-1.275-13.117-1.275-13.117" transform="translate(-118.585 -98.551)" fill="#fcd1c8" fill-rule="evenodd"/>
      <path id="Path_9803" data-name="Path 9803" d="M283.819,200.729a.669.669,0,0,0,.022.752.32.32,0,0,0,.511-.009s3.1,8.3,4.041,6.72a10.722,10.722,0,0,0,2.038-5.389c.084-2.276-2.126-3.913-1.576-4.611.523-.666,1.36.047,1.437.115l0,0,0,0a5.91,5.91,0,0,1,1.087,1.451.328.328,0,0,0,.55.1.678.678,0,0,0,.106-.749c0-.009-1.556-3.084-3.79-2.529-2.134.531-4.422,4.133-4.43,4.144" transform="translate(-118.68 -99.552)" fill="#f8a8a0" fill-rule="evenodd"/>
      <path id="Path_9804" data-name="Path 9804" d="M232.367,146.764c-32.56,7.051-22.5,33.057-15.372,54.227a29.679,29.679,0,0,0,8.824,13.357s10.876,6.73,14.406,7.889a15.053,15.053,0,0,0,13.217-2.649c2.829-2.435,10.36-12.854,10.36-12.854a30.031,30.031,0,0,0,3.143-15.756c-1.363-22.324-1.822-50.258-34.578-44.214" transform="translate(-98.518 -85.765)" fill="#fcd1c8" fill-rule="evenodd"/>
      <path id="Path_9805" data-name="Path 9805" d="M235.638,202.315a.286.286,0,0,1-.221-.059c-.194-.154-4.806-3.737-8.507.611a.286.286,0,0,1-.435-.37c4.061-4.776,9.248-.73,9.3-.688a.285.285,0,0,1-.135.506m15.073-3.332a.291.291,0,0,1-.178-.031.287.287,0,0,1-.117-.388c.031-.056,3.141-5.7,9.374-3.466a.286.286,0,1,1-.194.538c-5.772-2.07-8.647,3.146-8.675,3.2a.287.287,0,0,1-.21.148" transform="translate(-103.063 -99.022)" fill="#f8a8a0"/>
      <path id="Path_9806" data-name="Path 9806" d="M276.017,179.167s4.242,10.776,8.708,13.057c0,0-.094-4.777.806-5.637,0,0,.075-13.73-2.89-17.81s-6.8,5.858-6.624,10.391" transform="translate(-116.581 -91.73)" fill="#684e46" fill-rule="evenodd"/>
      <path id="Path_9807" data-name="Path 9807" d="M216.658,187.541s2.21,11.443-1.79,18.3c0,0-1.831-3.955-3-4.56,0,0-4.918-12.619-3.709-17.535s6.958-.461,8.5,3.8" transform="translate(-98.037 -95.484)" fill="#684e46" fill-rule="evenodd"/>
      <path id="Path_9808" data-name="Path 9808" d="M257.746,190.433a2.8,2.8,0,0,1-1.6.279,2.725,2.725,0,0,1-1.71-1.5c-.019-.291.481.053,1.8-.949,1.292-.985,6.232-3.827,10.569-1.131.747.466.37,1.07-.466,1.013a10.848,10.848,0,0,0-8.588,2.283" transform="translate(-110.701 -96.687)" fill="#684e46" fill-rule="evenodd"/>
      <path id="Path_9809" data-name="Path 9809" d="M244.977,203.819a.615.615,0,0,1,1.2.272c-.247,1.1-1.275,4.745-1.121,5.3.127.359.85.818,1.169.986a3.921,3.921,0,0,0,1.8.483.616.616,0,0,1,0,1.232,5.133,5.133,0,0,1-2.384-.623,3.9,3.9,0,0,1-1.756-1.666c-.269-.759.764-4.759,1.085-5.978" transform="translate(-107.816 -101.411)" fill="#f8a8a0" fill-rule="evenodd"/>
      <path id="Path_9810" data-name="Path 9810" d="M232.076,195.766a2.393,2.393,0,0,0,1.4-.347,2.687,2.687,0,0,0,.928-1.9c-.076-.255-.377.221-1.771-.151-1.372-.366-6.32-.981-9.023,2.9-.464.67.035,1.047.7.693a9.3,9.3,0,0,1,7.762-1.2" transform="translate(-102.252 -98.619)" fill="#684e46" fill-rule="evenodd"/>
      <path id="Path_9811" data-name="Path 9811" d="M234,206.736a1.754,1.754,0,0,0,1.2-.261,2.741,2.741,0,0,0,.82-1.836c-.061-.259-.324.2-1.507-.258-1.163-.447-5.369-1.357-7.729,2.346-.406.64.013,1.045.588.733a6.828,6.828,0,0,1,6.629-.725" transform="translate(-103.12 -101.577)" fill="#684e46" fill-rule="evenodd"/>
      <path id="Path_9812" data-name="Path 9812" d="M262.022,200.434a1.952,1.952,0,0,1-1.267.284,2.537,2.537,0,0,1-1.5-1.329c-.038-.265.392.039,1.372-.9.964-.921,4.719-3.6,8.426-1.232.639.409.384.966-.295.932a7.641,7.641,0,0,0-6.739,2.243" transform="translate(-112.015 -99.494)" fill="#684e46" fill-rule="evenodd"/>
      <path id="Path_9813" data-name="Path 9813" d="M240.546,217.6a20.826,20.826,0,0,0,8.311-.577,21.4,21.4,0,0,0,7.745-3.278.783.783,0,0,1,1.269.645h0c-.207,4.691-1.393,8.164-3.131,10.307a6.766,6.766,0,0,1-3.779,2.472,6.606,6.606,0,0,1-4.442-.652c-2.385-1.19-4.8-3.761-6.835-7.8a.783.783,0,0,1,.345-1.05.792.792,0,0,1,.516-.067Z" transform="translate(-106.659 -104.201)" fill="#684e46" fill-rule="evenodd"/>
      <path id="Path_9814" data-name="Path 9814" d="M241.632,217.7a22.418,22.418,0,0,0,7.778-.672,21.4,21.4,0,0,0,7.745-3.278.783.783,0,0,1,1.269.645h0q-.025.57-.07,1.114c-5.017,4.211-13.359,4.838-15.01,4.266a2.821,2.821,0,0,1-1.713-2.076" transform="translate(-107.212 -104.201)" fill="#fff" fill-rule="evenodd"/>
      <path id="Path_9815" data-name="Path 9815" d="M258.876,223.792a12.2,12.2,0,0,1-1.972,3.691,6.766,6.766,0,0,1-3.779,2.472,6.61,6.61,0,0,1-4.443-.652,9.652,9.652,0,0,1-1.146-.679c.826-.893,2.535-2.078,5.616-1.648,0,0,2.316-3.11,5.724-3.183" transform="translate(-108.821 -106.985)" fill="#f68b85" fill-rule="evenodd"/>
      <path id="Path_9816" data-name="Path 9816" d="M252.431,235.612a.613.613,0,0,1,.277-1.194,6.643,6.643,0,0,0,5.011-1.275.612.612,0,1,1,.72.989,7.988,7.988,0,0,1-6.008,1.48" transform="translate(-110.026 -109.502)" fill="#f8a8a0" fill-rule="evenodd"/>
      <path id="Path_9817" data-name="Path 9817" d="M241.431,157.955s-68.366,4.291-87.36,22.324c0,0,66.293,16.786,109.684-12.781l-1.527-2.853a.417.417,0,0,1,.566-.572l3.184,1.853c.442-.324.879-.659,1.315-.993l-1.137-1.422a.275.275,0,0,1,.294-.439l2.236.786c41.572-32.8-27.255-5.9-27.255-5.9" transform="translate(-83.35 -86.213)" fill="#105e4f"/>
      <path id="Path_9818" data-name="Path 9818" d="M206.719,152.209s2-64.578,27.613-56.643S240.5,102.9,240.5,102.9L262.632,143.2s-39.161,36.019-55.913,9" transform="translate(-97.697 -71.856)" fill="#105e4f"/>
      <rect id="Rectangle_2077" data-name="Rectangle 2077" width="12.169" height="3.357" transform="translate(134.839 83.761) rotate(-78.4)" fill="#684e46"/>
      <path id="Path_9819" data-name="Path 9819" d="M219.247,170.414c-8.386,0-13.06-1.74-13.456-1.894a2.535,2.535,0,0,1,1.828-4.729c.238.089,19.176,6.891,51.018-9.291a2.535,2.535,0,1,1,2.3,4.52c-18.068,9.183-32.236,11.394-41.687,11.394" transform="translate(-97.004 -88.026)" fill="#f2ad22"/>
      <path id="Path_9820" data-name="Path 9820" d="M243.411,175.5a7.615,7.615,0,0,1-1.259-.105,7.9,7.9,0,0,1-6.4-8.9,7.622,7.622,0,0,1,3.052-5.121,7.385,7.385,0,0,1,5.633-1.328,7.9,7.9,0,0,1,6.4,8.905,7.613,7.613,0,0,1-3.051,5.119,7.379,7.379,0,0,1-4.374,1.435m-.227-12.206a4.048,4.048,0,0,0-2.4.787,4.283,4.283,0,0,0-1.709,2.885,4.523,4.523,0,0,0,3.635,5.118,4.062,4.062,0,0,0,3.1-.73,4.283,4.283,0,0,0,1.708-2.884,4.523,4.523,0,0,0-3.636-5.118,4.138,4.138,0,0,0-.693-.058" transform="translate(-105.587 -89.583)" fill="#684e46"/>
      <path id="Path_9821" data-name="Path 9821" d="M277.308,262.6l4.989,23.374,26.229,122.89s-75.751,31.308-93.643,16.432,7.3-161.682,7.3-161.682l25.008,7.93Z" transform="translate(-98.173 -117.562)" fill="#105e4f"/>
      <path id="Path_9822" data-name="Path 9822" d="M258.073,384.523a134.64,134.64,0,0,1-16.923-1.117,157.091,157.091,0,0,1-29.377-6.539,1.735,1.735,0,0,1,1.147-3.274c.49.171,49.384,16.941,81.646-.48a1.735,1.735,0,1,1,1.648,3.052c-7.586,4.1-19.873,8.358-38.141,8.358" transform="translate(-98.758 -147.621)" fill="#147c68"/>
      <path id="Path_9823" data-name="Path 9823" d="M318.359,409.472a1.819,1.819,0,0,1-1.547-.859l-14.221-22.875a1.82,1.82,0,0,1,3.092-1.923L319.9,406.691a1.82,1.82,0,0,1-1.544,2.781" transform="translate(-123.75 -150.361)" fill="#147c68"/>
      <path id="Path_9824" data-name="Path 9824" d="M306.761,407.652a1.82,1.82,0,0,1-1.812-1.675l-1.716-21.349a1.82,1.82,0,1,1,3.629-.292l1.716,21.35a1.82,1.82,0,0,1-1.669,1.96c-.049,0-.1.006-.148.006" transform="translate(-123.998 -150.281)" fill="#147c68"/>
      <path id="Path_9825" data-name="Path 9825" d="M299.9,381.284l1.844-.665a.729.729,0,0,0,.458-.5l.5-1.9a.729.729,0,0,1,1.28-.262l1.2,1.549a.729.729,0,0,0,.618.28l1.957-.112a.728.728,0,0,1,.645,1.136l-1.1,1.622a.728.728,0,0,0-.076.674l.711,1.827a.729.729,0,0,1-.882.965l-1.883-.546a.727.727,0,0,0-.664.136l-1.518,1.241a.729.729,0,0,1-1.189-.541l-.062-1.96a.73.73,0,0,0-.335-.589l-1.65-1.06a.728.728,0,0,1,.147-1.3" transform="translate(-122.96 -148.923)" fill="#f2ad22" fill-rule="evenodd"/>
      <path id="Path_9826" data-name="Path 9826" d="M302.416,387.086a1.036,1.036,0,0,1-1.033-1l-.063-1.96a.427.427,0,0,0-.2-.345l-1.649-1.059a1.032,1.032,0,0,1,.208-1.839l1.844-.665a.422.422,0,0,0,.267-.291l.5-1.9a1.032,1.032,0,0,1,1.814-.372l1.2,1.549a.429.429,0,0,0,.361.164l1.957-.112a1.011,1.011,0,0,1,.957.521,1.025,1.025,0,0,1-.044,1.088l-1.1,1.622a.423.423,0,0,0-.044.393l.711,1.827a1.031,1.031,0,0,1-1.248,1.365l-1.883-.546a.422.422,0,0,0-.388.079l-1.517,1.242a1.026,1.026,0,0,1-.652.234m.879-9.219a.425.425,0,0,0-.09.009.419.419,0,0,0-.326.308l-.5,1.9a1.034,1.034,0,0,1-.649.709l-1.843.665a.425.425,0,0,0-.086.757l1.65,1.059a1.032,1.032,0,0,1,.474.835l.063,1.96a.425.425,0,0,0,.694.315l1.517-1.241a1.032,1.032,0,0,1,.941-.193l1.883.546a.425.425,0,0,0,.432-.121.418.418,0,0,0,.082-.441l-.712-1.827a1.03,1.03,0,0,1,.108-.954l1.1-1.622a.415.415,0,0,0,.018-.448.432.432,0,0,0-.394-.215l-1.957.112a1.006,1.006,0,0,1-.874-.4l-1.2-1.548a.416.416,0,0,0-.332-.165" transform="translate(-122.847 -148.809)" fill="#f9b438"/>
      <path id="Path_9827" data-name="Path 9827" d="M295.4,264.243c-7.449,1.769-23.108,5.871-34.359,7.227l7.074-4.277,21-7.324Z" transform="translate(-112.503 -116.817)" fill="#0c564f"/>
      <path id="Path_9828" data-name="Path 9828" d="M274.723,255.234l-13.7,14.679,34-9.487s-15.831-9.76-20.292-5.192" transform="translate(-112.496 -115.222)" fill="#e1b309"/>
      <path id="Path_9829" data-name="Path 9829" d="M261.128,271.72l32.246-10.346q-.266-.15-.567-.314l-31.263,10.066Z" transform="translate(-112.525 -117.141)" fill="#f3d273"/>
      <path id="Path_9830" data-name="Path 9830" d="M175.642,327.568c-6.271,8.189-12.286,16.567-19.249,24.242-6.006,6.62-15.109,10.318-22.326,3.313-7.108-6.9-9.63-18.292-10.788-27.734a80.9,80.9,0,0,1,.628-24.81c6.146-32.4,5.044-21.541-4.015-57.636-10.465-41.7,18.851-42.953,18.852-42.953a1.906,1.906,0,0,1,1.387.786c.023-.132.048-.258.076-.377,0,0,33.046,39.045,59.873,42.715.074-.1.114-.175.1-.231l.051.253c.472.062.943.116,1.411.156L214.86,289.26c.114.38-11.825,9.033-12.842,9.913q-6.6,5.711-12.649,12.022a192.5,192.5,0,0,0-13.726,16.373" transform="translate(-73.42 -101.043)" fill="#105e4f"/>
      <path id="Path_9831" data-name="Path 9831" d="M145.456,356.671c-5.395-5.236-8.784-14.026-10.359-26.872a79.068,79.068,0,0,1,.613-24.364c.354-1.867.685-3.59.99-5.187,3.893-20.323,3.89-20.654-.3-35.5-1.241-4.4-2.785-9.865-4.721-17.574-3.667-14.613-2.8-25.687,2.571-32.917a20.232,20.232,0,0,1,7.86-6.3,22.976,22.976,0,0,1,3.741-1.339c-.9-.98-1.619-1.789-2.153-2.393a23.527,23.527,0,0,0-11.764,8.3c-5.92,7.959-6.95,19.854-3.061,35.352,1.945,7.751,3.5,13.244,4.743,17.657,4.045,14.324,4.045,14.324.245,34.167-.306,1.6-.637,3.323-.991,5.191a81.975,81.975,0,0,0-.642,25.256c1.659,13.528,5.328,22.881,11.215,28.6.262.254.532.482.8.714a12.988,12.988,0,0,0,4.538-.442,12.532,12.532,0,0,1-3.325-2.348" transform="translate(-75.853 -101.652)" fill="#e1b309"/>
      <path id="Path_9832" data-name="Path 9832" d="M227.72,260.421a40.88,40.88,0,0,1-8.662-2.263,58.864,58.864,0,0,0,10.836,4.467c-.386-1.283-.609-2.027-.609-2.027-.469-.039-.939-.093-1.412-.156-.032-.162-.05-.252-.051-.253.012.056-.029.136-.1.231" transform="translate(-101.06 -116.35)" fill="#e1b309"/>
      <path id="Path_9833" data-name="Path 9833" d="M214.288,257.982c7.143,2.754,23.575,8.355,34.542,11.21l-3.114-3.492-24.61-11.207Z" transform="translate(-99.76 -115.352)" fill="#0c564f"/>
      <path id="Path_9834" data-name="Path 9834" d="M236.024,252.34,249.1,268.159l-33.879-13.4s17-7.545,20.806-2.419" transform="translate(-100.014 -114.279)" fill="#e1b309"/>
      <path id="Path_9835" data-name="Path 9835" d="M249.7,269.248l-32.029-14.017c.188-.075.39-.154.6-.235L249.372,268.6Z" transform="translate(-100.683 -115.489)" fill="#f3d273"/>
      <path id="Path_9836" data-name="Path 9836" d="M77.548,120.775a.544.544,0,0,1-.1-.011c-2.216-.436-2.86-1.371-3.01-2.079-.434-2.045,3.534-4.865,7.371-6.018a.523.523,0,1,1,.3,1c-3.977,1.2-6.867,3.761-6.647,4.8.118.556.915,1.019,2.187,1.268a.525.525,0,0,1-.1,1.04" transform="translate(-61.638 -76.694)" fill="#fffee6"/>
      <path id="Path_9837" data-name="Path 9837" d="M74.889,144.92c-2.4,0-4.095-.652-4.581-1.948-.831-2.211,1.467-4.793,6.3-7.082a.524.524,0,0,1,.449.948c-4.092,1.937-6.357,4.2-5.769,5.766.6,1.611,5.4,1.857,11.326-.367A27.355,27.355,0,0,0,87.256,140c2.908-1.786,4.569-3.77,4.131-4.936a.524.524,0,1,1,.981-.368c.647,1.727-1.058,4.044-4.564,6.2a28.5,28.5,0,0,1-4.821,2.326,24.028,24.028,0,0,1-8.095,1.7" transform="translate(-60.477 -82.611)" fill="#fffee6"/>
      <path id="Path_9838" data-name="Path 9838" d="M71.325,128.049l.337.328a.175.175,0,0,0,.156.047l.461-.091a.175.175,0,0,1,.191.249L72.26,129a.177.177,0,0,0,0,.162l.229.411a.174.174,0,0,1-.178.258l-.466-.068a.174.174,0,0,0-.153.055l-.32.345a.174.174,0,0,1-.3-.089L71,129.613a.179.179,0,0,0-.1-.129l-.427-.2a.174.174,0,0,1-.008-.313l.416-.219a.174.174,0,0,0,.092-.134l.056-.467a.175.175,0,0,1,.3-.1" transform="translate(-60.539 -80.879)" fill="#ffe67b" fill-rule="evenodd"/>
      <path id="Path_9839" data-name="Path 9839" d="M90.439,111.487l-.108.387a.149.149,0,0,0,.03.136l.258.308a.149.149,0,0,1-.108.245l-.4.017a.147.147,0,0,0-.12.07l-.212.34a.15.15,0,0,1-.267-.027l-.14-.377a.15.15,0,0,0-.1-.092l-.39-.1a.149.149,0,0,1-.057-.261l.314-.25a.148.148,0,0,0,.056-.127l-.028-.4a.149.149,0,0,1,.231-.135l.335.222a.148.148,0,0,0,.138.014l.372-.15a.149.149,0,0,1,.2.178" transform="translate(-65.552 -76.3)" fill="#ffe67b" fill-rule="evenodd"/>
      <path id="Path_9840" data-name="Path 9840" d="M100.614,141.359l.337.328a.175.175,0,0,0,.156.047l.461-.091a.175.175,0,0,1,.191.249l-.208.421a.175.175,0,0,0,0,.162l.229.411a.174.174,0,0,1-.178.258l-.466-.068a.174.174,0,0,0-.153.055l-.32.345a.174.174,0,0,1-.3-.089l-.079-.463a.179.179,0,0,0-.1-.129l-.427-.2a.174.174,0,0,1-.008-.313l.416-.219a.174.174,0,0,0,.092-.134l.056-.467a.175.175,0,0,1,.3-.1" transform="translate(-68.521 -84.506)" fill="#ffe67b" fill-rule="evenodd"/>
      <path id="Path_9841" data-name="Path 9841" d="M311.633,302.587l5.549,26,3.934-3.336Z" transform="translate(-126.289 -128.458)" fill="#0c564f" fill-rule="evenodd"/>
      <path id="Path_9842" data-name="Path 9842" d="M212.636,342.8l6.928-29.525-12.131,35.614Z" transform="translate(-97.892 -131.371)" fill="#0c564f" fill-rule="evenodd"/>
    </g>
  </g>
  <g id="Group_3085" data-name="Group 3085" transform="translate(0)">
    <g id="Group_3084" data-name="Group 3084" clip-path="url(#clip-path)">
      <path id="Path_9844" data-name="Path 9844" d="M135,46.672V48.14h6.074v9.452c0,.938-.2,1.4-.836,1.689a6.81,6.81,0,0,1-2.7.307,6.9,6.9,0,0,0-.649-1.706c.734.034,1.587.034,1.843.017s.341-.086.341-.325V56.432a4.441,4.441,0,0,0-.9.649,6.18,6.18,0,0,1-.989-2.116,7.158,7.158,0,0,1-1.16,2.116A7.909,7.909,0,0,0,135,56.329V59.6h-1.928v-3a4.537,4.537,0,0,0-.648.58A6.294,6.294,0,0,1,131.38,55a6.762,6.762,0,0,1-1.28,2.235,5.744,5.744,0,0,0-.887-.7V59.6h-1.945V48.14h5.8V46.672H126.7v-2H141.6v2Zm-2.917,4.163a9.388,9.388,0,0,0,.989,4.965V50.034h-3.856v6.261a7.531,7.531,0,0,0,1.552-4.111h-.888V50.836Zm2.917-.8v6.261a8.079,8.079,0,0,0,1.587-4.111H135.7V50.836h2.235a8.912,8.912,0,0,0,1.143,5.22V50.034Z" transform="translate(-75.892 -12.176)" fill="#684e46"/>
      <path id="Path_9845" data-name="Path 9845" d="M155.1,54.681h-5.409v-2.03H155.1Zm-.375-6.892H150.03V45.827h4.691Zm5.664,2.729c.717,3.258,2.2,5.8,5.118,6.893a7.375,7.375,0,0,0-1.348,1.808,8.532,8.532,0,0,1-4.487-4.845,9.343,9.343,0,0,1-4.982,5.016,8.31,8.31,0,0,0-1.536-1.672c4.573-2.1,5.05-5.426,5.05-7.626V48.522h2.184v2Zm-2.986-2.44a16.054,16.054,0,0,1-1.859,3.549,14.668,14.668,0,0,0-2.03-1.177,15.214,15.214,0,0,0,2.917-7.063l2.252.375c-.171.786-.359,1.553-.58,2.3h5.135l.392-.119,1.485.871a28.079,28.079,0,0,1-1.774,4.947,15.032,15.032,0,0,0-1.741-.835,21.607,21.607,0,0,0,1.007-2.85Z" transform="translate(-82.155 -11.824)" fill="#684e46"/>
      <path id="Path_9846" data-name="Path 9846" d="M188.663,56.532V58.6H173.188V56.532h8.36a43.2,43.2,0,0,0,2.2-7.592l2.3.443a70.694,70.694,0,0,1-2.3,7.149Zm-.717-8.138h-13.99V46.347h6.193a24.272,24.272,0,0,0-.818-2.73l2.03-.512a22.207,22.207,0,0,1,.921,2.713l-1.825.53h7.489Zm-10.458,7.729a48.671,48.671,0,0,0-1.416-6.74l2.048-.494a56.758,56.758,0,0,1,1.552,6.671Z" transform="translate(-88.559 -11.747)" fill="#684e46"/>
      <path id="Path_9847" data-name="Path 9847" d="M202.732,53.391a33.632,33.632,0,0,1,2.354,4.454l-1.894,1.006a11.446,11.446,0,0,0-.6-1.467c-4.01,1.262-4.691,1.536-5.169,1.859a7.362,7.362,0,0,0-.785-2.064,1.28,1.28,0,0,0,.785-1.195V44.537h7.183v8.428h-5.1v3.361l2.269-.648c-.273-.5-.546-.989-.8-1.434Zm-3.225-5.6h3.071V46.345h-3.071Zm3.071,1.808h-3.071v1.553h3.071Zm9.093,4.863c0,.921-.153,1.45-.734,1.791a4.98,4.98,0,0,1-2.423.342,7.154,7.154,0,0,0-.564-1.911,13.967,13.967,0,0,0,1.434.017c.2,0,.29-.068.29-.29v-7.9h-2.065v13.1h-2.047V44.656h6.108Z" transform="translate(-94.951 -12.137)" fill="#684e46"/>
      <path id="Path_9848" data-name="Path 9848" d="M225.632,52.48l-1.843.512v4.179c0,.973-.171,1.468-.734,1.758a5.384,5.384,0,0,1-2.559.375,6.885,6.885,0,0,0-.563-1.842c.666.033,1.348.033,1.57.033.239,0,.324-.085.324-.324V53.538c-.649.17-1.246.307-1.809.461l-.511-1.929c.666-.136,1.467-.324,2.321-.529V48.471H219.78V46.578h2.048V43.387h1.962v3.191h1.638v1.893H223.79v2.577l1.587-.41Zm9.657-5.323V59.151h-2.014V58.042h-5.511v1.229H225.82V47.158H229.5V43.387h1.911v3.771Zm-7.524,4.4h1.74V49.085h-1.74Zm0,4.539h1.74V53.453h-1.74Zm3.651-4.539h1.859V49.085h-1.859Zm1.859,1.894h-1.859V56.1h1.859Z" transform="translate(-101.182 -11.824)" fill="#684e46"/>
      <path id="Path_9849" data-name="Path 9849" d="M254.09,55.809c1.825.614,3.89,1.365,5.1,1.894l-.922,1.587a71.332,71.332,0,0,0-6.653-2.627l.529-.853h-.512c-.8,1.432-2.8,2.832-7.336,3.565a10.037,10.037,0,0,0-1.126-1.638c3.071-.46,4.812-1.16,5.783-1.928h-5.7V54.137H250.1a4.276,4.276,0,0,0,.033-.461V52.55h2.014v1.195a3.087,3.087,0,0,1-.017.393H255.1a11.99,11.99,0,0,0-1.126-.853l.615-.581h-.649a5.9,5.9,0,0,0-.495-1.467c.546.033,1.178.033,1.365.033.187-.017.239-.068.239-.239v-.989h-2.832a6.178,6.178,0,0,1,1.126,1.024l-1.331,1.007a7.294,7.294,0,0,0-1.672-1.5l.7-.529h-1.689V48.729h.665a4.51,4.51,0,0,0-.665-.955,16.284,16.284,0,0,0,4.265-.956,11.738,11.738,0,0,0-1.4-1.331c-.563.2-1.177.41-1.843.6a4.6,4.6,0,0,0-1.007-1.144,11.8,11.8,0,0,0,4.487-1.672l1.655.341c-.239.2-.478.392-.733.581h2.372l.324-.052,1.041.529a7.058,7.058,0,0,1-3.4,2.969h1.859v1.092H258.9v1.314h-1.928V51.1c0,.8-.154,1.16-.717,1.4a3.108,3.108,0,0,1-.9.188,8.419,8.419,0,0,1,1.331,1.058l-.392.393h2.832v1.672Zm-8-5.852a4.66,4.66,0,0,1-1.365,3.412,7.815,7.815,0,0,0-1.536-.87,3.355,3.355,0,0,0,1.126-2.542h-.955v-1.57h3.634V47.45h-2.969V43.764h1.689v2.15h1.28V43.372h1.843V53.1h-1.843V49.957Zm6.364-2.935c-.836.085-1.621.17-2.388.255l-.171-1.024c.717-.051,1.552-.119,2.543-.188Zm2.593,1.706V47.671a15.473,15.473,0,0,1-3.549,1.058Zm-1.28-3.446c.375.307.733.665,1.058.989a5.885,5.885,0,0,0,1.3-.989Z" transform="translate(-107.631 -11.792)" fill="#684e46"/>
      <path id="Path_9850" data-name="Path 9850" d="M270.72,53.021a15.387,15.387,0,0,0-.7-1.655v7.916h-1.74V52.73a16.019,16.019,0,0,1-1.16,3.02,11.919,11.919,0,0,0-.8-2,16.738,16.738,0,0,0,1.859-5.34h-1.4V46.537h1.5V43.364h1.74v3.173h1.16v1.876h-1.16v.751c.375.512,1.348,2.1,1.587,2.508ZM281.5,54.2a9.584,9.584,0,0,1-1.86,2.508,1.673,1.673,0,0,0,1.058.615c.324.034.529-.581.649-1.774a5.221,5.221,0,0,0,1.28,1.074c-.444,2.116-1.126,2.713-1.86,2.661a3.5,3.5,0,0,1-2.508-1.45,12.611,12.611,0,0,1-2.7,1.416,8.075,8.075,0,0,0-1.041-1.3,10.882,10.882,0,0,0,2.935-1.535,14.345,14.345,0,0,1-.87-2.73h-2.32c-.017.119-.017.256-.034.376.7.562,1.672,1.347,2.166,1.825L275.174,57.1c-.29-.34-.785-.784-1.28-1.245a6.762,6.762,0,0,1-2.321,3.429,6.3,6.3,0,0,0-1.348-1.16,5.54,5.54,0,0,0,2.321-4.436h-1.007V52.133H276.3a55.31,55.31,0,0,1-.581-5.972,23.174,23.174,0,0,1-2.32,3.549l.955-.1c-.068-.273-.154-.546-.222-.767l1.177-.308a15.293,15.293,0,0,1,.666,2.457l-1.245.375a4.5,4.5,0,0,0-.1-.58,10.307,10.307,0,0,0-2.679.528,14.5,14.5,0,0,0-.46-1.381,1.708,1.708,0,0,0,.836-.768,12.254,12.254,0,0,0,.819-1.228,4.658,4.658,0,0,0-1.365.29,12.2,12.2,0,0,0-.478-1.365,1.237,1.237,0,0,0,.614-.615,12.149,12.149,0,0,0,1.126-2.729l1.467.393a17.719,17.719,0,0,1-1.467,2.832l.768-.051c.17-.359.341-.717.477-1.058l1.416.46c-.034-.818-.068-1.705-.1-2.593h1.672a56.33,56.33,0,0,0,.717,8.633h1.57c-.29-.255-.614-.512-.887-.734l.768-.631a4.089,4.089,0,0,0-1.211.307,13.358,13.358,0,0,0-.461-1.4,1.939,1.939,0,0,0,.836-.785,8.323,8.323,0,0,0,.785-1.211,4.407,4.407,0,0,0-1.331.29c-.085-.307-.324-.973-.478-1.365.205-.052.393-.274.581-.581a13.438,13.438,0,0,0,1.024-2.576l1.451.392a14.078,14.078,0,0,1-1.331,2.628l.768-.051c.154-.342.307-.717.443-1.058l1.467.477a20.726,20.726,0,0,1-2.286,3.617l.955-.119c-.085-.239-.154-.495-.239-.7l1.16-.325a19.973,19.973,0,0,1,.785,2.475l-1.211.409c-.034-.188-.085-.426-.153-.682-.426.068-.785.119-1.074.17a13.832,13.832,0,0,1,1.3,1.041l-.444.41h1.365v1.552h-1.979Zm-3.191-.512a11.949,11.949,0,0,0,.46,1.485,7.815,7.815,0,0,0,1.007-1.485Z" transform="translate(-113.94 -11.818)" fill="#684e46"/>
      <path id="Path_9851" data-name="Path 9851" d="M299.5,43.823l-.256.308a16.608,16.608,0,0,0,7.081,3.087,6.526,6.526,0,0,0-1.28,1.536c-.341-.086-.7-.205-1.058-.308v4.4H292.132v-4.3c-.359.119-.717.239-1.058.341a8.56,8.56,0,0,0-1.092-1.553c3.14-.767,6.194-2.184,7.729-4.162Zm3.873,4.4a18.758,18.758,0,0,1-2.321-1.041v.444h-5.989v-.342a20.424,20.424,0,0,1-2.064.938Zm-10.288,5.187h10.032v5.767h-2.081v-.41h-5.954v.46h-2Zm1.928-1.792a6.736,6.736,0,0,0-.58-1.774l1.313-.376h-1.928v2.15Zm.068,3.805h5.954v-.682h-5.954Zm5.954,1.331h-5.954v.682h5.954Zm-3.873-7.286h-1.331a7.751,7.751,0,0,1,.682,1.809l-1.092.341h1.74Zm2.457-3.156a16.922,16.922,0,0,1-1.433-1.109c-.444.375-.938.75-1.45,1.109Zm-.819,3.156v2.15h1.587l-1.024-.29a13.259,13.259,0,0,0,.666-1.86Zm3.378,0h-1.774l1.331.324c-.341.682-.665,1.348-.938,1.825h1.382Z" transform="translate(-120.389 -11.767)" fill="#684e46"/>
      <path id="Path_9852" data-name="Path 9852" d="M141.138,81.459a5.629,5.629,0,0,1-4.086-1.743,6.328,6.328,0,0,1-.415-.481c-.02-.025-.039-.051-.057-.077l-6.309-9.037H116.92a23.486,23.486,0,0,1,0-46.972h135a23.486,23.486,0,1,1,0,46.972h-103.8l-1.086,6.356a5.98,5.98,0,0,1-4.184,4.724,5.865,5.865,0,0,1-1.717.258m-1.606-4.427c.048.06.1.118.151.172a2.031,2.031,0,0,0,2.11.519,2.367,2.367,0,0,0,1.661-1.857L144.8,68a1.818,1.818,0,0,1,1.792-1.512H251.924a19.848,19.848,0,1,0,0-39.7h-135a19.848,19.848,0,0,0,0,39.7h14.3a1.818,1.818,0,0,1,1.491.778Z" transform="translate(-66.824 -6.309)" fill="#e1b309"/>
    </g>
  </g>
</svg>
