<svg xmlns="http://www.w3.org/2000/svg" xmlns:xlink="http://www.w3.org/1999/xlink" viewBox="0 0 59.11 59.11"><defs><style>.cls-1{fill:none;}.cls-2{clip-path:url(#clip-path);}.cls-3{fill:#f2ad22;}.cls-4{isolation:isolate;}.cls-5{fill:#fff;}</style><clipPath id="clip-path" transform="translate(-5.28 -5.28)"><rect class="cls-1" x="6.1" y="6.1" width="57.47" height="57.47" transform="translate(-7.39 9.46) rotate(-14)"/></clipPath></defs><title>plus</title><g id="圖層_2" data-name="圖層 2"><g id="圖層_1-2" data-name="圖層 1"><g class="cls-2"><g id="Group_822" data-name="Group 822"><path id="Path_5725" data-name="Path 5725" class="cls-3" d="M60.78,25.17A4.85,4.85,0,0,0,57,18.11l-.23,0a4.87,4.87,0,0,1-4.32-4.6,4.83,4.83,0,0,0-5.05-4.62,4.7,4.7,0,0,0-1.73.4l-.22.1a4.84,4.84,0,0,1-6-1.84,4.84,4.84,0,0,0-8-.26l-.14.19a4.85,4.85,0,0,1-6.14,1.43A4.85,4.85,0,0,0,18.62,11a4.79,4.79,0,0,0-.51,1.7l0,.23a4.87,4.87,0,0,1-4.6,4.32,4.84,4.84,0,0,0-4.62,5.05A4.65,4.65,0,0,0,9.26,24l.09.22a4.84,4.84,0,0,1-1.83,6,4.84,4.84,0,0,0-.26,8l.19.14A4.85,4.85,0,0,1,8.88,44.5a4.85,4.85,0,0,0,2,6.54,4.76,4.76,0,0,0,1.72.52l.24,0a4.85,4.85,0,0,1,4.31,4.6,4.85,4.85,0,0,0,5.06,4.62,4.7,4.7,0,0,0,1.73-.4l.21-.1a4.85,4.85,0,0,1,6,1.84,4.83,4.83,0,0,0,6.68,1.48,4.91,4.91,0,0,0,1.31-1.22l.13-.19a4.85,4.85,0,0,1,6.14-1.43A4.85,4.85,0,0,0,51,58.73,4.76,4.76,0,0,0,51.56,57l0-.23a4.85,4.85,0,0,1,4.6-4.32,4.84,4.84,0,0,0,4.62-5.06,4.65,4.65,0,0,0-.4-1.72l-.1-.22a4.84,4.84,0,0,1,1.84-6,4.86,4.86,0,0,0,1.48-6.69,4.76,4.76,0,0,0-1.23-1.3l-.19-.14a4.85,4.85,0,0,1-1.42-6.14" transform="translate(-5.28 -5.28)"/></g></g><g class="cls-4"><path class="cls-5" d="M25.12,32.53s.15.71.2,1c1.58,7.46,2,10.25,1.59,11.22A1.91,1.91,0,0,1,25.8,46a11.07,11.07,0,0,1-2,.58,5.79,5.79,0,0,0-1.13-2c.62-.1,1.19-.22,1.5-.3a.7.7,0,0,0,.53-.49c.26-.6,0-2.83-1.25-8.67l-1.71.43c.88,4.46,1.24,8.64-.15,11.93a5.73,5.73,0,0,0-2-1.07c1.26-2.84.91-6.47.09-10.34l-2,.5-.51-2,2.1-.53c-.23-1-.49-2-.74-3l2.1-.52c.25,1,.49,2.05.72,3.05Zm7.1-2.92,3.45,13.84L33.5,44l-.27-1.08-2.34.58.3,1.21-2.08.51-3.48-14Zm.51,11.29-2.18-8.76-2.34.59,2.18,8.75Z" transform="translate(-5.28 -5.28)"/><path class="cls-5" d="M40.15,40.61,40.49,42l-1.8.45-1.12-4.51a5.63,5.63,0,0,1-.29.79A10.27,10.27,0,0,0,35.67,37c.79-2,.78-4.85.43-7.79l-1.78.44-.47-1.86,6.61-1.65L40.92,28,38,28.72a36.19,36.19,0,0,1,.22,3.84l3.07-.77,2,8ZM40,34l-1.38.35,1.1,4.44,1.38-.35Zm11.83-2.18s.11.51.15.76c.85,4.07,1.06,5.73.74,6.4a1.76,1.76,0,0,1-1,1,13.58,13.58,0,0,1-1.89.52,4.55,4.55,0,0,0-1-1.65,14.24,14.24,0,0,0,1.48-.29.63.63,0,0,0,.49-.35,3.38,3.38,0,0,0,0-1.5l-.65.5a10.63,10.63,0,0,0-1.42-1.82l.91-.67a7.74,7.74,0,0,1,1,1.06c-.08-.48-.17-1-.3-1.65l-6.85,1.71L41,26l8.46-2.11.44,1.79-3,.75.24,1,2.5-.62.4,1.62L47.54,29l.25,1,2.5-.62.4,1.6-2.5.63.26,1.06Zm-8.68,8.6a8.22,8.22,0,0,0,.23-4.07H45a8.76,8.76,0,0,1-.2,4.51Zm.21-13.15.24,1,1.71-.43-.24-1Zm2.36,2.15L44,29.87l.25,1L46,30.46Zm-.79,4.12,1.71-.43-.27-1.07-1.71.43Zm1.63,2.6a15.7,15.7,0,0,1,1.1,3.08l-1.37.58a16.9,16.9,0,0,0-1-3.14Zm1.66-.7a11.53,11.53,0,0,1,1.35,2.43l-1.23.72a16.31,16.31,0,0,0-1.27-2.49Z" transform="translate(-5.28 -5.28)"/></g></g></g></svg>