<svg id="pop-treasure02" xmlns="http://www.w3.org/2000/svg" xmlns:xlink="http://www.w3.org/1999/xlink" width="260.512" height="221.841" viewBox="0 0 260.512 221.841">
  <defs>
    <clipPath id="clip-path">
      <rect id="Rectangle_299" data-name="Rectangle 299" width="260.512" height="221.841" fill="none"/>
    </clipPath>
  </defs>
  <g id="Group_360" data-name="Group 360">
    <g id="Group_359" data-name="Group 359" clip-path="url(#clip-path)">
      <path id="Path_3052" data-name="Path 3052" d="M226.485,86.539H31.078a6.74,6.74,0,0,1-6.74-6.739L28.5,18.011a6.741,6.741,0,0,1,6.74-6.74H223.159a6.74,6.74,0,0,1,6.739,6.74L233.224,79.8a6.739,6.739,0,0,1-6.739,6.739" fill="#0f3f3b"/>
    </g>
  </g>
  <g id="Group_362" data-name="Group 362">
    <g id="Group_361" data-name="Group 361" clip-path="url(#clip-path)">
      <path id="Path_3053" data-name="Path 3053" d="M131.544,89.473h3.571a9.866,9.866,0,0,0-1.013-.14,8.963,8.963,0,0,0-2.558.14" fill="#ffea71"/>
    </g>
  </g>
  <g id="Group_364" data-name="Group 364">
    <g id="Group_363" data-name="Group 363" clip-path="url(#clip-path)">
      <path id="Path_3054" data-name="Path 3054" d="M226.485,92.539H31.077A12.754,12.754,0,0,1,18.338,79.8l.014-.4L22.5,17.779A12.755,12.755,0,0,1,35.236,5.271H223.158A12.757,12.757,0,0,1,235.9,17.826L239.224,79.8a12.754,12.754,0,0,1-12.739,12.739M30.345,79.9a.74.74,0,0,0,.732.638H226.485a.74.74,0,0,0,.735-.659L223.9,18.011a.741.741,0,0,0-.741-.74H35.236a.741.741,0,0,0-.741.74l-.013.4Z" fill="#f2ad22"/>
    </g>
  </g>
  <g id="Group_366" data-name="Group 366">
    <g id="Group_365" data-name="Group 365" clip-path="url(#clip-path)">
      <path id="Path_3055" data-name="Path 3055" d="M220.269,221.839H36.934a9.512,9.512,0,0,1-9.453-8.3L16.888,99.631c-.527-5.666-1.1-10.295,4.279-10.295H236.2c5.382,0,4.641,4.633,4.115,10.3l-10.6,113.9a9.51,9.51,0,0,1-9.452,8.3" fill="#ffe266"/>
      <path id="Path_3056" data-name="Path 3056" d="M39.992,204.839l-7.662-94.77a4.667,4.667,0,0,1,4.58-5.236H220.288a4.659,4.659,0,0,1,4.581,5.239l-7.663,94.772a4.95,4.95,0,0,1-4.923,4.4H44.915a4.95,4.95,0,0,1-4.923-4.4" fill="#175653"/>
      <path id="Path_3057" data-name="Path 3057" d="M36.055,115,42.9,202.819A3.9,3.9,0,0,0,46.78,206.3H210.415a3.9,3.9,0,0,0,3.876-3.482L221.144,115a3.654,3.654,0,0,0-3.6-4.089H39.655a3.653,3.653,0,0,0-3.6,4.089" fill="#308482"/>
      <path id="Path_3058" data-name="Path 3058" d="M35.387,134.439l-.269-3.366H222.441l-.27,3.366Z" fill="#175653"/>
      <path id="Path_3059" data-name="Path 3059" d="M37.606,162.157l-.256-3.207H220.206l-.257,3.207Z" fill="#175653"/>
      <path id="Path_3060" data-name="Path 3060" d="M39.717,188.589l-.244-3.06h178.6l-.249,3.06Z" fill="#175653"/>
      <path id="Path_3061" data-name="Path 3061" d="M217.092,194.8h.065l-1.1,13.708H201.543c.7-7.562,7.587-13.709,15.551-13.709" fill="#308482"/>
      <path id="Path_3062" data-name="Path 3062" d="M39.83,194.8h-.065l1.1,13.708H55.381C54.676,200.948,47.79,194.8,39.83,194.8" fill="#308482"/>
      <path id="Path_3063" data-name="Path 3063" d="M219.856,196.753h.069l-1.2,14.45H203.4c.757-7.968,8.044-14.452,16.456-14.452" fill="#ffe266"/>
      <path id="Path_3064" data-name="Path 3064" d="M37.342,196.753h-.069l1.195,14.45H53.8c-.756-7.968-8.044-14.452-16.456-14.452" fill="#ffe266"/>
      <path id="Path_3065" data-name="Path 3065" d="M29.181,98.913a3.138,3.138,0,0,1-2.693,3.527h0a2.911,2.911,0,0,1-.373.027,3.855,3.855,0,0,1-3.675-3.554,3.138,3.138,0,0,1,2.67-3.545,2.968,2.968,0,0,1,.4-.031,3.856,3.856,0,0,1,3.676,3.576" fill="#f2ad22"/>
      <path id="Path_3066" data-name="Path 3066" d="M234.58,98.913a3.857,3.857,0,0,1-3.675,3.554,3.138,3.138,0,0,1-3.094-3.181h0a3.326,3.326,0,0,1,.027-.373,3.853,3.853,0,0,1,3.676-3.576,3.141,3.141,0,0,1,3.066,3.576" fill="#f2ad22"/>
      <path id="Path_3067" data-name="Path 3067" d="M44.44,208.511a3.189,3.189,0,0,1-2.943,3.417,3.272,3.272,0,0,1-.357.007,3.868,3.868,0,0,1-3.849-3.424,3.187,3.187,0,0,1,2.916-3.438,3.231,3.231,0,0,1,.381-.008,3.867,3.867,0,0,1,3.851,3.446" fill="#f2ad22"/>
      <path id="Path_3068" data-name="Path 3068" d="M220.422,209.246a3.869,3.869,0,0,1-3.849,3.419,3.184,3.184,0,0,1-3.306-3.057,3.129,3.129,0,0,1,.006-.362,3.867,3.867,0,0,1,3.85-3.44,3.182,3.182,0,0,1,3.3,3.058,3.059,3.059,0,0,1-.008.383" fill="#f2ad22"/>
      <path id="Path_3069" data-name="Path 3069" d="M139.457,133.88h-21.7a10.836,10.836,0,0,1-10.62-10.8l-.267-14.667h43.467l-.267,14.667a10.833,10.833,0,0,1-10.618,10.8" fill="#308482"/>
      <path id="Path_3070" data-name="Path 3070" d="M138.108,129.384H119.089a8.882,8.882,0,0,1-8.7-8.887l-.322-20.837a8.948,8.948,0,0,1,8.537-9.341c.054,0,.109,0,.163-.006h19.657A8.95,8.95,0,0,1,147.13,99.5l-.006.161L146.8,120.5a8.883,8.883,0,0,1-8.7,8.887" fill="#ffe266"/>
      <path id="Path_3071" data-name="Path 3071" d="M133.9,107.737a5.3,5.3,0,1,0-10.587-.579,5.083,5.083,0,0,0,0,.579,5.625,5.625,0,0,0,2.4,4.625l.018,7.817a2.288,2.288,0,0,0,2.245,2.328h1.267a2.288,2.288,0,0,0,2.245-2.328l.018-7.817a5.625,5.625,0,0,0,2.4-4.625" fill="#fff7ae"/>
      <path id="Path_3072" data-name="Path 3072" d="M133.625,106.368a5.032,5.032,0,1,1-5.025-5.3,5.157,5.157,0,0,1,5.026,5.282v.022" fill="#684e46"/>
      <path id="Path_3073" data-name="Path 3073" d="M129.2,120.392h-1.206a2.172,2.172,0,0,1-2.128-2.209l-.027-11.355h5.513l-.027,11.355a2.171,2.171,0,0,1-2.127,2.209" fill="#684e46"/>
      <path id="Path_3074" data-name="Path 3074" d="M103.642,93.021h-79.9a1.383,1.383,0,0,1-.068-2.765h79.969a1.383,1.383,0,0,1,.068,2.765h-.068" fill="#fff7ae"/>
      <path id="Path_3075" data-name="Path 3075" d="M233.378,93.021H153.63a1.383,1.383,0,0,1,0-2.765h79.748a1.383,1.383,0,0,1,0,2.765" fill="#fff7ae"/>
      <path id="Path_3076" data-name="Path 3076" d="M106.568,93.358a3.96,3.96,0,0,1,3.887-4.032h2.862a3.3,3.3,0,0,0-3.268,3.2l-.035,1.131.173,11.184h-3.409Z" fill="#f2ad22"/>
      <path id="Path_3077" data-name="Path 3077" d="M144.093,89.326h2.589a3.96,3.96,0,0,1,3.96,3.958v.074l-.209,11.461h-3.4l.177-11.492-.015-.861a3.2,3.2,0,0,0-3.1-3.141" fill="#f2ad22"/>
      <path id="Path_3078" data-name="Path 3078" d="M144.152,92.181H112.83a1.386,1.386,0,0,1,0-2.765h31.322a1.334,1.334,0,0,1,1.281,1.383s-.055,1.383-1.281,1.383" fill="#fff7ae"/>
    </g>
  </g>
</svg>
