<svg id="pop-girl" xmlns="http://www.w3.org/2000/svg" xmlns:xlink="http://www.w3.org/1999/xlink" width="193.468" height="279.726" viewBox="0 0 193.468 279.726">
  <defs>
    <clipPath id="clip-path">
      <rect id="Rectangle_448" data-name="Rectangle 448" width="193.468" height="279.726" fill="none"/>
    </clipPath>
    <clipPath id="clip-path-2">
      <path id="Path_4935" data-name="Path 4935" d="M87.809,94.8s4.713,17.11,2.331,24.418c-1.99,6.107-31.069,13.7-30.119,14.307,4.537,4.879,24.743,15.8,49.32,13.333s35.144-24.192,35.144-24.192c-10.28-3.2-20.092-4.485-21.557-8.092s-2.849-23.66-2.849-23.66Z" fill="none"/>
    </clipPath>
  </defs>
  <g id="Group_640" data-name="Group 640">
    <g id="Group_639" data-name="Group 639" clip-path="url(#clip-path)">
      <path id="Path_4932" data-name="Path 4932" d="M136.731,47.356l4.828-8.39c4.408,11.835,26.448,37.113,15.023,49.5-.875.949-2.264,1.361-2.054-.6.321-2.967,2.08-10.973-3.142-19.593,0,0,13.99,33.955-31.274,34.531-43.274-.191,16.619-55.454,16.619-55.454" fill="#684e46" fill-rule="evenodd"/>
      <path id="Path_4933" data-name="Path 4933" d="M120.079,90.912s1.385,20.056,2.849,23.661,11.277,4.889,21.557,8.091c0,0-10.565,21.726-35.144,24.192s-44.783-8.454-49.32-13.333c-.951-.6,28.128-8.2,30.119-14.308,2.381-7.306-2.332-24.417-2.332-24.417Z" fill="#fcd1c8"/>
    </g>
  </g>
  <g id="Group_642" data-name="Group 642">
    <g id="Group_641" data-name="Group 641" clip-path="url(#clip-path-2)">
      <path id="Path_4934" data-name="Path 4934" d="M89.806,113.918a16.592,16.592,0,0,0,.7-3.513c1.141-5.873.081-16.26.081-16.26l30.457-3.307a98.088,98.088,0,0,0,.414,11.881c-3.7,3.875-8.851,9.078-11.335,10.769a21.546,21.546,0,0,1-18.2,1.968,17.67,17.67,0,0,1-2.111-1.538" fill="#f8a8a0" fill-rule="evenodd"/>
    </g>
  </g>
  <g id="Group_644" data-name="Group 644">
    <g id="Group_643" data-name="Group 643" clip-path="url(#clip-path)">
      <path id="Path_4936" data-name="Path 4936" d="M52.972,57.044s-5.6,10.817-7.311,19.154.9,21.02,10.381,23.692a.422.422,0,0,0,.375-.565c-.131-.52-2.1-3.1-2.9-6.645,0,0,11.854,21.342,37.4,17.367L73.467,60.1Z" fill="#684e46" fill-rule="evenodd"/>
      <path id="Path_4937" data-name="Path 4937" d="M71.256,127.863s-9.852,2.47-16.018,7.266S17.688,162.5,17.688,162.5l-1.057,31.372,24.855,10.4,5.974-9.545s29.8-59.193,23.8-66.857" fill="#fff" fill-rule="evenodd"/>
      <path id="Path_4938" data-name="Path 4938" d="M143.8,118.778a41.411,41.411,0,0,1,11.654,8.931c2.9,3.265,13.047,13.608,21.442,22.1a25.79,25.79,0,0,1,5.393,28.218l-8.915,20.982-17.032-.818-4.129-10.475s-15.713-62.5-8.413-68.94" fill="#fff" fill-rule="evenodd"/>
      <path id="Path_4939" data-name="Path 4939" d="M138.2,279.549c-29.358.7-61.035-.425-96.161-8.26-3.225-.72,1.161-11.033,1.742-13.3q2-7.806,3.687-15.687c2-9.327,3.667-19.031,1.587-28.34-1.454-6.511-4.725-12.771-4.354-19.432.29-5.191,2.77-9.966,5.075-14.626a290.988,290.988,0,0,0,18.8-48.523,5.664,5.664,0,0,1,1.431-2.828,5.614,5.614,0,0,1,2.458-1.024c3.338-.8,6.744-1.833,10.082-2.628,3.127,7.227,6.473,14.571,10.163,21.527l27.16-26.674a10.893,10.893,0,0,1,4.206-2.98,10.879,10.879,0,0,1,4.674-.021c4.932.7,10.111,1.333,15.043,2.029-1.994,15.147,2.638,30.364,8.155,44.612a25.1,25.1,0,0,1,2.128,7.915c.127,3.187-.991,6.274-2.016,9.294-2.633,7.763-4.744,15.691-6.853,23.613-2.273,8.534-4.565,17.295-3.69,26.084,1.158,11.635,7.685,21.914,12.606,32.521.988,2.131,1.937,4.421,1.651,6.752-.344,2.794-2.454,5.121-4.927,6.466-3.764,2.048-8.51,2.571-12.65,3.514" fill="#fff" fill-rule="evenodd"/>
      <path id="Path_4940" data-name="Path 4940" d="M144.507,241.909a64.265,64.265,0,0,1-3.388-10.588c-2.173-11.412,13.742-60.24,13.742-60.24a194.717,194.717,0,0,1-7.735-21.411l-.018-.059s1.919,8.345-2.608,20.61-5.171,26.346-8.667,35.95-10.036,11.476-13.415,12.583,13.752,4.542,22.089,23.155" fill="#e4d9e1" fill-rule="evenodd"/>
      <path id="Path_4941" data-name="Path 4941" d="M131.251,63.754s2.983-3.674,5.187-3.625,5.256,4.543,5.2,8.111-3.332,16.171-10.866,12,.479-16.488.479-16.488" fill="#fcd1c8" fill-rule="evenodd"/>
      <path id="Path_4942" data-name="Path 4942" d="M128.779,67.822a.8.8,0,0,0-.1.942.442.442,0,0,0,.674.063s2.717,10.775,4.215,8.959,3.081-3.574,3.567-6.388-2.154-5.182-1.317-5.965c.8-.749,1.784.262,1.874.358l0,0v0h0a7.25,7.25,0,0,1,1.192,1.968.442.442,0,0,0,.705.211.819.819,0,0,0,.265-.916c-.005-.012-1.542-4.067-4.575-3.715-2.9.334-6.5,4.465-6.511,4.476" fill="#f8a8a0" fill-rule="evenodd"/>
      <path id="Path_4943" data-name="Path 4943" d="M68.69,64.753s-3.51-3.175-5.679-2.787-4.5,5.3-3.9,8.812,5.769,15.469,12.576,10.2-3-16.221-3-16.221" fill="#f8a8a0" fill-rule="evenodd"/>
      <path id="Path_4944" data-name="Path 4944" d="M94.683,16.279C139.4,13.764,135.3,49,133.342,77.32a36.953,36.953,0,0,1-6.854,19.349s-11.806,11.947-15.991,14.572a21.32,21.32,0,0,1-18.078,1.281c-4.514-2.009-17.887-12.17-17.887-12.17a36.957,36.957,0,0,1-9.514-18.191C59.092,54.4,50.059,20.093,94.683,16.279" fill="#fcd1c8" fill-rule="evenodd"/>
      <path id="Path_4945" data-name="Path 4945" d="M133.484,43.067a99.686,99.686,0,0,1,.753,20.266l-.572.678c.539.025-9.075,1.227-20.777-11.527s-18.44-13.9-18.44-13.9S90.924,67.168,67.573,70.257a18.936,18.936,0,0,1-5.047.077,108.192,108.192,0,0,1-2.493-21.3A50.2,50.2,0,0,1,64.341,41.4c.73-.583,31.378-13.255,33.431-12.982,1.341.18,21.712,8.73,35.712,14.651" fill="#f8a8a0" fill-rule="evenodd"/>
      <path id="Path_4946" data-name="Path 4946" d="M137.7,59.122s-3.266,2.483-3.815,10.34a17.588,17.588,0,0,1-4.267-12.553c.58-7.459,8.082,2.213,8.082,2.213" fill="#684e46" fill-rule="evenodd"/>
      <path id="Path_4947" data-name="Path 4947" d="M102.522,57.033a4.484,4.484,0,0,1-2.219.458,4,4,0,0,1-2.626-1.62c-.067-.34.687.024,2.4-1.261,1.68-1.261,8.243-5.005,14.742-2.189,1.118.488.675,1.228-.513,1.229a17.149,17.149,0,0,0-11.784,3.383" fill="#684e46" fill-rule="evenodd"/>
      <path id="Path_4948" data-name="Path 4948" d="M80.054,61.357a4.143,4.143,0,0,0,2.226-.175,3.751,3.751,0,0,0,1.884-2.4c-.056-.366-.631.223-2.674-.583-2.006-.792-9.422-2.682-14.5,2.043-.874.815-.2,1.437.9,1.1a15.986,15.986,0,0,1,12.16.017" fill="#684e46" fill-rule="evenodd"/>
      <path id="Path_4949" data-name="Path 4949" d="M117.328,65.4s1.311-.55,1.678-3.31c.362-2.715-15.208-6.376-17.289,4.7,0,0,11.109-3.337,15.611-1.389" fill="#f8a8a0" fill-rule="evenodd"/>
      <path id="Path_4950" data-name="Path 4950" d="M105.716,68.581a3.234,3.234,0,0,1-2.046.265,4.341,4.341,0,0,1-2.371-2.164c-.056-.4.628.106,2.228-1.163,1.316-1.044,5.809-3.676,10.7-2.166a2.156,2.156,0,0,0,.719-1.726.7.7,0,0,1,.7-.754.823.823,0,0,1,.777.785,3.53,3.53,0,0,1-.667,2.305l.122.06a1.053,1.053,0,0,0,.6-.588.7.7,0,0,1,.982-.318.828.828,0,0,1,.376,1.045,2.7,2.7,0,0,1-.5.769c.7.638.264,1.291-.731,1.167a12.54,12.54,0,0,0-10.894,2.483" fill="#684e46" fill-rule="evenodd"/>
      <path id="Path_4951" data-name="Path 4951" d="M70.147,72.991s-1.244-.156-2.291-2.6C66.828,67.984,78.9,60.446,83.61,70.1c0,0-10.208-.107-13.463,2.89" fill="#f8a8a0" fill-rule="evenodd"/>
      <path id="Path_4952" data-name="Path 4952" d="M80.736,72.825a2.616,2.616,0,0,0,1.787-.3,4.134,4.134,0,0,0,1.411-2.63c-.06-.383-.5.267-2.179-.476-1.385-.611-5.855-1.837-9.551.861a2.1,2.1,0,0,1-1.065-1.4.624.624,0,0,0-.791-.5.785.785,0,0,0-.442.932,3.546,3.546,0,0,0,1.176,1.943L71,71.338a.932.932,0,0,1-.663-.379.58.58,0,0,0-.909-.034.848.848,0,0,0-.036,1.065,2.557,2.557,0,0,0,.623.576c-.419.777.126,1.26.925.878a10.179,10.179,0,0,1,9.8-.619" fill="#684e46" fill-rule="evenodd"/>
      <path id="Path_4953" data-name="Path 4953" d="M88.54,69.088a.775.775,0,0,1,1.524.286c-.261,1.4-1.774,9.341-1.555,10.027.176.445,1.109.99,1.516,1.186a4.937,4.937,0,0,0,2.292.525.776.776,0,0,1,.06,1.55,6.488,6.488,0,0,1-3.027-.677,4.89,4.89,0,0,1-2.285-2.014c-.376-.943,1.128-9.336,1.475-10.883" fill="#f8a8a0" fill-rule="evenodd"/>
      <path id="Path_4954" data-name="Path 4954" d="M58.1,62.525a20.082,20.082,0,0,1,4.719,9.262c1.2,5.72,1.666,7.863,1.666,7.863a15.724,15.724,0,0,0,3.292-8.414c.192-4.691.952-7.505,2.622-9.219s-9.117-4.845-12.3.508" fill="#684e46" fill-rule="evenodd"/>
      <path id="Path_4955" data-name="Path 4955" d="M90.937,38.221S89.384,66.848,62.648,70.953c0,0-13.943-.289-9.632-14.316,1.8-11.439,3.687-30.714,8.359-39.1S80.668-.815,90.473,6.115c0,0,8.929-11.294,25-3.186s23.392,27.771,26.08,36.036c1.165,3.582,1.6,12.048,1.465,18.753-.994,3.06-10.961,2.569-10.961,2.569C113.406,59,111.117,39.055,90.937,38.221" fill="#684e46" fill-rule="evenodd"/>
      <path id="Path_4956" data-name="Path 4956" d="M53.371,54.295c1.7-11.572,3.638-28.92,8-36.756C66.048,9.156,80.668-.815,90.473,6.115c0,0,8.929-11.293,25-3.186,15.082,7.61,22.456,25.388,25.53,34.38,0,0-1.035,14.584-15.294,9.218-13.651-5.137-24.991-13.514-39.221-12.005-3.173.341-3.166,1.477.014,2.273,0,0-2.152,25.415-33.135,17.5" fill="#7f5a50" fill-rule="evenodd"/>
      <path id="Path_4957" data-name="Path 4957" d="M129.6,15.074a70.794,70.794,0,0,1,8.4,14.5c-7.518,9.269-23.206,5.263-32.4-2.837,17.216,2.5,22.449-5.613,24-11.66" fill="#936e65" fill-rule="evenodd"/>
      <path id="Path_4958" data-name="Path 4958" d="M90.472,6.115A18.279,18.279,0,0,1,101.81.158c5.881,10.6-5.351,21.828-5.351,21.828A20.839,20.839,0,0,0,90.472,6.115" fill="#684e46" fill-rule="evenodd"/>
      <path id="Path_4959" data-name="Path 4959" d="M86.37,84.847c2.309.527,5.822.262,9.259-.513a23.843,23.843,0,0,0,8.673-3.523.87.87,0,0,1,1.222.159.882.882,0,0,1,.181.578c-.306,5.218-1.681,9.066-3.649,11.424a7.54,7.54,0,0,1-4.245,2.69,7.333,7.333,0,0,1-4.933-.8C90.242,93.5,87.6,90.6,85.395,86.08a.87.87,0,0,1,.975-1.231Z" fill="#684e46" fill-rule="evenodd"/>
      <path id="Path_4960" data-name="Path 4960" d="M86.961,84.961a24.871,24.871,0,0,0,8.667-.627,23.828,23.828,0,0,0,8.673-3.523.873.873,0,0,1,1.4.737c-.025.425-.057.836-.094,1.242-5.653,4.6-14.947,5.171-16.775,4.508a3.142,3.142,0,0,1-1.874-2.337" fill="#fff" fill-rule="evenodd"/>
      <path id="Path_4961" data-name="Path 4961" d="M104.309,88.893a13.584,13.584,0,0,1-2.253,4.079,7.534,7.534,0,0,1-4.245,2.69,7.333,7.333,0,0,1-4.933-.8,10.335,10.335,0,0,1-1.266-.773c.933-.982,2.854-2.272,6.278-1.747,0,0,2.626-3.423,6.419-3.452" fill="#f68b85" fill-rule="evenodd"/>
      <path id="Path_4962" data-name="Path 4962" d="M95.876,99.324a.792.792,0,1,1,.247-1.564,8.6,8.6,0,0,0,6.347-2.109.791.791,0,0,1,1.021,1.209,10.3,10.3,0,0,1-7.615,2.464" fill="#f8a8a0" fill-rule="evenodd"/>
      <path id="Path_4963" data-name="Path 4963" d="M91.889,157.011c-3.2.2-6.745-4.743-10.829-15.118-2.9-7.365-5.018-14.88-5.038-14.955l1.7-.478c5.96,21.24,11.783,28.929,14.053,28.785,4.562-.287,25.72-22.808,38.828-37.874l1.335,1.16c-.082.1-8.329,9.564-17.276,18.962-18.312,19.237-21.672,19.448-22.776,19.518" fill="#308482"/>
      <path id="Path_4964" data-name="Path 4964" d="M172.38,233.244,12.633,218.525a6.558,6.558,0,0,1-5.93-7.133l5.264-57.135a6.559,6.559,0,0,1,7.133-5.93l159.748,14.719a6.56,6.56,0,0,1,5.93,7.134l-5.265,57.134a6.559,6.559,0,0,1-7.133,5.93" fill="#308482"/>
      <path id="Path_4965" data-name="Path 4965" d="M36.559,185.754c-.523,1.948-2.459,2.938-3.794,3.39a9.858,9.858,0,0,1-1.341.359A5.137,5.137,0,0,1,33,191.177a4.241,4.241,0,0,1-.843,5.125,5.492,5.492,0,0,1-2.655,1.337,7.631,7.631,0,0,1-1.241.175c.23.035.732.26.337,1.572a6.708,6.708,0,0,1-.484,1.223c-1.773,3.7-12.437,3.381-20.194-1.9s-11.448-28.125-3.434-37.419c2.341-2.7,7.55-4.148,7.55-4.148l-.19,2.059a4.565,4.565,0,0,0,2.725,4.491c6.71,3.206,16.525,6.766,18.083,7.337,3.649,1.326,3.189,5.867.963,7.466a2.881,2.881,0,0,1-2.152.517,7.092,7.092,0,0,1,3.576,1.789,4.905,4.905,0,0,1,1.511,4.956" fill="#fcd1c8"/>
      <path id="Path_4966" data-name="Path 4966" d="M35.047,180.8c-1.079-.251-2.21-.534-3.364-.833a112.025,112.025,0,0,1-11.206-3.537,35.732,35.732,0,0,1-5.426-2.5,5.949,5.949,0,0,1-1.749-1.486.961.961,0,0,1,.241-1.336l.006,0a.973.973,0,0,1,1.339.261,4.469,4.469,0,0,0,1.167.92,21.127,21.127,0,0,0,2.551,1.294,77.233,77.233,0,0,0,7.6,2.8c2.434.775,5,1.493,7.417,2.1a2.886,2.886,0,0,1-2.152.518,7.088,7.088,0,0,1,3.579,1.788" fill="#f8a8a0"/>
      <path id="Path_4967" data-name="Path 4967" d="M33,191.18c-.755-.179-1.525-.361-2.3-.57a116.473,116.473,0,0,1-11.2-3.55,34.27,34.27,0,0,1-5.426-2.5,5.7,5.7,0,0,1-1.749-1.485.945.945,0,0,1,.228-1.314l.018-.012a.96.96,0,0,1,1.335.242l0,.007a4.5,4.5,0,0,0,1.163.918,23.2,23.2,0,0,0,2.549,1.308c2.065.906,4.753,1.883,7.6,2.792,2.474.779,5.091,1.515,7.539,2.127a9.8,9.8,0,0,1-1.34.358A5.144,5.144,0,0,1,33,191.177" fill="#f8a8a0"/>
      <path id="Path_4968" data-name="Path 4968" d="M28.6,199.389c-3.436-.95-6.976-2.088-9.944-3.214a34.4,34.4,0,0,1-5.426-2.5,5.7,5.7,0,0,1-1.748-1.486.941.941,0,0,1,.228-1.313l.017-.012a.958.958,0,0,1,1.334.238l.006.008a4.49,4.49,0,0,0,1.167.921,23.377,23.377,0,0,0,2.55,1.307c2.065.907,4.753,1.884,7.6,2.793,1.672.525,3.41,1.043,5.119,1.5a7.63,7.63,0,0,1-1.241.174c.231.035.733.261.337,1.573" fill="#f8a8a0"/>
      <path id="Path_4969" data-name="Path 4969" d="M155.248,196.69c.158,2.011,1.881,3.338,3.111,4.027a9.9,9.9,0,0,0,1.252.6,5.138,5.138,0,0,0-1.858,1.357,4.242,4.242,0,0,0-.108,5.193,5.479,5.479,0,0,0,2.367,1.8,7.508,7.508,0,0,0,1.188.4c-.233-.008-.768.121-.618,1.484a6.6,6.6,0,0,0,.252,1.29c1.066,3.966,11.609,5.6,20.2,1.819s16.394-25.561,10.213-36.164c-1.808-3.084-6.666-5.458-6.666-5.458l-.189,2.06a4.567,4.567,0,0,1-3.5,3.917c-7.183,1.926-17.483,3.632-19.118,3.909-3.83.638-4.208,5.186-2.312,7.165a2.881,2.881,0,0,0,2.021.9,7.09,7.09,0,0,0-3.842,1.105,4.9,4.9,0,0,0-2.391,4.6" fill="#fcd1c8"/>
      <path id="Path_4970" data-name="Path 4970" d="M157.64,192.093c1.106-.05,2.271-.121,3.459-.2a112.043,112.043,0,0,0,11.663-1.431A35.537,35.537,0,0,0,178.553,189a5.931,5.931,0,0,0,1.991-1.141.96.96,0,0,0,.007-1.357l-.006-.006a.973.973,0,0,0-1.363.012,4.464,4.464,0,0,1-1.315.691,21.159,21.159,0,0,1-2.745.807,77.347,77.347,0,0,1-7.986,1.368c-2.533.317-5.184.555-7.675.71a2.882,2.882,0,0,0,2.021.9,7.092,7.092,0,0,0-3.846,1.1" fill="#f8a8a0"/>
      <path id="Path_4971" data-name="Path 4971" d="M157.753,202.674c.775-.038,1.565-.076,2.367-.14a116.332,116.332,0,0,0,11.664-1.443,34.258,34.258,0,0,0,5.791-1.463,5.7,5.7,0,0,0,1.991-1.141.943.943,0,0,0,.016-1.333l-.015-.015a.96.96,0,0,0-1.357-.006l-.006.005a4.487,4.487,0,0,1-1.315.691,23.091,23.091,0,0,1-2.746.82c-2.2.514-5.017.983-7.985,1.356-2.574.314-5.281.56-7.8.714a9.968,9.968,0,0,0,1.252.6,5.147,5.147,0,0,0-1.858,1.356" fill="#f8a8a0"/>
      <path id="Path_4972" data-name="Path 4972" d="M160.581,211.549c3.552-.306,7.24-.778,10.364-1.343a34.366,34.366,0,0,0,5.79-1.463,5.681,5.681,0,0,0,1.991-1.141.942.942,0,0,0,.016-1.333l-.015-.015a.958.958,0,0,0-1.355-.009l-.007.007a4.469,4.469,0,0,1-1.316.691,23.091,23.091,0,0,1-2.746.82c-2.195.514-5.017.983-7.984,1.357-1.74.21-3.544.4-5.308.543a7.638,7.638,0,0,0,1.188.4c-.233-.008-.768.123-.618,1.485" fill="#f8a8a0"/>
      <path id="Path_4973" data-name="Path 4973" d="M73.136,176.175s-.169,1.83-.274,2.542c-1.891,16.593-2.751,22.892-4.2,24.684a4.917,4.917,0,0,1-3.556,2.039,19.954,19.954,0,0,1-4.878-.169,15.133,15.133,0,0,0-1.035-5.751,23.808,23.808,0,0,1-4.372,6.1A16.28,16.28,0,0,0,51,200.891c4.675-4.583,6.311-11.452,7.374-20.38l-4.137-.381.52-5.648,4.217.388.583-6.324,5.687.524c-.2,2.188-.4,4.3-.623,6.32Zm-9.152,4.853c-.941,7.173-2.233,13.352-4.734,18.3,1.381.248,2.571.4,3.286.464a1.452,1.452,0,0,0,1.426-.671c.851-.964,1.558-5.593,2.966-17.818Zm26.056-5.9-2.968,32.218-5.808-.535.22-2.386-3.659-.337-.249,2.7-5.53-.509,3-32.537ZM82,198.853l1.722-18.694-3.658-.338-1.723,18.7Z" fill="#fff"/>
      <path id="Path_4974" data-name="Path 4974" d="M100.512,192.1c-1.6-1.35-5.159-3.644-7.465-5.18l3.5-4.01c2.247,1.29,5.865,3.388,7.632,4.674ZM92.888,204.75a111.453,111.453,0,0,0,7.361-10.673l4.075,4.105c-2.059,3.622-4.364,7.3-6.726,10.733Zm10.888-23.265c-1.6-1.391-5.105-3.8-7.4-5.415l3.69-3.913c2.2,1.366,5.807,3.584,7.567,4.95Zm26.282,1.218-2.675,29.036-5.649-.52.195-2.108-12.609-1.162-.22,2.387-5.409-.5,2.7-29.314,8.87.817.736-7.995,5.649.521-.737,7.994Zm-18.766,3.847-.469,5.091,3.46.319.469-5.091Zm-1.462,15.87,3.46.319.484-5.25-3.461-.319ZM120.4,187.389l-.469,5.092,3.5.322.469-5.091Zm2.037,16.193.484-5.25-3.5-.322-.484,5.25Z" fill="#fff"/>
      <path id="Path_4975" data-name="Path 4975" d="M136.126,205.686a4.075,4.075,0,0,1,8.114.748,4.074,4.074,0,1,1-8.114-.748m2.2-19.533.37-6.625,7.8.718-.847,6.581-2.352,12.459-4.932-.454Z" fill="#fff"/>
    </g>
  </g>
</svg>
