<svg id="pop-treasure01" xmlns="http://www.w3.org/2000/svg" xmlns:xlink="http://www.w3.org/1999/xlink" width="260.512" height="221.841" viewBox="0 0 260.512 221.841">
  <defs>
    <clipPath id="clip-path">
      <rect id="Rectangle_298" data-name="Rectangle 298" width="260.512" height="221.841" fill="none"/>
    </clipPath>
    <clipPath id="clip-path-3">
      <rect id="Rectangle_296" data-name="Rectangle 296" width="260.513" height="90.251" fill="none"/>
    </clipPath>
    <clipPath id="clip-path-4">
      <rect id="Rectangle_278" data-name="Rectangle 278" width="202.982" height="92.085" fill="none"/>
    </clipPath>
    <clipPath id="clip-path-5">
      <rect id="Rectangle_279" data-name="Rectangle 279" width="175.115" height="73.794" fill="none"/>
    </clipPath>
    <clipPath id="clip-path-6">
      <rect id="Rectangle_280" data-name="Rectangle 280" width="41.695" height="29.624" fill="none"/>
    </clipPath>
    <clipPath id="clip-path-7">
      <rect id="Rectangle_281" data-name="Rectangle 281" width="35.546" height="40.176" fill="none"/>
    </clipPath>
    <clipPath id="clip-path-8">
      <rect id="Rectangle_282" data-name="Rectangle 282" width="35.265" height="30.329" fill="none"/>
    </clipPath>
    <clipPath id="clip-path-9">
      <rect id="Rectangle_283" data-name="Rectangle 283" width="33.805" height="28.021" fill="none"/>
    </clipPath>
    <clipPath id="clip-path-10">
      <rect id="Rectangle_284" data-name="Rectangle 284" width="27.888" height="31.519" fill="none"/>
    </clipPath>
    <clipPath id="clip-path-11">
      <rect id="Rectangle_294" data-name="Rectangle 294" width="41.607" height="32.715" fill="none"/>
    </clipPath>
    <clipPath id="clip-path-12">
      <rect id="Rectangle_295" data-name="Rectangle 295" width="36.624" height="39.384" fill="none"/>
    </clipPath>
  </defs>
  <g id="_treasure01" data-name=" treasure01" clip-path="url(#clip-path)">
    <g id="Group_325" data-name="Group 325">
      <g id="Group_324" data-name="Group 324" clip-path="url(#clip-path)">
        <path id="Path_2949" data-name="Path 2949" d="M158.186,107.559h3.571a9.746,9.746,0,0,0-1.013-.14,8.979,8.979,0,0,0-2.558.14" transform="translate(-26.642 -18.086)" fill="#ffea71"/>
      </g>
    </g>
    <g id="Group_354" data-name="Group 354">
      <g id="Group_353" data-name="Group 353" clip-path="url(#clip-path-3)">
        <path id="Path_2950" data-name="Path 2950" d="M231.414,88.822H36.007a6.74,6.74,0,0,1-6.74-6.739l4.158-61.789a6.74,6.74,0,0,1,6.74-6.74H228.088a6.74,6.74,0,0,1,6.739,6.74l3.326,61.789a6.739,6.739,0,0,1-6.739,6.739" transform="translate(-4.929 -2.283)" fill="#0f3f3b"/>
        <path id="Path_2951" data-name="Path 2951" d="M231.414,88.822H36.007a6.74,6.74,0,0,1-6.74-6.739l4.158-61.789a6.74,6.74,0,0,1,6.74-6.74H228.088a6.74,6.74,0,0,1,6.739,6.74l3.326,61.789A6.739,6.739,0,0,1,231.414,88.822Z" transform="translate(-4.929 -2.283)" fill="none" stroke="#f2ad22" stroke-width="12"/>
        <g id="Group_328" data-name="Group 328" transform="translate(24.705 22.126)" opacity="0.3">
          <g id="Group_327" data-name="Group 327">
            <g id="Group_326" data-name="Group 326" clip-path="url(#clip-path-4)">
              <path id="Path_2952" data-name="Path 2952" d="M72.5,113.191c16.726,3.96,33.713,6.158,50.77,5.325,18.406-.9,36.841-4.066,54.923-8.21,17.069-3.913,33.78-9.261,50.522-14.808,1.3-.431,2.629-.836,3.974-1.228l-2.536-16.153-12.2-4.678a10.474,10.474,0,0,1-5.835-6.246l-5.31-14.062L194.032,52.1a9.243,9.243,0,0,1-6.895-4.377L179.189,35.6l-12.611,2.708a8.409,8.409,0,0,1-7.561-2.244l-10.135-9.457-11.7,6.275a8.115,8.115,0,0,1-7.805,0l-11.7-6.274-10.134,9.457a8.406,8.406,0,0,1-7.561,2.243L87.38,35.6,79.432,47.721A9.242,9.242,0,0,1,72.537,52.1L59.76,53.129,54.45,67.191a10.473,10.473,0,0,1-5.836,6.245l-12.2,4.678L33.235,98.357l-3.526,2.6c14.219,4.318,28.4,8.827,42.794,12.234" transform="translate(-29.709 -26.607)" fill="#ffde52"/>
            </g>
          </g>
        </g>
        <g id="Group_331" data-name="Group 331" transform="translate(39.877 40.417)" opacity="0.2">
          <g id="Group_330" data-name="Group 330">
            <g id="Group_329" data-name="Group 329" clip-path="url(#clip-path-5)">
              <path id="Path_2953" data-name="Path 2953" d="M75.576,116.9c16.726,3.96,33.713,6.158,50.77,5.325,18.406-.9,36.841-4.066,54.922-8.21,14.1-3.233,27.965-7.452,41.8-11.947l-1.26-8.021-8.815-3.382a14.273,14.273,0,0,1-7.956-8.514L201.2,71.99l-9.223-.744a12.606,12.606,0,0,1-9.4-5.967l-5.733-8.745-9.092,1.953a10.978,10.978,0,0,1-2.294.244,11.741,11.741,0,0,1-8.014-3.3L150.129,48.6l-8.452,4.535a11.075,11.075,0,0,1-10.643,0L122.583,48.6l-7.315,6.826a11.741,11.741,0,0,1-8.013,3.3,10.974,10.974,0,0,1-2.3-.244l-9.092-1.953-5.732,8.742a12.6,12.6,0,0,1-9.4,5.967l-9.223.745L67.676,82.144A14.279,14.279,0,0,1,59.72,90.66l-8.815,3.379-1.723,10.97a18.067,18.067,0,0,1-1.229,4.271c9.165,2.765,18.351,5.42,27.623,7.616" transform="translate(-47.953 -48.603)" fill="#ffde52"/>
            </g>
          </g>
        </g>
        <path id="Path_2954" data-name="Path 2954" d="M242.194,122.008,182.733,84.044c-31.785-20.294-69.826-20.294-101.611,0L21.661,122.008Z" transform="translate(-3.648 -11.591)" fill="#ffcb48"/>
        <path id="Path_2955" data-name="Path 2955" d="M142.869,75.58c.13,1.629-2.7,3.291-6.31,3.711s-6.651-.56-6.782-2.189,2.7-3.291,6.311-3.711,6.651.56,6.781,2.189" transform="translate(-21.856 -12.344)" fill="#ffea71"/>
        <path id="Path_2956" data-name="Path 2956" d="M166.6,81.505c-.159,2.3-3.086,3.883-6.539,3.537s-6.122-2.493-5.964-4.793,3.086-3.884,6.539-3.538,6.123,2.494,5.964,4.794" transform="translate(-25.952 -12.912)" fill="#ffea71"/>
        <path id="Path_2957" data-name="Path 2957" d="M126.649,82.28c.16,2-2.642,3.962-6.257,4.383s-6.675-.861-6.835-2.861,2.642-3.963,6.257-4.383,6.675.86,6.835,2.861" transform="translate(-19.124 -13.362)" fill="#ffea71"/>
        <path id="Path_2958" data-name="Path 2958" d="M185.8,79.935c-.271,2.3-3.405,3.671-7,3.054s-6.291-2.982-6.021-5.286,3.405-3.671,7-3.055,6.291,2.982,6.021,5.286" transform="translate(-29.097 -12.547)" fill="#ffea71"/>
        <path id="Path_2959" data-name="Path 2959" d="M200.551,91.347c-.33,2.292-3.5,3.54-7.077,2.788s-6.21-3.22-5.88-5.512,3.5-3.54,7.077-2.788,6.21,3.22,5.88,5.512" transform="translate(-31.59 -14.42)" fill="#ffea71"/>
        <path id="Path_2960" data-name="Path 2960" d="M236.263,94.648c6.635,0,12.537,1.717,16.306,4.382h4.3v6.9c0,6.231-9.227,11.281-20.609,11.281s-20.609-5.05-20.609-11.281v-6.9h4.3c3.77-2.664,9.671-4.382,16.306-4.382" transform="translate(-36.321 -15.941)" fill="#e39400" fill-rule="evenodd"/>
        <path id="Path_2961" data-name="Path 2961" d="M236.263,108.914c11.352,0,20.609-5.068,20.609-11.28s-9.257-11.281-20.609-11.281-20.609,5.068-20.609,11.281,9.258,11.28,20.609,11.28" transform="translate(-36.321 -14.543)" fill="#fc0" fill-rule="evenodd"/>
        <path id="Path_2962" data-name="Path 2962" d="M255.786,95.561a6.829,6.829,0,0,1,1.086,3.623,6.505,6.505,0,0,1-.486,2.444H216.14a6.506,6.506,0,0,1-.486-2.444,6.822,6.822,0,0,1,1.087-3.623Z" transform="translate(-36.321 -16.094)" fill="#ffe252" fill-rule="evenodd"/>
        <path id="Path_2963" data-name="Path 2963" d="M237.263,106.759c8.633,0,15.674-3.854,15.674-8.579S245.9,89.6,237.263,89.6s-15.673,3.853-15.673,8.579,7.041,8.579,15.673,8.579" transform="translate(-37.32 -15.091)" fill="#f5a40e" fill-rule="evenodd"/>
        <path id="Path_2964" data-name="Path 2964" d="M230.337,102.25l1.982.93,1.815-1.167a7.943,7.943,0,0,0,6.542-.659c3.336-2.145-2.2-4.586-.541-5.652a2.562,2.562,0,0,1,2.63-.009,2.132,2.132,0,0,1,1.355,1.607l2.98-.233a2.989,2.989,0,0,0-1.614-2.35l1.764-1.133-1.982-.931-1.8,1.156a7.713,7.713,0,0,0-6.338.619c-3.143,2.02,2.288,4.53.49,5.686a2.769,2.769,0,0,1-2.861,0,3.573,3.573,0,0,1-1.911-2.022l-3.037.5a4.718,4.718,0,0,0,2.27,2.54Z" transform="translate(-38.705 -15.605)" fill="#ffdd30" fill-rule="evenodd"/>
        <path id="Path_2965" data-name="Path 2965" d="M176.611,82.413c6.635,0,12.536,1.716,16.306,4.382h4.3v6.9c0,6.23-9.227,11.281-20.609,11.281S156,99.924,156,93.693V86.8h4.3c3.77-2.666,9.67-4.382,16.306-4.382" transform="translate(-26.274 -13.88)" fill="#e39400" fill-rule="evenodd"/>
        <path id="Path_2966" data-name="Path 2966" d="M176.611,96.679c11.351,0,20.609-5.068,20.609-11.28s-9.258-11.281-20.609-11.281S156,79.184,156,85.4s9.258,11.28,20.609,11.28" transform="translate(-26.274 -12.483)" fill="#fc0" fill-rule="evenodd"/>
        <path id="Path_2967" data-name="Path 2967" d="M196.133,83.324a6.827,6.827,0,0,1,1.087,3.624,6.513,6.513,0,0,1-.486,2.444H156.488A6.5,6.5,0,0,1,156,86.948a6.827,6.827,0,0,1,1.087-3.624Z" transform="translate(-26.274 -14.033)" fill="#ffe252" fill-rule="evenodd"/>
        <path id="Path_2968" data-name="Path 2968" d="M177.611,94.523c8.632,0,15.674-3.854,15.674-8.579s-7.042-8.579-15.674-8.579-15.673,3.854-15.673,8.579,7.04,8.579,15.673,8.579" transform="translate(-27.274 -13.03)" fill="#f5a40e" fill-rule="evenodd"/>
        <path id="Path_2969" data-name="Path 2969" d="M170.684,90.014l1.983.93,1.815-1.167a7.946,7.946,0,0,0,6.542-.659c3.335-2.144-2.2-4.585-.541-5.651a2.56,2.56,0,0,1,2.63-.009,2.129,2.129,0,0,1,1.355,1.607l2.979-.235a2.982,2.982,0,0,0-1.612-2.349l1.764-1.133-1.983-.931-1.8,1.156a7.711,7.711,0,0,0-6.337.619c-3.143,2.021,2.288,4.53.489,5.686a2.773,2.773,0,0,1-2.861,0,3.576,3.576,0,0,1-1.91-2.022l-3.037.5a4.715,4.715,0,0,0,2.27,2.54Z" transform="translate(-28.658 -13.544)" fill="#ffdd30" fill-rule="evenodd"/>
        <g id="Group_334" data-name="Group 334" transform="translate(102.453 72.787)" opacity="0.5">
          <g id="Group_333" data-name="Group 333">
            <g id="Group_332" data-name="Group 332" clip-path="url(#clip-path-6)">
              <path id="Path_2970" data-name="Path 2970" d="M164.876,104.039l-.581-6.873a6.328,6.328,0,0,0-.189-1.054c-.026-.1-.062-.195-.093-.293a6.552,6.552,0,0,0-.276-.739c-.043-.1-.091-.195-.14-.292a7.6,7.6,0,0,0-.432-.746c-.044-.067-.085-.136-.132-.2s-.08-.131-.126-.195l-.027,0c-3.135-4.194-11.07-6.747-20.071-5.986s-16.395,4.613-18.78,9.273l-.027,0c-.037.071-.06.145-.094.216s-.061.141-.092.212a7.72,7.72,0,0,0-.3.818c-.031.1-.061.2-.086.3a6.68,6.68,0,0,0-.15.78c-.013.1-.032.2-.042.3a6.3,6.3,0,0,0-.009,1.07l.582,6.873c.526,6.208,10.145,10.463,21.487,9.5s20.11-6.771,19.585-12.978" transform="translate(-123.203 -87.529)" fill="#161616" fill-rule="evenodd"/>
            </g>
          </g>
        </g>
        <path id="Path_2971" data-name="Path 2971" d="M140.639,93.952c6.635,0,12.536,1.716,16.306,4.382h4.3v6.9c0,6.23-9.227,11.281-20.609,11.281s-20.609-5.051-20.609-11.281v-6.9h4.3c3.77-2.666,9.67-4.382,16.306-4.382" transform="translate(-20.215 -15.823)" fill="#e39400" fill-rule="evenodd"/>
        <path id="Path_2972" data-name="Path 2972" d="M140.639,108.218c11.351,0,20.609-5.068,20.609-11.28s-9.258-11.281-20.609-11.281S120.03,90.723,120.03,96.937s9.258,11.28,20.609,11.28" transform="translate(-20.215 -14.426)" fill="#fc0" fill-rule="evenodd"/>
        <path id="Path_2973" data-name="Path 2973" d="M160.161,94.864a6.827,6.827,0,0,1,1.087,3.624,6.505,6.505,0,0,1-.486,2.443H120.516a6.49,6.49,0,0,1-.487-2.443,6.827,6.827,0,0,1,1.087-3.624Z" transform="translate(-20.215 -15.977)" fill="#ffe252" fill-rule="evenodd"/>
        <path id="Path_2974" data-name="Path 2974" d="M141.639,106.063c8.632,0,15.674-3.854,15.674-8.579S150.271,88.9,141.639,88.9s-15.673,3.854-15.673,8.579,7.04,8.579,15.673,8.579" transform="translate(-21.215 -14.973)" fill="#f5a40e" fill-rule="evenodd"/>
        <path id="Path_2975" data-name="Path 2975" d="M134.712,101.553l1.983.93,1.815-1.167a7.946,7.946,0,0,0,6.542-.659c3.335-2.144-2.2-4.585-.541-5.651A2.562,2.562,0,0,1,147.142,95,2.131,2.131,0,0,1,148.5,96.6l2.979-.235a2.985,2.985,0,0,0-1.613-2.349l1.764-1.133-1.983-.931-1.8,1.156a7.711,7.711,0,0,0-6.337.619c-3.143,2.021,2.287,4.53.488,5.686a2.773,2.773,0,0,1-2.861,0,3.578,3.578,0,0,1-1.91-2.022l-3.037.5a4.713,4.713,0,0,0,2.271,2.54Z" transform="translate(-22.6 -15.487)" fill="#ffdd30" fill-rule="evenodd"/>
        <g id="Group_337" data-name="Group 337" transform="translate(98.473 54.265)" opacity="0.5">
          <g id="Group_336" data-name="Group 336">
            <g id="Group_335" data-name="Group 335" clip-path="url(#clip-path-7)">
              <path id="Path_2976" data-name="Path 2976" d="M150.73,70.342l-5.675-3.921a6.238,6.238,0,0,0-.933-.524c-.093-.043-.19-.077-.285-.115a6.738,6.738,0,0,0-.746-.257c-.1-.028-.209-.053-.314-.077a7.625,7.625,0,0,0-.851-.141c-.08-.008-.159-.021-.24-.027s-.153-.022-.231-.026l-.016.022c-5.23-.245-12.246,4.255-17.381,11.687s-6.862,15.587-4.782,20.392l-.016.022c.032.073.073.138.107.21s.07.136.1.205a7.549,7.549,0,0,0,.438.755c.058.088.117.175.179.261a6.922,6.922,0,0,0,.507.61c.07.075.135.154.207.225a6.206,6.206,0,0,0,.821.687l5.676,3.922c5.125,3.541,14.526-1.179,21-10.544s7.559-19.827,2.433-23.369" transform="translate(-118.417 -65.255)" fill="#161616" fill-rule="evenodd"/>
            </g>
          </g>
        </g>
        <path id="Path_2977" data-name="Path 2977" d="M128.9,78c4.166-5.163,9.208-8.678,13.65-9.938l2.7-3.35,5.369,4.332c4.848,3.912,2.985,14.265-4.162,23.124s-16.872,12.867-21.721,8.955l-5.369-4.332,2.7-3.349c.292-4.608,2.662-10.278,6.828-15.442" transform="translate(-20.104 -10.898)" fill="#e39400" fill-rule="evenodd"/>
        <path id="Path_2978" data-name="Path 2978" d="M140.546,87.531c7.127-8.834,9-19.222,4.162-23.123s-14.593.121-21.721,8.955-9,19.222-4.162,23.124,14.593-.122,21.721-8.956" transform="translate(-19.56 -10.597)" fill="#fc0" fill-rule="evenodd"/>
        <path id="Path_2979" data-name="Path 2979" d="M141.315,62.991a6.825,6.825,0,0,1,3.5,1.429,6.5,6.5,0,0,1,1.6,1.913L121.144,97.655a6.483,6.483,0,0,1-2.208-1.156,6.818,6.818,0,0,1-2.138-3.121Z" transform="translate(-19.671 -10.609)" fill="#ffe252" fill-rule="evenodd"/>
        <path id="Path_2980" data-name="Path 2980" d="M139.2,86.685c5.42-6.718,6.843-14.618,3.166-17.585s-11.1.092-16.519,6.811S119,90.529,122.683,93.5s11.1-.092,16.518-6.811" transform="translate(-20.318 -11.447)" fill="#f5a40e" fill-rule="evenodd"/>
        <path id="Path_2981" data-name="Path 2981" d="M131.339,90.693l1.969-.96.231-2.145a7.944,7.944,0,0,0,3.595-5.505c.427-3.943-4.95-1.168-4.738-3.128a2.561,2.561,0,0,1,1.645-2.051,2.128,2.128,0,0,1,2.1-.046l1.689-2.466a2.985,2.985,0,0,0-2.841-.22l.225-2.084-1.969.959-.229,2.126a7.711,7.711,0,0,0-3.5,5.321c-.4,3.715,4.961,1.064,4.732,3.19a2.771,2.771,0,0,1-1.8,2.224,3.578,3.578,0,0,1-2.773.217l-1.52,2.675a4.706,4.706,0,0,0,3.4-.172Z" transform="translate(-21.585 -12.141)" fill="#ffdd30" fill-rule="evenodd"/>
        <g id="Group_340" data-name="Group 340" transform="translate(42.472 54.951)" opacity="0.5">
          <g id="Group_339" data-name="Group 339">
            <g id="Group_338" data-name="Group 338" clip-path="url(#clip-path-8)">
              <path id="Path_2982" data-name="Path 2982" d="M82.751,92.918l2.887-5.3a5.6,5.6,0,0,0,.372-.862c.029-.086.049-.174.075-.261a6.066,6.066,0,0,0,.158-.677c.016-.093.028-.188.04-.283a6.723,6.723,0,0,0,.05-.761c0-.072,0-.141,0-.214s.006-.136,0-.205l-.02-.012c-.222-4.63-4.655-10.471-11.443-14.43s-13.911-4.858-17.852-2.656L57,67.243c-.06.033-.112.075-.17.111s-.111.072-.168.108a6.583,6.583,0,0,0-.61.444c-.071.058-.141.117-.208.178a6,6,0,0,0-.481.494c-.057.067-.12.131-.175.2a5.5,5.5,0,0,0-.521.776l-2.887,5.3c-2.608,4.79,2.21,12.717,10.762,17.7s17.6,5.147,20.207.358" transform="translate(-51.074 -66.08)" fill="#161616" fill-rule="evenodd"/>
            </g>
          </g>
        </g>
        <path id="Path_2983" data-name="Path 2983" d="M74.736,74.34c4.765,3.278,8.191,7.454,9.636,11.275l3.091,2.126L84.2,92.8c-2.948,4.574-11.966,3.725-20.14-1.9S51.649,77.013,54.6,72.439l3.264-5.064L60.952,69.5c3.969-.095,9.019,1.561,13.784,4.839" transform="translate(-9.037 -11.347)" fill="#e39400" fill-rule="evenodd"/>
        <path id="Path_2984" data-name="Path 2984" d="M67.987,85.246c8.152,5.608,17.2,6.462,20.139,1.9S86.814,74.29,78.663,68.682s-17.2-6.462-20.14-1.9,1.311,12.856,9.463,18.464" transform="translate(-9.7 -10.753)" fill="#fc0" fill-rule="evenodd"/>
        <path id="Path_2985" data-name="Path 2985" d="M89.085,84.113a6.117,6.117,0,0,1-.935,3.2,5.588,5.588,0,0,1-1.505,1.553L57.742,68.98a5.661,5.661,0,0,1,3.3-4.159Z" transform="translate(-9.725 -10.917)" fill="#ffe252" fill-rule="evenodd"/>
        <path id="Path_2986" data-name="Path 2986" d="M70.028,83.9c6.2,4.265,13.08,4.915,15.316,1.446s-1-9.779-7.2-14.043-13.08-4.914-15.316-1.445,1,9.777,7.2,14.042" transform="translate(-10.463 -11.39)" fill="#f5a40e" fill-rule="evenodd"/>
        <path id="Path_2987" data-name="Path 2987" d="M67.31,77.224l.985,1.662,1.855.04a6.85,6.85,0,0,0,5.01,2.748c3.41.074.59-4.453,2.286-4.417a2.228,2.228,0,0,1,1.893,1.293,1.933,1.933,0,0,1,.213,1.849l2.25,1.3a2.706,2.706,0,0,0-.047-2.521l1.8.039-.984-1.662-1.839-.041a6.656,6.656,0,0,0-4.845-2.676c-3.213-.07-.5,4.456-2.339,4.416A2.41,2.41,0,0,1,71.5,77.839a3.253,3.253,0,0,1-.415-2.428l-2.417-1.136a4.294,4.294,0,0,0,.428,2.987Z" transform="translate(-11.336 -12.509)" fill="#ffdd30" fill-rule="evenodd"/>
        <g id="Group_343" data-name="Group 343" transform="translate(152.313 53.436)" opacity="0.5">
          <g id="Group_342" data-name="Group 342">
            <g id="Group_341" data-name="Group 341" clip-path="url(#clip-path-9)">
              <path id="Path_2988" data-name="Path 2988" d="M216.306,72.595l-2.73-4.981a5.177,5.177,0,0,0-.493-.73c-.052-.066-.111-.126-.168-.19a5.426,5.426,0,0,0-.454-.464c-.066-.059-.134-.116-.2-.173a5.956,5.956,0,0,0-.574-.417c-.056-.036-.11-.074-.167-.108s-.1-.072-.16-.1l-.019.011c-3.76-2.111-10.585-1.388-17.108,2.187s-10.806,8.94-11.048,13.245l-.02.012c0,.066,0,.128,0,.194s0,.126,0,.19a6.2,6.2,0,0,0,.043.718c.01.086.022.172.036.258a5.625,5.625,0,0,0,.148.637c.023.081.042.162.069.241a5.222,5.222,0,0,0,.35.809l2.731,4.981c2.466,4.5,11.127,4.494,19.347-.011s12.883-11.8,10.417-16.3" transform="translate(-183.161 -64.259)" fill="#161616" fill-rule="evenodd"/>
            </g>
          </g>
        </g>
        <path id="Path_2989" data-name="Path 2989" d="M197.288,70.621c4.973-2.263,9.981-2.99,13.716-2.277l3.226-1.468,2.353,5.17c2.125,4.669-3.068,11.6-11.6,15.485s-17.17,3.243-19.294-1.426l-2.353-5.17,3.226-1.468c1.916-3.284,5.754-6.584,10.727-8.846" transform="translate(-30.878 -11.263)" fill="#e39400" fill-rule="evenodd"/>
        <path id="Path_2990" data-name="Path 2990" d="M202.535,81.558c8.507-3.872,13.718-10.828,11.6-15.484s-10.786-5.3-19.294-1.426-13.719,10.827-11.6,15.485,10.786,5.3,19.294,1.425" transform="translate(-30.782 -10.462)" fill="#fc0" fill-rule="evenodd"/>
        <path id="Path_2991" data-name="Path 2991" d="M212.082,64.055a5.62,5.62,0,0,1,2.051,2.346,5.354,5.354,0,0,1,.469,2L184.438,82.124a5.345,5.345,0,0,1-1.2-1.665,5.621,5.621,0,0,1-.422-3.087Z" transform="translate(-30.781 -10.788)" fill="#ffe252" fill-rule="evenodd"/>
        <path id="Path_2992" data-name="Path 2992" d="M202.386,80.066c6.47-2.945,10.433-8.234,8.821-11.775s-8.2-4.029-14.674-1.085-10.432,8.235-8.82,11.777,8.2,4.028,14.672,1.084" transform="translate(-31.554 -10.995)" fill="#f5a40e" fill-rule="evenodd"/>
        <path id="Path_2993" data-name="Path 2993" d="M195.546,79.454l1.8.021.962-1.494a6.542,6.542,0,0,0,4.678-2.725c1.769-2.744-3.213-2.686-2.333-4.051a2.109,2.109,0,0,1,1.968-.9,1.752,1.752,0,0,1,1.564.742l2.152-1.192a2.455,2.455,0,0,0-2.01-1.21l.936-1.451-1.8-.022-.954,1.48a6.352,6.352,0,0,0-4.539,2.626c-1.666,2.586,3.259,2.614,2.306,4.095a2.283,2.283,0,0,1-2.145.974,2.944,2.944,0,0,1-2.122-.865L193.9,76.887a3.884,3.884,0,0,0,2.569,1.13Z" transform="translate(-32.657 -11.312)" fill="#ffdd30" fill-rule="evenodd"/>
        <g id="Group_346" data-name="Group 346" transform="translate(198.462 34.506)" opacity="0.5">
          <g id="Group_345" data-name="Group 345">
            <g id="Group_344" data-name="Group 344" clip-path="url(#clip-path-10)">
              <path id="Path_2994" data-name="Path 2994" d="M264.009,45.485l-4.452-3.076a4.95,4.95,0,0,0-.732-.412c-.073-.033-.149-.059-.224-.09a5.225,5.225,0,0,0-.585-.2c-.082-.022-.164-.042-.246-.061a6.013,6.013,0,0,0-.668-.111c-.063-.007-.125-.016-.188-.021s-.12-.017-.181-.02l-.012.017c-4.1-.193-9.607,3.338-13.636,9.169s-5.384,12.229-3.751,16l-.012.017c.025.057.057.108.084.165s.056.107.083.161a6.1,6.1,0,0,0,.343.593c.046.069.093.137.141.2a5.253,5.253,0,0,0,.4.479c.055.058.106.121.162.176a5,5,0,0,0,.644.539l4.453,3.076c4.021,2.778,11.4-.925,16.472-8.272s5.931-15.556,1.909-18.334" transform="translate(-238.657 -41.494)" fill="#161616" fill-rule="evenodd"/>
            </g>
          </g>
        </g>
        <path id="Path_2995" data-name="Path 2995" d="M246.882,51.491c3.269-4.051,7.224-6.809,10.709-7.8l2.12-2.628,4.212,3.4c3.8,3.069,2.343,11.192-3.265,18.142s-13.237,10.1-17.042,7.026l-4.212-3.4,2.12-2.628c.23-3.616,2.088-8.064,5.357-12.115" transform="translate(-40.321 -6.916)" fill="#e39400" fill-rule="evenodd"/>
        <path id="Path_2996" data-name="Path 2996" d="M256.019,58.97c5.592-6.93,7.058-15.081,3.266-18.141s-11.449.1-17.042,7.026S235.183,62.935,238.978,66s11.448-.095,17.041-7.026" transform="translate(-39.894 -6.679)" fill="#fc0" fill-rule="evenodd"/>
        <path id="Path_2997" data-name="Path 2997" d="M256.622,39.717a5.355,5.355,0,0,1,2.748,1.122,5.1,5.1,0,0,1,1.252,1.5L240.8,66.913a5.111,5.111,0,0,1-1.732-.906,5.36,5.36,0,0,1-1.677-2.449Z" transform="translate(-39.981 -6.689)" fill="#ffe252" fill-rule="evenodd"/>
        <path id="Path_2998" data-name="Path 2998" d="M254.963,58.306c4.253-5.271,5.369-11.468,2.484-13.8s-8.708.072-12.96,5.343-5.368,11.468-2.483,13.8,8.707-.072,12.959-5.344" transform="translate(-40.488 -7.347)" fill="#f5a40e" fill-rule="evenodd"/>
        <path id="Path_2999" data-name="Path 2999" d="M248.795,61.451l1.545-.753.181-1.683a6.235,6.235,0,0,0,2.821-4.32c.334-3.093-3.884-.915-3.718-2.453a2.01,2.01,0,0,1,1.291-1.61,1.672,1.672,0,0,1,1.649-.037l1.325-1.933a2.342,2.342,0,0,0-2.229-.173l.177-1.635-1.545.753-.18,1.667a6.05,6.05,0,0,0-2.744,4.175c-.314,2.915,3.893.835,3.713,2.5a2.175,2.175,0,0,1-1.41,1.745,2.807,2.807,0,0,1-2.176.17l-1.193,2.1a3.693,3.693,0,0,0,2.669-.135Z" transform="translate(-41.482 -7.891)" fill="#ffdd30" fill-rule="evenodd"/>
        <path id="Path_3000" data-name="Path 3000" d="M51.575,89.208c5.775,3.266,10.066,7.665,12.035,11.843l3.745,2.119-3.4,6c-3.067,5.423-13.586,5.276-23.492-.327S25.015,94.3,28.083,88.88l3.4-6,3.745,2.119c4.594-.465,10.575.946,16.351,4.213" transform="translate(-4.587 -13.958)" fill="#e39400" fill-rule="evenodd"/>
        <path id="Path_3001" data-name="Path 3001" d="M44.553,102.038c9.88,5.588,20.434,5.735,23.492.328S65.54,87.988,55.66,82.4s-20.433-5.736-23.492-.328,2.5,14.377,12.385,19.965" transform="translate(-5.276 -13.155)" fill="#fc0" fill-rule="evenodd"/>
        <path id="Path_3002" data-name="Path 3002" d="M68.9,98.948a6.828,6.828,0,0,1-.838,3.69,6.492,6.492,0,0,1-1.627,1.887L31.4,84.711a6.48,6.48,0,0,1,.779-2.367,6.819,6.819,0,0,1,2.73-2.619Z" transform="translate(-5.289 -13.427)" fill="#ffe252" fill-rule="evenodd"/>
        <path id="Path_3003" data-name="Path 3003" d="M46.794,100.371c7.513,4.25,15.54,4.362,17.866.249s-1.905-10.934-9.418-15.184-15.54-4.362-17.866-.249,1.9,10.933,9.418,15.183" transform="translate(-6.187 -13.84)" fill="#f5a40e" fill-rule="evenodd"/>
        <path id="Path_3004" data-name="Path 3004" d="M43.105,93.174l1.268,1.785,2.155-.121a7.944,7.944,0,0,0,6.019,2.647c3.959-.225.343-5.074,2.312-5.186a2.558,2.558,0,0,1,2.293,1.287,2.128,2.128,0,0,1,.389,2.066l2.708,1.262A2.979,2.979,0,0,0,60,94.076l2.093-.118-1.267-1.786-2.135.121a7.711,7.711,0,0,0-5.821-2.581c-3.731.211-.239,5.068-2.374,5.19a2.772,2.772,0,0,1-2.488-1.41,3.578,3.578,0,0,1-.668-2.7l-2.888-1.063a4.716,4.716,0,0,0,.726,3.33Z" transform="translate(-7.26 -15.108)" fill="#ffdd30" fill-rule="evenodd"/>
        <path id="Path_3005" data-name="Path 3005" d="M176.476,55.689,242.62,84.27a1.035,1.035,0,0,1,.54,1.362L234.836,104.9a1.036,1.036,0,0,1-1.362.54L167.33,76.854a1.037,1.037,0,0,1-.54-1.362l8.323-19.263a1.037,1.037,0,0,1,1.362-.541" transform="translate(-28.077 -9.365)" fill="#83c391"/>
        <path id="Path_3006" data-name="Path 3006" d="M235.2,104.549a.617.617,0,0,1-.809.321L168.248,76.289a.615.615,0,0,1-.32-.808l8.323-19.263a.615.615,0,0,1,.808-.321L243.2,84.478a.615.615,0,0,1,.321.808Z" transform="translate(-28.274 -9.406)" fill="#7ab987"/>
        <rect id="Rectangle_285" data-name="Rectangle 285" width="23.056" height="2.18" transform="matrix(0.397, -0.918, 0.918, 0.397, 198.375, 93.035)" fill="#f7d280"/>
        <rect id="Rectangle_286" data-name="Rectangle 286" width="23.056" height="2.182" transform="matrix(0.397, -0.918, 0.918, 0.397, 183.245, 86.497)" fill="#f7d280"/>
        <rect id="Rectangle_287" data-name="Rectangle 287" width="9.901" height="33.422" transform="translate(147.59 63.926) rotate(-66.633)" fill="#83c391"/>
        <path id="Path_3007" data-name="Path 3007" d="M132.811,104.415H201.26a.936.936,0,0,0,.936-.936V89.257a.936.936,0,0,0-.936-.936H132.811a.937.937,0,0,0-.937.936v14.222a.937.937,0,0,0,.937.936" transform="translate(-22.21 -14.875)" fill="#aaaacb"/>
        <path id="Rectangle_288" data-name="Rectangle 288" d="M.669,0H68.894a.668.668,0,0,1,.668.668v14a.669.669,0,0,1-.669.669H.669A.669.669,0,0,1,0,14.664v-14A.669.669,0,0,1,.669,0Z" transform="translate(110.425 74.207)" fill="#a1a1c1"/>
        <rect id="Rectangle_289" data-name="Rectangle 289" width="33.535" height="4.204" transform="translate(116.237 79.392)" fill="#aaaacb"/>
        <rect id="Rectangle_290" data-name="Rectangle 290" width="21.272" height="16.094" transform="translate(157.519 73.446)" fill="#f4b7b8"/>
        <path id="Path_3008" data-name="Path 3008" d="M98.627,73.421,46.653,93.7a.936.936,0,0,1-1.212-.532L41.8,83.835a.937.937,0,0,1,.532-1.213L94.308,62.348a.937.937,0,0,1,1.212.532l3.639,9.329a.937.937,0,0,1-.532,1.212" transform="translate(-7.029 -10.49)" fill="#e6816c"/>
        <path id="Path_3009" data-name="Path 3009" d="M41.973,84.366a.557.557,0,0,1,.316-.72L94.263,63.372a.557.557,0,0,1,.72.316l3.639,9.329a.556.556,0,0,1-.316.719L46.332,94.01a.556.556,0,0,1-.72-.316Z" transform="translate(-7.063 -10.667)" fill="#dc7863"/>
        <rect id="Rectangle_291" data-name="Rectangle 291" width="19.72" height="2.8" transform="matrix(0.932, -0.363, 0.363, 0.932, 41.074, 77.05)" fill="#cf6b56"/>
        <rect id="Rectangle_292" data-name="Rectangle 292" width="14.364" height="1.826" transform="translate(39.589 73.577) rotate(-21.307)" fill="#cf6b56"/>
        <path id="Path_3010" data-name="Path 3010" d="M106.118,90.968,53.7,111.416a1.036,1.036,0,0,1-1.341-.589L47.038,97.2a1.037,1.037,0,0,1,.589-1.342L100.049,75.41a1.037,1.037,0,0,1,1.342.589l5.315,13.627a1.037,1.037,0,0,1-.589,1.342" transform="translate(-7.91 -12.689)" fill="#96b9b9"/>
        <path id="Path_3011" data-name="Path 3011" d="M47.227,97.788a.616.616,0,0,1,.35-.8L100,76.542a.617.617,0,0,1,.8.35l5.315,13.627a.617.617,0,0,1-.349.8L53.34,111.765a.617.617,0,0,1-.8-.349Z" transform="translate(-7.947 -12.884)" fill="#87abac"/>
        <path id="Path_3012" data-name="Path 3012" d="M99.648,84.029,82.414,90.751,85.32,98.2l.443-.173,16.79-6.55Zm-.541,1.232,2.214,5.678L85.861,96.969l-2.214-5.678Z" transform="translate(-13.88 -14.152)" fill="#749898"/>
        <rect id="Rectangle_293" data-name="Rectangle 293" width="16.528" height="2.755" transform="translate(46.047 88.459) rotate(-21.313)" fill="#749898"/>
        <g id="Group_349" data-name="Group 349" transform="translate(62.547 76.397)" opacity="0.5">
          <g id="Group_348" data-name="Group 348">
            <g id="Group_347" data-name="Group 347" clip-path="url(#clip-path-11)">
              <path id="Path_3013" data-name="Path 3013" d="M116.294,103.194l-2.741-6.33a6.323,6.323,0,0,0-.514-.938c-.057-.086-.121-.165-.182-.249a6.691,6.691,0,0,0-.5-.612c-.072-.079-.148-.156-.225-.232a7.644,7.644,0,0,0-.648-.57c-.063-.049-.124-.1-.19-.149s-.117-.1-.182-.145l-.025.011c-4.308-2.975-12.643-2.868-20.933.722s-14.07,9.6-14.846,14.774l-.026.011c-.012.079-.011.155-.02.234s-.012.154-.02.23a7.5,7.5,0,0,0-.027.872c0,.106.007.211.014.316a6.654,6.654,0,0,0,.107.787c.019.1.032.2.057.3a6.241,6.241,0,0,0,.333,1.017l2.742,6.33c2.476,5.717,12.95,6.685,23.395,2.162s16.9-12.825,14.429-18.543" transform="translate(-75.215 -91.87)" fill="#161616" fill-rule="evenodd"/>
            </g>
          </g>
        </g>
        <path id="Path_3014" data-name="Path 3014" d="M89.986,97.68c6.366-1.871,12.511-1.889,16.879-.4l4.13-1.213,1.945,6.618c1.757,5.977-5.671,13.426-16.59,16.637s-21.2.966-22.955-5.01L71.449,107.7l4.13-1.213c2.864-3.622,8.041-6.932,14.407-8.8" transform="translate(-12.033 -16.18)" fill="#e39400" fill-rule="evenodd"/>
        <path id="Path_3015" data-name="Path 3015" d="M94.351,111.4c10.89-3.2,18.343-10.675,16.591-16.636s-12.065-8.212-22.955-5.01S69.644,100.426,71.4,106.387,83.461,114.6,94.351,111.4" transform="translate(-11.982 -14.87)" fill="#fc0" fill-rule="evenodd"/>
        <path id="Path_3016" data-name="Path 3016" d="M108.877,92.259a6.829,6.829,0,0,1,2.065,3.17,6.514,6.514,0,0,1,.223,2.482L72.554,109.262a6.489,6.489,0,0,1-1.157-2.207,6.825,6.825,0,0,1,.021-3.784Z" transform="translate(-11.981 -15.538)" fill="#ffe252" fill-rule="evenodd"/>
        <path id="Path_3017" data-name="Path 3017" d="M94.561,109.4c8.282-2.435,13.95-8.118,12.618-12.651S98,90.5,89.721,92.939,75.772,101.057,77.1,105.591s9.174,6.244,17.457,3.809" transform="translate(-12.953 -15.466)" fill="#f5a40e" fill-rule="evenodd"/>
        <path id="Path_3018" data-name="Path 3018" d="M86.532,107.264l2.165.333,1.413-1.631a7.942,7.942,0,0,0,6.09-2.479c2.6-3-3.4-3.778-2.113-5.269a2.56,2.56,0,0,1,2.52-.75,2.129,2.129,0,0,1,1.753,1.159l2.792-1.064a2.98,2.98,0,0,0-2.21-1.8l1.372-1.586-2.165-.333-1.4,1.617a7.715,7.715,0,0,0-5.906,2.382c-2.446,2.825,3.473,3.7,2.073,5.317a2.774,2.774,0,0,1-2.745.8,3.579,3.579,0,0,1-2.4-1.4L85,103.9a4.711,4.711,0,0,0,2.895,1.8Z" transform="translate(-14.315 -15.806)" fill="#ffdd30" fill-rule="evenodd"/>
        <g id="Group_352" data-name="Group 352" transform="translate(156.359 70.56)" opacity="0.5">
          <g id="Group_351" data-name="Group 351">
            <g id="Group_350" data-name="Group 350" clip-path="url(#clip-path-12)">
              <path id="Path_3019" data-name="Path 3019" d="M221.953,90.656l-5.369-4.332a6.319,6.319,0,0,0-.891-.592c-.09-.049-.185-.09-.276-.136a6.744,6.744,0,0,0-.725-.311c-.1-.036-.2-.069-.308-.1a7.361,7.361,0,0,0-.837-.2c-.08-.015-.157-.032-.238-.045s-.15-.032-.228-.042l-.017.021c-5.2-.633-12.528,3.334-18.2,10.365s-8,15.034-6.283,19.98l-.017.022c.027.075.063.143.091.217s.06.142.09.213a7.611,7.611,0,0,0,.38.786c.052.092.1.184.16.273a6.679,6.679,0,0,0,.461.647c.064.08.123.163.19.239a6.315,6.315,0,0,0,.767.746l5.369,4.332c4.849,3.912,14.574-.1,21.722-8.955s9.01-19.212,4.161-23.124" transform="translate(-188.027 -84.85)" fill="#161616" fill-rule="evenodd"/>
            </g>
          </g>
        </g>
        <path id="Path_3020" data-name="Path 3020" d="M195.647,92.046c6.024-3.78,12.361-5.585,17.3-5.312l3.908-2.453,3.931,6.265c3.55,5.657-1.951,15.5-12.286,21.988s-21.594,7.157-25.144,1.5l-3.931-6.264,3.908-2.452c1.9-4.569,6.284-9.49,12.31-13.271" transform="translate(-30.22 -14.195)" fill="#e39400" fill-rule="evenodd"/>
        <path id="Path_3021" data-name="Path 3021" d="M204.356,105.494c10.307-6.468,15.827-16.346,12.287-21.988s-14.836-4.968-25.143,1.5-15.827,16.346-12.287,21.989,14.835,4.968,25.143-1.5" transform="translate(-30.003 -13.419)" fill="#fc0" fill-rule="evenodd"/>
        <path id="Path_3022" data-name="Path 3022" d="M213.588,81.07a7.311,7.311,0,0,1,3.052,2.671,6.936,6.936,0,0,1,.95,2.5l-36.545,22.933a6.967,6.967,0,0,1-1.834-1.942,7.326,7.326,0,0,1-1.079-3.909Z" transform="translate(-30.001 -13.654)" fill="#ffe252" fill-rule="evenodd"/>
        <path id="Path_3023" data-name="Path 3023" d="M203.775,103.795c7.838-4.919,12.036-12.43,9.344-16.721S201.836,83.3,194,88.215s-12.037,12.431-9.344,16.722,11.281,3.778,19.121-1.142" transform="translate(-30.962 -14.175)" fill="#f5a40e" fill-rule="evenodd"/>
        <path id="Path_3024" data-name="Path 3024" d="M194.775,104.437l2.33-.285.985-2.1a8.513,8.513,0,0,0,5.565-4.326c1.807-3.848-4.611-2.91-3.711-4.823a2.743,2.743,0,0,1,2.382-1.507,2.282,2.282,0,0,1,2.145.686l2.572-1.91a3.2,3.2,0,0,0-2.8-1.213l.956-2.034-2.33.285-.975,2.074a8.266,8.266,0,0,0-5.4,4.175c-1.7,3.626,4.659,2.808,3.684,4.884a2.967,2.967,0,0,1-2.6,1.627,3.835,3.835,0,0,1-2.886-.747l-2.475,2.182a5.052,5.052,0,0,0,3.509,1.013Z" transform="translate(-32.372 -14.641)" fill="#ffdd30" fill-rule="evenodd"/>
        <path id="Path_3025" data-name="Path 3025" d="M17.961,78.908c0-6.712,4.166-12.154,9.305-12.154-5.139,0-9.305-5.442-9.305-12.154,0,6.713-4.166,12.154-9.305,12.154,5.139,0,9.305,5.441,9.305,12.154" transform="translate(-1.458 -9.196)" fill="#ffe266"/>
        <path id="Path_3026" data-name="Path 3026" d="M6.61,50.4c-.139-4.586,2.595-8.391,6.106-8.5-3.512.106-6.471-3.525-6.61-8.111.139,4.586-2.595,8.391-6.106,8.5,3.512-.106,6.471,3.525,6.61,8.111" transform="translate(0 -5.691)" fill="#ffe266"/>
        <path id="Path_3027" data-name="Path 3027" d="M302.267,46.507c0,5.651-3.507,10.231-7.833,10.231,4.327,0,7.833,4.581,7.833,10.231,0-5.65,3.508-10.231,7.834-10.231-4.327,0-7.834-4.58-7.834-10.231" transform="translate(-49.589 -7.833)" fill="#ffe266"/>
      </g>
    </g>
    <g id="Group_356" data-name="Group 356">
      <g id="Group_355" data-name="Group 355" clip-path="url(#clip-path)">
        <path id="Path_3028" data-name="Path 3028" d="M223.623,239.932H40.288a9.512,9.512,0,0,1-9.453-8.3L20.242,117.724c-.527-5.666-1.1-10.295,4.279-10.295H239.552c5.382,0,4.641,4.633,4.115,10.3L233.072,231.633a9.51,9.51,0,0,1-9.452,8.3" transform="translate(-3.354 -18.093)" fill="#ffe266"/>
        <path id="Path_3029" data-name="Path 3029" d="M46.532,226.07,38.87,131.3a4.663,4.663,0,0,1,4.051-5.2,4.5,4.5,0,0,1,.529-.036H226.828a4.663,4.663,0,0,1,4.617,4.708,4.717,4.717,0,0,1-.036.531l-7.663,94.772a4.95,4.95,0,0,1-4.923,4.4H51.455a4.95,4.95,0,0,1-4.923-4.4" transform="translate(-6.54 -21.231)" fill="#175653"/>
        <path id="Path_3030" data-name="Path 3030" d="M43.352,137.468,50.2,225.283a3.9,3.9,0,0,0,3.877,3.482H217.712a3.9,3.9,0,0,0,3.876-3.482l6.853-87.815a3.654,3.654,0,0,0-3.192-4.063,3.7,3.7,0,0,0-.407-.026H46.952a3.655,3.655,0,0,0-3.6,4.089" transform="translate(-7.297 -22.464)" fill="#308482"/>
        <path id="Path_3031" data-name="Path 3031" d="M42.5,160.985l-.269-3.366H229.554l-.27,3.366Z" transform="translate(-7.113 -26.546)" fill="#175653"/>
        <path id="Path_3032" data-name="Path 3032" d="M45.17,194.349l-.256-3.207H227.77l-.257,3.207Z" transform="translate(-7.564 -32.192)" fill="#175653"/>
        <path id="Path_3033" data-name="Path 3033" d="M47.712,226.164l-.244-3.06h178.6l-.249,3.06Z" transform="translate(-7.995 -37.575)" fill="#175653"/>
        <path id="Path_3034" data-name="Path 3034" d="M257.911,234.255h.065l-1.1,13.708H242.362c.7-7.562,7.587-13.709,15.551-13.709" transform="translate(-40.819 -39.453)" fill="#308482"/>
        <path id="Path_3035" data-name="Path 3035" d="M47.884,234.255h-.065l1.1,13.708H63.435c-.705-7.562-7.591-13.709-15.551-13.709" transform="translate(-8.054 -39.453)" fill="#308482"/>
        <path id="Path_3036" data-name="Path 3036" d="M261.051,236.6h.069l-1.195,14.45H244.6c.757-7.968,8.044-14.452,16.456-14.452" transform="translate(-41.195 -39.847)" fill="#ffe266"/>
        <path id="Path_3037" data-name="Path 3037" d="M44.891,236.6h-.069l1.195,14.45H61.346c-.756-7.968-8.044-14.452-16.456-14.452" transform="translate(-7.549 -39.847)" fill="#ffe266"/>
        <path id="Path_3038" data-name="Path 3038" d="M33.72,118.222a3.138,3.138,0,0,1-2.694,3.527,3.1,3.1,0,0,1-.373.027,3.855,3.855,0,0,1-3.675-3.554,3.138,3.138,0,0,1,2.67-3.545,2.988,2.988,0,0,1,.4-.031,3.855,3.855,0,0,1,3.676,3.576" transform="translate(-4.539 -19.309)" fill="#f2ad22"/>
        <path id="Path_3039" data-name="Path 3039" d="M280.719,118.222a3.856,3.856,0,0,1-3.675,3.554,3.138,3.138,0,0,1-3.094-3.182,3.1,3.1,0,0,1,.027-.373,3.853,3.853,0,0,1,3.676-3.576,3.142,3.142,0,0,1,3.066,3.576" transform="translate(-46.139 -19.309)" fill="#f2ad22"/>
        <path id="Path_3040" data-name="Path 3040" d="M51.991,250.042a3.189,3.189,0,0,1-3.3,3.424,3.869,3.869,0,0,1-3.849-3.424,3.188,3.188,0,0,1,2.916-3.438,3.239,3.239,0,0,1,.381-.008,3.867,3.867,0,0,1,3.851,3.446" transform="translate(-7.551 -41.531)" fill="#f2ad22"/>
        <path id="Path_3041" data-name="Path 3041" d="M263.616,250.927a3.87,3.87,0,0,1-3.849,3.419,3.184,3.184,0,0,1-3.3-3.419,3.867,3.867,0,0,1,3.85-3.44,3.182,3.182,0,0,1,3.3,3.058,3.093,3.093,0,0,1-.008.383" transform="translate(-43.194 -41.681)" fill="#f2ad22"/>
        <path id="Path_3042" data-name="Path 3042" d="M161.1,155.838h-21.7a10.835,10.835,0,0,1-10.62-10.8l-.267-14.667H171.98l-.267,14.667a10.834,10.834,0,0,1-10.618,10.8" transform="translate(-21.643 -21.958)" fill="#308482"/>
        <path id="Path_3043" data-name="Path 3043" d="M160.4,147.675H141.381a8.882,8.882,0,0,1-8.7-8.887l-.322-20.837a8.948,8.948,0,0,1,8.7-9.347h19.657a8.949,8.949,0,0,1,8.7,9.347l-.321,20.837a8.883,8.883,0,0,1-8.7,8.887" transform="translate(-22.292 -18.291)" fill="#ffe266"/>
        <path id="Path_3044" data-name="Path 3044" d="M158.868,128.425a5.3,5.3,0,0,0-10.587-.579,5.172,5.172,0,0,0,0,.579,5.626,5.626,0,0,0,2.4,4.625l.018,7.817a2.288,2.288,0,0,0,2.245,2.328h1.267a2.288,2.288,0,0,0,2.245-2.328l.018-7.817a5.625,5.625,0,0,0,2.4-4.625" transform="translate(-24.972 -20.688)" fill="#fff7ae"/>
        <path id="Path_3045" data-name="Path 3045" d="M158.651,126.836a5.032,5.032,0,1,1-5.025-5.3,5.156,5.156,0,0,1,5.026,5.282v.022" transform="translate(-25.026 -20.468)" fill="#684e46"/>
        <path id="Path_3046" data-name="Path 3046" d="M154.687,142.028h-1.206a2.172,2.172,0,0,1-2.128-2.209l-.027-11.355h5.513l-.027,11.355a2.171,2.171,0,0,1-2.127,2.209" transform="translate(-25.487 -21.636)" fill="#684e46"/>
        <path id="Path_3047" data-name="Path 3047" d="M108.163,111.3h-79.9a1.383,1.383,0,0,1-.068-2.765h79.969a1.383,1.383,0,0,1,.068,2.765h-.068" transform="translate(-4.521 -18.279)" fill="#fff7ae"/>
        <path id="Path_3048" data-name="Path 3048" d="M264.22,111.3H184.472a1.383,1.383,0,0,1,0-2.765H264.22a1.383,1.383,0,0,1,0,2.765" transform="translate(-30.842 -18.279)" fill="#fff7ae"/>
        <path id="Path_3049" data-name="Path 3049" d="M128.151,111.449a3.96,3.96,0,0,1,3.888-4.032H134.9a3.3,3.3,0,0,0-3.268,3.2l-.035,1.131.173,11.184h-3.409Z" transform="translate(-21.583 -18.091)" fill="#f2ad22"/>
        <path id="Path_3050" data-name="Path 3050" d="M173.276,107.417h2.589a3.96,3.96,0,0,1,3.96,3.958c0,.025,0,.049,0,.074l-.209,11.461h-3.4l.177-11.492-.015-.861a3.2,3.2,0,0,0-3.1-3.141" transform="translate(-29.183 -18.091)" fill="#f2ad22"/>
        <path id="Path_3051" data-name="Path 3051" d="M166.743,110.29H135.421a1.386,1.386,0,0,1,0-2.765h31.322a1.334,1.334,0,0,1,1.281,1.383s-.055,1.383-1.281,1.383" transform="translate(-22.591 -18.109)" fill="#fff7ae"/>
      </g>
    </g>
  </g>
</svg>
