<svg xmlns="http://www.w3.org/2000/svg" xmlns:xlink="http://www.w3.org/1999/xlink" width="23.078" height="25.594" viewBox="0 0 23.078 25.594">
  <defs>
    <clipPath id="clip-path">
      <rect id="Rectangle_556" data-name="Rectangle 556" width="23.078" height="25.594" transform="translate(0 0)" fill="none"/>
    </clipPath>
  </defs>
  <g id="q" transform="translate(0 0)">
    <g id="Group_751" data-name="Group 751" clip-path="url(#clip-path)">
      <path id="Path_5408" data-name="Path 5408" d="M19.375,20.39a15.072,15.072,0,0,0,3.7,1.938l-1.7,3.265a10.543,10.543,0,0,1-2.047-.859q-.219-.109-3.078-2.031a12.311,12.311,0,0,1-4.985.984q-5.282,0-8.273-3.109T0,11.844q0-5.61,3-8.727A10.768,10.768,0,0,1,11.14,0a10.66,10.66,0,0,1,8.079,3.117Q22.2,6.234,22.2,11.844a15.073,15.073,0,0,1-.828,5.218,10.849,10.849,0,0,1-2,3.328m-3.719-2.609a6.9,6.9,0,0,0,1.336-2.531,11.867,11.867,0,0,0,.445-3.406q0-3.969-1.75-5.93a5.847,5.847,0,0,0-4.578-1.961A5.856,5.856,0,0,0,6.523,5.922Q4.765,7.89,4.765,11.844q0,4.016,1.758,6.007a5.674,5.674,0,0,0,4.446,1.993,5.42,5.42,0,0,0,1.89-.329A13.394,13.394,0,0,0,10,18.078l1.3-2.641a15.777,15.777,0,0,1,4.359,2.344" fill="#00a69c"/>
    </g>
  </g>
</svg>
