<svg id="qa-icon" xmlns="http://www.w3.org/2000/svg" xmlns:xlink="http://www.w3.org/1999/xlink" width="35" height="35" viewBox="0 0 35 35">
  <defs>
    <clipPath id="clip-path">
      <rect id="Rectangle_64" data-name="Rectangle 64" width="35" height="35" fill="none"/>
    </clipPath>
    <clipPath id="clip-path-3">
      <rect id="Rectangle_61" data-name="Rectangle 61" width="34.636" height="34.641" fill="none"/>
    </clipPath>
  </defs>
  <g id="Group_84" data-name="Group 84" clip-path="url(#clip-path)">
    <g id="Group_83" data-name="Group 83" transform="translate(0 0)">
      <g id="Group_82" data-name="Group 82" clip-path="url(#clip-path)">
        <g id="Group_78" data-name="Group 78" transform="translate(0.176 0.189)" opacity="0.8">
          <g id="Group_77" data-name="Group 77">
            <g id="Group_76" data-name="Group 76" clip-path="url(#clip-path-3)">
              <path id="Path_1137" data-name="Path 1137" d="M7.093,4.115l4.044-2.335L4.268,6.9,14.942.734,2.484,9.627,18.205.551,1.684,11.385,20.129.735.984,13.618,22.416,1.245.626,15.771,24.461,2.009.538,17.785,26.249,2.941.617,19.195,27.436,3.712.884,20.965,28.831,4.83l-27.451,18L30.2,6.2,1.811,24.01,31,7.157,2.251,24.984,31.629,8.023l-28.9,17.86,29.445-17L3.38,26.952,32.769,9.984,4.157,28.025,33.308,11.2,5,29.015,33.746,12.42,5.881,29.908l28.2-16.282L6.821,30.735l27.5-15.876L8.473,31.921,34.516,16.885,9.812,32.68l24.7-14.259-23.293,14.9,23.139-13.36L13.173,33.965l20.769-11.99L15.281,34.383,33.256,24,17.593,34.534l14.631-8.447-9.933,7.772,6.962-4.018" transform="translate(-0.209 -0.222)" fill="none" stroke="#f68b85" stroke-linecap="round" stroke-linejoin="round" stroke-width="0.7"/>
            </g>
          </g>
        </g>
        <g id="Group_81" data-name="Group 81" transform="translate(0 0)" opacity="0.8">
          <g id="Group_80" data-name="Group 80">
            <g id="Group_79" data-name="Group 79" clip-path="url(#clip-path)">
              <circle id="Ellipse_2" data-name="Ellipse 2" cx="17.031" cy="17.031" r="17.031" transform="translate(0.469 0.469)" fill="none" stroke="#f68b85" stroke-width="1"/>
            </g>
          </g>
        </g>
      </g>
    </g>
  </g>
</svg>
