<svg xmlns="http://www.w3.org/2000/svg" xmlns:xlink="http://www.w3.org/1999/xlink" width="948.708" height="22.779" viewBox="0 0 948.708 22.779">
  <defs>
    <clipPath id="clip-path">
      <rect id="Rectangle_17" data-name="Rectangle 17" width="306.708" height="22.779" fill="none"/>
    </clipPath>
  </defs>
  <g id="qa-noto" transform="translate(-485.646 -818.383)">
    <g id="noto" transform="translate(485.646 818.383)">
      <g id="Group_4" data-name="Group 4" clip-path="url(#clip-path)">
        <path id="Path_485" data-name="Path 485" d="M12.66,16.8a6.162,6.162,0,0,1-6.33,5.979A6.162,6.162,0,0,1,0,16.8a6.162,6.162,0,0,1,6.33-5.979A6.162,6.162,0,0,1,12.66,16.8" transform="translate(0 0)" fill="#e4efe7"/>
        <rect id="Rectangle_5" data-name="Rectangle 5" width="6.33" height="16.8" transform="translate(3.165)" fill="#e4efe7"/>
        <rect id="Rectangle_6" data-name="Rectangle 6" width="6.33" height="16.8" transform="translate(29.84)" fill="#e4efe7"/>
        <rect id="Rectangle_7" data-name="Rectangle 7" width="6.33" height="16.8" transform="translate(56.515)" fill="#e4efe7"/>
        <rect id="Rectangle_8" data-name="Rectangle 8" width="6.33" height="16.8" transform="translate(83.19)" fill="#e4efe7"/>
        <rect id="Rectangle_9" data-name="Rectangle 9" width="6.33" height="16.8" transform="translate(109.866)" fill="#e4efe7"/>
        <rect id="Rectangle_10" data-name="Rectangle 10" width="6.33" height="16.8" transform="translate(136.555)" fill="#e4efe7"/>
        <rect id="Rectangle_11" data-name="Rectangle 11" width="6.33" height="16.8" transform="translate(163.216)" fill="#e4efe7"/>
        <rect id="Rectangle_12" data-name="Rectangle 12" width="6.33" height="16.8" transform="translate(189.89)" fill="#e4efe7"/>
        <rect id="Rectangle_13" data-name="Rectangle 13" width="6.33" height="16.8" transform="translate(216.566)" fill="#e4efe7"/>
        <rect id="Rectangle_14" data-name="Rectangle 14" width="6.33" height="16.8" transform="translate(243.24)" fill="#e4efe7"/>
        <path id="Path_486" data-name="Path 486" d="M37.857,16.8a6.162,6.162,0,0,1-6.33,5.979A6.162,6.162,0,0,1,25.2,16.8a6.162,6.162,0,0,1,6.33-5.979,6.162,6.162,0,0,1,6.33,5.979" transform="translate(1.479 0)" fill="#e4efe7"/>
        <path id="Path_487" data-name="Path 487" d="M63.053,16.8a6.34,6.34,0,0,1-12.66,0,6.34,6.34,0,0,1,12.66,0" transform="translate(2.957 0)" fill="#e4efe7"/>
        <path id="Path_488" data-name="Path 488" d="M88.25,16.8a6.34,6.34,0,0,1-12.66,0,6.34,6.34,0,0,1,12.66,0" transform="translate(4.436 0)" fill="#e4efe7"/>
        <path id="Path_489" data-name="Path 489" d="M113.446,16.8a6.34,6.34,0,0,1-12.66,0,6.34,6.34,0,0,1,12.66,0" transform="translate(5.914 0)" fill="#e4efe7"/>
        <path id="Path_490" data-name="Path 490" d="M138.657,16.8a6.34,6.34,0,0,1-12.66,0,6.34,6.34,0,0,1,12.66,0" transform="translate(7.393 0)" fill="#e4efe7"/>
        <path id="Path_491" data-name="Path 491" d="M163.839,16.8a6.34,6.34,0,0,1-12.66,0,6.34,6.34,0,0,1,12.66,0" transform="translate(8.871 0)" fill="#e4efe7"/>
        <path id="Path_492" data-name="Path 492" d="M189.036,16.8a6.34,6.34,0,0,1-12.66,0,6.34,6.34,0,0,1,12.66,0" transform="translate(10.35 0)" fill="#e4efe7"/>
        <path id="Path_493" data-name="Path 493" d="M214.232,16.8a6.34,6.34,0,0,1-12.66,0,6.34,6.34,0,0,1,12.66,0" transform="translate(11.828 0)" fill="#e4efe7"/>
        <path id="Path_494" data-name="Path 494" d="M239.429,16.8a6.34,6.34,0,0,1-12.66,0,6.34,6.34,0,0,1,12.66,0" transform="translate(13.307 0)" fill="#e4efe7"/>
        <rect id="Rectangle_15" data-name="Rectangle 15" width="6.33" height="16.8" transform="translate(270.537)" fill="#e4efe7"/>
        <rect id="Rectangle_16" data-name="Rectangle 16" width="6.33" height="16.8" transform="translate(297.213)" fill="#e4efe7"/>
        <path id="Path_495" data-name="Path 495" d="M265.213,16.8a6.34,6.34,0,0,1-12.66,0,6.34,6.34,0,0,1,12.66,0" transform="translate(14.82 0)" fill="#e4efe7"/>
        <path id="Path_496" data-name="Path 496" d="M290.409,16.8a6.34,6.34,0,0,1-12.66,0,6.34,6.34,0,0,1,12.66,0" transform="translate(16.298 0)" fill="#e4efe7"/>
      </g>
    </g>
    <g id="noto-2" data-name="noto" transform="translate(806.646 818.383)">
      <g id="Group_4-2" data-name="Group 4" clip-path="url(#clip-path)">
        <path id="Path_485-2" data-name="Path 485" d="M12.66,16.8a6.162,6.162,0,0,1-6.33,5.979A6.162,6.162,0,0,1,0,16.8a6.162,6.162,0,0,1,6.33-5.979A6.162,6.162,0,0,1,12.66,16.8" transform="translate(0 0)" fill="#e4efe7"/>
        <rect id="Rectangle_5-2" data-name="Rectangle 5" width="6.33" height="16.8" transform="translate(3.165)" fill="#e4efe7"/>
        <rect id="Rectangle_6-2" data-name="Rectangle 6" width="6.33" height="16.8" transform="translate(29.84)" fill="#e4efe7"/>
        <rect id="Rectangle_7-2" data-name="Rectangle 7" width="6.33" height="16.8" transform="translate(56.515)" fill="#e4efe7"/>
        <rect id="Rectangle_8-2" data-name="Rectangle 8" width="6.33" height="16.8" transform="translate(83.19)" fill="#e4efe7"/>
        <rect id="Rectangle_9-2" data-name="Rectangle 9" width="6.33" height="16.8" transform="translate(109.866)" fill="#e4efe7"/>
        <rect id="Rectangle_10-2" data-name="Rectangle 10" width="6.33" height="16.8" transform="translate(136.555)" fill="#e4efe7"/>
        <rect id="Rectangle_11-2" data-name="Rectangle 11" width="6.33" height="16.8" transform="translate(163.216)" fill="#e4efe7"/>
        <rect id="Rectangle_12-2" data-name="Rectangle 12" width="6.33" height="16.8" transform="translate(189.89)" fill="#e4efe7"/>
        <rect id="Rectangle_13-2" data-name="Rectangle 13" width="6.33" height="16.8" transform="translate(216.566)" fill="#e4efe7"/>
        <rect id="Rectangle_14-2" data-name="Rectangle 14" width="6.33" height="16.8" transform="translate(243.24)" fill="#e4efe7"/>
        <path id="Path_486-2" data-name="Path 486" d="M37.857,16.8a6.162,6.162,0,0,1-6.33,5.979A6.162,6.162,0,0,1,25.2,16.8a6.162,6.162,0,0,1,6.33-5.979,6.162,6.162,0,0,1,6.33,5.979" transform="translate(1.479 0)" fill="#e4efe7"/>
        <path id="Path_487-2" data-name="Path 487" d="M63.053,16.8a6.34,6.34,0,0,1-12.66,0,6.34,6.34,0,0,1,12.66,0" transform="translate(2.957 0)" fill="#e4efe7"/>
        <path id="Path_488-2" data-name="Path 488" d="M88.25,16.8a6.34,6.34,0,0,1-12.66,0,6.34,6.34,0,0,1,12.66,0" transform="translate(4.436 0)" fill="#e4efe7"/>
        <path id="Path_489-2" data-name="Path 489" d="M113.446,16.8a6.34,6.34,0,0,1-12.66,0,6.34,6.34,0,0,1,12.66,0" transform="translate(5.914 0)" fill="#e4efe7"/>
        <path id="Path_490-2" data-name="Path 490" d="M138.657,16.8a6.34,6.34,0,0,1-12.66,0,6.34,6.34,0,0,1,12.66,0" transform="translate(7.393 0)" fill="#e4efe7"/>
        <path id="Path_491-2" data-name="Path 491" d="M163.839,16.8a6.34,6.34,0,0,1-12.66,0,6.34,6.34,0,0,1,12.66,0" transform="translate(8.871 0)" fill="#e4efe7"/>
        <path id="Path_492-2" data-name="Path 492" d="M189.036,16.8a6.34,6.34,0,0,1-12.66,0,6.34,6.34,0,0,1,12.66,0" transform="translate(10.35 0)" fill="#e4efe7"/>
        <path id="Path_493-2" data-name="Path 493" d="M214.232,16.8a6.34,6.34,0,0,1-12.66,0,6.34,6.34,0,0,1,12.66,0" transform="translate(11.828 0)" fill="#e4efe7"/>
        <path id="Path_494-2" data-name="Path 494" d="M239.429,16.8a6.34,6.34,0,0,1-12.66,0,6.34,6.34,0,0,1,12.66,0" transform="translate(13.307 0)" fill="#e4efe7"/>
        <rect id="Rectangle_15-2" data-name="Rectangle 15" width="6.33" height="16.8" transform="translate(270.537)" fill="#e4efe7"/>
        <rect id="Rectangle_16-2" data-name="Rectangle 16" width="6.33" height="16.8" transform="translate(297.213)" fill="#e4efe7"/>
        <path id="Path_495-2" data-name="Path 495" d="M265.213,16.8a6.34,6.34,0,0,1-12.66,0,6.34,6.34,0,0,1,12.66,0" transform="translate(14.82 0)" fill="#e4efe7"/>
        <path id="Path_496-2" data-name="Path 496" d="M290.409,16.8a6.34,6.34,0,0,1-12.66,0,6.34,6.34,0,0,1,12.66,0" transform="translate(16.298 0)" fill="#e4efe7"/>
      </g>
    </g>
    <g id="noto-3" data-name="noto" transform="translate(1127.646 818.383)">
      <g id="Group_4-3" data-name="Group 4" clip-path="url(#clip-path)">
        <path id="Path_485-3" data-name="Path 485" d="M12.66,16.8a6.162,6.162,0,0,1-6.33,5.979A6.162,6.162,0,0,1,0,16.8a6.162,6.162,0,0,1,6.33-5.979A6.162,6.162,0,0,1,12.66,16.8" transform="translate(0 0)" fill="#e4efe7"/>
        <rect id="Rectangle_5-3" data-name="Rectangle 5" width="6.33" height="16.8" transform="translate(3.165)" fill="#e4efe7"/>
        <rect id="Rectangle_6-3" data-name="Rectangle 6" width="6.33" height="16.8" transform="translate(29.84)" fill="#e4efe7"/>
        <rect id="Rectangle_7-3" data-name="Rectangle 7" width="6.33" height="16.8" transform="translate(56.515)" fill="#e4efe7"/>
        <rect id="Rectangle_8-3" data-name="Rectangle 8" width="6.33" height="16.8" transform="translate(83.19)" fill="#e4efe7"/>
        <rect id="Rectangle_9-3" data-name="Rectangle 9" width="6.33" height="16.8" transform="translate(109.866)" fill="#e4efe7"/>
        <rect id="Rectangle_10-3" data-name="Rectangle 10" width="6.33" height="16.8" transform="translate(136.555)" fill="#e4efe7"/>
        <rect id="Rectangle_11-3" data-name="Rectangle 11" width="6.33" height="16.8" transform="translate(163.216)" fill="#e4efe7"/>
        <rect id="Rectangle_12-3" data-name="Rectangle 12" width="6.33" height="16.8" transform="translate(189.89)" fill="#e4efe7"/>
        <rect id="Rectangle_13-3" data-name="Rectangle 13" width="6.33" height="16.8" transform="translate(216.566)" fill="#e4efe7"/>
        <rect id="Rectangle_14-3" data-name="Rectangle 14" width="6.33" height="16.8" transform="translate(243.24)" fill="#e4efe7"/>
        <path id="Path_486-3" data-name="Path 486" d="M37.857,16.8a6.162,6.162,0,0,1-6.33,5.979A6.162,6.162,0,0,1,25.2,16.8a6.162,6.162,0,0,1,6.33-5.979,6.162,6.162,0,0,1,6.33,5.979" transform="translate(1.479 0)" fill="#e4efe7"/>
        <path id="Path_487-3" data-name="Path 487" d="M63.053,16.8a6.34,6.34,0,0,1-12.66,0,6.34,6.34,0,0,1,12.66,0" transform="translate(2.957 0)" fill="#e4efe7"/>
        <path id="Path_488-3" data-name="Path 488" d="M88.25,16.8a6.34,6.34,0,0,1-12.66,0,6.34,6.34,0,0,1,12.66,0" transform="translate(4.436 0)" fill="#e4efe7"/>
        <path id="Path_489-3" data-name="Path 489" d="M113.446,16.8a6.34,6.34,0,0,1-12.66,0,6.34,6.34,0,0,1,12.66,0" transform="translate(5.914 0)" fill="#e4efe7"/>
        <path id="Path_490-3" data-name="Path 490" d="M138.657,16.8a6.34,6.34,0,0,1-12.66,0,6.34,6.34,0,0,1,12.66,0" transform="translate(7.393 0)" fill="#e4efe7"/>
        <path id="Path_491-3" data-name="Path 491" d="M163.839,16.8a6.34,6.34,0,0,1-12.66,0,6.34,6.34,0,0,1,12.66,0" transform="translate(8.871 0)" fill="#e4efe7"/>
        <path id="Path_492-3" data-name="Path 492" d="M189.036,16.8a6.34,6.34,0,0,1-12.66,0,6.34,6.34,0,0,1,12.66,0" transform="translate(10.35 0)" fill="#e4efe7"/>
        <path id="Path_493-3" data-name="Path 493" d="M214.232,16.8a6.34,6.34,0,0,1-12.66,0,6.34,6.34,0,0,1,12.66,0" transform="translate(11.828 0)" fill="#e4efe7"/>
        <path id="Path_494-3" data-name="Path 494" d="M239.429,16.8a6.34,6.34,0,0,1-12.66,0,6.34,6.34,0,0,1,12.66,0" transform="translate(13.307 0)" fill="#e4efe7"/>
        <rect id="Rectangle_15-3" data-name="Rectangle 15" width="6.33" height="16.8" transform="translate(270.537)" fill="#e4efe7"/>
        <rect id="Rectangle_16-3" data-name="Rectangle 16" width="6.33" height="16.8" transform="translate(297.213)" fill="#e4efe7"/>
        <path id="Path_495-3" data-name="Path 495" d="M265.213,16.8a6.34,6.34,0,0,1-12.66,0,6.34,6.34,0,0,1,12.66,0" transform="translate(14.82 0)" fill="#e4efe7"/>
        <path id="Path_496-3" data-name="Path 496" d="M290.409,16.8a6.34,6.34,0,0,1-12.66,0,6.34,6.34,0,0,1,12.66,0" transform="translate(16.298 0)" fill="#e4efe7"/>
      </g>
    </g>
  </g>
</svg>
