<svg id="Group_725" data-name="Group 725" xmlns="http://www.w3.org/2000/svg" xmlns:xlink="http://www.w3.org/1999/xlink" width="127" height="107.156" viewBox="0 0 127 107.156">
  <defs>
    <clipPath id="clip-path">
      <rect id="Rectangle_548" data-name="Rectangle 548" width="127" height="107.156" transform="translate(0 0)" fill="none"/>
    </clipPath>
  </defs>
  <path id="Path_5285" data-name="Path 5285" d="M24.765,83.045,10.781,78.1H28.644Z" fill="#7a7a06"/>
  <path id="Path_5286" data-name="Path 5286" d="M108.015,78.1l4.123,4.944L127,78.1Z" fill="#7a7a06"/>
  <g id="Group_724" data-name="Group 724">
    <g id="Group_723" data-name="Group 723" clip-path="url(#clip-path)">
      <path id="Path_5287" data-name="Path 5287" d="M123.314,53.578c0,29.59-24.366,53.578-54.424,53.578S14.467,83.168,14.467,53.578,38.833,0,68.89,0s54.424,23.988,54.424,53.578" fill="#23a79c"/>
      <path id="Path_5288" data-name="Path 5288" d="M117.681,53.578c0,26.528-21.844,48.033-48.791,48.033S20.1,80.106,20.1,53.578,41.944,5.545,68.89,5.545s48.791,21.5,48.791,48.033" fill="#f2ad22"/>
      <rect id="Rectangle_547" data-name="Rectangle 547" width="115.872" height="25.81" transform="translate(10.955 52.291)" fill="#fdffbd"/>
      <path id="Path_5289" data-name="Path 5289" d="M39.773,69.24H37.839v1.653c0,1-.221,1.536-.932,1.836a8.146,8.146,0,0,1-3.121.334,7.094,7.094,0,0,0-.7-1.869c.933.049,2.018.032,2.324.032s.407-.082.407-.367V69.24H27.834v3.823h-2V69.24H23.9V67.4h1.933V61.277h4.935v-1.1H24.594v-1.82h14.5v1.82H32.785v1.1h5.054V67.4h1.934ZM27.834,64.365h2.933v-1.3H27.834Zm0,3.039h2.933V66.05H27.834Zm4.951-3.039h3.036v-1.3H32.785Zm3.036,1.685H32.785V67.4h3.036Z" fill="#23a79c"/>
      <path id="Path_5290" data-name="Path 5290" d="M46.777,66.368l-1.832.5v4.09c0,.952-.17,1.436-.729,1.72a5.44,5.44,0,0,1-2.544.367,6.7,6.7,0,0,0-.559-1.8c.661.033,1.339.033,1.56.033.237,0,.322-.082.322-.316V67.4c-.645.167-1.238.3-1.8.45l-.508-1.886c.661-.134,1.458-.318,2.306-.519v-3H40.96V60.591h2.035V57.47h1.95v3.121h1.628v1.854H44.945v2.522l1.577-.4Zm9.6-5.208V72.9h-2V71.81H48.9v1.2H46.964V61.16h3.662V57.47h1.9v3.69ZM48.9,65.466h1.73v-2.42H48.9Zm0,4.441h1.73V67.32H48.9Zm3.63-4.441h1.849v-2.42H52.526Zm1.848,1.854H52.525v2.587h1.849Z" fill="#23a79c"/>
      <path id="Path_5291" data-name="Path 5291" d="M69.009,57.7a10.328,10.328,0,0,0,4.867,6.011,11.249,11.249,0,0,0-1.424,1.836,11.616,11.616,0,0,1-1.29-.969c-.187,4.925-.39,6.846-.983,7.529a2.021,2.021,0,0,1-1.543.8,17.64,17.64,0,0,1-2.561.05,4.748,4.748,0,0,0-.661-2c.932.067,1.814.082,2.238.082a.772.772,0,0,0,.678-.234c.34-.367.526-1.853.679-5.325H65.668c-.424,3.206-1.527,6.061-5.919,7.681a6.615,6.615,0,0,0-1.34-1.837c3.833-1.22,4.715-3.424,5.055-5.844H60.6v-1.1a12.228,12.228,0,0,1-1.273,1.2,13,13,0,0,0-1.7-1.469,11.784,11.784,0,0,0,4.207-6.093l2.119.5a17.25,17.25,0,0,1-2.662,5.026h8.784a13.868,13.868,0,0,1-2.561-3.99h-2.7V57.7Z" fill="#23a79c"/>
      <path id="Path_5292" data-name="Path 5292" d="M90.344,70.024h-6.58v1.185c0,.986-.306,1.386-1.1,1.637a14.715,14.715,0,0,1-3.392.2,7.211,7.211,0,0,0-.695-1.62c.983.033,2.306.033,2.6.033.339-.016.44-.083.44-.333v-1.1H75.081V68.339h6.528v-.7h.018l-.018-.018A16.341,16.341,0,0,0,83.746,67h-7V65.449H86.986l.424-.1L88.7,66.468a26.5,26.5,0,0,1-4.731,1.871h6.377Zm-.272-9.667H75.335V58.688h6.24a7.444,7.444,0,0,0-.356-1l2.07-.35a9.47,9.47,0,0,1,.559,1.352h6.224Zm-12.786.768H88.258v3.657H77.286ZM79.3,63.414h6.818V62.48H79.3Z" fill="#23a79c"/>
      <path id="Path_5293" data-name="Path 5293" d="M102.572,69.658c1.814.6,3.866,1.335,5.07,1.852l-.915,1.553c-1.476-.718-4.495-1.854-6.615-2.57l.526-.835h-.508c-.8,1.4-2.782,2.771-7.293,3.489a9.894,9.894,0,0,0-1.119-1.6c3.052-.452,4.782-1.135,5.749-1.886H91.8V68.021h6.8a4.024,4.024,0,0,0,.034-.45v-1.1h2v1.17a2.9,2.9,0,0,1-.017.383h2.951a12.105,12.105,0,0,0-1.119-.835l.61-.567h-.644a5.789,5.789,0,0,0-.492-1.436c.543.032,1.17.032,1.357.032s.237-.065.237-.233v-.967h-2.815a6,6,0,0,1,1.119,1L100.5,66a7.22,7.22,0,0,0-1.662-1.469l.7-.517H97.857V62.728h.661a4.369,4.369,0,0,0-.661-.934,16.338,16.338,0,0,0,4.239-.935,11.406,11.406,0,0,0-1.39-1.3c-.56.2-1.17.4-1.832.584a4.53,4.53,0,0,0-1-1.118,11.835,11.835,0,0,0,4.46-1.637l1.645.335c-.237.2-.474.383-.729.567h2.357l.322-.05,1.035.517a6.978,6.978,0,0,1-3.375,2.9h1.848v1.068h1.917v1.287h-1.917v1.034c0,.785-.152,1.135-.712,1.369a3.131,3.131,0,0,1-.9.184,8.233,8.233,0,0,1,1.323,1.036l-.39.383h2.816v1.637Zm-7.955-5.727a4.522,4.522,0,0,1-1.356,3.339,7.771,7.771,0,0,0-1.526-.852,3.259,3.259,0,0,0,1.119-2.487H91.9V62.4h3.613v-.919H92.565V57.87h1.68v2.1h1.272V57.487h1.831V67H95.517V63.931Zm6.327-2.873c-.832.085-1.612.169-2.375.251l-.169-1c.712-.05,1.543-.117,2.526-.184Zm2.577,1.67V61.694a15.551,15.551,0,0,1-3.527,1.034Zm-1.272-3.372c.373.3.729.651,1.051.969a5.846,5.846,0,0,0,1.29-.969Z" fill="#23a79c"/>
      <path id="Path_5294" data-name="Path 5294" d="M110.9,70.275a1.493,1.493,0,1,1,1.493,1.469,1.422,1.422,0,0,1-1.493-1.469m.17-8.682-.086-2.487H113.8l-.085,2.487-.458,5.71h-1.73Z" fill="#23a79c"/>
      <path id="Path_5295" data-name="Path 5295" d="M33.721,46.22a10.488,10.488,0,0,0,1.13-3.177l1.417.511a12.139,12.139,0,0,1-1.058,3.267Zm8.553-3.6H34.151V41.031h3.12v-.883H34.51V38.559h2.761V37.8h-2.8V31.146h7.585V37.8h-2.9v.759h2.869v1.589H39.154v.883h3.12Zm-6.2-6.233h1.506v-3.83H36.07V33.3l.842-.247a12.109,12.109,0,0,1,.557,2.524l-.933.3a10.679,10.679,0,0,0-.466-2.453Zm1.811,7.028a17,17,0,0,1,.251,3.071l-1.363.159a18.635,18.635,0,0,0-.179-3.091Zm1.793-.125A15.512,15.512,0,0,1,40.41,46.2l-1.309.264a14.525,14.525,0,0,0-.7-2.947Zm.736-10.733H38.867v2.9a17.6,17.6,0,0,0,.682-2.419l.861.3Zm0,3.83V33.9c-.287.724-.557,1.5-.79,1.993l-.753-.281v.775Zm6.705-.193v2.7h2.869v8.119H47.94V46.4H44.623v.672H42.686V45.833l-1.309.511a12.035,12.035,0,0,0-1.183-2.86l1.255-.441a10.783,10.783,0,0,1,1.237,2.631V38.9h2.349V30.633h2.08v3.619h3.479v1.942ZM47.94,40.8H44.623v3.69H47.94Z" fill="#fff"/>
      <path id="Path_5296" data-name="Path 5296" d="M67.642,38.964a17.454,17.454,0,0,1-2.977,3.866C65.149,44.19,65.705,45,66.244,45c.376,0,.591-.846.68-2.93a5.478,5.478,0,0,0,1.758,1.2c-.341,3.088-1,3.866-2.636,3.866-1.309,0-2.314-1.059-3.085-2.79A18.546,18.546,0,0,1,59.644,46.5a9.223,9.223,0,0,0-1.416-1.694,18.416,18.416,0,0,0,4-2.49,32.13,32.13,0,0,1-.915-4.731h-3.64V39.6c.915-.159,1.846-.335,2.762-.494l.161,1.907-2.923.582v3.018c0,1.149-.251,1.714-.968,2.049a7.839,7.839,0,0,1-3.228.406,8.309,8.309,0,0,0-.753-2.118c1,.052,2.045.035,2.366.017.323,0,.431-.088.431-.371v-2.56c-1.147.23-2.259.459-3.209.636l-.52-2.118c1.022-.159,2.312-.353,3.729-.6V37.588H52.131V35.594H55.52V33.582c-.968.159-1.955.281-2.869.386a7.905,7.905,0,0,0-.609-1.763,46.442,46.442,0,0,0,7.119-1.484L60.6,32.5c-.9.266-1.883.494-2.923.706v2.384h3.442c-.143-1.589-.2-3.23-.215-4.837h2.242a42.923,42.923,0,0,0,.179,4.837H68.2v1.994H63.535c.144,1.058.323,2.083.52,2.983a14.7,14.7,0,0,0,1.7-2.4Zm-1.309-3.883a14.138,14.138,0,0,0-2.546-2.913L65.4,31.092A15.236,15.236,0,0,1,68.054,33.9Z" fill="#fff"/>
      <path id="Path_5297" data-name="Path 5297" d="M81.515,30.863a10.924,10.924,0,0,0,5.146,6.355,11.982,11.982,0,0,0-1.506,1.942,12.5,12.5,0,0,1-1.363-1.024c-.2,5.208-.413,7.238-1.04,7.962a2.137,2.137,0,0,1-1.632.846A18.407,18.407,0,0,1,78.413,47a5.006,5.006,0,0,0-.7-2.118c.986.071,1.919.088,2.368.088a.82.82,0,0,0,.716-.247c.359-.389.557-1.961.718-5.632H77.983c-.449,3.39-1.615,6.407-6.259,8.121a7,7,0,0,0-1.417-1.943c4.053-1.287,4.986-3.618,5.345-6.178H72.621V37.925a13.192,13.192,0,0,1-1.345,1.27,13.721,13.721,0,0,0-1.793-1.553A12.469,12.469,0,0,0,73.93,31.2l2.241.531a18.21,18.21,0,0,1-2.815,5.313h9.288a14.647,14.647,0,0,1-2.707-4.22H77.086V30.863Z" fill="#fff"/>
      <path id="Path_5298" data-name="Path 5298" d="M104.067,43.89H97.11v1.254c0,1.041-.323,1.465-1.166,1.729a15.532,15.532,0,0,1-3.586.212,7.6,7.6,0,0,0-.735-1.711c1.039.034,2.439.034,2.743.034.359-.017.466-.088.466-.352V43.89h-6.9V42.107h6.9v-.741h.019l-.019-.017a17.339,17.339,0,0,0,2.259-.653H89.686V39.055h10.831l.448-.108,1.362,1.184a27.987,27.987,0,0,1-5,1.976h6.742Zm-.287-10.22H88.2V31.9h6.6a8.006,8.006,0,0,0-.376-1.059l2.188-.371A10.168,10.168,0,0,1,97.2,31.9h6.581Zm-13.52.812h11.6v3.866H90.26ZM92.394,36.9H99.6v-.988H92.394Z" fill="#fff"/>
    </g>
  </g>
</svg>
