<?xml version="1.0" encoding="utf-8"?>
<!-- Generator: Adobe Illustrator 23.0.3, SVG Export Plug-In . SVG Version: 6.00 Build 0)  -->
<svg version="1.1" id="圖層_1" xmlns="http://www.w3.org/2000/svg" xmlns:xlink="http://www.w3.org/1999/xlink" x="0px" y="0px"
	 viewBox="0 0 414 625" style="enable-background:new 0 0 414 625;" xml:space="preserve">
<style type="text/css">
	.st0{display:none;}
	.st1{display:inline;fill:#E4EFE7;}
	.st2{display:inline;fill:#72917A;}
	.st3{display:inline;}
	.st4{fill:#2D2D2D;}
	.st5{clip-path:url(#SVGID_2_);}
	.st6{fill:none;stroke:#2D2D2D;stroke-width:3;}
	.st7{clip-path:url(#SVGID_4_);}
	.st8{clip-path:url(#SVGID_6_);}
	.st9{fill:#FDFDFD;}
	.st10{fill:#308482;}
	.st11{clip-path:url(#SVGID_8_);}
	.st12{clip-path:url(#SVGID_10_);}
	.st13{clip-path:url(#SVGID_12_);}
	.st14{fill:#FFFFFF;}
	.st15{fill:#E8E8E8;}
	.st16{fill:#F7D5AB;}
	.st17{fill:#B37F43;}
	.st18{clip-path:url(#SVGID_14_);}
	.st19{fill:#E6816C;}
	.st20{fill:#DC7863;}
	.st21{fill:#CF6B56;}
	.st22{fill:#96B9B9;}
	.st23{fill:#87ABAC;}
	.st24{fill:#749898;}
	.st25{fill:#8198BA;}
	.st26{fill:#E9E5E2;}
	.st27{fill:#D2CAC4;}
	.st28{fill:#F39B00;}
	.st29{fill:#E56C56;}
	.st30{fill:#8F9F74;}
	.st31{fill:#79885F;}
	.st32{fill:#E8CFA0;}
	.st33{fill:#DA5443;}
	.st34{fill:#8DA16A;}
	.st35{fill:#96AB74;}
	.st36{fill:#56B191;}
	.st37{fill:#419D80;}
	.st38{fill:#3B948D;}
	.st39{fill:#83C391;}
	.st40{fill:#7AB987;}
	.st41{fill:#F7D280;}
	.st42{fill:#AAAACB;}
	.st43{fill:#A1A1C1;}
	.st44{fill:#F4B7B8;}
	.st45{clip-path:url(#SVGID_16_);}
	.st46{fill:#F68B85;}
</style>
<g id="slot-bg" transform="translate(18.264)" class="st0">
	<rect id="Rectangle_66" x="-18.3" class="st1" width="414" height="561"/>
	<rect id="Rectangle_206" x="-20.2" y="334" class="st2" width="415.9" height="291"/>
	<g id="light" transform="translate(-103.823 -31.5)" class="st3">
		<g id="Group_97" transform="translate(111.25 17.5)">
			<rect id="Rectangle_67" x="-9.7" y="33.5" class="st4" width="10.1" height="7.7"/>
			<g id="Group_90" transform="translate(0 0)">
				<g>
					<g>
						<defs>
							<rect id="SVGID_1_" x="-18.7" y="28.8" width="159.6" height="40.9"/>
						</defs>
						<clipPath id="SVGID_2_">
							<use xlink:href="#SVGID_1_"  style="overflow:visible;"/>
						</clipPath>
						<g id="Group_89" transform="translate(0 14.354)" class="st5">
							<line id="Line_1" class="st6" x1="-4.7" y1="27.7" x2="-4.7" y2="0"/>
						</g>
					</g>
				</g>
			</g>
			<rect id="Rectangle_69" x="121.8" y="33.5" class="st4" width="10.1" height="7.7"/>
			<g id="Group_95" transform="translate(0 0)">
				<g>
					<g>
						<defs>
							<rect id="SVGID_3_" x="-18.7" y="28.8" width="159.6" height="40.9"/>
						</defs>
						<clipPath id="SVGID_4_">
							<use xlink:href="#SVGID_3_"  style="overflow:visible;"/>
						</clipPath>
						<g id="Group_94" transform="translate(0 14.354)" class="st7">
							<line id="Line_2" class="st6" x1="126.8" y1="27.7" x2="126.8" y2="0"/>
							<g id="Group_93" transform="translate(9.888 32.847)">
								<g id="Group_92">
									<g>
										<g>
											<defs>
												<rect id="SVGID_5_" x="-18.7" y="0" width="139.8" height="8.1"/>
											</defs>
											<clipPath id="SVGID_6_">
												<use xlink:href="#SVGID_5_"  style="overflow:visible;"/>
											</clipPath>
											<g id="Group_91" class="st8">
												<path id="Path_1197" class="st9" d="M117.4,8.1H-15c-0.7,0-1.4-0.4-1.7-1.1l-1.9-4.5c-0.4-0.9,0.1-2,1-2.3
													C-17.4,0-17.1,0-16.9,0h136.2c1,0,1.8,0.8,1.8,1.8c0,0.2,0,0.5-0.1,0.7L119.1,7C118.8,7.6,118.2,8.1,117.4,8.1"/>
											</g>
										</g>
									</g>
								</g>
							</g>
						</g>
					</g>
				</g>
			</g>
			<rect id="Rectangle_72" x="-18.7" y="38.9" class="st10" width="159.6" height="8.2"/>
		</g>
	</g>
	<g id="light-2" transform="translate(136.617 -31.5)" class="st3">
		<g id="Group_97-2" transform="translate(111.25 17.5)">
			<rect id="Rectangle_67-2" x="-9.7" y="33.5" class="st4" width="10.1" height="7.7"/>
			<g id="Group_90-2" transform="translate(0 0)">
				<g>
					<g>
						<defs>
							<rect id="SVGID_7_" x="-18.7" y="28.8" width="159.6" height="40.9"/>
						</defs>
						<clipPath id="SVGID_8_">
							<use xlink:href="#SVGID_7_"  style="overflow:visible;"/>
						</clipPath>
						<g id="Group_89-2" transform="translate(0 14.354)" class="st11">
							<line id="Line_1-2" class="st6" x1="-4.7" y1="27.7" x2="-4.7" y2="0"/>
						</g>
					</g>
				</g>
			</g>
			<rect id="Rectangle_69-2" x="121.8" y="33.5" class="st4" width="10.1" height="7.7"/>
			<g id="Group_95-2" transform="translate(0 0)">
				<g>
					<g>
						<defs>
							<rect id="SVGID_9_" x="-18.7" y="28.8" width="159.6" height="40.9"/>
						</defs>
						<clipPath id="SVGID_10_">
							<use xlink:href="#SVGID_9_"  style="overflow:visible;"/>
						</clipPath>
						<g id="Group_94-2" transform="translate(0 14.354)" class="st12">
							<line id="Line_2-2" class="st6" x1="126.8" y1="27.7" x2="126.8" y2="0"/>
							<g id="Group_93-2" transform="translate(9.888 32.847)">
								<g id="Group_92-2">
									<g>
										<g>
											<defs>
												<rect id="SVGID_11_" x="-18.7" y="0" width="139.8" height="8.1"/>
											</defs>
											<clipPath id="SVGID_12_">
												<use xlink:href="#SVGID_11_"  style="overflow:visible;"/>
											</clipPath>
											<g id="Group_91-2" class="st13">
												<path id="Path_1197-2" class="st9" d="M117.4,8.1H-15c-0.7,0-1.4-0.4-1.7-1.1l-1.9-4.5c-0.4-0.9,0.1-2,1-2.3
													C-17.4,0-17.1,0-16.9,0h136.2c1,0,1.8,0.8,1.8,1.8c0,0.2,0,0.5-0.1,0.7L119.1,7C118.8,7.6,118.2,8.1,117.4,8.1"/>
											</g>
										</g>
									</g>
								</g>
							</g>
						</g>
					</g>
				</g>
			</g>
			<rect id="Rectangle_72-2" x="-18.7" y="38.9" class="st10" width="159.6" height="8.2"/>
		</g>
	</g>
	<g id="paper" transform="translate(-10.751 -33.433)" class="st3">
		<rect id="Rectangle_108" x="-18.7" y="102.8" class="st14" width="36.4" height="49.4"/>
		<rect id="Rectangle_109" x="-16.5" y="109.7" class="st15" width="31.9" height="2.4"/>
		<rect id="Rectangle_110" x="-16.5" y="114" class="st15" width="31.9" height="2.4"/>
		<rect id="Rectangle_111" x="-16.5" y="118.4" class="st15" width="31.9" height="2.4"/>
		<rect id="Rectangle_112" x="-16.5" y="122.7" class="st15" width="31.9" height="2.4"/>
		<rect id="Rectangle_113" x="-16.5" y="127" class="st15" width="31.9" height="2.4"/>
	</g>
	<g id="paper-2" transform="translate(11.355 28.306)" class="st3">
		<rect id="Rectangle_108-2" x="-18.7" y="102.8" class="st14" width="36.7" height="49.8"/>
		<rect id="Rectangle_109-2" x="-16.5" y="109.8" class="st15" width="32.2" height="2.5"/>
		<rect id="Rectangle_110-2" x="-16.5" y="114.1" class="st15" width="32.2" height="2.5"/>
		<rect id="Rectangle_111-2" x="-16.5" y="118.5" class="st15" width="32.2" height="2.5"/>
		<rect id="Rectangle_112-2" x="-16.5" y="122.8" class="st15" width="32.2" height="2.5"/>
		<rect id="Rectangle_113-2" x="-16.5" y="127.2" class="st15" width="32.2" height="2.5"/>
	</g>
	<g id="櫃子" transform="translate(-18.264 222.89)" class="st3">
		<rect id="Rectangle_210" x="-18.7" y="21.9" class="st16" width="51.4" height="107.5"/>
		<rect id="Rectangle_211" x="-18.7" y="124.4" class="st16" width="5.8" height="11"/>
		<rect id="Rectangle_212" x="26.9" y="124.4" class="st16" width="5.8" height="11"/>
		<rect id="Rectangle_213" x="-13.4" y="27.8" class="st17" width="40.8" height="28.5"/>
		<rect id="Rectangle_214" x="-13.4" y="60" class="st17" width="40.8" height="28.5"/>
		<rect id="Rectangle_215" x="-13.4" y="92.3" class="st17" width="40.8" height="28.5"/>
		<rect id="Rectangle_216" x="-13.4" y="92.1" class="st17" width="40.8" height="28.5"/>
		<g id="Group_222">
			<g>
				<g>
					<defs>
						<rect id="SVGID_13_" x="-18.7" y="0" width="51.4" height="135.4"/>
					</defs>
					<clipPath id="SVGID_14_">
						<use xlink:href="#SVGID_13_"  style="overflow:visible;"/>
					</clipPath>
					<g id="Group_221" class="st18">
						<path id="Path_2633" class="st19" d="M-7.9,36.2V56c0,0.2-0.1,0.3-0.3,0.3h-3.6c-0.2,0-0.3-0.1-0.3-0.3V36.2
							c0-0.2,0.1-0.3,0.3-0.3l0,0h3.6C-8.1,35.8-7.9,36-7.9,36.2C-7.9,36.1-7.9,36.2-7.9,36.2"/>
						<path id="Rectangle_217" class="st20" d="M-11.2,36.1h2.6c0.4,0,0.7,0.3,0.7,0.7l0,0v18.9c0,0.4-0.3,0.7-0.7,0.7h-2.6
							c-0.4,0-0.7-0.3-0.7-0.7V36.8C-11.9,36.4-11.6,36.1-11.2,36.1L-11.2,36.1z"/>
						<rect id="Rectangle_218" x="-9.8" y="47.7" class="st21" width="1" height="7"/>
						<rect id="Rectangle_219" x="-11.1" y="49.6" class="st21" width="0.6" height="5.1"/>
						<path id="Path_2634" class="st22" d="M-2,35.9v20c0,0.2-0.2,0.4-0.4,0.4h-5.2c-0.2,0-0.4-0.2-0.4-0.4v-20
							c0-0.2,0.2-0.4,0.4-0.4h5.2C-2.2,35.6-2,35.7-2,35.9"/>
						<path id="Rectangle_220" class="st23" d="M-6.9,35.9h4.2c0.4,0,0.7,0.3,0.7,0.7v18.9c0,0.4-0.3,0.7-0.7,0.7h-4.2
							c-0.4,0-0.7-0.3-0.7-0.7V36.6C-7.6,36.2-7.3,35.9-6.9,35.9z"/>
						<path id="Path_2635" class="st24" d="M-6.4,39v6.6h2.8V39H-6.4z M-6,39.3h2.2v5.9H-6V39.3z"/>
						<rect id="Rectangle_221" x="-5.4" y="48.6" class="st24" width="1" height="5.9"/>
						<path id="Path_2636" class="st19" d="M9.1,100.6v19.8c0,0.2-0.1,0.3-0.3,0.3l0,0H5.2c-0.2,0-0.3-0.1-0.3-0.3l0,0v-19.8
							c0-0.2,0.1-0.3,0.3-0.3l0,0h3.6C8.9,100.3,9.1,100.4,9.1,100.6L9.1,100.6"/>
						<path id="Rectangle_222" class="st20" d="M5.8,100.6h2.6c0.4,0,0.7,0.3,0.7,0.7l0,0v18.9c0,0.4-0.3,0.7-0.7,0.7H5.8
							c-0.4,0-0.7-0.3-0.7-0.7v-18.9C5.1,100.9,5.4,100.6,5.8,100.6L5.8,100.6z"/>
						<rect id="Rectangle_223" x="7.2" y="112.2" class="st21" width="1" height="7"/>
						<rect id="Rectangle_224" x="5.9" y="114.1" class="st21" width="0.6" height="5.1"/>
						<path id="Path_2637" class="st22" d="M15,100.4v20c0,0.2-0.2,0.4-0.4,0.4l0,0H9.4c-0.2,0-0.4-0.2-0.4-0.4l0,0v-20
							c0-0.2,0.2-0.4,0.4-0.4l0,0h5.2C14.8,100.1,15,100.2,15,100.4L15,100.4"/>
						<path id="Rectangle_225" class="st23" d="M10.1,100.4h4.2c0.4,0,0.7,0.3,0.7,0.7V120c0,0.4-0.3,0.7-0.7,0.7h-4.2
							c-0.4,0-0.7-0.3-0.7-0.7v-18.9C9.4,100.7,9.7,100.4,10.1,100.4z"/>
						<path id="Path_2638" class="st24" d="M10.6,103.5v6.6h2.8v-6.6H10.6z M10.9,103.8h2.2v5.9h-2.2V103.8z"/>
						<rect id="Rectangle_226" x="11.6" y="113.1" class="st24" width="1" height="5.9"/>
						<path id="Path_2639" class="st19" d="M4,33.5v22.1C4,55.8,3.8,56,3.6,56h-5.2C-1.8,56-2,55.8-2,55.6V33.5
							c0-0.2,0.2-0.4,0.4-0.4h5.2C3.8,33.2,4,33.3,4,33.5"/>
						<path id="Rectangle_227" class="st20" d="M-0.9,33.5h4.2c0.4,0,0.7,0.3,0.7,0.7v21.1C4,55.7,3.7,56,3.2,56H-1
							c-0.4,0-0.7-0.3-0.7-0.7V34.2C-1.6,33.8-1.3,33.5-0.9,33.5z"/>
						<rect id="Rectangle_228" x="-0.5" y="37.1" class="st21" width="3.1" height="3.1"/>
						<path id="Path_2640" class="st25" d="M4.4,87.5l1.6-1l-0.1-3.7l-1.7-0.1v-0.5L25,82.7c0.9,1.4,1.3,4.1-0.2,5.3
							c-1.9,0-19.4,0-20.4,0V87.5z"/>
						<path id="Path_2641" class="st26" d="M4.5,82.8c0,0,18.5,0.4,20.2,0.4c0.6,1.2,0.9,3.2-0.2,4.3c-1.8,0-18.9,0-19.8,0
							C5.5,86,5.4,84.2,4.5,82.8"/>
						<path id="Path_2642" class="st27" d="M5.1,83.4l19.5,0.4l0.1,0.3L5.1,83.4L5.1,83.4z"/>
						<path id="Path_2643" class="st27" d="M6.3,84.3l18.5,0.3v0.2L6.3,84.3L6.3,84.3z"/>
						<path id="Path_2644" class="st27" d="M6.3,84.8l18.5,0.3v0.2L6.3,84.8L6.3,84.8z"/>
						<path id="Path_2645" class="st27" d="M6.9,86.2h17.8v0.2L6.9,86.2L6.9,86.2z"/>
						<path id="Path_2646" class="st27" d="M5.6,86.7h19L24.5,87L5.6,86.7L5.6,86.7z"/>
						<path id="Path_2647" class="st28" d="M5.3,81.9l1.3-0.7l-0.1-2.9l-1.3-0.1v-0.4l16.2,0.5c0.7,1.1,0.9,3.2-0.2,4.1
							c-1.6,0-15.1-0.2-15.9-0.2L5.3,81.9z"/>
						<path id="Path_2648" class="st26" d="M5.5,78.3c0,0,14.3,0.5,15.6,0.5c0.5,1,0.6,2.5-0.2,3.3c-1.4,0-14.6-0.2-15.3-0.2
							C6.2,80.8,6.1,79.4,5.5,78.3"/>
						<path id="Path_2649" class="st27" d="M5.9,78.8L21,79.3l0.1,0.2L5.9,78.8L5.9,78.8z"/>
						<path id="Path_2650" class="st27" d="M6.9,79.5L21.1,80v0.1L6.9,79.5L6.9,79.5z"/>
						<path id="Path_2651" class="st27" d="M6.9,79.8l14.3,0.5v0.1L6.9,79.8L6.9,79.8z"/>
						<path id="Path_2652" class="st27" d="M7.2,81L21,81.2v0.1L7.2,81L7.2,81z"/>
						<path id="Path_2653" class="st27" d="M6.2,81.4l14.7,0.2l-0.1,0.3L6.2,81.4L6.2,81.4z"/>
						<path id="Path_2654" class="st29" d="M23,78.2l-1.4-0.6l0.2-2.2h1.5v-0.3L4.4,74.7c-0.9,0.7-1,1.9-0.4,2.8
							c0.1,0.2,0.3,0.3,0.4,0.4C6.2,78,22,78.6,22.9,78.6L23,78.2z"/>
						<path id="Path_2655" class="st26" d="M22.9,75.4c0,0-16.7-0.4-18.2-0.4c-0.7,0.7-0.7,1.8,0,2.5l0.1,0.1
							c1.6,0.1,17,0.7,17.8,0.7C21.9,77.3,22.1,76.1,22.9,75.4"/>
						<path id="Path_2656" class="st27" d="M22.4,75.7L4.8,75.3l-0.1,0.2L22.4,75.7L22.4,75.7z"/>
						<path id="Path_2657" class="st27" d="M21.2,76.3L4.6,75.8v0.1L21.2,76.3L21.2,76.3z"/>
						<path id="Path_2658" class="st27" d="M21.2,76.5L4.6,76.1v0.1L21.2,76.5L21.2,76.5z"/>
						<path id="Path_2659" class="st27" d="M20.7,77.4l-16-0.6v0.1L20.7,77.4L20.7,77.4z"/>
						<path id="Path_2660" class="st27" d="M21.9,77.7L4.7,77.1l0.1,0.2L21.9,77.7L21.9,77.7z"/>
						<path id="Path_2661" class="st30" d="M-9.2,62.6h-3.1v25.9h4.9V62.6H-9.2z"/>
						<path id="Path_2662" class="st31" d="M-9.6,64.2h-1.3V78h2.1V64.2H-9.6z"/>
						<path id="Path_2663" class="st32" d="M-7.4,84.6v-0.4h-4.9v0.6h4.9V84.6z"/>
						<path id="Path_2664" class="st29" d="M3.3,100.6l-2.4-0.4l-3.3,20.1l2.4,0.4l1.4,0.2l3.3-20.1L3.3,100.6z"/>
						<path id="Path_2665" class="st33" d="M2.5,104l-1-0.2l-1.8,10.7l1,0.2l0.6,0.1l1.8-10.7L2.5,104z"/>
						<path id="Path_2666" class="st32" d="M1.9,117.9l0.1-0.3l-3.8-0.6l-0.1,0.3v0.2l3.8,0.6V117.9z"/>
						<path id="Path_2667" class="st32" d="M4.5,102.5l0.1-0.9L0.8,101l-0.1,0.9l-0.1,0.5l3.8,0.6L4.5,102.5z"/>
						<path id="Path_2668" class="st30" d="M-4,62.6h-3.1v25.9h4.9V62.6H-4z"/>
						<path id="Path_2669" class="st31" d="M-4.4,64.2h-1.3V78h2.1V64.2H-4.4z"/>
						<path id="Path_2670" class="st32" d="M-2.2,84.6v-0.4h-4.9v0.6h4.9L-2.2,84.6z"/>
						<path id="Path_2671" class="st30" d="M1.2,62.6h-3.1v25.9H3V62.6H1.2z"/>
						<path id="Path_2672" class="st31" d="M0.8,64.2h-1.3V78h2.1V64.2H0.8z"/>
						<path id="Path_2673" class="st32" d="M3,84.6v-0.4h-4.9v0.6H3V84.6z"/>
						<path id="Path_2674" class="st34" d="M-1.5,10.3c0,1.8-1.4,3.2-3.2,3.2s-3.2-1.4-3.2-3.2s1.4-3.2,3.2-3.2
							C-3,7.1-1.5,8.5-1.5,10.3L-1.5,10.3"/>
						<path id="Path_2675" class="st35" d="M-4.8,17.2C-6.9,11.9-7.5,1.7-2,0.3S9.3,3.4,5,16L-4.8,17.2z"/>
						<path id="Path_2676" class="st10" d="M5.6,21.9H-5.9l-1-8.4H6.6L5.6,21.9z"/>
						<path id="Path_2677" class="st34" d="M-5,10.1l1-1l-0.2,1.3L-5,10.1z"/>
						<path id="Path_2678" class="st34" d="M1.5,12l0.9-1.9L2.8,12H1.5z"/>
						<path id="Path_2679" class="st34" d="M-2.2,8l0.8-1.6L-1.1,8H-2.2z"/>
						<path id="Path_2680" class="st34" d="M2.3,3.8L1.8,2.5l1,0.7L2.3,3.8z"/>
						<path id="Path_2681" class="st34" d="M-1.7,11.7l-0.4-1.3l1,0.7L-1.7,11.7z"/>
						<path id="Path_2682" class="st34" d="M-4.2,3.5l1.9-0.6l-1.1,1.6L-4.2,3.5z"/>
						<path id="Path_2683" class="st34" d="M3.4,7l0.1-1.4l1,0.7L3.4,7z"/>
						<path id="Path_2684" class="st36" d="M23.1,94.2v26.2c0,0.2-0.2,0.4-0.4,0.4l0,0h-7.3c-0.2,0-0.4-0.2-0.4-0.4l0,0V94.2
							c0-0.2,0.2-0.4,0.4-0.4l0,0h7.3C23,93.8,23.1,94,23.1,94.2L23.1,94.2"/>
						<path id="Rectangle_229" class="st37" d="M16.1,94.1h6.2c0.4,0,0.7,0.3,0.7,0.7V120c0,0.4-0.3,0.7-0.7,0.7h-6.2
							c-0.4,0-0.7-0.3-0.7-0.7V94.9C15.4,94.5,15.7,94.1,16.1,94.1z"/>
						<rect id="Rectangle_230" x="16.5" y="97.7" class="st38" width="5.1" height="3.1"/>
						<rect id="Rectangle_231" x="19.3" y="104.9" class="st36" width="1.3" height="13"/>
						<rect id="Rectangle_232" x="17.4" y="109.4" class="st36" width="0.9" height="8.6"/>
						<path id="Path_2685" class="st39" d="M12.3,30.3v25.6c0,0.2-0.2,0.4-0.4,0.4H4.4c-0.2,0-0.4-0.2-0.4-0.4V30.3
							c0-0.2,0.2-0.4,0.4-0.4h7.5C12.1,30,12.3,30.1,12.3,30.3"/>
						<path id="Rectangle_233" class="st40" d="M5.1,30.3h6.4c0.4,0,0.7,0.3,0.7,0.7v24.5c0,0.4-0.3,0.7-0.7,0.7H5.1
							c-0.4,0-0.7-0.3-0.7-0.7V31C4.4,30.6,4.7,30.3,5.1,30.3z"/>
						<rect id="Rectangle_234" x="4.1" y="53.2" class="st41" width="8.2" height="0.8"/>
						<rect id="Rectangle_235" x="4.1" y="47.4" class="st41" width="8.2" height="0.8"/>
						<rect id="Rectangle_236" x="6.4" y="32.6" class="st39" width="3.5" height="11.9"/>
						<path id="Path_2686" class="st42" d="M12.3,33.3L20.8,56c0.1,0.2,0.3,0.3,0.4,0.2l0,0l4.7-1.8c0.2-0.1,0.3-0.3,0.2-0.4l0,0
							l-8.5-22.8c-0.1-0.2-0.3-0.3-0.4-0.2l0,0l-4.7,1.8C12.3,32.9,12.2,33.1,12.3,33.3L12.3,33.3"/>
						<path id="Path_2687" class="st43" d="M25.8,54.5c0.1,0,0.2-0.2,0.1-0.3l-8.5-22.8c0-0.1-0.2-0.2-0.3-0.1l-4.7,1.8
							c-0.1,0-0.2,0.2-0.1,0.3l8.5,22.8c0,0.1,0.2,0.2,0.3,0.1L25.8,54.5z"/>
						
							<rect id="Rectangle_237" x="17" y="33.8" transform="matrix(0.9369 -0.3495 0.3495 0.9369 -12.7696 8.7129)" class="st42" width="1.5" height="11.9"/>
						
							<rect id="Rectangle_238" x="19.2" y="47.6" transform="matrix(0.9369 -0.3495 0.3495 0.9369 -16.5797 10.9477)" class="st44" width="5.7" height="7.6"/>
					</g>
				</g>
			</g>
		</g>
	</g>
	<g id="clock" transform="translate(380.569 77.416)" class="st3">
		<g>
			<g>
				<defs>
					<rect id="SVGID_15_" x="-18.7" y="0" width="53.7" height="53.7"/>
				</defs>
				<clipPath id="SVGID_16_">
					<use xlink:href="#SVGID_15_"  style="overflow:visible;"/>
				</clipPath>
				<g id="Group_99" class="st45">
					<path id="Path_1198" class="st10" d="M32.6,53.7h-48.8c-1.4,0-2.5-1.1-2.5-2.5V2.5c0-1.4,1.1-2.5,2.5-2.5h48.8
						C33.9,0,35,1.1,35,2.5v48.8C35,52.6,33.9,53.7,32.6,53.7"/>
					<path id="Path_1199" class="st14" d="M29.1,49.9h-41.8c-1.2,0-2.1-0.9-2.1-2.1V6c0-1.2,0.9-2.1,2.1-2.1h41.8
						c1.2,0,2.1,0.9,2.1,2.1v41.8C31.2,48.9,30.2,49.9,29.1,49.9"/>
					<path id="Path_1200" class="st15" d="M-14.9,30.8v17c0,1.2,0.9,2.1,2.1,2.1H29c1.2,0,2.1-0.9,2.1-2.1V34.9
						C12.4,41.3-4.4,36.1-14.9,30.8"/>
					<path id="Path_1201" class="st46" d="M8.2,27.3c-0.3,0-0.5-0.2-0.5-0.5c0-0.1,0.1-0.3,0.2-0.4l11.3-10c0.2-0.2,0.5-0.2,0.7,0
						s0.2,0.5,0,0.7l-11.3,10C8.4,27.3,8.3,27.3,8.2,27.3"/>
					<path id="Path_1202" class="st46" d="M-3.9,42.2c-0.3,0-0.5-0.2-0.5-0.5c0-0.1,0-0.2,0.1-0.3L7,27.4c0.2-0.2,0.5-0.2,0.7-0.1
						c0.2,0.2,0.2,0.5,0.1,0.7l0,0L-3.5,42C-3.6,42.1-3.8,42.2-3.9,42.2"/>
					<path id="Path_1203" class="st10" d="M9.9,26.9c0,1-0.8,1.7-1.7,1.7s-1.7-0.8-1.7-1.7c0-1,0.8-1.7,1.7-1.7
						C9.1,25.1,9.9,25.9,9.9,26.9L9.9,26.9"/>
					<path id="Path_1204" class="st10" d="M8.2,6.8c-0.7,0-1.3-0.6-1.3-1.3V3c0-0.7,0.6-1.3,1.3-1.3S9.5,2.3,9.5,3v2.6
						C9.4,6.3,8.9,6.8,8.2,6.8"/>
					<path id="Path_1205" class="st10" d="M8.2,52.5c-0.7,0-1.3-0.6-1.3-1.3v-2.6c0-0.7,0.6-1.3,1.3-1.3s1.3,0.6,1.3,1.3l0,0v2.6
						C9.4,51.9,8.9,52.5,8.2,52.5"/>
					<path id="Path_1206" class="st10" d="M32.5,26.8h-2.6c-0.7,0-1.3-0.6-1.3-1.3c0-0.7,0.6-1.3,1.3-1.3l0,0h2.6
						c0.7,0,1.3,0.6,1.3,1.3C33.8,26.3,33.2,26.8,32.5,26.8"/>
					<path id="Path_1207" class="st10" d="M-13.5,26.8h-2.6c-0.7,0-1.3-0.6-1.3-1.3c0-0.7,0.6-1.3,1.3-1.3h2.6
						c0.7,0,1.3,0.6,1.3,1.3C-12.3,26.2-12.8,26.8-13.5,26.8L-13.5,26.8"/>
				</g>
			</g>
		</g>
	</g>
</g>
<image style="overflow:visible;" width="460" height="625" xlink:href="C:\Users\080890\Downloads\slot-bg.png"  transform="matrix(1 0 0 1 -23 0)">
</image>
</svg>
