<svg id="slot-tip" xmlns="http://www.w3.org/2000/svg" xmlns:xlink="http://www.w3.org/1999/xlink" viewBox="0 0 944 532"><defs><clipPath id="clip-path"><rect x="66.52" y="135.37" width="215.88" height="55.38" fill="none"/></clipPath><clipPath id="clip-path-2"><rect x="336.03" y="230.76" width="268.53" height="68.89" fill="none"/></clipPath><clipPath id="clip-path-3"><rect x="676.32" y="190.05" width="211.25" height="124.91" fill="none"/></clipPath><clipPath id="clip-path-4"><rect x="673.97" y="135.37" width="215.88" height="55.38" fill="none"/></clipPath></defs><g id="_01" data-name="01"><path d="M158.2,69.14A156.75,156.75,0,0,0,31.75,318.52H284.64A156.75,156.75,0,0,0,158.2,69.14Z" fill="#e4efe7"/><circle cx="158.2" cy="225.89" r="156.74" fill="none"/><path d="M18,296.09a156.8,156.8,0,0,0,280.35,0Z" fill="#72917a"/><g id="黑板"><path d="M158.2,69.14a157.54,157.54,0,0,0-23,1.69V245.39H313.74a158.9,158.9,0,0,0,1.2-19.5A156.75,156.75,0,0,0,158.2,69.14Z" fill="#7f5a50"/><path d="M158.2,69.14c-4.22,0-8.4.18-12.53.5V234.36h169q.23-4.22.23-8.47A156.75,156.75,0,0,0,158.2,69.14Z" fill="#684e46"/><path d="M158.2,69.14c-3.33,0-6.62.12-9.89.32V233H314.77q.17-3.56.17-7.15A156.75,156.75,0,0,0,158.2,69.14Z" fill="#003a29"/></g><path d="M213.36,290.25H137.83a11.13,11.13,0,0,0-11.12,11.12v78.1l3,.58V301.37a8.13,8.13,0,0,1,8.12-8.12h75.53a8.12,8.12,0,0,1,8.12,8.11v68c1-.44,2-.9,3-1.36v-66.6A11.13,11.13,0,0,0,213.36,290.25Z" fill="#d8b49c"/><path d="M300,275.51l-2.41-9.2-208.09,9.2-45,58.33A158.4,158.4,0,0,0,57,345.57H259.41a157.54,157.54,0,0,0,29.81-33.64Z" fill="#b37f43"/><path d="M44.34,333.62c.88.92,1.77,1.84,2.67,2.74H269.39a157.93,157.93,0,0,0,11.17-12.52l17-57.53H87.1Z" fill="#f7d5ab"/><path d="M158.2,382.63a156.16,156.16,0,0,0,68.53-15.74,12.86,12.86,0,0,0-9.65-4.77s-21.28,2.9-63.22,2.28c-42.62-.64-66.92-4.3-66.92-4.3a10.14,10.14,0,0,0-1.46,0,11.87,11.87,0,0,0-5.25,1.76A156,156,0,0,0,158.2,382.63Z" fill="#7f5a50"/><path d="M88.14,366.14a157.11,157.11,0,0,0,133.76,3,12.77,12.77,0,0,0-5.31-1.32s-21.23,2.92-63.07,2.33C116.86,369.65,93.8,366.89,88.14,366.14Z" fill="#684e46"/><g id="Group_246-2" data-name="Group 246-2"><path id="Path_2774-2" data-name="Path 2774-2" d="M260.89,315H88.07a9,9,0,0,1-8.91-7.83l-10-107.36c-.5-5.35-1-9.71,4-9.71H275.9c5.07,0,4.38,4.37,3.88,9.71l-10,107.37a9,9,0,0,1-8.9,7.82" fill="#ffe266"/><path id="Path_2775-2" data-name="Path 2775-2" d="M91,298.94,83.73,209.6a4.39,4.39,0,0,1,3.82-4.9h0l.5,0H260.9a4.41,4.41,0,0,1,4.36,4.44h0c0,.17,0,.34,0,.5L258,298.94a4.67,4.67,0,0,1-4.64,4.15H95.6A4.67,4.67,0,0,1,91,298.94" fill="#175653"/><path id="Path_2776-2" data-name="Path 2776-2" d="M87.24,214.26,93.7,297a3.68,3.68,0,0,0,3.66,3.29H251.6a3.67,3.67,0,0,0,3.65-3.29l6.46-82.77a3.44,3.44,0,0,0-3-3.83,2.56,2.56,0,0,0-.39,0H90.64a3.46,3.46,0,0,0-3.42,3.48c0,.12,0,.25,0,.38" fill="#308482"/><path id="Path_2777-2" data-name="Path 2777-2" d="M86.62,232.58l-.26-3.18H262.93l-.25,3.18Z" fill="#175653"/><path id="Path_2778-2" data-name="Path 2778-2" d="M88.71,258.7l-.24-3H260.83l-.25,3Z" fill="#175653"/><path id="Path_2779-2" data-name="Path 2779-2" d="M90.7,283.62l-.23-2.89H258.82l-.24,2.89Z" fill="#175653"/><path id="Path_2780-2" data-name="Path 2780-2" d="M257.89,289.47H258l-1,12.93H243.23c.67-7.13,7.16-12.93,14.66-12.93" fill="#308482"/><path id="Path_2781-2" data-name="Path 2781-2" d="M90.8,289.47h-.06l1,12.93h13.68c-.66-7.13-7.15-12.93-14.66-12.93" fill="#308482"/><path id="Path_2782-2" data-name="Path 2782-2" d="M260.5,291.31h.06l-1.12,13.62H245c.71-7.51,7.58-13.62,15.51-13.62" fill="#ffe266"/><path id="Path_2783-2" data-name="Path 2783-2" d="M88.46,291.31h-.07l1.13,13.62H104c-.71-7.51-7.58-13.62-15.51-13.62" fill="#ffe266"/><path id="Path_2784-2" data-name="Path 2784-2" d="M80.76,199.09a3,3,0,0,1-2.53,3.32,2.07,2.07,0,0,1-.35,0,3.63,3.63,0,0,1-3.46-3.35,3,3,0,0,1,2.51-3.34,2.31,2.31,0,0,1,.37,0,3.63,3.63,0,0,1,3.46,3.37" fill="#f2ad22"/><path id="Path_2785-2" data-name="Path 2785-2" d="M274.38,199.09a3.64,3.64,0,0,1-3.47,3.35,3,3,0,0,1-2.91-3c0-.12,0-.23,0-.35a3.63,3.63,0,0,1,3.47-3.37,3,3,0,0,1,2.91,3c0,.12,0,.25,0,.37" fill="#f2ad22"/><path id="Path_2786-2" data-name="Path 2786-2" d="M95.15,302.4a3,3,0,0,1-2.78,3.22H92a3.64,3.64,0,0,1-3.63-3.22,3,3,0,0,1,2.75-3.24,2.17,2.17,0,0,1,.36,0,3.65,3.65,0,0,1,3.63,3.25" fill="#f2ad22"/><path id="Path_2787-2" data-name="Path 2787-2" d="M261,303.09a3.66,3.66,0,0,1-3.63,3.23,3,3,0,0,1-3.11-2.89v-.34a3.66,3.66,0,0,1,3.63-3.24,3,3,0,0,1,3.12,2.88h0c0,.12,0,.24,0,.36" fill="#f2ad22"/><path id="Path_2788-2" data-name="Path 2788-2" d="M184.71,232.05H164.25a10.21,10.21,0,0,1-10-10.18L154,208.05h41l-.25,13.82a10.22,10.22,0,0,1-10,10.18" fill="#308482"/><path id="Path_2789-2" data-name="Path 2789-2" d="M183.44,227.81H165.51a8.36,8.36,0,0,1-8.19-8.38L157,199.79a8.44,8.44,0,0,1,8.05-8.8h18.68a8.44,8.44,0,0,1,8.21,8.66.76.76,0,0,0,0,.15l-.3,19.64a8.38,8.38,0,0,1-8.2,8.38" fill="#ffe266"/><path id="Path_2790-2" data-name="Path 2790-2" d="M179.47,207.41a5,5,0,1,0-10-.55h0a5,5,0,0,0,0,.55,5.3,5.3,0,0,0,2.26,4.35l0,7.37a2.16,2.16,0,0,0,2.12,2.2h1.19a2.16,2.16,0,0,0,2.12-2.2h0l0-7.37a5.3,5.3,0,0,0,2.26-4.35" fill="#fff7ae"/><path id="Path_2791-2" data-name="Path 2791-2" d="M179.21,206.11a4.74,4.74,0,1,1-4.73-5,4.84,4.84,0,0,1,4.73,5h0v0" fill="#684e46"/><path id="Path_2792-2" data-name="Path 2792-2" d="M175,219.33h-1.13a2,2,0,0,1-2-2.08l0-10.7h5.19l0,10.7a2,2,0,0,1-2,2.08" fill="#684e46"/><path id="Path_2793-2" data-name="Path 2793-2" d="M151,193.53H75.64a1.31,1.31,0,0,1-.07-2.61H151a1.31,1.31,0,0,1,1.32,1.29,1.29,1.29,0,0,1-1.25,1.32H151" fill="#fff7ae"/><path id="Path_2794-2" data-name="Path 2794-2" d="M273.24,193.53H198.07a1.3,1.3,0,0,1,0-2.6h75.17a1.3,1.3,0,0,1,0,2.6" fill="#fff7ae"/><path id="Path_2795-2" data-name="Path 2795-2" d="M153.71,193.85a3.73,3.73,0,0,1,3.66-3.8h2.7a3.12,3.12,0,0,0-3.08,3l0,1.07.16,10.54H153.9Z" fill="#f2ad22"/><path id="Path_2796-2" data-name="Path 2796-2" d="M189.08,190.05h2.44a3.73,3.73,0,0,1,3.73,3.73v.07l-.19,10.81h-3.21l.17-10.84,0-.81a3,3,0,0,0-2.92-3" fill="#f2ad22"/><path id="Path_2797-2" data-name="Path 2797-2" d="M189.14,192.74H159.61a1.3,1.3,0,0,1,0-2.6h29.53a1.25,1.25,0,0,1,1.2,1.3s-.05,1.3-1.2,1.3" fill="#fff7ae"/></g><g id="close-2"><rect id="Rectangle_258-2" data-name="Rectangle 258-2" x="74.94" y="186.66" width="199.94" height="4.1" fill="#f2ad22"/><g id="Group_249-2" data-name="Group 249-2"><g clip-path="url(#clip-path)"><g id="Group_248-2" data-name="Group 248-2"><path id="Path_2798-2" data-name="Path 2798-2" d="M114.45,136.72h120c26.85,0,42.37,19.28,41.4,48.67H73.06c-1-29.38,14.55-48.67,41.39-48.67" fill="#308482"/><path id="Path_2799-2" data-name="Path 2799-2" d="M86.37,152.61l-.09-3.19H262.63l-.09,3.19Z" fill="#175653"/><path id="Path_2800-2" data-name="Path 2800-2" d="M233.46,136.72h-13c26.85,0,42.47,19.28,41.64,48.67h12.77c1-29.38-14.59-48.67-41.43-48.67" fill="#175653"/><path id="Path_2801-2" data-name="Path 2801-2" d="M237.88,135.37h-7.76a10.85,10.85,0,0,0-4.71,1.1l-.51.25c26.85,0,42.44,19.28,41.57,48.67h12.77c1-29.38-14.51-50-41.36-50" fill="#f8c744"/><path id="Path_2802-2" data-name="Path 2802-2" d="M116.76,136.72h13c-26.84,0-42.46,19.29-41.62,48.67H75.35c-1-29.38,14.57-48.67,41.41-48.67" fill="#175653"/><path id="Path_2803-2" data-name="Path 2803-2" d="M113.45,135.37h7.79a10.85,10.85,0,0,1,5.19,1.35C99.58,136.72,84,156,84.86,185.39H72.08c-1-29.38,14.52-50,41.37-50" fill="#f8c744"/><path id="Path_2804-2" data-name="Path 2804-2" d="M276.42,187.58H72.5a5.52,5.52,0,0,1-5.69-5L66.52,176a5,5,0,0,1,5-5H277.09a5,5,0,0,1,5.29,4.75,2.53,2.53,0,0,1,0,.28l-.29,6.65a5.5,5.5,0,0,1-5.68,5" fill="#ffe266"/><path id="Path_2805-2" data-name="Path 2805-2" d="M81,179a3,3,0,0,1-2.53,3.32l-.35,0A3.64,3.64,0,0,1,74.62,179a3,3,0,0,1,2.52-3.34h0a2.31,2.31,0,0,1,.37,0A3.63,3.63,0,0,1,81,179" fill="#f2ad22"/><path id="Path_2806-2" data-name="Path 2806-2" d="M277.38,178.6a3.63,3.63,0,0,1-3.46,3.35,3,3,0,0,1-2.92-3,2.16,2.16,0,0,1,0-.35,3.63,3.63,0,0,1,3.46-3.37,3,3,0,0,1,2.92,3,2.22,2.22,0,0,1,0,.37" fill="#f2ad22"/><path id="Path_2807-2" data-name="Path 2807-2" d="M277.39,173.56H71.52a1.29,1.29,0,0,1-1.43-1.16A1.3,1.3,0,0,1,71.26,171H277.39a1.3,1.3,0,1,1,.21,2.6h-.21" fill="#fff7ae"/></g></g></g></g></g><g id="_02" data-name="02"><path d="M313.85,318.52h312.9a156.74,156.74,0,0,0-312.9,0Z" fill="#e4efe7"/><path d="M313.55,328a156.75,156.75,0,1,0,310.24-31.92h-307A156.89,156.89,0,0,0,313.55,328Z" fill="#72917a"/><g id="黑板-2" data-name="黑板"><path d="M337.08,245.39H603.51a156.76,156.76,0,0,0-266.43,0Z" fill="#7f5a50"/><path d="M344.59,234.36H596a156.76,156.76,0,0,0-251.41,0Z" fill="none"/><path d="M345.6,233H595a156.73,156.73,0,0,0-249.39,0Z" fill="#003a29"/></g><path id="Path_2703" data-name="Path 2703" d="M444.08,291.75h75.53a9.62,9.62,0,0,1,9.63,9.61V421.85a9.63,9.63,0,0,1-9.63,9.62H444.08a9.62,9.62,0,0,1-9.62-9.62h0V301.37a9.62,9.62,0,0,1,9.62-9.62Z" fill="none" stroke="#d8b49c" stroke-miterlimit="10" stroke-width="3"/><path id="Path_2705" data-name="Path 2705" d="M601,345.57H366.77v-9.21l11.63-60.85H588.9L601,336.36v9.21Z" fill="#b37f43"/><path id="Path_2708" data-name="Path 2708" d="M601,336.36H366.77l11.63-70.05H588.9Z" fill="#f7d5ab"/><path id="Path_2713" data-name="Path 2713" d="M542.63,439.89s-25.82,3.49-62.64,3.49-62.64-3.49-62.64-3.49a12.4,12.4,0,0,1-12.4-12.4h0V380.35a12.4,12.4,0,0,1,12.4-12.4s22.76,3.1,63.54,3.1,61.73-3.1,61.73-3.1A12.41,12.41,0,0,1,555,380.36v47.13a12.4,12.4,0,0,1-12.4,12.4" fill="#7f5a50"/><path id="Path_2714" data-name="Path 2714" d="M543.53,445.47S517.71,449,480.89,449s-62.64-3.49-62.64-3.49a12.4,12.4,0,0,1-12.4-12.4V385.94a12.4,12.4,0,0,1,12.4-12.41s22.77,3.1,63.54,3.1,61.74-3.1,61.74-3.1a12.41,12.41,0,0,1,12.4,12.41v47.13a12.4,12.4,0,0,1-12.4,12.4" fill="#684e46"/><path d="M596.05,421.58l-3.27-16.44H353.57l-4.3,22.48a156.76,156.76,0,0,0,246.78-6Z" fill="#b37f43"/><path d="M592.78,394.68H353.57l-5.27,31.73a157.19,157.19,0,0,0,65.61,47.88H526.68a157.16,157.16,0,0,0,70.49-54.24Z" fill="#f7d5ab"/><path d="M601.31,312.08c.61-6.65,1.48-12.08-4.83-12.08H344.36c-6.32,0-5.64,5.43-5,12.07l10.85,116.64a157.59,157.59,0,0,0,28.73,26.65H561.67a157,157,0,0,0,28.79-26.72Z" fill="#ffe266"/><path id="Path_2775" data-name="Path 2775" d="M366.43,435.43l-9-111.12a5.47,5.47,0,0,1,4.75-6.1,4.4,4.4,0,0,1,.62,0h215a5.46,5.46,0,0,1,5.41,5.52h0c0,.21,0,.41,0,.62l-9,111.12a5.79,5.79,0,0,1-5.77,5.16H372.2a5.8,5.8,0,0,1-5.77-5.16" fill="#175653"/><path id="Path_2776" data-name="Path 2776" d="M361.81,330.1l8,103a4.57,4.57,0,0,0,4.54,4.09H566.25a4.58,4.58,0,0,0,4.55-4.09l8-103a4.28,4.28,0,0,0-3.74-4.76l-.48,0H366a4.28,4.28,0,0,0-4.25,4.31,3.87,3.87,0,0,0,0,.48" fill="#308482"/><path id="Path_2777" data-name="Path 2777" d="M361,352.89l-.31-3.95H580.35l-.32,3.95Z" fill="#175653"/><path id="Path_2778" data-name="Path 2778" d="M363.63,385.39l-.3-3.76h214.4l-.3,3.76Z" fill="#175653"/><path id="Path_2779" data-name="Path 2779" d="M366.11,416.38l-.29-3.59H575.23l-.29,3.59Z" fill="#175653"/><path id="Path_2780" data-name="Path 2780" d="M574.08,423.66h.08l-1.29,16.08h-17c.82-8.87,8.89-16.08,18.23-16.08" fill="#308482"/><path id="Path_2782" data-name="Path 2782" d="M577.32,426h.08L576,442.89H558c.88-9.34,9.43-16.95,19.29-16.95" fill="#ffe266"/><path id="Path_2785" data-name="Path 2785" d="M594.59,311.23a4.53,4.53,0,0,1-4.31,4.17,3.68,3.68,0,0,1-3.63-3.73,3.25,3.25,0,0,1,0-.44A4.52,4.52,0,0,1,591,307a3.69,3.69,0,0,1,3.63,3.74,3.4,3.4,0,0,1,0,.45" fill="#f2ad22"/><path id="Path_2787" data-name="Path 2787" d="M578,440.6a4.53,4.53,0,0,1-4.51,4A3.73,3.73,0,0,1,569.6,441a3,3,0,0,1,0-.42,4.54,4.54,0,0,1,4.51-4,3.73,3.73,0,0,1,3.87,3.59,2.26,2.26,0,0,1,0,.45" fill="#f2ad22"/><path id="Path_2788" data-name="Path 2788" d="M483.05,352.23H457.6a12.7,12.7,0,0,1-12.45-12.66l-.32-17.2h51l-.31,17.2a12.7,12.7,0,0,1-12.45,12.66" fill="#308482"/><path id="Path_2789" data-name="Path 2789" d="M481.47,347h-22.3A10.42,10.42,0,0,1,449,336.54l-.37-24.43c-.1-6,4.47-11,10.2-11h23.05c5.72,0,10.29,4.93,10.2,11l-.38,24.43A10.42,10.42,0,0,1,481.47,347" fill="#ffe266"/><path id="Path_2790" data-name="Path 2790" d="M476.53,321.58a6.21,6.21,0,1,0-12.41-.68c0,.22,0,.45,0,.68a6.6,6.6,0,0,0,2.81,5.42l0,9.17a2.7,2.7,0,0,0,2.64,2.73h1.48a2.7,2.7,0,0,0,2.64-2.73l0-9.17a6.59,6.59,0,0,0,2.8-5.42" fill="#fff7ae"/><path id="Path_2791" data-name="Path 2791" d="M476.21,320a5.9,5.9,0,1,1-5.89-6.22,6.06,6.06,0,0,1,5.9,6.2v0" fill="#684e46"/><path id="Path_2792" data-name="Path 2792" d="M471,336.42h-1.42a2.54,2.54,0,0,1-2.49-2.59l0-13.32h6.46l0,13.31a2.54,2.54,0,0,1-2.49,2.59" fill="#684e46"/><path id="Path_2793" data-name="Path 2793" d="M441.06,304.32H347.38a1.62,1.62,0,1,1-.09-3.24h93.77a1.62,1.62,0,0,1,.08,3.24h-.08" fill="#fff7ae"/><path id="Path_2794" data-name="Path 2794" d="M593.18,304.32H499.67a1.62,1.62,0,0,1,0-3.24h93.51a1.62,1.62,0,0,1,0,3.24" fill="#fff7ae"/><path id="Path_2795" data-name="Path 2795" d="M444.49,304.72a4.65,4.65,0,0,1,4.56-4.73h3.35a3.88,3.88,0,0,0-3.83,3.76l0,1.32.2,13.11h-4Z" fill="#f2ad22"/><path id="Path_2796" data-name="Path 2796" d="M488.49,300h3a4.65,4.65,0,0,1,4.65,4.64v.09l-.25,13.44h-4l.2-13.48v-1a3.77,3.77,0,0,0-3.63-3.68" fill="#f2ad22"/><path id="Path_2797" data-name="Path 2797" d="M488.56,303.34H451.83a1.62,1.62,0,0,1,0-3.24h36.73a1.55,1.55,0,0,1,1.5,1.61h0s-.07,1.62-1.5,1.62" fill="#fff7ae"/><g id="close"><rect id="Rectangle_258" data-name="Rectangle 258" x="346.51" y="294.56" width="248.7" height="5.1" fill="#f2ad22"/><g id="Group_249" data-name="Group 249"><g clip-path="url(#clip-path-2)"><g id="Group_248" data-name="Group 248"><path id="Path_2798" data-name="Path 2798" d="M395.66,232.44H544.93c33.4,0,52.71,24,51.5,60.54H344.16c-1.21-36.55,18.1-60.54,51.5-60.54" fill="#308482"/><path id="Path_2799" data-name="Path 2799" d="M360.73,252.2l-.11-4H580l-.1,4Z" fill="#175653"/><path id="Path_2800" data-name="Path 2800" d="M543.69,232.44H527.54c33.4,0,52.83,24,51.8,60.54h15.89c1.19-36.55-18.15-60.54-51.54-60.54" fill="#175653"/><path id="Path_2801" data-name="Path 2801" d="M549.19,230.76h-9.66a13.33,13.33,0,0,0-5.85,1.37l-.64.31c33.39,0,52.79,24,51.71,60.54h15.89c1.23-36.55-18.06-62.22-51.45-62.22" fill="#f8c744"/><path id="Path_2802" data-name="Path 2802" d="M398.53,232.44h16.15c-33.39,0-52.82,24-51.78,60.54H347c-1.2-36.55,18.13-60.54,51.52-60.54" fill="#175653"/><path id="Path_2803" data-name="Path 2803" d="M394.41,230.76h9.69a13.52,13.52,0,0,1,6.46,1.68c-33.4,0-52.8,24-51.71,60.54H343c-1.23-36.55,18.06-62.22,51.46-62.22" fill="#f8c744"/><path id="Path_2804" data-name="Path 2804" d="M597.12,295.71H343.47c-3.77,0-6.93-2.77-7.08-6.19l-.36-8.28c-.15-3.45,2.8-6.25,6.59-6.25H598c3.78,0,6.73,2.8,6.59,6.25l-.36,8.28c-.14,3.42-3.31,6.19-7.08,6.19" fill="#ffe266"/><path id="Path_2805" data-name="Path 2805" d="M354,285.06a3.67,3.67,0,0,1-3.16,4.13,3.15,3.15,0,0,1-.44,0,4.5,4.5,0,0,1-4.3-4.16,3.67,3.67,0,0,1,3.12-4.16h0a3.55,3.55,0,0,1,.46,0,4.52,4.52,0,0,1,4.31,4.19" fill="#f2ad22"/><path id="Path_2806" data-name="Path 2806" d="M598.32,284.54A4.52,4.52,0,0,1,594,288.7a3.68,3.68,0,0,1-3.63-3.73c0-.14,0-.29,0-.43a4.52,4.52,0,0,1,4.31-4.2,3.69,3.69,0,0,1,3.63,3.74,3.57,3.57,0,0,1,0,.46" fill="#f2ad22"/><path id="Path_2807" data-name="Path 2807" d="M598.34,278.27H342.26A1.62,1.62,0,1,1,342,275H598.34a1.62,1.62,0,0,1,.19,3.24h-.19" fill="#fff7ae"/></g></g></g></g><path id="Path_2781" data-name="Path 2781" d="M366.24,423.66h-.08l1.29,16.07h17c-.82-8.86-8.9-16.07-18.23-16.07" fill="#308482"/><path id="Path_2783" data-name="Path 2783" d="M363.32,426h-.08l1.4,16.94h18c-.89-9.34-9.44-16.95-19.3-16.95" fill="#ffe266"/><path id="Path_2784" data-name="Path 2784" d="M353.75,311.23a3.68,3.68,0,0,1-3.16,4.14,3.11,3.11,0,0,1-.43,0,4.51,4.51,0,0,1-4.31-4.17,3.66,3.66,0,0,1,3.13-4.15h0a3.57,3.57,0,0,1,.46,0,4.51,4.51,0,0,1,4.31,4.19" fill="#f2ad22"/><path id="Path_2786" data-name="Path 2786" d="M371.64,439.74a3.72,3.72,0,0,1-3.44,4,3,3,0,0,1-.42,0,4.54,4.54,0,0,1-4.52-4,3.73,3.73,0,0,1,3.42-4,2.26,2.26,0,0,1,.45,0,4.52,4.52,0,0,1,4.51,4" fill="#f2ad22"/></g><g id="_03" data-name="03"><path d="M784.94,78.24A156.76,156.76,0,0,0,652.3,318.52H917.59A156.76,156.76,0,0,0,784.94,78.24Z" fill="#e4efe7"/><path d="M640.56,296.09a156.81,156.81,0,0,0,288.77,0Z" fill="#72917a"/><g id="黑板-3" data-name="黑板"><path d="M806,79.65A156.82,156.82,0,0,0,628.2,235q0,5.25.35,10.41H806V79.65Z" fill="#7f5a50"/><path d="M795,234.36V78.57c-3.33-.21-6.69-.33-10.08-.33A156.73,156.73,0,0,0,628.21,234.36Z" fill="#684e46"/><path d="M792.39,233V78.42q-3.71-.18-7.45-.18A156.74,156.74,0,0,0,628.22,233Z" fill="#003a29"/></g><path d="M815.28,294.08H739.75a11.05,11.05,0,0,0-6.36,2h88.24A11,11,0,0,0,815.28,294.08Z" fill="#d8b49c"/><path d="M821.63,296.09H733.39a11.11,11.11,0,0,0-4.77,9.12V381.3a157.42,157.42,0,0,0,97.78,4.88v-81A11.1,11.1,0,0,0,821.63,296.09Zm-36.69,94.14a154.78,154.78,0,0,1-53.32-9.41V305.2a8.14,8.14,0,0,1,8.12-8.12h75.53a8.14,8.14,0,0,1,8.13,8.12v80.22A155.83,155.83,0,0,1,784.94,390.23Z" fill="#d8b49c"/><path d="M784.94,391.73a156,156,0,0,0,87.15-26.45,11.73,11.73,0,0,0-4.46-1.31,11.92,11.92,0,0,0-1.46,0s-24.31,3.67-66.92,4.3C757.3,368.86,736,366,736,366a12.93,12.93,0,0,0-12.54,13v.26A156.29,156.29,0,0,0,784.94,391.73Z" fill="#7f5a50"/><path d="M799.59,374c-41.84.58-63.07-2.33-63.07-2.33a12.86,12.86,0,0,0-11.63,8.15A157,157,0,0,0,864.56,370C858.25,370.84,835.4,373.48,799.59,374Z" fill="#684e46"/><path d="M896,345.56a155.55,155.55,0,0,0,13.47-15.42l-41.62-54.63-208.64-9.2-1.85,9.2,20.75,70.05Z" fill="#b37f43"/><path d="M659.23,266.31,680,336.36h224.5q2.81-3.32,5.44-6.78l-40.19-63.27Z" fill="#f7d5ab"/><g id="箱底-3"><g clip-path="url(#clip-path-3)"><g id="Group_246-3" data-name="Group 246-3"><path id="Path_2774-3" data-name="Path 2774-3" d="M868.33,315H695.52a9,9,0,0,1-8.91-7.83l-10-107.36c-.49-5.35-1-9.71,4-9.71H883.35c5.07,0,4.37,4.37,3.88,9.71l-10,107.37a9,9,0,0,1-8.91,7.82" fill="#ffe266"/><path id="Path_2775-3" data-name="Path 2775-3" d="M698.4,298.94l-7.22-89.34a4.39,4.39,0,0,1,3.82-4.9h0l.5,0H868.35a4.39,4.39,0,0,1,4.35,4.44h0a4.07,4.07,0,0,1,0,.5l-7.23,89.34a4.67,4.67,0,0,1-4.64,4.15H703a4.67,4.67,0,0,1-4.64-4.15" fill="#175653"/><path id="Path_2776-3" data-name="Path 2776-3" d="M694.69,214.26,701.15,297a3.67,3.67,0,0,0,3.65,3.28H859.05A3.66,3.66,0,0,0,862.7,297l6.46-82.77a3.44,3.44,0,0,0-3-3.83,2.34,2.34,0,0,0-.38,0H698.08a3.44,3.44,0,0,0-3.41,3.47c0,.13,0,.26,0,.39" fill="#308482"/><path id="Path_2777-3" data-name="Path 2777-3" d="M694.06,232.58l-.25-3.18H870.38l-.25,3.18Z" fill="#175653"/><path id="Path_2778-3" data-name="Path 2778-3" d="M696.15,258.7l-.24-3H868.27l-.24,3Z" fill="#175653"/><path id="Path_2779-3" data-name="Path 2779-3" d="M698.14,283.62l-.23-2.89H866.26l-.23,2.89Z" fill="#175653"/><path id="Path_2780-3" data-name="Path 2780-3" d="M865.34,289.47h.06l-1,12.93H850.68c.66-7.13,7.15-12.93,14.66-12.93" fill="#308482"/><path id="Path_2781-3" data-name="Path 2781-3" d="M698.25,289.47h-.06l1,12.93h13.69c-.67-7.13-7.16-12.93-14.66-12.93" fill="#308482"/><path id="Path_2782-3" data-name="Path 2782-3" d="M867.94,291.31H868l-1.13,13.62H852.43c.72-7.51,7.59-13.62,15.52-13.62" fill="#ffe266"/><path id="Path_2783-3" data-name="Path 2783-3" d="M695.91,291.31h-.07L697,304.93h14.45c-.72-7.51-7.59-13.62-15.52-13.62" fill="#ffe266"/><path id="Path_2784-3" data-name="Path 2784-3" d="M688.21,199.09a3,3,0,0,1-2.53,3.32l-.35,0a3.64,3.64,0,0,1-3.47-3.35,3,3,0,0,1,2.52-3.34,2.22,2.22,0,0,1,.37,0,3.63,3.63,0,0,1,3.46,3.37" fill="#f2ad22"/><path id="Path_2785-3" data-name="Path 2785-3" d="M881.82,199.09a3.63,3.63,0,0,1-3.46,3.35,3,3,0,0,1-2.92-3,2,2,0,0,1,0-.35,3.63,3.63,0,0,1,3.46-3.37,3,3,0,0,1,2.92,3,2.31,2.31,0,0,1,0,.37" fill="#f2ad22"/><path id="Path_2786-3" data-name="Path 2786-3" d="M702.6,302.4a3,3,0,0,1-2.78,3.22h-.33a3.63,3.63,0,0,1-3.63-3.22,3,3,0,0,1,2.75-3.24,2.17,2.17,0,0,1,.36,0,3.65,3.65,0,0,1,3.63,3.25" fill="#f2ad22"/><path id="Path_2787-3" data-name="Path 2787-3" d="M868.48,303.09a3.66,3.66,0,0,1-3.63,3.23,3,3,0,0,1-3.11-2.89,1.93,1.93,0,0,1,0-.34,3.66,3.66,0,0,1,3.63-3.24,3,3,0,0,1,3.11,2.88h0a2.16,2.16,0,0,1,0,.36" fill="#f2ad22"/><path id="Path_2788-3" data-name="Path 2788-3" d="M792.16,232.05H771.7a10.21,10.21,0,0,1-10-10.18l-.26-13.82h41l-.26,13.82a10.21,10.21,0,0,1-10,10.18" fill="#308482"/><path id="Path_2789-3" data-name="Path 2789-3" d="M790.89,227.81H773a8.37,8.37,0,0,1-8.2-8.38l-.3-19.64a8.43,8.43,0,0,1,8-8.8h18.68a8.43,8.43,0,0,1,8.2,8.66v.15l-.3,19.64a8.38,8.38,0,0,1-8.2,8.38" fill="#ffe266"/><path id="Path_2790-3" data-name="Path 2790-3" d="M786.92,207.41a5,5,0,1,0-10-.55h0a5,5,0,0,0,0,.55,5.28,5.28,0,0,0,2.26,4.35l0,7.37a2.15,2.15,0,0,0,2.11,2.2h1.2a2.16,2.16,0,0,0,2.12-2.2h0v-7.37a5.25,5.25,0,0,0,2.26-4.35" fill="#fff7ae"/><path id="Path_2791-3" data-name="Path 2791-3" d="M786.66,206.11a4.74,4.74,0,1,1-4.74-5,4.85,4.85,0,0,1,4.74,5h0v0" fill="#684e46"/><path id="Path_2792-3" data-name="Path 2792-3" d="M782.49,219.33h-1.14a2,2,0,0,1-2-2.08l0-10.7h5.2l0,10.7a2.05,2.05,0,0,1-2,2.08" fill="#684e46"/><path id="Path_2793-3" data-name="Path 2793-3" d="M758.4,193.53H683.08a1.31,1.31,0,0,1-.06-2.61H758.4a1.31,1.31,0,0,1,.06,2.61h-.06" fill="#fff7ae"/><path id="Path_2794-3" data-name="Path 2794-3" d="M880.69,193.53H805.52a1.31,1.31,0,0,1-1.27-1.34,1.29,1.29,0,0,1,1.27-1.26h75.17a1.3,1.3,0,0,1,0,2.6" fill="#fff7ae"/><path id="Path_2795-3" data-name="Path 2795-3" d="M761.16,193.85a3.73,3.73,0,0,1,3.66-3.8h2.7a3.12,3.12,0,0,0-3.08,3l0,1.07.16,10.54h-3.22Z" fill="#f2ad22"/><path id="Path_2796-3" data-name="Path 2796-3" d="M796.53,190.05H799a3.73,3.73,0,0,1,3.73,3.73v.07l-.2,10.81h-3.2l.16-10.84V193a3,3,0,0,0-2.92-3" fill="#f2ad22"/><path id="Path_2797-3" data-name="Path 2797-3" d="M796.58,192.74H767.06a1.3,1.3,0,0,1,0-2.6h29.52a1.25,1.25,0,0,1,1.21,1.3s0,1.3-1.21,1.3" fill="#fff7ae"/></g></g></g><g id="close-3"><rect id="Rectangle_258-3" data-name="Rectangle 258-3" x="682.39" y="186.66" width="199.94" height="4.1" fill="#f2ad22"/><g id="Group_249-3" data-name="Group 249-3"><g clip-path="url(#clip-path-4)"><g id="Group_248-3" data-name="Group 248-3"><path id="Path_2798-3" data-name="Path 2798-3" d="M721.9,136.72h120c26.84,0,42.37,19.28,41.4,48.67H680.5c-1-29.38,14.55-48.67,41.4-48.67" fill="#308482"/><path id="Path_2799-3" data-name="Path 2799-3" d="M693.82,152.61l-.09-3.19H870.07l-.08,3.19Z" fill="#175653"/><path id="Path_2800-3" data-name="Path 2800-3" d="M840.91,136.72h-13c26.84,0,42.47,19.28,41.64,48.67h12.77c.95-29.38-14.59-48.67-41.43-48.67" fill="#175653"/><path id="Path_2801-3" data-name="Path 2801-3" d="M845.33,135.37h-7.76a10.79,10.79,0,0,0-4.71,1.1l-.51.25c26.84,0,42.44,19.28,41.57,48.67h12.77c1-29.38-14.52-50-41.36-50" fill="#f8c744"/><path id="Path_2802-3" data-name="Path 2802-3" d="M724.21,136.72h13c-26.84,0-42.46,19.29-41.62,48.67H682.8c-1-29.38,14.57-48.67,41.41-48.67" fill="#175653"/><path id="Path_2803-3" data-name="Path 2803-3" d="M720.89,135.37h7.79a10.79,10.79,0,0,1,5.19,1.35c-26.84,0-42.43,19.28-41.56,48.67H679.53c-1-29.38,14.52-50,41.36-50" fill="#f8c744"/><path id="Path_2804-3" data-name="Path 2804-3" d="M883.86,187.58H679.94a5.52,5.52,0,0,1-5.68-5L674,176a5,5,0,0,1,5-5H884.54a5,5,0,0,1,5.29,4.75,2.53,2.53,0,0,1,0,.28l-.29,6.65a5.5,5.5,0,0,1-5.69,5" fill="#ffe266"/><path id="Path_2805-3" data-name="Path 2805-3" d="M688.42,179a3,3,0,0,1-2.54,3.32,2,2,0,0,1-.35,0,3.63,3.63,0,0,1-3.46-3.35,3,3,0,0,1,2.51-3.34h0a2.22,2.22,0,0,1,.37,0,3.63,3.63,0,0,1,3.46,3.37" fill="#f2ad22"/><path id="Path_2806-3" data-name="Path 2806-3" d="M884.83,178.6a3.64,3.64,0,0,1-3.47,3.35,3,3,0,0,1-2.91-3c0-.11,0-.23,0-.35a3.63,3.63,0,0,1,3.47-3.37,3,3,0,0,1,2.92,3l0,.37" fill="#f2ad22"/><path id="Path_2807-3" data-name="Path 2807-3" d="M884.84,173.56H679a1.3,1.3,0,1,1-.27-2.59H884.84a1.3,1.3,0,1,1,.21,2.6h-.21" fill="#fff7ae"/></g></g></g></g></g><g id="tip"><path d="M210,13.59H194.28V10.22H210Zm-1.28,5.82H195.37V16.13h13.32Zm-13.28,2.86h13.33v3.28H195.41Zm13.24,19.65H199.1v1.91h-3.6V28.55h13.15V41.92Zm-9.55-10v6.59H205V31.92Zm2.45-21.84a43.67,43.67,0,0,0-2.18-6.18l3.55-1a43.56,43.56,0,0,1,2.41,6Zm31.8,30.3c0,1.86-.41,2.86-1.73,3.41s-3.32.63-6.14.59A13.31,13.31,0,0,0,224.29,41c1.91.09,3.78.09,4.32,0s.78-.18.78-.68v-3H216.06a15.19,15.19,0,0,1-3.27,7.59,14.08,14.08,0,0,0-3-2.72c2.68-3.28,3-7.74,3-11.28V22.73h20.55V40.38Zm2.41-23.16v3.19H210.38V17.22h10.37V14.68h-8.69v-3h8.69V9.35H211V6.26h9.78V2.76h4.09v3.5h10.42V9.35H224.84v2.32h9.55v3h-9.55v2.54Zm-6.37,17.24V31.64H216.61c0,.87-.05,1.87-.14,2.82ZM216.61,26v2.77h12.78V26Z" fill="#fff"/><path d="M239.21,42.65a25.76,25.76,0,0,0,2.92-8.32l2.82,1a27.52,27.52,0,0,1-2.73,8.51Zm21-9.87H240.17V29.46h8.14v-3H241V23.18h7.32V20.64h-7.18V4.26h18.33V20.64H252v2.54h7.55V26.5H252v3h8.19Zm-15.88-15.1h4.42V7.22h-4.42Zm2.28-8.87a33.09,33.09,0,0,1,1.45,6.6L246,16a30.33,30.33,0,0,0-1.32-6.73ZM249,35.1a39.85,39.85,0,0,1,.68,7.82l-2.82.37a36.62,36.62,0,0,0-.54-7.87Zm4.5-.23a36.13,36.13,0,0,1,2,7.28l-2.73.63a32.22,32.22,0,0,0-1.82-7.41Zm2.69-27.65H251.5V17.68h4.64Zm-4.28,8.37a56.33,56.33,0,0,0,1.86-6.92l2.32.87c-.86,2.23-1.72,5-2.5,6.68Zm6.19,18.74a28.52,28.52,0,0,1,3.09,7.09l-2.77,1a29.14,29.14,0,0,0-3-7.19Zm14-18.06v7.82h7.55V44.24h-4V42.47h-10.1v2h-3.82V24.09h6.27V2.76H272v9.6h9.23v3.91Zm3.55,11.64h-10.1V38.6h10.1Z" fill="#fff"/><path d="M296.66,24.91a48.09,48.09,0,0,1-2.31,9.55c2.72,4.92,8.23,5.64,16.32,5.64,4.82,0,11.79-.22,16.61-.68a12.73,12.73,0,0,0-1.37,4c-4.46.27-10.19.41-15.28.41-8.83,0-14.33-.91-17.88-5.82a20.39,20.39,0,0,1-5.46,6.59,13.66,13.66,0,0,0-2.77-2.86c3.87-2.73,6.6-7.51,8-14.1h-3.59a4.78,4.78,0,0,0-2.64.68,16.85,16.85,0,0,0-1.41-3.55,4,4,0,0,0,2.09-1.41,56.89,56.89,0,0,0,4.14-6.69h-5.64V13.22h7.91l.55-.22,2.68,1c-1.55,2.55-4.14,7.14-6.23,10.24h3.59l.69-.1Zm-4.73-12.83a77.85,77.85,0,0,0-5.82-7.23l3.14-1.95a68.77,68.77,0,0,1,5.87,6.82Zm4.87,19.61V28.5h7.73V24.91h-6V21.73h6V18.86h3.87v2.87h6.14V18.86h3.91v2.87h6.1v3.18h-6.1V28.5h7.69v3.19ZM310.67,14a21.05,21.05,0,0,0-.45,3c-9.64,1.64-11.1,2-11.87,2.37a17.18,17.18,0,0,0-1.41-3.23c.59-.28,1.27-1,1.27-2.69v-9h12.24v8.1h-8.92v2.91Zm-.91,19.1a35.81,35.81,0,0,1-9,5.73,19.89,19.89,0,0,0-3.23-2.54A28.09,28.09,0,0,0,306,31.73Zm-8.23-26V9.67h5.32V7.08ZM308.4,28.5h6.14V24.91H308.4Zm8.46-10.37c-3.5,0-4.37-1.32-4.37-4.73v-9H325v8.09h-9.1v1c0,1.23.18,1.69,1.18,1.69h5.51a15.06,15.06,0,0,0,3-.28c.09.91.23,2.19.32,3a12.46,12.46,0,0,1-3.23.27Zm4.68,20.47a44.89,44.89,0,0,0-8-5.05l2.77-1.86a54.87,54.87,0,0,1,9,5.09ZM315.86,7.13V9.72h5.5V7.13Z" fill="#fff"/><path d="M345.74,4.35a75.1,75.1,0,0,1-4.68,9.37V44.33h-4.19V20a46,46,0,0,1-4.73,5.37A28.91,28.91,0,0,0,329.6,21,49.37,49.37,0,0,0,341.56,3Zm14.42,21.74V38.74h11.23v4H344.83v-4h11.05V26.09H343.47V22h12.41V11h-9.59v-4h24.29v4H360.16V22H372.4v4.09Z" fill="#fff"/><path d="M417.61,20.82v4.64H376.22V20.82Z" fill="#fff"/><path d="M450.59,38.51c4.32,1.14,8.68,2.46,11.5,3.5l-3.68,2.5a123.54,123.54,0,0,0-13.55-4.41l1.91-1.59h-9.46L439.49,40a57.94,57.94,0,0,1-14.83,4.45,24.43,24.43,0,0,0-2.55-2.82,66.07,66.07,0,0,0,12.15-3.09H428V23.82h29.29V38.51ZM425.8,12.13H423V5.53h17.19a20,20,0,0,0-1.05-2.27l4.19-1A19.78,19.78,0,0,1,445,5.53H461.6v6.6h-3.46v1.41h-5.46v1.64h8V17.5h-8v2.63h3.41V18h3.19v4.42H442.81V18h3.1v2.09h3.22V17.5h-7.64V15.18H443A8.48,8.48,0,0,0,441.22,14,14.11,14.11,0,0,0,445,9.17l3,.46c-.27.5-.54,1-.81,1.59H457.6V8.9H426.85v2h13.78v2.54H435v1.82h5v2.28h-5v1.73l5.82-.32v2.73c-6.05.45-12.33.86-16.79,1.09l-.31-2.91c2.13-.09,4.82-.23,7.77-.41V17.59h-5.18V15.32h5.18V13.5H425.8V12.13ZM432.12,28H453V26.23H432.12Zm0,4.09H453V30.23H432.12Zm0,4.09H453V34.28H432.12Zm17-22.6h-3.45a17.77,17.77,0,0,1-1.51,1.64h5Z" fill="#fff"/><path d="M479.66,25.64c1.95,1.68,6.09,5.55,7.14,6.55l-2.73,3.37c-.91-1.32-2.73-3.51-4.42-5.46V44.52h-4V30.73a43.22,43.22,0,0,1-6.37,9,16.9,16.9,0,0,0-2.68-3.27c3-2.64,6.27-7.6,8.23-12.1H468V20.46h7.65V15.63h4v4.83h6.74v3.86h-6.74v1.32ZM474.42,9.81a36.31,36.31,0,0,1-4.59,5.69,23.24,23.24,0,0,0-3.19-2.82,27,27,0,0,0,7.05-10.15l4,1.09c-.36.87-.77,1.73-1.14,2.6h10.92V9.81h-7.82A28,28,0,0,1,483.79,14L481,16.54a27.73,27.73,0,0,0-4.51-5l2.05-1.73Zm33.8-3.5V9.86H500a40,40,0,0,1,4.23,4.23l-2.68,2.54a40.41,40.41,0,0,0-5-5.23l1.78-1.54h-4.69a30.86,30.86,0,0,1-4.23,5.59A22,22,0,0,0,485.89,13a25.18,25.18,0,0,0,6.59-10.51l4.14,1c-.32,1-.68,1.86-1.09,2.82Zm-20.56,11h19V44.1h-4.28V42.51H491.71v1.87h-4Zm4,3.73v3.77h10.64V21Zm10.64,10.87V28H491.71v3.87Zm0,7.19v-4H491.71v4Z" fill="#fff"/><path d="M525,25a43,43,0,0,1-2.82,10c2.91,4.46,8.19,5.14,15.92,5.14,4.78,0,11.74-.22,16.56-.68a11.79,11.79,0,0,0-1.37,4c-4.41.27-10.14.41-15.23.41-8.6,0-14-.91-17.51-5.6a20.27,20.27,0,0,1-6,6.37,13.68,13.68,0,0,0-2.78-2.86c4.32-2.64,7.37-7.42,8.92-14.1h-4.46a4.78,4.78,0,0,0-2.73.68,21.47,21.47,0,0,0-1.45-3.6,4.19,4.19,0,0,0,2.23-1.4,62.24,62.24,0,0,0,5.13-6.69h-6.64V13.18h9.33l.54-.23,2.64,1.23c-1.77,2.55-4.91,7-7.41,10.1h4.32l.68-.1Zm-5-13.06a70.59,70.59,0,0,0-5.83-7.23l3.19-2a72.24,72.24,0,0,1,5.87,6.87Zm8.46,5.78a39.74,39.74,0,0,1-3.14,3.86,22.14,22.14,0,0,0-2.23-3.36A42.58,42.58,0,0,0,531.92,3l3.54,1a62.27,62.27,0,0,1-2.54,6h8a32.76,32.76,0,0,0-2.6-5.64l3.55-1.05A40.83,40.83,0,0,1,544.92,10h7.65v3.41H543.1v4h8v3.27h-8v4h8v3.28h-8v4.13h10.33v3.51H528.5V17.68Zm10.87-4.23h-7.1v4h7.1Zm0,7.23h-7.1v4h7.1Zm0,7.23h-7.1v4.14h7.1Z" fill="#fff"/><path d="M573.81,13.9a60.37,60.37,0,0,1-5,7v23.7h-4.23v-19a58.71,58.71,0,0,1-4.5,4.09,24,24,0,0,0-2.91-3.59,48.32,48.32,0,0,0,12.6-13.65Zm-1.73-9.55a59.87,59.87,0,0,1-12,11.51,18.84,18.84,0,0,0-2.41-3.41A41.08,41.08,0,0,0,568,2.67Zm27.29,17.47h-6.55V39.33c0,2.41-.54,3.64-2.27,4.32s-4.37.68-8.6.68a16.93,16.93,0,0,0-1.36-4.23c2.91.09,6,.09,6.77,0s1.14-.23,1.14-.87V21.82H574.13V17.77h25.24v4.05ZM598.1,9.4H576V5.35H598.1Z" fill="#fff"/><path d="M618.75,26c-1.77.55-3.5,1.05-5.23,1.55V39.83c0,2.14-.45,3.23-1.73,3.87s-3.27.77-6.32.72a14.85,14.85,0,0,0-1.23-3.82c1.91.09,3.82.09,4.37,0s.86-.18.86-.87v-11c-2,.54-3.77,1.09-5.5,1.59l-1.05-4.09,6.55-1.69V15.5h-5.91V11.58h5.91V2.76h4v8.82h4.73V15.5h-4.73v8l4.73-1.32Zm25.52-13V44.06H640V41.15H623.62v3.23h-4V13h10.1V2.81h4V13ZM623.62,17v7.86h6.09V17Zm0,20.1h6.09V28.78h-6.09ZM633.71,17v7.86H640V17ZM640,37.1V28.78h-6.33V37.1Z" fill="#fff"/><path d="M674.88,35c5.37,1.91,12.1,4.46,15.83,6.14l-2,3.37c-4-2-12-5.23-17.74-7.37L672.38,35H670.6c-2,3.78-7,7.64-19.46,9.69a20.48,20.48,0,0,0-2.41-3.46c9.5-1.45,14.28-3.82,16.64-6.23H649.09v-3.5h18.24a9.3,9.3,0,0,0,.14-1.5V27.09h4.18v3a7.64,7.64,0,0,1-.09,1.41h8.69a31.49,31.49,0,0,0-3.32-2.64l1.45-1.41h-1.64a10.46,10.46,0,0,0-1.13-3.18c1.82.09,3.59.09,4.09.05s.69-.14.69-.64V20h-9.24a17.37,17.37,0,0,1,4,3.41l-2.72,2.23a20.86,20.86,0,0,0-4.74-4.23L669.51,20h-5V17.14H666a9.33,9.33,0,0,0-1.55-2.37A45.49,45.49,0,0,0,676.52,12a32.57,32.57,0,0,0-4-3.86c-1.73.68-3.59,1.31-5.59,1.91a9.85,9.85,0,0,0-2.19-2.41c5.46-1.28,9.64-3.1,12-5l3.55.82C679.61,3.9,679,4.45,678.2,5h7.41l.69-.13L688.53,6c-3.82,6.73-12.15,9.69-21.2,11.1h13.06V14h4v3.19h5.46V20h-5.46v3.78c0,1.82-.37,2.63-1.64,3.13a9.73,9.73,0,0,1-3.09.46,28.88,28.88,0,0,1,3.77,3.05l-1,1h8.1V35ZM656,20c0,2.23-.68,6.46-3.73,9.06A22.66,22.66,0,0,0,649,27.09a9.14,9.14,0,0,0,3.23-7.27v-.14h-3V16.36h9.87v-3h-7.87V3.85h3.55V10h4.32V2.85H663V28.46h-3.82V19.68H656V20Zm17.24-7.59c-2.5.27-4.82.45-7,.68l-.36-2.37c2.09-.09,4.5-.27,7.37-.45Zm2.41-4.87a26.89,26.89,0,0,1,3.51,3.28,17.87,17.87,0,0,0,4.27-3.28Z" fill="#fff"/><g style="isolation:isolate"><path d="M749.31,28.59a8.67,8.67,0,0,0-1.76-.65c-.2.23,0,.39.07.52.51.88,1,1.75,1.59,2.6a10,10,0,0,1,1.42,3.05,17.17,17.17,0,0,1,.32,1.74c.12.81.24,1.62.33,2.44a4.65,4.65,0,0,1-.52,2.72,5.27,5.27,0,0,1-1.1,1.38A12.73,12.73,0,0,1,748,43.48a2.42,2.42,0,0,1-1.58.51,8.3,8.3,0,0,1-4.76.08,19.33,19.33,0,0,1-2.53-.86,1.51,1.51,0,0,1-.58-.35c-.9-.92-2.13-1.38-3.07-2.23a5.85,5.85,0,0,1-.57-.54,27.49,27.49,0,0,1-2-2.7,8.08,8.08,0,0,1-1.16-2.55,2,2,0,0,0-.18-.54A4.59,4.59,0,0,1,731,32l-.53-.19a1.46,1.46,0,0,0,0-.51,3.22,3.22,0,0,1,.41-2.15,20.58,20.58,0,0,1,1.82-3.36,4.71,4.71,0,0,0,.29-.48c.18-.34.34-.67,0-1-.09-.12,0-.36-.06-.6l-1.77-.61c-.77-.26-1.54-.55-2.33-.75a16.28,16.28,0,0,0-2-.29c-.22,0-.45,0-.68,0-.42,0-.77-.37-1.26-.28a6.32,6.32,0,0,1-1.23,0,5,5,0,0,1-2-.14.34.34,0,0,0-.22,0c-.65.27-1.34-.05-2,.12a3.68,3.68,0,0,0-1.16.38c-.86.59-1.94.74-2.72,1.47a1.37,1.37,0,0,1-.42.21l-1.16-.36c0,.33-.11.65-.16.93a19.8,19.8,0,0,0,2.83,3.82,22.48,22.48,0,0,1,2,2.55c.53.83,1.11,1.6,1.71,2.37.46.59.93,1.17,1.34,1.8s.9,1.47,1.35,2.21c.26.45.52.9.76,1.3L723.14,40c-.43-.08-.23-.48-.37-.75-.08.06-.23.1-.24.16a5.15,5.15,0,0,1,0,.55c0,.12-.18.21-.28.32-.09-.1-.18-.2-.28-.33a2.33,2.33,0,0,1-1.8.06,3.08,3.08,0,0,1-.24-.31.63.63,0,0,0-.83-.34c-.49.13-.57,0-.77-.53a.93.93,0,0,0-.11-.19c-.19-.09-.5.16-.58-.29,0-.25-.56-.35-.37-.79a.21.21,0,0,0-.07-.2c-.45-.22-.42-.83-.78-1s-.4-.59-.53-.92-.18-.67-.63-.79c-.21,0-.42-.33-.53-.55a2.59,2.59,0,0,0-.75-.83c-.1-.09-.25-.26-.22-.35.11-.39-.16-.6-.38-.75a4.44,4.44,0,0,1-1.57-2.26l-.28.14h0c-.11-.33-.11-.76-.62-.77l.1-.32-.85-.55c0-.19.07-.37.13-.61-.48-.16-1.1-.24-1.05-1l.14-.14-.11.16a5.57,5.57,0,0,1-.83-1,3.73,3.73,0,0,0-.92-1.35c-.25-.21-.18-.61-.17-1s-.09-.51-.71-.66l.22-.82-.79-.08c.11-.26.3-.5.26-.7s.15-.42.14-.64a2.06,2.06,0,0,1,1-1.83c-.06-.14-.14-.3-.24-.54.6-.94.79-2.11,1.42-3.11a2.12,2.12,0,0,1,.66-.73c.33-.18.71-.25.64-.78,0-.09.17-.22.28-.33a6,6,0,0,0,1-.93,1.76,1.76,0,0,1,1.23-.89.55.55,0,0,0,.35-.26c.24-.63.8-.85,1.33-1.11a1.33,1.33,0,0,0,.55-.4,2.28,2.28,0,0,1,1.48-.89c.06,0,.18,0,.19-.06.14-.76,1.19-.66,1.34-1.4.31-.16.72-.16.89-.54a11.51,11.51,0,0,0,2.58-2.07l.42.19c.3-.22.59-.45.89-.66s1-.17,1.45-.48c.47.37,1-.39,1.51.12l.68-.17,1.17,1.46s.07,0,.11,0l0,0,1,.53c.16.62,1.07.61,1.1,1.38-.19.33-.37.71-.9.61a1.59,1.59,0,0,1-1.13.39.72.72,0,0,0-.38.22,23.79,23.79,0,0,1-2.49,1.87,18.5,18.5,0,0,0-2.46,2.14,5,5,0,0,1-.76.56,21.59,21.59,0,0,0-1.86,1.45c-.18.15-.35.38-.2.59a1,1,0,0,0,.55.32,2.62,2.62,0,0,0,.56,0c.18,0,.44,0,.54.08.46.48.67.34.84-.22,0-.08.26-.16.39-.14a3.64,3.64,0,0,1,.67.26l.79-.49c.06.16.1.3.17.49l.6-.29c.15.14.28.35.47.43a1.94,1.94,0,0,0,.76.08,6.61,6.61,0,0,0,.88-.11,2.31,2.31,0,0,1,1.63.24,4.81,4.81,0,0,0,.87.21c.32.06.66.1,1,.15l.11.47c.43,0,.63-.79,1.15-.31v0c.09.05.2.1.29.16.31.26.66,0,1,.09s.6.4.9.39c.74,0,1.08.35,1.32,1l.56-.19a6.46,6.46,0,0,1,1.86,1.45l.79,0a.72.72,0,0,1,.77.74,7.24,7.24,0,0,1,1.06.32c.33.15.6.43.93.59s.67-.22.94.14a.21.21,0,0,0,.21,0c.26-.26.55,0,.82-.06.59-.11,1.19-.16,1.79-.23a2.89,2.89,0,0,1,1.43.07,1.22,1.22,0,0,0,.34,0c1.26.09,1.26.09,2,.57.26,0,.52-.18.65-.09.38.22.85.18,1.2.49.18.17.49.19.7.33s.49-.15.73-.06.54,0,.72.25c.56.78,1.49.74,2.28,1,.25.08.54.07.69.28.42.62,1.12.85,1.69,1.27.21.16.43.26.47.57,0,.09.22.15.32.24s.49.45.75.69c0-.08.15-.2.28-.38.46.42.9.81,1.32,1.22a.68.68,0,0,1,.22.37c0,.31.23.44.47.59a7.15,7.15,0,0,1,2.68,2.64.43.43,0,0,0,.21.23c.5.07.64.4.76.85a1.14,1.14,0,0,0,.74.79,3.06,3.06,0,0,1,1.34,1.3A20.06,20.06,0,0,0,768,36a20.23,20.23,0,0,1,1.63,2.15c.83,1.16,1.65,2.34,2.48,3.5.06.1.17.17.2.27.36,1.27,1.37,2.24,1.61,3.56,0,.13.16.24.22.37a2.42,2.42,0,0,1,.29.71c.15.91.14.92.78,1.49l-.31,1.17-.53-.17c0,.29.06.6.48.57l.39.77a1.1,1.1,0,0,1-.32.11c-.16,0-.3,0-.32.2a.28.28,0,0,0,.24.31c.42.13.46.16.31.44a1.6,1.6,0,0,0,0,1.4,4.76,4.76,0,0,0-.63.27,2.55,2.55,0,0,0-.41.34l-.42-.43h-1.33c-.26-.47-.49-.88-.13-1.38a.26.26,0,0,0-.15-.44.52.52,0,0,1-.5-.51,1.09,1.09,0,0,0-.14-.52.8.8,0,0,1-.2-.83.36.36,0,0,0-.06-.3,1.18,1.18,0,0,1-.51-1c0-.37-.57-.53-.4-1-.19-.21-.45-.37-.29-.74,0,0-.39,0-.5-.29-.24-.57-.83-.94-.83-1.65,0-.14-.19-.33-.34-.42-.61-.37-.83-1.15-1.53-1.43,0,0-.07,0-.07-.07-.07-.77-.62-1.15-1.19-1.53a.69.69,0,0,1-.22-.5.65.65,0,0,0-.37-.63.92.92,0,0,1-.29-.44.9.9,0,0,0-.8-.7c-.47,0-.64-.31-.76-.69l-.21,0h0c-.19-.22-.58-.21-.65-.57s-.41-.21-.63-.28c-.12-.75-.75-.86-1.29-.91a1.07,1.07,0,0,1-1-.68l0,0,.48-.28a.83.83,0,0,0,0,.32c0,.07.12.12.2.17s.08,0,.07,0,0-.19,0-.25a1.24,1.24,0,0,0-.27-.17.45.45,0,0,0-.62-.21h0l-.56-.67.1,0-.09,0c0-.42-.36-.5-.7-.53l0,0-1.43-.65c0-.26,0-.57.36-.33a.47.47,0,0,1,.19-.06c.13,0,.28.11.33-.11a.11.11,0,0,0,0-.09c-.11,0-.24.07-.35.12s-.09.11-.14.16l-.25-.74h-1l-.61-.85a1.31,1.31,0,0,1-1.42-.45l.09-.06h.09l-.18,0c-.1-.19-.17-.51-.31-.55-.37-.09-.52-.47-.87-.56a1.4,1.4,0,0,1-.51-.17,1.74,1.74,0,0,0-1.34-.32l-.54-.7-.57-.06Zm25.32,23.19a1.39,1.39,0,0,0-.06-.19s-.06,0-.1-.06l0,.1.13.17-.63-.14C774.21,52,774.45,51.76,774.63,51.78ZM742.48,30.15a3.9,3.9,0,0,0-2-1.24c.21-.27.57-.07.7-.4L739.34,28a.51.51,0,0,0,.21,0s0-.1.06-.15-.07,0-.09,0a1.14,1.14,0,0,0-.16.15l-.93-.29a3.1,3.1,0,0,0-.32.17,15.75,15.75,0,0,0-2.64,2.71.94.94,0,0,0-.17.41c-.08.33-.15.65-.23,1a3.09,3.09,0,0,0,0,1.45,8.46,8.46,0,0,1,.27,1.31,8.18,8.18,0,0,0,.9,2.64,9.62,9.62,0,0,0,1.45,1.85,8.07,8.07,0,0,0,2.66,2,4.4,4.4,0,0,0,2.9.62c.22,0,.46.06.67,0s.45-.2.69-.24a4.63,4.63,0,0,0,2-.9c.47-.46.86-1,.5-1.68.1-.68-.47-1.3-.08-2,.19-.34-.27-.64-.57-.85l.14-.14a1.71,1.71,0,0,1-.11.14c-.34-.23-.34-.23-.08-.59a1.25,1.25,0,0,0,0-.19s0-.05,0-.08-.07.1-.06.14a.79.79,0,0,0,.12.15,2.11,2.11,0,0,1-.43-.12c-.37-.21-.38-.3,0-.68a.39.39,0,0,0,.07-.51c-.33-.48-.58-1-1.26-1.18-.42-.09-.43-.23-.17-.74,0,0,0,0,0,0A4.93,4.93,0,0,0,744,32a1.34,1.34,0,0,1-.72-1l-1.22-.53c.21-.2.33-.32.46-.43l.14.09Zm-19.35,8.24c-.11-.17-.15-.27-.21-.34s-.12,0-.17,0,0,.16,0,.19A2.56,2.56,0,0,0,723.13,38.39Zm-16-16.89a.77.77,0,0,0,.07-.16l-.08,0-.08.16Zm7.57,11.34-.17-.07a.26.26,0,0,0,0,.09,1.92,1.92,0,0,0,.17.13Zm6.51,6.54s.07,0,.07-.06,0-.06,0-.09a.94.94,0,0,0-.1.1Zm1.66-34,.15-.1s-.06-.07-.07-.07l-.14.1Zm4.78,10.36h.09s0-.08,0-.08h-.09S727.63,15.72,727.63,15.75Zm-4.18-11.2s.07,0,.07-.06,0-.06-.06-.07-.05,0-.07,0ZM714.16,11V11l.08-.08Z" fill="#fff"/></g></g></svg>