<?xml version="1.0" encoding="iso-8859-1"?>
<!-- Generator: Adobe Illustrator 26.3.1, SVG Export Plug-In . SVG Version: 6.00 Build 0)  -->
<svg version="1.1" id="slot-tip" xmlns="http://www.w3.org/2000/svg" xmlns:xlink="http://www.w3.org/1999/xlink" x="0px" y="0px"
	 viewBox="0 0 944 532" style="enable-background:new 0 0 944 532;" xml:space="preserve">
<g id="_x30_1">
	<path style="fill:#E4EFE7;" d="M158.195,69.144C71.628,69.144,1.45,139.321,1.45,225.889c0,34.655,11.255,66.677,30.298,92.628
		h252.895c19.042-25.951,30.297-57.973,30.297-92.628C314.94,139.321,244.763,69.144,158.195,69.144z"/>
	<circle style="fill:none;" cx="158.195" cy="225.889" r="156.745"/>
	<path style="fill:#72917A;" d="M18.024,296.092c25.752,51.317,78.844,86.542,140.171,86.542c61.328,0,114.42-35.225,140.172-86.542
		H18.024z"/>
	<g id="&#x9ED1;&#x677F;" transform="translate(616 78.588)">
		<path style="fill:#7F5A50;" d="M-457.805-9.444c-7.821,0-15.507,0.581-23.021,1.687v174.559h178.561
			c0.793-6.389,1.206-12.897,1.206-19.501C-301.06,60.733-371.237-9.444-457.805-9.444z"/>
		<path style="fill:#684E46;" d="M-457.805-9.444c-4.217,0-8.393,0.172-12.526,0.498v164.717h169.042
			c0.149-2.805,0.229-5.628,0.229-8.47C-301.06,60.733-371.237-9.444-457.805-9.444z"/>
		<path style="fill:#003A29;" d="M-457.805-9.444c-3.322,0-6.617,0.116-9.889,0.319v163.577h166.465
			c0.106-2.371,0.169-4.754,0.169-7.152C-301.06,60.733-371.237-9.444-457.805-9.444z"/>
	</g>
	<path style="fill:#D8B49C;" d="M213.362,290.247c-0.001,0-0.003,0-0.005,0h-75.525c-6.133,0-11.122,4.989-11.122,11.122v78.101
		c0.996,0.203,1.997,0.391,3,0.575v-78.676c0-4.478,3.644-8.122,8.122-8.122h75.526c0.001,0,0.002,0,0.004,0
		c4.476,0,8.118,3.641,8.121,8.117v67.957c1.006-0.444,2.005-0.9,3-1.365v-66.594C224.48,295.232,219.492,290.247,213.362,290.247z"
		/>
	<path style="fill:#B37F43;" d="M300.008,275.512l-2.409-9.205l-208.084,9.204l-44.967,58.325c3.926,4.132,8.081,8.044,12.434,11.73
		h202.427c11.47-9.71,21.523-21.038,29.812-33.633L300.008,275.512z"/>
	<path style="fill:#F7D5AB;" d="M44.344,333.617c0.876,0.925,1.763,1.84,2.661,2.744h222.381c3.943-3.969,7.67-8.15,11.173-12.52
		l17.04-57.533H87.104L44.344,333.617z"/>
	<path style="fill:#7F5A50;" d="M158.195,382.634c24.577,0,47.829-5.662,68.533-15.744c-2.291-2.817-5.743-4.657-9.647-4.771
		c0,0-21.281,2.904-63.223,2.278c-42.618-0.636-66.922-4.299-66.922-4.299c-0.486-0.017-0.972-0.004-1.456,0.039
		c-1.933,0.17-3.71,0.801-5.252,1.76C103.191,375.09,129.812,382.634,158.195,382.634z"/>
	<path style="fill:#684E46;" d="M88.144,366.136c21.083,10.551,44.871,16.498,70.051,16.498c22.685,0,44.241-4.826,63.707-13.497
		c-1.61-0.79-3.404-1.267-5.312-1.317c0,0-21.23,2.917-63.07,2.332C116.863,369.646,93.804,366.887,88.144,366.136z"/>
	<g id="Group_246-2">
		<path id="Path_2774-2" style="fill:#FFE266;" d="M260.886,314.961H88.073c-4.517,0.006-8.334-3.346-8.91-7.826l-9.986-107.369
			c-0.497-5.341-1.04-9.705,4.034-9.705h202.69c5.07,0,4.375,4.367,3.879,9.707l-9.986,107.369
			c-0.574,4.481-4.392,7.834-8.909,7.826"/>
		<path id="Path_2775-2" style="fill:#175653;" d="M90.955,298.936l-7.222-89.333c-0.3-2.408,1.409-4.604,3.817-4.904
			c0,0,0.001,0,0.001,0c0.165-0.021,0.332-0.033,0.498-0.034h172.854c2.427,0.024,4.375,2.01,4.352,4.437c0,0,0,0.001,0,0.001
			c-0.002,0.167-0.013,0.334-0.034,0.5l-7.223,89.333c-0.263,2.364-2.262,4.152-4.64,4.151H95.595
			C93.216,303.088,91.218,301.3,90.955,298.936"/>
		<path id="Path_2776-2" style="fill:#308482;" d="M87.244,214.257l6.46,82.776c0.201,1.867,1.777,3.282,3.654,3.282h154.243
			c1.878,0,3.453-1.415,3.653-3.282l6.46-82.776c0.227-1.888-1.12-3.603-3.008-3.83c-0.128-0.015-0.256-0.023-0.384-0.024H90.637
			c-1.902,0.015-3.432,1.569-3.417,3.472C87.22,214.003,87.229,214.13,87.244,214.257"/>
		<path id="Path_2777-2" style="fill:#175653;" d="M86.617,232.576l-0.254-3.173h176.569l-0.254,3.173H86.617z"/>
		<path id="Path_2778-2" style="fill:#175653;" d="M88.705,258.704l-0.239-3.024h172.36l-0.242,3.023L88.705,258.704z"/>
		<path id="Path_2779-2" style="fill:#175653;" d="M90.696,283.618l-0.23-2.884h168.35l-0.235,2.884H90.696z"/>
		<path id="Path_2780-2" style="fill:#308482;" d="M257.892,289.475h0.061l-1.034,12.921h-13.685
			c0.664-7.129,7.152-12.923,14.658-12.923"/>
		<path id="Path_2781-2" style="fill:#308482;" d="M90.803,289.475h-0.064l1.037,12.921h13.686
			c-0.665-7.129-7.155-12.923-14.658-12.923"/>
		<path id="Path_2782-2" style="fill:#FFE266;" d="M260.497,291.31h0.065l-1.126,13.62h-14.45
			c0.714-7.508,7.582-13.622,15.512-13.622"/>
		<path id="Path_2783-2" style="fill:#FFE266;" d="M88.458,291.31h-0.065l1.126,13.62h14.45
			c-0.713-7.508-7.582-13.622-15.512-13.622"/>
		<path id="Path_2784-2" style="fill:#F2AD22;" d="M80.765,199.089c0.216,1.618-0.918,3.105-2.535,3.324
			c-0.116,0.016-0.234,0.025-0.351,0.026c-1.836-0.08-3.323-1.518-3.464-3.35c-0.228-1.616,0.896-3.112,2.513-3.341
			c0.123-0.018,0.248-0.028,0.372-0.029C79.143,195.799,80.633,197.249,80.765,199.089"/>
		<path id="Path_2785-2" style="fill:#F2AD22;" d="M274.376,199.089c-0.142,1.832-1.629,3.269-3.464,3.35
			c-1.633-0.023-2.939-1.366-2.916-2.999c0.002-0.117,0.01-0.235,0.026-0.351c0.131-1.84,1.621-3.29,3.464-3.371
			c1.635,0.024,2.942,1.368,2.918,3.004C274.402,198.845,274.393,198.968,274.376,199.089"/>
		<path id="Path_2786-2" style="fill:#F2AD22;" d="M95.148,302.396c0.123,1.656-1.119,3.098-2.774,3.221
			c-0.111,0.008-0.223,0.01-0.335,0.006c-1.854,0.003-3.415-1.386-3.628-3.227c-0.135-1.654,1.095-3.104,2.749-3.24
			c0.119-0.01,0.239-0.012,0.359-0.008C93.38,299.145,94.945,300.546,95.148,302.396"/>
		<path id="Path_2787-2" style="fill:#F2AD22;" d="M261.03,303.094c-0.215,1.84-1.776,3.226-3.628,3.223
			c-1.656,0.063-3.05-1.229-3.113-2.885c-0.004-0.113-0.002-0.226,0.006-0.338c0.205-1.848,1.769-3.246,3.629-3.243
			c1.655-0.064,3.049,1.227,3.112,2.882c0,0,0,0,0,0.001C261.042,302.853,261.039,302.974,261.03,303.094"/>
		<path id="Path_2788-2" style="fill:#308482;" d="M184.712,232.05h-20.463c-5.548-0.11-9.993-4.629-10.011-10.177l-0.252-13.825
			h40.981l-0.252,13.825c-0.018,5.548-4.462,10.067-10.009,10.177"/>
		<path id="Path_2789-2" style="fill:#FFE266;" d="M183.443,227.811h-17.93c-4.558-0.095-8.202-3.819-8.198-8.378l-0.303-19.641
			c-0.21-4.653,3.393-8.595,8.046-8.805c0.052-0.002,0.103-0.004,0.155-0.006h18.526c4.657,0.125,8.332,4.002,8.206,8.66
			c-0.001,0.05-0.003,0.101-0.005,0.151l-0.302,19.641c0.004,4.558-3.64,8.282-8.197,8.378"/>
		<path id="Path_2790-2" style="fill:#FFF7AE;" d="M179.47,207.406c0.151-2.756-1.961-5.112-4.717-5.263
			c-2.756-0.151-5.112,1.961-5.263,4.717l0,0c-0.01,0.182-0.01,0.364,0,0.546c-0.005,1.736,0.839,3.364,2.261,4.359l0.018,7.368
			c-0.022,1.19,0.926,2.173,2.116,2.195c0,0,0,0,0.001,0h1.196c1.19-0.021,2.138-1.004,2.117-2.194c0,0,0,0,0-0.001l0.018-7.368
			c1.422-0.995,2.266-2.624,2.261-4.359"/>
		<path id="Path_2791-2" style="fill:#684E46;" d="M179.213,206.115c-0.142,2.615-2.377,4.621-4.992,4.479
			c-2.615-0.142-4.621-2.377-4.479-4.992c0.136-2.516,2.215-4.486,4.735-4.486c2.683,0.066,4.804,2.295,4.738,4.978
			c0,0,0,0.001,0,0.001L179.213,206.115"/>
		<path id="Path_2792-2" style="fill:#684E46;" d="M175.045,219.335h-1.137c-1.128-0.023-2.025-0.954-2.006-2.082l-0.025-10.704
			h5.197l-0.025,10.704C177.068,218.381,176.171,219.312,175.045,219.335"/>
		<path id="Path_2793-2" style="fill:#FFF7AE;" d="M150.952,193.532H75.637c-0.72,0.009-1.311-0.567-1.32-1.287
			c-0.009-0.708,0.548-1.294,1.256-1.32h75.38c0.72-0.009,1.311,0.567,1.32,1.287c0.009,0.708-0.548,1.294-1.256,1.32H150.952"/>
		<path id="Path_2794-2" style="fill:#FFF7AE;" d="M273.243,193.532h-75.175c-0.72-0.02-1.287-0.619-1.267-1.339
			c0.019-0.692,0.575-1.249,1.267-1.267h75.175c0.72,0.02,1.287,0.619,1.267,1.339C274.491,192.956,273.935,193.513,273.243,193.532
			"/>
		<path id="Path_2795-2" style="fill:#F2AD22;" d="M153.71,193.854c-0.039-2.061,1.6-3.763,3.661-3.803c0.001,0,0.003,0,0.004,0
			h2.697c-1.673,0.015-3.034,1.35-3.081,3.023l-0.033,1.066l0.164,10.537h-3.218L153.71,193.854z"/>
		<path id="Path_2796-2" style="fill:#F2AD22;" d="M189.081,190.052h2.438c2.061,0,3.732,1.67,3.732,3.731c0,0.023,0,0.046,0,0.07
			l-0.195,10.803h-3.206l0.167-10.832l-0.014-0.811C191.976,191.405,190.69,190.102,189.081,190.052"/>
		<path id="Path_2797-2" style="fill:#FFF7AE;" d="M189.137,192.743h-29.525c-0.72-0.052-1.261-0.678-1.209-1.398
			c0.047-0.647,0.562-1.162,1.209-1.209h29.525c0.693,0.027,1.233,0.611,1.207,1.304
			C190.344,191.44,190.292,192.744,189.137,192.743"/>
	</g>
	<g id="close-2" transform="translate(1.697 26.639)">
		<rect id="Rectangle_258-2" x="73.246" y="160.02" style="fill:#F2AD22;" width="199.939" height="4.096"/>
		<g id="Group_249-2" transform="translate(0 0)">
			<g>
				<defs>
					<rect id="SVGID_1_" x="64.82" y="108.734" width="215.879" height="55.383"/>
				</defs>
				<clipPath id="SVGID_00000092424245812997025210000005740028107497245348_">
					<use xlink:href="#SVGID_1_"  style="overflow:visible;"/>
				</clipPath>
				<g id="Group_248-2" style="clip-path:url(#SVGID_00000092424245812997025210000005740028107497245348_);">
					<path id="Path_2798-2" style="fill:#308482;" d="M112.755,110.082h120.008c26.846,0,42.374,19.283,41.402,48.673H71.358
						C70.381,129.368,85.91,110.082,112.755,110.082"/>
					<path id="Path_2799-2" style="fill:#175653;" d="M84.673,125.97l-0.085-3.188H260.93l-0.085,3.188H84.673z"/>
					<path id="Path_2800-2" style="fill:#175653;" d="M231.764,110.082h-12.981c26.846,0,42.469,19.283,41.639,48.673h12.773
						c0.954-29.387-14.588-48.673-41.433-48.673"/>
					<path id="Path_2801-2" style="fill:#F8C744;" d="M236.183,108.734h-7.76c-1.632,0.003-3.242,0.378-4.707,1.097l-0.514,0.251
						c26.846,0,42.441,19.283,41.571,48.673h12.773C278.54,129.368,263.029,108.734,236.183,108.734"/>
					<path id="Path_2802-2" style="fill:#175653;" d="M115.066,110.082h12.981c-26.846,0-42.463,19.286-41.623,48.673H73.65
						C72.684,129.368,88.224,110.082,115.066,110.082"/>
					<path id="Path_2803-2" style="fill:#F8C744;" d="M111.751,108.734h7.788c1.816,0.004,3.602,0.468,5.191,1.348
						c-26.843,0-42.437,19.282-41.568,48.671H70.384C69.391,129.368,84.902,108.734,111.751,108.734"/>
					<path id="Path_2804-2" style="fill:#FFE266;" d="M274.719,160.945H70.799c-2.913,0.1-5.402-2.08-5.686-4.98l-0.293-6.654
						c-0.005-2.775,2.24-5.03,5.016-5.035c0.095,0,0.189,0.002,0.283,0.007h205.276c2.771-0.151,5.14,1.974,5.291,4.745
						c0.005,0.094,0.008,0.188,0.007,0.282l-0.285,6.655C280.124,158.867,277.633,161.047,274.719,160.945"/>
					<path id="Path_2805-2" style="fill:#F2AD22;" d="M79.274,152.382c0.216,1.618-0.918,3.105-2.535,3.324
						c-0.116,0.016-0.234,0.025-0.351,0.026c-1.836-0.08-3.323-1.518-3.464-3.35c-0.228-1.617,0.898-3.113,2.515-3.341
						c0,0,0.001,0,0.001,0c0.123-0.018,0.248-0.028,0.372-0.029c1.843,0.08,3.334,1.53,3.465,3.371"/>
					<path id="Path_2806-2" style="fill:#F2AD22;" d="M275.684,151.963c-0.142,1.832-1.629,3.269-3.464,3.35
						c-1.633-0.023-2.939-1.366-2.916-2.999c0.001-0.117,0.01-0.235,0.025-0.351c0.131-1.84,1.621-3.29,3.464-3.371
						c1.635,0.024,2.942,1.368,2.918,3.004c-0.002,0.123-0.011,0.245-0.028,0.367"/>
					<path id="Path_2807-2" style="fill:#FFF7AE;" d="M275.693,146.926H69.825c-0.717,0.073-1.358-0.449-1.432-1.166
						s0.449-1.358,1.166-1.432c0.041-0.004,0.082-0.006,0.123-0.007c0.047,0,0.098,0,0.142,0h205.869
						c0.719-0.059,1.349,0.475,1.408,1.194c0.059,0.719-0.475,1.349-1.194,1.408c-0.024,0.002-0.048,0.003-0.072,0.004
						c-0.047,0-0.098,0-0.142,0"/>
				</g>
			</g>
		</g>
	</g>
</g>
<g id="_x30_2">
	<path style="fill:#E4EFE7;" d="M313.845,318.518h312.902c-4.907-82.148-73.07-147.256-156.451-147.256
		S318.752,236.369,313.845,318.518z"/>
	<path style="fill:#72917A;" d="M313.552,328.006c0,86.568,70.177,156.745,156.745,156.745s156.745-70.177,156.745-156.745
		c0-10.936-1.124-21.61-3.255-31.915H316.806C314.675,306.397,313.552,317.07,313.552,328.006z"/>
	<g id="&#x9ED1;&#x677F;_00000055665149148568359200000014016117045281490571_" transform="translate(616 78.588)">
		<path style="fill:#7F5A50;" d="M-278.921,166.802h266.434c-27.655-44.497-76.972-74.129-133.217-74.129
			S-251.266,122.305-278.921,166.802z"/>
		<path style="fill:none;" d="M-271.408,155.771h251.409c-28.578-38.298-74.244-63.098-125.705-63.098
			C-197.164,92.673-242.83,117.473-271.408,155.771z"/>
		<path style="fill:#003A29;" d="M-270.403,154.453h249.398c-28.637-37.545-73.834-61.78-124.699-61.78
			S-241.766,116.908-270.403,154.453z"/>
	</g>
	
		<path id="Path_2703_00000010280257096815155920000003053025290615428736_" style="fill:none;stroke:#D8B49C;stroke-width:3;stroke-miterlimit:10;" d="
		M444.084,291.747h75.525c5.314-0.003,9.624,4.303,9.627,9.617v120.485c0,5.314-4.308,9.623-9.623,9.623l0,0h-75.529
		c-5.314,0-9.622-4.308-9.622-9.622l0,0l0,0V301.369C434.463,296.055,438.771,291.747,444.084,291.747L444.084,291.747z"/>
	<path id="Path_2705_00000113313007620504731420000016875482895668994443_" style="fill:#B37F43;" d="M601.018,345.566h-234.25
		v-9.205l11.632-60.849h210.498l12.121,60.849V345.566z"/>
	<path id="Path_2708" style="fill:#F7D5AB;" d="M601.018,336.361h-234.25l11.632-70.054h210.498L601.018,336.361z"/>
	<path id="Path_2713_00000000914252237917344280000006337555783667643013_" style="fill:#7F5A50;" d="M542.626,439.891
		c0,0-25.815,3.488-62.638,3.488c-36.823,0-62.638-3.488-62.638-3.488c-6.85,0-12.403-5.553-12.403-12.403v0v-47.135
		c0.002-6.848,5.554-12.399,12.402-12.401c0,0,22.764,3.102,63.541,3.102s61.735-3.102,61.735-3.102
		c6.851,0,12.404,5.554,12.404,12.404v47.131C555.03,434.338,549.476,439.892,542.626,439.891"/>
	<path id="Path_2714_00000148637805781064151230000001858007120649202316_" style="fill:#684E46;" d="M543.529,445.473
		c0,0-25.815,3.488-62.638,3.488s-62.638-3.488-62.638-3.488c-6.851,0-12.404-5.554-12.404-12.404v-47.133
		c0-6.851,5.554-12.404,12.404-12.404c0,0,22.763,3.102,63.541,3.102s61.735-3.102,61.735-3.102c6.851,0,12.404,5.554,12.404,12.404
		v47.133C555.934,439.919,550.38,445.473,543.529,445.473"/>
	<path style="fill:#B37F43;" d="M596.052,421.584l-3.275-16.442H353.569l-4.298,22.479c28.749,34.888,72.289,57.131,121.025,57.131
		C521.787,484.751,567.477,459.921,596.052,421.584z"/>
	<path style="fill:#F7D5AB;" d="M592.776,394.682H353.569l-5.27,31.731c17.146,21.23,39.716,37.891,65.609,47.879h112.775
		c28.425-10.964,52.848-29.973,70.483-54.237L592.776,394.682z"/>
	<path style="fill:#FFE266;" d="M601.306,312.078c0.617-6.643,1.486-12.075-4.825-12.075H344.356c-6.312,0-5.636,5.428-5.018,12.071
		l10.849,116.633c8.421,10.034,18.074,18.998,28.729,26.657h182.759c10.681-7.677,20.354-16.665,28.789-26.727L601.306,312.078z"/>
	<path id="Path_2775" style="fill:#175653;" d="M366.428,435.432l-8.984-111.121c-0.373-2.996,1.753-5.728,4.749-6.101
		c0.206-0.026,0.413-0.04,0.62-0.042h215.014c3.019,0.029,5.443,2.501,5.413,5.52c0,0,0,0,0,0.001
		c-0.002,0.208-0.016,0.416-0.042,0.622l-8.985,111.121c-0.327,2.941-2.813,5.165-5.772,5.163H372.205
		c-2.959,0.002-5.445-2.222-5.772-5.163"/>
	<path id="Path_2776" style="fill:#308482;" d="M361.812,330.1l8.035,102.964c0.25,2.322,2.21,4.083,4.546,4.082h191.859
		c2.335,0,4.295-1.761,4.545-4.082l8.035-102.964c0.282-2.349-1.393-4.482-3.742-4.764c-0.159-0.019-0.318-0.029-0.478-0.03H366.033
		c-2.367,0.019-4.27,1.953-4.251,4.319C361.783,329.784,361.793,329.942,361.812,330.1"/>
	<path id="Path_2777" style="fill:#175653;" d="M361.033,352.888l-0.315-3.949h219.634l-0.317,3.947L361.033,352.888z"/>
	<path id="Path_2778" style="fill:#175653;" d="M363.63,385.388l-0.298-3.761h214.401l-0.301,3.761H363.63z"/>
	<path id="Path_2779" style="fill:#175653;" d="M366.107,416.379l-0.287-3.588h209.41l-0.292,3.588H366.107z"/>
	<path id="Path_2780" style="fill:#308482;" d="M574.08,423.663h0.076l-1.289,16.073h-17.018
		c0.826-8.867,8.896-16.074,18.233-16.074"/>
	<path id="Path_2782" style="fill:#FFE266;" d="M577.321,425.948h0.081l-1.401,16.942h-17.975
		c0.887-9.343,9.432-16.945,19.295-16.945"/>
	<path id="Path_2785" style="fill:#F2AD22;" d="M594.585,311.233c-0.177,2.278-2.026,4.067-4.309,4.167
		c-2.032-0.028-3.656-1.698-3.628-3.73c0.002-0.146,0.013-0.292,0.032-0.437c0.163-2.289,2.017-4.093,4.31-4.193
		c2.034,0.029,3.659,1.702,3.63,3.737C594.618,310.93,594.606,311.082,594.585,311.233"/>
	<path id="Path_2787" style="fill:#F2AD22;" d="M577.985,440.599c-0.268,2.288-2.208,4.013-4.513,4.009
		c-2.06,0.078-3.794-1.529-3.872-3.59c-0.005-0.14-0.003-0.28,0.008-0.42c0.256-2.299,2.201-4.037,4.514-4.034
		c2.059-0.079,3.793,1.526,3.872,3.585C578.001,440.3,577.998,440.45,577.985,440.599"/>
	<path id="Path_2788" style="fill:#308482;" d="M483.047,352.232h-25.448c-6.901-0.137-12.43-5.758-12.452-12.66l-0.313-17.197
		h50.976l-0.313,17.197c-0.022,6.901-5.55,12.523-12.45,12.66"/>
	<path id="Path_2789" style="fill:#FFE266;" d="M481.473,346.96H459.17c-5.669-0.118-10.202-4.75-10.198-10.42l-0.377-24.431
		c-0.098-6.032,4.474-10.959,10.202-10.959h23.048c5.727,0,10.294,4.928,10.201,10.959l-0.376,24.431
		C491.673,342.21,487.141,346.841,481.473,346.96"/>
	<path id="Path_2790" style="fill:#FFF7AE;" d="M476.534,321.579c0.188-3.428-2.438-6.359-5.865-6.548s-6.359,2.438-6.548,5.865
		c-0.013,0.227-0.013,0.455,0,0.683c-0.006,2.159,1.044,4.185,2.813,5.423l0.021,9.165c-0.027,1.481,1.152,2.703,2.633,2.73h1.486
		c1.481-0.027,2.659-1.249,2.633-2.73l0.021-9.165C475.494,325.762,476.542,323.737,476.534,321.579"/>
	<path id="Path_2791" style="fill:#684E46;" d="M476.214,319.973c-0.176,3.254-2.956,5.749-6.21,5.572s-5.749-2.956-5.572-6.21
		c0.169-3.13,2.756-5.581,5.891-5.581c3.338,0.083,5.976,2.856,5.893,6.193v0.025"/>
	<path id="Path_2792" style="fill:#684E46;" d="M471.027,336.417h-1.416c-1.403-0.028-2.519-1.186-2.495-2.59l-0.031-13.314h6.464
		l-0.029,13.312c0.024,1.403-1.091,2.561-2.494,2.59"/>
	<path id="Path_2793" style="fill:#FFF7AE;" d="M441.058,304.32h-93.683c-0.895,0.022-1.639-0.686-1.661-1.581
		c-0.022-0.895,0.686-1.639,1.581-1.661h93.764c0.895-0.022,1.639,0.686,1.661,1.581c0.022,0.895-0.686,1.639-1.581,1.661H441.058"
		/>
	<path id="Path_2794" style="fill:#FFF7AE;" d="M593.176,304.32H499.67c-0.895-0.022-1.603-0.766-1.581-1.661
		c0.021-0.864,0.717-1.56,1.581-1.581h93.506c0.895,0.022,1.603,0.766,1.581,1.661C594.736,303.603,594.041,304.299,593.176,304.32"
		/>
	<path id="Path_2795" style="fill:#F2AD22;" d="M444.489,304.72c-0.047-2.564,1.993-4.681,4.557-4.728c0.001,0,0.002,0,0.003,0
		h3.355c-2.078,0.018-3.771,1.676-3.832,3.754l-0.041,1.326l0.203,13.113h-3.998L444.489,304.72z"/>
	<path id="Path_2796" style="fill:#F2AD22;" d="M488.488,299.992h3.035c2.564,0,4.642,2.078,4.643,4.641c0,0.029,0,0.058,0,0.087
		l-0.245,13.438h-3.992l0.205-13.474l-0.018-1.009C492.081,301.676,490.485,300.057,488.488,299.992"/>
	<path id="Path_2797" style="fill:#FFF7AE;" d="M488.557,303.339h-36.726c-0.895-0.066-1.568-0.845-1.502-1.74
		c0.059-0.804,0.698-1.442,1.502-1.502h36.726c0.861,0.032,1.533,0.755,1.502,1.616c0,0.002,0,0.003,0,0.005
		C490.058,301.719,489.994,303.34,488.557,303.339"/>
	<g id="close" transform="translate(2.111 31.893)">
		<rect id="Rectangle_258" x="344.4" y="262.666" style="fill:#F2AD22;" width="248.703" height="5.096"/>
		<g id="Group_249_00000061441081953484028070000014166216986638090412_">
			<g>
				<defs>
					
						<rect id="SVGID_00000088843964637689072030000011755820494917575330_" x="333.92" y="198.871" width="268.531" height="68.89"/>
				</defs>
				<clipPath id="SVGID_00000012433597159655384710000005252594284177512345_">
					<use xlink:href="#SVGID_00000088843964637689072030000011755820494917575330_"  style="overflow:visible;"/>
				</clipPath>
				
					<g id="Group_248_00000105399243917349592230000001163680985810029740_" style="clip-path:url(#SVGID_00000012433597159655384710000005252594284177512345_);">
					<path id="Path_2798" style="fill:#308482;" d="M393.546,200.548h149.278c33.393,0,52.708,23.986,51.499,60.544H342.047
						C340.838,224.539,360.153,200.548,393.546,200.548"/>
					<path id="Path_2799" style="fill:#175653;" d="M358.615,220.311l-0.105-3.965h219.352l-0.105,3.965H358.615z"/>
					<path id="Path_2800" style="fill:#175653;" d="M541.58,200.548h-16.147c33.393,0,52.826,23.986,51.795,60.544h15.893
						c1.183-36.553-18.15-60.544-51.543-60.544"/>
					<path id="Path_2801" style="fill:#F8C744;" d="M547.076,198.871h-9.653c-2.03,0.004-4.033,0.471-5.855,1.365l-0.64,0.312
						c33.393,0,52.792,23.986,51.71,60.544h15.893C599.763,224.539,580.468,198.871,547.076,198.871"/>
					<path id="Path_2802" style="fill:#175653;" d="M396.42,200.548h16.147c-33.393,0-52.819,23.986-51.774,60.544h-15.893
						C343.702,224.539,363.026,200.548,396.42,200.548"/>
					<path id="Path_2803" style="fill:#F8C744;" d="M392.297,198.871h9.69c2.26,0.005,4.481,0.582,6.458,1.677
						c-33.393,0-52.792,23.986-51.71,60.544h-15.892C339.606,224.539,358.9,198.871,392.297,198.871"/>
					<path id="Path_2804" style="fill:#FFE266;" d="M595.013,263.818H341.358c-3.764,0-6.932-2.77-7.079-6.195l-0.359-8.276
						c-0.147-3.451,2.803-6.254,6.591-6.254h255.343c3.787,0,6.737,2.803,6.59,6.254l-0.354,8.277
						C601.945,261.047,598.776,263.819,595.013,263.818"/>
					<path id="Path_2805" style="fill:#F2AD22;" d="M351.9,253.165c0.269,2.014-1.145,3.866-3.159,4.135
						c-0.145,0.019-0.291,0.03-0.437,0.032c-2.283-0.1-4.132-1.889-4.309-4.167c-0.284-2.012,1.117-3.873,3.129-4.156
						c0.001,0,0.001,0,0.002,0c0.153-0.022,0.308-0.034,0.463-0.036C349.882,249.073,351.736,250.876,351.9,253.165"/>
					<path id="Path_2806" style="fill:#F2AD22;" d="M596.211,252.644c-0.177,2.278-2.026,4.067-4.309,4.167
						c-2.032-0.028-3.656-1.699-3.628-3.73c0.002-0.146,0.013-0.292,0.032-0.437c0.163-2.289,2.017-4.093,4.31-4.193
						c2.034,0.029,3.659,1.702,3.63,3.737C596.244,252.34,596.232,252.493,596.211,252.644"/>
					<path id="Path_2807" style="fill:#FFF7AE;" d="M596.225,246.378H340.146c-0.893,0.08-1.682-0.58-1.761-1.473
						c-0.08-0.893,0.58-1.682,1.473-1.761c0.036-0.003,0.072-0.005,0.108-0.006c0.059,0,0.118,0,0.177,0h256.082
						c0.895-0.052,1.663,0.631,1.715,1.526c0.052,0.895-0.631,1.663-1.526,1.715c-0.004,0-0.008,0-0.012,0.001
						c-0.058,0-0.118,0-0.177,0"/>
				</g>
			</g>
		</g>
	</g>
	<path id="Path_2781" style="fill:#308482;" d="M366.239,423.663h-0.079l1.291,16.072h17.022c-0.827-8.867-8.9-16.074-18.233-16.074
		"/>
	<path id="Path_2783" style="fill:#FFE266;" d="M363.321,425.948h-0.081l1.401,16.942h17.974
		c-0.886-9.343-9.432-16.945-19.295-16.945"/>
	<path id="Path_2784" style="fill:#F2AD22;" d="M353.753,311.233c0.269,2.014-1.145,3.866-3.159,4.135
		c-0.145,0.019-0.291,0.03-0.437,0.032c-2.283-0.1-4.132-1.889-4.309-4.167c-0.284-2.012,1.117-3.873,3.129-4.156
		c0.001,0,0.001,0,0.002,0c0.153-0.022,0.308-0.034,0.463-0.036C351.736,307.141,353.59,308.944,353.753,311.233"/>
	<path id="Path_2786" style="fill:#F2AD22;" d="M371.644,439.737c0.154,2.059-1.39,3.853-3.449,4.006
		c-0.139,0.01-0.279,0.013-0.419,0.008c-2.306,0.003-4.248-1.724-4.513-4.014c-0.169-2.057,1.361-3.862,3.418-4.031
		c0.149-0.012,0.298-0.015,0.447-0.01C369.444,435.693,371.391,437.435,371.644,439.737"/>
</g>
<g id="_x30_3">
	<path style="fill:#E4EFE7;" d="M784.943,78.236c-86.568,0-156.745,70.177-156.745,156.745c0,30.711,8.84,59.353,24.103,83.537
		h265.285c15.263-24.184,24.103-52.826,24.103-83.537C941.688,148.413,871.511,78.236,784.943,78.236z"/>
	<path style="fill:#72917A;" d="M640.559,296.092c23.818,56.205,79.496,95.634,144.384,95.634s120.565-39.429,144.384-95.634
		H640.559z"/>
	<g id="&#x9ED1;&#x677F;_00000115482374383688700330000011247077150990535077_" transform="translate(616 78.588)">
		<path style="fill:#7F5A50;" d="M189.998,1.06c-6.888-0.925-13.914-1.412-21.055-1.412c-86.568,0-156.745,70.177-156.745,156.745
			c0,3.499,0.127,6.967,0.353,10.409h177.448V1.06z"/>
		<path style="fill:#684E46;" d="M179.024,155.771V-0.02c-3.334-0.212-6.693-0.332-10.081-0.332
			c-86.36,0-156.401,69.842-156.737,156.124H179.024z"/>
		<path style="fill:#003A29;" d="M176.386,154.453V-0.172c-2.467-0.115-4.947-0.18-7.442-0.18
			c-85.919,0-155.68,69.133-156.721,154.805H176.386z"/>
	</g>
	<g>
		<path style="fill:#D8B49C;" d="M815.275,294.083c-0.001,0-0.003,0-0.003,0h-75.527c-2.363,0-4.553,0.747-6.356,2.009h88.244
			C819.828,294.83,817.638,294.083,815.275,294.083z"/>
		<path style="fill:#D8B49C;" d="M821.632,296.092h-88.244c-2.876,2.013-4.765,5.344-4.765,9.113v76.092
			c17.479,6.733,36.467,10.429,56.319,10.429c14.351,0,28.25-1.932,41.454-5.544v-80.981
			C826.396,301.433,824.508,298.104,821.632,296.092z M784.943,390.226c-18.318,0-36.252-3.165-53.319-9.408v-75.614
			c0-4.478,3.644-8.122,8.121-8.122h75.527c0.001,0,0.002,0,0.003,0c4.477,0,8.12,3.642,8.122,8.119v80.217
			C810.879,388.609,797.948,390.226,784.943,390.226z"/>
	</g>
	<path style="fill:#7F5A50;" d="M784.943,391.726c32.255,0,62.23-9.747,87.152-26.45c-1.351-0.704-2.857-1.163-4.469-1.305
		c-0.485-0.043-0.972-0.056-1.458-0.039c0,0-24.304,3.664-66.922,4.3c-41.941,0.624-63.224-2.278-63.224-2.278
		c-7.017,0.205-12.585,5.975-12.543,12.994v0.262C742.353,387.264,763.127,391.726,784.943,391.726z"/>
	<path style="fill:#684E46;" d="M799.585,373.98c-41.839,0.578-63.07-2.333-63.07-2.333c-5.311,0.141-9.789,3.489-11.624,8.154
		c18.497,7.679,38.777,11.925,60.051,11.925c29.067,0,56.281-7.922,79.616-21.71C858.251,370.837,835.404,373.484,799.585,373.98z"
		/>
	<path style="fill:#B37F43;" d="M896.024,345.565c4.816-4.838,9.313-9.994,13.469-15.424l-41.619-54.629l-208.644-9.204
		l-1.853,9.204l20.751,70.053H896.024z"/>
	<path style="fill:#F7D5AB;" d="M659.23,266.307l20.751,70.053h224.498c1.876-2.209,3.692-4.47,5.445-6.782l-40.196-63.272H659.23z"
		/>
	<g id="&#x7BB1;&#x5E95;-3" transform="translate(4.109 82.718)">
		<g>
			<defs>
				
					<rect id="SVGID_00000093864178078381051800000014735925789432191905_" x="672.208" y="107.334" width="211.252" height="124.911"/>
			</defs>
			<clipPath id="SVGID_00000162345219653649569960000002850516709335741065_">
				<use xlink:href="#SVGID_00000093864178078381051800000014735925789432191905_"  style="overflow:visible;"/>
			</clipPath>
			<g id="Group_246-3" style="clip-path:url(#SVGID_00000162345219653649569960000002850516709335741065_);">
				<path id="Path_2774-3" style="fill:#FFE266;" d="M864.224,232.243H691.411c-4.517,0.006-8.334-3.346-8.91-7.826l-9.986-107.369
					c-0.497-5.341-1.04-9.705,4.034-9.705h202.69c5.07,0,4.375,4.367,3.879,9.707l-9.986,107.369
					c-0.574,4.481-4.392,7.834-8.909,7.826"/>
				<path id="Path_2775-3" style="fill:#175653;" d="M694.293,216.218l-7.222-89.333c-0.3-2.408,1.409-4.604,3.817-4.904
					c0,0,0.001,0,0.001,0c0.165-0.021,0.332-0.033,0.498-0.034h172.854c2.427,0.024,4.375,2.01,4.352,4.437c0,0,0,0.001,0,0.001
					c-0.002,0.167-0.013,0.334-0.034,0.5l-7.223,89.333c-0.263,2.364-2.262,4.152-4.64,4.151H698.933
					C696.555,220.37,694.556,218.582,694.293,216.218"/>
				<path id="Path_2776-3" style="fill:#308482;" d="M690.582,131.539l6.46,82.776c0.201,1.867,1.777,3.282,3.654,3.282h154.243
					c1.878,0,3.453-1.415,3.653-3.282l6.46-82.776c0.227-1.888-1.12-3.603-3.008-3.83c-0.128-0.015-0.256-0.023-0.384-0.024H693.975
					c-1.902,0.015-3.432,1.569-3.417,3.472C690.559,131.285,690.567,131.412,690.582,131.539"/>
				<path id="Path_2777-3" style="fill:#175653;" d="M689.955,149.858l-0.253-3.173h176.569l-0.254,3.173H689.955z"/>
				<path id="Path_2778-3" style="fill:#175653;" d="M692.044,175.986l-0.239-3.024h172.36l-0.242,3.023L692.044,175.986z"/>
				<path id="Path_2779-3" style="fill:#175653;" d="M694.035,200.9l-0.23-2.884h168.35l-0.235,2.884H694.035z"/>
				<path id="Path_2780-3" style="fill:#308482;" d="M861.23,206.757h0.061l-1.034,12.921h-13.685
					c0.664-7.128,7.152-12.923,14.658-12.923"/>
				<path id="Path_2781-3" style="fill:#308482;" d="M694.141,206.757h-0.064l1.037,12.921H708.8
					c-0.665-7.128-7.155-12.923-14.658-12.923"/>
				<path id="Path_2782-3" style="fill:#FFE266;" d="M863.835,208.592h0.065l-1.126,13.62h-14.45
					c0.714-7.508,7.582-13.622,15.512-13.622"/>
				<path id="Path_2783-3" style="fill:#FFE266;" d="M691.796,208.592h-0.065l1.126,13.62h14.45
					c-0.713-7.508-7.582-13.622-15.512-13.622"/>
				<path id="Path_2784-3" style="fill:#F2AD22;" d="M684.103,116.371c0.216,1.618-0.918,3.105-2.535,3.324
					c-0.116,0.016-0.234,0.025-0.351,0.026c-1.836-0.08-3.323-1.518-3.464-3.35c-0.228-1.616,0.896-3.112,2.513-3.341
					c0.123-0.018,0.248-0.028,0.372-0.029C682.481,113.081,683.971,114.531,684.103,116.371"/>
				<path id="Path_2785-3" style="fill:#F2AD22;" d="M877.714,116.371c-0.142,1.832-1.629,3.269-3.464,3.35
					c-1.633-0.023-2.939-1.366-2.916-2.999c0.002-0.117,0.01-0.235,0.026-0.351c0.131-1.84,1.621-3.29,3.464-3.371
					c1.635,0.024,2.942,1.368,2.918,3.004C877.74,116.127,877.731,116.25,877.714,116.371"/>
				<path id="Path_2786-3" style="fill:#F2AD22;" d="M698.487,219.678c0.123,1.656-1.119,3.098-2.774,3.221
					c-0.112,0.008-0.223,0.01-0.335,0.006c-1.854,0.003-3.415-1.386-3.628-3.227c-0.135-1.654,1.095-3.104,2.749-3.24
					c0.119-0.01,0.239-0.012,0.359-0.008C696.718,216.427,698.284,217.828,698.487,219.678"/>
				<path id="Path_2787-3" style="fill:#F2AD22;" d="M864.368,220.376c-0.215,1.84-1.776,3.226-3.628,3.223
					c-1.656,0.063-3.05-1.229-3.113-2.885c-0.004-0.113-0.002-0.226,0.006-0.338c0.205-1.848,1.769-3.246,3.629-3.243
					c1.655-0.064,3.049,1.227,3.112,2.882c0,0,0,0,0,0.001C864.38,220.135,864.378,220.256,864.368,220.376"/>
				<path id="Path_2788-3" style="fill:#308482;" d="M788.051,149.332h-20.463c-5.548-0.11-9.993-4.629-10.011-10.177l-0.252-13.825
					h40.981l-0.252,13.825c-0.018,5.548-4.462,10.067-10.009,10.177"/>
				<path id="Path_2789-3" style="fill:#FFE266;" d="M786.781,145.093h-17.93c-4.558-0.095-8.202-3.819-8.198-8.378l-0.303-19.641
					c-0.209-4.653,3.393-8.595,8.046-8.805c0.052-0.002,0.103-0.004,0.155-0.006h18.526c4.657,0.125,8.332,4.002,8.206,8.66
					c-0.001,0.05-0.003,0.101-0.005,0.151l-0.302,19.641c0.004,4.558-3.64,8.282-8.197,8.378"/>
				<path id="Path_2790-3" style="fill:#FFF7AE;" d="M782.808,124.688c0.151-2.756-1.961-5.112-4.717-5.263
					s-5.112,1.961-5.263,4.717l0,0c-0.01,0.182-0.01,0.364,0,0.546c-0.005,1.736,0.839,3.364,2.261,4.359l0.018,7.368
					c-0.022,1.19,0.926,2.173,2.116,2.195c0,0,0,0,0.001,0h1.196c1.19-0.021,2.138-1.004,2.117-2.194c0,0,0,0,0-0.001l0.018-7.368
					c1.422-0.995,2.266-2.624,2.261-4.359"/>
				<path id="Path_2791-3" style="fill:#684E46;" d="M782.551,123.397c-0.142,2.615-2.377,4.621-4.992,4.479
					c-2.615-0.142-4.621-2.377-4.479-4.992c0.136-2.516,2.215-4.486,4.735-4.486c2.683,0.066,4.804,2.295,4.738,4.978
					c0,0,0,0.001,0,0.001L782.551,123.397"/>
				<path id="Path_2792-3" style="fill:#684E46;" d="M778.383,136.617h-1.137c-1.128-0.023-2.025-0.954-2.006-2.082l-0.025-10.704
					h5.197l-0.025,10.704c0.019,1.128-0.877,2.058-2.005,2.082"/>
				<path id="Path_2793-3" style="fill:#FFF7AE;" d="M754.29,110.814h-75.315c-0.72,0.009-1.311-0.567-1.32-1.287
					c-0.009-0.708,0.548-1.294,1.256-1.32h75.38c0.72-0.009,1.311,0.567,1.32,1.287c0.009,0.708-0.548,1.294-1.256,1.32H754.29"/>
				<path id="Path_2794-3" style="fill:#FFF7AE;" d="M876.581,110.814h-75.175c-0.72-0.02-1.287-0.619-1.268-1.339
					c0.019-0.692,0.576-1.249,1.268-1.267h75.175c0.72,0.02,1.287,0.619,1.267,1.339
					C877.829,110.238,877.273,110.795,876.581,110.814"/>
				<path id="Path_2795-3" style="fill:#F2AD22;" d="M757.048,111.136c-0.039-2.061,1.6-3.763,3.661-3.803c0.001,0,0.003,0,0.004,0
					h2.697c-1.673,0.015-3.034,1.35-3.081,3.023l-0.033,1.066l0.164,10.537h-3.218L757.048,111.136z"/>
				<path id="Path_2796-3" style="fill:#F2AD22;" d="M792.42,107.334h2.438c2.061,0,3.732,1.67,3.732,3.731c0,0.023,0,0.046,0,0.07
					l-0.195,10.803h-3.206l0.167-10.832l-0.014-0.811C795.314,108.687,794.028,107.384,792.42,107.334"/>
				<path id="Path_2797-3" style="fill:#FFF7AE;" d="M792.475,110.025H762.95c-0.72-0.052-1.261-0.678-1.209-1.398
					c0.047-0.647,0.562-1.162,1.209-1.209h29.525c0.693,0.027,1.233,0.611,1.207,1.304
					C793.682,108.722,793.631,110.026,792.475,110.025"/>
			</g>
		</g>
	</g>
	<g id="close-3" transform="translate(1.697 26.639)">
		<rect id="Rectangle_258-3" x="680.693" y="160.02" style="fill:#F2AD22;" width="199.939" height="4.096"/>
		<g id="Group_249-3" transform="translate(0 0)">
			<g>
				<defs>
					
						<rect id="SVGID_00000142883157490969936160000007981114588300959414_" x="672.268" y="108.734" width="215.879" height="55.383"/>
				</defs>
				<clipPath id="SVGID_00000098907095464235936870000010229495472957296000_">
					<use xlink:href="#SVGID_00000142883157490969936160000007981114588300959414_"  style="overflow:visible;"/>
				</clipPath>
				<g id="Group_248-3" style="clip-path:url(#SVGID_00000098907095464235936870000010229495472957296000_);">
					<path id="Path_2798-3" style="fill:#308482;" d="M720.202,110.082h120.008c26.846,0,42.374,19.283,41.402,48.673H678.805
						C677.828,129.368,693.357,110.082,720.202,110.082"/>
					<path id="Path_2799-3" style="fill:#175653;" d="M692.12,125.97l-0.085-3.188h176.342l-0.085,3.188H692.12z"/>
					<path id="Path_2800-3" style="fill:#175653;" d="M839.211,110.082h-12.981c26.846,0,42.469,19.283,41.639,48.673h12.773
						c0.954-29.387-14.588-48.673-41.433-48.673"/>
					<path id="Path_2801-3" style="fill:#F8C744;" d="M843.63,108.734h-7.76c-1.632,0.003-3.242,0.378-4.708,1.097l-0.514,0.251
						c26.846,0,42.441,19.283,41.571,48.673h12.773C885.987,129.368,870.476,108.734,843.63,108.734"/>
					<path id="Path_2802-3" style="fill:#175653;" d="M722.513,110.082h12.981c-26.846,0-42.463,19.286-41.623,48.673h-12.773
						C680.131,129.368,695.672,110.082,722.513,110.082"/>
					<path id="Path_2803-3" style="fill:#F8C744;" d="M719.198,108.734h7.788c1.816,0.004,3.602,0.468,5.191,1.348
						c-26.843,0-42.437,19.282-41.568,48.671h-12.778C676.839,129.368,692.35,108.734,719.198,108.734"/>
					<path id="Path_2804-3" style="fill:#FFE266;" d="M882.167,160.945h-203.92c-2.913,0.1-5.402-2.08-5.686-4.98l-0.293-6.654
						c-0.005-2.775,2.24-5.03,5.016-5.035c0.094,0,0.189,0.002,0.283,0.007h205.276c2.771-0.151,5.14,1.974,5.291,4.745
						c0.005,0.094,0.008,0.188,0.007,0.282l-0.285,6.655C887.571,158.867,885.08,161.047,882.167,160.945"/>
					<path id="Path_2805-3" style="fill:#F2AD22;" d="M686.722,152.382c0.216,1.618-0.918,3.105-2.535,3.324
						c-0.116,0.016-0.234,0.025-0.351,0.026c-1.836-0.08-3.323-1.518-3.464-3.35c-0.228-1.617,0.898-3.113,2.515-3.341
						c0,0,0.001,0,0.001,0c0.123-0.018,0.248-0.028,0.372-0.029c1.844,0.08,3.334,1.53,3.465,3.371"/>
					<path id="Path_2806-3" style="fill:#F2AD22;" d="M883.131,151.963c-0.142,1.832-1.629,3.269-3.464,3.35
						c-1.633-0.023-2.939-1.366-2.916-2.999c0.001-0.117,0.01-0.235,0.025-0.351c0.131-1.84,1.621-3.29,3.464-3.371
						c1.635,0.024,2.942,1.368,2.918,3.004C883.156,151.719,883.147,151.841,883.131,151.963"/>
					<path id="Path_2807-3" style="fill:#FFF7AE;" d="M883.141,146.926H677.273c-0.717,0.073-1.358-0.449-1.432-1.166
						s0.449-1.358,1.166-1.432c0.041-0.004,0.082-0.006,0.123-0.007c0.047,0,0.097,0,0.142,0h205.869
						c0.719-0.059,1.349,0.475,1.408,1.194c0.059,0.719-0.475,1.349-1.194,1.408c-0.024,0.002-0.048,0.003-0.072,0.004
						c-0.047,0-0.098,0-0.142,0"/>
				</g>
			</g>
		</g>
	</g>
	<g id="open-3" style="opacity:0;">
		<g>
			<defs>
				
					<rect id="SVGID_00000062175833951614574400000008739923204026988681_" x="672.31" y="109.399" width="219.654" height="80.961"/>
			</defs>
			<clipPath id="SVGID_00000041253891504193132800000001430583134922200193_">
				<use xlink:href="#SVGID_00000062175833951614574400000008739923204026988681_"  style="overflow:visible;"/>
			</clipPath>
		</g>
	</g>
</g>
<g id="tip">
	<g>
		<path style="fill:#FFFFFF;" d="M294.272,54.503h-10.091v-2.165h10.091V54.503z M293.453,58.247h-8.571v-2.106h8.571V58.247z
			 M284.912,60.089h8.57v2.106h-8.57V60.089z M293.423,72.725h-6.143v1.228h-2.311v-9.828h8.453V72.725z M287.281,66.29v4.241h3.802
			V66.29H287.281z M288.861,52.25c-0.234-1.053-0.878-2.72-1.404-3.978l2.281-0.673c0.586,1.199,1.258,2.808,1.55,3.832
			L288.861,52.25z M309.306,71.731c0,1.199-0.263,1.843-1.111,2.194c-0.819,0.38-2.136,0.409-3.949,0.38
			c-0.117-0.644-0.439-1.58-0.761-2.194c1.228,0.059,2.428,0.059,2.778,0.029c0.381,0,0.498-0.117,0.498-0.438v-1.931h-8.571
			c-0.292,1.784-0.936,3.539-2.106,4.885c-0.38-0.497-1.374-1.463-1.901-1.755c1.725-2.106,1.901-4.973,1.901-7.254v-5.265h13.221
			V71.731z M310.856,56.842v2.048h-16.321v-2.048h6.669v-1.638h-5.586v-1.931h5.586v-1.492h-6.288v-1.989h6.288v-2.252h2.633v2.252
			h6.698v1.989h-6.698v1.492h6.143v1.931h-6.143v1.638H310.856z M306.762,67.928v-1.813h-8.219c0,0.556-0.03,1.199-0.088,1.813
			H306.762z M298.542,62.458v1.784h8.219v-1.784H298.542z"/>
		<path style="fill:#FFFFFF;" d="M313.08,73.193c0.878-1.375,1.55-3.598,1.872-5.353l1.814,0.673
			c-0.322,1.813-0.907,4.066-1.755,5.47L313.08,73.193z M326.594,66.846h-12.899v-2.135h5.236V62.81h-4.71v-2.135h4.71v-1.638
			h-4.622v-10.53h11.788v10.53h-4.768v1.638h4.855v2.135h-4.855v1.901h5.265V66.846z M316.385,57.135h2.838v-6.728h-2.838V57.135z
			 M317.848,51.432c0.439,1.345,0.848,3.129,0.936,4.241l-1.316,0.409c-0.058-1.17-0.409-2.954-0.848-4.329L317.848,51.432z
			 M319.34,68.338c0.322,1.58,0.467,3.686,0.439,5.031l-1.814,0.234c0.088-1.374-0.058-3.481-0.35-5.06L319.34,68.338z
			 M322.236,68.191c0.556,1.492,1.111,3.422,1.258,4.68l-1.755,0.409c-0.117-1.316-0.614-3.276-1.17-4.768L322.236,68.191z
			 M323.962,50.407h-2.984v6.728h2.984V50.407z M321.212,55.79c0.409-1.199,0.966-3.159,1.199-4.446l1.492,0.556
			c-0.556,1.433-1.111,3.217-1.608,4.3L321.212,55.79z M325.19,67.84c0.877,1.404,1.667,3.305,1.989,4.563l-1.784,0.673
			c-0.292-1.258-1.053-3.188-1.902-4.621L325.19,67.84z M334.169,56.228v5.031h4.856v12.957h-2.575v-1.141h-6.493v1.258h-2.457
			V61.259h4.036V47.541h2.632v6.172h5.938v2.515H334.169z M336.451,63.716h-6.493v6.874h6.493V63.716z"/>
		<path style="fill:#FFFFFF;" d="M350.024,61.786c-0.322,2.311-0.848,4.359-1.491,6.143c1.755,3.159,5.294,3.627,10.501,3.627
			c3.1,0,7.576-0.147,10.676-0.439c-0.409,0.585-0.731,1.813-0.878,2.545c-2.866,0.176-6.552,0.263-9.827,0.263
			c-5.675,0-9.214-0.585-11.496-3.744c-0.965,1.813-2.164,3.188-3.51,4.241c-0.38-0.556-1.228-1.462-1.784-1.842
			c2.486-1.755,4.241-4.826,5.119-9.068h-2.311c-0.644,0-1.463,0.205-1.696,0.439c-0.147-0.614-0.615-1.813-0.907-2.281
			c0.439-0.147,0.878-0.322,1.345-0.907c0.498-0.556,1.697-2.574,2.662-4.3H342.8v-2.194h5.089l0.35-0.146l1.726,0.673
			c-0.995,1.638-2.662,4.592-4.008,6.581h2.311l0.439-0.059L350.024,61.786z M346.982,53.537c-0.819-1.228-2.457-3.217-3.744-4.65
			l2.019-1.258c1.345,1.404,2.983,3.246,3.773,4.387L346.982,53.537z M350.112,66.144v-2.048h4.973v-2.311h-3.833v-2.047h3.833
			v-1.843h2.486v1.843h3.949v-1.843h2.515v1.843h3.92v2.047h-3.92v2.311h4.944v2.048H350.112z M359.034,54.737
			c-0.147,0.614-0.264,1.463-0.293,1.931c-6.201,1.053-7.137,1.258-7.634,1.521c-0.147-0.556-0.614-1.58-0.907-2.077
			c0.381-0.176,0.82-0.644,0.82-1.726v-5.821h7.868v5.207h-5.733v1.872L359.034,54.737z M358.448,67.022
			c-1.491,1.404-3.861,2.808-5.791,3.685c-0.497-0.468-1.433-1.287-2.077-1.638c2.047-0.731,4.183-1.784,5.441-2.896L358.448,67.022
			z M353.154,50.32v1.667h3.422V50.32H353.154z M357.571,64.096h3.949v-2.311h-3.949V64.096z M363.011,57.427
			c-2.252,0-2.808-0.848-2.808-3.042v-5.792h8.015v5.207h-5.849v0.644c0,0.789,0.116,1.082,0.76,1.082h3.539
			c0.556,0,1.463-0.059,1.931-0.176c0.058,0.585,0.146,1.404,0.205,1.902c-0.439,0.146-1.258,0.175-2.077,0.175H363.011z
			 M366.024,70.59c-1.169-0.965-3.188-2.281-5.147-3.246l1.784-1.199c2.077,0.936,4.416,2.252,5.791,3.276L366.024,70.59z
			 M362.368,50.349v1.667h3.538v-1.667H362.368z"/>
		<path style="fill:#FFFFFF;" d="M381.586,48.565c-0.848,2.047-1.872,4.095-3.013,6.025v19.685h-2.691V58.598
			c-0.966,1.287-2.019,2.457-3.042,3.451c-0.292-0.643-1.111-2.135-1.638-2.808c3.042-2.749,5.966-7.079,7.693-11.524
			L381.586,48.565z M390.858,62.546v8.131h7.224v2.603h-17.081v-2.603h7.107v-8.131h-7.985v-2.633h7.985v-7.108h-6.171v-2.574
			h15.619v2.574h-6.698v7.108h7.868v2.633H390.858z"/>
		<path style="fill:#FFFFFF;" d="M427.802,59.153v2.984h-26.617v-2.984H427.802z"/>
		<path style="fill:#FFFFFF;" d="M449.009,70.531c2.778,0.731,5.586,1.58,7.4,2.252l-2.369,1.609
			c-1.96-0.819-5.353-1.931-8.716-2.837l1.228-1.024h-6.084l1.404,0.936c-2.428,1.229-6.347,2.34-9.536,2.867
			c-0.38-0.497-1.111-1.345-1.638-1.813c2.603-0.409,5.763-1.199,7.81-1.989h-4.007v-9.448h18.837v9.448H449.009z M433.068,53.567
			h-1.783v-4.242h11.056c-0.205-0.527-0.438-1.024-0.672-1.463l2.691-0.614c0.38,0.614,0.761,1.375,1.024,2.077h10.705v4.242h-2.222
			v0.906h-3.511v1.053h5.119v1.492h-5.119v1.696h2.194v-1.345h2.047v2.838h-10.588v-2.838h1.989v1.345h2.077v-1.696h-4.914v-1.492
			h0.995c-0.38-0.322-0.848-0.585-1.17-0.731c1.141-0.936,1.989-2.106,2.457-3.13l1.931,0.292c-0.175,0.322-0.351,0.673-0.527,1.024
			h6.669V51.49h-19.773v1.316h8.863v1.638h-3.598v1.17h3.247v1.463h-3.247v1.112l3.744-0.205v1.755
			c-3.89,0.292-7.926,0.556-10.793,0.702l-0.205-1.872c1.375-0.059,3.1-0.146,5.002-0.263v-1.228h-3.335v-1.463h3.335v-1.17h-3.686
			V53.567z M437.134,63.746h13.455v-1.112h-13.455V63.746z M437.134,66.378h13.455v-1.17h-13.455V66.378z M437.134,69.01h13.455
			v-1.199h-13.455V69.01z M448.073,54.473h-2.222c-0.293,0.38-0.615,0.702-0.966,1.053h3.188V54.473z"/>
		<path style="fill:#FFFFFF;" d="M467.702,62.254c1.258,1.083,3.919,3.569,4.592,4.212l-1.756,2.165
			c-0.585-0.848-1.755-2.252-2.837-3.51v9.272h-2.603V65.53c-1.228,2.223-2.691,4.329-4.095,5.763
			c-0.409-0.644-1.111-1.58-1.725-2.106c1.93-1.696,4.036-4.885,5.294-7.78h-4.388v-2.486h4.914v-3.101h2.603v3.101h4.329v2.486
			h-4.329V62.254z M464.337,52.075c-0.936,1.404-1.96,2.691-2.955,3.656c-0.438-0.468-1.433-1.404-2.047-1.813
			c1.872-1.609,3.569-4.066,4.534-6.523l2.544,0.702c-0.234,0.556-0.497,1.111-0.731,1.667h7.02v2.31h-5.031
			c0.994,0.848,2.135,1.931,2.691,2.72l-1.784,1.609c-0.555-0.907-1.842-2.281-2.896-3.217l1.316-1.112H464.337z M486.07,49.823
			v2.281h-5.265c0.994,0.877,2.135,1.989,2.72,2.72l-1.726,1.638c-0.644-0.907-2.077-2.34-3.217-3.364l1.141-0.994h-3.013
			c-0.819,1.374-1.784,2.632-2.72,3.597c-0.497-0.438-1.638-1.228-2.281-1.55c1.814-1.638,3.394-4.153,4.241-6.757l2.662,0.614
			c-0.205,0.615-0.439,1.199-0.702,1.814H486.07z M472.849,56.872h12.197v17.257h-2.75v-1.024h-6.844v1.199h-2.603V56.872z
			 M475.452,59.27v2.428h6.844V59.27H475.452z M482.297,66.261v-2.486h-6.844v2.486H482.297z M482.297,70.882v-2.545h-6.844v2.545
			H482.297z"/>
		<path style="fill:#FFFFFF;" d="M496.865,61.815c-0.41,2.457-1.025,4.592-1.814,6.435c1.872,2.867,5.265,3.306,10.238,3.306
			c3.071,0,7.546-0.147,10.646-0.439c-0.409,0.585-0.761,1.813-0.877,2.545c-2.838,0.176-6.523,0.263-9.799,0.263
			c-5.528,0-9.01-0.585-11.261-3.598c-1.082,1.784-2.369,3.101-3.832,4.095c-0.351-0.526-1.228-1.462-1.784-1.842
			c2.778-1.697,4.739-4.768,5.733-9.068h-2.866c-0.731,0-1.522,0.205-1.756,0.439c-0.146-0.614-0.672-1.813-0.936-2.311
			c0.439-0.117,0.936-0.322,1.434-0.906c0.614-0.585,2.135-2.603,3.305-4.3h-4.271v-2.193h5.996l0.351-0.147l1.697,0.79
			c-1.141,1.638-3.159,4.505-4.769,6.493h2.779l0.439-0.059L496.865,61.815z M493.676,53.42c-0.789-1.199-2.427-3.217-3.744-4.65
			l2.048-1.258c1.345,1.404,2.954,3.247,3.773,4.417L493.676,53.42z M499.117,57.135c-0.673,0.906-1.316,1.755-2.019,2.486
			c-0.233-0.468-0.965-1.638-1.433-2.164c2.311-2.399,4.388-6.055,5.646-9.769l2.281,0.673c-0.468,1.287-1.024,2.603-1.638,3.861
			h5.118c-0.38-1.141-1.024-2.515-1.667-3.627l2.281-0.673c0.761,1.345,1.609,3.1,1.989,4.3h4.914v2.194h-6.084v2.545h5.147v2.106
			h-5.147v2.545h5.177v2.106h-5.177v2.662h6.64v2.252h-16.029V57.135z M506.108,54.415h-4.563v2.545h4.563V54.415z M506.108,59.066
			h-4.563v2.545h4.563V59.066z M506.108,63.716h-4.563v2.662h4.563V63.716z"/>
		<path style="fill:#FFFFFF;" d="M528.251,54.707c-0.906,1.492-1.989,3.013-3.188,4.475v15.239h-2.72V62.195
			c-0.966,0.965-1.96,1.872-2.896,2.632c-0.351-0.585-1.317-1.784-1.872-2.311c2.983-2.135,6.143-5.469,8.102-8.775L528.251,54.707z
			 M527.14,48.565c-1.989,2.603-5.031,5.499-7.722,7.4c-0.322-0.614-1.053-1.667-1.55-2.193c2.428-1.58,5.236-4.183,6.669-6.289
			L527.14,48.565z M544.689,59.797h-4.212v11.261c0,1.55-0.35,2.34-1.462,2.779c-1.083,0.409-2.808,0.438-5.528,0.438
			c-0.117-0.79-0.498-1.931-0.878-2.72c1.872,0.058,3.832,0.058,4.358,0.029c0.556,0,0.731-0.146,0.731-0.556V59.797h-9.243v-2.603
			h16.234V59.797z M543.87,51.811h-14.187v-2.603h14.187V51.811z"/>
		<path style="fill:#FFFFFF;" d="M557.151,62.488c-1.141,0.351-2.252,0.673-3.363,0.995v7.897c0,1.374-0.292,2.077-1.112,2.486
			c-0.847,0.409-2.105,0.498-4.065,0.468c-0.089-0.644-0.439-1.755-0.79-2.457c1.228,0.059,2.458,0.059,2.808,0.03
			c0.38,0,0.556-0.117,0.556-0.556v-7.079c-1.258,0.351-2.428,0.702-3.539,1.024l-0.673-2.632c1.17-0.293,2.633-0.673,4.212-1.083
			v-5.85h-3.803v-2.516h3.803v-5.675h2.603v5.675h3.041v2.516h-3.041v5.148l3.041-0.848L557.151,62.488z M573.56,54.093V74.1h-2.72
			v-1.872h-10.56v2.077h-2.574V54.093h6.494V47.57h2.574v6.522H573.56z M560.28,56.696v5.06h3.92v-5.06H560.28z M560.28,69.625h3.92
			v-5.353h-3.92V69.625z M566.774,56.696v5.06h4.066v-5.06H566.774z M570.84,69.625v-5.353h-4.066v5.353H570.84z"/>
		<path style="fill:#FFFFFF;" d="M593.247,68.25c3.451,1.229,7.78,2.867,10.179,3.949l-1.287,2.165
			c-2.544-1.258-7.693-3.364-11.407-4.739l0.906-1.375h-1.141c-1.258,2.428-4.475,4.914-12.519,6.23
			c-0.321-0.614-0.994-1.609-1.55-2.223c6.114-0.936,9.185-2.457,10.705-4.007h-10.471v-2.252h11.729
			c0.059-0.351,0.088-0.673,0.088-0.965V63.19h2.692v1.902c0,0.292,0,0.585-0.059,0.906h5.586c-0.614-0.585-1.463-1.228-2.135-1.696
			l0.936-0.907h-1.053c-0.088-0.643-0.409-1.433-0.731-2.047c1.17,0.059,2.311,0.059,2.633,0.029
			c0.322-0.029,0.439-0.088,0.439-0.409v-2.34h-5.938c1.024,0.644,2.047,1.521,2.574,2.194l-1.755,1.433
			c-0.614-0.848-1.931-1.989-3.042-2.72l1.17-0.907h-3.189v-1.842h0.907c-0.205-0.498-0.644-1.141-0.995-1.521
			c2.75-0.293,5.47-0.877,7.78-1.813c-0.702-0.79-1.666-1.755-2.603-2.486c-1.111,0.438-2.31,0.848-3.597,1.228
			c-0.292-0.497-0.936-1.199-1.404-1.55c3.51-0.819,6.201-1.989,7.751-3.247l2.281,0.527c-0.439,0.351-0.848,0.702-1.345,1.053
			h4.768l0.439-0.088l1.433,0.76c-2.457,4.329-7.81,6.23-13.63,7.137h8.395v-2.048h2.574v2.048h3.51v1.842h-3.51v2.428
			c0,1.17-0.234,1.696-1.053,2.018c-0.527,0.205-1.17,0.263-1.989,0.292c0.906,0.644,1.901,1.404,2.428,1.96l-0.644,0.673h5.207
			v2.252H593.247z M581.107,58.598c0,1.433-0.438,4.153-2.399,5.821c-0.497-0.38-1.491-0.936-2.105-1.229
			c1.783-1.374,2.077-3.539,2.077-4.68v-0.088h-1.901v-2.135h6.347v-1.96h-5.06v-6.084h2.281v3.949h2.778v-4.592h2.457v16.468
			h-2.457v-5.645h-2.019V58.598z M592.194,53.713c-1.609,0.175-3.1,0.292-4.534,0.438l-0.233-1.521
			c1.345-0.059,2.896-0.176,4.738-0.293L592.194,53.713z M593.744,50.583c0.819,0.643,1.608,1.374,2.252,2.106
			c1.083-0.614,2.019-1.316,2.75-2.106H593.744z"/>
	</g>
	<g style="enable-background:new    ;">
		<path style="fill:#FFFFFF;" d="M641.114,64.149c-0.38-0.14-0.732-0.358-1.135-0.415c-0.129,0.148-0.008,0.251,0.043,0.337
			c0.333,0.562,0.665,1.125,1.026,1.668c0.405,0.61,0.732,1.253,0.914,1.962c0.094,0.367,0.146,0.745,0.203,1.121
			c0.078,0.521,0.157,1.042,0.21,1.566c0.061,0.613-0.035,1.214-0.332,1.751c-0.181,0.328-0.428,0.641-0.71,0.886
			c-0.321,0.278-0.713,0.476-1.079,0.701c-0.31,0.19-0.623,0.381-1.013,0.332c-1.015,0.373-2.047,0.271-3.064,0.047
			c-0.555-0.122-1.087-0.355-1.625-0.55c-0.134-0.049-0.273-0.125-0.371-0.226c-0.579-0.59-1.37-0.886-1.975-1.436
			c-0.125-0.113-0.263-0.217-0.365-0.348c-0.445-0.57-0.933-1.116-1.299-1.734c-0.303-0.511-0.631-1.034-0.747-1.642
			c-0.023-0.118-0.067-0.235-0.12-0.343c-0.228-0.461-0.374-0.942-0.354-1.461c-0.118-0.044-0.206-0.076-0.339-0.125
			c0.008-0.1,0.051-0.224,0.02-0.325c-0.158-0.511,0.102-0.947,0.265-1.383c0.288-0.77,0.745-1.458,1.169-2.16
			c0.063-0.103,0.134-0.202,0.189-0.31c0.112-0.218,0.213-0.429,0.019-0.671c-0.062-0.077-0.03-0.228-0.044-0.382
			c-0.378-0.132-0.755-0.268-1.135-0.395c-0.497-0.166-0.99-0.353-1.497-0.479c-0.416-0.103-0.849-0.136-1.276-0.187
			c-0.142-0.017-0.29,0.02-0.434,0.009c-0.275-0.021-0.498-0.238-0.811-0.175c-0.253,0.051-0.526-0.004-0.79-0.006
			c-0.428-0.003-0.862,0.092-1.28-0.086c-0.04-0.017-0.101-0.015-0.142,0.003c-0.421,0.177-0.865-0.033-1.287,0.078
			c-0.254,0.067-0.54,0.102-0.747,0.244c-0.551,0.379-1.249,0.479-1.747,0.95c-0.067,0.063-0.171,0.086-0.271,0.133
			c-0.246-0.076-0.495-0.153-0.744-0.23c-0.037,0.212-0.072,0.413-0.104,0.594c0.471,0.932,1.155,1.686,1.819,2.458
			c0.456,0.53,0.93,1.056,1.304,1.643c0.339,0.531,0.713,1.027,1.099,1.52c0.297,0.379,0.598,0.756,0.864,1.156
			c0.307,0.462,0.58,0.947,0.864,1.424c0.172,0.288,0.339,0.58,0.489,0.837c-0.178,0.36-0.334,0.675-0.493,0.997
			c-0.278-0.054-0.146-0.308-0.236-0.482c-0.055,0.035-0.15,0.064-0.154,0.102c-0.012,0.117,0.037,0.243,0.012,0.354
			c-0.017,0.077-0.117,0.137-0.18,0.204c-0.057-0.065-0.114-0.13-0.184-0.209c-0.359,0.19-0.738,0.151-1.152,0.035
			c-0.04-0.049-0.111-0.118-0.159-0.2c-0.124-0.212-0.259-0.296-0.534-0.22c-0.312,0.086-0.365,0.013-0.49-0.338
			c-0.015-0.043-0.049-0.08-0.074-0.12c-0.122-0.058-0.319,0.102-0.373-0.19c-0.03-0.16-0.362-0.226-0.24-0.505
			c0.014-0.032-0.013-0.115-0.042-0.129c-0.291-0.142-0.269-0.533-0.5-0.675c-0.248-0.152-0.258-0.383-0.345-0.591
			c-0.087-0.21-0.111-0.432-0.402-0.507c-0.138-0.036-0.269-0.212-0.342-0.355c-0.116-0.227-0.292-0.38-0.479-0.535
			c-0.068-0.056-0.161-0.168-0.144-0.228c0.07-0.249-0.101-0.386-0.246-0.479c-0.536-0.343-0.77-0.883-1.011-1.451
			c-0.06,0.03-0.12,0.059-0.179,0.088l0.014,0.004c-0.072-0.214-0.069-0.488-0.398-0.497c0.019-0.063,0.038-0.126,0.061-0.202
			c-0.174-0.113-0.352-0.228-0.547-0.355c0.026-0.124,0.05-0.237,0.084-0.394c-0.308-0.103-0.707-0.15-0.674-0.626
			c0.032-0.032,0.063-0.063,0.094-0.095c-0.024,0.035-0.048,0.069-0.072,0.104c-0.183-0.214-0.418-0.403-0.536-0.648
			c-0.156-0.324-0.303-0.624-0.588-0.866c-0.161-0.137-0.118-0.397-0.113-0.619c0.006-0.292-0.054-0.328-0.458-0.422
			c0.047-0.172,0.094-0.343,0.145-0.532c-0.183-0.016-0.323-0.029-0.507-0.046c0.067-0.168,0.192-0.326,0.166-0.453
			c-0.035-0.172,0.098-0.271,0.088-0.409c-0.037-0.507,0.218-0.858,0.631-1.18c-0.041-0.092-0.088-0.194-0.156-0.346
			c0.387-0.603,0.509-1.359,0.918-1.999c0.122-0.19,0.238-0.365,0.421-0.469c0.21-0.119,0.459-0.166,0.409-0.501
			c-0.009-0.061,0.113-0.146,0.182-0.212c0.206-0.199,0.456-0.368,0.615-0.599c0.203-0.297,0.417-0.521,0.787-0.576
			c0.084-0.013,0.196-0.092,0.226-0.168c0.157-0.4,0.514-0.542,0.856-0.714c0.129-0.065,0.28-0.138,0.352-0.252
			c0.227-0.355,0.582-0.471,0.951-0.576c0.043-0.012,0.121-0.018,0.125-0.037c0.091-0.491,0.763-0.424,0.863-0.902
			c0.199-0.101,0.46-0.102,0.57-0.348c0.638-0.342,1.156-0.836,1.662-1.33c0.104,0.047,0.187,0.086,0.268,0.122
			c0.194-0.144,0.38-0.288,0.572-0.422c0.278-0.194,0.651-0.113,0.93-0.312c0.306,0.238,0.672-0.25,0.971,0.08
			c0.157-0.039,0.314-0.077,0.438-0.108c0.257,0.319,0.505,0.628,0.757,0.935c0.006,0.008,0.045-0.011,0.068-0.017l-0.026-0.012
			c0.212,0.114,0.425,0.227,0.637,0.341c0.102,0.396,0.687,0.392,0.709,0.887c-0.121,0.211-0.239,0.456-0.583,0.391
			c-0.211,0.171-0.443,0.263-0.723,0.251c-0.081-0.003-0.176,0.076-0.246,0.139c-0.498,0.452-1.052,0.825-1.604,1.207
			c-0.571,0.395-1.087,0.879-1.581,1.371c-0.156,0.155-0.315,0.249-0.489,0.363c-0.422,0.276-0.803,0.614-1.194,0.935
			c-0.115,0.094-0.222,0.24-0.128,0.376c0.072,0.103,0.224,0.169,0.354,0.207c0.109,0.033,0.237-0.004,0.357,0.002
			c0.12,0.007,0.287-0.017,0.352,0.051c0.291,0.307,0.43,0.219,0.535-0.144c0.015-0.052,0.173-0.1,0.253-0.087
			c0.136,0.023,0.263,0.097,0.431,0.165c0.142-0.088,0.317-0.197,0.508-0.316c0.036,0.106,0.065,0.193,0.107,0.317
			c0.125-0.06,0.244-0.117,0.386-0.185c0.096,0.09,0.183,0.225,0.304,0.272c0.149,0.057,0.326,0.058,0.49,0.052
			c0.189-0.006,0.378-0.036,0.564-0.071c0.391-0.073,0.602-0.035,1.047,0.153c0.175,0.074,0.372,0.102,0.561,0.138
			c0.21,0.04,0.423,0.065,0.627,0.096c0.025,0.109,0.045,0.196,0.069,0.302c0.278,0.029,0.408-0.505,0.742-0.199
			c0,0-0.011-0.013-0.011-0.013c0.062,0.035,0.131,0.062,0.186,0.106c0.199,0.162,0.427-0.01,0.627,0.057
			c0.199,0.067,0.388,0.255,0.575,0.246c0.479-0.023,0.698,0.23,0.849,0.645c0.109-0.037,0.219-0.074,0.362-0.123
			c0.395,0.298,0.901,0.479,1.194,0.935c0.183,0.005,0.346,0.015,0.51,0.014c0.325-0.001,0.466,0.183,0.496,0.471
			c0.23,0.068,0.468,0.11,0.679,0.208c0.214,0.099,0.391,0.276,0.604,0.378c0.182,0.087,0.428-0.142,0.604,0.094
			c0.021,0.028,0.115,0.043,0.135,0.023c0.166-0.166,0.351-0.007,0.528-0.04c0.378-0.071,0.763-0.103,1.145-0.148
			c0.31-0.036,0.62-0.067,0.924,0.048c0.066,0.025,0.143,0.019,0.216,0.024c0.811,0.056,0.811,0.056,1.26,0.367
			c0.168-0.028,0.335-0.112,0.422-0.06c0.242,0.143,0.544,0.119,0.767,0.318c0.119,0.107,0.319,0.119,0.453,0.215
			c0.187,0.133,0.317-0.102,0.471-0.044c0.153,0.057,0.342-0.008,0.462,0.161c0.356,0.506,0.958,0.478,1.467,0.628
			c0.158,0.047,0.346,0.043,0.441,0.179c0.274,0.395,0.723,0.547,1.085,0.818c0.139,0.104,0.281,0.166,0.306,0.367
			c0.007,0.058,0.138,0.095,0.204,0.152c0.16,0.14,0.315,0.287,0.482,0.441c0.035-0.046,0.096-0.126,0.184-0.241
			c0.291,0.269,0.573,0.523,0.847,0.786c0.065,0.063,0.133,0.152,0.143,0.236c0.024,0.196,0.147,0.28,0.298,0.377
			c0.693,0.443,1.332,0.943,1.722,1.697c0.031,0.059,0.085,0.14,0.137,0.148c0.323,0.048,0.413,0.262,0.487,0.547
			c0.059,0.23,0.227,0.418,0.477,0.51c0.41,0.151,0.62,0.496,0.862,0.839c0.344,0.487,0.655,0.999,1.072,1.442
			c0.394,0.418,0.707,0.915,1.044,1.386c0.536,0.747,1.062,1.501,1.593,2.252c0.042,0.059,0.114,0.107,0.132,0.172
			c0.231,0.814,0.878,1.439,1.033,2.287c0.016,0.085,0.103,0.154,0.142,0.237c0.071,0.149,0.166,0.298,0.191,0.457
			c0.093,0.59,0.084,0.592,0.5,0.958c-0.064,0.241-0.131,0.49-0.202,0.755c-0.135-0.043-0.237-0.076-0.341-0.109
			c0.027,0.189,0.039,0.388,0.31,0.366c0.081,0.158,0.161,0.315,0.254,0.497c-0.087,0.029-0.148,0.067-0.209,0.067
			c-0.103,0-0.196,0-0.206,0.129c-0.008,0.106,0.04,0.171,0.152,0.203c0.273,0.08,0.301,0.101,0.205,0.282
			c-0.158,0.3-0.155,0.595-0.036,0.902c-0.156,0.063-0.289,0.102-0.406,0.168c-0.096,0.055-0.172,0.142-0.265,0.222
			c-0.109-0.115-0.187-0.199-0.264-0.28c-0.286,0.004-0.57,0.008-0.856,0.012c-0.17-0.306-0.32-0.571-0.084-0.888
			c0.086-0.115,0.041-0.259-0.1-0.283c-0.204-0.035-0.293-0.133-0.319-0.328c-0.015-0.115-0.027-0.25-0.092-0.335
			c-0.128-0.166-0.202-0.321-0.129-0.532c0.019-0.056,0.001-0.159-0.04-0.197c-0.183-0.169-0.337-0.338-0.328-0.614
			c0.008-0.243-0.366-0.344-0.256-0.636c-0.118-0.135-0.287-0.24-0.184-0.477c0.015-0.035-0.251-0.019-0.322-0.189
			c-0.152-0.363-0.537-0.606-0.534-1.06c0.001-0.091-0.123-0.211-0.218-0.27c-0.392-0.24-0.535-0.742-0.982-0.92
			c-0.02-0.008-0.049-0.027-0.05-0.043c-0.042-0.496-0.398-0.74-0.764-0.989c-0.083-0.057-0.143-0.209-0.142-0.316
			c0.002-0.197-0.067-0.309-0.234-0.408c-0.089-0.053-0.152-0.177-0.19-0.283c-0.089-0.252-0.246-0.434-0.513-0.45
			c-0.3-0.018-0.412-0.197-0.489-0.442c-0.003-0.008-0.087,0.009-0.133,0.014l0.003-0.008c-0.119-0.144-0.37-0.135-0.415-0.367
			c-0.048-0.247-0.264-0.139-0.41-0.184c-0.074-0.476-0.481-0.55-0.829-0.584c-0.332-0.032-0.539-0.138-0.66-0.435l-0.016,0.011
			c0.104-0.059,0.208-0.119,0.311-0.176c0.004,0.069-0.007,0.143,0.018,0.201c0.021,0.048,0.082,0.08,0.129,0.114
			c0.006,0.005,0.051-0.022,0.049-0.031c-0.007-0.055-0.005-0.122-0.037-0.159c-0.041-0.048-0.111-0.072-0.168-0.106
			c-0.09-0.176-0.234-0.193-0.403-0.139l0.024,0.002c-0.119-0.144-0.239-0.289-0.358-0.433c0.022-0.004,0.044-0.009,0.066-0.013
			c-0.02,0.012-0.04,0.023-0.06,0.035c-0.034-0.268-0.231-0.322-0.452-0.344l-0.015,0.016c-0.31-0.141-0.62-0.281-0.92-0.417
			c0.025-0.172-0.009-0.368,0.228-0.214c0.043-0.017,0.084-0.039,0.126-0.04c0.08-0.001,0.18,0.07,0.211-0.07
			c0.004-0.017-0.021-0.057-0.023-0.057c-0.076,0.023-0.154,0.043-0.225,0.079c-0.038,0.019-0.062,0.066-0.093,0.101
			c-0.052-0.153-0.103-0.306-0.161-0.475c-0.226-0.003-0.457-0.007-0.669-0.01c-0.145-0.201-0.268-0.372-0.391-0.543
			c-0.383,0.133-0.659-0.045-0.911-0.292c0.018-0.012,0.034-0.03,0.053-0.035c0.019-0.005,0.041,0.003,0.062,0.006
			c-0.039,0.006-0.077,0.012-0.115,0.019c-0.065-0.123-0.109-0.33-0.201-0.354c-0.239-0.061-0.338-0.303-0.561-0.363
			c-0.112-0.03-0.246-0.039-0.329-0.107c-0.257-0.211-0.553-0.23-0.863-0.204c-0.124-0.163-0.237-0.312-0.343-0.451
			c-0.133-0.015-0.25-0.027-0.367-0.04C641.082,64.133,641.114,64.149,641.114,64.149z M657.397,79.066
			c-0.014-0.042-0.023-0.086-0.043-0.125c-0.009-0.018-0.039-0.025-0.06-0.037c0.009,0.021,0.016,0.044,0.029,0.062
			c0.025,0.039,0.054,0.075,0.081,0.113c-0.127-0.029-0.254-0.057-0.405-0.091C657.122,79.217,657.275,79.049,657.397,79.066z
			 M636.719,65.154c-0.305-0.46-0.82-0.6-1.303-0.799c0.134-0.168,0.367-0.04,0.445-0.257c-0.39-0.105-0.779-0.209-1.162-0.31
			c0.045,0.007,0.093,0.026,0.135,0.017c0.02-0.005,0.028-0.063,0.042-0.096c-0.021-0.003-0.05-0.015-0.063-0.006
			c-0.037,0.027-0.068,0.062-0.102,0.094c-0.201-0.063-0.403-0.125-0.599-0.186c-0.077,0.04-0.143,0.07-0.203,0.108
			c-0.706,0.445-1.134,1.163-1.699,1.746c-0.061,0.063-0.082,0.172-0.106,0.264c-0.055,0.208-0.098,0.418-0.15,0.626
			c-0.078,0.311-0.071,0.622,0,0.933c0.064,0.281,0.152,0.56,0.176,0.845c0.052,0.616,0.323,1.15,0.577,1.694
			c0.22,0.471,0.614,0.801,0.929,1.196c0.467,0.586,1.079,0.95,1.71,1.297c0.579,0.318,1.192,0.51,1.87,0.4
			c0.14-0.023,0.293,0.037,0.432,0.012c0.151-0.027,0.288-0.132,0.44-0.159c0.397-0.07,1.031-0.331,1.275-0.573
			c0.303-0.3,0.551-0.625,0.32-1.086c0.064-0.433-0.305-0.832-0.049-1.305c0.117-0.217-0.175-0.409-0.369-0.547
			c0.031-0.028,0.062-0.056,0.092-0.084c-0.025,0.03-0.049,0.06-0.074,0.09c-0.219-0.153-0.219-0.153-0.049-0.381
			c0.006-0.041,0.016-0.083,0.017-0.125c0-0.015-0.02-0.031-0.03-0.047c-0.014,0.029-0.044,0.063-0.037,0.085
			c0.013,0.037,0.049,0.067,0.075,0.099c-0.092-0.024-0.195-0.03-0.275-0.076c-0.241-0.138-0.244-0.195-0.028-0.442
			c0.091-0.104,0.123-0.218,0.048-0.325c-0.215-0.307-0.378-0.658-0.81-0.756c-0.275-0.063-0.278-0.153-0.112-0.476
			c0.004-0.001-0.004,0.017,0.007,0.004c-0.133-0.095-0.256-0.209-0.4-0.28c-0.277-0.136-0.408-0.369-0.464-0.616
			c-0.26-0.113-0.489-0.213-0.783-0.341c0.133-0.124,0.215-0.201,0.297-0.277c0.031,0.02,0.061,0.039,0.092,0.059
			C636.794,65.17,636.756,65.162,636.719,65.154z M624.274,70.453c-0.068-0.111-0.094-0.171-0.136-0.215
			c-0.021-0.022-0.072-0.017-0.109-0.024c0.002,0.042-0.013,0.105,0.01,0.123C624.086,70.378,624.153,70.397,624.274,70.453z
			 M613.976,59.59c0.014-0.033,0.029-0.065,0.044-0.098c-0.018-0.007-0.05-0.022-0.052-0.019c-0.02,0.033-0.035,0.068-0.052,0.103
			C613.936,59.581,613.956,59.586,613.976,59.59z M618.843,66.882c-0.038-0.014-0.075-0.031-0.114-0.04
			c-0.005-0.001-0.031,0.049-0.026,0.054c0.032,0.032,0.071,0.057,0.107,0.085C618.821,66.948,618.832,66.915,618.843,66.882z
			 M623.031,71.093c0.016-0.015,0.045-0.03,0.044-0.044c0-0.019-0.023-0.038-0.037-0.057c-0.021,0.022-0.042,0.044-0.064,0.066
			C622.994,71.07,623.013,71.082,623.031,71.093z M624.097,49.232c0.031-0.022,0.062-0.044,0.093-0.067
			c-0.015-0.015-0.039-0.045-0.044-0.042c-0.032,0.017-0.061,0.042-0.091,0.064C624.069,49.202,624.083,49.217,624.097,49.232z
			 M627.168,55.893c0.02,0,0.041,0,0.061,0c0-0.017,0.004-0.048-0.003-0.05c-0.017-0.007-0.04-0.006-0.057,0.001
			C627.163,55.847,627.168,55.876,627.168,55.893z M624.481,48.69c0.015-0.011,0.043-0.024,0.042-0.034
			c-0.001-0.018-0.018-0.043-0.033-0.047c-0.013-0.003-0.032,0.02-0.049,0.031C624.454,48.656,624.468,48.673,624.481,48.69z
			 M618.51,52.805c0,0.019-0.001,0.038-0.001,0.057c0.016-0.017,0.033-0.035,0.049-0.052
			C618.543,52.808,618.527,52.806,618.51,52.805z"/>
	</g>
</g>
</svg>
