<?xml version="1.0" encoding="utf-8"?>
<!-- Generator: Adobe Illustrator 23.0.3, SVG Export Plug-In . SVG Version: 6.00 Build 0)  -->
<svg version="1.1" id="slot-boy" xmlns="http://www.w3.org/2000/svg" xmlns:xlink="http://www.w3.org/1999/xlink" x="0px" y="0px"
	 viewBox="0 0 408.2 453" enable-background="new 0 0 408.2 453" xml:space="preserve">
<path id="Path_6897" fill-rule="evenodd" clip-rule="evenodd" fill="#FFFFFF" d="M157.3,67.8l-5.1-8.8l-5.1-8.8h20.3l-5.1,8.8
	L157.3,67.8z"/>
<g id="Group_1540">
	<g>
		<defs>
			<rect id="SVGID_1_" width="408.2" height="535.3"/>
		</defs>
		<clipPath id="SVGID_2_">
			<use xlink:href="#SVGID_1_"  overflow="visible"/>
		</clipPath>
		<g id="Group_1539" clip-path="url(#SVGID_2_)">
			<path id="Path_6898" fill-rule="evenodd" clip-rule="evenodd" fill="#FFFFFF" d="M311.4,55.3H112.6c-5.6,0-10.1-4.5-10.1-10.1
				V10.1C102.5,4.5,107,0,112.6,0h198.7c5.6,0,10.1,4.5,10.1,10.1c0,0,0,0,0,0v35.1C321.4,50.7,316.9,55.3,311.4,55.3L311.4,55.3"/>
			<g enable-background="new    ">
				<path fill="#33292C" d="M124.2,35.2c-0.4-0.8-0.2-1.4,0.5-1.9c0.3-0.2,0.7-0.5,1-0.8V30c0-0.3-0.2-0.5-0.5-0.5h-0.1
					c-0.9,0-1.3-0.4-1.3-1.3c0-0.9,0.4-1.3,1.3-1.3h1.9c0.4,0,0.7,0.1,0.9,0.4c0.2,0.2,0.4,0.6,0.4,0.9v4c0.5,0.8,1.3,1.3,2.4,1.6
					c-0.1-0.1-0.3-0.3-0.6-0.5c-0.1-0.1-0.3-0.2-0.3-0.3c-0.3-0.2-0.4-0.4-0.3-0.6c0-0.2,0.2-0.3,0.6-0.4c1-0.3,1.8-0.7,2.4-1H130
					c-0.7,0-1-0.4-1-1.1c0-0.7,0.3-1,1-1h2v-1h-1.3c-0.7,0-1-0.3-1-1s0.3-1,1-1h1.3V25h-0.2c-0.9,0-1.6-0.2-1.9-0.5s-0.5-1-0.5-2v-2
					l-1,0.9c-0.3,0.3-0.6,0.4-0.9,0.4c-0.3,0-0.6-0.1-0.8-0.4c-0.1-0.1-0.3-0.3-0.6-0.6c-0.1-0.1-0.2-0.2-0.2-0.2
					c-0.8-0.6-0.8-1.3-0.1-1.9c0.5-0.5,1.1-0.5,1.7-0.1c0.8,0.6,1.5,1.2,1.9,1.7v-1c0-0.3,0.1-0.5,0.3-0.7c0.2-0.2,0.4-0.3,0.6-0.3
					h3.7c0.4,0,0.7,0.1,0.9,0.4c0.2,0.2,0.4,0.6,0.4,0.9v1.4c0,0.4-0.1,0.7-0.4,0.9c-0.2,0.2-0.6,0.4-0.9,0.4H134
					c0.3,0.2,0.6,0.3,0.9,0.4c0.6,0.2,0.8,0.6,0.6,1.4c-0.2,0.4-0.5,0.6-1,0.7v0.8h2.1v-1.1c-0.5-0.3-0.7-1-0.7-2.2v-2.8
					c0-0.4,0.1-0.7,0.4-0.9c0.2-0.2,0.6-0.4,0.9-0.4h1.7h1.7c0.4,0,0.7,0.1,0.9,0.4c0.2,0.2,0.4,0.6,0.4,0.9v1.4
					c0,0.4-0.1,0.7-0.4,0.9c-0.2,0.2-0.6,0.4-0.9,0.4h-0.2c0.3,0.2,0.6,0.3,1,0.4c0.6,0.2,0.8,0.6,0.6,1.4c-0.3,0.5-0.9,0.8-1.8,0.8
					h-0.9v0.7h1.5c0.7,0,1,0.3,1,1s-0.3,1-1,1h-1.5v1h2.1c0.7,0,1,0.3,1,1c0,0.7-0.3,1.1-1,1.1h-2.7c0.8,0.4,1.6,0.8,2.4,1.2
					c0.4,0.2,0.6,0.5,0.5,0.8c0,0.3-0.3,0.5-0.8,0.7l-1.1,0.4c0.5,0,1,0,1.4-0.1c0.6,0,1.1,0.1,1.3,0.3c0.2,0.2,0.2,0.6,0,1.2
					c-0.1,0.4-0.3,0.7-0.5,0.8c-0.2,0.2-0.5,0.2-0.9,0.3c-3.2,0.1-5.9,0.1-8.3,0c-1.2-0.1-2.2-0.2-3-0.5c-0.9-0.3-1.6-0.9-2.2-1.6
					c-0.3,0.3-0.6,0.6-1,1C125.5,36.3,124.7,36.2,124.2,35.2z M125.8,25.3c-0.1-0.1-0.2-0.2-0.3-0.2c0,0-0.1-0.1-0.2-0.2
					s-0.2-0.1-0.2-0.2c-0.8-0.6-0.8-1.2-0.1-1.9c0.5-0.5,1-0.5,1.6-0.2c0.1,0.1,0.2,0.1,0.3,0.2c0.4,0.3,0.7,0.5,0.9,0.7
					c0.3,0.3,0.5,0.6,0.4,0.9c0,0.3-0.2,0.5-0.5,0.9C127.2,26,126.5,26,125.8,25.3z M139.4,34c-0.4-0.3-1-0.7-1.6-1.1
					c-0.5-0.3-0.8-0.6-0.8-0.9c0-0.3,0.2-0.6,0.7-0.9L138,31h-2.4h-2.4l1.1,0.4c0.3,0.1,0.5,0.3,0.5,0.4s-0.1,0.4-0.3,0.5
					c-0.8,0.6-1.8,1.1-2.9,1.6c0.2,0,0.6,0.1,1.1,0.1C134.4,34.1,136.7,34.1,139.4,34z M131.8,20.7h0.6h0.4c0.2,0,0.2-0.1,0.2-0.2
					v-0.1c0-0.2-0.1-0.3-0.3-0.3h-0.5c-0.3,0-0.5,0.2-0.5,0.5V20.7z M132.3,23.1h1.1c0.2,0,0.3,0,0.3-0.1c0.1-0.1,0.1-0.3,0.2-0.6
					h-2.1v0.1c0,0.3,0,0.4,0.1,0.5C131.9,23.1,132,23.1,132.3,23.1z M134.6,28.9h2.1v-1h-1.1h-1V28.9z M138.3,20.7h0.6h0.4
					c0.2,0,0.3-0.1,0.3-0.3v-0.1c0-0.2-0.1-0.3-0.3-0.3h-0.6c-0.3,0-0.5,0.2-0.5,0.5V20.7z M138.8,23.1h1.1c0.1,0,0.3,0,0.3-0.1
					c0.1-0.2,0.1-0.4,0.1-0.6h-2.1v0.1c0,0.3,0,0.4,0.1,0.5C138.4,23.1,138.5,23.1,138.8,23.1z"/>
				<path fill="#33292C" d="M147.6,28.8c-1.1,0-1.6-0.5-1.6-1.6c0-1.1,0.5-1.6,1.6-1.6h15.3c1.1,0,1.6,0.5,1.6,1.6
					c0,1.1-0.5,1.6-1.6,1.6h-7.6H147.6z"/>
				<path fill="#33292C" d="M168.4,35.2c-0.2-0.6-0.1-1,0.1-1.3c0.3-0.2,0.7-0.4,1.4-0.3c0,0,0.1,0,0.1,0c0.3,0,0.4-0.1,0.4-0.4
					V21.7h-1.2c-0.9,0-1.4-0.5-1.4-1.4c0-0.9,0.5-1.4,1.4-1.4h2.3h2.3c0.9,0,1.4,0.5,1.4,1.4c0,0.9-0.5,1.4-1.4,1.4h-0.6v11.6
					c0,0.7-0.1,1.3-0.2,1.6c-0.2,0.4-0.4,0.7-0.8,1c-0.5,0.3-1.1,0.4-1.9,0.5C169.2,36.4,168.6,36,168.4,35.2z M174.7,36.1
					c-0.7-0.8-0.5-1.5,0.6-1.9c1-0.5,1.9-0.9,2.5-1.4h-0.9c-0.2,0-0.4-0.1-0.6-0.2c-0.1-0.1-0.2-0.3-0.2-0.6v-8.6
					c0-0.4,0.1-0.7,0.4-0.9c0.2-0.2,0.6-0.4,0.9-0.4h1.7c0-0.1,0.1-0.3,0.1-0.5c0-0.2,0.1-0.4,0.1-0.6h-2.6c-0.8,0-1.2-0.4-1.2-1.2
					c0-0.8,0.4-1.2,1.2-1.2h4.3h4.3c0.8,0,1.2,0.4,1.2,1.2c0,0.8-0.4,1.2-1.2,1.2h-2.8c-0.1,0.3-0.2,0.6-0.4,1.1h2.6
					c0.4,0,0.7,0.1,0.9,0.4c0.2,0.2,0.4,0.6,0.4,0.9v8.1c0,0.4-0.1,0.7-0.4,0.9c-0.2,0.2-0.6,0.4-0.9,0.4h-1.2
					c0.7,0.4,1.5,0.9,2.4,1.5c0.4,0.3,0.6,0.6,0.6,0.9c0,0.3-0.3,0.6-0.7,0.9c-0.4,0.3-0.7,0.4-0.9,0.4c-0.3,0-0.6-0.1-0.9-0.4
					c-0.6-0.5-1.1-0.8-1.6-1.2c-0.4-0.3-0.6-0.5-0.6-0.9c0-0.3,0.2-0.6,0.6-0.9l0.6-0.4h-4.2l1,0.7c0.3,0.2,0.4,0.4,0.4,0.6
					s-0.1,0.4-0.3,0.6c-1,0.7-2.1,1.3-3.3,1.7C175.7,36.7,175.1,36.6,174.7,36.1z M178.7,25.1h4.4v-0.5c0-0.3-0.1-0.4-0.4-0.4h-1.8
					h-1.7c-0.3,0-0.5,0.2-0.5,0.5V25.1z M178.7,27.9h4.4V27h-2.2h-2.2V27.9z M179.1,30.8h3.5c0.3,0,0.5-0.2,0.5-0.5v-0.4h-2.2h-2.2
					v0.5C178.7,30.7,178.8,30.8,179.1,30.8z"/>
				<path fill="#33292C" d="M199.2,36.9c-1,0-1.5-0.5-1.5-1.5v-1.3h-4.6c-0.8,0-1.2-0.4-1.2-1.3c0-0.8,0.4-1.2,1.2-1.2h4.6v-1.3
					h-5.7c-0.8,0-1.3-0.4-1.3-1.3c0-0.8,0.4-1.3,1.3-1.3h2.6c-0.3-0.7-0.6-1.3-0.8-1.8c0,0,0-0.1,0-0.1l0.1,0h-2.3
					c-0.8,0-1.3-0.4-1.3-1.3c0-0.8,0.4-1.3,1.3-1.3h6.2v-1.2h-4.2c-0.8,0-1.2-0.4-1.2-1.3c0-0.8,0.4-1.2,1.2-1.2h4.2v-0.1
					c0-1,0.5-1.5,1.5-1.5s1.5,0.5,1.5,1.5v0.1h4.4c0.8,0,1.2,0.4,1.2,1.2c0,0.8-0.4,1.3-1.2,1.3h-4.4v1.2h3.8h2.5
					c0.8,0,1.3,0.4,1.3,1.3c0,0.8-0.4,1.3-1.3,1.3h-1.7c-0.2,0.3-0.5,0.8-0.9,1.4c-0.2,0.2-0.3,0.4-0.3,0.5h2.6
					c0.8,0,1.3,0.4,1.3,1.3c0,0.8-0.4,1.3-1.3,1.3h-5.9v1.3h4.9c0.8,0,1.2,0.4,1.2,1.2c0,0.8-0.4,1.3-1.2,1.3h-4.9v1.3
					C200.7,36.4,200.2,36.9,199.2,36.9z M197.5,27.8h3.5c0.3-0.5,0.6-1.1,0.8-1.9h-2.6h-2.6C197.1,26.6,197.4,27.2,197.5,27.8z"/>
				<path fill="#33292C" d="M212.3,35.2c-0.2-0.5-0.3-0.8-0.1-1.2c0.1-0.3,0.4-0.6,0.8-0.9c0.3-0.2,0.7-0.5,1.2-0.8V30
					c0-0.3-0.2-0.5-0.5-0.5h-0.3c-0.9,0-1.3-0.4-1.3-1.3c0-0.9,0.4-1.3,1.3-1.3h1.1h1.3c0.3,0,0.6,0.1,0.8,0.3
					c0.2,0.2,0.3,0.5,0.3,0.8v4.1c0.7,1.1,2.1,1.8,4,1.8c2.4,0.1,5.1,0.1,8-0.1c0.7,0,1.1,0.1,1.3,0.3c0.2,0.2,0.2,0.7,0,1.3
					c-0.1,0.4-0.3,0.7-0.5,0.9c-0.2,0.2-0.5,0.3-1,0.3c-3.1,0.1-5.7,0.1-7.9,0c-1.2-0.1-2.2-0.2-3-0.5c-0.8-0.3-1.6-0.9-2.2-1.6
					c-0.2,0.2-0.6,0.5-1.1,1c0,0-0.1,0.1-0.1,0.1C213.5,36.3,212.7,36.2,212.3,35.2z M214,25.3c0,0-0.1-0.1-0.2-0.1
					c-0.1-0.1-0.1-0.1-0.2-0.1c-0.1,0-0.1-0.1-0.2-0.2c-0.1-0.1-0.2-0.1-0.2-0.2c-0.8-0.6-0.9-1.2-0.1-1.9c0.5-0.5,1.1-0.6,1.6-0.2
					c0.6,0.4,1,0.7,1.3,0.9c0.3,0.3,0.5,0.6,0.5,0.9c0,0.3-0.2,0.6-0.5,0.9C215.4,25.9,214.7,25.9,214,25.3z M215.7,21.8
					c-0.3,0-0.6-0.1-0.8-0.4c-0.1-0.1-0.2-0.1-0.3-0.3c-0.3-0.2-0.4-0.4-0.6-0.5c-0.4-0.3-0.6-0.6-0.6-0.9c0-0.3,0.1-0.7,0.5-1
					c0.5-0.5,1.1-0.5,1.6-0.2c0.6,0.4,1.2,0.9,1.7,1.4c0.2,0.2,0.3,0.1,0.3-0.2v-0.7c0-0.4,0.2-0.6,0.6-0.6h5.7h5
					c0.4,0,0.7,0.1,0.9,0.4c0.2,0.2,0.4,0.6,0.4,0.9V20c0,0.4-0.2,0.7-0.7,1c-0.4,0.2-0.8,0.3-1.3,0.3c-0.2,0-0.3,0-0.4-0.1
					c-0.1-0.1-0.2-0.2-0.2-0.3v0c0-0.2-0.1-0.3-0.3-0.3h-6.6c-0.3,0-0.5,0.2-0.5,0.5v0c0,0.1-0.1,0.2-0.3,0.2
					c-0.1,0.1-0.3,0.1-0.4,0.1c-0.3,0-0.7-0.1-1.1-0.2c-0.5-0.2-0.7-0.4-0.7-0.6v0l-1,0.9C216.3,21.7,216,21.8,215.7,21.8z
					 M223.7,33.5c-0.3,0-0.7-0.1-0.9-0.2c-0.3-0.2-0.5-0.4-0.5-0.7v0h-3.8c-0.7,0-1-0.3-1-1c0-0.7,0.3-1,1-1h3.8V30h-2.6
					c-0.4,0-0.7-0.1-0.9-0.4c-0.2-0.2-0.4-0.6-0.4-0.9v-3.4c0-0.4,0.1-0.7,0.4-0.9c0.2-0.2,0.6-0.4,0.9-0.4h2.6v-0.3
					c0-0.1-0.1-0.2-0.2-0.2h-3c-0.7,0-1-0.3-1-1c0-0.7,0.3-1,1-1h3.2v0c0-0.2,0.2-0.4,0.5-0.6c0.3-0.1,0.6-0.2,0.9-0.2
					s0.6,0.1,0.9,0.2c0.3,0.1,0.5,0.3,0.5,0.6v0h3.3c0.7,0,1,0.3,1,1c0,0.7-0.3,1-1,1h-2.9c-0.3,0-0.4,0.1-0.4,0.4V24h2.8
					c0.4,0,0.7,0.1,0.9,0.4c0.2,0.2,0.4,0.6,0.4,0.9v3.4c0,0.4-0.1,0.7-0.4,0.9c-0.2,0.2-0.6,0.4-0.9,0.4h-2.8v0.4h4.2
					c0.7,0,1,0.3,1,1c0,0.7-0.3,1-1,1h-1.6h-2.6v0c0,0.3-0.2,0.5-0.5,0.7C224.4,33.4,224.1,33.5,223.7,33.5z M220.9,26.2h1.5v-0.5
					h-0.7h-0.4c-0.2,0-0.3,0.1-0.3,0.3V26.2z M221.1,28.3h1.3v-0.5h-0.7h-0.7v0.3C220.9,28.2,220.9,28.3,221.1,28.3z M225.1,26.2
					h0.8h0.8v-0.3c0-0.1-0.1-0.2-0.2-0.2h-1.4V26.2z M225.1,28.3h0.8h0.5c0.2,0,0.3-0.1,0.3-0.3v-0.2h-1.5V28.3z"/>
				<path fill="#33292C" d="M237.9,36.9c-0.8,0-1.2-0.4-1.2-1.2v-5.2v-6.4h-0.3c-0.1,0-0.2,0.1-0.2,0.2v7.5c0,0.7-0.3,1-1,1
					c-0.7,0-1-0.3-1-1v-8.9c0-0.4,0.1-0.7,0.4-0.9s0.6-0.4,0.9-0.4h1.3v-2.4c0-0.8,0.4-1.2,1.2-1.2c0.8,0,1.2,0.4,1.2,1.2v2.4h1.3
					c0.4,0,0.6,0.1,0.9,0.3c0.2,0.2,0.3,0.5,0.3,0.9V30c0,1-0.2,1.7-0.5,2c-0.3,0.2-0.5,0.4-0.8,0.4c-0.3,0-0.5,0-0.6-0.1
					s-0.3-0.3-0.3-0.5c-0.1-0.5-0.2-0.9-0.3-1.2v5.1C239.1,36.5,238.7,36.9,237.9,36.9z M239.1,30.1h0.4c0.1,0,0.1-0.1,0.1-0.2v-5.3
					c0-0.3-0.2-0.5-0.5-0.5h-0.1v3V30.1z M243.4,25.9c-0.4,0-0.7-0.1-0.9-0.4c-0.2-0.2-0.4-0.6-0.4-0.9v-4.8c0-0.4,0.1-0.7,0.4-0.9
					c0.2-0.2,0.6-0.4,0.9-0.4h7.7c0.4,0,0.7,0.1,0.9,0.4c0.2,0.2,0.4,0.6,0.4,0.9v4.8c0,0.4-0.1,0.7-0.4,0.9
					c-0.2,0.2-0.6,0.4-0.9,0.4h-3.8H243.4z M243.8,36.3c-0.4,0-0.7-0.1-0.9-0.4c-0.2-0.2-0.4-0.6-0.4-0.9v-7.1
					c0-0.4,0.1-0.7,0.4-0.9c0.2-0.2,0.6-0.4,0.9-0.4h3.4h3.4c0.4,0,0.7,0.1,0.9,0.4c0.2,0.2,0.4,0.6,0.4,0.9V35
					c0,0.4-0.1,0.7-0.4,0.9c-0.2,0.2-0.6,0.4-0.9,0.4H243.8z M244.7,21.3h2.4h2.4v-0.4c0-0.2-0.1-0.2-0.2-0.2h-4.1
					c-0.3,0-0.5,0.2-0.5,0.5V21.3z M245,23.8h2.2h2c0.3,0,0.5-0.2,0.5-0.5v-0.1h-4.9v0.4C244.7,23.8,244.8,23.8,245,23.8z
					 M245.1,29.2h2h2v-0.3c0-0.1-0.1-0.2-0.2-0.2h-3.3C245.3,28.6,245.1,28.8,245.1,29.2L245.1,29.2z M245.1,31.7h4v-0.6h-2h-2V31.7
					z M245.4,34.2h3.3c0.3,0,0.5-0.2,0.5-0.5v-0.1h-2h-2v0.4C245.1,34.1,245.2,34.2,245.4,34.2z"/>
			</g>
			<g enable-background="new    ">
				<path fill="#33292C" d="M257.8,33.4c-0.9,0-1.3-0.4-1.3-1.3V20.9c0-0.4,0.1-0.7,0.4-0.9c0.2-0.2,0.6-0.4,0.9-0.4h1.8h1.9
					c0.4,0,0.7,0.1,0.9,0.4c0.2,0.2,0.4,0.6,0.4,0.9v9.6c0,0.4-0.1,0.7-0.4,0.9c-0.2,0.2-0.6,0.4-0.9,0.4h-2.4v0.4
					C259.1,33,258.7,33.4,257.8,33.4z M259.1,29.1h0.6c0.3,0,0.5-0.2,0.5-0.5v-2.9v-2.9c0-0.3-0.2-0.5-0.5-0.5h-0.1
					c-0.3,0-0.5,0.2-0.5,0.5V29.1z M267.5,36.6c-1.4,0-2.4-0.3-2.9-0.8c-0.5-0.6-0.8-1.7-0.8-3.3V20.4c0-0.4,0.1-0.7,0.4-0.9
					c0.2-0.2,0.6-0.4,0.9-0.4h3.8h3.8c0.4,0,0.7,0.1,0.9,0.4c0.2,0.2,0.4,0.6,0.4,0.9V28c0,0.4-0.1,0.7-0.4,0.9
					c-0.2,0.2-0.6,0.4-0.9,0.4h-6.1v3.2c0,0.6,0.1,1,0.2,1.2c0.1,0.2,0.5,0.2,1,0.2h3.1c0.3,0,0.5,0,0.7-0.1c0.4-1.5,1.2-2,2.1-1.6
					c0.4,0.2,0.6,0.5,0.7,0.9c0.1,0.4,0.1,0.9,0,1.4c-0.3,0.7-0.6,1.3-1.1,1.6c-0.5,0.3-1.2,0.5-2.1,0.5H267.5z M266.6,26.7h1v-2.5
					v-2.5H267c-0.3,0-0.4,0.1-0.4,0.4V26.7z M270.1,26.7h0.6c0.3,0,0.5-0.2,0.5-0.5v-4c0-0.3-0.2-0.5-0.5-0.5h-0.6v2.5V26.7z"/>
			</g>
			<g enable-background="new    ">
				<path fill="#33292C" d="M277.3,35.3c-0.7,0-1.2-0.2-1.7-0.6c-0.4-0.4-0.7-0.9-0.7-1.6c0-0.6,0.2-1.2,0.7-1.6
					c0.4-0.4,1-0.6,1.7-0.6c0.7,0,1.2,0.2,1.7,0.6c0.4,0.4,0.7,0.9,0.7,1.6c0,0.6-0.2,1.2-0.7,1.6S277.9,35.3,277.3,35.3z
					 M277.3,29.7c-0.8,0-1.3-0.4-1.4-1.1l-0.7-5.2l-0.1-2c0-0.4,0.1-0.7,0.3-1c0.2-0.2,0.5-0.4,1-0.4h0.9h1.2c0.3,0,0.6,0.1,0.8,0.3
					s0.3,0.4,0.3,0.8l-0.1,2.3l-0.7,5.2C278.6,29.3,278.1,29.7,277.3,29.7z"/>
			</g>
		</g>
	</g>
</g>
<g id="Group_1542" transform="translate(0 48.87)">
	<g>
		<defs>
			<rect id="SVGID_3_" y="0" width="408.2" height="404.7"/>
		</defs>
		<clipPath id="SVGID_4_">
			<use xlink:href="#SVGID_3_"  overflow="visible"/>
		</clipPath>
		<g id="Group_1541" clip-path="url(#SVGID_4_)">
			<path id="Path_6899" fill="none" stroke="#FFFEE6" stroke-width="1.134" stroke-linecap="round" stroke-linejoin="round" d="
				M388,16.7c-0.3,0.1-1.2,0.3-1.6,0.4c-1.2,0.2-2.5,0.4-3.7,0.5"/>
			<path id="Path_6900" fill="#105E4F" d="M175.7,214.3c0,0-57.2,20.4-92,82.3l-53.3,42.9c0,0-21.3,17.1-3.9,41.5
				s57.5,36.1,60.2,66.1s66.2-153.4,66.2-153.4L175.7,214.3z"/>
			<path id="Path_6901" fill="none" stroke="#FFFEE6" stroke-width="1.134" stroke-linecap="round" stroke-linejoin="round" d="
				M389.9,28c-5.3-1.6-11.4-5.8-10.9-8c0.2-1.1,1.6-1.9,3.7-2.3"/>
			<path id="Path_6902" fill="#FCD1C8" d="M168.4,180.7c0,0,6.4,24.9,6,29.9c-0.4,5-12.7,10.7-24.8,18.9c0,0,22.7,22,55.8,14.7
				s52.7-23.2,56.6-31c0,0-41.2-0.9-43.7-10.4s-6.2-30.8-6.2-30.8L168.4,180.7z"/>
			<path id="Path_6903" fill="#F8A8A0" d="M198.4,214.9c10.8-2.2,16.6-12.4,19.4-20.5c-2.4-12.2-4.3-22.8-4.3-22.8l-45,9.1
				c0,0,2.5,10.5,5,22C178.5,209.3,187.3,217.1,198.4,214.9"/>
			<path id="Path_6904" fill-rule="evenodd" clip-rule="evenodd" fill="#FCD1C8" d="M237.9,152.4c0,0,4.1-4.3,6.8-3.9
				s5.8,6.6,5.2,11.3s-6.3,20.4-14.9,13.9S237.9,152.4,237.9,152.4"/>
			<path id="Path_6905" fill-rule="evenodd" clip-rule="evenodd" fill="#F8A8A0" d="M234.3,157.4c-0.3,0.3-0.4,0.8-0.2,1.2
				c0.1,0.3,0.4,0.4,0.7,0.3c0,0,0.1,0,0.1-0.1c0,0,1.8,14.3,3.9,12.2s4.2-4.2,5.2-7.7s-1.9-7-0.8-7.9c1.1-0.9,2.1,0.6,2.2,0.7l0,0
				l0,0l0,0c0.5,0.8,0.9,1.8,1.2,2.7c0,0.3,0.3,0.5,0.6,0.5c0.1,0,0.2,0,0.2-0.1c0.4-0.3,0.5-0.7,0.4-1.1c0,0-1.3-5.5-5.1-5.5
				C239.3,152.5,234.3,157.4,234.3,157.4"/>
			<path id="Path_6906" fill-rule="evenodd" clip-rule="evenodd" fill="#FCD1C8" d="M156.2,148.9c0,0-3.8-4.7-6.5-4.5
				s-6.3,6.1-6.1,10.8s4.8,20.9,13.8,15.2S156.2,148.9,156.2,148.9"/>
			<path id="Path_6907" fill-rule="evenodd" clip-rule="evenodd" fill="#F8A8A0" d="M159.4,154.2c0.3,0.3,0.4,0.8,0.2,1.2
				c-0.1,0.3-0.5,0.3-0.7,0.2c0,0-0.1-0.1-0.1-0.1c0,0-2.9,14.1-4.8,11.8s-3.9-4.5-4.6-8.2s2.4-6.8,1.4-7.8c-1-0.9-2.2,0.4-2.3,0.5
				l0,0l0,0c-0.6,0.8-1.1,1.7-1.4,2.6c-0.1,0.3-0.3,0.5-0.6,0.4c-0.1,0-0.2-0.1-0.2-0.1c-0.3-0.3-0.5-0.7-0.4-1.2c0,0,1.7-5.4,5.5-5
				C154.8,149,159.4,154.2,159.4,154.2"/>
			<path id="Path_6908" fill-rule="evenodd" clip-rule="evenodd" fill="#FCD1C8" d="M199.6,81.7c54.2,3.1,44.6,47.5,38.4,83.4
				c-2.6,15.1-10.8,23.7-10.8,23.7s-15.8,13.6-21.2,16.3c-7.1,3.2-15.2,2.8-21.9-0.9c-5.2-3.2-19.9-18.1-19.9-18.1s-7.6-9.3-9-24.6
				C151.7,125.3,145.3,80.2,199.6,81.7"/>
			<path id="Path_6909" fill="#F8A8A0" d="M212,149.3c-0.2-0.2-0.2-0.5,0-0.7c0.1-0.1,7.4-7.9,15.1-1.2c0.2,0.2,0.2,0.5,0.1,0.7
				c-0.2,0.2-0.5,0.2-0.7,0c-7.1-6.1-13.6,0.9-13.8,1.2C212.5,149.5,212.2,149.5,212,149.3 M186.9,147.7c-0.1-0.1-6-7.7-14.8-3
				c-0.2,0.1-0.5,0.1-0.6-0.2s-0.1-0.5,0.2-0.6c0,0,0,0,0,0c9.5-5.2,15.9,3.1,16,3.2c0.1,0.2,0.1,0.5-0.1,0.6
				C187.3,147.9,187,147.9,186.9,147.7"/>
			<path id="Path_6910" fill-rule="evenodd" clip-rule="evenodd" fill="#684E46" d="M165.1,130.7c0,0-4.1,18.4-10.7,23.2
				c0,0-1.1-7.7-2.7-8.9c0,0-3.6-22.1,0.1-29.4S164.2,123.3,165.1,130.7"/>
			<path id="Path_6911" fill-rule="evenodd" clip-rule="evenodd" fill="#684E46" d="M231.9,127.8c0,0-0.7,19,7.5,29
				c0,0,1.9-6.8,3.7-8.1c0,0,4.7-21.6,1.5-29.2S233.3,120.6,231.9,127.8"/>
			<path id="Path_6912" fill-rule="evenodd" clip-rule="evenodd" fill="#684E46" d="M186.6,137.7c0.9,0.3,1.8,0.3,2.6,0
				c1.2-0.6,2-1.6,2.4-2.8c0-0.5-0.8,0.2-3.1-1.1c-2.3-1.3-11-4.6-17.3,0.9c-1.1,0.9-0.3,1.8,1,1.5
				C177,134.6,182.3,135.2,186.6,137.7"/>
			<path id="Path_6913" fill-rule="evenodd" clip-rule="evenodd" fill="#F8A8A0" d="M204.7,149.1c-0.2-0.5-0.8-0.8-1.3-0.6
				s-0.8,0.8-0.6,1.3c0.7,1.7,3.3,7.3,3.1,8.2c-0.1,0.6-1.2,1.5-1.6,1.9c-0.8,0.6-1.8,1.1-2.8,1.2c-0.5,0.1-0.9,0.6-0.8,1.1
				s0.6,0.9,1.1,0.8c1.3-0.2,2.6-0.8,3.7-1.6c1.1-0.8,2-1.9,2.4-3.1C208.2,157.2,205.5,151,204.7,149.1"/>
			<path id="Path_6914" fill-rule="evenodd" clip-rule="evenodd" fill="#684E46" d="M215.2,138.8c-0.8,0.2-1.6,0.1-2.3-0.2
				c-1-0.6-1.7-1.7-2-2.8c0.1-0.4,0.7,0.3,2.8-0.7c2.1-0.9,9.9-3.2,15.3,2.4c0.9,1,0.2,1.7-1,1.3
				C223.9,136.9,219.2,136.9,215.2,138.8"/>
			<path id="Path_6915" fill-rule="evenodd" clip-rule="evenodd" fill="#684E46" d="M215.5,152c-0.7,0.2-1.4,0.2-2-0.1
				c-0.9-0.7-1.6-1.6-1.8-2.7c0-0.4,0.6,0.2,2.4-0.8c1.8-1,8.3-3.5,13,1.8c0.8,0.9,0.2,1.7-0.8,1.3
				C222.9,149.7,218.8,149.9,215.5,152"/>
			<path id="Path_6916" fill-rule="evenodd" clip-rule="evenodd" fill="#684E46" d="M183.7,150c0.7,0.3,1.4,0.3,2.1,0.1
				c1-0.5,1.8-1.4,2.1-2.5c0-0.4-0.6,0.2-2.4-1.1c-1.8-1.2-8.5-4.6-13.9,0.1c-0.9,0.8-0.4,1.7,0.7,1.4
				C176.1,146.8,180.4,147.6,183.7,150"/>
			<path id="Path_6917" fill-rule="evenodd" clip-rule="evenodd" fill="#684E46" d="M212.8,166c-3.2,1.2-8.4,1.6-13.5,1.2
				s-10.2-1.6-13.3-3.3c-0.6-0.3-1.4-0.1-1.7,0.5c-0.2,0.3-0.2,0.6-0.1,0.9l0,0c1.5,7.5,4.3,12.8,7.6,15.8c1.8,1.7,4.2,2.8,6.7,3
				c2.5,0.1,5-0.7,7-2.2c3.5-2.5,6.8-7.3,9-14.3c0.2-0.7-0.1-1.4-0.8-1.6C213.3,165.9,213,165.9,212.8,166L212.8,166z"/>
			<path id="Path_6918" fill-rule="evenodd" clip-rule="evenodd" fill="#FFFFFF" d="M211.9,166.3c-3.2,1-8,1.3-12.7,0.9
				c-5.1-0.4-10.2-1.6-13.3-3.3c-0.6-0.3-1.4-0.1-1.7,0.5c-0.2,0.3-0.2,0.6-0.1,0.9l0,0c0.1,0.6,0.3,1.2,0.4,1.8
				c9.1,5.5,22.7,4.4,25.2,3.1C211,169.3,211.9,167.8,211.9,166.3"/>
			<path id="Path_6919" fill-rule="evenodd" clip-rule="evenodd" fill="#F68B85" d="M187.6,175.6c1,2,2.4,3.9,4.1,5.4
				c1.8,1.7,4.2,2.8,6.7,3c2.5,0.1,5-0.7,7-2.2c0.6-0.4,1.1-0.9,1.7-1.4c-1.6-1.2-4.6-2.7-9.5-1.2
				C197.6,179.3,193.1,174.8,187.6,175.6"/>
			<path id="Path_6920" fill-rule="evenodd" clip-rule="evenodd" fill="#F8A8A0" d="M202.3,188.6c0.5-0.2,0.7-0.8,0.5-1.3
				c-0.2-0.5-0.7-0.7-1.2-0.5c-2.8,0.9-5.8,0.6-8.4-0.8c-0.5-0.2-1.1,0-1.3,0.5c-0.2,0.4,0,1,0.4,1.2
				C195.3,189.4,198.9,189.7,202.3,188.6"/>
			<path id="Path_6921" fill="#105E4F" d="M163.3,105.1c0,0,111.1-10.4,146.2,13.8c0,0-102.4,43.8-179.8,7.2l1.7-5
				c0.1-0.3,0-0.7-0.4-0.9c-0.2-0.1-0.5,0-0.7,0.1l-4.7,3.8c-0.8-0.4-1.6-0.8-2.4-1.3l1.5-2.6c0.1-0.2,0.1-0.5-0.1-0.6
				c-0.1-0.1-0.3-0.1-0.4,0l-3.4,1.8C45.7,79.2,163.3,105.1,163.3,105.1"/>
			<path id="Path_6922" fill="#105E4F" d="M244.4,106.5c0,0-19.5-103.4-58.8-84.2s-8.1,13.4-8.1,13.4l-25.4,70.5
				C152.2,106.2,224.3,154.2,244.4,106.5"/>
			<line id="Line_34" fill="none" stroke="#684E46" stroke-width="5.422" x1="194.2" y1="100.9" x2="201.2" y2="119.5"/>
			<path id="Path_6923" fill="none" stroke="#F2AD22" stroke-width="8.188" stroke-linecap="round" stroke-linejoin="round" d="
				M242.8,103.1c0,0-29.6,17.2-87.8-1.7"/>
			<path id="Path_6924" fill="none" stroke="#684E46" stroke-width="5.422" d="M188.5,113.3c1.5,5.1,6.8,8,11.8,6.5
				c0.1,0,0.2-0.1,0.3-0.1c5.1-1.8,7.9-7.4,6.3-12.6c-1.5-5.1-6.8-8-11.8-6.5c-0.1,0-0.2,0.1-0.3,0.1
				C189.7,102.6,186.9,108.1,188.5,113.3z"/>
			<path id="Path_6925" fill="#F8A8A0" d="M341.2,252.8l-49,19.5l-26.3-42.9l54.2-18.1L341.2,252.8z"/>
			<path id="Path_6926" fill-rule="evenodd" clip-rule="evenodd" fill="#FCD1C8" d="M352.8,93.6c-6.1,12.1-12.2,22.3-19.1,34.1
				c-12.9,22-31.1,52.7-32.6,55.2c-14.4,23.8,25,45.1,37.9,18.2c5.4-11.1,14.8-38.3,21.8-58.3c3.6-10.3,7-20.3,11.3-30.3l6.7-16.7
				L356,78.6C356.9,82.9,356.5,86.1,352.8,93.6"/>
			<path id="Path_6927" fill-rule="evenodd" clip-rule="evenodd" fill="#FCD1C8" d="M378.9,95.8c1.9-2,14.2-11.3,17-13.9
				s3-8.9,3.1-11.5s-2.6-4.5-5.3-5.1c0,0,1.9-4.9,2.4-7s-0.4-4.4-3-5.9c0,0,3.2-5.2,2.2-6.9s-3.3-3-5.4-3.7s-9.1,5.2-9.1,5.2
				s6.5-16.5,7.7-19.3c2.3-5.9-4.8-8.7-8.2-1.5c-2.1,4.6-11.8,25.6-11.8,25.6c-1.7-0.1-3.3,0.5-4.4,1.7c-3.2,3.3-6.1,6.8-8.8,10.5
				c-1.8,2.6-1.7,6.5-1.2,8.7s3.4,10.8,3.4,10.8C344.6,101.6,377,97.9,378.9,95.8"/>
			<path id="Path_6928" fill="#F8A8A0" d="M371.6,82.3L371.6,82.3c-0.4-0.2-0.6-0.8-0.3-1.2c0,0,0,0,0,0c1.2-2,2-4.2,2.3-6.5
				c0-0.2,0-0.4,0-0.5c0.2-2.9-0.7-5.8-2.7-7.9c-1.1,2.1-2.8,3.8-4.8,4.9c-0.4,0.2-0.9,0-1.1-0.4c-0.2-0.4,0-0.9,0.3-1.1
				c2.1-1.1,3.7-2.8,4.5-5c0-0.1,0.1-0.2,0.1-0.3c0.4-1,0.6-2.1,0.6-3.2c-1.2-0.1-2.5-0.4-3.7-0.7c-0.4-0.1-0.7-0.6-0.6-1
				c0,0,0,0,0,0c0.1-0.5,0.6-0.7,1.1-0.6c0,0,0,0,0,0c1.3,0.4,2.7,0.6,4,0.7c0,0,0.1,0,0.1,0c2.8,0.3,5.5-0.8,7.4-2.9
				c0.4-0.4,0.7-0.9,1-1.5l0-0.1c0.3-0.6,0.5-1.2,0.5-1.9c-2.7,0.2-11.4-0.4-11.7-0.5c-0.5-0.1-0.8-0.5-0.7-0.9
				c0.1-0.4,0.4-0.8,0.9-0.8c1.7,0.1,5.1,0.3,7.9,0.4c-0.1-0.6,0.1-1.2,0.5-1.7l3.1-3.3c0.3-0.3,0.8-0.4,1.2,0c0,0,0,0,0,0
				c0.3,0.3,0.4,0.9,0,1.2c0,0,0,0,0,0l-3.1,3.2c-0.1,0.2-0.1,0.4,0,0.6c0.7,0,1.3,0,2,0c0.6-0.1,1.1,0.2,1.3,0.7
				c0.4,0.9,0.3,2-0.1,2.9c0.5,0.1,0.9,0,1.4-0.1c0.6-0.3,1.3-0.6,2-1c1.1-0.5,2.1-1,3.1-1.7c1.6-1.2,3.6-1.4,5.4-0.6l0,0
				c0.4,0.2,0.6,0.7,0.3,1.2c-0.2,0.4-0.7,0.6-1.1,0.4c-1.2-0.5-2.6-0.3-3.7,0.5c-1.1,0.7-2.2,1.3-3.4,1.8c-1.6,0.7-3.2,1.5-3.7,2.3
				c-0.7,1.3-3.1,4.6-4.9,7.1c-0.8,1.1-1.5,2.1-1.7,2.5c-0.2,0.4-0.3,0.9-0.1,1.3c0.5,0.9,1.4,1.5,2.5,1.6c1.5-0.8,3.2-1.8,5.2-2.9
				l5.1-6c0.1-0.1,0.1-0.1,0.2-0.2l3.7-2.3c0.4-0.2,0.9-0.1,1.2,0.3c0.2,0.4,0.1,0.9-0.3,1.2l-3.6,2.2l-2.2,2.6
				c2.2-0.8,4.5-1.1,6.8-0.8c0.5,0.1,0.8,0.5,0.7,1c-0.1,0.5-0.5,0.8-1,0.7c0,0-3.8-0.5-6.4,1c-0.8,0.4-1.9,1.1-3.2,1.7c0,0,0,0,0,0
				c0,0,0,0,0,0c-1.6,0.9-3.8,2-5.5,3c0,0,0,0-0.1,0c-1.1,0.6-2.1,1.3-3,2.1c-0.1,0.1-0.1,0.2-0.1,0.3c0,0.1,0,0.3,0,0.4
				c0,0.2,0.1,0.5,0.3,0.7c0.7,1,1.9,1.4,3.1,1.2c3.1-0.5,10.3-4.2,10.4-4.2c0.2-0.1,0.5-0.1,0.8,0c0,0,2.9,1.4,5.3,0.5
				c0.4-0.2,0.9,0.1,1.1,0.5s-0.1,0.9-0.5,1.1l0,0c-2.1,0.6-4.2,0.4-6.2-0.4c0,0,0,0-0.1,0c0.6,1.6,1.6,2.9,2.8,4
				c0.3,0.3,0.3,0.9,0,1.2c-0.3,0.3-0.9,0.3-1.2,0c-1.4-1.2-2.4-2.8-3.2-4.5c-2.5,1.2-6.6,3.1-8.9,3.4c-1.4,0.3-2.9-0.1-4-1.1
				c-0.5,1.7-1.2,3.3-2,4.7C372.5,82.4,372,82.6,371.6,82.3 M375.1,70.9c0.1,0.3,0.1,0.7,0.2,1.1c0.2-0.2,0.5-0.3,0.8-0.5
				C375.7,71.4,375.4,71.2,375.1,70.9 M371.6,64.5c0.8,0.8,1.5,1.7,2.1,2.7c0.1-0.3,0.2-0.6,0.4-0.8c0.3-0.4,0.9-1.4,1.8-2.5
				c1.5-2.2,3.6-5,4.5-6.5c-2,2.4-5,3.8-8.1,3.7C372.2,62.3,372,63.4,371.6,64.5"/>
			<path id="Path_6929" fill-rule="evenodd" clip-rule="evenodd" fill="#F8A8A0" d="M374.5,106.5l4.3-10.6l-17.2-13.1
				c-1.2,4-4.5,15.8,6.5,20.9C370.5,104.8,372.7,105.7,374.5,106.5"/>
			<path id="Path_6930" fill="#105E4F" d="M147.9,228.4l-2.1,38.9l-11.1,204.4c0,0,129.8,31.2,154.9,2.8s-52.6-258.4-52.6-258.4
				l-38.2,19.1L147.9,228.4z"/>
			<path id="Path_6931" fill="none" stroke="#147C68" stroke-width="5.603" stroke-linecap="round" stroke-linejoin="round" d="
				M274.3,344.7c0,0-75.6,40.6-133.8,20"/>
			
				<line id="Line_35" fill="none" stroke="#147C68" stroke-width="5.879" stroke-linecap="round" stroke-linejoin="round" x1="168.5" y1="372.5" x2="151.4" y2="412.9"/>
			
				<line id="Line_36" fill="none" stroke="#147C68" stroke-width="5.879" stroke-linecap="round" stroke-linejoin="round" x1="167.4" y1="372.3" x2="170" y2="407.1"/>
			<path id="Path_6932" fill-rule="evenodd" clip-rule="evenodd" fill="#F2AD22" d="M173.5,368.3l-3.1-0.6c-0.4-0.1-0.7-0.3-0.9-0.7
				l-1.3-2.9c-0.3-0.6-1-0.9-1.6-0.6c-0.2,0.1-0.4,0.3-0.6,0.5l-1.5,2.8c-0.2,0.3-0.5,0.6-0.9,0.6l-3.2,0.3
				c-0.7,0.1-1.1,0.6-1.1,1.3c0,0.3,0.1,0.5,0.3,0.7l2.2,2.3c0.3,0.3,0.4,0.7,0.3,1.1l-0.7,3.1c-0.1,0.6,0.3,1.3,0.9,1.4
				c0.3,0.1,0.5,0,0.8-0.1l2.9-1.4c0.4-0.2,0.8-0.1,1.1,0l2.8,1.6c0.6,0.3,1.3,0.1,1.6-0.4c0.1-0.2,0.2-0.5,0.2-0.8l-0.4-3.2
				c0-0.4,0.1-0.8,0.4-1l2.4-2.1c0.5-0.4,0.5-1.2,0.1-1.7C174,368.5,173.8,368.4,173.5,368.3"/>
			<path id="Path_6933" fill="none" stroke="#F9B438" stroke-width="0.98" d="M173.5,368.3l-3.1-0.6c-0.4-0.1-0.7-0.3-0.9-0.7
				l-1.3-2.9c-0.3-0.6-1-0.9-1.6-0.6c-0.2,0.1-0.4,0.3-0.6,0.5l-1.5,2.8c-0.2,0.3-0.5,0.6-0.9,0.6l-3.2,0.3
				c-0.7,0.1-1.1,0.6-1.1,1.3c0,0.3,0.1,0.5,0.3,0.7l2.2,2.3c0.3,0.3,0.4,0.7,0.3,1.1l-0.7,3.1c-0.1,0.6,0.3,1.3,0.9,1.4
				c0.3,0.1,0.5,0,0.8-0.1l2.9-1.4c0.4-0.2,0.8-0.1,1.1,0l2.8,1.6c0.6,0.3,1.3,0.1,1.6-0.4c0.1-0.2,0.2-0.5,0.2-0.8l-0.4-3.2
				c0-0.4,0.1-0.8,0.4-1l2.4-2.1c0.5-0.4,0.5-1.2,0.1-1.7C174,368.5,173.8,368.4,173.5,368.3z"/>
			<path id="Path_6934" fill="#0C564F" d="M142.5,233.2c12.4,1,38.7,3.6,57.1,2.9l-12.5-5.1l-35.6-6.5L142.5,233.2z"/>
			<path id="Path_6935" fill="#E1B309" d="M173.9,216l25.8,20.2l-57.1-6.7C142.5,229.5,165.6,209.8,173.9,216"/>
			<path id="Path_6936" fill="#F3D273" d="M199.5,236l-54.5-8.5c0.3-0.2,0.5-0.4,0.8-0.6l52.9,8.3L199.5,236z"/>
			<path id="Path_6937" fill="#105E4F" d="M292.3,340.1c12.2,11.6,24,23.6,37.1,34.1c11.3,9.1,26.9,12.8,36.8-0.3
				c9.7-12.9,10.9-31.9,10.4-47.4c-0.4-13.6-2.8-27-7.3-39.8c-18.1-50.6-13.6-33.4-8.1-93.8c6.3-69.8-41.2-64.4-41.2-64.4
				c-0.9,0.2-1.6,0.8-2,1.6c-0.1-0.2-0.1-0.4-0.2-0.6c0,0-43.3,71.2-85.6,83.9c-0.1-0.1-0.2-0.3-0.2-0.3c0,0,0,0.2,0,0.4
				c-0.7,0.2-1.5,0.4-2.2,0.6c0,0-10.2,74.1-10.2,74.1c-0.1,0.6,21.3,11.5,23.2,12.7c8,5,15.8,10.4,23.4,16.1
				C275.3,324.3,284,332,292.3,340.1"/>
			<path id="Path_6938" fill="#E1B309" d="M352,377.7c7.4-9.8,10.6-24.8,9.9-45.9c-0.3-13.3-2.8-26.5-7.1-39.1c-1-2.9-2-5.6-2.9-8.1
				c-11.4-31.7-11.5-32.3-8.5-57.2c0.9-7.4,2-16.6,3.2-29.5c2.2-24.4-2-42-12.5-52.3c-4-3.9-8.9-6.7-14.2-8.2
				c-2.1-0.6-4.2-1-6.4-1.2c1.2-1.8,2.2-3.3,2.9-4.4c7.9,1.2,15.3,4.8,21,10.4c11.5,11.3,16.2,30.2,13.9,56.1
				c-1.2,13-2.3,22.2-3.2,29.6c-2.9,24.1-2.9,24.1,8.2,55.1c0.9,2.5,1.9,5.2,2.9,8.1c4.6,13,7.1,26.7,7.4,40.5
				c0.7,22.2-2.8,38.2-10.8,48.9c-0.4,0.5-0.7,0.9-1.1,1.4c-2.4,0.6-4.9,0.7-7.4,0.4C349.1,381,350.7,379.5,352,377.7"/>
			<path id="Path_6939" fill="#E1B309" d="M232.2,213.5c4.7-1.4,9.1-3.4,13.4-5.8c-5.1,3.8-10.6,7.2-16.3,9.9
				c0.3-2.2,0.5-3.4,0.5-3.4c0.7-0.2,1.5-0.4,2.2-0.6c0-0.3,0-0.4,0-0.4C231.9,213.3,232,213.4,232.2,213.5"/>
			<path id="Path_6940" fill="#0C564F" d="M251.3,208.2c-10.8,6.2-35.8,19.4-52.8,26.8l4.1-6.4l36.8-24.3L251.3,208.2z"/>
			<path id="Path_6941" fill="#E1B309" d="M215.6,206.2l-17,28.8l51.1-30.1C249.7,204.9,220.4,197,215.6,206.2"/>
			<path id="Path_6942" fill="#F3D273" d="M198.6,234.8l48-30.7c-0.3-0.1-0.7-0.1-1-0.2L199,233.7L198.6,234.8z"/>
			<path id="Path_6943" fill="none" stroke="#FFFEE6" stroke-width="1.134" stroke-linecap="round" stroke-linejoin="round" d="
				M382.1,9.8c4.4,0.6,8.6,2.9,8.5,4.6c0,0.9-1,1.7-2.5,2.2"/>
			<path id="Path_6944" fill="none" stroke="#FFFEE6" stroke-width="1.134" stroke-linecap="round" stroke-linejoin="round" d="
				M372.9,28.7c-0.4,1.7,2,3.7,5.6,5.3c1.8,0.7,3.6,1.3,5.5,1.7c6.6,1.4,12.4,0.5,13-2c0.4-2.1-2.3-4.4-7.6-5.9"/>
			<path id="Path_6945" fill-rule="evenodd" clip-rule="evenodd" fill="#FFE67B" d="M394.2,19.7l-0.3,0.4c0,0-0.1,0.1-0.2,0.1
				l-0.5,0c-0.1,0-0.2,0.1-0.2,0.2c0,0,0,0.1,0,0.1l0.3,0.4c0,0.1,0,0.1,0,0.2l-0.2,0.5c0,0.1,0,0.2,0.1,0.2c0,0,0.1,0,0.1,0
				l0.5-0.2c0.1,0,0.1,0,0.2,0l0.4,0.3c0.1,0.1,0.2,0.1,0.3,0c0,0,0-0.1,0-0.1l0-0.5c0-0.1,0-0.1,0.1-0.2l0.4-0.3
				c0.1-0.1,0.1-0.2,0.1-0.3c0,0-0.1-0.1-0.1-0.1l-0.5-0.2c-0.1,0-0.1-0.1-0.1-0.1l-0.1-0.5c0-0.1-0.1-0.2-0.2-0.1
				C394.3,19.7,394.3,19.7,394.2,19.7"/>
			<path id="Path_6946" fill-rule="evenodd" clip-rule="evenodd" fill="#FFE67B" d="M377,9.2l0.2,0.4c0,0,0,0.1,0,0.2l-0.2,0.4
				c0,0.1,0,0.2,0.1,0.2c0,0,0.1,0,0.1,0l0.4,0c0.1,0,0.1,0,0.1,0.1l0.3,0.3c0.1,0.1,0.2,0.1,0.2,0c0,0,0-0.1,0.1-0.1l0.1-0.4
				c0-0.1,0-0.1,0.1-0.1l0.4-0.2c0.1,0,0.1-0.1,0.1-0.2c0,0,0-0.1-0.1-0.1l-0.4-0.2c0,0-0.1-0.1-0.1-0.1l0-0.4
				c0-0.1-0.1-0.2-0.2-0.1c0,0-0.1,0-0.1,0L377.8,9c0,0-0.1,0.1-0.1,0L377.2,9c-0.1,0-0.2,0-0.2,0.1C377,9.1,377,9.1,377,9.2"/>
			<path id="Path_6947" fill-rule="evenodd" clip-rule="evenodd" fill="#FFE67B" d="M372.9,33.8l-0.3,0.4c0,0.1-0.1,0.1-0.2,0.1
				l-0.5,0c-0.1,0-0.2,0.1-0.2,0.2c0,0,0,0.1,0,0.1L372,35c0,0.1,0,0.1,0,0.2l-0.2,0.5c0,0.1,0,0.2,0.1,0.2c0,0,0.1,0,0.1,0l0.5-0.2
				c0.1,0,0.1,0,0.2,0l0.4,0.3c0.1,0.1,0.2,0.1,0.3,0c0,0,0-0.1,0-0.1l0-0.5c0-0.1,0-0.1,0.1-0.2L374,35c0.1-0.1,0.1-0.2,0.1-0.3
				c0,0-0.1-0.1-0.1-0.1l-0.5-0.2c-0.1,0-0.1-0.1-0.1-0.1l-0.1-0.5c0-0.1-0.1-0.2-0.2-0.1C373,33.7,372.9,33.7,372.9,33.8"/>
			<path id="Path_6948" fill-rule="evenodd" clip-rule="evenodd" fill="#0C564F" d="M145.3,276.7l-2.4,43.2l-7.2-4.4L145.3,276.7z"
				/>
			<path id="Path_6949" fill-rule="evenodd" clip-rule="evenodd" fill="#0C564F" d="M268.4,318.9l-18.6-45.8l28.5,54.3L268.4,318.9z
				"/>
		</g>
	</g>
</g>
</svg>
