<?xml version="1.0" encoding="utf-8"?>
<!-- Generator: Adobe Illustrator 23.0.3, SVG Export Plug-In . SVG Version: 6.00 Build 0)  -->
<svg version="1.1" id="圖層_1" xmlns="http://www.w3.org/2000/svg" xmlns:xlink="http://www.w3.org/1999/xlink" x="0px" y="0px"
	 viewBox="0 0 452.5 625" style="enable-background:new 0 0 452.5 625;" xml:space="preserve">
<style type="text/css">
	.st0{fill:#E4EFE7;}
	.st1{fill:#72917A;}
	.st2{fill:#2D2D2D;}
	.st3{clip-path:url(#SVGID_2_);}
	.st4{fill:none;stroke:#2D2D2D;stroke-width:3;}
	.st5{clip-path:url(#SVGID_4_);}
	.st6{clip-path:url(#SVGID_6_);}
	.st7{fill:#FDFDFD;}
	.st8{fill:#308482;}
	.st9{clip-path:url(#SVGID_8_);}
	.st10{clip-path:url(#SVGID_10_);}
	.st11{clip-path:url(#SVGID_12_);}
	.st12{fill:#FFFFFF;}
	.st13{fill:#E8E8E8;}
	.st14{fill:#F7D5AB;}
	.st15{fill:#B37F43;}
	.st16{clip-path:url(#SVGID_14_);}
	.st17{fill:#E6816C;}
	.st18{fill:#DC7863;}
	.st19{fill:#CF6B56;}
	.st20{fill:#96B9B9;}
	.st21{fill:#87ABAC;}
	.st22{fill:#749898;}
	.st23{fill:#8198BA;}
	.st24{fill:#E9E5E2;}
	.st25{fill:#D2CAC4;}
	.st26{fill:#F39B00;}
	.st27{fill:#E56C56;}
	.st28{fill:#8F9F74;}
	.st29{fill:#79885F;}
	.st30{fill:#E8CFA0;}
	.st31{fill:#DA5443;}
	.st32{fill:#8DA16A;}
	.st33{fill:#96AB74;}
	.st34{fill:#56B191;}
	.st35{fill:#419D80;}
	.st36{fill:#3B948D;}
	.st37{fill:#83C391;}
	.st38{fill:#7AB987;}
	.st39{fill:#F7D280;}
	.st40{fill:#AAAACB;}
	.st41{fill:#A1A1C1;}
	.st42{fill:#F4B7B8;}
	.st43{clip-path:url(#SVGID_16_);}
	.st44{fill:#F68B85;}
	.st45{fill:#7F5A50;}
	.st46{fill:#684E46;}
	.st47{clip-path:url(#SVGID_18_);}
	.st48{fill:url(#Rectangle_242_1_);}
	.st49{clip-path:url(#SVGID_20_);}
	.st50{fill:none;stroke:#D8B49C;stroke-width:3;}
	.st51{fill:#EFBA95;}
	.st52{opacity:0.9;fill:#2D2D2D;enable-background:new    ;}
	.st53{fill:none;}
	.st54{fill:#D8B49C;}
	.st55{fill:#FFE266;}
	.st56{fill:#175653;}
	.st57{fill:#F2AD22;}
	.st58{fill:#FFF7AE;}
	.st59{clip-path:url(#SVGID_22_);}
	.st60{fill:#F8C744;}
	.st61{fill:none;stroke:#D8B49C;stroke-width:1.33;stroke-miterlimit:10;}
	.st62{clip-path:url(#SVGID_24_);}
	.st63{clip-path:url(#SVGID_26_);}
	.st64{clip-path:url(#SVGID_28_);}
</style>
<g id="slot-bg-m">
	<g id="slot-bg">
		<rect id="Rectangle_66" class="st0" width="452.5" height="561"/>
		<rect id="Rectangle_206" y="334" class="st1" width="452.5" height="291"/>
		<g id="slot-bg-light-m">
			<g id="light">
				<g id="Group_97">
					<rect id="Rectangle_67" x="34.7" y="19.5" class="st2" width="10" height="7.8"/>
					<g id="Group_90">
						<g>
							<g>
								<defs>
									<rect id="SVGID_1_" x="25.7" y="0.3" width="159.6" height="40.9"/>
								</defs>
								<clipPath id="SVGID_2_">
									<use xlink:href="#SVGID_1_"  style="overflow:visible;"/>
								</clipPath>
								<g class="st3">
									<g id="Group_89">
										<line id="Line_1" class="st4" x1="39.7" y1="28" x2="39.7" y2="0.3"/>
									</g>
								</g>
							</g>
						</g>
					</g>
					<rect id="Rectangle_69" x="166.2" y="19.5" class="st2" width="10.1" height="7.8"/>
					<g id="Group_95">
						<g>
							<g>
								<defs>
									<rect id="SVGID_3_" x="25.7" y="0.3" width="159.6" height="40.9"/>
								</defs>
								<clipPath id="SVGID_4_">
									<use xlink:href="#SVGID_3_"  style="overflow:visible;"/>
								</clipPath>
								<g class="st5">
									<g id="Group_94">
										<line id="Line_2" class="st4" x1="171.2" y1="28" x2="171.2" y2="0.3"/>
										<g id="Group_93">
											<g id="Group_92">
												<g>
													<g>
														<defs>
															<rect id="SVGID_5_" x="35.6" y="33.2" width="139.8" height="8.1"/>
														</defs>
														<clipPath id="SVGID_6_">
															<use xlink:href="#SVGID_5_"  style="overflow:visible;"/>
														</clipPath>
														<g class="st6">
															<g id="Group_91">
																<path id="Path_1197" class="st7" d="M171.7,41.3H39.2c-0.7,0-1.4-0.4-1.7-1.1l-1.8-4.5c-0.4-0.9,0.1-1.9,1-2.3l0,0
																	c0.2-0.1,0.5-0.1,0.7-0.1h136.1c1,0,1.8,0.8,1.8,1.8l0,0c0,0.2,0,0.5-0.1,0.7l-1.9,4.5
																	C173.1,40.9,172.4,41.3,171.7,41.3"/>
															</g>
														</g>
													</g>
												</g>
											</g>
										</g>
									</g>
								</g>
							</g>
						</g>
					</g>
					<rect id="Rectangle_72" x="25.7" y="24.9" class="st8" width="159.6" height="8.2"/>
				</g>
			</g>
			<g id="light-2">
				<g id="Group_97-2">
					<rect id="Rectangle_67-2" x="275.1" y="19.5" class="st2" width="10" height="7.8"/>
					<g id="Group_90-2">
						<g>
							<g>
								<defs>
									<rect id="SVGID_7_" x="266.1" y="0.3" width="159.6" height="40.9"/>
								</defs>
								<clipPath id="SVGID_8_">
									<use xlink:href="#SVGID_7_"  style="overflow:visible;"/>
								</clipPath>
								<g class="st9">
									<g id="Group_89-2">
										<line id="Line_1-2" class="st4" x1="280.2" y1="28" x2="280.2" y2="0.3"/>
									</g>
								</g>
							</g>
						</g>
					</g>
					<rect id="Rectangle_69-2" x="406.6" y="19.5" class="st2" width="10" height="7.8"/>
					<g id="Group_95-2">
						<g>
							<g>
								<defs>
									<rect id="SVGID_9_" x="266.1" y="0.3" width="159.6" height="40.9"/>
								</defs>
								<clipPath id="SVGID_10_">
									<use xlink:href="#SVGID_9_"  style="overflow:visible;"/>
								</clipPath>
								<g class="st10">
									<g id="Group_94-2">
										<line id="Line_2-2" class="st4" x1="411.7" y1="28" x2="411.7" y2="0.3"/>
										<g id="Group_93-2">
											<g id="Group_92-2">
												<g>
													<g>
														<defs>
															<rect id="SVGID_11_" x="276" y="33.2" width="139.8" height="8.1"/>
														</defs>
														<clipPath id="SVGID_12_">
															<use xlink:href="#SVGID_11_"  style="overflow:visible;"/>
														</clipPath>
														<g class="st11">
															<g id="Group_91-2">
																<path id="Path_1197-2" class="st7" d="M412.1,41.3H279.7c-0.7,0-1.4-0.4-1.7-1.1l-1.9-4.5c-0.4-0.9,0.1-1.9,1-2.3
																	l0,0c0.2-0.1,0.5-0.1,0.7-0.1H414c1,0,1.8,0.8,1.8,1.8l0,0c0,0.2,0,0.5-0.1,0.7l-1.9,4.5
																	C413.5,40.9,412.9,41.3,412.1,41.3"/>
															</g>
														</g>
													</g>
												</g>
											</g>
										</g>
									</g>
								</g>
							</g>
						</g>
					</g>
					<rect id="Rectangle_72-2" x="266.1" y="24.9" class="st8" width="159.6" height="8.2"/>
				</g>
			</g>
		</g>
		<g id="slot-bg-paper-m">
			<g id="paper">
				<rect id="Rectangle_108" x="7.5" y="69.4" class="st12" width="36.4" height="49.4"/>
				<rect id="Rectangle_109" x="9.7" y="76.3" class="st13" width="31.9" height="2.4"/>
				<rect id="Rectangle_110" x="9.7" y="80.6" class="st13" width="31.9" height="2.4"/>
				<rect id="Rectangle_111" x="9.7" y="84.9" class="st13" width="31.9" height="2.4"/>
				<rect id="Rectangle_112" x="9.7" y="89.2" class="st13" width="31.9" height="2.4"/>
				<rect id="Rectangle_113" x="9.7" y="93.5" class="st13" width="31.9" height="2.4"/>
			</g>
			<g id="paper-2">
				<rect id="Rectangle_108-2" x="29.6" y="131.1" class="st12" width="36.7" height="49.9"/>
				<rect id="Rectangle_109-2" x="31.9" y="138.1" class="st13" width="32.2" height="2.5"/>
				<rect id="Rectangle_110-2" x="31.9" y="142.4" class="st13" width="32.2" height="2.5"/>
				<rect id="Rectangle_111-2" x="31.9" y="146.8" class="st13" width="32.2" height="2.5"/>
				<rect id="Rectangle_112-2" x="31.9" y="151.1" class="st13" width="32.2" height="2.5"/>
				<rect id="Rectangle_113-2" x="31.9" y="155.5" class="st13" width="32.2" height="2.5"/>
			</g>
		</g>
		<g id="cabinet-m">
			<rect id="Rectangle_210" y="244.8" class="st14" width="51.4" height="107.5"/>
			<rect id="Rectangle_211" y="347.3" class="st14" width="5.8" height="11"/>
			<rect id="Rectangle_212" x="45.5" y="347.3" class="st14" width="5.8" height="11"/>
			<rect id="Rectangle_213" x="5.3" y="250.7" class="st15" width="40.8" height="28.5"/>
			<rect id="Rectangle_214" x="5.3" y="282.9" class="st15" width="40.8" height="28.5"/>
			<rect id="Rectangle_215" x="5.3" y="315.2" class="st15" width="40.8" height="28.5"/>
			<rect id="Rectangle_216" x="5.3" y="315" class="st15" width="40.8" height="28.5"/>
			<g id="Group_222">
				<g>
					<g>
						<defs>
							<rect id="SVGID_13_" y="222.9" width="51.4" height="135.4"/>
						</defs>
						<clipPath id="SVGID_14_">
							<use xlink:href="#SVGID_13_"  style="overflow:visible;"/>
						</clipPath>
						<g class="st16">
							<g id="Group_221">
								<path id="Path_2633" class="st17" d="M10.8,259v19.8c0,0.2-0.1,0.3-0.3,0.3H6.9c-0.2,0-0.3-0.1-0.3-0.3V259
									c0-0.2,0.1-0.3,0.3-0.3h3.6C10.6,258.7,10.8,258.8,10.8,259L10.8,259"/>
								<path id="Rectangle_217" class="st18" d="M7.5,259h2.6c0.4,0,0.7,0.3,0.7,0.7l0,0l0,0v18.9c0,0.4-0.3,0.7-0.7,0.7H7.5
									c-0.4,0-0.7-0.3-0.7-0.7v-18.9C6.8,259.3,7.1,259,7.5,259L7.5,259L7.5,259z"/>
								<rect id="Rectangle_218" x="8.9" y="270.6" class="st19" width="1" height="7"/>
								<rect id="Rectangle_219" x="7.6" y="272.5" class="st19" width="0.6" height="5.1"/>
								<path id="Path_2634" class="st20" d="M16.7,258.8v20c0,0.2-0.2,0.4-0.4,0.4l0,0h-5.2c-0.2,0-0.4-0.2-0.4-0.3l0,0v-20
									c0-0.2,0.2-0.4,0.4-0.4l0,0h5.2C16.5,258.5,16.7,258.6,16.7,258.8"/>
								<path id="Rectangle_220" class="st21" d="M11.8,258.8H16c0.4,0,0.7,0.3,0.7,0.7v18.9c0,0.4-0.3,0.7-0.7,0.7h-4.2
									c-0.4,0-0.7-0.3-0.7-0.7v-18.9C11.1,259.1,11.4,258.8,11.8,258.8z"/>
								<path id="Path_2635" class="st22" d="M12.3,261.9v6.6h2.8v-6.6H12.3z M12.7,262.2h2.2v5.9h-2.2V262.2z"/>
								<rect id="Rectangle_221" x="13.3" y="271.5" class="st22" width="1" height="5.9"/>
								<path id="Path_2636" class="st17" d="M27.8,323.5v19.8c0,0.2-0.1,0.3-0.3,0.3h-3.6c-0.2,0-0.3-0.1-0.3-0.3l0,0v-19.8
									c0-0.2,0.1-0.3,0.3-0.3h3.6C27.6,323.2,27.7,323.3,27.8,323.5L27.8,323.5"/>
								<path id="Rectangle_222" class="st18" d="M24.5,323.5h2.6c0.4,0,0.7,0.3,0.7,0.7l0,0l0,0V343c0,0.4-0.3,0.7-0.7,0.7l0,0
									h-2.6c-0.4,0-0.7-0.3-0.7-0.7l0,0v-18.9C23.8,323.8,24.1,323.5,24.5,323.5L24.5,323.5z"/>
								<rect id="Rectangle_223" x="25.9" y="335.1" class="st19" width="1" height="7"/>
								<rect id="Rectangle_224" x="24.6" y="337" class="st19" width="0.6" height="5.1"/>
								<path id="Path_2637" class="st20" d="M33.7,323.3v20c0,0.2-0.2,0.4-0.4,0.4h-5.2c-0.2,0-0.4-0.2-0.4-0.4l0,0v-20
									c0-0.2,0.2-0.4,0.4-0.4h5.2C33.5,322.9,33.7,323.1,33.7,323.3L33.7,323.3L33.7,323.3"/>
								<path id="Rectangle_225" class="st21" d="M28.8,323.2h4.1c0.4,0,0.7,0.3,0.7,0.7v18.9c0,0.4-0.3,0.7-0.7,0.7h-4.1
									c-0.4,0-0.7-0.3-0.7-0.7V324C28,323.6,28.4,323.2,28.8,323.2z"/>
								<path id="Path_2638" class="st22" d="M29.3,326.4v6.6h2.8v-6.6H29.3z M29.6,326.7h2.2v5.9h-2.2V326.7z"/>
								<rect id="Rectangle_226" x="30.3" y="336" class="st22" width="1" height="5.9"/>
								<path id="Path_2639" class="st17" d="M22.7,256.4v22.1c0,0.2-0.2,0.4-0.3,0.4l0,0h-5.2c-0.2,0-0.4-0.2-0.4-0.4v-22.1
									c0-0.2,0.2-0.4,0.4-0.4h5.2C22.5,256.1,22.7,256.2,22.7,256.4"/>
								<path id="Rectangle_227" class="st18" d="M17.8,256.4H22c0.4,0,0.7,0.3,0.7,0.7v21.1c0,0.4-0.3,0.7-0.7,0.7h-4.2
									c-0.4,0-0.7-0.3-0.7-0.7v-21.1C17,256.7,17.4,256.4,17.8,256.4z"/>
								<rect id="Rectangle_228" x="18.1" y="260" class="st19" width="3" height="3.1"/>
								<path id="Path_2640" class="st23" d="M23.1,310.4l1.6-0.9l-0.1-3.7l-1.7-0.1v-0.5l20.9,0.4c0.9,1.4,1.3,4.1-0.2,5.3
									c-2,0-19.5,0-20.5,0L23.1,310.4z"/>
								<path id="Path_2641" class="st24" d="M23.2,305.7c0,0,18.5,0.4,20.2,0.4c0.6,1.2,0.9,3.2-0.2,4.3c-1.8,0-18.9,0-19.8,0
									C24.2,308.9,24.1,307.1,23.2,305.7"/>
								<path id="Path_2642" class="st25" d="M23.8,306.3l19.5,0.4l0.1,0.3L23.8,306.3L23.8,306.3z"/>
								<path id="Path_2643" class="st25" d="M25,307.2l18.5,0.3v0.2L25,307.2L25,307.2z"/>
								<path id="Path_2644" class="st25" d="M25,307.6l18.5,0.4v0.2L25,307.8V307.6z"/>
								<path id="Path_2645" class="st25" d="M25.5,309.1h17.8v0.2l-17.8-0.1V309.1z"/>
								<path id="Path_2646" class="st25" d="M24.3,309.6h19l-0.1,0.3L24.3,309.6L24.3,309.6z"/>
								<path id="Path_2647" class="st26" d="M24,304.8l1.3-0.7l-0.1-2.9l-1.3-0.1v-0.4l16.2,0.5c0.7,1.1,0.9,3.2-0.2,4.1
									c-1.5,0-15.1-0.2-15.9-0.2L24,304.8z"/>
								<path id="Path_2648" class="st24" d="M24.2,301.2c0,0,14.3,0.5,15.6,0.5c0.5,1,0.6,2.5-0.2,3.3c-1.4,0-14.6-0.2-15.3-0.2
									C24.9,303.7,24.8,302.3,24.2,301.2"/>
								<path id="Path_2649" class="st25" d="M24.6,301.6l15.1,0.5l0.1,0.2L24.6,301.6L24.6,301.6z"/>
								<path id="Path_2650" class="st25" d="M25.5,302.4l14.3,0.5v0.2L25.5,302.4L25.5,302.4z"/>
								<path id="Path_2651" class="st25" d="M25.5,302.7l14.3,0.5v0.1L25.5,302.7L25.5,302.7z"/>
								<path id="Path_2652" class="st25" d="M25.9,303.9l13.8,0.2v0.1L25.9,304V303.9z"/>
								<path id="Path_2653" class="st25" d="M24.9,304.3l14.7,0.2l-0.1,0.3L24.9,304.3L24.9,304.3z"/>
								<path id="Path_2654" class="st27" d="M41.6,301.1l-1.5-0.6l0.2-2.2h1.5V298l-18.9-0.5c-0.9,0.7-1,1.9-0.4,2.8
									c0.1,0.2,0.3,0.3,0.4,0.4c1.8,0.1,17.6,0.7,18.5,0.7L41.6,301.1z"/>
								<path id="Path_2655" class="st24" d="M41.6,298.3c0,0-16.7-0.4-18.2-0.4c-0.7,0.7-0.7,1.8,0,2.5l0.1,0.1
									c1.6,0.1,17,0.6,17.8,0.6C40.7,300.2,40.8,299,41.6,298.3"/>
								<path id="Path_2656" class="st25" d="M41.1,298.6l-17.6-0.4l-0.1,0.2L41.1,298.6L41.1,298.6z"/>
								<path id="Path_2657" class="st25" d="M39.9,299.1l-16.7-0.4v0.1L39.9,299.1L39.9,299.1z"/>
								<path id="Path_2658" class="st25" d="M39.9,299.4L23.3,299v0.1L39.9,299.4L39.9,299.4z"/>
								<path id="Path_2659" class="st25" d="M39.4,300.3l-16-0.6v0.1L39.4,300.3L39.4,300.3z"/>
								<path id="Path_2660" class="st25" d="M40.5,300.6L23.4,300l0.1,0.2L40.5,300.6L40.5,300.6z"/>
								<path id="Path_2661" class="st28" d="M9.5,285.5H6.4v25.9h4.9v-25.9H9.5z"/>
								<path id="Path_2662" class="st29" d="M9.1,287.1H7.8v13.8h2.1v-13.8H9.1z"/>
								<path id="Path_2663" class="st30" d="M11.3,307.5v-0.4H6.4v0.6h4.9V307.5z"/>
								<path id="Path_2664" class="st27" d="M22,323.5l-2.4-0.4l-3.3,20.1l2.4,0.4l1.4,0.2l3.3-20.1L22,323.5z"/>
								<path id="Path_2665" class="st31" d="M21.2,326.9l-1-0.2l-1.8,10.7l1,0.2l0.6,0.1l1.8-10.7L21.2,326.9z"/>
								<path id="Path_2666" class="st30" d="M20.6,340.8v-0.3l-3.8-0.6l-0.1,0.3v0.2l3.8,0.6L20.6,340.8z"/>
								<path id="Path_2667" class="st30" d="M23.1,325.4l0.1-0.9l-3.8-0.6l-0.1,0.9l-0.1,0.5l3.8,0.6L23.1,325.4z"/>
								<path id="Path_2668" class="st28" d="M14.7,285.5h-3.1v25.9h4.9v-25.9H14.7z"/>
								<path id="Path_2669" class="st29" d="M14.3,287.1H13v13.8h2v-13.8H14.3z"/>
								<path id="Path_2670" class="st30" d="M16.5,307.5v-0.4h-4.9v0.6h4.9V307.5z"/>
								<path id="Path_2671" class="st28" d="M19.9,285.5h-3.1v25.9h4.9v-25.9H19.9z"/>
								<path id="Path_2672" class="st29" d="M19.5,287.1h-1.3v13.8h2.1v-13.8H19.5z"/>
								<path id="Path_2673" class="st30" d="M21.7,307.5v-0.4h-4.9v0.6h4.9V307.5z"/>
								<path id="Path_2674" class="st32" d="M17.2,233.2c0,1.8-1.4,3.2-3.2,3.3s-3.2-1.4-3.3-3.2c0-1.8,1.4-3.2,3.2-3.3l0,0
									C15.7,230,17.2,231.4,17.2,233.2L17.2,233.2"/>
								<path id="Path_2675" class="st33" d="M13.9,240.1c-2.1-5.3-2.7-15.5,2.8-17s11.3,3.1,7,15.8L13.9,240.1z"/>
								<path id="Path_2676" class="st8" d="M24.3,244.8H12.8l-1-8.4h13.5L24.3,244.8z"/>
								<path id="Path_2677" class="st32" d="M13.7,233l1-1l-0.2,1.3L13.7,233z"/>
								<path id="Path_2678" class="st32" d="M20.2,234.9l0.9-1.9l0.4,1.9H20.2z"/>
								<path id="Path_2679" class="st32" d="M16.5,230.9l0.8-1.6l0.4,1.6H16.5z"/>
								<path id="Path_2680" class="st32" d="M21,226.7l-0.4-1.3l1,0.7L21,226.7z"/>
								<path id="Path_2681" class="st32" d="M17,234.6l-0.4-1.3l1,0.7L17,234.6z"/>
								<path id="Path_2682" class="st32" d="M14.5,226.4l1.9-0.6l-1.1,1.6L14.5,226.4z"/>
								<path id="Path_2683" class="st32" d="M22.1,229.9l0.1-1.4l1,0.7L22.1,229.9z"/>
								<path id="Path_2684" class="st34" d="M41.8,317.1v26.2c0,0.2-0.2,0.4-0.4,0.4h-7.3c-0.2,0-0.4-0.2-0.4-0.4l0,0v-26.2
									c0-0.2,0.2-0.4,0.4-0.4h7.3C41.7,316.7,41.8,316.9,41.8,317.1L41.8,317.1"/>
								<path id="Rectangle_229" class="st35" d="M34.8,317H41c0.4,0,0.7,0.3,0.7,0.7v25.2c0,0.4-0.3,0.7-0.7,0.7h-6.2
									c-0.4,0-0.7-0.3-0.7-0.7v-25.2C34.1,317.4,34.4,317,34.8,317z"/>
								<rect id="Rectangle_230" x="35.2" y="320.6" class="st36" width="5.1" height="3.1"/>
								<rect id="Rectangle_231" x="38" y="327.8" class="st34" width="1.3" height="13"/>
								<rect id="Rectangle_232" x="36" y="332.2" class="st34" width="0.8" height="8.6"/>
								<path id="Path_2685" class="st37" d="M30.9,253.2v25.6c0,0.2-0.2,0.4-0.4,0.4l0,0h-7.4c-0.2,0-0.4-0.2-0.4-0.4v-25.6
									c0-0.2,0.2-0.4,0.4-0.4h7.4C30.8,252.9,30.9,253,30.9,253.2"/>
								<path id="Rectangle_233" class="st38" d="M23.8,253.2h6.4c0.4,0,0.7,0.3,0.7,0.7v24.5c0,0.4-0.3,0.7-0.7,0.7h-6.4
									c-0.4,0-0.7-0.3-0.7-0.7v-24.5C23,253.5,23.4,253.2,23.8,253.2z"/>
								<rect id="Rectangle_234" x="22.8" y="276.1" class="st39" width="8.2" height="0.8"/>
								<rect id="Rectangle_235" x="22.8" y="270.2" class="st39" width="8.2" height="0.8"/>
								<rect id="Rectangle_236" x="25.1" y="255.4" class="st37" width="3.5" height="11.9"/>
								<path id="Path_2686" class="st40" d="M31,256.1l8.5,22.8c0.1,0.2,0.3,0.3,0.4,0.2l0,0l4.7-1.8c0.2-0.1,0.3-0.2,0.2-0.4l0,0
									l0,0l-8.5-22.8c-0.1-0.2-0.2-0.3-0.4-0.2l0,0l-4.7,1.8C31,255.8,30.9,256,31,256.1L31,256.1"/>
								<path id="Path_2687" class="st41" d="M44.5,277.4c0.1,0,0.1-0.2,0.1-0.3l-8.5-22.8c0-0.1-0.2-0.2-0.3-0.1l0,0l-4.7,1.7
									c-0.1,0-0.1,0.1-0.1,0.3l8.5,22.8c0,0.1,0.2,0.2,0.3,0.1l0,0L44.5,277.4z"/>
								
									<rect id="Rectangle_237" x="35.7" y="256.7" transform="matrix(0.9369 -0.3496 0.3496 0.9369 -89.5148 29.3238)" class="st40" width="1.5" height="11.9"/>
								
									<rect id="Rectangle_238" x="37.9" y="270.5" transform="matrix(0.9369 -0.3496 0.3496 0.9369 -93.3117 31.5515)" class="st42" width="5.7" height="7.5"/>
							</g>
						</g>
					</g>
				</g>
			</g>
		</g>
		<g id="slot-bg-clock-m">
			<g>
				<g>
					<defs>
						<rect id="SVGID_15_" x="398.8" y="77.4" width="53.7" height="53.7"/>
					</defs>
					<clipPath id="SVGID_16_">
						<use xlink:href="#SVGID_15_"  style="overflow:visible;"/>
					</clipPath>
					<g class="st43">
						<g id="Group_99">
							<path id="Path_1198" class="st8" d="M450.1,131.1h-48.8c-1.4,0-2.5-1.1-2.5-2.5V79.9c0-1.4,1.1-2.5,2.5-2.5h48.8
								c1.4,0,2.5,1.1,2.5,2.5l0,0v48.8C452.5,130,451.4,131.1,450.1,131.1"/>
							<path id="Path_1199" class="st12" d="M446.6,127.3h-41.8c-1.2,0-2.1-1-2.1-2.1V83.4c0-1.2,1-2.1,2.1-2.1h41.8
								c1.2,0,2.1,1,2.1,2.1v41.8C448.7,126.3,447.8,127.3,446.6,127.3"/>
							<path id="Path_1200" class="st13" d="M402.7,108.2v17c0,1.2,1,2.1,2.1,2.1h41.8c1.2,0,2.1-1,2.1-2.1v-12.9
								C430,118.7,413.2,113.5,402.7,108.2"/>
							<path id="Path_1201" class="st44" d="M425.7,104.7c-0.3,0-0.5-0.2-0.5-0.5l0,0c0-0.1,0.1-0.3,0.2-0.4l11.3-10
								c0.2-0.2,0.5-0.2,0.7,0s0.2,0.5,0,0.7l0,0l-11.3,10C425.9,104.7,425.8,104.7,425.7,104.7"/>
							<path id="Path_1202" class="st44" d="M413.6,119.6c-0.3,0-0.5-0.2-0.5-0.5c0-0.1,0-0.2,0.1-0.3l11.3-14
								c0.2-0.2,0.5-0.2,0.7-0.1c0.2,0.2,0.2,0.5,0.1,0.7l0,0l-11.3,14C413.9,119.5,413.8,119.6,413.6,119.6"/>
							<path id="Path_1203" class="st8" d="M427.4,104.3c0,1-0.8,1.8-1.7,1.8c-1,0-1.8-0.8-1.8-1.7s0.8-1.8,1.7-1.8l0,0
								C426.7,102.5,427.4,103.3,427.4,104.3L427.4,104.3"/>
							<path id="Path_1204" class="st8" d="M425.7,84.3c-0.7,0-1.3-0.6-1.3-1.2l0,0v-2.6c0-0.7,0.6-1.3,1.3-1.3
								c0.7,0,1.3,0.6,1.3,1.3l0,0V83C427,83.7,426.4,84.3,425.7,84.3L425.7,84.3"/>
							<path id="Path_1205" class="st8" d="M425.7,129.9c-0.7,0-1.3-0.6-1.3-1.3V126c0-0.7,0.6-1.3,1.3-1.3c0.7,0,1.3,0.6,1.3,1.3
								l0,0v2.6C427,129.3,426.4,129.9,425.7,129.9"/>
							<path id="Path_1206" class="st8" d="M450,104.2h-2.6c-0.7,0.1-1.3-0.5-1.4-1.2s0.5-1.3,1.2-1.4c0.1,0,0.2,0,0.2,0h2.6
								c0.7,0.1,1.2,0.7,1.2,1.4C451.1,103.7,450.6,104.2,450,104.2"/>
							<path id="Path_1207" class="st8" d="M404,104.2h-2.6c-0.7-0.1-1.2-0.7-1.2-1.4c0.1-0.6,0.5-1.1,1.2-1.2h2.6
								c0.7-0.1,1.3,0.5,1.4,1.2s-0.5,1.3-1.2,1.4C404.2,104.2,404.1,104.2,404,104.2L404,104.2"/>
						</g>
					</g>
				</g>
			</g>
		</g>
	</g>
	<g id="slot-blackboard">
		<rect id="Rectangle_240" x="71.7" y="77" class="st45" width="308" height="215"/>
		<rect id="Rectangle_241" x="79.9" y="85.7" class="st46" width="290.9" height="196.4"/>
		<g id="Group_224">
			<g>
				<g>
					<defs>
						<rect id="SVGID_17_" x="82.1" y="86.8" width="286.6" height="194.2"/>
					</defs>
					<clipPath id="SVGID_18_">
						<use xlink:href="#SVGID_17_"  style="overflow:visible;"/>
					</clipPath>
					<g class="st47">
						<g id="Group_223">
							
								<radialGradient id="Rectangle_242_1_" cx="-1072.7397" cy="813.5185" r="1.06" gradientTransform="matrix(286.58 0 0 -194.25 307650.2813 158207.5938)" gradientUnits="userSpaceOnUse">
								<stop  offset="0" style="stop-color:#007D5C"/>
								<stop  offset="0.25" style="stop-color:#007152"/>
								<stop  offset="0.71" style="stop-color:#00513A"/>
								<stop  offset="1" style="stop-color:#003A29"/>
							</radialGradient>
							<rect id="Rectangle_242" x="82.1" y="86.8" class="st48" width="286.6" height="194.2"/>
						</g>
					</g>
				</g>
			</g>
		</g>
	</g>
	<g id="slot-table-m">
		<g>
			<g>
				<defs>
					<rect id="SVGID_19_" x="12" y="363.1" width="420.7" height="209.9"/>
				</defs>
				<clipPath id="SVGID_20_">
					<use xlink:href="#SVGID_19_"  style="overflow:visible;"/>
				</clipPath>
				<g class="st49">
					<g id="Group_864">
						<path id="Path_5769" class="st15" d="M229.6,508.9c-0.3,1.1-1.4,1.8-2.5,1.5c-0.7-0.2-1.3-0.8-1.5-1.5v-35
							c0.3-1.1,1.4-1.8,2.5-1.5c0.7,0.2,1.3,0.8,1.5,1.5V508.9z"/>
						<path id="Path_5770" class="st50" d="M328.9,376.8h35.2c2.5,0,4.5,2,4.5,4.5l0,0v56.2c0,2.5-2,4.5-4.5,4.5h-35.2
							c-2.5,0-4.5-2-4.5-4.5l0,0v-56.2C324.4,378.8,326.4,376.8,328.9,376.8L328.9,376.8z"/>
						<path id="Path_5771" class="st15" d="M383.6,508c0.3,1.1,1.5,1.7,2.6,1.4c0.7-0.2,1.2-0.7,1.4-1.4v-35
							c-0.3-1.1-1.5-1.7-2.6-1.4c-0.7,0.2-1.2,0.7-1.4,1.4V508z"/>
						<path id="Path_5772" class="st15" d="M329.9,509.8c0.3,1.1,1.4,1.8,2.5,1.5c0.7-0.2,1.3-0.8,1.5-1.5v-35
							c-0.3-1.1-1.4-1.8-2.5-1.5c-0.7,0.2-1.3,0.8-1.5,1.5V509.8z"/>
						<path id="Path_5773" class="st15" d="M323.9,489.4c0.3,1.1,1.4,1.8,2.5,1.5c0.7-0.2,1.3-0.8,1.5-1.5v-35
							c-0.3-1.1-1.4-1.8-2.5-1.5c-0.7,0.2-1.3,0.8-1.5,1.5V489.4z"/>
						<path id="Path_5774" class="st15" d="M372.6,488c0.3,1.1,1.4,1.8,2.5,1.5c0.7-0.2,1.3-0.8,1.5-1.5v-35
							c-0.3-1.1-1.4-1.8-2.5-1.5c-0.7,0.2-1.3,0.8-1.5,1.5V488z"/>
						<path id="Path_5775" class="st46" d="M329.6,474.5c0,0,13,1.2,31,1.2s31.7-1.4,31.7-1.4c2.7,0,2.4-6.7,2.4-6.7l-9-12.7
							c-1.2-2.1-4.6-3.8-7.7-3.8c0,0-9.9,0.9-28.4,0.9s-28.4-0.9-28.4-0.9c-1.5,0-2.7-1.3-3.4-0.6v6.9l4.5,12.8
							C322.8,472.6,326.2,474.6,329.6,474.5"/>
						<path id="Path_5776" class="st51" d="M330.4,469.7c0,0,12.9,1.2,30.8,1.2s29.7-1.2,29.7-1.2c3.3,0,4.9-1.9,3.6-4.2l-8.4-15.1
							c-1.2-2.1-4.6-3.8-7.7-3.8c0,0-9.8,0.9-28.2,0.9s-28.2-0.9-28.2-0.9c-3.1,0-5,1.7-4.3,3.8l5.3,15.1
							C323.8,467.9,327.1,469.7,330.4,469.7"/>
						<path id="Path_5777" class="st45" d="M326.9,443.3c9.6,1.1,19.3,1.6,28.9,1.5c9.9,0,19.9-0.5,29.7-1.6c3.3,0,6.1-2.5,6.4-5.8
							l1.6-22.7c0.2-3.1-2-5.7-5.1-6c-0.2,0-0.5,0-0.7,0c0,0-11.3,1.7-31.2,2c-19.5,0.3-29.5-1.1-29.5-1.1c-3.3,0.1-5.9,2.8-5.8,6.1
							v22C321.3,440.8,323.8,443.3,326.9,443.3L326.9,443.3L326.9,443.3"/>
						<path id="Path_5778" class="st46" d="M327.1,445.8c9.6,1.1,19.2,1.6,28.9,1.6c9.9,0,19.8-0.5,29.6-1.6c3.3,0,6-2.5,6.4-5.8
							l1.6-22.6c0.3-3-2-5.7-5-6c-0.2,0-0.5,0-0.7,0c0,0-11.3,1.7-31.1,2c-19.5,0.3-29.4-1.1-29.4-1.1c-3.2,0.1-5.8,2.8-5.8,6v22
							c0,3.1,2.5,5.6,5.6,5.6l0,0"/>
						<path id="Path_5779" class="st15" d="M381.1,439.1c0-6.5-5.7-11.9-12.8-11.9h-19.9c-7,0-12.8,5.3-12.8,11.9v36.4
							c0,0.1,0,0.2,0,0.3c0,0,0,0,0,0.1c0,0.8,0.6,1.5,1.4,1.5c0.7,0,1.4-0.5,1.5-1.3v-0.2v-0.1v-5.1c0-0.2,0-0.4,0-0.6v-30.9
							c0-4.9,4.5-9,9.9-9h19.9c5.5,0,9.9,4,9.9,9v38.4l0,0c0.1,0.8,0.9,1.3,1.7,1.1c0.6-0.1,1.1-0.6,1.2-1.2v-0.1c0,0,0-0.3,0-0.5
							L381.1,439.1z"/>
						<path id="Path_5780" class="st50" d="M349.2,438.5h35.2c2.5,0,4.5,2,4.5,4.5v56.2c0,2.5-2,4.5-4.5,4.5h-35.2
							c-2.5,0-4.5-2-4.5-4.5l0,0l0,0V443C344.8,440.5,346.8,438.5,349.2,438.5L349.2,438.5z"/>
						<path id="Path_5781" class="st15" d="M404,569.7c0.3,1.1,1.5,1.7,2.6,1.4c0.7-0.2,1.2-0.7,1.4-1.4v-35
							c-0.3-1.1-1.5-1.7-2.6-1.4c-0.7,0.2-1.2,0.7-1.4,1.4V569.7z"/>
						<path id="Path_5782" class="st15" d="M350.3,571.5c0.3,1.1,1.5,1.7,2.6,1.4c0.7-0.2,1.2-0.7,1.4-1.4v-35
							c-0.3-1.1-1.5-1.7-2.6-1.4c-0.7,0.2-1.2,0.7-1.4,1.4V571.5z"/>
						<path id="Path_5783" class="st15" d="M344.2,551.1c0.3,1.1,1.4,1.8,2.5,1.5c0.7-0.2,1.3-0.8,1.5-1.5v-35
							c-0.3-1.1-1.4-1.8-2.5-1.5c-0.7,0.2-1.3,0.8-1.5,1.5V551.1z"/>
						<path id="Path_5784" class="st15" d="M393,549.7c0.3,1.1,1.5,1.7,2.6,1.4c0.7-0.2,1.2-0.7,1.4-1.4v-35
							c-0.3-1.1-1.5-1.7-2.6-1.4c-0.7,0.2-1.2,0.7-1.4,1.4V549.7z"/>
						<path id="Path_5785" class="st46" d="M349.9,536.3c0,0,13,1.2,31,1.2s31.7-1.4,31.7-1.4c2.7,0,2.4-6.7,2.4-6.7l-9-12.7
							c-1.2-2.1-4.6-3.8-7.8-3.8c0,0-9.9,0.9-28.4,0.9s-28.4-0.9-28.4-0.9c-1.5,0-2.7-1.3-3.4-0.6v6.9l4.5,12.8
							C343.2,534.3,346.6,536.3,349.9,536.3"/>
						<path id="Path_5786" class="st51" d="M350.8,531.5c0,0,12.9,1.2,30.8,1.2s29.7-1.2,29.7-1.2c3.3,0,4.9-1.9,3.6-4.2l-8.4-15.1
							c-1.2-2.1-4.6-3.7-7.7-3.7c0,0-9.8,0.9-28.2,0.9s-28.2-0.9-28.2-0.9c-3.1,0-5,1.7-4.3,3.7l5.2,15.1
							C344.1,529.6,347.5,531.5,350.8,531.5"/>
						<path id="Path_5787" class="st45" d="M347.3,505.1c9.6,1.1,19.3,1.6,28.9,1.5c9.9,0,19.9-0.5,29.7-1.6c3.3,0,6.1-2.5,6.4-5.8
							l1.6-22.7c0.2-3-2-5.7-5.1-6c-0.2,0-0.5,0-0.7,0c0,0-11.3,1.7-31.2,2c-19.5,0.3-29.5-1.1-29.5-1.1c-3.3,0.1-5.9,2.8-5.9,6.1
							v22.1C341.6,502.6,344.2,505.1,347.3,505.1L347.3,505.1"/>
						<path id="Path_5788" class="st46" d="M347.5,507.5c9.6,1.1,19.2,1.6,28.9,1.6c9.9,0,19.8-0.5,29.6-1.6c3.3,0,6-2.5,6.4-5.8
							l1.6-22.6c0.3-3-2-5.7-5-6c-0.2,0-0.5,0-0.7,0c0,0-11.3,1.7-31.1,2c-19.5,0.3-29.4-1.1-29.4-1.1c-3.3,0.1-5.8,2.7-5.8,6v22
							C341.9,505.1,344.4,507.6,347.5,507.5L347.5,507.5"/>
						<path id="Path_5789" class="st15" d="M401.5,500.8c0-6.5-5.7-11.9-12.8-11.9h-19.9c-7,0-12.8,5.3-12.8,11.9v36.4
							c0,0.1,0,0.2,0,0.3c0,0,0,0,0,0.1c0,0.8,0.6,1.5,1.4,1.5s1.5-0.6,1.5-1.3c0-0.1,0-0.1,0-0.2v-0.1v-5.2c0-0.2,0-0.4,0-0.6
							v-30.9c0-4.9,4.5-9,9.9-9h19.9c5.5,0,9.9,4,9.9,9v38.4l0,0c0.1,0.8,0.9,1.3,1.6,1.2c0.6-0.1,1.1-0.6,1.2-1.2v-0.1
							c0-0.1,0-0.3,0-0.5L401.5,500.8z"/>
						<path id="Path_5790" class="st15" d="M229.6,509.4c-0.3,1.1-1.5,1.7-2.6,1.4c-0.7-0.2-1.2-0.7-1.4-1.4v-35
							c0.3-1.1,1.4-1.8,2.5-1.5c0.7,0.2,1.3,0.8,1.5,1.5V509.4z"/>
						<path id="Path_5791" class="st50" d="M209.9,375h35.2c2.5,0,4.5,2,4.5,4.5v56.2c0,2.5-2,4.5-4.5,4.5h-35.2
							c-2.5,0-4.5-2-4.5-4.5l0,0v-56.2C205.5,377,207.5,375,209.9,375z"/>
						<path id="Path_5792" class="st50" d="M89.3,375h35.2c2.5,0,4.5,2,4.5,4.5v56.2c0,2.5-2,4.5-4.5,4.5H89.3c-2.5,0-4.5-2-4.5-4.5
							l0,0v-56.2C84.8,377,86.8,375,89.3,375z"/>
						<path id="Path_5793" class="st15" d="M282.1,400.1H172.9v-4.3l5.4-28.4h98.1l5.6,28.4L282.1,400.1z"/>
						<path id="Path_5794" class="st15" d="M155.2,400.1H46l-1.1-4.3l21.9-28.4l97-4.3l1.1,4.3L155.2,400.1z"/>
						<path id="Path_5795" class="st15" d="M409.3,400.1H300.1l-9.7-32.7l0.9-4.3l97.2,4.3l21.6,28.4L409.3,400.1z"/>
						<path id="Path_5796" class="st14" d="M282.1,395.8H172.9l5.4-32.7h98.1L282.1,395.8z"/>
						<path id="Path_5797" class="st14" d="M154.1,395.8H44.9l20.8-32.7h98.1L154.1,395.8z"/>
						<path id="Path_5798" class="st14" d="M410.2,395.8H301l-9.7-32.7h98.1L410.2,395.8z"/>
						<path id="Path_5799" class="st46" d="M258.2,474.7c0,0-12.6,1.2-30.7,1.2s-30.7-1.2-30.7-1.2c-3.4,0-5.9-2-5.6-4.3l1.7-15.5
							c0.2-2.1,3-3.9,6.1-3.9c0,0,10.4,1,29.1,1s28.2-1,28.2-1c3.1,0,5.9,1.7,6.1,3.9l1.6,15.5C264.1,472.7,261.6,474.7,258.2,474.7
							"/>
						<path id="Path_5800" class="st51" d="M258,469.8c0,0-12.5,1.2-30.5,1.2s-30.4-1.2-30.4-1.2c-3.3,0-5.8-1.9-5.6-4.3l1.7-15.3
							c0.2-2.1,2.9-3.8,6-3.8c0,0,10.3,0.9,28.8,0.9s28-0.9,28-0.9c3.1,0,5.8,1.7,6,3.8l1.5,15.3C263.8,467.9,261.2,469.8,258,469.8
							"/>
						<path id="Path_5801" class="st45" d="M256.7,444c-9.7,1.1-19.4,1.7-29.2,1.6c-9.8,0.1-19.5-0.5-29.2-1.6
							c-3.2,0-5.8-2.6-5.8-5.8v-22c0-3.2,2.6-5.8,5.8-5.8l0,0c0,0,10.7,1.5,29.7,1.5s28.8-1.5,28.8-1.5c3.2,0,5.8,2.6,5.8,5.8v22
							C262.6,441.5,260,444.1,256.7,444C256.8,444.1,256.8,444.1,256.7,444"/>
						<path id="Path_5802" class="st46" d="M256.7,446.7c-9.7,1.1-19.4,1.7-29.2,1.6c-9.8,0.1-19.5-0.5-29.2-1.6
							c-3.2,0-5.8-2.6-5.8-5.8l0,0v-22c0-3.2,2.6-5.8,5.8-5.8c0,0,10.7,1.5,29.7,1.5s28.8-1.4,28.8-1.4c3.2,0,5.8,2.6,5.8,5.8v22
							C262.6,444.1,260,446.7,256.7,446.7"/>
						<path id="Path_5803" class="st15" d="M250.2,440c0-6.5-5.7-11.9-12.8-11.9h-19.9c-7,0-12.8,5.3-12.8,11.9v37.7
							c0,0.2,0,0.4,0,0.5s0,0.1,0,0.1c0.1,0.8,0.8,1.3,1.6,1.2c0.6-0.1,1.1-0.5,1.2-1.2l0,0V440c0-4.9,4.5-9,9.9-9h19.9
							c5.5,0,9.9,4,9.9,9v30.9c0,0.2,0,0.4,0,0.6v5.1v0.1c-0.1,0.8,0.5,1.5,1.3,1.5s1.5-0.5,1.5-1.3l0,0l0,0c0-0.1,0-0.1,0-0.2
							L250.2,440L250.2,440z"/>
						<path id="Path_5804" class="st15" d="M203.1,570.6c-0.3,1.1-1.4,1.8-2.5,1.5c-0.7-0.2-1.3-0.8-1.5-1.5v-35
							c0.3-1.1,1.4-1.8,2.5-1.5c0.7,0.2,1.3,0.8,1.5,1.5V570.6z"/>
						<path id="Path_5805" class="st15" d="M256,571.1c-0.3,1.1-1.5,1.7-2.6,1.4c-0.7-0.2-1.2-0.7-1.4-1.4v-35
							c0.3-1.1,1.4-1.8,2.5-1.5c0.7,0.2,1.3,0.8,1.5,1.5V571.1z"/>
						<path id="Path_5806" class="st50" d="M209.9,436.7h35.2c2.5,0,4.5,2,4.5,4.5l0,0v56.2c0,2.5-2,4.5-4.5,4.5h-35.2
							c-2.5,0-4.5-2-4.5-4.5l0,0v-56.2C205.5,438.7,207.5,436.7,209.9,436.7z"/>
						<path id="Path_5807" class="st46" d="M258.2,536.4c0,0-12.6,1.2-30.7,1.2s-30.7-1.2-30.7-1.2c-3.4,0-5.9-2-5.6-4.3l1.7-15.5
							c0.2-2.2,3-3.9,6.1-3.9c0,0,10.4,1,29.1,1s28.2-1,28.2-1c3.1,0,5.9,1.7,6.1,3.9l1.6,15.5C264.1,534.5,261.6,536.4,258.2,536.4
							"/>
						<path id="Path_5808" class="st51" d="M258,531.5c0,0-12.5,1.2-30.5,1.2s-30.4-1.2-30.4-1.2c-3.3,0-5.8-1.9-5.6-4.3l1.7-15.3
							c0.2-2.1,2.9-3.8,6-3.8c0,0,10.3,0.9,28.8,0.9s28-0.9,28-0.9c3.1,0,5.8,1.7,6,3.8l1.5,15.3C263.8,529.6,261.3,531.5,258,531.5
							"/>
						<path id="Path_5809" class="st45" d="M256.7,505.8c-9.7,1.1-19.4,1.7-29.2,1.6c-9.8,0.1-19.5-0.5-29.2-1.6
							c-3.2,0-5.8-2.6-5.8-5.8v-22c0-3.2,2.6-5.8,5.8-5.8l0,0c0,0,10.7,1.5,29.7,1.5s28.8-1.5,28.8-1.5c3.2,0,5.8,2.6,5.8,5.8v22
							C262.6,503.2,260,505.8,256.7,505.8"/>
						<path id="Path_5810" class="st46" d="M256.7,508.4c-9.7,1.1-19.4,1.7-29.2,1.6c-9.8,0.1-19.5-0.5-29.2-1.6
							c-3.2,0-5.8-2.6-5.8-5.8l0,0v-22c0-3.2,2.6-5.8,5.8-5.8c0,0,10.7,1.5,29.7,1.5s28.8-1.4,28.8-1.4c3.2,0,5.8,2.6,5.8,5.8v22
							C262.6,505.8,260,508.4,256.7,508.4"/>
						<path id="Path_5811" class="st15" d="M250.2,501.7c0-6.5-5.7-11.9-12.8-11.9h-19.9c-7,0-12.8,5.3-12.8,11.9v37.7
							c0,0.2,0,0.3,0,0.5s0,0.1,0,0.1c0.1,0.8,0.8,1.3,1.6,1.2c0.6-0.1,1.1-0.5,1.2-1.2l0,0v-38.4c0-4.9,4.5-9,9.9-9h19.9
							c5.5,0,9.9,4,9.9,9v30.9c0,0.2,0,0.4,0,0.6v5.1v0.1c-0.1,0.8,0.5,1.5,1.3,1.5c0.8,0.1,1.5-0.5,1.5-1.3l0,0c0-0.1,0-0.1,0-0.2
							L250.2,501.7L250.2,501.7z"/>
						<path id="Path_5812" class="st15" d="M70,507.5c-0.2,1.1-1.3,1.8-2.4,1.5c-0.8-0.2-1.4-0.8-1.5-1.5v-34
							c0.2-1.1,1.3-1.8,2.4-1.5c0.8,0.2,1.4,0.8,1.5,1.5V507.5z"/>
						<path id="Path_5813" class="st15" d="M123.4,508c-0.3,1.1-1.4,1.8-2.5,1.5c-0.7-0.2-1.3-0.8-1.5-1.5v-35
							c0.3-1.1,1.4-1.8,2.5-1.5c0.7,0.2,1.3,0.8,1.5,1.5V508z"/>
						<path id="Path_5814" class="st15" d="M129.5,487.6c-0.3,1.1-1.5,1.7-2.6,1.4c-0.7-0.2-1.2-0.7-1.4-1.4v-35
							c0.3-1.1,1.5-1.7,2.6-1.4c0.7,0.2,1.2,0.7,1.4,1.4V487.6z"/>
						<path id="Path_5815" class="st15" d="M93.4,483.1c-0.2,1.1-1.3,1.8-2.4,1.5c-0.8-0.2-1.4-0.8-1.5-1.5v-34
							c0.2-1.1,1.3-1.8,2.4-1.5c0.8,0.2,1.4,0.8,1.5,1.5V483.1z"/>
						<path id="Path_5816" class="st46" d="M123.8,472.8c0,0-13,1.2-31,1.2s-31.7-1.4-31.7-1.4c-2.7,0-2.4-6.7-2.4-6.7l9-12.7
							c1.2-2.1,4.6-3.8,7.7-3.8c0,0,9.9,0.9,28.4,0.9s28.4-0.9,28.4-0.9c1.5,0,2.6-1.3,3.4-0.6v6.9l-4.4,12.8
							C130.5,470.8,127.2,472.8,123.8,472.8"/>
						<path id="Path_5817" class="st51" d="M122.9,468c0,0-12.9,1.2-30.8,1.2S62.5,468,62.5,468c-3.3,0-4.9-1.9-3.7-4.2l8.4-15.1
							c1.2-2.1,4.6-3.8,7.7-3.8c0,0,9.8,0.9,28.2,0.9s28.2-0.9,28.2-0.9c3.1,0,5,1.7,4.3,3.8l-5.2,15.1
							C129.6,466.1,126.2,468,122.9,468"/>
						<path id="Path_5818" class="st45" d="M126.4,441.5c-9.6,1.1-19.3,1.6-28.9,1.6c-9.9,0-19.9-0.5-29.7-1.6
							c-3.3,0-6.1-2.5-6.4-5.8L59.8,413c-0.3-3.1,2-5.7,5.1-6c0.2,0,0.5,0,0.7,0c0,0,11.3,1.7,31.2,2c19.6,0.3,29.5-1.1,29.5-1.1
							c3.3,0.1,5.9,2.8,5.8,6V436C132.1,439.1,129.6,441.6,126.4,441.5C126.5,441.6,126.5,441.6,126.4,441.5L126.4,441.5"/>
						<path id="Path_5819" class="st46" d="M129.8,441.6c-10.1,1-20.3,1.5-30.4,1.5c-10.4,0-20.9-0.5-31.3-1.5
							c-3.5,0-6.4-2.3-6.7-5.4l-1.7-21c-0.3-2.8,2.1-5.4,5.3-5.6c0.2,0,0.5,0,0.7,0c0,0,11.9,1.6,32.8,1.8c20.6,0.3,31-1,31-1
							c3.4,0.1,6.2,2.6,6.1,5.6v20.4C135.7,439.4,133.1,441.7,129.8,441.6L129.8,441.6"/>
						<path id="Path_5820" class="st15" d="M117.6,437.3c0-6.5-5.7-11.9-12.8-11.9H85c-7,0-12.8,5.3-12.8,11.9V475
							c0,0.2,0,0.4,0,0.5v0.1c0.1,0.8,0.8,1.3,1.6,1.2c0.6-0.1,1.1-0.6,1.2-1.2l0.1,0.1v-38.4c0-5,4.5-9,9.9-9h19.9
							c5.5,0,9.9,4,9.9,9v30.9c0,0.2,0,0.4,0,0.6v5.2v0.1c-0.1,0.8,0.5,1.5,1.3,1.5c0.8,0.1,1.5-0.5,1.6-1.3l0,0l0,0
							c0-0.1,0-0.1,0-0.2L117.6,437.3L117.6,437.3z"/>
						<path id="Path_5821" class="st50" d="M66.2,436.6h35.2c2.5,0,4.5,2,4.5,4.5l0,0v56.2c0,2.5-2,4.5-4.5,4.5H66.2
							c-2.5,0-4.5-2-4.5-4.5l0,0v-56.2C61.7,438.6,63.7,436.6,66.2,436.6z"/>
						<path id="Path_5822" class="st15" d="M46.9,569.1c-0.2,1.1-1.3,1.8-2.4,1.5c-0.8-0.2-1.4-0.8-1.5-1.5v-34
							c0.2-1.1,1.3-1.8,2.4-1.5c0.8,0.2,1.4,0.8,1.5,1.5V569.1z"/>
						<path id="Path_5823" class="st15" d="M100.3,569.6c-0.3,1.1-1.5,1.7-2.6,1.4c-0.7-0.2-1.2-0.7-1.4-1.4v-35
							c0.3-1.1,1.5-1.7,2.6-1.4c0.7,0.2,1.2,0.7,1.4,1.4V569.6z"/>
						<path id="Path_5824" class="st15" d="M106.4,549.2c-0.3,1.1-1.5,1.7-2.6,1.4c-0.7-0.2-1.2-0.7-1.4-1.4v-35
							c0.3-1.1,1.5-1.7,2.6-1.4c0.7,0.2,1.2,0.7,1.4,1.4V549.2z"/>
						<path id="Path_5825" class="st15" d="M70.3,544.8c-0.2,1.1-1.3,1.8-2.4,1.5c-0.7-0.2-1.3-0.8-1.5-1.5v-34
							c0.2-1.1,1.3-1.8,2.4-1.5c0.7,0.2,1.3,0.8,1.5,1.5V544.8z"/>
						<path id="Path_5826" class="st46" d="M100.7,534.4c0,0-13,1.2-31,1.2S38,534.2,38,534.2c-2.7,0-2.4-6.7-2.4-6.7l9-12.7
							c1.2-2.1,4.6-3.8,7.7-3.8c0,0,9.8,1,28.4,1s28.4-0.9,28.4-0.9c1.5,0,2.7-1.3,3.4-0.6v6.9l-4.4,12.8
							C107.4,532.4,104,534.4,100.7,534.4"/>
						<path id="Path_5827" class="st45" d="M103.3,503.1c-9.6,1.1-19.3,1.6-28.9,1.5c-9.9,0-19.9-0.5-29.7-1.6
							c-3.3,0-6.1-2.5-6.4-5.8l-1.6-22.7c-0.2-3,2-5.7,5.1-6c0.2,0,0.5,0,0.7,0c0,0,11.3,1.7,31.2,2c19.6,0.3,29.5-1.1,29.5-1.1
							c3.3,0.1,5.9,2.8,5.8,6v22.1C109,500.7,106.4,503.2,103.3,503.1L103.3,503.1"/>
						<path id="Path_5828" class="st46" d="M103.1,505.6c-9.6,1.1-19.2,1.6-28.8,1.6c-9.9,0-19.8-0.5-29.7-1.6c-3.3,0-6-2.5-6.3-5.8
							l-1.6-22.6c-0.2-3,2-5.7,5-6c0.2,0,0.5,0,0.7,0c0,0,11.3,1.7,31.1,2c19.5,0.3,29.4-1.1,29.4-1.1c3.2,0.1,5.8,2.8,5.8,6V500
							C108.7,503.1,106.2,505.6,103.1,505.6L103.1,505.6"/>
						<path id="Path_5829" class="st51" d="M100,529.8c0,0-12.9,1.2-30.8,1.2s-29.7-1.2-29.7-1.2c-3.3,0-4.9-1.9-3.7-4.2l8.4-15.1
							c1.2-2.1,4.6-3.8,7.7-3.8c0,0,9.8,0.9,28.2,0.9s28.2-0.9,28.2-0.9c3.1,0,5,1.7,4.3,3.8l-5.2,15.1
							C106.6,527.9,103.3,529.8,100,529.8"/>
						<path id="Path_5830" class="st15" d="M94.5,498.9c0-6.5-5.7-11.9-12.8-11.9H61.9c-7,0-12.8,5.3-12.8,11.9v37.7
							c0,0.2,0,0.3,0,0.5v0.1c0.1,0.8,0.8,1.3,1.6,1.2c0.6-0.1,1.1-0.6,1.2-1.2l0.1,0.1v-38.4c0-5,4.5-9,9.9-9h19.9c5.5,0,10,4,10,9
							v30.9c0,0.2,0,0.4,0,0.6v5.2v0.1c-0.1,0.8,0.5,1.5,1.3,1.5c0.8,0.1,1.5-0.5,1.5-1.3l0,0l0,0c0-0.1,0-0.1,0-0.2L94.5,498.9
							L94.5,498.9z"/>
						<path id="Path_5831" class="st15" d="M289.6,465H165.5v-4.9l6.2-32.2h111.5l6.4,32.2V465z"/>
						<path id="Path_5832" class="st15" d="M137.3,465H13.2l-1.2-4.9l24.8-32.2L147,423l1.3,4.9L137.3,465z"/>
						<path id="Path_5833" class="st15" d="M431.7,465H307.6l-11-37.1l1-4.9l110.5,4.9l24.6,32.2L431.7,465z"/>
						<path id="Path_5834" class="st14" d="M289.6,460.1H165.5l6.2-37.1h111.5L289.6,460.1z"/>
						<path id="Path_5835" class="st14" d="M136.1,460.1H12L35.5,423H147L136.1,460.1z"/>
						<path id="Path_5836" class="st14" d="M432.7,460.1H308.6l-11-37.1h111.5L432.7,460.1z"/>
					</g>
				</g>
			</g>
		</g>
	</g>
</g>
<rect class="st52" width="452.5" height="625"/>
<g id="_01">
	<path class="st0" d="M93.5,283.5c-34.6,0-62.7,28.9-62.7,64.6c0,13.7,4.2,27,12.1,38.2H144c7.9-11.2,12.1-24.5,12.1-38.2
		C156.1,312.4,128.1,283.5,93.5,283.5z"/>
	<ellipse class="st53" cx="93.5" cy="348.1" rx="62.7" ry="64.6"/>
	<path class="st1" d="M37.4,377.1c10.3,21.2,31.5,35.7,56,35.7s45.7-14.5,56-35.7H37.4z"/>
	<path class="st54" d="M115.5,374.6H85.3c-2.5,0-4.5,2.1-4.4,4.6v32.2c0.4,0.1,0.8,0.2,1.2,0.2v-32.4c0-1.8,1.4-3.3,3.2-3.4l0,0
		h30.2c1.8,0,3.3,1.5,3.2,3.3v28l1.2-0.6v-27.4C120,376.7,118,374.7,115.5,374.6z"/>
	<path class="st15" d="M150.2,368.6l-1-3.8L66,368.6l-18,24c1.6,1.7,3.2,3.3,5,4.8h80.9c4.6-4,8.6-8.7,11.9-13.9L150.2,368.6z"/>
	<path class="st14" d="M48,392.5l1,1.1h88.9c1.6-1.6,3.1-3.4,4.5-5.2l6.8-23.7H65.1L48,392.5z"/>
	<path class="st45" d="M93.5,412.7c9.5,0,18.9-2.2,27.4-6.5c-0.9-1.2-2.3-1.9-3.9-2c0,0-8.5,1.2-25.3,0.9c-8.9,0-17.9-0.6-26.7-1.7
		c-0.2,0-0.4,0-0.6,0c-0.7,0.1-1.5,0.3-2.1,0.7C71.7,409.8,82.5,412.7,93.5,412.7z"/>
	<path class="st46" d="M65.5,405.9c16.7,8.6,36.4,9.1,53.5,1.2c-0.7-0.3-1.4-0.5-2.1-0.5c0,0-8.5,1.2-25.2,1
		C82.9,407.6,74.1,407,65.5,405.9z"/>
	<g id="Group_246-2">
		<path id="Path_2774-2" class="st55" d="M134.5,384.8H65.4c-1.8,0-3.4-1.4-3.6-3.2l-4-44.3c-0.2-2.2-0.4-4,1.6-4h81
			c2,0,1.8,1.8,1.6,4l-4,44.3C137.8,383.4,136.3,384.8,134.5,384.8"/>
		<path id="Path_2775-2" class="st56" d="M66.6,378.2l-2.9-36.8c-0.1-1,0.6-1.9,1.5-2h69.3c1,0,1.8,0.8,1.7,1.8l0,0
			c0,0.1,0,0.1,0,0.2l-2.9,36.8c-0.1,1-0.9,1.7-1.9,1.7h-63C67.5,380,66.7,379.2,66.6,378.2"/>
		<path id="Path_2776-2" class="st8" d="M65.1,343.3l2.6,34.1c0.1,0.8,0.7,1.3,1.5,1.4h61.7c0.8,0,1.4-0.6,1.5-1.4l2.6-34.1
			c0.1-0.8-0.4-1.5-1.2-1.6H66.5c-0.8,0-1.4,0.7-1.4,1.4C65.1,343.2,65.1,343.3,65.1,343.3"/>
		<path id="Path_2777-2" class="st56" d="M64.9,350.9l-0.1-1.3h70.6l-0.1,1.3H64.9z"/>
		<path id="Path_2778-2" class="st56" d="M65.7,361.6l-0.1-1.2h68.9l-0.1,1.2H65.7z"/>
		<path id="Path_2779-2" class="st56" d="M66.5,371.9l-0.1-1.2h67.3l-0.1,1.2H66.5z"/>
		<path id="Path_2780-2" class="st8" d="M133.3,374.3L133.3,374.3l-0.4,5.3h-5.5C127.8,376.7,130.3,374.4,133.3,374.3"/>
		<path id="Path_2781-2" class="st8" d="M66.5,374.3L66.5,374.3l0.4,5.3h5.5C72.1,376.7,69.6,374.4,66.5,374.3"/>
		<path id="Path_2782-2" class="st55" d="M134.4,375.1L134.4,375.1l-0.4,5.6h-5.8C128.5,377.5,131.2,375.1,134.4,375.1"/>
		<path id="Path_2783-2" class="st55" d="M65.6,375.1L65.6,375.1l0.4,5.6h5.8C71.4,377.5,68.8,375.1,65.6,375.1"/>
		<path id="Path_2784-2" class="st57" d="M62.5,337.1c0.1,0.7-0.3,1.3-1,1.4h-0.1c-0.7,0-1.3-0.6-1.4-1.4c-0.1-0.7,0.3-1.3,1-1.4
			h0.1C61.9,335.7,62.5,336.3,62.5,337.1"/>
		<path id="Path_2785-2" class="st57" d="M139.9,337.1c0,0.7-0.6,1.3-1.4,1.4c-0.7,0-1.2-0.6-1.2-1.2v-0.1c0-0.7,0.6-1.3,1.4-1.4
			c0.7,0,1.2,0.6,1.2,1.2C139.9,337,139.9,337,139.9,337.1"/>
		<path id="Path_2786-2" class="st57" d="M68.3,379.7c0.1,0.7-0.4,1.3-1.1,1.3l0,0H67c-0.8,0-1.4-0.6-1.4-1.3
			c-0.1-0.7,0.4-1.3,1.1-1.3h0.2C67.5,378.3,68.2,378.9,68.3,379.7"/>
		<path id="Path_2787-2" class="st57" d="M134.6,380c-0.1,0.7-0.7,1.3-1.4,1.3s-1.2-0.5-1.2-1.2V380c0.1-0.8,0.7-1.3,1.4-1.3
			s1.2,0.5,1.2,1.2l0,0l0,0V380"/>
		<path id="Path_2788-2" class="st8" d="M104.1,350.7h-8.2c-2.3-0.1-4-1.9-4-4.2l-0.1-5.7h16.4l-0.1,5.7
			C108.1,348.7,106.3,350.6,104.1,350.7"/>
		<path id="Path_2789-2" class="st55" d="M103.6,348.9h-7.2c-1.9-0.1-3.3-1.6-3.3-3.5l-0.1-8.1c-0.1-1.9,1.3-3.5,3.2-3.6h7.5
			c1.9,0.1,3.4,1.6,3.3,3.5l0,0v0.1l-0.1,8.1C106.9,347.3,105.5,348.8,103.6,348.9"/>
		<path id="Path_2790-2" class="st58" d="M102,340.5c0.1-1.1-0.8-2.1-1.9-2.1c-1.1-0.1-2.1,0.8-2.1,1.9l0,0c0,0.1,0,0.2,0,0.2
			c0,0.7,0.3,1.4,0.9,1.8v3c0,0.5,0.4,0.9,0.8,0.9h0.5c0.5,0,0.9-0.4,0.9-0.9l0,0l0,0v-3C101.6,341.9,102,341.2,102,340.5"/>
		<path id="Path_2791-2" class="st46" d="M101.9,340c-0.1,1-1,1.8-2.1,1.7c-1-0.1-1.8-1-1.7-2.1c0.1-1,0.9-1.7,1.9-1.7
			C101,338,101.9,338.9,101.9,340L101.9,340"/>
		<path id="Path_2792-2" class="st46" d="M100.2,345.4h-0.5c-0.5,0-0.8-0.4-0.8-0.9v-4.4h2.1v4.4C101,345,100.7,345.4,100.2,345.4"
			/>
		<path id="Path_2793-2" class="st58" d="M90.6,334.8H60.5c-0.3,0-0.5-0.2-0.5-0.5s0.2-0.5,0.5-0.5h30.1c0.3,0,0.5,0.2,0.5,0.5l0,0
			C91.1,334.5,90.9,334.8,90.6,334.8L90.6,334.8L90.6,334.8"/>
		<path id="Path_2794-2" class="st58" d="M139.5,334.8h-30.1c-0.3,0-0.5-0.2-0.5-0.5s0.2-0.5,0.5-0.5h30.1c0.3,0,0.5,0.2,0.5,0.5
			C140,334.5,139.8,334.8,139.5,334.8"/>
		<path id="Path_2795-2" class="st57" d="M91.7,334.9c0-0.8,0.6-1.5,1.5-1.6h1.1c-0.7,0-1.2,0.6-1.2,1.2v0.4l0.1,4.3h-1.3
			L91.7,334.9z"/>
		<path id="Path_2796-2" class="st57" d="M105.8,333.3h1c0.8,0,1.5,0.7,1.5,1.5l0,0l0,0l-0.1,4.5h-1.3l0.1-4.5v-0.3
			C107,333.9,106.5,333.3,105.8,333.3"/>
		<path id="Path_2797-2" class="st58" d="M105.8,334.5H94c-0.3,0-0.5-0.3-0.5-0.6c0-0.2,0.2-0.4,0.5-0.5h11.8c0.3,0,0.5,0.3,0.5,0.5
			l0,0C106.3,333.9,106.3,334.5,105.8,334.5"/>
	</g>
	<g id="close-2">
		<rect id="Rectangle_258-2" x="60.2" y="332" class="st57" width="79.9" height="1.7"/>
		<g id="Group_249-2">
			<g>
				<g>
					<defs>
						<rect id="SVGID_21_" x="56.8" y="310.8" width="86.3" height="22.8"/>
					</defs>
					<clipPath id="SVGID_22_">
						<use xlink:href="#SVGID_21_"  style="overflow:visible;"/>
					</clipPath>
					<g class="st59">
						<g id="Group_248-2">
							<path id="Path_2798-2" class="st8" d="M76,311.4h48c10.7,0,16.9,8,16.6,20.1H59.4C59,319.3,65.2,311.4,76,311.4"/>
							<path id="Path_2799-2" class="st56" d="M64.8,317.9v-1.3h70.5v1.3H64.8z"/>
							<path id="Path_2800-2" class="st56" d="M123.6,311.4h-5.2c10.7,0,17,8,16.6,20.1h5.1C140.5,319.3,134.3,311.4,123.6,311.4"/>
							<path id="Path_2801-2" class="st60" d="M125.3,310.8h-3.1c-0.7,0-1.3,0.2-1.9,0.5l-0.2,0.1c10.7,0,17,8,16.6,20.1h5.1
								C142.3,319.3,136.1,310.8,125.3,310.8"/>
							<path id="Path_2802-2" class="st56" d="M76.9,311.4h5.2c-10.7,0-17,8-16.6,20.1h-5.1C60,319.3,66.2,311.4,76.9,311.4"/>
							<path id="Path_2803-2" class="st60" d="M75.6,310.8h3.1c0.7,0,1.4,0.2,2.1,0.6c-10.7,0-17,8-16.6,20.1H59
								C58.6,319.3,64.8,310.8,75.6,310.8"/>
							<path id="Path_2804-2" class="st55" d="M140.7,332.3H59.2c-1.2,0-2.2-0.9-2.3-2.1l-0.1-2.7c0-1.1,0.8-2,1.9-2.1
								c0,0,0,0,0.1,0H141c1.1-0.1,2,0.8,2.1,1.9v0.1v0.1l-0.1,2.7C142.9,331.5,141.9,332.4,140.7,332.3"/>
							<path id="Path_2805-2" class="st57" d="M62.6,328.8c0.1,0.7-0.4,1.3-1,1.4h-0.1c-0.7,0-1.3-0.6-1.4-1.4
								c-0.1-0.7,0.3-1.3,1-1.4h0.2C62,327.5,62.6,328.1,62.6,328.8"/>
							<path id="Path_2806-2" class="st57" d="M141.1,328.6c0,0.7-0.6,1.3-1.4,1.4c-0.7,0-1.2-0.6-1.2-1.2v-0.1
								c0-0.7,0.6-1.3,1.4-1.4c0.7,0,1.2,0.6,1.2,1.2V328.6"/>
							<path id="Path_2807-2" class="st58" d="M141.1,326.5H58.8c-0.3,0-0.5-0.2-0.5-0.5s0.2-0.5,0.4-0.5h82.4
								c0.3,0,0.5,0.2,0.6,0.5l0,0C141.7,326.3,141.5,326.5,141.1,326.5L141.1,326.5"/>
						</g>
					</g>
				</g>
			</g>
		</g>
	</g>
</g>
<g id="_02">
	<path class="st0" d="M153.6,390.6h139.1c-2.3-38.4-35.3-67.7-73.7-65.4C183.8,327.3,155.8,355.4,153.6,390.6z"/>
	<path class="st1" d="M153.5,394.8c0,38.5,31.2,69.7,69.7,69.7s69.7-31.2,69.7-69.7c0-4.8-0.5-9.5-1.5-14.2H155
		C154,385.3,153.5,390,153.5,394.8z"/>
	<path id="Path_2703" class="st61" d="M211.5,378.7h33.6c2.4,0,4.3,1.9,4.3,4.3v53.5c0,2.4-1.9,4.3-4.3,4.3h-33.6
		c-2.4,0-4.3-1.9-4.3-4.3l0,0V383C207.3,380.6,209.2,378.7,211.5,378.7L211.5,378.7z"/>
	<path id="Path_2705" class="st15" d="M281.3,402.6H177.2v-4.1l5.2-27H276l5.4,27v4.1H281.3z"/>
	<path id="Path_2708" class="st14" d="M281.3,398.5H177.2l5.2-31.1H276L281.3,398.5z"/>
	<path id="Path_2713" class="st45" d="M255.3,444.5c-9.2,1.1-18.5,1.6-27.8,1.5c-9.3,0-18.6-0.5-27.8-1.5c-3,0-5.5-2.5-5.5-5.5l0,0
		v-20.9c0-3,2.5-5.5,5.5-5.5l0,0c0,0,10.1,1.4,28.2,1.4s27.4-1.4,27.4-1.4c3,0,5.5,2.5,5.5,5.5l0,0V439
		C260.8,442,258.4,444.5,255.3,444.5L255.3,444.5"/>
	<path id="Path_2714" class="st46" d="M255.7,447c-9.2,1.1-18.5,1.6-27.8,1.5c-9.3,0-18.6-0.5-27.8-1.5c-3,0-5.5-2.5-5.5-5.5v-20.9
		c0-3,2.5-5.5,5.5-5.5l0,0c0,0,10.1,1.4,28.2,1.4s27.4-1.4,27.4-1.4c3,0,5.5,2.5,5.5,5.5l0,0v21C261.2,444.5,258.8,447,255.7,447"/>
	<path class="st15" d="M279.1,436.4l-1.5-7.3H171.3l-1.9,10c24.5,29.7,68.4,34,98.1,9.5C271.8,445,275.7,440.9,279.1,436.4z"/>
	<path class="st14" d="M277.6,424.4H171.3l-2.3,14.1c7.7,9.5,17.7,16.9,29.2,21.3h50.1c12.5-4.9,23.4-13.2,31.3-24.1L277.6,424.4z"
		/>
	<path class="st55" d="M281.4,387.7c0.3-3,0.7-5.4-2.1-5.4H167.2c-2.8,0-2.5,2.4-2.2,5.4l4.8,51.8c3.7,4.5,8,8.4,12.8,11.9h81.2
		c4.7-3.4,9-7.4,12.8-11.9L281.4,387.7z"/>
	<path id="Path_2775" class="st56" d="M177,442.5l-4-49.4c-0.2-1.3,0.8-2.5,2.1-2.7h0.3H271c1.3,0,2.4,1.1,2.4,2.4l0,0l0,0
		c0,0.1,0,0.2,0,0.3l-4,49.4c-0.1,1.3-1.2,2.3-2.6,2.3h-87.2C178.3,444.9,177.2,443.9,177,442.5"/>
	<path id="Path_2776" class="st8" d="M175,395.7l3.6,45.8c0.1,1,1,1.8,2,1.8h85.3c1,0,1.9-0.8,2-1.8l3.6-45.8c0.1-1-0.6-2-1.6-2.1
		l0,0h-0.2H177c-1.1,0-1.9,0.9-1.9,1.9C174.9,395.6,174.9,395.7,175,395.7"/>
	<path id="Path_2777" class="st56" d="M174.6,405.9l-0.1-1.8h97.6l-0.1,1.8H174.6z"/>
	<path id="Path_2778" class="st56" d="M175.8,420.3l-0.1-1.7H271l-0.1,1.7H175.8z"/>
	<path id="Path_2779" class="st56" d="M176.9,434.1l-0.1-1.6h93.1l-0.1,1.6H176.9z"/>
	<path id="Path_2780" class="st8" d="M269.3,437.3L269.3,437.3l-0.6,7.1h-7.6C261.7,440.4,265.2,437.3,269.3,437.3"/>
	<path id="Path_2782" class="st55" d="M270.8,438.3L270.8,438.3l-0.6,7.5h-8C262.7,441.5,266.4,438.3,270.8,438.3"/>
	<path id="Path_2785" class="st57" d="M278.4,387.4c-0.1,1-0.9,1.8-1.9,1.9c-0.9,0-1.6-0.7-1.6-1.6l0,0c0-0.1,0-0.1,0-0.2
		c0.1-1,0.9-1.8,1.9-1.9c0.9,0,1.6,0.8,1.6,1.7C278.4,387.2,278.4,387.3,278.4,387.4"/>
	<path id="Path_2787" class="st57" d="M271,444.8c-0.1,1-1,1.8-2,1.8c-0.9,0-1.7-0.7-1.7-1.6l0,0v-0.2c0.1-1,1-1.8,2-1.8
		c0.9,0,1.7,0.7,1.7,1.6l0,0V444.8"/>
	<path id="Path_2788" class="st8" d="M228.9,405.6h-11.3c-3.1-0.1-5.5-2.6-5.5-5.6l-0.1-7.6h22.7l-0.1,7.6
		C234.4,403,231.9,405.5,228.9,405.6"/>
	<path id="Path_2789" class="st55" d="M228.1,403.2h-9.9c-2.5-0.1-4.5-2.1-4.5-4.6l-0.2-10.9c-0.1-2.6,1.9-4.8,4.5-4.9h0.1h10.2
		c2.6,0.1,4.6,2.2,4.5,4.8v0.1l-0.2,10.9C232.7,401.1,230.7,403.2,228.1,403.2"/>
	<path id="Path_2790" class="st58" d="M226,392c0.1-1.5-1.1-2.8-2.6-2.9s-2.8,1.1-2.9,2.6v0.3c0,1,0.5,1.9,1.2,2.4v4.1
		c0,0.7,0.5,1.2,1.2,1.2l0,0h0.7c0.7,0,1.2-0.6,1.2-1.2l0,0v-4.1C225.5,393.9,226,393,226,392"/>
	<path id="Path_2791" class="st46" d="M225.8,391.2c-0.1,1.4-1.3,2.6-2.8,2.5c-1.4-0.1-2.6-1.3-2.5-2.8c0.1-1.4,1.2-2.5,2.6-2.5
		C224.7,388.5,225.8,389.7,225.8,391.2L225.8,391.2"/>
	<path id="Path_2792" class="st46" d="M223.5,398.5h-0.6c-0.6,0-1.1-0.5-1.1-1.1v-5.9h2.9v5.9C224.6,398,224.2,398.5,223.5,398.5"/>
	<path id="Path_2793" class="st58" d="M210.2,384.3h-41.6c-0.4,0-0.7-0.4-0.6-0.8c0-0.3,0.3-0.6,0.6-0.6h41.7c0.4,0,0.7,0.3,0.7,0.7
		C211,383.9,210.7,384.3,210.2,384.3C210.3,384.3,210.3,384.3,210.2,384.3L210.2,384.3"/>
	<path id="Path_2794" class="st58" d="M277.8,384.3h-41.6c-0.4,0-0.7-0.4-0.6-0.8c0-0.3,0.3-0.6,0.6-0.6h41.6c0.4,0,0.7,0.4,0.6,0.8
		C278.4,384,278.1,384.2,277.8,384.3"/>
	<path id="Path_2795" class="st57" d="M211.7,384.5c0-1.1,0.9-2.1,2-2.1h1.5c-0.9,0-1.7,0.7-1.7,1.7v0.6l0.1,5.8h-1.8L211.7,384.5z"
		/>
	<path id="Path_2796" class="st57" d="M231.3,382.4h1.4c1.1,0,2.1,0.9,2.1,2.1l0,0l-0.1,6h-1.8l0.1-6V384
		C232.9,383.1,232.2,382.4,231.3,382.4"/>
	<path id="Path_2797" class="st58" d="M231.3,383.8H215c-0.4,0-0.7-0.3-0.7-0.7s0.3-0.7,0.7-0.7h16.3c0.4,0,0.7,0.3,0.7,0.7l0,0l0,0
		C232,383.1,232,383.8,231.3,383.8"/>
	<g id="close">
		<rect id="Rectangle_258" x="168.2" y="379.9" class="st57" width="110.5" height="2.3"/>
		<g id="Group_249">
			<g>
				<g>
					<defs>
						<rect id="SVGID_23_" x="163.5" y="351.6" width="119.3" height="30.6"/>
					</defs>
					<clipPath id="SVGID_24_">
						<use xlink:href="#SVGID_23_"  style="overflow:visible;"/>
					</clipPath>
					<g class="st62">
						<g id="Group_248">
							<path id="Path_2798" class="st8" d="M190,352.3h66.4c14.8,0,23.4,10.7,22.9,26.9H167.1C166.6,363,175.1,352.3,190,352.3"/>
							<path id="Path_2799" class="st56" d="M174.5,361.1l-0.1-1.8h97.5v1.8H174.5z"/>
							<path id="Path_2800" class="st56" d="M255.8,352.3h-7.2c14.8,0,23.5,10.7,23,26.9h7.1C279.2,363,270.6,352.3,255.8,352.3"/>
							<path id="Path_2801" class="st60" d="M258.2,351.6H254c-0.9,0-1.8,0.2-2.6,0.6l-0.3,0.1c14.8,0,23.5,10.7,23,26.9h7.1
								C281.7,363,273.2,351.6,258.2,351.6"/>
							<path id="Path_2802" class="st56" d="M191.3,352.3h7.2c-14.8,0-23.5,10.7-23,26.9h-7.1C167.9,363,176.5,352.3,191.3,352.3"/>
							<path id="Path_2803" class="st60" d="M189.5,351.6h4.3c1,0,2,0.3,2.9,0.8c-14.9,0-23.5,10.7-23,26.9h-7.1
								C166,363,174.6,351.6,189.5,351.6"/>
							<path id="Path_2804" class="st55" d="M279.5,380.5H166.8c-1.6,0.1-3-1.1-3.1-2.8l-0.2-3.7c0-1.5,1.2-2.8,2.8-2.8
								c0.1,0,0.1,0,0.2,0H280c1.5-0.1,2.8,1.1,2.9,2.6c0,0.1,0,0.1,0,0.2l-0.2,3.7C282.5,379.3,281.2,380.5,279.5,380.5"/>
							<path id="Path_2805" class="st57" d="M171.5,375.7c0.1,0.9-0.5,1.7-1.4,1.8h-0.2c-1,0-1.8-0.8-1.9-1.9
								c-0.1-0.9,0.5-1.7,1.4-1.8l0,0l0,0h0.2C170.6,373.9,171.4,374.7,171.5,375.7"/>
							<path id="Path_2806" class="st57" d="M280.1,375.5c-0.1,1-0.9,1.8-1.9,1.9c-0.9,0-1.6-0.8-1.6-1.7c0-0.1,0-0.1,0-0.2
								c0.1-1,0.9-1.8,1.9-1.9c0.9,0,1.6,0.8,1.6,1.7C280.1,375.3,280.1,375.4,280.1,375.5"/>
							<path id="Path_2807" class="st58" d="M280.1,372.7H166.3c-0.4,0-0.7-0.3-0.8-0.7s0.3-0.7,0.7-0.8h113.9
								c0.4,0,0.7,0.3,0.8,0.7C280.9,372.3,280.6,372.7,280.1,372.7L280.1,372.7L280.1,372.7"/>
						</g>
					</g>
				</g>
			</g>
		</g>
	</g>
	<path id="Path_2781" class="st8" d="M176.9,437.3L176.9,437.3l0.6,7.1h7.5C184.5,440.4,181,437.3,176.9,437.3"/>
	<path id="Path_2783" class="st55" d="M175.6,438.3L175.6,438.3l0.6,7.5h8C183.7,441.5,180,438.3,175.6,438.3"/>
	<path id="Path_2784" class="st57" d="M171.4,387.4c0.1,0.9-0.5,1.7-1.4,1.8h-0.2c-1,0-1.8-0.8-1.9-1.9c-0.1-0.9,0.5-1.7,1.4-1.8
		l0,0l0,0h0.2C170.5,385.5,171.3,386.3,171.4,387.4"/>
	<path id="Path_2786" class="st57" d="M179.3,444.5c0.1,0.9-0.6,1.7-1.5,1.8h-0.2c-1,0-1.9-0.8-2-1.8c-0.1-0.9,0.6-1.7,1.5-1.8l0,0
		h0.2C178.4,442.7,179.2,443.4,179.3,444.5"/>
</g>
<g id="_03">
	<path class="st0" d="M354.9,286.4c-36.1,0-65.3,29.2-65.3,65.3c0,12.3,3.5,24.4,10,34.8h110.5c19.2-30.5,10.1-70.8-20.4-90
		C379.3,289.9,367.2,286.4,354.9,286.4z"/>
	<path class="st1" d="M294.8,377.1c14.1,33.2,52.4,48.7,85.6,34.7c15.6-6.6,28.1-19,34.7-34.7H294.8z"/>
	<path class="st54" d="M367.5,376.3h-31.4c-0.9,0-1.9,0.3-2.6,0.8h36.8C369.4,376.6,368.5,376.3,367.5,376.3z"/>
	<path class="st54" d="M370.2,377.1h-36.8c-1.2,0.9-2,2.3-2,3.8v31.7c13,5,27.3,5.7,40.7,2v-33.7C372.2,379.4,371.4,378,370.2,377.1
		z M354.9,416.3c-7.6,0-15.1-1.3-22.2-3.9v-31.5c0-1.9,1.5-3.4,3.4-3.4l0,0h31.5c1.9,0,3.4,1.5,3.4,3.4l0,0v33.4
		C365.7,415.6,360.3,416.3,354.9,416.3z"/>
	<path class="st45" d="M354.9,416.9c12.9,0,25.6-3.8,36.3-11c-0.6-0.3-1.2-0.5-1.9-0.5c-0.2,0-0.4,0-0.6,0
		c-9.2,1.2-18.6,1.8-27.9,1.8c-17.5,0.3-26.3-1-26.3-1c-2.9,0.1-5.2,2.5-5.2,5.4v0.1C337.4,415.2,346.1,417,354.9,416.9z"/>
	<path class="st46" d="M361,409.5c-17.4,0.2-26.3-1-26.3-1c-2.2,0.1-4.1,1.4-4.8,3.4c19,7.8,40.5,6.3,58.2-4.1
		C379.1,408.9,370,409.5,361,409.5z"/>
	<path class="st15" d="M401.2,397.7c2-2,3.9-4.2,5.6-6.4l-17.3-22.8l-86.9-3.8l-0.8,3.8l8.6,29.2L401.2,397.7L401.2,397.7z"/>
	<path class="st14" d="M302.6,364.7l8.6,29.2h93.5c0.8-0.9,1.5-1.9,2.3-2.8l-16.7-26.4L302.6,364.7L302.6,364.7z"/>
	<g id="箱底-3">
		<g>
			<g>
				<defs>
					<rect id="SVGID_25_" x="309.7" y="332.9" width="88" height="52"/>
				</defs>
				<clipPath id="SVGID_26_">
					<use xlink:href="#SVGID_25_"  style="overflow:visible;"/>
				</clipPath>
				<g class="st63">
					<g id="Group_246-3">
						<path id="Path_2774-3" class="st55" d="M389.6,385h-72c-1.9,0-3.4-1.4-3.6-3.3l-4.2-44.7c-0.2-2.2-0.4-4,1.7-4h84.4
							c2.1,0,1.8,1.8,1.6,4l-4.2,44.7C393.1,383.6,391.5,385,389.6,385"/>
						<path id="Path_2775-3" class="st56" d="M318.9,378.3l-3-37.2c-0.1-1,0.6-1.9,1.6-2h72.2c1,0,1.8,0.8,1.8,1.8l0,0l0,0
							c0,0.1,0,0.1,0,0.2l-3,37.2c-0.1,1-0.9,1.7-1.9,1.7h-65.7C319.8,380,319,379.3,318.9,378.3"/>
						<path id="Path_2776-3" class="st8" d="M317.3,343l2.7,34.5c0.1,0.8,0.7,1.4,1.5,1.4h64.2c0.8,0,1.4-0.6,1.5-1.4L390,343
							c0.1-0.8-0.5-1.5-1.3-1.6h-70c-0.8,0-1.4,0.7-1.4,1.5C317.3,342.9,317.3,343,317.3,343"/>
						<path id="Path_2777-3" class="st56" d="M317.1,350.6l-0.1-1.3h73.5l-0.1,1.3H317.1z"/>
						<path id="Path_2778-3" class="st56" d="M317.9,361.5l-0.1-1.3h71.8l-0.1,1.3H317.9z"/>
						<path id="Path_2779-3" class="st56" d="M318.8,371.9l-0.1-1.2h70.1l-0.1,1.2H318.8z"/>
						<path id="Path_2780-3" class="st8" d="M388.4,374.4L388.4,374.4l-0.4,5.4h-5.7C382.7,376.7,385.3,374.3,388.4,374.4"/>
						<path id="Path_2781-3" class="st8" d="M318.8,374.4L318.8,374.4l0.4,5.4h5.7C324.6,376.7,321.9,374.3,318.8,374.4"/>
						<path id="Path_2782-3" class="st55" d="M389.5,375.1L389.5,375.1l-0.5,5.7h-6C383.4,377.5,386.2,375.1,389.5,375.1"/>
						<path id="Path_2783-3" class="st55" d="M317.8,375.1L317.8,375.1l0.5,5.7h6C323.9,377.5,321.1,375.1,317.8,375.1"/>
						<path id="Path_2784-3" class="st57" d="M314.6,336.7c0.1,0.7-0.4,1.3-1,1.4l0,0h-0.1c-0.8,0-1.4-0.6-1.4-1.4
							c-0.1-0.7,0.4-1.3,1-1.4l0,0h0.1C314,335.3,314.6,335.9,314.6,336.7"/>
						<path id="Path_2785-3" class="st57" d="M395.3,336.7c-0.1,0.8-0.7,1.4-1.4,1.4c-0.7,0-1.2-0.6-1.2-1.2v-0.1
							c0.1-0.8,0.7-1.4,1.5-1.4c0.7,0,1.2,0.6,1.2,1.2l0,0C395.3,336.6,395.3,336.7,395.3,336.7"/>
						<path id="Path_2786-3" class="st57" d="M320.6,379.7c0.1,0.7-0.5,1.3-1.1,1.3l0,0h-0.1c-0.8,0-1.4-0.6-1.5-1.3
							c-0.1-0.7,0.5-1.3,1.1-1.4h0.1C319.9,378.4,320.5,379,320.6,379.7"/>
						<path id="Path_2787-3" class="st57" d="M389.7,380c-0.1,0.8-0.7,1.3-1.5,1.3c-0.7,0-1.3-0.5-1.3-1.2l0,0V380
							c0.1-0.8,0.7-1.4,1.5-1.4c0.7,0,1.3,0.5,1.3,1.2l0,0l0,0C389.7,379.9,389.7,380,389.7,380"/>
						<path id="Path_2788-3" class="st8" d="M357.9,350.4h-8.5c-2.3,0-4.2-1.9-4.2-4.2l-0.1-5.8h17.1l-0.1,5.8
							C362.1,348.5,360.2,350.4,357.9,350.4"/>
						<path id="Path_2789-3" class="st55" d="M357.4,348.7h-7.5c-1.9,0-3.4-1.6-3.4-3.5l-0.1-8.2c-0.1-1.9,1.4-3.6,3.3-3.7l0,0h7.8
							c1.9,0,3.5,1.7,3.4,3.6l0,0v0.1l-0.1,8.2C360.8,347.1,359.3,348.6,357.4,348.7"/>
						<path id="Path_2790-3" class="st58" d="M355.7,340.2c0.1-1.1-0.7-2.2-1.9-2.3c-1.1-0.1-2.2,0.7-2.3,1.9c0,0.1,0,0.1,0,0.2l0,0
							c0,0.1,0,0.2,0,0.2c0,0.7,0.3,1.4,0.9,1.8v3.1c0,0.5,0.4,0.9,0.9,0.9l0,0h0.5c0.5,0,0.9-0.4,0.9-0.9l0,0l0,0V342
							C355.4,341.6,355.7,340.9,355.7,340.2"/>
						<path id="Path_2791-3" class="st46" d="M355.6,339.6c0,1.1-1,2-2.1,1.9c-1.1,0-2-1-1.9-2.1c0-1.1,0.9-1.9,2-1.9
							S355.6,338.4,355.6,339.6L355.6,339.6L355.6,339.6"/>
						<path id="Path_2792-3" class="st46" d="M353.9,345.1h-0.5c-0.5,0-0.8-0.4-0.8-0.8l0,0v-4.5h2.2v4.5
							C354.8,344.7,354.4,345.1,353.9,345.1L353.9,345.1"/>
						<path id="Path_2793-3" class="st58" d="M343.9,334.4h-31.4c-0.3,0-0.5-0.3-0.5-0.6c0-0.2,0.2-0.4,0.5-0.5h31.4
							c0.3,0,0.5,0.3,0.5,0.6C344.3,334.2,344.1,334.4,343.9,334.4L343.9,334.4"/>
						<path id="Path_2794-3" class="st58" d="M394.8,334.4h-31.3c-0.3,0-0.5-0.3-0.5-0.6c0-0.2,0.2-0.4,0.5-0.5h31.3
							c0.3,0,0.5,0.3,0.5,0.6C395.3,334.1,395.1,334.4,394.8,334.4"/>
						<path id="Path_2795-3" class="st57" d="M345,334.5c0-0.9,0.7-1.6,1.5-1.6h1.1c-0.7,0-1.3,0.6-1.3,1.3v0.4l0.1,4.4h-1.3
							L345,334.5z"/>
						<path id="Path_2796-3" class="st57" d="M359.8,332.9h1c0.9,0,1.6,0.7,1.6,1.5l0,0l0,0l-0.1,4.5H361l0.1-4.5v-0.3
							C361,333.5,360.4,332.9,359.8,332.9"/>
						<path id="Path_2797-3" class="st58" d="M359.8,334.1h-12.3c-0.3,0-0.5-0.3-0.5-0.6l0,0c0-0.3,0.2-0.5,0.5-0.5h12.3
							c0.3,0,0.5,0.3,0.5,0.5C360.3,333.5,360.3,334.1,359.8,334.1"/>
					</g>
				</g>
			</g>
		</g>
	</g>
	<g id="close-3">
		<rect id="Rectangle_258-3" x="312.2" y="331.5" class="st57" width="83.3" height="1.7"/>
		<g id="Group_249-3">
			<g>
				<g>
					<defs>
						<rect id="SVGID_27_" x="308.7" y="310.2" width="89.9" height="23.1"/>
					</defs>
					<clipPath id="SVGID_28_">
						<use xlink:href="#SVGID_27_"  style="overflow:visible;"/>
					</clipPath>
					<g class="st64">
						<g id="Group_248-3">
							<path id="Path_2798-3" class="st8" d="M328.7,310.7h50c11.2,0,17.6,8,17.2,20.3h-84.5C311,318.8,317.5,310.7,328.7,310.7"/>
							<path id="Path_2799-3" class="st56" d="M317,317.3V316h73.5v1.3H317z"/>
							<path id="Path_2800-3" class="st56" d="M378.2,310.7h-5.4c11.2,0,17.7,8,17.3,20.3h5.3C395.9,318.8,389.4,310.7,378.2,310.7"
								/>
							<path id="Path_2801-3" class="st60" d="M380.1,310.2h-3.2c-0.7,0-1.4,0.1-2,0.5l-0.2,0.1c11.2,0,17.7,8,17.3,20.3h5.3
								C397.7,318.8,391.2,310.2,380.1,310.2"/>
							<path id="Path_2802-3" class="st56" d="M329.6,310.7h5.4c-11.2,0-17.7,8-17.3,20.3h-5.3C311.9,318.8,318.4,310.7,329.6,310.7
								"/>
							<path id="Path_2803-3" class="st60" d="M328.2,310.2h3.2c0.8,0,1.5,0.2,2.2,0.6c-11.2,0-17.7,8-17.3,20.3H311
								C310.6,318.8,317,310.2,328.2,310.2"/>
							<path id="Path_2804-3" class="st55" d="M396.1,331.9h-84.9c-1.2,0-2.2-0.9-2.4-2.1l-0.1-2.8c0-1.2,0.9-2.1,2.1-2.1l0,0h85.6
								c1.2-0.1,2.1,0.8,2.2,2l0,0v0.1l-0.1,2.8C398.4,331.1,397.3,332,396.1,331.9"/>
							<path id="Path_2805-3" class="st57" d="M314.7,328.3c0.1,0.7-0.4,1.3-1,1.4l0,0h-0.1c-0.8,0-1.4-0.6-1.5-1.4
								c-0.1-0.7,0.4-1.3,1-1.4h0.2C314.1,327,314.7,327.6,314.7,328.3"/>
							<path id="Path_2806-3" class="st57" d="M396.5,328.2c-0.1,0.8-0.7,1.4-1.4,1.4c-0.7,0-1.2-0.6-1.2-1.2v-0.1
								c0.1-0.8,0.7-1.4,1.5-1.4c0.7,0,1.2,0.6,1.2,1.2l0,0C396.5,328.1,396.5,328.1,396.5,328.2"/>
							<path id="Path_2807-3" class="st58" d="M396.5,326.1h-85.8c-0.3,0-0.6-0.2-0.6-0.5s0.2-0.6,0.5-0.6h85.9
								c0.3,0,0.6,0.2,0.6,0.5S396.9,326,396.5,326.1L396.5,326.1"/>
						</g>
					</g>
				</g>
			</g>
		</g>
	</g>
</g>
<g id="tip">
	<path class="st12" d="M96.2,228.6h-8v-1.7h8V228.6z M95.5,231.6h-6.8V230h6.8V231.6z M88.8,233.1h6.8v1.7h-6.8V233.1z M95.5,243.1
		h-4.9v1h-1.8v-7.8h6.7L95.5,243.1L95.5,243.1z M90.7,238v3.4h3V238H90.7z M91.9,226.9c-0.3-1.1-0.7-2.1-1.1-3.1l1.8-0.5
		c0.5,1,0.9,2,1.2,3L91.9,226.9z M108.1,242.3c0,1-0.2,1.5-0.9,1.7c-1,0.3-2.1,0.4-3.1,0.3c-0.1-0.6-0.3-1.2-0.6-1.7
		c1,0,1.9,0,2.2,0s0.4-0.1,0.4-0.4v-1.5h-6.8c-0.2,1.4-0.8,2.8-1.7,3.9c-0.4-0.5-0.9-1-1.5-1.4c1.4-1.7,1.5-3.9,1.5-5.7v-4.2h10.5
		V242.3L108.1,242.3z M109.3,230.5v1.6H96.4v-1.6h5.3v-1.3h-4.4v-1.5h4.4v-1.2h-5v-1.6h5v-1.8h2.1v1.8h5.3v1.6h-5.3v1.2h4.9v1.5
		h-4.9v1.3H109.3z M106.1,239.3v-1.4h-6.5c0,0.4,0,0.9-0.1,1.4H106.1z M99.6,235v1.4h6.5V235H99.6z"/>
	<path class="st12" d="M111.1,243.4c0.7-1.3,1.2-2.8,1.5-4.2l1.4,0.5c-0.2,1.5-0.7,3-1.4,4.3L111.1,243.4z M121.8,238.4h-10.2v-1.7
		h4.2v-1.5H112v-1.7h3.7v-1.3H112v-8.3h9.3v8.3h-3.8v1.3h3.8v1.7h-3.8v1.5h4.2L121.8,238.4z M113.7,230.7h2.3v-5.3h-2.3V230.7z
		 M114.9,226.2c0.4,1.1,0.6,2.2,0.7,3.4l-1,0.3c-0.1-1.2-0.3-2.3-0.7-3.4L114.9,226.2z M116,239.6c0.2,1.3,0.4,2.7,0.3,4l-1.4,0.2
		c0.1-1.3,0-2.7-0.3-4L116,239.6z M118.3,239.5c0.5,1.2,0.8,2.4,1,3.7l-1.4,0.3c-0.2-1.3-0.5-2.6-0.9-3.8L118.3,239.5z M119.7,225.4
		h-2.4v5.3h2.4V225.4z M117.5,229.7c0.4-1.2,0.7-2.3,1-3.5l1.2,0.4c-0.4,1.1-0.9,2.5-1.3,3.4L117.5,229.7z M120.6,239.2
		c0.7,1.1,1.2,2.3,1.6,3.6l-1.4,0.5c-0.3-1.3-0.8-2.5-1.5-3.7L120.6,239.2z M127.8,230v4h3.8v10.3h-2v-0.9h-5.2v1h-1.9V234h3.2
		v-10.9h2.1v4.9h4.7v2H127.8z M129.6,235.9h-5.2v5.4h5.2V235.9z"/>
	<path class="st12" d="M140.4,234.4c-0.2,1.7-0.6,3.3-1.2,4.9c1.4,2.5,4.2,2.9,8.3,2.9c2.4,0,6-0.1,8.5-0.4c-0.3,0.6-0.6,1.3-0.7,2
		c-2.3,0.1-5.2,0.2-7.8,0.2c-4.5,0-7.3-0.5-9.1-3c-0.7,1.3-1.6,2.4-2.8,3.4c-0.4-0.6-0.9-1-1.4-1.5c2-1.4,3.4-3.8,4.1-7.2h-1.8
		c-0.5,0-0.9,0.1-1.4,0.4c-0.2-0.6-0.4-1.2-0.7-1.8c0.4-0.1,0.8-0.4,1.1-0.7c0.8-1.1,1.5-2.2,2.1-3.4h-2.9v-1.7h4l0.3-0.1l1.4,0.5
		c-0.8,1.3-2.1,3.6-3.2,5.2h1.9h0.4L140.4,234.4z M137.9,227.9c-0.9-1.3-1.9-2.5-3-3.7l1.6-1c1.1,1.1,2.1,2.3,3,3.5L137.9,227.9z
		 M140.4,237.9v-1.6h3.9v-1.8h-3v-1.6h3v-1.5h2v1.5h3.1v-1.5h2v1.5h3.1v1.6h-3.1v1.8h3.9v1.6H140.4z M147.5,228.9
		c-0.1,0.5-0.2,1-0.2,1.5c-4.9,0.8-5.7,1-6,1.2c-0.2-0.6-0.4-1.1-0.7-1.6c0.3-0.1,0.6-0.5,0.6-1.4V224h6.2v4.1h-4.5v1.5L147.5,228.9
		z M147,238.6c-1.4,1.2-2.9,2.2-4.6,2.9c-0.5-0.5-1.1-0.9-1.6-1.3c1.6-0.5,3-1.3,4.3-2.3L147,238.6z M142.8,225.4v1.3h2.7v-1.3
		H142.8z M146.3,236.3h3.1v-1.8h-3.1V236.3z M150.6,231c-1.8,0-2.2-0.7-2.2-2.4V224h6.4v4.1h-4.6v0.5c0,0.6,0.1,0.9,0.6,0.9h2.8
		c0.5,0,1,0,1.5-0.1c0,0.5,0.1,1.1,0.2,1.5c-0.5,0.1-1.1,0.2-1.6,0.1H150.6z M153,241.4c-1.3-1-2.6-1.9-4.1-2.6l1.4-0.9
		c1.6,0.7,3.1,1.6,4.6,2.6L153,241.4z M150.1,225.4v1.3h2.8v-1.3H150.1z"/>
	<path class="st12" d="M165.4,223.9c-0.7,1.6-1.5,3.2-2.4,4.8v15.6h-2.1v-12.4c-0.7,1-1.5,1.9-2.4,2.7c-0.4-0.8-0.8-1.5-1.3-2.2
		c2.7-2.6,4.8-5.7,6.1-9.1L165.4,223.9z M172.7,235v6.4h5.7v2.1h-13.5v-2.1h5.6V235h-6.3v-2.1h6.3v-5.6h-4.9v-2H178v2h-5.3v5.6h6.2
		v2.1H172.7z"/>
	<path class="st12" d="M202,232.3v2.4h-21.1v-2.4H202z"/>
	<path class="st12" d="M218.8,241.3c2.2,0.6,4.4,1.3,5.9,1.8l-1.9,1.3c-2.3-0.9-4.6-1.6-6.9-2.2l1-0.8H212l1.1,0.8
		c-2.4,1.1-4.9,1.9-7.6,2.3c-0.4-0.5-0.8-1-1.3-1.4c2.1-0.3,4.2-0.9,6.2-1.6h-3.2V234h14.9v7.5L218.8,241.3L218.8,241.3z
		 M206.1,227.9h-1.4v-3.4h8.8c-0.1-0.4-0.3-0.8-0.5-1.2l2.1-0.5c0.3,0.5,0.6,1.1,0.8,1.6h8.5v3.4h-1.8v0.7h-2.8v0.8h4.1v1.2h-4.1
		v1.4h1.7v-1.1h1.6v2.2h-8.4v-2.2h1.6v1.1h1.6v-1.3H214v-1.2h0.8c-0.3-0.2-0.6-0.4-0.9-0.6c0.8-0.7,1.5-1.5,1.9-2.5l1.5,0.2
		c-0.1,0.3-0.3,0.5-0.4,0.8h5.3v-1.2h-15.6v1h7v1.3h-2.9v0.9h2.6v1.2h-2.6v0.9l3-0.2v1.4c-3.1,0.2-6.3,0.4-8.6,0.6l-0.2-1.5l4-0.2
		v-1h-2.6v-1.2h2.6v-0.9H206L206.1,227.9L206.1,227.9z M209.4,236H220v-0.9h-10.6V236z M209.4,238H220v-0.9h-10.6V238z M209.4,240.1
		H220v-0.9h-10.6V240.1z M218,228.6h-1.8c-0.2,0.3-0.5,0.6-0.8,0.8h2.5v-0.8H218z"/>
	<path class="st12" d="M233.6,234.8c1,0.9,3.1,2.8,3.6,3.3l-1.4,1.7c-0.5-0.7-1.4-1.8-2.2-2.8v7.3h-2.1v-7c-0.9,1.7-2,3.2-3.2,4.6
		c-0.4-0.6-0.8-1.2-1.4-1.7c1.8-1.8,3.2-3.9,4.2-6.2h-3.5v-2h3.9v-2.5h2.1v2.5h3.4v2h-3.4L233.6,234.8L233.6,234.8z M230.9,226.7
		c-0.7,1-1.5,2-2.3,2.9c-0.5-0.5-1-1-1.6-1.4c1.6-1.4,2.8-3.2,3.6-5.2l2,0.6c-0.2,0.4-0.4,0.9-0.6,1.3h5.6v1.8h-4
		c0.8,0.6,1.5,1.4,2.1,2.2l-1.4,1.3c-0.7-0.9-1.4-1.8-2.3-2.6l1-0.9L230.9,226.7L230.9,226.7z M248.1,224.9v1.8H244
		c0.8,0.7,1.5,1.4,2.1,2.1l-1.4,1.3c-0.8-1-1.6-1.9-2.6-2.7l0.9-0.8h-2.4c-0.6,1-1.3,2-2.1,2.9c-0.6-0.5-1.2-0.9-1.8-1.2
		c1.6-1.5,2.7-3.3,3.4-5.4l2.1,0.5c-0.2,0.5-0.4,0.9-0.6,1.4L248.1,224.9L248.1,224.9z M237.7,230.5h9.7v13.7h-2.2v-0.8h-5.4v0.9
		h-2.1V230.5z M239.7,232.4v1.9h5.4v-1.9H239.7z M245.1,237.9v-2h-5.4v2H245.1z M245.1,241.6v-2h-5.4v2H245.1z"/>
	<path class="st12" d="M256.7,234.4c-0.3,1.8-0.8,3.5-1.4,5.1c1.5,2.3,4.2,2.6,8.1,2.6c2.4,0,6-0.1,8.4-0.4c-0.4,0.6-0.6,1.3-0.7,2
		c-2.2,0.1-5.2,0.2-7.8,0.2c-4.4,0-7.1-0.5-8.9-2.9c-0.8,1.3-1.8,2.4-3,3.2c-0.4-0.5-0.9-1-1.4-1.4c2.2-1.4,3.8-3.8,4.5-7.2h-2.3
		c-0.5,0-1,0.1-1.4,0.4c-0.2-0.6-0.4-1.2-0.7-1.8c0.4-0.1,0.8-0.4,1.1-0.7c0.9-1.1,1.8-2.2,2.6-3.4h-3.4v-1.7h4.8l0.3-0.1l1.3,0.6
		c-0.9,1.3-2.5,3.6-3.8,5.1h2.2h0.4L256.7,234.4z M254.1,227.8c-0.9-1.3-1.9-2.5-3-3.7l1.6-1c1.1,1.1,2.1,2.3,3,3.5L254.1,227.8z
		 M258.5,230.7c-0.5,0.7-1,1.4-1.6,2c-0.3-0.6-0.7-1.2-1.1-1.7c2-2.2,3.5-4.9,4.5-7.7l1.8,0.5c-0.4,1-0.8,2.1-1.3,3.1h4
		c-0.3-1-0.8-2-1.3-2.9l1.8-0.5c0.6,1.1,1.2,2.2,1.6,3.4h3.9v1.7H266v2h4.1v1.7H266v2h4.1v1.7H266v2.1h5.3v1.8h-12.7L258.5,230.7
		L258.5,230.7z M264,228.6h-3.6v2h3.6V228.6z M264,232.2h-3.6v2h3.6V232.2z M264,235.9h-3.6v2.1h3.6V235.9z"/>
	<path class="st12" d="M281.5,228.8c-0.8,1.2-1.6,2.4-2.5,3.5v12.1h-2.2v-9.7c-0.7,0.7-1.5,1.4-2.3,2.1c-0.4-0.7-0.9-1.3-1.5-1.8
		c2.6-1.9,4.7-4.3,6.4-7L281.5,228.8z M280.7,223.9c-1.8,2.2-3.8,4.2-6.1,5.9c-0.3-0.6-0.8-1.2-1.2-1.7c2-1.3,3.8-3,5.3-5
		L280.7,223.9z M294.6,232.8h-3.3v8.9c0,1.2-0.3,1.9-1.2,2.2c-1.4,0.3-2.9,0.5-4.4,0.4c-0.1-0.7-0.4-1.5-0.7-2.1c1.5,0,3,0,3.5,0
		s0.6-0.1,0.6-0.4v-8.9h-7.3v-2.1h12.9v2H294.6z M293.9,226.5h-11.2v-2.1h11.2V226.5z"/>
	<path class="st12" d="M304.4,235c-0.9,0.3-1.8,0.5-2.7,0.8v6.2c0,1.1-0.2,1.6-0.9,2c-1,0.3-2.1,0.5-3.2,0.4
		c-0.1-0.7-0.3-1.3-0.6-1.9c0.7,0,1.5,0,2.2,0c0.3,0,0.4-0.1,0.4-0.4v-5.6c-1,0.3-1.9,0.6-2.8,0.8l-0.5-2.1l3.3-0.9v-4.6h-3v-2h3
		v-4.5h2.1v4.5h2.4v2h-2.4v4.1l2.4-0.7L304.4,235z M317.4,228.3v15.9h-2.2v-1.5h-8.4v1.6h-2v-16h5.1v-5.2h2v5.2H317.4z M306.9,230.4
		v4h3.1v-4H306.9z M306.9,240.7h3.1v-4.2h-3.1V240.7z M312.1,230.4v4h3.2v-4H312.1z M315.3,240.7v-4.2h-3.2v4.2H315.3z"/>
	<path class="st12" d="M333,239.5c2.7,1,6.2,2.3,8.1,3.1l-1,1.7c-2-1-6.1-2.7-9-3.8l0.7-1.1h-0.9c-1,1.9-3.5,3.9-9.9,4.9
		c-0.4-0.6-0.8-1.2-1.2-1.8c4.8-0.7,7.3-1.9,8.5-3.2H320v-1.8h9.3c0-0.3,0.1-0.5,0.1-0.8v-1.5h2.1v1.5c0,0.2,0,0.5,0,0.7h4.4
		c-0.5-0.5-1.1-0.9-1.7-1.3l0.7-0.7H334c-0.1-0.6-0.3-1.1-0.6-1.6c0.7,0,1.4,0,2.1,0c0.2,0,0.4-0.1,0.4-0.3v-1.9h-4.7
		c0.7,0.5,1.4,1.1,2,1.7l-1.4,1.1c-0.7-0.8-1.5-1.6-2.4-2.2l0.9-0.7h-2.5V230h0.7c-0.2-0.4-0.5-0.9-0.8-1.2c2.1-0.2,4.2-0.7,6.2-1.4
		c-0.6-0.7-1.3-1.4-2.1-2c-0.9,0.3-1.8,0.7-2.9,1c-0.3-0.5-0.7-0.9-1.1-1.2c2.2-0.4,4.3-1.3,6.2-2.5l1.8,0.4
		c-0.4,0.3-0.7,0.6-1.1,0.8h3.8l0.4-0.1l1.1,0.6c-1.9,3.4-6.2,4.9-10.8,5.7h6.6v-1.6h2v1.6h2.8v1.5h-2.8v1.9c0,0.9-0.2,1.3-0.8,1.6
		c-0.5,0.2-1,0.2-1.6,0.2c0.7,0.5,1.3,1,1.9,1.6l-0.5,0.5h4.1v1.8L333,239.5z M323.4,231.9c0,1.7-0.7,3.4-1.9,4.6
		c-0.5-0.4-1.1-0.7-1.7-1c1.1-0.9,1.7-2.3,1.6-3.7v-0.1H320V230h5v-1.5h-4v-4.8h1.8v3.1h2.2v-3.6h2v13h-2v-4.5h-1.6V231.9
		L323.4,231.9z M332.2,228c-1.3,0.1-2.5,0.2-3.6,0.4l-0.2-1.2c1.1,0,2.3-0.1,3.8-0.2L332.2,228z M333.4,225.5
		c0.6,0.5,1.2,1.1,1.8,1.7c0.8-0.4,1.5-1,2.2-1.7H333.4z"/>
	<g>
		<path class="st12" d="M371,236.3c-0.3-0.1-0.6-0.2-0.9-0.3c-0.1,0.1,0,0.2,0,0.3c0.3,0.4,0.5,0.9,0.8,1.3c0.3,0.5,0.6,1,0.7,1.6
			c0.1,0.3,0.1,0.6,0.2,0.9s0.1,0.8,0.2,1.2c0.1,0.5,0,1-0.3,1.4c-0.1,0.3-0.3,0.5-0.6,0.7c-0.3,0.2-0.6,0.4-0.9,0.6
			c-0.2,0.2-0.5,0.3-0.8,0.3c-0.8,0.2-1.6,0.2-2.4,0c-0.4-0.1-0.9-0.3-1.3-0.4c-0.1,0-0.2-0.1-0.3-0.2c-0.5-0.5-1.1-0.7-1.6-1.1
			c-0.1-0.1-0.2-0.2-0.3-0.3c-0.4-0.4-0.7-0.9-1-1.4c-0.3-0.4-0.5-0.8-0.6-1.3c0-0.1-0.1-0.2-0.1-0.3c-0.2-0.4-0.3-0.8-0.3-1.2
			l-0.3-0.1c0-0.1,0-0.2,0-0.3c-0.1-0.4,0-0.8,0.2-1.1c0.3-0.6,0.6-1.2,0.9-1.7c0-0.1,0.1-0.2,0.1-0.2s0.2-0.3,0-0.5s0-0.2,0-0.3
			l-0.9-0.3c-0.4-0.1-0.8-0.3-1.2-0.4c-0.3-0.1-0.7-0.1-1-0.1c-0.1,0-0.2,0-0.4,0s-0.4-0.2-0.6-0.1c-0.2,0-0.4,0-0.6,0
			c-0.3,0-0.7,0-1-0.1h-0.1c-0.3,0.1-0.7,0-1,0.1c-0.2,0-0.4,0.1-0.6,0.2c-0.4,0.3-1,0.4-1.4,0.8c-0.1,0-0.1,0.1-0.2,0.1l-0.6-0.2
			c0,0.2-0.1,0.3-0.1,0.5c0.4,0.7,0.9,1.4,1.4,1.9c0.4,0.4,0.7,0.8,1,1.3c0.3,0.4,0.6,0.8,0.9,1.2s0.5,0.6,0.7,0.9s0.5,0.8,0.7,1.1
			l0.4,0.7l-0.4,0.8c-0.2,0-0.1-0.2-0.2-0.4l-0.1,0.1c0,0.1,0,0.2,0,0.3s-0.1,0.1-0.1,0.2l-0.1-0.2c-0.3,0.1-0.6,0.1-0.9,0
			c0,0-0.1-0.1-0.1-0.2c-0.1-0.2-0.3-0.2-0.4-0.2l0,0c-0.2,0.1-0.3,0-0.4-0.3c0,0,0-0.1-0.1-0.1s-0.2,0.1-0.3-0.1s-0.3-0.2-0.2-0.4
			v-0.1c-0.2-0.1-0.2-0.4-0.4-0.5s-0.2-0.3-0.3-0.5s-0.1-0.3-0.3-0.4c-0.1-0.1-0.2-0.2-0.3-0.3c-0.1-0.2-0.2-0.3-0.4-0.4
			c0-0.1-0.1-0.1-0.1-0.2s-0.1-0.3-0.2-0.4c-0.4-0.3-0.7-0.7-0.8-1.1l-0.1,0.1l0,0c0-0.2,0-0.4-0.3-0.4v-0.2l-0.4-0.3l0.1-0.3
			c-0.2-0.1-0.6-0.1-0.5-0.5l0.1-0.1l-0.1,0.1c-0.2-0.2-0.3-0.3-0.4-0.5c-0.1-0.3-0.3-0.5-0.5-0.7c-0.1-0.1-0.1-0.3-0.1-0.5
			s0-0.3-0.4-0.3l0.1-0.4H349c0.1-0.1,0.2-0.3,0.1-0.4s0.1-0.2,0.1-0.3c0-0.4,0.2-0.7,0.5-0.9c0-0.1-0.1-0.1-0.1-0.3
			c0.3-0.5,0.4-1.1,0.7-1.6c0.1-0.2,0.2-0.3,0.3-0.4c0.2-0.1,0.4-0.1,0.3-0.4c0-0.1,0.1-0.1,0.1-0.2c0.2-0.1,0.3-0.3,0.5-0.5
			c0.1-0.2,0.4-0.4,0.6-0.4c0.1,0,0.1-0.1,0.2-0.1c0.1-0.3,0.4-0.4,0.7-0.6c0.1,0,0.2-0.1,0.3-0.2c0.2-0.2,0.5-0.4,0.8-0.5h0.1
			c0.1-0.4,0.6-0.3,0.7-0.7c0.2-0.1,0.4-0.1,0.5-0.3c0.5-0.3,0.9-0.6,1.3-1l0.2,0.1l0.5-0.3c0.2-0.1,0.5-0.1,0.7-0.2
			c0.2,0.2,0.5-0.2,0.8,0.1l0.4-0.1c0.2,0.3,0.4,0.5,0.6,0.7l0,0l0,0l0.5,0.3c0.1,0.3,0.5,0.3,0.6,0.7c-0.1,0.2-0.2,0.4-0.5,0.3
			c-0.2,0.1-0.4,0.2-0.6,0.2c-0.1,0-0.1,0.1-0.2,0.1c-0.4,0.4-0.8,0.7-1.3,1c-0.4,0.3-0.9,0.7-1.2,1.1c-0.1,0.1-0.2,0.2-0.4,0.3
			c-0.3,0.2-0.6,0.5-1,0.7c-0.1,0.1-0.2,0.2-0.1,0.3s0.2,0.1,0.3,0.2c0.1,0,0.2,0,0.3,0c0.1,0,0.2,0,0.3,0c0.2,0.2,0.3,0.2,0.4-0.1
			c0,0,0.1-0.1,0.2-0.1s0.2,0.1,0.3,0.1l0.4-0.2c0,0.1,0,0.2,0.1,0.3l0.3-0.1c0.1,0.1,0.1,0.2,0.2,0.2s0.3,0.1,0.4,0.1
			c0.2,0,0.3,0,0.5-0.1c0.3-0.1,0.6,0,0.8,0.1c0.1,0.1,0.3,0.1,0.4,0.1l0.5,0.1c0,0.1,0,0.2,0,0.2c0.2,0,0.3-0.4,0.6-0.2l0,0
			l0.1,0.1c0.2,0.1,0.3,0,0.5,0s0.3,0.2,0.5,0.2c0.3,0,0.6,0.2,0.7,0.5l0.3-0.1c0.3,0.2,0.7,0.4,1,0.8h0.4c0.2,0,0.4,0.1,0.4,0.3
			c0,0,0,0,0,0.1c0.2,0,0.4,0.1,0.5,0.2c0.2,0.1,0.3,0.2,0.5,0.3s0.3-0.1,0.5,0.1h0.1c0.1-0.1,0.3,0,0.4,0s0.6-0.1,0.9-0.1
			c0.2-0.1,0.5-0.1,0.7,0c0.1,0,0.1,0,0.2,0c0.6,0.1,0.6,0.1,1,0.3c0.1,0,0.3-0.1,0.3-0.1s0.4,0.1,0.6,0.2s0.2,0.1,0.4,0.2
			s0.3-0.1,0.4,0s0.3,0,0.4,0.1c0.3,0.4,0.8,0.4,1.2,0.5c0.1,0,0.3,0,0.3,0.1c0.2,0.3,0.5,0.5,0.9,0.6c0.1,0.1,0.2,0.1,0.2,0.3
			s0.1,0.1,0.2,0.1l0.4,0.4l0.1-0.2l0.7,0.6c0.1,0.1,0.1,0.1,0.1,0.2c0,0.1,0.1,0.2,0.2,0.3c0.6,0.3,1,0.8,1.4,1.3l0.1,0.1
			c0.3,0,0.3,0.2,0.4,0.4s0.2,0.3,0.4,0.4c0.3,0.1,0.5,0.4,0.7,0.7c0.3,0.4,0.5,0.8,0.8,1.1s0.6,0.7,0.8,1.1
			c0.4,0.6,0.8,1.2,1.3,1.8l0.1,0.1c0.2,0.6,0.7,1.1,0.8,1.8c0,0.1,0.1,0.1,0.1,0.2c0.1,0.1,0.1,0.2,0.1,0.4
			c0.1,0.5,0.1,0.5,0.4,0.8c0,0.2-0.1,0.4-0.2,0.6l-0.3-0.1c0,0.1,0,0.3,0.2,0.3l0.2,0.4c-0.1,0-0.1,0-0.2,0s-0.2,0-0.2,0.1
			s0.1,0.1,0.1,0.2c0.2,0.1,0.2,0.1,0.2,0.2c-0.1,0.2-0.1,0.5,0,0.7c-0.1,0-0.2,0.1-0.3,0.1c-0.1,0-0.1,0.1-0.2,0.2l-0.2-0.2h-0.7
			c-0.1-0.2-0.2-0.4-0.1-0.7s0-0.2-0.1-0.2s-0.3-0.1-0.2-0.3c0-0.1,0-0.2-0.1-0.3s-0.1-0.3-0.1-0.4v-0.1c-0.2-0.1-0.3-0.3-0.3-0.5
			s-0.3-0.3-0.2-0.5c-0.1-0.1-0.2-0.2-0.1-0.4c0,0-0.2,0-0.3-0.1s-0.4-0.5-0.4-0.8c0-0.1-0.1-0.2-0.2-0.2c-0.3-0.2-0.4-0.6-0.8-0.7
			l0,0c0-0.4-0.3-0.6-0.6-0.8c-0.1-0.1-0.1-0.2-0.1-0.2c0-0.1-0.1-0.3-0.2-0.3c-0.1-0.1-0.1-0.1-0.2-0.2c0-0.2-0.2-0.3-0.4-0.4
			c-0.2,0-0.4-0.2-0.4-0.4h0.2c-0.1-0.1-0.3-0.1-0.3-0.3s-0.2-0.1-0.3-0.1c0-0.4-0.4-0.4-0.6-0.5c-0.2,0-0.4-0.1-0.5-0.3l0,0
			l0.2-0.1c0,0.1,0,0.1,0,0.2l0.1,0.1l0,0v-0.1l-0.1-0.1c-0.1-0.1-0.2-0.1-0.3-0.1l0,0l-0.3-0.3l0,0l0,0c0-0.2-0.2-0.3-0.4-0.3l0,0
			l-0.7-0.3c0-0.1,0-0.3,0.2-0.2h0.1c0.1,0,0.1,0,0.2-0.1l0,0l-0.2,0.1c0,0,0,0.1-0.1,0.1l-0.1-0.4h-0.5l-0.3-0.4
			c-0.3,0.1-0.6,0-0.7-0.2l0,0l0,0c0-0.1-0.1-0.3-0.2-0.3s-0.3-0.2-0.4-0.3s-0.2,0-0.3-0.1c-0.2-0.1-0.4-0.2-0.7-0.2l-0.3-0.4h-0.3
			L371,236.3z M383.9,248.1V248l0,0C383.9,248,383.9,248,383.9,248.1L383.9,248.1h-0.3C383.6,248.2,383.8,248.1,383.9,248.1
			L383.9,248.1z M367.5,237.1c-0.3-0.3-0.6-0.5-1-0.6c0.1-0.1,0.3,0,0.4-0.2l-0.9-0.2h0.1V236l0,0l-0.1,0.1l-0.5-0.1l-0.2,0.1
			c-0.5,0.4-1,0.9-1.4,1.4c0,0.1-0.1,0.1-0.1,0.2c0,0.2-0.1,0.3-0.1,0.5c-0.1,0.2-0.1,0.5,0,0.7s0.1,0.4,0.1,0.7
			c0.1,0.5,0.2,0.9,0.5,1.3c0.2,0.3,0.5,0.7,0.7,0.9c0.4,0.4,0.8,0.8,1.4,1c0.4,0.3,1,0.4,1.5,0.3c0.1,0,0.2,0,0.3,0
			s0.2-0.1,0.4-0.1c0.4-0.1,0.7-0.2,1-0.4c0.2-0.2,0.4-0.5,0.2-0.9c0-0.3-0.2-0.7,0-1c0.1-0.2-0.1-0.3-0.3-0.4c0,0,0,0,0.1-0.1
			l-0.1,0.1c-0.2-0.1-0.2-0.1,0-0.3v-0.1l0,0c0,0,0,0,0,0.1l0.1,0.1c-0.1,0-0.1,0-0.2-0.1c-0.2-0.1-0.2-0.1,0-0.4
			c0.1-0.1,0.1-0.2,0-0.2c-0.2-0.2-0.3-0.5-0.6-0.6s-0.2-0.1-0.1-0.4l0,0c-0.1-0.1-0.2-0.2-0.3-0.2c-0.2-0.1-0.3-0.3-0.4-0.5
			l-0.6-0.3l0.2-0.2l0.1,0.1L367.5,237.1z M357.7,241.3c0-0.1-0.1-0.1-0.1-0.2h-0.1v0.1C357.5,241.2,357.6,241.3,357.7,241.3
			L357.7,241.3z M349.5,232.7C349.5,232.7,349.5,232.6,349.5,232.7L349.5,232.7C349.5,232.6,349.5,232.7,349.5,232.7L349.5,232.7z
			 M353.4,238.5L353.4,238.5C353.3,238.5,353.3,238.5,353.4,238.5v0.1V238.5z M356.7,241.8L356.7,241.8L356.7,241.8
			C356.7,241.7,356.7,241.7,356.7,241.8L356.7,241.8z M357.5,224.5L357.5,224.5L357.5,224.5L357.5,224.5L357.5,224.5z M360,229.8
			L360,229.8L360,229.8L360,229.8C360,229.8,359.9,229.7,360,229.8L360,229.8z M357.8,224L357.8,224L357.8,224L357.8,224z
			 M353,227.3L353,227.3L353,227.3L353,227.3z"/>
	</g>
</g>
<image style="overflow:visible;" width="3840" height="1089" xlink:href="427FA34F.jpg"  transform="matrix(1 0 0 1 -61.4588 1488.2)">
</image>
<rect x="54.1" y="1505.5" class="st12" width="452.5" height="625"/>
<image style="overflow:visible;" width="460" height="625" xlink:href="C:\Users\080890\Downloads\slot-bg.png"  transform="matrix(1.1073 0 0 1.0198 -26.6882 -6.1831)">
</image>
<image style="overflow:visible;" width="414" height="922" xlink:href="C:\Users\080890\Downloads\bg\bg.png"  transform="matrix(1.1103 0 0 0.6792 -2.3059 -1.2)">
</image>
<g>
	<defs>
		<path id="SVGID_29_" d="M43,414.2c-26.5-41.5-41-64.3-32.1-89.1c6.1-17.2,20.3-26.4,30.1-32.8c9.4-6.1,39.4-23.1,72.3-11.9
			c4.9,1.6,21.4,7.5,33.5,23.3c4.1,5.4,13.2,17.4,14.7,34.1c0.6,6.8-0.2,12.9,2.7,14.1c3,1.2,6.6-4.3,14.7-10.7
			c8.8-6.9,16.9-9.9,26.1-13.4c9.6-3.6,16.7-6.3,26.8-6.7c5.6-0.2,17.1-0.7,28.8,5.4c5.4,2.8,14.8,9.1,23.4,16.1
			c4.8,3.9,7,6.1,9.4,5.4c4.9-1.5,3-13.4,6.7-24.8c4.7-14.6,16.8-22.6,26.1-28.8c4.1-2.7,36.2-23.4,70.3-10.7
			c15.2,5.7,24.7,15.7,29.5,20.8c5.3,5.7,15,15.9,19.4,32.1c6.6,24.1-3,44.6-5.7,50.2c-1.7,3.6-15.2,30.3-43.1,38.8
			c-17.4,5.3-36.9,2.6-59.6-0.7c-16-2.3-25.7-5.2-34.8,0.7c-8.2,5.3-8,12.8-13.4,22.8c-12.4,23-43.8,39.3-71,35.5
			c-19.2-2.7-32.7-15-37.5-19.4c-14.2-13-10.7-19.5-22.8-29.5c-15.8-13-39.3-16.4-57.6-13.4c-19.6,3.2-27.8,13-40.8,8
			C51.3,426.6,47,420.5,43,414.2z"/>
	</defs>
	<clipPath id="SVGID_30_">
		<use xlink:href="#SVGID_29_"  style="overflow:visible;"/>
	</clipPath>
	<g style="clip-path:url(#SVGID_30_);">
		
			<image style="overflow:visible;" width="442" height="194" xlink:href="427FA357.png"  transform="matrix(0.9486 0 0 0.9486 20.4098 280.3752)">
		</image>
	</g>
</g>
<g id="tip_1_">
	<path class="st12" d="M87.5,229.1h-8v-1.7h8V229.1z M86.8,232.1H80v-1.6h6.8V232.1z M80.1,233.6h6.8v1.7h-6.8V233.6z M86.8,243.6
		h-4.9v1h-1.8v-7.8h6.7L86.8,243.6L86.8,243.6z M82,238.5v3.4h3v-3.4H82z M83.2,227.4c-0.3-1.1-0.7-2.1-1.1-3.1l1.8-0.5
		c0.5,1,0.9,2,1.2,3L83.2,227.4z M99.4,242.8c0,1-0.2,1.5-0.9,1.7c-1,0.3-2.1,0.4-3.1,0.3c-0.1-0.6-0.3-1.2-0.6-1.7c1,0,1.9,0,2.2,0
		s0.4-0.1,0.4-0.4v-1.5h-6.8c-0.2,1.4-0.8,2.8-1.7,3.9c-0.4-0.5-0.9-1-1.5-1.4c1.4-1.7,1.5-3.9,1.5-5.7v-4.2h10.5V242.8L99.4,242.8z
		 M100.6,231v1.6H87.7V231H93v-1.3h-4.4v-1.5H93V227h-5v-1.6h5v-1.8h2.1v1.8h5.3v1.6h-5.3v1.2h4.9v1.5h-4.9v1.3H100.6z M97.4,239.8
		v-1.4h-6.5c0,0.4,0,0.9-0.1,1.4H97.4z M90.9,235.5v1.4h6.5v-1.4H90.9z"/>
	<path class="st12" d="M102.4,243.9c0.7-1.3,1.2-2.8,1.5-4.2l1.4,0.5c-0.2,1.5-0.7,3-1.4,4.3L102.4,243.9z M113.1,238.9h-10.2v-1.7
		h4.2v-1.5h-3.8V234h3.7v-1.3h-3.7v-8.3h9.3v8.3h-3.8v1.3h3.8v1.7h-3.8v1.5h4.2L113.1,238.9z M105,231.2h2.3v-5.3H105V231.2z
		 M106.2,226.7c0.4,1.1,0.6,2.2,0.7,3.4l-1,0.3c-0.1-1.2-0.3-2.3-0.7-3.4L106.2,226.7z M107.3,240.1c0.2,1.3,0.4,2.7,0.3,4l-1.4,0.2
		c0.1-1.3,0-2.7-0.3-4L107.3,240.1z M109.6,240c0.5,1.2,0.8,2.4,1,3.7l-1.4,0.3c-0.2-1.3-0.5-2.6-0.9-3.8L109.6,240z M111,225.9
		h-2.4v5.3h2.4V225.9z M108.8,230.2c0.4-1.2,0.7-2.3,1-3.5l1.2,0.4c-0.4,1.1-0.9,2.5-1.3,3.4L108.8,230.2z M111.9,239.7
		c0.7,1.1,1.2,2.3,1.6,3.6l-1.4,0.5c-0.3-1.3-0.8-2.5-1.5-3.7L111.9,239.7z M119.1,230.5v4h3.8v10.3h-2v-0.9h-5.2v1h-1.9v-10.4h3.2
		v-10.9h2.1v4.9h4.7v2H119.1z M120.9,236.4h-5.2v5.4h5.2V236.4z"/>
	<path class="st12" d="M131.7,234.9c-0.2,1.7-0.6,3.3-1.2,4.9c1.4,2.5,4.2,2.9,8.3,2.9c2.4,0,6-0.1,8.5-0.4c-0.3,0.6-0.6,1.3-0.7,2
		c-2.3,0.1-5.2,0.2-7.8,0.2c-4.5,0-7.3-0.5-9.1-3c-0.7,1.3-1.6,2.4-2.8,3.4c-0.4-0.6-0.9-1-1.4-1.5c2-1.4,3.4-3.8,4.1-7.2h-1.8
		c-0.5,0-0.9,0.1-1.4,0.4c-0.2-0.6-0.4-1.2-0.7-1.8c0.4-0.1,0.8-0.4,1.1-0.7c0.8-1.1,1.5-2.2,2.1-3.4H126V229h4l0.3-0.1l1.4,0.5
		c-0.8,1.3-2.1,3.6-3.2,5.2h1.9h0.4L131.7,234.9z M129.2,228.4c-0.9-1.3-1.9-2.5-3-3.7l1.6-1c1.1,1.1,2.1,2.3,3,3.5L129.2,228.4z
		 M131.7,238.4v-1.6h3.9V235h-3v-1.6h3v-1.5h2v1.5h3.1v-1.5h2v1.5h3.1v1.6h-3.1v1.8h3.9v1.6H131.7z M138.8,229.4
		c-0.1,0.5-0.2,1-0.2,1.5c-4.9,0.8-5.7,1-6,1.2c-0.2-0.6-0.4-1.1-0.7-1.6c0.3-0.1,0.6-0.5,0.6-1.4v-4.6h6.2v4.1h-4.5v1.5
		L138.8,229.4z M138.3,239.1c-1.4,1.2-2.9,2.2-4.6,2.9c-0.5-0.5-1.1-0.9-1.6-1.3c1.6-0.5,3-1.3,4.3-2.3L138.3,239.1z M134.1,225.9
		v1.3h2.7v-1.3H134.1z M137.6,236.8h3.1V235h-3.1V236.8z M141.9,231.5c-1.8,0-2.2-0.7-2.2-2.4v-4.6h6.4v4.1h-4.6v0.5
		c0,0.6,0.1,0.9,0.6,0.9h2.8c0.5,0,1,0,1.5-0.1c0,0.5,0.1,1.1,0.2,1.5c-0.5,0.1-1.1,0.2-1.6,0.1H141.9z M144.3,241.9
		c-1.3-1-2.6-1.9-4.1-2.6l1.4-0.9c1.6,0.7,3.1,1.6,4.6,2.6L144.3,241.9z M141.4,225.9v1.3h2.8v-1.3H141.4z"/>
	<path class="st12" d="M156.7,224.4c-0.7,1.6-1.5,3.2-2.4,4.8v15.6h-2.1v-12.4c-0.7,1-1.5,1.9-2.4,2.7c-0.4-0.8-0.8-1.5-1.3-2.2
		c2.7-2.6,4.8-5.7,6.1-9.1L156.7,224.4z M164,235.5v6.4h5.7v2.1h-13.5v-2.1h5.6v-6.4h-6.3v-2.1h6.3v-5.6h-4.9v-2h12.4v2H164v5.6h6.2
		v2.1H164z"/>
	<path class="st12" d="M193.3,232.8v2.4h-21.1v-2.4H193.3z"/>
	<path class="st12" d="M210.1,241.8c2.2,0.6,4.4,1.3,5.9,1.8l-1.9,1.3c-2.3-0.9-4.6-1.6-6.9-2.2l1-0.8h-4.9l1.1,0.8
		c-2.4,1.1-4.9,1.9-7.6,2.3c-0.4-0.5-0.8-1-1.3-1.4c2.1-0.3,4.2-0.9,6.2-1.6h-3.2v-7.5h14.9v7.5L210.1,241.8L210.1,241.8z
		 M197.4,228.4H196V225h8.8c-0.1-0.4-0.3-0.8-0.5-1.2l2.1-0.5c0.3,0.5,0.6,1.1,0.8,1.6h8.5v3.4h-1.8v0.7h-2.8v0.8h4.1v1.2h-4.1v1.4
		h1.7v-1.1h1.6v2.2H206v-2.2h1.6v1.1h1.6v-1.3h-3.9v-1.2h0.8c-0.3-0.2-0.6-0.4-0.9-0.6c0.8-0.7,1.5-1.5,1.9-2.5l1.5,0.2
		c-0.1,0.3-0.3,0.5-0.4,0.8h5.3v-1.2h-15.6v1h7v1.3H202v0.9h2.6v1.2H202v0.9l3-0.2v1.4c-3.1,0.2-6.3,0.4-8.6,0.6l-0.2-1.5l4-0.2v-1
		h-2.6v-1.2h2.6v-0.9h-2.9L197.4,228.4L197.4,228.4z M200.7,236.5h10.6v-0.9h-10.6V236.5z M200.7,238.5h10.6v-0.9h-10.6V238.5z
		 M200.7,240.6h10.6v-0.9h-10.6V240.6z M209.3,229.1h-1.8c-0.2,0.3-0.5,0.6-0.8,0.8h2.5v-0.8H209.3z"/>
	<path class="st12" d="M224.9,235.3c1,0.9,3.1,2.8,3.6,3.3l-1.4,1.7c-0.5-0.7-1.4-1.8-2.2-2.8v7.3h-2.1v-7c-0.9,1.7-2,3.2-3.2,4.6
		c-0.4-0.6-0.8-1.2-1.4-1.7c1.8-1.8,3.2-3.9,4.2-6.2h-3.5v-2h3.9V230h2.1v2.5h3.4v2h-3.4L224.9,235.3L224.9,235.3z M222.2,227.2
		c-0.7,1-1.5,2-2.3,2.9c-0.5-0.5-1-1-1.6-1.4c1.6-1.4,2.8-3.2,3.6-5.2l2,0.6c-0.2,0.4-0.4,0.9-0.6,1.3h5.6v1.8h-4
		c0.8,0.6,1.5,1.4,2.1,2.2l-1.4,1.3c-0.7-0.9-1.4-1.8-2.3-2.6l1-0.9L222.2,227.2L222.2,227.2z M239.4,225.4v1.8h-4.1
		c0.8,0.7,1.5,1.4,2.1,2.1l-1.4,1.3c-0.8-1-1.6-1.9-2.6-2.7l0.9-0.8h-2.4c-0.6,1-1.3,2-2.1,2.9c-0.6-0.5-1.2-0.9-1.8-1.2
		c1.6-1.5,2.7-3.3,3.4-5.4l2.1,0.5c-0.2,0.5-0.4,0.9-0.6,1.4h6.5V225.4z M229,231h9.7v13.7h-2.2v-0.8h-5.4v0.9H229V231z M231,232.9
		v1.9h5.4v-1.9H231z M236.4,238.4v-2H231v2H236.4z M236.4,242.1v-2H231v2H236.4z"/>
	<path class="st12" d="M248,234.9c-0.3,1.8-0.8,3.5-1.4,5.1c1.5,2.3,4.2,2.6,8.1,2.6c2.4,0,6-0.1,8.4-0.4c-0.4,0.6-0.6,1.3-0.7,2
		c-2.2,0.1-5.2,0.2-7.8,0.2c-4.4,0-7.1-0.5-8.9-2.9c-0.8,1.3-1.8,2.4-3,3.2c-0.4-0.5-0.9-1-1.4-1.4c2.2-1.4,3.8-3.8,4.5-7.2h-2.3
		c-0.5,0-1,0.1-1.4,0.4c-0.2-0.6-0.4-1.2-0.7-1.8c0.4-0.1,0.8-0.4,1.1-0.7c0.9-1.1,1.8-2.2,2.6-3.4h-3.4v-1.7h4.8l0.3-0.1l1.3,0.6
		c-0.9,1.3-2.5,3.6-3.8,5.1h2.2h0.4L248,234.9z M245.4,228.3c-0.9-1.3-1.9-2.5-3-3.7l1.6-1c1.1,1.1,2.1,2.3,3,3.5L245.4,228.3z
		 M249.8,231.2c-0.5,0.7-1,1.4-1.6,2c-0.3-0.6-0.7-1.2-1.1-1.7c2-2.2,3.5-4.9,4.5-7.7l1.8,0.5c-0.4,1-0.8,2.1-1.3,3.1h4
		c-0.3-1-0.8-2-1.3-2.9l1.8-0.5c0.6,1.1,1.2,2.2,1.6,3.4h3.9v1.7h-4.8v2h4.1v1.7h-4.1v2h4.1v1.7h-4.1v2.1h5.3v1.8h-12.7L249.8,231.2
		L249.8,231.2z M255.3,229.1h-3.6v2h3.6V229.1z M255.3,232.7h-3.6v2h3.6V232.7z M255.3,236.4h-3.6v2.1h3.6V236.4z"/>
	<path class="st12" d="M272.8,229.3c-0.8,1.2-1.6,2.4-2.5,3.5v12.1h-2.2v-9.7c-0.7,0.7-1.5,1.4-2.3,2.1c-0.4-0.7-0.9-1.3-1.5-1.8
		c2.6-1.9,4.7-4.3,6.4-7L272.8,229.3z M272,224.4c-1.8,2.2-3.8,4.2-6.1,5.9c-0.3-0.6-0.8-1.2-1.2-1.7c2-1.3,3.8-3,5.3-5L272,224.4z
		 M285.9,233.3h-3.3v8.9c0,1.2-0.3,1.9-1.2,2.2c-1.4,0.3-2.9,0.5-4.4,0.4c-0.1-0.7-0.4-1.5-0.7-2.1c1.5,0,3,0,3.5,0s0.6-0.1,0.6-0.4
		v-8.9h-7.3v-2.1H286v2H285.9z M285.2,227H274v-2.1h11.2V227z"/>
	<path class="st12" d="M295.7,235.5c-0.9,0.3-1.8,0.5-2.7,0.8v6.2c0,1.1-0.2,1.6-0.9,2c-1,0.3-2.1,0.5-3.2,0.4
		c-0.1-0.7-0.3-1.3-0.6-1.9c0.7,0,1.5,0,2.2,0c0.3,0,0.4-0.1,0.4-0.4V237c-1,0.3-1.9,0.6-2.8,0.8l-0.5-2.1l3.3-0.9v-4.6h-3v-2h3
		v-4.5h2.1v4.5h2.4v2H293v4.1l2.4-0.7L295.7,235.5z M308.7,228.8v15.9h-2.2v-1.5h-8.4v1.6h-2v-16h5.1v-5.2h2v5.2H308.7z
		 M298.2,230.9v4h3.1v-4H298.2z M298.2,241.2h3.1V237h-3.1V241.2z M303.4,230.9v4h3.2v-4H303.4z M306.6,241.2V237h-3.2v4.2H306.6z"
		/>
	<path class="st12" d="M324.3,240c2.7,1,6.2,2.3,8.1,3.1l-1,1.7c-2-1-6.1-2.7-9-3.8l0.7-1.1h-0.9c-1,1.9-3.5,3.9-9.9,4.9
		c-0.4-0.6-0.8-1.2-1.2-1.8c4.8-0.7,7.3-1.9,8.5-3.2h-8.3V238h9.3c0-0.3,0.1-0.5,0.1-0.8v-1.5h2.1v1.5c0,0.2,0,0.5,0,0.7h4.4
		c-0.5-0.5-1.1-0.9-1.7-1.3l0.7-0.7h-0.9c-0.1-0.6-0.3-1.1-0.6-1.6c0.7,0,1.4,0,2.1,0c0.2,0,0.4-0.1,0.4-0.3v-1.9h-4.7
		c0.7,0.5,1.4,1.1,2,1.7l-1.4,1.1c-0.7-0.8-1.5-1.6-2.4-2.2l0.9-0.7h-2.5v-1.5h0.7c-0.2-0.4-0.5-0.9-0.8-1.2
		c2.1-0.2,4.2-0.7,6.2-1.4c-0.6-0.7-1.3-1.4-2.1-2c-0.9,0.3-1.8,0.7-2.9,1c-0.3-0.5-0.7-0.9-1.1-1.2c2.2-0.4,4.3-1.3,6.2-2.5
		l1.8,0.4c-0.4,0.3-0.7,0.6-1.1,0.8h3.8l0.4-0.1l1.1,0.6c-1.9,3.4-6.2,4.9-10.8,5.7h6.6V229h2v1.6h2.8v1.5h-2.8v1.9
		c0,0.9-0.2,1.3-0.8,1.6c-0.5,0.2-1,0.2-1.6,0.2c0.7,0.5,1.3,1,1.9,1.6l-0.5,0.5h4.1v1.8L324.3,240z M314.7,232.4
		c0,1.7-0.7,3.4-1.9,4.6c-0.5-0.4-1.1-0.7-1.7-1c1.1-0.9,1.7-2.3,1.6-3.7v-0.1h-1.4v-1.7h5V229h-4v-4.8h1.8v3.1h2.2v-3.6h2v13h-2
		v-4.5h-1.6V232.4L314.7,232.4z M323.5,228.5c-1.3,0.1-2.5,0.2-3.6,0.4l-0.2-1.2c1.1,0,2.3-0.1,3.8-0.2L323.5,228.5z M324.7,226
		c0.6,0.5,1.2,1.1,1.8,1.7c0.8-0.4,1.5-1,2.2-1.7H324.7z"/>
	<g>
		<path class="st12" d="M362.3,236.8c-0.3-0.1-0.6-0.2-0.9-0.3c-0.1,0.1,0,0.2,0,0.3c0.3,0.4,0.5,0.9,0.8,1.3c0.3,0.5,0.6,1,0.7,1.6
			c0.1,0.3,0.1,0.6,0.2,0.9s0.1,0.8,0.2,1.2c0.1,0.5,0,1-0.3,1.4c-0.1,0.3-0.3,0.5-0.6,0.7c-0.3,0.2-0.6,0.4-0.9,0.6
			c-0.2,0.2-0.5,0.3-0.8,0.3c-0.8,0.2-1.6,0.2-2.4,0c-0.4-0.1-0.9-0.3-1.3-0.4c-0.1,0-0.2-0.1-0.3-0.2c-0.5-0.5-1.1-0.7-1.6-1.1
			c-0.1-0.1-0.2-0.2-0.3-0.3c-0.4-0.4-0.7-0.9-1-1.4c-0.3-0.4-0.5-0.8-0.6-1.3c0-0.1-0.1-0.2-0.1-0.3c-0.2-0.4-0.3-0.8-0.3-1.2
			l-0.3-0.1c0-0.1,0-0.2,0-0.3c-0.1-0.4,0-0.8,0.2-1.1c0.3-0.6,0.6-1.2,0.9-1.7c0-0.1,0.1-0.2,0.1-0.2s0.2-0.3,0-0.5
			c-0.2-0.2,0-0.2,0-0.3l-0.9-0.3c-0.4-0.1-0.8-0.3-1.2-0.4c-0.3-0.1-0.7-0.1-1-0.1c-0.1,0-0.2,0-0.4,0s-0.4-0.2-0.6-0.1
			c-0.2,0-0.4,0-0.6,0c-0.3,0-0.7,0-1-0.1h-0.1c-0.3,0.1-0.7,0-1,0.1c-0.2,0-0.4,0.1-0.6,0.2c-0.4,0.3-1,0.4-1.4,0.8
			c-0.1,0-0.1,0.1-0.2,0.1l-0.6-0.2c0,0.2-0.1,0.3-0.1,0.5c0.4,0.7,0.9,1.4,1.4,1.9c0.4,0.4,0.7,0.8,1,1.3c0.3,0.4,0.6,0.8,0.9,1.2
			s0.5,0.6,0.7,0.9s0.5,0.8,0.7,1.1l0.4,0.7l-0.4,0.8c-0.2,0-0.1-0.2-0.2-0.4l-0.1,0.1c0,0.1,0,0.2,0,0.3s-0.1,0.1-0.1,0.2l-0.1-0.2
			c-0.3,0.1-0.6,0.1-0.9,0c0,0-0.1-0.1-0.1-0.2c-0.1-0.2-0.3-0.2-0.4-0.2l0,0c-0.2,0.1-0.3,0-0.4-0.3c0,0,0-0.1-0.1-0.1
			s-0.2,0.1-0.3-0.1s-0.3-0.2-0.2-0.4v-0.1c-0.2-0.1-0.2-0.4-0.4-0.5s-0.2-0.3-0.3-0.5c-0.1-0.2-0.1-0.3-0.3-0.4
			c-0.1-0.1-0.2-0.2-0.3-0.3c-0.1-0.2-0.2-0.3-0.4-0.4c0-0.1-0.1-0.1-0.1-0.2c0-0.1-0.1-0.3-0.2-0.4c-0.4-0.3-0.7-0.7-0.8-1.1
			l-0.1,0.1l0,0c0-0.2,0-0.4-0.3-0.4v-0.2l-0.4-0.3l0.1-0.3c-0.2-0.1-0.6-0.1-0.5-0.5l0.1-0.1l-0.1,0.1c-0.2-0.2-0.3-0.3-0.4-0.5
			c-0.1-0.3-0.3-0.5-0.5-0.7c-0.1-0.1-0.1-0.3-0.1-0.5c0-0.2,0-0.3-0.4-0.3l0.1-0.4h-0.2c0.1-0.1,0.2-0.3,0.1-0.4
			c-0.1-0.1,0.1-0.2,0.1-0.3c0-0.4,0.2-0.7,0.5-0.9c0-0.1-0.1-0.1-0.1-0.3c0.3-0.5,0.4-1.1,0.7-1.6c0.1-0.2,0.2-0.3,0.3-0.4
			c0.2-0.1,0.4-0.1,0.3-0.4c0-0.1,0.1-0.1,0.1-0.2c0.2-0.1,0.3-0.3,0.5-0.5c0.1-0.2,0.4-0.4,0.6-0.4c0.1,0,0.1-0.1,0.2-0.1
			c0.1-0.3,0.4-0.4,0.7-0.6c0.1,0,0.2-0.1,0.3-0.2c0.2-0.2,0.5-0.4,0.8-0.5h0.1c0.1-0.4,0.6-0.3,0.7-0.7c0.2-0.1,0.4-0.1,0.5-0.3
			c0.5-0.3,0.9-0.6,1.3-1l0.2,0.1l0.5-0.3c0.2-0.1,0.5-0.1,0.7-0.2c0.2,0.2,0.5-0.2,0.8,0.1l0.4-0.1c0.2,0.3,0.4,0.5,0.6,0.7l0,0
			l0,0l0.5,0.3c0.1,0.3,0.5,0.3,0.6,0.7c-0.1,0.2-0.2,0.4-0.5,0.3c-0.2,0.1-0.4,0.2-0.6,0.2c-0.1,0-0.1,0.1-0.2,0.1
			c-0.4,0.4-0.8,0.7-1.3,1c-0.4,0.3-0.9,0.7-1.2,1.1c-0.1,0.1-0.2,0.2-0.4,0.3c-0.3,0.2-0.6,0.5-1,0.7c-0.1,0.1-0.2,0.2-0.1,0.3
			s0.2,0.1,0.3,0.2c0.1,0,0.2,0,0.3,0c0.1,0,0.2,0,0.3,0c0.2,0.2,0.3,0.2,0.4-0.1c0,0,0.1-0.1,0.2-0.1s0.2,0.1,0.3,0.1l0.4-0.2
			c0,0.1,0,0.2,0.1,0.3l0.3-0.1c0.1,0.1,0.1,0.2,0.2,0.2s0.3,0.1,0.4,0.1c0.2,0,0.3,0,0.5-0.1c0.3-0.1,0.6,0,0.8,0.1
			c0.1,0.1,0.3,0.1,0.4,0.1l0.5,0.1c0,0.1,0,0.2,0,0.2c0.2,0,0.3-0.4,0.6-0.2l0,0l0.1,0.1c0.2,0.1,0.3,0,0.5,0s0.3,0.2,0.5,0.2
			c0.3,0,0.6,0.2,0.7,0.5l0.3-0.1c0.3,0.2,0.7,0.4,1,0.8h0.4c0.2,0,0.4,0.1,0.4,0.3c0,0,0,0,0,0.1c0.2,0,0.4,0.1,0.5,0.2
			c0.2,0.1,0.3,0.2,0.5,0.3s0.3-0.1,0.5,0.1h0.1c0.1-0.1,0.3,0,0.4,0s0.6-0.1,0.9-0.1c0.2-0.1,0.5-0.1,0.7,0c0.1,0,0.1,0,0.2,0
			c0.6,0.1,0.6,0.1,1,0.3c0.1,0,0.3-0.1,0.3-0.1s0.4,0.1,0.6,0.2c0.2,0.1,0.2,0.1,0.4,0.2c0.2,0.1,0.3-0.1,0.4,0s0.3,0,0.4,0.1
			c0.3,0.4,0.8,0.4,1.2,0.5c0.1,0,0.3,0,0.3,0.1c0.2,0.3,0.5,0.5,0.9,0.6c0.1,0.1,0.2,0.1,0.2,0.3c0,0.2,0.1,0.1,0.2,0.1l0.4,0.4
			l0.1-0.2l0.7,0.6c0.1,0.1,0.1,0.1,0.1,0.2s0.1,0.2,0.2,0.3c0.6,0.3,1,0.8,1.4,1.3l0.1,0.1c0.3,0,0.3,0.2,0.4,0.4
			c0.1,0.2,0.2,0.3,0.4,0.4c0.3,0.1,0.5,0.4,0.7,0.7c0.3,0.4,0.5,0.8,0.8,1.1c0.3,0.3,0.6,0.7,0.8,1.1c0.4,0.6,0.8,1.2,1.3,1.8
			l0.1,0.1c0.2,0.6,0.7,1.1,0.8,1.8c0,0.1,0.1,0.1,0.1,0.2c0.1,0.1,0.1,0.2,0.1,0.4c0.1,0.5,0.1,0.5,0.4,0.8c0,0.2-0.1,0.4-0.2,0.6
			l-0.3-0.1c0,0.1,0,0.3,0.2,0.3l0.2,0.4c-0.1,0-0.1,0-0.2,0s-0.2,0-0.2,0.1s0.1,0.1,0.1,0.2c0.2,0.1,0.2,0.1,0.2,0.2
			c-0.1,0.2-0.1,0.5,0,0.7c-0.1,0-0.2,0.1-0.3,0.1c-0.1,0-0.1,0.1-0.2,0.2l-0.2-0.2h-0.7c-0.1-0.2-0.2-0.4-0.1-0.7
			c0.1-0.3,0-0.2-0.1-0.2s-0.3-0.1-0.2-0.3c0-0.1,0-0.2-0.1-0.3s-0.1-0.3-0.1-0.4v-0.1c-0.2-0.1-0.3-0.3-0.3-0.5
			c0-0.2-0.3-0.3-0.2-0.5c-0.1-0.1-0.2-0.2-0.1-0.4c0,0-0.2,0-0.3-0.1s-0.4-0.5-0.4-0.8c0-0.1-0.1-0.2-0.2-0.2
			c-0.3-0.2-0.4-0.6-0.8-0.7l0,0c0-0.4-0.3-0.6-0.6-0.8c-0.1-0.1-0.1-0.2-0.1-0.2c0-0.1-0.1-0.3-0.2-0.3c-0.1-0.1-0.1-0.1-0.2-0.2
			c0-0.2-0.2-0.3-0.4-0.4c-0.2,0-0.4-0.2-0.4-0.4h0.2c-0.1-0.1-0.3-0.1-0.3-0.3c0-0.2-0.2-0.1-0.3-0.1c0-0.4-0.4-0.4-0.6-0.5
			c-0.2,0-0.4-0.1-0.5-0.3l0,0l0.2-0.1c0,0.1,0,0.1,0,0.2l0.1,0.1l0,0v-0.1l-0.1-0.1c-0.1-0.1-0.2-0.1-0.3-0.1l0,0l-0.3-0.3l0,0l0,0
			c0-0.2-0.2-0.3-0.4-0.3l0,0l-0.7-0.3c0-0.1,0-0.3,0.2-0.2h0.1c0.1,0,0.1,0,0.2-0.1l0,0l-0.2,0.1c0,0,0,0.1-0.1,0.1l-0.1-0.4h-0.5
			l-0.3-0.4c-0.3,0.1-0.6,0-0.7-0.2l0,0l0,0c0-0.1-0.1-0.3-0.2-0.3s-0.3-0.2-0.4-0.3s-0.2,0-0.3-0.1c-0.2-0.1-0.4-0.2-0.7-0.2
			l-0.3-0.4h-0.3L362.3,236.8z M375.2,248.6v-0.1l0,0C375.2,248.5,375.2,248.5,375.2,248.6L375.2,248.6h-0.3
			C374.9,248.7,375.1,248.6,375.2,248.6L375.2,248.6z M358.8,237.6c-0.3-0.3-0.6-0.5-1-0.6c0.1-0.1,0.3,0,0.4-0.2l-0.9-0.2h0.1v-0.1
			l0,0l-0.1,0.1l-0.5-0.1l-0.2,0.1c-0.5,0.4-1,0.9-1.4,1.4c0,0.1-0.1,0.1-0.1,0.2c0,0.2-0.1,0.3-0.1,0.5c-0.1,0.2-0.1,0.5,0,0.7
			c0.1,0.2,0.1,0.4,0.1,0.7c0.1,0.5,0.2,0.9,0.5,1.3c0.2,0.3,0.5,0.7,0.7,0.9c0.4,0.4,0.8,0.8,1.4,1c0.4,0.3,1,0.4,1.5,0.3
			c0.1,0,0.2,0,0.3,0s0.2-0.1,0.4-0.1c0.4-0.1,0.7-0.2,1-0.4c0.2-0.2,0.4-0.5,0.2-0.9c0-0.3-0.2-0.7,0-1c0.1-0.2-0.1-0.3-0.3-0.4
			c0,0,0,0,0.1-0.1l-0.1,0.1c-0.2-0.1-0.2-0.1,0-0.3v-0.1l0,0c0,0,0,0,0,0.1l0.1,0.1c-0.1,0-0.1,0-0.2-0.1c-0.2-0.1-0.2-0.1,0-0.4
			c0.1-0.1,0.1-0.2,0-0.2c-0.2-0.2-0.3-0.5-0.6-0.6s-0.2-0.1-0.1-0.4l0,0c-0.1-0.1-0.2-0.2-0.3-0.2c-0.2-0.1-0.3-0.3-0.4-0.5
			l-0.6-0.3l0.2-0.2l0.1,0.1L358.8,237.6z M349,241.8c0-0.1-0.1-0.1-0.1-0.2h-0.1v0.1C348.8,241.7,348.9,241.8,349,241.8L349,241.8z
			 M340.8,233.2C340.8,233.2,340.8,233.1,340.8,233.2L340.8,233.2C340.8,233.1,340.8,233.2,340.8,233.2L340.8,233.2z M344.7,239
			L344.7,239C344.6,239,344.6,239,344.7,239v0.1V239z M348,242.3L348,242.3L348,242.3C348,242.2,348,242.2,348,242.3L348,242.3z
			 M348.8,225L348.8,225L348.8,225L348.8,225L348.8,225z M351.3,230.3L351.3,230.3L351.3,230.3L351.3,230.3
			C351.3,230.3,351.2,230.2,351.3,230.3L351.3,230.3z M349.1,224.5L349.1,224.5L349.1,224.5L349.1,224.5z M344.3,227.8L344.3,227.8
			L344.3,227.8L344.3,227.8z"/>
	</g>
</g>
</svg>
