<svg xmlns="http://www.w3.org/2000/svg" xmlns:xlink="http://www.w3.org/1999/xlink" width="19.956" height="19.956" viewBox="0 0 19.956 19.956">
  <defs>
    <clipPath id="clip-path">
      <rect id="Rectangle_2033" data-name="Rectangle 2033" width="19.956" height="19.956" fill="none"/>
    </clipPath>
  </defs>
  <g id="title-star" transform="translate(-24)">
    <g id="title-star-2" data-name="title-star">
      <g id="Group_2990" data-name="Group 2990" transform="translate(24)" clip-path="url(#clip-path)">
        <path id="Path_9545" data-name="Path 9545" d="M20.718,11.692a9.026,9.026,0,1,1-9.026-9.026,9.026,9.026,0,0,1,9.026,9.026" transform="translate(-1.714 -1.714)" fill="#2d2d2d"/>
        <path id="Path_9546" data-name="Path 9546" d="M9.978,19.956a9.978,9.978,0,1,1,9.978-9.978,9.989,9.989,0,0,1-9.978,9.978m0-18.052a8.074,8.074,0,1,0,8.075,8.074A8.083,8.083,0,0,0,9.978,1.9" transform="translate(0 0)" fill="#f9b438"/>
        <path id="Path_9547" data-name="Path 9547" d="M12.861,15.91l2.375-.313a.891.891,0,0,0,.677-.478L17,12.985a.89.89,0,0,1,1.6.021l1.032,2.162a.888.888,0,0,0,.664.5l2.366.376a.89.89,0,0,1,.473,1.525L21.4,19.215a.893.893,0,0,0-.267.784l.374,2.366a.89.89,0,0,1-1.3.921l-2.106-1.143a.891.891,0,0,0-.828-.011L15.13,23.22a.89.89,0,0,1-1.279-.956l.437-2.356a.891.891,0,0,0-.246-.791l-1.693-1.7a.89.89,0,0,1,.513-1.512" transform="translate(-7.771 -8.036)" fill="#f2ad22" fill-rule="evenodd"/>
        <path id="Path_9548" data-name="Path 9548" d="M19.957,23.1a1.261,1.261,0,0,1-.6-.154L17.249,21.8a.52.52,0,0,0-.484-.006L14.63,22.883a1.261,1.261,0,0,1-1.812-1.354l.437-2.356a.518.518,0,0,0-.144-.461l-1.693-1.7a1.261,1.261,0,0,1,.727-2.142l2.375-.312a.52.52,0,0,0,.395-.279L16,12.15a1.261,1.261,0,0,1,2.261.03L19.3,14.342a.518.518,0,0,0,.387.289l2.367.376a1.261,1.261,0,0,1,.67,2.16l-1.738,1.649a.52.52,0,0,0-.155.458l.374,2.366A1.264,1.264,0,0,1,19.957,23.1M17,21a1.26,1.26,0,0,1,.6.153l2.106,1.143a.519.519,0,0,0,.761-.538L20.1,19.39a1.262,1.262,0,0,1,.378-1.112l1.738-1.649a.519.519,0,0,0-.276-.889l-2.367-.376a1.26,1.26,0,0,1-.94-.7L17.6,12.5a.509.509,0,0,0-.462-.3.517.517,0,0,0-.47.284L15.576,14.62a1.262,1.262,0,0,1-.958.677l-2.376.313a.52.52,0,0,0-.3.882l1.693,1.695a1.26,1.26,0,0,1,.348,1.121l-.436,2.356a.519.519,0,0,0,.747.557l2.135-1.087A1.267,1.267,0,0,1,17,21" transform="translate(-7.103 -7.369)" fill="#f9b438"/>
      </g>
    </g>
  </g>
</svg>
